<svg xmlns="http://www.w3.org/2000/svg" viewBox="0 0 21.11 20.69"><defs><style>.cls-1{fill:#f4f4f4;}</style></defs><title>edit-save</title><g id="Layer_2" data-name="Layer 2"><g id="Layer_1-2" data-name="Layer 1"><path class="cls-1" d="M15.55,0H3A3,3,0,0,0,0,3V17.7a3,3,0,0,0,3,3H18.13a3,3,0,0,0,3-3V6C21.11,4.32,17.19,0,15.55,0ZM4.16,2.28a1,1,0,0,1,1-1h9.51a1,1,0,0,1,1,1v4.6a1,1,0,0,1-1,1H5.16a1,1,0,0,1-1-1Zm14,15.92a1,1,0,0,1-1,1H3.6a1,1,0,0,1-1-1V10.85a1,1,0,0,1,1-1H17.12a1,1,0,0,1,1,1Z"/><rect class="cls-1" x="11.95" y="2.35" width="2.46" height="4.31"/></g></g></svg>