<svg xmlns="http://www.w3.org/2000/svg" viewBox="0 0 49.01 49.01"><defs><style>.cls-1{fill:none;stroke:#2c2c2c;stroke-miterlimit:10;stroke-width:2.18px;}.cls-2{fill:#2c2c2c;fill-rule:evenodd;}</style></defs><title>logo-linkedin</title><g id="Layer_2" data-name="Layer 2"><g id="Layer_1-2" data-name="Layer 1"><circle class="cls-1" cx="24.5" cy="24.5" r="23.41"/><path class="cls-2" d="M14.11,20.41h4.25V35.19H14.11V20.41ZM16,18.65h0a2.38,2.38,0,0,1-2.49-2.49,2.49,2.49,0,1,1,5,0A2.37,2.37,0,0,1,16,18.65ZM35.19,35.19H30.36V27.58c0-2-.73-3.37-2.34-3.37a2.39,2.39,0,0,0-2.35,1.9,2.31,2.31,0,0,0-.14,1.17v7.91H20.7V20.41h4.83v2.34c.29-1,1.9-2.34,4.24-2.34,2.93,0,5.42,2.19,5.42,6.73v8Z"/></g></g></svg>