<svg xmlns="http://www.w3.org/2000/svg" viewBox="0 0 64.61 85.31"><defs><style>.cls-1{fill:#ffa970;}.cls-2{fill:#696372;}.cls-3{fill:#e2514c;}.cls-4{fill:#d0c8db;}.cls-5{fill:#eae4f4;}.cls-6{fill:#b9accc;}.cls-7{fill:#817199;}.cls-8{fill:#f59157;}.cls-9{fill:#514b59;}.cls-10{fill:#a393ba;}.cls-11{fill:#ffc0c0;}.cls-12{fill:#ffd9d9;}.cls-13{fill:#d16333;}.cls-14{fill:#e87c46;}.cls-15{fill:#807a89;}</style></defs><title>workstation</title><g id="Layer_2" data-name="Layer 2"><g id="Layer_1-2" data-name="Layer 1"><path class="cls-1" d="M19.29,12.35a2.49,2.49,0,0,0,5,0,2.49,2.49,0,0,0-5,0Z"/><path class="cls-2" d="M38.09,16.4H36.86V8.51h1.23a.79.79,0,0,1,.79.79v6.31A.8.8,0,0,1,38.09,16.4Z"/><path class="cls-3" d="M52.53,44.53A33.77,33.77,0,0,0,63.05,42.6l-1.66-4.42c-2.25.84-9,2.64-13.29.89-4.92-2-8.18-8.93-8.92-11.42L34.92,29c.14.45,3.4,11.16,11.38,14.44A16.32,16.32,0,0,0,52.53,44.53Z"/><path class="cls-4" d="M18.63,57.19H8.81C4,57.19,0,53.68,0,49.35V36.66c0-4.33,4-7.84,8.81-7.84h9.82c4.87,0,6.16,1.86,6.16,6.19v16.7C24.79,56,23.5,57.19,18.63,57.19Z"/><path class="cls-4" d="M38.79,71l.85-16.21H8.79v7.75s2.23,3.68,5,8.21,3.91,8.15,2.28,10.81l-2.7,3.63H44.49Z"/><path class="cls-5" d="M44.65,60.36v4.5c0,6.49-8.4,11.75-15.94,11.75S15.06,71.35,15.06,64.86v-4.5Z"/><rect class="cls-4" x="15.06" y="62.42" width="29.59" height="2.02"/><path class="cls-5" d="M23.78,57.19H14c-4.87,0-8.81-3.51-8.81-7.84V36.66c0-4.33,3.94-7.84,8.81-7.84h9.82c4.86,0,6.15,1.86,6.15,6.19v16.7C29.93,56,28.64,57.19,23.78,57.19Z"/><path class="cls-6" d="M7.27,40.45c0,9.25,6,16.74,13.31,16.74S33.89,49.7,33.89,40.45s-6-16.74-13.31-16.74S7.27,31.21,7.27,40.45Z"/><path class="cls-4" d="M9.77,40.45c0,9.25,6,16.74,13.3,16.74S36.38,49.7,36.38,40.45s-6-16.74-13.31-16.74S9.77,31.21,9.77,40.45Z"/><polygon class="cls-7" points="47.2 74.5 41.75 73.08 33.8 73.08 30.65 73.08 30.37 75.46 35.85 77.21 47.2 74.5"/><polygon class="cls-8" points="41.81 78.97 42.86 80.01 48.89 82.77 48.89 83.7 37.86 83.7 37.86 78.97 41.81 78.97"/><path class="cls-9" d="M43.89,79.2c3.36,0,6.09,1.91,6.09,4.27H43.89Z"/><path class="cls-9" d="M37.75,85.19H49.07a.88.88,0,0,0,.91-.86v-.86H36.84v.86A.88.88,0,0,0,37.75,85.19Z"/><polygon class="cls-1" points="33.08 78.97 34.14 80.01 40.17 82.77 40.17 83.7 29.14 83.7 29.14 78.97 33.08 78.97"/><path class="cls-9" d="M35.17,79.2c3.36,0,6.09,1.91,6.09,4.27H35.17Z"/><path class="cls-9" d="M29,85.19H40.35a.88.88,0,0,0,.91-.86v-.86H28.11v.86A.89.89,0,0,0,29,85.19Z"/><path class="cls-8" d="M34.85,52.36H46.21c4.35,0,6.39,3.2,4.57,7.14L41.81,79h-4L42,62.38h-4l1.34-2.88C41.24,55.56,39.19,52.36,34.85,52.36Z"/><path class="cls-1" d="M24.08,62.38A10.12,10.12,0,0,1,13.84,52.22l.77-7.41h10l12.64,7.4,0,.15h.23c4.35,0,6.39,3.2,4.56,7.14L40.7,62.38h-.05l-3.06,6.71L33.08,79H29.13l4.28-16.59Z"/><path class="cls-3" d="M32,23.35h-10c-4,0-7.33,1.66-7.65,6.7l-.45,22.31h23.4l2.4-22.31C39.31,25,36,23.35,32,23.35Z"/><rect class="cls-1" x="22.99" y="16.44" width="8.99" height="7.71"/><path class="cls-1" d="M23,24.15a4.34,4.34,0,0,0,4.49,4.17A4.34,4.34,0,0,0,32,24.15,4.34,4.34,0,0,0,27.48,20,4.34,4.34,0,0,0,23,24.15Z"/><polygon class="cls-8" points="31.96 19.13 22.98 23.38 22.98 16.5 31.96 16.5 31.96 19.13"/><polygon class="cls-10" points="43.15 80.53 35.17 81.87 27.52 80.59 28.11 76.88 28.27 73.73 30.65 73.08 30.37 75.46 35.85 77.21 41.86 75.29 47.2 74.5 48.2 77.47 47.2 78.39 48.61 80.77 43.15 80.53"/><polygon class="cls-7" points="45.1 80.62 42.7 77.21 43.15 80.53 45.1 80.62"/><polygon class="cls-7" points="37.32 81.51 37.03 79.4 38.33 81.34 37.32 81.51"/><path class="cls-5" d="M7.37,57.19H34.64l-1.23,5.19h-26a2.6,2.6,0,1,1,0-5.19Z"/><rect class="cls-11" x="4.9" y="74.81" width="9.19" height="10.38"/><rect class="cls-12" x="9.5" y="74.81" width="9.19" height="10.38"/><path class="cls-1" d="M21.83,45.68a24.09,24.09,0,0,0,4.91-.6l-.6-3.86c-2.65.37-10.25.73-13.5-2.09L9.55,42.7C12.89,45.59,18,45.68,21.83,45.68Z"/><path class="cls-3" d="M12.64,39.13a4.34,4.34,0,0,1-1.49-3.5c0-7.29,9.46-7.43,9.86-7.43l.93-4.85A22.82,22.82,0,0,0,14,24.87C9.2,27,6.43,30.65,6.43,35.63A9.08,9.08,0,0,0,9.55,42.7Z"/><rect class="cls-5" x="56.27" y="56.05" width="0.77" height="23.3"/><path class="cls-5" d="M55.85,60.21a.8.8,0,0,0,.81.8h0a.8.8,0,0,0,.8-.8V56.07a.8.8,0,0,0-.8-.81h0a.81.81,0,0,0-.81.81Z"/><path class="cls-5" d="M52.72,78.39A2.24,2.24,0,0,1,55,76.15h3.4a2.24,2.24,0,0,1,2.24,2.24v6.92H52.72Z"/><rect class="cls-5" x="54.05" y="74.77" width="5.22" height="5.17" rx="0.8"/><polygon class="cls-2" points="30.84 50.76 31.1 50.76 30.38 35.86 30.12 35.86 30.84 50.76"/><path class="cls-2" d="M30.27,36.08l.1-.16c6.48-11,7.11-17.67,7.11-17.74l-.26,0c0,.07-.62,6.62-7,17.48-.87-1.14-8-8.32-9.33-19l-.26,0c1.3,11.32,9.44,19.15,9.5,19.23Z"/><path class="cls-6" d="M20.61,8.82V16.7a1.29,1.29,0,0,1-1.28-1.3V10.12A1.29,1.29,0,0,1,20.61,8.82Z"/><path class="cls-2" d="M18.33,11.19c.1-3.53,1.12-6.28,3.06-8.18s4.92-3.28,9.08-3a8.8,8.8,0,0,1,6,2.77c3.14,3.58,2.19,9.4,2.16,9.66l-1-.12c0-.06.92-5.67-1.91-8.9a7.62,7.62,0,0,0-5.2-2.36C26.61.83,24,1.93,22.12,3.75s-2.75,4.5-2.75,8v2.39c0,.43-.24.78-.53.78s-.52-.35-.52-.78v-3Z"/><path class="cls-1" d="M21.92,13.13c-.24-5.61-.15-7.71,1.92-9.87A10.46,10.46,0,0,1,29.79.84h.54A9.72,9.72,0,0,1,36,3.26c2.07,2.16,2.16,4.26,1.92,9.88.24,5.61-1.88,6.92-4,9.08a4.52,4.52,0,0,1-6.26,0C25.63,20.06,21.68,18.75,21.92,13.13Z"/><circle class="cls-2" cx="29.45" cy="12.45" r="0.95"/><path class="cls-2" d="M34.16,12.45a1,1,0,1,0,1-.95A1,1,0,0,0,34.16,12.45Z"/><polygon class="cls-13" points="30.59 11.22 26.48 10.34 27.43 9.54 30.95 10.18 30.59 11.22"/><polygon class="cls-13" points="34.03 11.13 38.01 10.38 36.99 9.56 33.71 10.08 34.03 11.13"/><path class="cls-13" d="M36.86,17l-1.54,1.28-1.11-2.15h-5l-1.83,2.37-3.95-2.28-.25-3-1.1-1.14L21.78,19l6.91,4.41h4.09l5-4.28,0-3.68ZM24.67,19.67Z"/><polygon class="cls-1" points="30.12 17.12 33.92 17.12 34.42 18.48 33.94 19.2 31.91 19.87 29.9 19.2 29.41 18.23 30.12 17.12"/><path class="cls-14" d="M29.93,18.22a.53.53,0,0,0,.53.52h2.91a.53.53,0,0,0,.52-.52h0a.53.53,0,0,0-.52-.53H30.46a.53.53,0,0,0-.53.53Z"/><path class="cls-2" d="M21.84,16.71H20.61V8.82h1.23a.79.79,0,0,1,.79.79v6.31A.79.79,0,0,1,21.84,16.71Z"/><path class="cls-1" d="M25.9,41.44a2.32,2.32,0,0,1,.57-.49l.8-.44a12.43,12.43,0,0,1,2.21-.84l.88-.25a7,7,0,0,1,2.84-.1l1.53.31a.69.69,0,0,1,.53.82.68.68,0,0,1-.2.36.69.69,0,0,1-.47,1.28l-.13,0a.68.68,0,0,1,0,.4.7.7,0,0,1-.82.54l-1.8-.38.59.57a.69.69,0,0,1,0,1,.7.7,0,0,1-1,0L31,43.73a2.09,2.09,0,0,1-.77.67l-1.4.52a2.31,2.31,0,0,1-1.45.25l-1.8-.23Z"/><path class="cls-1" d="M52.22,39.56A.66.66,0,0,1,53,39h0a.66.66,0,0,1,.54.78l-.32,1.89c-.07.36-.42.74-.78.68h0a.68.68,0,0,1-.55-.78Z"/><path class="cls-9" d="M60.1,52.36H28.87a1.6,1.6,0,0,1-1.59-1.6H61.69A1.6,1.6,0,0,1,60.1,52.36Z"/><path class="cls-2" d="M27.85,50.12a.38.38,0,0,1,.37-.37h1.12a.37.37,0,0,1,.37.37h.81a.37.37,0,0,1,.37-.37H32a.38.38,0,0,1,.37.37H33v0a.37.37,0,0,1,.37-.37h1.12a.38.38,0,0,1,.37.37.43.43,0,0,1,0,0H61.46v.64H27.28v-.64Z"/><rect class="cls-2" x="34.51" y="31.39" width="29.03" height="19.37" rx="1.6"/><path class="cls-15" d="M56.5,31.39l7,7V49.16a1.6,1.6,0,0,1-1.6,1.6H60.88L41.51,31.39Z"/><path class="cls-15" d="M36.11,31.39h2.66L58.14,50.76H53L34.63,32.39A1.59,1.59,0,0,1,36.11,31.39Z"/><path class="cls-9" d="M47,40.39a2,2,0,1,0,2-2A2,2,0,0,0,47,40.39Z"/><path class="cls-1" d="M63.24,37.06,61,37.2a.66.66,0,0,0-.63.71.67.67,0,0,0,.46.6l-.32,0a.67.67,0,0,0-.31,1.25.65.65,0,0,0-.35.52.67.67,0,0,0,.6.74h.08a.69.69,0,0,0-.33.43.66.66,0,0,0,.49.81l1.28.55c1.71.51,2.73-.37,2.66-1V38.38A1.25,1.25,0,0,0,63.24,37.06Z"/></g></g></svg>