<svg xmlns="http://www.w3.org/2000/svg" viewBox="0 0 431.94 393.66"><defs><style>.cls-1{fill:#231f20;}.cls-2{fill:#efc847;}.cls-3{fill:#fff;}</style></defs><title>404-banana</title><g id="Layer_2" data-name="Layer 2"><g id="Objects"><path class="cls-1" d="M431.77,109.9c.05-1.07-1.42-4.39-1.32-5.59a7.38,7.38,0,0,0-.32-3.68c-.52-1.08-3.51-4-4.3-3.81s-.32.21-.91.6a13.42,13.42,0,0,0-2,1.06c-6.69-2.61-13.94-.15-20.66,1.89l-1.39.41-9.63,3-1.52.3-1.72.34c-5.82,2-11.23,2.31-17.43,2.95-8.12.48-15.11,6.06-22.49,9.44l-1.29.61-8.63,4.15c-.44.22-.88.42-1.3.62-19.73,8.46-38.73,17.46-58.69,24.39l-1.76.57c-6.52,2.06-13.76,4.14-21.47,6l-2.09.51c-19.14,2.59-37.59,7.22-57,6.36l-1.16,0c-4.24-.21-8.45-.6-12.59-1.21a212.14,212.14,0,0,1-52.49-15l-1.05-.45-1-.46c-13.35-7.42-27-13.93-39.3-22.61l-1.46-1.12a130.07,130.07,0,0,1-15.31-13.72c-.38-.42-.75-.84-1.1-1.25-3.63-4.16-6.89-8.85-7-14.19-.07-.65-.15-1.3-.23-1.94-.7-5.81-1.79-11.61-.23-17.48.06-.43.13-.86.19-1.29.33-2.4.73-4.74,1.17-7,.08-.45.17-.89.26-1.33,2.34-8.46,6.51-19.78.13-26l-.45-1.11S61,29.3,60.87,28s1.31-4.68,1.2-5.64-2.72-3.88-3-3.57S59,21,58.44,21.37s-.1-2.16-.4-2.92-5.44-5.4-5.42-6.6,1.89-7,1.89-7l-.65-1.82S52.7,4.51,52.45,4.54s-.37-3.18-.58-3-1.14,1.72-1.3,1.75.21-2.36-.1-2.35S48.94,2,48.69,2.05s-2.17-2.2-2.21-2,.24,4.25,0,4.39-1.69-.33-1.77-.21,1,7.13.8,7.37-4.57,1.64-4.89,2.19a32.49,32.49,0,0,0-1.41,5.87c.1.1,1.57,1.12,2.6,1.84l-1,.9C33,26.26,34.84,34.29,35.19,41c0,.41,0,.84,0,1.26-.17,4.82-.48,10.33-1.08,15.69,0,.38-.08.76-.13,1.15C33,66.44,31.22,73.6,27,80.36a16.56,16.56,0,0,1-1.11,1.7C11.6,99,.49,120.46,0,143c0,.73,0,1.46,0,2.19.36,20.59,3.25,41.59,15.7,58.15l1.14,1.79A132.34,132.34,0,0,0,30.4,222.61l.63.75s.7.84,1.94,2.27l1.44,1.65c8.5,10.1,16.94,19.63,26.26,28l1.11,1.11q3,3,6.21,6.13l1.31,1.27c6.5,6.12,12.55,12,19.3,18L90,283c11,9.57,21.49,20.61,34.27,28.3l1.74,1.32,3.27,2.46,1.66,1.23c23.53,16.22,47.33,33,73.67,43.72l2,.86q4.74,2,9.46,3.83l1.9.72A197.59,197.59,0,0,0,259.1,378l1.34.37c10.88,3,20.52,5.4,29.07,7.37l1.26.29c19.49,5.85,40.58,8.93,60.74,7.18.67-.07,1.31-.16,1.92-.24,2.44-.36,4.4-.79,6.13-1.17l1.71-.37c5.39-.48,11.36-.56,16.8-.71l1.27.07c3.76.22,7.08.53,9.16.76l.5.05a3.85,3.85,0,0,0,2.71-.31c1.44.17,5.69.57,6.26.6s3.35.75,3.83.49-.06-1.26.33-1.92,2.61-2.39,2.94-3,1.54-4.47,1.83-4.65,1.53-.89,1.64-1.36-2.42-3.77-2.64-4.42a12.58,12.58,0,0,1-.29-2.19s-1.52-2-1.94-1.65-1.51.56-1.38,1.12c.09.34-1.32,1.08-2.38,1.58l-.58.28h0a5.1,5.1,0,0,0-.4-.94,7.23,7.23,0,0,0-1-1.36c-10.52-8.28-22.3-14.64-33.41-22.79l-1-.65c-3.35-2-6.43-4.67-9.8-6.89-.48-.32-1-.62-1.47-.93-3.55-2.12-7.13-3-11.12-4.9-.5-.23-1-.44-1.45-.63-4.91-2.55-10.32-2.22-15.67-4.15l-1.28-.53c-.59-.25-1.18-.52-1.78-.8s-1.19-.56-1.8-.86c-16-10.4-33.66-16.14-51-23.5l-1.93-.82c-6.84-2.81-13.58-6.19-20.6-9.09,3.69-.33,7.15-.72,10.28-1.14l1.8-.26c21.51-1,41.07-9.73,61.49-15.06l2.11-.69a150.62,150.62,0,0,0,16.38-6.29c3.72-1.74,7.8-3.94,11.95-6.33l1.15-.66a86.52,86.52,0,0,0,11.6-6.21c10.42-7.41,19.56-13.39,30.53-20.56,2.22-1.35,4.81-2.39,7.23-3.76q.73-.42,1.44-.87a8.89,8.89,0,0,0,5.57-4.52c.86-.24,1.73-.47,2-.54a15.74,15.74,0,0,1,2.83.3c.49,0,1.6-1.18,1.93-1.81s1.9-.72,2.38-1,.82-4.61,1.13-5,1.17.34,1.42,0,.46-3.84-.35-4.19-3.13-.84-3.48-1.48-.38-4-.73-4.27a28.52,28.52,0,0,0-2.65-1.13c-.48-.21-.84-2.78-1.29-2.94a.32.32,0,0,0-.17,0h0c-.34.07-9.56,1.93-16,3.37l-1,.23a41.12,41.12,0,0,1-7.49,1.58c-3.34,0-6.8-1.2-10.27-.43l-.86.1-7.66.94-1.06.13a192.55,192.55,0,0,1-22.91,1.34l-1,0-6.94.15-1.15,0c-8.84.13-17.51.8-26,3.6-.67.13-1.47-.14-2.09.1l-1.06.07L280,221.81l-1.12.08c-14,.31-28,3-42,1.75l-1.1,0c-5.43-.15-11.72-.44-18.8-1l-1.19-.09c-7.6-1.14-15.2-1.27-22.83-2.41l-1-.13-2.92-.4-.92-.13a99.7,99.7,0,0,1-13.4-2.87c-1.33-.4-2.66-.66-4.13-1.06a156.63,156.63,0,0,1-20.18-5.95l-1.3-.43c-1.29-.42-2.59-.82-3.85-1.36-3.2-1.2-6.14-3.2-9.33-4.72l-.91-.46c-5.75-2.89-11.26-6-16.39-9.05l3.45.45,1.4,1.94,2.31.24.79,1.34,1.23,0,.86,1.39,1.54-.31.63,1.64,2.76-1.09.56,1.06,2-.34,1.62,1.89,1.2-.62,1,1.51,1.3-.83.2.27,1.2-.06,1.1,1.5,3.13-1,1.67,2,2.28.05,1.65,1.28.92-.46.36.73,2.71-1,.8.43,2.6-.06,1,1.55,1.37-.48.77.61,1.32-.17,1.67,1.68,1.82-1.37,2,.34,1.33,1.37,2.15-.11,1.43,1.5,2.29-.54,2.38.69.48-.8,1.2,1.34,1.56-1.58,1,1.75,1.44-.85,1,.59,1.39-.32,1.95,1.39.83-.79,1.32.79,1.44-1,1-.11,3.58,1.53,1.17-.6,1.15,1.38,1-.78,1.63,1.79,2-3.33,2.28,1.64,1.26-1.27,1.08.71.67-.71,1.44,1.47,2.09-3.26,2.48-.09,1.16.49.75-.55.94.91,1.46-1.19,1.85.79.93-.69,1.2.73,1.95-1.55,2.37,2,2.07-1.63,2,.85,2.69-1.72,1.21-.2,1.32,1,1.52-1.4,1.31.06,2.16,1.52,1.2-1,2.27.38.68-.87,1.15.84,1.34-1.41,2.56.18.82-.86.14.15,1-.66,5.72.12,1.6-1.44,1.49.64,1.26-.77,1.64.51.95-1.17,1,.16,1-1.18,2.29.65,1.49-1.59,2.26,1.36,3.06-2.5,1.26.4,1.07-1.14,2,1.2,4.95-3.53h2.13L291,196l1.81.82.92-1.13,1.48,1,.72-.59c.4-.34.87-.72,1.19-1l1.4.32,1-2.1,1.48-.64,3.93.51,3.24-3.06,2.53-.67,1.75-1.64,1.64-.27,2.14.39,2-2.27,2.09-.36,2.82.71,1.22-1.56.79.26.94-1.18,1.46.31,1.28-1.41,2.11.29,3-2.15,2.18-.11,2.7-1.89,2.39.41,2.81-3.75,3.48-1.6,1.8.29,5.18-4,2.71.68,2-2.74,6.36-3.88,2,.44,1.19-1.92,1.6,0,.89-2.38L388.42,149l21.46-22.46,7-4.63,1.2-.8c3.71-2.44,7.37-4.83,11-7.3l1-.67C432.33,111.62,432,110.18,431.77,109.9Zm-316,81.17,1,1.42c-1.17-.71-2.31-1.42-3.43-2.13Z"/><path class="cls-2" d="M407.48,210.53l-12.82,2.86-1,.22c-3.6.86-7.47,2.06-11.07,1.66s-6.8-.67-10.44,0l-1,.12-1,.12-1.09.13c-1.8.31-3.67-.09-5.53.31-9.47,2.66-19.07,1.6-28.57,1.62h-1l-6.37.14-1,0a88.55,88.55,0,0,0-15.45,2.41l-1.33.32a36.88,36.88,0,0,1-9.53,1.19l-.89.05-40.18,2.77a231.49,231.49,0,0,1-27.15.26l-.92,0A347.24,347.24,0,0,1,178,219.13l-1.24-.23c-1.22-.24-2.44-.5-3.66-.77l-1.47-.34a72,72,0,0,1-9.53-2.52c-5.6-2.13-11.34-3.87-17.07-6.13a47.21,47.21,0,0,1-6.18-3.29l-1.36-.67-1.44-.7c-6.89-3.48-14.09-6.54-20.34-11.15l-1.1-.66c-2.53-1.53-5-3.15-7.42-4.86l-.74-.49-1.82-1.21h0l-.94-.63a114,114,0,0,1-14-9.92l-1.24-.82a38.12,38.12,0,0,1-5.8-4.57,9.72,9.72,0,0,1-1-.78,20.51,20.51,0,0,1-2.42-3.1,58,58,0,0,1-10.72-16.79c-.31-.53-.62-1.07-.92-1.61-1.51-2.68-2.91-5.39-4.13-8.16-.28-.52-.57-1-.85-1.57-2.84-5.21-5.68-10.57-6.47-16.58l-.67-2a115.74,115.74,0,0,1-3.25-12.29L51.94,106c-.65-5.41-2.88-11-1.06-16.78a2.25,2.25,0,0,0,1.91.16c1.68,5.32,2.56,11,4.72,16.35.13.39.28.8.45,1.21a35.57,35.57,0,0,0,4.52,7.53c.34.46.7.93,1.07,1.4C66,120.1,70,123.12,73.26,126l1.55,1.42C85.2,137,96.07,146.49,108.53,153.7l1.58,1a208.53,208.53,0,0,0,19.79,10.12q.93.36,1.86.69c6.83,2.45,14.1,3.83,21.05,6l1.86.41c6.77,1.47,13.77,3.07,21,3.42l1.85.12a140.88,140.88,0,0,1,20.63,2.42c8,1.43,15.44-.65,23.07-.54l1.65,0c3.76-.07,7.37.13,11.32-.49,8.91-.8,17.1-4.55,27-6.23,4.85-.56,9.62-2.47,14.19-4l2-.69c2-.69,4-1.4,5.94-2.13l1.07-.39c10.62-4,20.64-8.94,31.28-13l1.92-.92c10.9-5.12,21.91-9.11,32.51-15,.4-.19.81-.39,1.24-.58l4-1.86,1.31-.61c5.74-3.2,12.1-5.75,18.36-8.51l1.11-.51c4-1.82,6.89-3.11,7.59-3.35a12.21,12.21,0,0,1,2.13-.43q.63-.09,1.35-.15c6.69.81,12.73-2.54,19.19-5,.6-.26,1.19-.51,1.8-.75a41.55,41.55,0,0,1,12.38-3.06,5.48,5.48,0,0,0,.81-1.1,11.68,11.68,0,0,1,.82-2.12,2.89,2.89,0,0,1,1.93-1.24c.52.06,1.41,1.21,1.7,1.23a1.42,1.42,0,0,0,.95-.88c0-.3-1.79-.94-1.93-1.27L423.14,100h0l-3.92-.72-.93-.17c-4.1-.81-8,0-11.82,1.2l-1,.3-13.93,4.26-24.39,4.84-.58.13a31.75,31.75,0,0,0-5.31,1.87l-.52.25-33.89,16.32s-80.37,41.08-144.94,31.6S64.71,109.7,61.51,91C59,76.06,64.44,54.59,66.77,46.5l.12-.4A7.32,7.32,0,0,0,67,41.05c0-.12-.09-.24-.13-.36L65.64,37.4s-2.84,1.76-3.74,1.81-2.16-1.36-2.16-1.36-3,2.46-4.43,2.39-3.25-2.16-3.25-2.16-2.91,2.82-4.29,2.34a4.29,4.29,0,0,1-2.08-2.32s-2.38,1.18-3.21,0a9.25,9.25,0,0,1-1.91-6.08,34.6,34.6,0,0,1,2.26-9.91l-4.62,4.09-.26.24c-1.23.78-1.36,2.38-1.44,3.7,0,.12,0,.23,0,.35.08,9.19-.2,38.77-6.81,49.05-19.78,18-55.39,89,8.47,149.22s127.71,66.23,145.29,68,58.58.66,77.37-2.72,58.35-12.94,76.35-21.39,44.59-27.5,44.59-27.5l23.33-13.75a15.8,15.8,0,0,1-2.21-2.4c-.3-.65,1.5-4.42,1.62-4.74s-1.1-.06-.93-.73a13.63,13.63,0,0,0,.82-3.27c-.1-.73-.87,0-1-1.09s.67-3.18.82-3.85-2-.57-3.08-1.48S407.48,210.53,407.48,210.53Z"/><path class="cls-1" d="M399.37,217.12a.36.36,0,0,1,0,.15.92.92,0,0,1,0,.36.64.64,0,0,1-.09.21,1.05,1.05,0,0,1-.22.17.67.67,0,0,0-.21.2.84.84,0,0,0-.09.28.84.84,0,0,1-.09.28c0,.09-.09.17-.13.25a.71.71,0,0,1-.17.21,1.37,1.37,0,0,1-.2.13,1.13,1.13,0,0,1-.49.17s0,0,0,0h0a1.59,1.59,0,0,1,.14-.5,2.65,2.65,0,0,1,.27-.37l.19-.17a1.5,1.5,0,0,1,.25-.15.52.52,0,0,0,.2-.19.44.44,0,0,0,.08-.25,1.86,1.86,0,0,1,0-.26.91.91,0,0,1,.37-.44.66.66,0,0,1,.15-.07S399.36,217.09,399.37,217.12Z"/><path class="cls-1" d="M397.09,221.29a1,1,0,0,1,.07.21.9.9,0,0,1,0,.25,1.7,1.7,0,0,1-.06.31,1.51,1.51,0,0,1-.13.33,2.51,2.51,0,0,1-.26.31.9.9,0,0,0-.25.33,1.06,1.06,0,0,0-.09.4c0,.15,0,.29,0,.39s0,.25,0,.37a2.81,2.81,0,0,1,0,.71,1.53,1.53,0,0,1-.15.53.93.93,0,0,1-.11.19,0,0,0,0,1,0,0l0,0s0-.07-.07-.19-.1-.29-.15-.49a2.24,2.24,0,0,1-.09-.73,2.57,2.57,0,0,1,.07-.46,1,1,0,0,1,.21-.42c.07-.12.18-.25.24-.37a1.08,1.08,0,0,0,.11-.4,3.14,3.14,0,0,1,.08-.38,1.38,1.38,0,0,1,.14-.3,2.32,2.32,0,0,1,.14-.23c0-.06.09-.12.12-.17a1,1,0,0,1,.12-.19h.06Z"/><path class="cls-1" d="M400.07,224.77a.71.71,0,0,1,.08.22.51.51,0,0,1-.06.34.52.52,0,0,1-.26.22.72.72,0,0,1-.23.06.77.77,0,0,1-.09-.2.63.63,0,0,1,.05-.38.58.58,0,0,1,.29-.22A.73.73,0,0,1,400.07,224.77Z"/><path class="cls-1" d="M401.4,221.66a.3.3,0,0,1,.18.34h0a.31.31,0,0,1,.18.33.29.29,0,0,1-.34.25.49.49,0,0,1-.34-.21.61.61,0,0,1-.09-.5.3.3,0,0,1,.35-.24Z"/><path class="cls-1" d="M398.79,215.33l-.09.08a2.38,2.38,0,0,1-.14.23,3.77,3.77,0,0,1-.22.33,1.35,1.35,0,0,1-.16.19l-.19.16c-.27.18-.51.3-.69.41a1.58,1.58,0,0,0-.22.16l-.1.08a.55.55,0,0,1,0-.12.6.6,0,0,1,0-.33,1.14,1.14,0,0,1,.25-.38,2.58,2.58,0,0,1,.36-.31l.17-.12.17-.12a2.32,2.32,0,0,1,.37-.21.88.88,0,0,1,.33-.08Z"/><path class="cls-1" d="M403.37,229.14a.32.32,0,0,1,.16.18.3.3,0,0,1-.18.39,4,4,0,0,0-1.07.79,2.93,2.93,0,0,1-2.36,1.11.3.3,0,0,1-.25-.35A.3.3,0,0,1,400,231c.65.11,1.26-.44,1.85-1a4.63,4.63,0,0,1,1.27-.91A.3.3,0,0,1,403.37,229.14Z"/><path class="cls-1" d="M400.82,232.28l.16.07a.31.31,0,0,1,.13.41.32.32,0,0,1-.42.13,5,5,0,0,0-2.13-.28.32.32,0,0,1-.31-.3.31.31,0,0,1,.3-.31A5.86,5.86,0,0,1,400.82,232.28Z"/><path class="cls-1" d="M356.26,229.55l.11.08a.32.32,0,0,1,0,.41l0,0v0l-.09.07-.5.4a.63.63,0,0,0,.29-.19.31.31,0,0,1,.42-.08.32.32,0,0,1,.08.43,2.52,2.52,0,0,1-1.42.67l-.15,0a.33.33,0,0,1-.3-.09.3.3,0,0,1-.08-.18l-.27,0a.28.28,0,0,1-.3-.23.32.32,0,0,1,.17-.35,2.85,2.85,0,0,1,.5-.14l.1,0a3.37,3.37,0,0,0,.4-.23l0,0a.29.29,0,0,1-.18-.33.37.37,0,0,1,.3-.32.3.3,0,0,1,.36.1l0,0a.6.6,0,0,0,.31-.06h0A.31.31,0,0,1,356.26,229.55Z"/><path class="cls-1" d="M358.23,234.94a.3.3,0,0,1,0,.56,1.35,1.35,0,0,1-.45.11.3.3,0,0,1-.33-.27.3.3,0,0,1,.27-.33.89.89,0,0,0,.28-.07A.33.33,0,0,1,358.23,234.94Z"/><path class="cls-1" d="M340,234.33h0a.71.71,0,0,1,.3.95.3.3,0,0,1-.39.17.32.32,0,0,1-.17-.39c.05-.15,0-.16,0-.19a.3.3,0,0,1,.26-.55Z"/><path class="cls-1" d="M340.62,251.36a.75.75,0,0,1,.4.38.82.82,0,0,1-.06.77,1,1,0,0,1-.52.44.48.48,0,0,1-.39,0,.29.29,0,0,1-.15-.14,1.06,1.06,0,0,1-.32-.25.7.7,0,0,1-.18-.53.78.78,0,0,1,.28-.54.89.89,0,0,1,.76-.16Z"/><path class="cls-1" d="M310.67,260a.28.28,0,0,1,.15.15.29.29,0,0,1,0,.31.31.31,0,0,1-.22.25.3.3,0,0,1-.37-.21.41.41,0,0,1,.22-.5A.28.28,0,0,1,310.67,260Z"/><path class="cls-1" d="M296.24,272.56a.63.63,0,0,1,.32.28.3.3,0,0,1-.13.41.31.31,0,0,1-.4-.11l-.06,0a.31.31,0,0,1-.24-.36.3.3,0,0,1,.36-.23Z"/><path class="cls-1" d="M291.71,250.43a.33.33,0,0,1,.18.41.29.29,0,0,1-.37.17l0,0a.31.31,0,0,1-.16-.4A.3.3,0,0,1,291.71,250.43Z"/><path class="cls-1" d="M286.92,253.93a.32.32,0,0,1,.18.31.31.31,0,0,1-.33.27h-.23a.29.29,0,0,1-.31-.29.3.3,0,0,1,.29-.31,1.63,1.63,0,0,1,.31,0Z"/><path class="cls-1" d="M287.28,251.61l.16.07a.32.32,0,0,1,.17.42.27.27,0,0,1-.37.15l-.05,0a1.33,1.33,0,0,0-.41-.14.3.3,0,0,1-.29-.32.32.32,0,0,1,.31-.29A1.41,1.41,0,0,1,287.28,251.61Z"/><path class="cls-1" d="M285.23,252.88a.29.29,0,0,1,.17.19.29.29,0,0,1-.21.37l-.18.06a2,2,0,0,0-.83.36.3.3,0,0,1-.44-.41,2.47,2.47,0,0,1,1.1-.54l.18,0A.26.26,0,0,1,285.23,252.88Z"/><path class="cls-1" d="M281.44,254.27a.53.53,0,0,1,.15.08.3.3,0,0,1-.35.49l-.06,0a.27.27,0,0,1-.37-.17.32.32,0,0,1,.2-.4A.54.54,0,0,1,281.44,254.27Z"/><path class="cls-1" d="M283.5,254.61a.3.3,0,0,1,.17.36.32.32,0,0,1-.38.21l-.39-.12a.29.29,0,0,1-.2-.37.3.3,0,0,1,.37-.21l.39.12Z"/><path class="cls-1" d="M283.15,252.08a.49.49,0,0,1,.29.34.3.3,0,0,1-.23.36.32.32,0,0,1-.33-.15.3.3,0,0,1,.1-.6Z"/><path class="cls-1" d="M291.79,252.8a.27.27,0,0,1,.17.37l0,.05a.3.3,0,0,1-.4.16.31.31,0,0,1-.16-.4A.33.33,0,0,1,291.79,252.8Z"/><path class="cls-1" d="M300,253.47l.07,0a.43.43,0,0,1,.12.36.31.31,0,0,1-.36.24.23.23,0,0,1-.12-.06.27.27,0,0,1-.18-.15.3.3,0,0,1,.13-.4A.42.42,0,0,1,300,253.47Z"/><path class="cls-1" d="M310.83,221.2l.05,0a.31.31,0,0,1,.13.31s0,0,0,.05a.27.27,0,0,1,0,.23.75.75,0,0,1-.24.32h0a.58.58,0,0,1-.27.21.34.34,0,0,1-.28,0,.32.32,0,0,1-.24-.09s0,0,0,0a.3.3,0,0,1-.24-.37.53.53,0,0,1,.08-.15.26.26,0,0,1,0-.17.29.29,0,0,1,.4-.13l.07,0a1.5,1.5,0,0,1,.25-.19A.31.31,0,0,1,310.83,221.2Z"/><path class="cls-1" d="M304.39,225.27a.38.38,0,0,1,.11.08.3.3,0,0,1,0,.43,2.11,2.11,0,0,1-1.08.55.3.3,0,0,1-.31-.27V226a.31.31,0,0,1-.06-.28.3.3,0,0,1,.36-.22h.12a1.52,1.52,0,0,1,.28,0l.3-.22A.29.29,0,0,1,304.39,225.27Z"/><path class="cls-1" d="M296.75,224.82a.32.32,0,0,1,.18.24.3.3,0,0,1-.26.34,1.24,1.24,0,0,0-.63.37.29.29,0,0,1-.42,0,.3.3,0,0,1,0-.43,1.79,1.79,0,0,1,1-.58A.44.44,0,0,1,296.75,224.82Z"/><path class="cls-1" d="M293.75,225.44l.31.13a.3.3,0,0,1,.16.4.3.3,0,0,1-.39.16l-.32-.14a.3.3,0,1,1,.24-.55Z"/><path class="cls-1" d="M291.81,226.07a.29.29,0,0,1,.17.36.73.73,0,0,1-.2.34.3.3,0,0,1-.43,0,.29.29,0,0,1,0-.42l0-.08a.31.31,0,0,1,.38-.21Z"/><path class="cls-1" d="M290,227.09l.08,0a.3.3,0,0,1,.16.4.29.29,0,0,1-.39.16l-.09,0a.29.29,0,0,1-.16-.39A.3.3,0,0,1,290,227.09Z"/><path class="cls-1" d="M289.33,225.36l.07,0a.3.3,0,0,1,.16.4.3.3,0,0,1-.39.16l-.07,0a.3.3,0,0,1,.23-.56Z"/><path class="cls-1" d="M282.14,225.91l.22.09.18.09a.3.3,0,0,1,.16.4.31.31,0,0,1-.4.16l-.2-.1a2.13,2.13,0,0,0-.45-.17.3.3,0,1,1,.08-.6A1.4,1.4,0,0,1,282.14,225.91Z"/><path class="cls-1" d="M282.21,227.44a.32.32,0,0,1,.18.31l-.3,0,.3.08v.07a.3.3,0,0,1-.6-.06v-.12a.29.29,0,0,1,.32-.27Z"/><path class="cls-1" d="M271.29,226.85l.07,0a.3.3,0,0,1-.29.53l-.12,0a1.24,1.24,0,0,1-.26-.1.3.3,0,0,1-.12-.41.3.3,0,0,1,.41-.12.34.34,0,0,0,.12,0Z"/><path class="cls-1" d="M270.42,226a.76.76,0,0,1,.26.16.29.29,0,0,1,0,.42.3.3,0,0,1-.43,0,.4.4,0,0,0-.16-.08.3.3,0,0,1-.2-.38.32.32,0,0,1,.39-.2Z"/><path class="cls-1" d="M269.32,225.93a.3.3,0,0,1,.17.36.32.32,0,0,1-.18.21.36.36,0,0,1-.29,0,.32.32,0,0,1-.12-.42.39.39,0,0,1,.17-.14.28.28,0,0,1,.22,0Z"/><path class="cls-1" d="M269.33,225.32a.72.72,0,0,1,.25.18.31.31,0,0,1-.05.43.31.31,0,0,1-.42,0,.32.32,0,0,1-.24-.37.28.28,0,0,1,.34-.24Z"/><path class="cls-1" d="M274.41,236.05a.3.3,0,0,1,.18.29c0,.06.05.13.14.24l.08.1a.31.31,0,0,1-.07.42.29.29,0,0,1-.42-.07l-.07-.08a.94.94,0,0,1-.26-.63.3.3,0,0,1,.31-.29Z"/><path class="cls-1" d="M273.57,235a1.43,1.43,0,0,1,.52.38.3.3,0,0,1,0,.42.29.29,0,0,1-.42,0,1,1,0,0,0-.38-.22.31.31,0,0,1-.31-.52.45.45,0,0,1,.36-.08A1,1,0,0,1,273.57,235Z"/><path class="cls-1" d="M272.7,237.83a.37.37,0,0,1,.15.13.31.31,0,0,1-.12.42,2.11,2.11,0,0,1-.5.17.32.32,0,0,1-.39-.2A.28.28,0,0,1,272,238h.07a2.86,2.86,0,0,0,.35-.12A.3.3,0,0,1,272.7,237.83Z"/><path class="cls-1" d="M273,240.38a.3.3,0,0,1,.17.36.43.43,0,0,1-.52.31.32.32,0,0,1-.23-.37.33.33,0,0,1,.24-.23.29.29,0,0,1,.31-.08Z"/><path class="cls-1" d="M276,244.88l.28.12a.31.31,0,0,1,.16.4.32.32,0,0,1-.4.16l-.28-.12a.32.32,0,0,1-.16-.4A.3.3,0,0,1,276,244.88Z"/><path class="cls-1" d="M274.12,247l.09.07a.3.3,0,0,1,0,.43.71.71,0,0,1-.68.15.3.3,0,0,1-.23-.35.3.3,0,0,1,.36-.24.27.27,0,0,0,.12,0A.33.33,0,0,1,274.12,247Z"/><path class="cls-1" d="M259.51,226.74l.24.1a.3.3,0,0,1-.23.56l-.25-.11a.3.3,0,1,1,.24-.55Z"/><path class="cls-1" d="M256.21,226h0a.31.31,0,0,1,.16.4.32.32,0,0,1-.4.16h0c-.06,0-.19-.06-.4.11a.3.3,0,1,1-.38-.47A.94.94,0,0,1,256.21,226Z"/><path class="cls-1" d="M256.82,226a.3.3,0,0,1,.17.34.32.32,0,0,1-.37.23s-.11.07-.16.1a.94.94,0,0,1-.18.12.81.81,0,0,1-.5.09h-.15a.31.31,0,0,1-.19-.58,1,1,0,0,1,.37,0,.39.39,0,0,0,.18,0l.11-.07a.75.75,0,0,1,.68-.2Z"/><path class="cls-1" d="M235.8,271.19a.9.9,0,0,1,.23.15.3.3,0,0,1,0,.43.31.31,0,0,1-.43,0l-.09-.06a.27.27,0,0,1-.41,0,.31.31,0,0,1,0-.43A.57.57,0,0,1,235.8,271.19Z"/><path class="cls-1" d="M222.61,272.07l.1,0a.3.3,0,1,1-.24.55l-.09,0a.3.3,0,0,1,.23-.55Z"/><path class="cls-1" d="M207.78,274.66a.29.29,0,0,1,.16.38.14.14,0,0,1,0,.06c-.11.24-.21.48-.3.73a.63.63,0,0,1,.07.22.25.25,0,0,1,0,.12l.2.06a.3.3,0,1,1-.14.59c-.68-.17-1.36-.66-1.25-1.34,0-.2.22-.29.43-.39a1.05,1.05,0,0,0,.4-.25l0,0a.3.3,0,0,1,.39-.16Z"/><path class="cls-1" d="M207.56,275.46a.37.37,0,0,1,.15.13.32.32,0,0,1-.12.42s-.05,0-.1.1a.94.94,0,0,1-.09.12,1.7,1.7,0,0,0-.33.48.32.32,0,0,1-.4.16h0a.31.31,0,0,1-.16-.4,3,3,0,0,1,.43-.63l.07-.08a.77.77,0,0,1,.29-.27A.3.3,0,0,1,207.56,275.46Z"/><path class="cls-1" d="M189.82,287.92a.3.3,0,0,1,.17.35c-.41,1.53-2,2.48-4.68,2.85a3,3,0,0,1-.74,0,1.69,1.69,0,0,0-.86.08.31.31,0,0,1-.4-.16.31.31,0,0,1,.17-.4,2.26,2.26,0,0,1,1.15-.12,2.41,2.41,0,0,0,.6,0c2.43-.33,3.83-1.14,4.17-2.4a.31.31,0,0,1,.38-.22Z"/><path class="cls-1" d="M190.57,288a.26.26,0,0,1,.17.29.61.61,0,0,1-.21.42.46.46,0,0,1-.34.08.31.31,0,0,1-.26-.35.3.3,0,0,1,.22-.24.31.31,0,0,1,.33-.22Z"/><path class="cls-1" d="M190.29,288.5l.12.05.15.07h0a.3.3,0,0,1,.16.39.31.31,0,0,1-.4.17l-.15-.07a2,2,0,0,0-.54-.18.31.31,0,0,1-.25-.35.29.29,0,0,1,.34-.25A2.52,2.52,0,0,1,190.29,288.5Z"/><path class="cls-1" d="M205.7,294.93a.3.3,0,0,1,.19.3.31.31,0,0,1-.32.28,2.78,2.78,0,0,1-1.2-.39.3.3,0,1,1,.31-.52,2.08,2.08,0,0,0,.93.3Z"/><path class="cls-1" d="M175.09,282.28l.11.08a.3.3,0,0,1,0,.43,23.24,23.24,0,0,1-2.5,1.94.31.31,0,0,1-.32-.52,22.33,22.33,0,0,0,2.43-1.88A.3.3,0,0,1,175.09,282.28Z"/><path class="cls-1" d="M164,237.27a.29.29,0,0,1,.18.27.3.3,0,0,1-.29.31,3.09,3.09,0,0,1-1.06-.18.29.29,0,0,1-.18-.38.3.3,0,0,1,.38-.19,2.35,2.35,0,0,0,.84.14A.28.28,0,0,1,164,237.27Z"/><path class="cls-1" d="M159.93,218.54a.3.3,0,0,1,.16.39c0,.1,0,.17.42.4a1.61,1.61,0,0,1,.55.39.3.3,0,1,1-.48.37,1.32,1.32,0,0,0-.35-.23c-.36-.19-1-.51-.7-1.16a.3.3,0,0,1,.39-.17Z"/><path class="cls-1" d="M160.65,218.76h0a.3.3,0,0,1,.15.4,2,2,0,0,1-.77.86l-.14.1a.3.3,0,0,1-.36-.49l.15-.1a1.47,1.47,0,0,0,.57-.62A.31.31,0,0,1,160.65,218.76Z"/><path class="cls-1" d="M121.22,235.74a.66.66,0,0,1,.38.39.3.3,0,1,1-.57.21.14.14,0,0,0-.1-.06.3.3,0,0,1-.25-.34.31.31,0,0,1,.35-.26A1.06,1.06,0,0,1,121.22,235.74Z"/><path class="cls-1" d="M88.79,231a.29.29,0,0,1,.16.4l-.06.14a.3.3,0,1,1-.55-.24l.06-.14A.29.29,0,0,1,88.79,231Z"/><path class="cls-1" d="M61.47,221.91a.31.31,0,0,1,.16.4.32.32,0,0,1-.4.16,3,3,0,0,0-.75-.17.3.3,0,0,1-.26-.34.32.32,0,0,1,.34-.26A3.42,3.42,0,0,1,61.47,221.91Z"/><path class="cls-1" d="M67.67,181h0a.3.3,0,0,1,.15.4l-.12.26a1.64,1.64,0,0,1,0,.7v0a1.11,1.11,0,0,1,0,.48.25.25,0,0,1,0,.19.29.29,0,0,1-.2.19l-.13.11a1,1,0,0,1-1.16-.13.79.79,0,0,1-.23-1,.71.71,0,0,1,.18-.23.53.53,0,0,1,0-.13c0-.17.08-.48.56-.64a1,1,0,0,1,.54,0l0-.06A.29.29,0,0,1,67.67,181Z"/><path class="cls-1" d="M60,170.07a.25.25,0,0,1,.13.12,2.69,2.69,0,0,1,.37,1.17.57.57,0,0,1,.12.41.3.3,0,0,1-.25.26.25.25,0,0,1,0,.07.3.3,0,0,1-.54-.15h0a.31.31,0,0,1-.16-.39.32.32,0,0,1,.14-.16c-.24-.25-.49-.53-.42-.86a.68.68,0,0,1,.45-.46A.29.29,0,0,1,60,170.07Z"/><path class="cls-1" d="M50.27,179.46a.28.28,0,0,1,.11.08.52.52,0,0,0,.24.13.3.3,0,0,1-.15.59,1.25,1.25,0,0,1-.55-.32.3.3,0,0,1,0-.43A.29.29,0,0,1,50.27,179.46Z"/><path class="cls-1" d="M52,178.45a.3.3,0,0,1,.18.26.28.28,0,0,1,.18.37.31.31,0,0,1-.4.17.53.53,0,0,1-.38-.5.29.29,0,0,1,.28-.32A.22.22,0,0,1,52,178.45Z"/><path class="cls-1" d="M52.28,176.42a.3.3,0,0,1,.17.18.31.31,0,0,1-.19.39.72.72,0,0,1-.62-.08.3.3,0,0,1-.1-.42.31.31,0,0,1,.42-.09.09.09,0,0,0,.1,0A.33.33,0,0,1,52.28,176.42Z"/><path class="cls-1" d="M49.22,175.61a.3.3,0,0,1-.21.56.81.81,0,0,0-.38,0,.3.3,0,0,1-.14-.59,1.31,1.31,0,0,1,.71,0Z"/><path class="cls-1" d="M49.2,177.46a.32.32,0,0,1,.16.4l-.14.33a.31.31,0,0,1-.4.16.32.32,0,0,1-.16-.4l.14-.33A.31.31,0,0,1,49.2,177.46Z"/><path class="cls-1" d="M48,172.78l.12.05a.31.31,0,0,1,.14.41.3.3,0,0,1-.41.13,2.87,2.87,0,0,0-.47-.17l-.2-.06a.3.3,0,0,1-.2-.38.32.32,0,0,1,.39-.2l.18.06A4,4,0,0,1,48,172.78Z"/><path class="cls-1" d="M47.48,173.66a.29.29,0,0,1,.17.35,1,1,0,0,1-.61.61l-.07,0a.3.3,0,0,1-.4-.15.3.3,0,0,1,.14-.4l.08,0c.19-.09.26-.13.28-.2a.3.3,0,0,1,.37-.22Z"/><path class="cls-1" d="M45.53,174a.29.29,0,0,1,.16.38.3.3,0,0,1-.39.18.89.89,0,0,0-.28-.07,2.42,2.42,0,0,1-.36-.1.3.3,0,0,1-.18-.38.31.31,0,0,1,.39-.19,1.34,1.34,0,0,0,.27.07,2.66,2.66,0,0,1,.38.1Z"/><path class="cls-1" d="M42.9,171.86a1.35,1.35,0,0,1,.74.8,3.07,3.07,0,0,0,.16.31.31.31,0,0,1-.12.42.3.3,0,0,1-.41-.12l0-.07h0c-.26-.1-.87-.38-.94-.81a.56.56,0,0,1,.22-.51.31.31,0,0,1,.29-.06Z"/><path class="cls-1" d="M41,170.11a.3.3,0,0,1,.19.28,1.49,1.49,0,0,1-.1.45.88.88,0,0,0-.06.26.27.27,0,0,1-.08.17c.09.12.16.2.23.22a.31.31,0,0,1-.19.58,1.53,1.53,0,0,1-.82-1.54.6.6,0,0,1,.76-.44Z"/><path class="cls-1" d="M43.43,166.05a.31.31,0,0,1,.17.36,1.31,1.31,0,0,1-.61.74.68.68,0,0,1-.54,0,.3.3,0,0,1,.24-.56h0c.08,0,.28-.2.33-.36a.3.3,0,0,1,.37-.22Z"/><path class="cls-1" d="M44.27,168.55l.3.14a.3.3,0,0,1,.14.37.93.93,0,0,0,0,.69,3.54,3.54,0,0,1,.09.5.3.3,0,0,1-.26.33.28.28,0,0,1-.3-.15h-.15a.82.82,0,0,1-.57-.43.92.92,0,0,1,0-.71.77.77,0,0,1,.21-.75.31.31,0,0,1,.34-.08Z"/><path class="cls-1" d="M47.11,169.75a.28.28,0,0,1,.16.16,1,1,0,0,0,.13.18,2.29,2.29,0,0,1,.16.23l0,0,.1.07a.3.3,0,0,1,.1.33.54.54,0,0,1-.31.37l-.09,0a.45.45,0,0,1-.17.11.58.58,0,0,1-.54,0,.31.31,0,0,1-.12-.41l.06-.07a.29.29,0,0,1,0-.09.32.32,0,0,1,.22-.17.78.78,0,0,1-.16-.44.32.32,0,0,1,.24-.31A.36.36,0,0,1,47.11,169.75Z"/><path class="cls-1" d="M48.44,171.42a1.49,1.49,0,0,1,.31.17.3.3,0,0,1,.07.41.6.6,0,0,1-.49.29.48.48,0,0,1-.12,0,.33.33,0,0,1-.26,0l-.12,0a.31.31,0,0,1-.36.11c-.26-.1-.53-.21-.79-.34a.31.31,0,0,1-.15-.37.31.31,0,0,1,.35-.2,3.83,3.83,0,0,0,.43.07l.18,0a.5.5,0,0,1,.25-.2.46.46,0,0,1,.26,0,.22.22,0,0,1,.18,0A1,1,0,0,1,48.44,171.42Z"/><path class="cls-1" d="M50,171.57l.09,0a.3.3,0,0,1,.16.31.86.86,0,0,1-.42.64.32.32,0,0,1-.32.16.39.39,0,0,1-.34-.41.33.33,0,0,1,.11-.21l.06,0a1.86,1.86,0,0,1,.17-.41.33.33,0,0,1,.35-.14Z"/><path class="cls-1" d="M50.73,172.24a.33.33,0,0,1,.16.17l.07.21a.94.94,0,0,1,.36.68.5.5,0,0,1-.2.33.3.3,0,0,1-.42-.08.19.19,0,0,1-.05-.1.29.29,0,0,1-.26-.17,1.08,1.08,0,0,1-.07-.87.3.3,0,0,1,.28-.19Z"/><path class="cls-1" d="M49.54,169a.35.35,0,0,1,.14.13.3.3,0,0,1,0,.29c0,.09-.19.42,0,.6a.31.31,0,0,1,0,.43.29.29,0,0,1-.42,0l0,0a.33.33,0,0,1-.17,0,.57.57,0,0,1-.42-.32l-.12-.07a.29.29,0,0,1-.14-.26,1.16,1.16,0,0,1,.09-.53.18.18,0,0,1,.07-.1.57.57,0,0,1,0-.14.32.32,0,0,1,.16-.18.29.29,0,0,1,.24,0,.7.7,0,0,1,.25.18.63.63,0,0,1,.19,0Z"/><path class="cls-1" d="M48.66,166.91a.3.3,0,0,1,.18.31.4.4,0,0,0,0,.24.29.29,0,0,1-.1.41.31.31,0,0,1-.42-.1,1,1,0,0,1-.13-.61.3.3,0,0,1,.33-.27Z"/><path class="cls-1" d="M48.16,165.76a.31.31,0,0,1,.17.37,1.22,1.22,0,0,1-.23.39.92.92,0,0,0-.11.15.3.3,0,0,1-.12.4.31.31,0,0,1-.41-.14.68.68,0,0,1,.17-.79.56.56,0,0,0,.12-.18.32.32,0,0,1,.38-.21Z"/><path class="cls-1" d="M46.27,165.56l.11.08.32.35a.31.31,0,0,1,0,.43.3.3,0,0,1-.43,0l-.36-.38a.3.3,0,0,1,0-.43A.3.3,0,0,1,46.27,165.56Z"/><path class="cls-1" d="M45.77,164.3a.35.35,0,0,1,.16.18.3.3,0,0,1-.19.39,1.72,1.72,0,0,0-.54.35l-.13.1a.3.3,0,0,1-.37-.48l.12-.1a2.65,2.65,0,0,1,.73-.45A.33.33,0,0,1,45.77,164.3Z"/><path class="cls-1" d="M45.37,162.93l.06,0a.31.31,0,0,1,.14.37c-.06.16-.13.32-.2.48l0,.13a.31.31,0,0,1-.4.17h0l-.06,0-.09,0h0l-.21-.1-.09,0a.32.32,0,0,1-.11-.42.26.26,0,0,1,.24-.15.69.69,0,0,1,.19-.32A.53.53,0,0,1,45.37,162.93Z"/><path class="cls-1" d="M47.8,163.14a.31.31,0,0,1,.16.16.72.72,0,0,1-.18.84.3.3,0,0,1-.43,0,.31.31,0,0,1,0-.43.12.12,0,0,0,0-.17.3.3,0,0,1,.17-.39A.31.31,0,0,1,47.8,163.14Z"/><path class="cls-1" d="M47.05,160.52a.31.31,0,0,1,.19.24,1.93,1.93,0,0,1,0,.49,1.4,1.4,0,0,0,0,.41A.31.31,0,0,1,47,162a.3.3,0,0,1-.36-.23,1.74,1.74,0,0,1,0-.6,1.5,1.5,0,0,0,0-.36.3.3,0,0,1,.26-.34A.37.37,0,0,1,47.05,160.52Z"/><path class="cls-1" d="M46.57,159.6a.3.3,0,0,1,.17.37,2.79,2.79,0,0,1-.24.49,3.59,3.59,0,0,0-.17.34.31.31,0,0,1-.4.17h0a.3.3,0,0,1-.16-.39,2.6,2.6,0,0,1,.2-.41,2,2,0,0,0,.19-.39.3.3,0,0,1,.39-.19Z"/><path class="cls-1" d="M45.53,161.13a.26.26,0,0,1,.15.14s0,0,0,0a.32.32,0,0,1,.24.36.31.31,0,0,1-.36.24.7.7,0,0,1-.47-.33.3.3,0,0,1,.13-.4A.27.27,0,0,1,45.53,161.13Z"/><path class="cls-1" d="M46.58,157.13a.28.28,0,0,1,.18.27l.05.15a1.07,1.07,0,0,1,.07.34.29.29,0,0,1-.29.31.3.3,0,0,1-.31-.3.63.63,0,0,0,0-.14.86.86,0,0,1-.08-.35.32.32,0,0,1,.3-.31Z"/><path class="cls-1" d="M45.52,157.7l0,0a.41.41,0,0,1,.19.29.27.27,0,0,1,.09.12s.3.76,0,1.11a.52.52,0,0,1-.57.09l-.09-.06a.31.31,0,0,1-.32,0h0a.29.29,0,0,1-.16-.39,1.68,1.68,0,0,0,.05-.3,1.11,1.11,0,0,1,.34-.84A.42.42,0,0,1,45.52,157.7Z"/><path class="cls-1" d="M44.91,155.42l.13.06a.36.36,0,0,1,.19.35.63.63,0,0,1-.28.4l-.06.06a.29.29,0,0,1-.42,0,.28.28,0,0,1-.1-.28.38.38,0,0,1-.2-.3.31.31,0,0,1,.27-.34h.07A.54.54,0,0,1,44.91,155.42Z"/><path class="cls-1" d="M42.57,159.44a.57.57,0,0,1,.34.34.54.54,0,0,1-.1.5.53.53,0,0,1-.35.25.47.47,0,0,1-.38-.12A.3.3,0,0,1,42,160a.27.27,0,0,1,.12-.09.28.28,0,0,1-.07-.29.3.3,0,0,1,.38-.2Z"/><path class="cls-1" d="M38.88,154.51a.4.4,0,0,1,.21.19.46.46,0,0,1,0,.37l.11-.09a.41.41,0,0,1,.5,0c.2.17.09.43,0,.63a1.92,1.92,0,0,1-.18.31c0,.08-.13.22-.14.26a.3.3,0,0,1-.3.3l-.12,0a.43.43,0,0,1-.3.08.32.32,0,0,1-.21-.12.31.31,0,0,1-.06-.19.44.44,0,0,1-.48,0,.29.29,0,0,1-.16-.2,1.2,1.2,0,0,1-.24,0,.3.3,0,0,1-.19-.38.29.29,0,0,1,.37-.2.23.23,0,0,0,.12,0,.91.91,0,0,0,.12-.31c.08-.25.21-.66.64-.68A.62.62,0,0,1,38.88,154.51Z"/><path class="cls-1" d="M38.15,154.27a.31.31,0,0,1,.18.3,1.48,1.48,0,0,1-.22.63,1.15,1.15,0,0,0-.16.37.29.29,0,0,1-.34.25.3.3,0,0,1-.26-.34,1.64,1.64,0,0,1,.22-.56,1.19,1.19,0,0,0,.16-.39.29.29,0,0,1,.31-.28Z"/><path class="cls-1" d="M36,155.38a.29.29,0,0,1,.18.32c0,.29-.61,1.26-1.08,1.27a.29.29,0,0,1-.25-.14.3.3,0,0,1-.05-.22.43.43,0,0,1-.19,0,.32.32,0,0,1-.25-.17c-.05-.13-.54-.14-.75-.14l-.3,0a2.82,2.82,0,0,0-.64,0l-.16,0-.34.06a2.61,2.61,0,0,1-.86.08.3.3,0,0,1-.25-.35.3.3,0,0,1,.35-.25,2.32,2.32,0,0,0,.64-.08l.39-.06.15,0a3.35,3.35,0,0,1,.78,0h.25a2,2,0,0,1,1.07.23.52.52,0,0,1,.49,0,.41.41,0,0,1,.12.11,1.66,1.66,0,0,0,.28-.51.31.31,0,0,1,.35-.25Z"/><path class="cls-1" d="M36.67,156.55a.29.29,0,0,1,.16.39.3.3,0,0,1-.38.17.23.23,0,0,0-.16,0,.29.29,0,0,1-.41,0,.3.3,0,0,1-.06-.43A.77.77,0,0,1,36.67,156.55Z"/><path class="cls-1" d="M35.55,157.25a.29.29,0,0,1,.18.3.3.3,0,0,1-.25.27.31.31,0,0,1-.38,0,.3.3,0,0,1,0-.43.48.48,0,0,1,.39-.16A.16.16,0,0,1,35.55,157.25Z"/><path class="cls-1" d="M34.6,156.89a.83.83,0,0,1,.23.15.31.31,0,0,1,0,.43.3.3,0,0,1-.43,0l-.06,0a.3.3,0,1,1,.15-.59Z"/><path class="cls-1" d="M34.24,157.48l0,0a.29.29,0,0,1,.11.41.86.86,0,0,1-.32.31.3.3,0,1,1-.33-.51.36.36,0,0,0,.13-.1A.31.31,0,0,1,34.24,157.48Z"/><path class="cls-1" d="M35,158.26a.31.31,0,0,1,.19.32A.31.31,0,0,1,35,159a.31.31,0,0,1-.37-.22.6.6,0,0,1,0-.23.31.31,0,0,1,.35-.26Z"/><path class="cls-1" d="M36,158.55h0a.3.3,0,0,1,.16.4.29.29,0,0,1-.4.16.32.32,0,0,1-.17-.4A.3.3,0,0,1,36,158.55Z"/><path class="cls-1" d="M37,157.77a.3.3,0,0,1,.18.31.13.13,0,0,0,.05.09.31.31,0,0,1,.18.38.3.3,0,0,1-.39.19.72.72,0,0,1-.44-.72.3.3,0,0,1,.34-.27Z"/><path class="cls-1" d="M36.69,159.46a.33.33,0,0,1,.17.18.43.43,0,0,1-.06.38.3.3,0,0,1-.42.07.3.3,0,0,1-.11-.34.31.31,0,0,1,.2-.3A.33.33,0,0,1,36.69,159.46Z"/><path class="cls-1" d="M34.79,153.57a.31.31,0,0,1,.14.12.42.42,0,0,1,0,.47.29.29,0,0,1-.42.07.31.31,0,0,1-.12-.32.32.32,0,0,1,.14-.32A.31.31,0,0,1,34.79,153.57Z"/><path class="cls-1" d="M33.81,153.92a.34.34,0,0,1,.19.41.29.29,0,0,1-.38.17l0,0a.3.3,0,0,1-.16-.4A.3.3,0,0,1,33.81,153.92Z"/><path class="cls-1" d="M37.27,152.38a.32.32,0,0,1,.15.13.53.53,0,0,1,0,.33.32.32,0,0,1-.4.16.33.33,0,0,1-.19-.3.3.3,0,0,1,.42-.32Z"/><path class="cls-1" d="M39.2,141.36a.67.67,0,0,1,.34.39,1.13,1.13,0,0,1-.07.89.3.3,0,0,1-.51-.33,0,0,0,0,0,0,0,.8.8,0,0,1-.25.18.31.31,0,0,1-.36-.09.3.3,0,0,1,0-.37.18.18,0,0,0,0-.13.3.3,0,0,1,.14-.4.24.24,0,0,1,.26,0l0,0a.32.32,0,0,1,.32-.09Z"/><path class="cls-1" d="M35.68,142.16l.06,0a.29.29,0,0,1,.07.42l0,0a.51.51,0,0,1,.19.46.31.31,0,0,1-.61,0l-.2-.08-.23-.09a.29.29,0,0,1-.16-.25.33.33,0,0,1,.12-.27.89.89,0,0,1,.31-.11c.09,0,.12,0,.13-.05A.31.31,0,0,1,35.68,142.16Z"/><path class="cls-1" d="M41,147.83a.3.3,0,0,1,.16.4l-.06.14a.3.3,0,1,1-.55-.24l.06-.14A.29.29,0,0,1,41,147.83Z"/><path class="cls-1" d="M54.49,139.05a.28.28,0,0,1,.11.08,1.22,1.22,0,0,1,.15.27l0,.09a.28.28,0,0,1,0,.41.31.31,0,0,1-.44,0,.59.59,0,0,1-.17-.27.31.31,0,0,1-.15-.06.29.29,0,0,1-.24-.35.31.31,0,0,1,.36-.24l.11,0A.37.37,0,0,1,54.49,139.05Z"/><path class="cls-1" d="M13.12,113.91l.11.08.07.06.13.07a.32.32,0,0,1,.11.33s0,.07,0,.11a.76.76,0,0,0-.06.18.3.3,0,0,1,0,.34.3.3,0,0,1-.42.08l0,0h0l-.05,0a.52.52,0,0,1-.43,0,.3.3,0,0,1-.13-.35,1.24,1.24,0,0,1,.12-.22.1.1,0,0,0,0,0,.32.32,0,0,1,0-.38.29.29,0,0,1,.31-.11A.45.45,0,0,1,13.12,113.91Z"/><path class="cls-1" d="M34.14,112.89a.26.26,0,0,1,.11.07l.09.11.1.12a.29.29,0,0,1,.25.34.31.31,0,0,1-.35.25.73.73,0,0,1-.47-.33l-.07-.08a.31.31,0,0,1,0-.43A.29.29,0,0,1,34.14,112.89Z"/><path class="cls-1" d="M31.7,107.17l.18.08a.3.3,0,0,1,.16.4.29.29,0,0,1-.4.16l-.18-.08a.3.3,0,0,1-.16-.4A.31.31,0,0,1,31.7,107.17Z"/><path class="cls-1" d="M26.83,101.47a.3.3,0,0,1,.16.4l-.2.46a.29.29,0,0,1-.39.16.29.29,0,0,1-.16-.4l.19-.46A.31.31,0,0,1,26.83,101.47Z"/><path class="cls-1" d="M36.89,94.24l0,0a.5.5,0,0,1,.24.37.29.29,0,0,1-.25.34.3.3,0,0,1-.34-.21.32.32,0,0,1-.07-.39A.3.3,0,0,1,36.89,94.24Z"/><path class="cls-1" d="M19.54,177.36a.3.3,0,0,1,.17.21c.09.34.49.62.85.87l.29.21.82.62a18,18,0,0,1,2.65,2.25,5.62,5.62,0,0,1,.78,1.33c.4.82.81,1.68,1.57,1.84a.32.32,0,0,1,.23.37.31.31,0,0,1-.36.23c-1.05-.23-1.55-1.27-2-2.18a5.66,5.66,0,0,0-.68-1.19,18.08,18.08,0,0,0-2.56-2.16l-.83-.63-.27-.19a2.41,2.41,0,0,1-1.08-1.23.3.3,0,0,1,.22-.36A.31.31,0,0,1,19.54,177.36Z"/><path class="cls-1" d="M43.25,70.9a.43.43,0,0,1,.14.13,2.81,2.81,0,0,1,.18,1.47c0,.63,0,1.29.29,1.47a.3.3,0,0,1-.28.53c-.68-.35-.65-1.24-.62-2a2.55,2.55,0,0,0-.09-1.14.31.31,0,0,1,.1-.42A.34.34,0,0,1,43.25,70.9Z"/><path class="cls-1" d="M39.66,73.9a.28.28,0,0,1,.16.16.52.52,0,0,0,.35.31.3.3,0,0,1,.2.37A.31.31,0,0,1,40,75a1.15,1.15,0,0,1-.73-.65.32.32,0,0,1,.16-.4A.33.33,0,0,1,39.66,73.9Z"/><path class="cls-1" d="M40.23,64.67a.3.3,0,0,1,.18.29,1.49,1.49,0,0,0,.19.61,1.63,1.63,0,0,1,.24.91.3.3,0,0,1-.33.27.29.29,0,0,1-.27-.33,1.24,1.24,0,0,0-.18-.59,1.79,1.79,0,0,1-.25-.89.29.29,0,0,1,.31-.29Z"/><path class="cls-1" d="M37.06,72.46a.3.3,0,0,1,.18.33,2.68,2.68,0,0,1-.22.73.28.28,0,0,1-.4.15.3.3,0,0,1-.15-.4,2.79,2.79,0,0,0,.18-.58.29.29,0,0,1,.35-.25Z"/><path class="cls-1" d="M37.86,51.72a.3.3,0,0,1,.17.36,1.25,1.25,0,0,0,.08.76.31.31,0,0,1-.17.39.31.31,0,0,1-.39-.18,1.84,1.84,0,0,1-.1-1.14.29.29,0,0,1,.37-.2Z"/><path class="cls-1" d="M55.36,82.83l0,0a2.83,2.83,0,0,1,.75.6.33.33,0,0,1,.08.25.69.69,0,0,1-.14.34.31.31,0,0,1-.42.07.31.31,0,0,1-.1-.38,1.94,1.94,0,0,0-.45-.35A.3.3,0,0,1,55,83,.31.31,0,0,1,55.36,82.83Z"/><path class="cls-1" d="M54.69,71.1a.32.32,0,0,1,.19.29h0a.32.32,0,0,1,.16.41.31.31,0,0,1-.39.19h0a.62.62,0,0,1-.37-.61.3.3,0,0,1,.31-.3Z"/><path class="cls-1" d="M52.88,68.6l.07,0A.31.31,0,0,1,53,69a.35.35,0,0,1,.11.32.31.31,0,0,1-.37.22.85.85,0,0,1-.3-.15.3.3,0,0,1-.11-.23.82.82,0,0,1,.15-.47A.31.31,0,0,1,52.88,68.6Z"/><path class="cls-1" d="M45.36,80.79a.26.26,0,0,1,.17.18,2.2,2.2,0,0,1,.12.61.31.31,0,0,1-.29.33.32.32,0,0,1-.32-.29,1.77,1.77,0,0,0-.08-.46.3.3,0,0,1,.19-.38A.26.26,0,0,1,45.36,80.79Z"/><path class="cls-1" d="M43.13,38.24a.3.3,0,0,1,.16.39,1.82,1.82,0,0,0,0,1.78,4,4,0,0,1,.22,1c.07.5.15,1.06.4,1.24a.3.3,0,1,1-.35.49A2.34,2.34,0,0,1,43,41.49a3.86,3.86,0,0,0-.17-.84,2.39,2.39,0,0,1-.05-2.25.29.29,0,0,1,.39-.16Z"/><path class="cls-1" d="M414.1,100.53c.23.09.35.24.34.42a.32.32,0,0,1-.32.29.33.33,0,0,1-.24-.15l-.08,0a.29.29,0,0,1-.21-.37.29.29,0,0,1,.37-.21Z"/><path class="cls-1" d="M411.14,100.37a.31.31,0,0,1,.15.13.3.3,0,0,1-.13.41l-.34.21a.3.3,0,1,1-.34-.5l.4-.24A.27.27,0,0,1,411.14,100.37Z"/><path class="cls-1" d="M408.62,100.76l.13.07a.32.32,0,0,1,.08.43.3.3,0,0,1-.42.07l-.08,0a.3.3,0,0,1-.35-.25.32.32,0,0,1,.25-.35A.74.74,0,0,1,408.62,100.76Z"/><path class="cls-1" d="M406.54,101.37l.09,0a.3.3,0,0,1,.16.4.29.29,0,0,1-.4.16l-.09,0a.31.31,0,0,1-.16-.4A.3.3,0,0,1,406.54,101.37Z"/><path class="cls-1" d="M406.44,103.66a.28.28,0,0,1,.17.37l0,0a.32.32,0,0,1-.4.16.31.31,0,0,1-.16-.4A.32.32,0,0,1,406.44,103.66Z"/><path class="cls-1" d="M402.55,103.5l.14.06a.31.31,0,0,1,.16.4.3.3,0,0,1-.4.16l-.14-.06a.31.31,0,0,1-.16-.4A.32.32,0,0,1,402.55,103.5Z"/><path class="cls-1" d="M403.55,101.68a.31.31,0,0,1-.18.58.35.35,0,0,0-.25,0,.31.31,0,1,1-.32-.52,1,1,0,0,1,.69-.11Z"/><path class="cls-1" d="M395.8,107.48a.3.3,0,0,1,.18.32.3.3,0,0,1-.34.26s0,0-.06,0a.29.29,0,0,1-.43,0,.3.3,0,0,1,0-.42.64.64,0,0,1,.6-.24Z"/><path class="cls-1" d="M392.45,110.06a.28.28,0,0,1,.13.11.3.3,0,0,1-.09.42.47.47,0,0,0-.1.1.3.3,0,1,1-.51-.33.93.93,0,0,1,.28-.28A.3.3,0,0,1,392.45,110.06Z"/><path class="cls-1" d="M391.1,111.29a.34.34,0,0,1,.17.2.3.3,0,0,1-.22.37,1,1,0,0,1-.54,0,.3.3,0,0,1-.21-.37.3.3,0,0,1,.37-.21.59.59,0,0,0,.23,0A.27.27,0,0,1,391.1,111.29Z"/><path class="cls-1" d="M400.07,113.54a.45.45,0,0,1,.24.25.3.3,0,0,1-.17.39.29.29,0,0,1-.32-.06.34.34,0,0,1-.36-.2.3.3,0,0,1,.17-.38A.6.6,0,0,1,400.07,113.54Z"/><path class="cls-1" d="M220.17,165.47a.31.31,0,0,1,.15.15.3.3,0,0,1-.15.4.63.63,0,0,0-.26.22.3.3,0,1,1-.51-.33,1.31,1.31,0,0,1,.52-.44A.31.31,0,0,1,220.17,165.47Z"/><path class="cls-1" d="M254,166.5a.35.35,0,0,1,.16.16.48.48,0,0,1-.05.48.55.55,0,0,1-.54.16.31.31,0,0,1-.25-.35.29.29,0,0,1,.27-.25.28.28,0,0,1,.17-.2A.33.33,0,0,1,254,166.5Z"/><path class="cls-1" d="M244.54,168l.21.09a.31.31,0,0,1,.16.4.32.32,0,0,1-.4.16l-.21-.09a.31.31,0,0,1-.16-.4A.3.3,0,0,1,244.54,168Z"/><path class="cls-1" d="M237.73,169.27a.3.3,0,0,1,0,.56l-.1,0a.3.3,0,0,1-.22-.56l.1,0A.31.31,0,0,1,237.73,169.27Z"/><path class="cls-1" d="M241.57,163.17a.3.3,0,0,1-.21.57,1.3,1.3,0,0,0-.44-.06.3.3,0,1,1,0-.6,1.76,1.76,0,0,1,.65.08Z"/><path class="cls-1" d="M317.08,141.42a.32.32,0,0,1,.18.35.6.6,0,0,1-.51.45.3.3,0,0,1-.1-.6.32.32,0,0,1,.38-.22Z"/><path class="cls-1" d="M313.2,142.81a.3.3,0,0,1-.11.58.13.13,0,0,0-.11.05.31.31,0,0,1-.43,0,.29.29,0,0,1,0-.42.79.79,0,0,1,.48-.2A.35.35,0,0,1,313.2,142.81Z"/><path class="cls-1" d="M306.29,143.56a.33.33,0,0,1,.13.11.31.31,0,0,1-.08.42,5.74,5.74,0,0,0-.47.35.29.29,0,0,1-.42,0,.3.3,0,0,1,0-.42,4.15,4.15,0,0,1,.52-.39A.3.3,0,0,1,306.29,143.56Z"/><path class="cls-1" d="M299.85,148.22a.24.24,0,0,1,.09.06.3.3,0,0,1,0,.43,2.9,2.9,0,0,1-1.31.73.31.31,0,1,1-.17-.59,2.28,2.28,0,0,0,1.05-.56A.29.29,0,0,1,299.85,148.22Z"/><path class="cls-3" d="M56.36,106.13c4.44,13.76,35.09,40.7,64,55.7s86.23,21.26,124.8,14.25,96.62-36.44,96.62-36.44,39.47-18.55,42.26-19.49,12-.63,14.1-1.39,12.5-5.94,12.5-5.94l.57-.16,1.41-.43c4.34-1.63,8.87-1.63,13.39-1l1.62.13,2.58.21-21.15,14L387.64,148l-17.47,11.31-.74,2-1.44,0-1.07,1.74-1.61-.36-7,4.26-1.63,2.27-2.48-.62-5.23,4-1.65-.26-4.09,1.87-2.56,3.41-2.15-.37-2.82,2-2.19.11-2.86,2.07-2.25-.31-1.25,1.37-1.51-.32-.88,1.11-.8-.26-1.26,1.6-2.31-.57-2.75.47-1.88,2.08-1.68-.31-2.21.37-1.79,1.68-2.54.67-3,2.87-3.69-.48-2.21.95-.78,1.65s-.83-.19-.93-.24a16.78,16.78,0,0,0-1.77,1.35L293.49,194l-1,1.28-1.59-.71-2.16,1.5h-2.14l-4.62,3.3-2.17-1.3-1.21,1.29L277.4,199l-2.91,2.38L272.13,200l-1.66,1.76-2.31-.65-1.11,1.25-1.05-.16-.86,1.07-1.39-.43-1.19.73-1.62-.69-1.83,1.63-5.6-.11-.49.31-.34-.37-1.31,1.39-2.55-.18-1,1.05-1.23-.91-1,1.24-2.13-.36-.91.79-1.66-1.18-2.18-.11-1.14,1-.92-.72-2,.33-2.36,1.5-2.06-.87-1.86,1.46-2.37-2L224,208.45l-1.18-.71-1,.75-1.88-.8-1.2,1-.9-.88-1,.76-.77-.33-3.39.12L211,210.85l-1.26-1.28-.83.88-1.06-.7L206.64,211l-2.52-1.81-1.8,3L201,210.82l-.94.75-1-1.21-1.53.79-3.34-1.43-1.64.16-1,.75-1.45-.87-.77.74-1.57-1.12-1.44.33-1.15-.71-1,.6-1.24-2.06-1.75,1.78-1.43-1.6-.84,1.41-1.8-.52-1.92.45-1.34-1.4-2.15.11-1.23-1.26-2.88-.49-1.39,1-1.36-1.36-1.39.18-.89-.71-1.12.39-.87-1.32-3,.08-1-.55-2.2.85-.41-.84-1.33.67-1.37-1.05-2.11,0-1.84-2.24-3.09,1-1-1.32-1.21.06-.49-.65-1.24.79-1-1.42-1.3.67-1.45-1.69-1.78.31-.65-1.23-2.64,1-.56-1.45-1.71.34-.78-1.27-1.22,0-.73-1.25-2.39-.25-1.39-1.92-4.56-.6L116.53,190l-5.71-1.67-5.51-3.72-.71-.48a102.37,102.37,0,0,1-12.37-8.47l-.81-.56-3.75-2.64L87,172c-3.83-2.3-6.09-6.17-9.12-9.43-.25-.34-.49-.69-.75-1.06a168.34,168.34,0,0,1-16.59-31.62C50.42,105.13,51.9,91.38,51.9,91.38S51.91,92.37,56.36,106.13Z"/><path class="cls-2" d="M390.58,390.18l-.15-.32c-.64-1-.24-1.79.34-2.79.05-.09.4,0,.45-.12.48-.86.58-2.06,1.21-3.2s1.7-2.05,2.06-2.7.54-1.71.88-2.33c.1-.18.55-.54.64-.7.66-1.07.71-2.08,2.24-1.68h.5s-39.69-28.39-49-33.26-13.5-5.37-22.55-7.88S305.43,324,301.44,322.45c-2.71-1-36.87-15.67-58.5-25-6.41.52-13.37.9-20.3,1.14l-1.24,0c-20.6.92-42,1.66-62.44-4.15l-2.15-.44A230.56,230.56,0,0,1,115.14,281l-1.42-.6c-14-4.9-26.63-12.28-39-20.85L73,258.42A260.28,260.28,0,0,1,42.22,234.2c27.43,30,106.2,109.71,190.91,135,105.15,31.44,119,22.31,129.52,20.67,10-1.56,26.36.42,28.11.64Z"/><path class="cls-3" d="M390.77,387.07c.05-.09.4,0,.45-.12.48-.86.58-2.06,1.21-3.2s1.7-2.05,2.06-2.7.54-1.71.88-2.33c.1-.17.49-.49.61-.66-8.79-6.25-40-28.28-47.66-32.28-2-1-3.8-1.91-5.51-2.64a75.72,75.72,0,0,0-11.59-3.71A8.58,8.58,0,0,1,330,339c-.27-.11-.52-.23-.78-.36l-.76-.35a9.2,9.2,0,0,0-1.15-.4,53.44,53.44,0,0,1-5.54-2.14l-.95-.41a141.18,141.18,0,0,1-14-6.6c-2.63-1.51-4.9-2.81-6.14-3.34l-2.33-.79-1.24-.43-.48-.19-2-.88c-2.48-1.13-7.09-3.22-15.89-7-14.32-6.12-33.17-13.5-44.81-18-3.71.22-7.5.39-11.29.52l-1.24,0c-20.6.92-42,1.66-62.44-4.15l-2.15-.44A230.56,230.56,0,0,1,115.14,281l-1.42-.6c-14-4.9-26.63-12.28-39-20.85L73,258.42q-5.52-3.68-10.82-7.67c6.94,7,15,14.83,24,23C130.05,314,169.59,341.26,207,357.26a260.4,260.4,0,0,0,26.64,9.59c93.06,27.82,113.64,23.27,124.69,20.83l.29-.06c1.22-.27,2.38-.53,3.54-.71,8.48-1.32,22.79.13,28.27.73C390.55,387.46,390.66,387.27,390.77,387.07Z"/><path d="M145.87,221.24c.49.14,1.06.73,1.89,1,1.33.42,2.24.11,2.28.34.42.64-1.76,12-2,13.62-.27,1.85-.61,4.13-1,6.63-.27,1.85-1,5.6-.58,6.4.37.49,2.75.62,3.21,1.49.5,1-.14,6.39-1.07,7.27-.76.69-3.26-.12-3.91.81a3.34,3.34,0,0,0,0,2.33c1,1.31,3,.37,3.53,1.25.23.4-.43,8.9-1.7,9.58-.87.46-10.13-1.49-11.69-1.72s-10.24-.71-11.22-2c-.48-.66.4-8.62,1.37-9.27s3.14.9,4,.23a3.68,3.68,0,0,0,.44-3c-.53-.8-6.81-1.73-8.88-2-2.3-.27-5.72-.26-8-.82-3.65-1-2.65-1.34-1.85-5.74.35-1.91.33-4.24.78-5.34.48-1.25,1.76-2,2.77-3,.59-.57,1.1-1.07,1.61-1.51.74-.62,1.18-1.14,1.93-1.75.33-.25.39-.68.9-1.18s1-.65,1.48-1.17c.26-.25.21-.4.46-.59.58-.49,1.54-1.59,2.39-2.41,1.27-1.2,2.51-2.18,3.94-3.5.17-.19.56-.36.74-.55.42-.37.74-1.13,1.24-1.49.25-.26.84-.31,1.09-.5a19.37,19.37,0,0,1,2-2.11,7.78,7.78,0,0,1,.77-.25l2.62-1.94c1.2-.26,4.46.36,5.4.43A19.45,19.45,0,0,1,145.87,221.24ZM123.2,246.09c0,.15,1.14.16,1.28.18.84.27,5.85,1.38,6.35.94s.6-4.06.73-5c.31-2.07.53-3.57.74-5,0-.23-.23-.4-.6-.38-1.16,1.94-2.35,2.57-4.44,4.44C126.59,241.85,122.55,245,123.2,246.09Zm4.38-13.93c.13.1.52-.07.41-.3S127.47,231.93,127.58,232.16Zm1.55-1.15c.06.08.81,0,.7-.26S129,230.84,129.13,231Zm1.15-.85c0,.21.3.41.36.05C130.66,230.07,130.33,229.8,130.28,230.16Zm.84-1.26c.12.16.52-.07.4-.24S131,228.73,131.12,228.9Zm-.49,3.35c.13.09.52-.07.41-.31C131,231.86,130.51,232.08,130.63,232.25Zm1.45-.44c-.3-.48-.12-1.7-.45-1.45-.16.12-.72,1.42.45,1.45C132.22,232.34,132.51,231.8,132.08,231.81Zm-.51.94c.13.09.52-.07.41-.3C131.92,232.37,131.46,232.52,131.57,232.75Zm-1.38,18.81c.06.08.52-.07.41-.3S130,251.31,130.19,251.56Zm3.73-22.91c.06.09.52-.07.34-.31C134.2,228.26,133.73,228.48,133.92,228.65Zm.21,5.5s-.11.27,0,.28c-.22,0-1.3,0-1.05.21C133.34,235.12,135.25,234.46,134.13,234.15Zm-.16-3.81c-.18.19-.11.71.3.4C134.44,230.62,134.37,230.1,134,230.34Zm.65,2.5c-.13-1.12-.73-.48-1.05.21.56.15.62-.28,1.05-.21C134.54,233.84,136.09,232.76,134.62,232.84Zm-.44-1.45c-.53.14-.07.42,0,0,.27.11.29,0,.4-.24,1.31.49.14-1,0,0A.27.27,0,0,0,134.18,231.39Zm-.7,4.7c.07.08.54-.14.41-.3S133.3,235.85,133.48,236.09Zm-1.71,16.07c.53-.14.07-.43,0,0C131.25,252.23,131.79,252.52,131.77,252.16Zm-1.36,9.27c.06.08.88,0,.76-.26S130.29,261.26,130.41,261.43ZM135,230.2c.9.28.68-.7,1.14-.85.16,0,1,.88,1-.21-.56-.16-1.69.11-1.18-.83,1.41.28.27-1.35,0,0C135.33,228.5,135.08,229.19,135,230.2Zm.11,1.69c.06.08.52-.07.41-.3S134.93,231.72,135.12,231.89Zm-.59,4c.07.08.53-.07.41-.3S134.34,235.71,134.53,235.88Zm.6-1.58c.06.08.52-.07.34-.32C135.41,233.9,135,234.05,135.13,234.3Zm2.77-7.39c-.73,0-.89-.42-1.31-.56-.63.86,1.29,1.14,1.31.56C138.43,226.77,137.89,226.47,137.9,226.91Zm-2,4.08c.06.08.52-.07.41-.31C136.26,230.6,135.79,230.82,135.91,231Zm-.2,1.35c.06.08.52-.07.41-.3C136.06,232,135.6,232.11,135.71,232.34Zm-.44,3c.06.08.52-.07.41-.31C135.62,235,135.16,235.1,135.27,235.34ZM134,244c.06.08.52-.07.41-.3C134.35,243.58,133.88,243.8,134,244Zm-1,7c.06.08.52-.07.41-.3S132.86,250.71,133,251Zm-.49,3.35c0,.14.3.41.36,0C132.87,254.14,132.54,253.87,132.48,254.3Zm3-17.91c.53-.14,0-.44,0,0C135,236.53,135.43,236.74,135.48,236.39Zm1.57-10.63c.06.09.53-.14.33-.31S136.86,225.52,137.05,225.76Zm-2.2,14.9c.05.16.52-.06.33-.24S134.66,240.49,134.85,240.66Zm-1.28,8.7c.06.08.53-.14.34-.31S133.39,249.12,133.57,249.36ZM133,253c-.34.82.55.73.86,1.14C134.24,253.25,133.27,253.4,133,253Zm1.81-10.3c-.08-.45-.36,0,0,0C135,243.23,135.27,242.77,134.84,242.7Zm-2.5,17c1.12-.2-.09-1.83,0,0C131.88,259.82,132.35,260.11,132.34,259.67Zm1.81-12.26c.13.09.6-.13.41-.31S134,247.17,134.15,247.41ZM137,230.49c0,.07-.15.56-.09.64C137.88,232.44,137.62,228.76,137,230.49Zm-.29,2c.06.08.52-.07.41-.31C137.06,232.1,136.6,232.25,136.71,232.49Zm-.39,2.64c.06.08.52-.07.41-.31C136.67,234.74,136.2,235,136.32,235.13Zm-2,13.61c.05.16.52-.07.39-.23S134.19,248.58,134.32,248.74Zm.74-2.58c-.24.18-.09.64.23.4S135.47,245.86,135.06,246.16Zm-1.56,10.62c-.25.18-.11.71.23.4S133.91,256.48,133.5,256.78Zm1-7c.05.16.52-.06.32-.24C134.8,249.4,134.33,249.62,134.53,249.79Zm2.39-16.25c0,.14.23.4.29,0S137,233.11,136.92,233.54Zm-3.77,25.59c0,.15.23.4.29.05S133.21,258.71,133.15,259.13Zm3.68-20.51c-1.3-.55-.22,1,0,0,.43,0,.46-.66.1-.71.61-1.66-.94-.5,0,0Zm1-9c.14.09.59-.06.41-.31C138.14,229.2,137.68,229.35,137.79,229.59Zm-1.51,10.26c.12.17.59,0,.4-.23S136.16,239.69,136.28,239.85Zm-1.91,13c.13.09.59-.06.4-.23S134.25,252.67,134.37,252.83Zm-.2,1.36c0,.14.46.86.62.74S134.37,252.83,134.17,254.19Zm-.92,6.27c.61.31,2.13-.12,1.6,1-1.73-.62-.57.93,0,0,.89-.09,1.32,0,1.39-.53,0,.29-.9-.79-.9-.79.62.24-1.86.75-1.23-.54,1.3.55.21-1,0,0A3,3,0,0,0,133.25,260.46Zm1.77-9.57c0,.15.52-.07.4-.24S134.9,250.72,135,250.89Zm-1.86,12.62c-.1.2,0,.73.25.76S133.83,262.44,133.16,263.51Zm3.33-22.6a1.76,1.76,0,0,0,.39,1.8C137.08,241.87,137.19,241.08,136.49,240.91Zm.74-5c0,.22.29.49.35.06C137.6,235.82,137.28,235.56,137.23,235.91Zm1.52-7.86,0,.29c-.79.9,1.37.56,1.28.19C140,228.68,138.53,228,138.75,228.05Zm-.54,3.64c.06.08.52-.07.34-.32C138.49,231.29,138,231.44,138.21,231.69ZM138,233c0,.16.52-.07.33-.24S137.83,232.8,138,233Zm-.2,1.36c.06.08.52-.07.34-.32C138.1,233.93,137.63,234.15,137.82,234.33Zm-3.42,23.24c0,.15.52-.07.33-.24S134.21,257.4,134.4,257.57Zm-.15,1c.05.15.52-.07.33-.24S134.06,258.39,134.25,258.57Zm2.65-13.52c-.19-.69.81-.54.79-.91C137.71,243.49,135.83,243.94,136.9,245.05Zm-1.58,8.29c-.17.12-.1.64.3.4C135.87,253.56,135.72,253,135.32,253.34Zm-.39,2.63c.13.09.59-.06.41-.3C135.28,255.59,134.81,255.81,134.93,256ZM138,235c0,.44.4.28.72.11C138.77,234.83,138.21,234.67,138,235Zm2.93-8c0,.58-2.38-.13-1.14.85C139.81,227.26,142.18,228,140.94,227Zm-2.27,6.08c0,.15.52-.07.39-.24S138.54,232.9,138.67,233.07Zm-.74,5c0,.15.52-.07.4-.24S137.81,237.89,137.93,238.06Zm-1.38,9.34c.07.08.52-.07.41-.31C136.83,247,136.43,247.23,136.55,247.4Zm.74-5a.32.32,0,0,0,.64.09C137.57,242.45,137.51,241.93,137.29,242.41Zm.13,8.54c-.56,1.3,1,.22,0,0,0-.44-.6-.38-.95-.5-.14-.54-.43-.07,0,0C136.21,251.72,136.73,250.63,137.42,251Zm.61-11.13c-.78,1.85.61,1.84,1.19.83C138.34,240.74,138.68,239.92,138,239.82Zm-.88,6c-.23.11-.09.64.25.33C137.63,246,137.56,245.51,137.15,245.81Zm-1,7c.06.08.53-.14.34-.32S135.94,252.55,136.12,252.8Zm-.68,4.63c.06.08.52-.07.34-.31C135.72,257,135.26,257.19,135.44,257.43Zm-.19,1.29c.05.15.52-.07.33-.25S135.06,258.54,135.25,258.72Zm3.06-9.39c.36.49,1.15.61,1.4-.08l-1.36-.2c0-.29.07-.5.11-.72-.88-.49-2.37.24-1.51.8.21-.4.9-.16,1.4-.08Zm-2.58,6.11c.07.08.82-.1.7-.27S135.61,255.27,135.73,255.44Zm3.59-24.32c0,.22.22.47.28,0C139.62,231,139.37,230.77,139.32,231.12Zm-.5,3.35c.69.25.72-.4.79-.9,1.07.67,1.65,1.63,1.35.2,0,.22-.27.4-.4.3s.28-.9.14-1c-.46-.29-1,.22-1.09.49A3.07,3.07,0,0,0,138.82,234.47Zm-4.36,29.59c.55.23.69-.19.74-.54.53-.15.06-.43,0,0C134.65,263.29,134.53,263.64,134.46,264.06Zm6.22-37.76c.06.08.53-.14.41-.31S140.57,226.06,140.68,226.3Zm-4.21,28.59c.06.08.89-.09.7-.26S136.36,254.65,136.47,254.89Zm3.91-17.13c.41.14.58,0,.69-.26-.11.28.16-.56-.21-1.05.18.25-.56.35-.69.26-.41-.2-.84-1.72-.95-.5.36.56,1.29.63,1.16,1.55C139.85,237.9,140.31,238.19,140.38,237.76Zm-2,4.44c0,.21.29.48.36.05C138.72,242.11,138.39,241.84,138.34,242.2Zm-1.13,7.7c.59.45,2.5.8,2.35.34C139.5,250.16,137.71,249.46,137.21,249.9Zm3-17.63c.05.15.52-.07.32-.25S140,232.09,140.17,232.27Zm-2.11,14.33c.06.08.52-.07.33-.31C138.33,246.2,137.86,246.43,138.06,246.6Zm-.89,6c.06.08.82-.1.7-.26S137.05,252.42,137.17,252.59Zm1.33-9c-.21.92,1,1.32,1.19.84C139.78,244.3,138.63,242.68,138.5,243.6Zm1.91-13c0,.21.23.4.28,0C140.71,230.53,140.46,230.27,140.41,230.63Zm-3.92,26.59a.33.33,0,0,0,.64.1C136.77,257.34,136.71,256.74,136.49,257.22Zm-1.08,7.35c0,.14.23.4.29,0S135.47,264.14,135.41,264.57Zm2.84-17.29c-.11.72,1.07.16.75-.18S138.27,247.14,138.25,247.28Zm-1,9.4c.06.08.52-.07.41-.31S137.12,256.44,137.23,256.68Zm-.49,3.28c.06.15.52-.07.4-.24S136.62,259.79,136.74,260Zm-.84,5.7c.06.08.54-.14.41-.3S135.79,265.42,135.9,265.66Zm4.41-30c-.1.72,1,.15.7-.26C140.89,235.29,140.34,235.57,140.31,235.71Zm.87,3.55c-1-.44-1.15.35-1.51.8C140.52,240.26,140.57,239.4,141.18,239.26Zm-3.75,16.06a.32.32,0,0,0,.64.09C137.7,255.43,137.64,254.84,137.43,255.32Zm-.18,8.13c-.53.14,0,.44,0,0,.54.3.8-1.48.2-1.35.58-.5.31-2.14-.45-1.38,1,.36-.47.66-.19,1.28l.64.1C137.38,262.6,137.31,263,137.25,263.45Zm.63-8.72c.06.08.52-.07.34-.31C138.16,254.34,137.7,254.49,137.88,254.73Zm3.62-24.6c-.29,1,.65,1.05,1.1,1.48C142.8,230.69,141.78,230.69,141.5,230.13Zm.39-2.63c.64.09.06,1.1.85,1.14C143.32,227.71,142.39,226.55,141.89,227.5Zm-.55,5.67c0-.07,1.11.38,1,.43C143.27,232.94,141.36,232.59,141.34,233.17Zm-1.62,24.89c-.48-.21-1.35-1.73-1.9-.93.91.71.34,1.14,1.9.93C139.86,258.59,140.16,258.05,139.72,258.06Zm1-11.43c-.81-.48-1.67.92-.84,1.26C140,247.25,140.82,247.59,140.75,246.63Zm2.34-20.34c-.14-.53-.43-.06,0,0C143.23,226.82,143.45,226.27,143.09,226.29Zm-1.77,12c.06.08.53-.14.34-.32S141.14,238,141.32,238.27Zm-2.2,15c.06.08.53-.14.34-.32S138.94,253,139.12,253.24Zm-.24,1.64c.06.08.52-.07.33-.32C139.15,254.48,138.69,254.63,138.88,254.88Zm-.15,1c.06.08.52-.07.34-.32C139,255.48,138.55,255.63,138.73,255.88Zm-1.57,10.62c.07.08.53-.07.34-.31C137.44,266.1,137,266.33,137.16,266.5ZM141,240.55c0,.21.22.47.28,0C141.29,240.45,141,240.19,141,240.55Zm1.79-10.23c.14.1.52-.07.41-.3S142.67,230.09,142.78,230.32Zm-.58,4c.13.09.52-.07.41-.31C142.54,233.93,142.09,234.08,142.2,234.32ZM142,235.6c.12.16.52-.07.4-.23S141.89,235.44,142,235.6Zm.48-3.28c.13.09.89-.09.77-.25S142.37,232.16,142.49,232.32Zm-1.71,11.62c.05.16,1.15.61,1,.15C141.8,243.94,140.7,243.49,140.78,243.94Zm-.23,8.49c0,.37-.75.62-.15,1,.37-2,2-.87,2.65-1.65a5.35,5.35,0,0,0-2.64-.39C139.29,251.08,140.59,251.63,140.55,252.43Zm1.71-16.07c.06.09.52-.07.41-.3S142.15,236.13,142.26,236.36ZM140.4,249c-.19.78-.31,1.63.4,1.74C142.32,248.83,141.19,250.56,140.4,249Zm2.65-18c.06.08.87,0,.69-.26C143.68,230.67,142.92,230.85,143.05,231ZM141,247.4c-.07,0,0,.28,0,.28a5.64,5.64,0,0,0-.47.66C140.79,248.82,142.17,247.35,141,247.4Zm1.07-5.31c.56-1.3-1-.22,0,0C142.21,242.62,142.5,242.15,142.07,242.09ZM139.14,260c-.24.11-.09.64.24.32C139.62,260.23,139.55,259.71,139.14,260Zm3.82-26c.06.09.52-.06.34-.31C143.24,233.67,142.77,233.89,143,234.06Zm-.2,1.36c.06.08.52-.07.34-.32C143,235,142.58,235.17,142.76,235.42ZM139,261.3c.05.15.52-.07.33-.24S138.76,261.13,139,261.3Zm.78-5.28c-.21.41,0,1.32.19.69C140.12,256.3,140,255.4,139.73,256Zm-1,7c.06.08.81-.1.69-.26S138.58,262.85,138.7,263Zm3.86-24.27c-.08-.45-.36,0,0,0C142.7,239.27,143,238.8,142.56,238.74Zm-2.35,16c0,.21.31.41.36,0C140.59,254.62,140.27,254.36,140.21,254.71Zm-.66,9.45c-.07,0,0,.28,0,.28s-.7.26-.46.66S140.7,264.25,139.55,264.16Zm2.64-20.38c.05.16.52-.06.39-.23S142.06,243.62,142.19,243.78ZM140,261.16c1.66.61.5-.94,0,0C139,261.09,140.08,262.56,140,261.16Zm4.25-31.35c0,.15.88,0,.69-.19S144.12,229.65,144.24,229.81Zm-2.4,16.33c.06.08.88,0,.69-.27C142.47,245.79,141.72,246,141.84,246.14Zm1.37-9.34c-.12.34.16.89.31.41S143.36,236.31,143.21,236.8Zm-.23,4c-.15-.46-.43,0,0,0C143.12,241.37,143.34,240.89,143,240.84Zm.62-2.24c.57-1.37-1-.22,0,0C143.76,239.06,144,238.59,143.6,238.6Zm.65-6.39c.07.09.52-.06.34-.31C144.53,231.82,144.06,232,144.25,232.21Zm-.14,1c.06.08.52-.07.33-.31C144.38,232.82,143.91,233,144.11,233.21ZM139.6,263.8c.06.08.52-.07.34-.31S139.41,263.63,139.6,263.8Zm1.42-9.63c-.11.72,1,.15.69-.26C141.59,253.75,141,254,141,254.17Zm-.39,2.64c0,.22.23.4.29,0C140.94,256.71,140.68,256.46,140.63,256.81ZM144,236.25c.13.09.52-.07.41-.3S143.83,236.09,144,236.25Zm-2.84,19.32c.13.09.53-.14.4-.3S141,255.34,141.11,255.57ZM144.65,234c0,.15.52-.07.4-.23S144.53,233.79,144.65,234Zm-1,9.39c.06.08.52-.07.33-.31C143.91,243,143.44,243.17,143.64,243.34ZM142.07,254c.06.09.52-.06.33-.24S141.88,253.79,142.07,254Zm-.49,3.36c.06.08.52-.07.33-.32C141.85,256.92,141.39,257.07,141.58,257.32Zm-1.22,8.27c0,.15.52-.07.33-.25S140.17,265.41,140.36,265.59Zm2.69-18.26c.06.09.81-.1.69-.26S142.93,247.17,143.05,247.33ZM141.92,255c0,.22.24.4.29,0C142.23,254.86,142,254.61,141.92,255Zm-1.32,9c0,.21.23.4.29,0S140.65,263.59,140.6,264Zm4-25.2c.13.09.53-.14.41-.3S144.49,238.51,144.6,238.75Zm-3,20.6c.13.1.52-.06.41-.3C141.92,259,141.46,259.12,141.57,259.35Zm.26,5.14c.13.1.53-.14.41-.3S141.72,264.26,141.83,264.49Zm-.29,2c.13.09.88-.09.76-.25S141.42,266.32,141.54,266.49Zm1.61-11c0,.14.31.41.36.05S143.21,255.15,143.15,255.51Zm.17,1.33c.05.16.52-.06.4-.23S143.2,256.68,143.32,256.84Z"/><path d="M180.76,225.72a4.88,4.88,0,0,1,1,.14c0,.08-.24.63-.1.65.73.47,2.57.37,3.59.89.4.2,1,.95,1.49,1.24.8.48,1.58.67,1.9.93s.3.92.49,1.1.78.18,1,.5a6,6,0,0,1,.57,1.1,5.52,5.52,0,0,1,.54.74c.35.63.36,1.51.71,2.14s1,1.17,1.15,1.56a31.31,31.31,0,0,1,1.26,7.32,40.43,40.43,0,0,1-.22,8.42,37.83,37.83,0,0,1-1.82,7.89c-.27.83-.09,1.59-.35,2.35-.14.49-.74,1.06-.88,1.55a26.61,26.61,0,0,1-2.83,5.33,38.76,38.76,0,0,1-2.9,3.37c-.25.25-.83.24-1.09.49s-.19.77-.5.95-.45.08-.7.26a19.12,19.12,0,0,1-3.23,1.2,17.6,17.6,0,0,1-3.88,1.1,29,29,0,0,1-5-.73,29.14,29.14,0,0,1-5-.74,21,21,0,0,1-6.24-3.61,25.53,25.53,0,0,1-2.16-1.7c-1.56-1.76-2.43-4.73-3.32-7.63a19,19,0,0,1-.91-5.16,42.48,42.48,0,0,1,.26-11.18c.22-1,.51-2.48.9-3.66.13-.34.69-.7.83-1.19a19.35,19.35,0,0,0,.3-2c.22-.55,1-1.82,1.44-2.85a20.3,20.3,0,0,1,9.26-9.49c.48-.29.85-.82,1.15-.85a20,20,0,0,1,6.28-1.12A34.66,34.66,0,0,1,180.76,225.72Zm-22.62,17.06c.13.1.6-.13.41-.3S158,242.55,158.14,242.78Zm.21,1.05c.06.09.53-.14.41-.3S158.24,243.6,158.35,243.83Zm-.59,4c.06.08.89-.09.7-.27S157.65,247.59,157.76,247.83Zm1.23-8.35c0,.22.3.41.36.06S159,239.13,159,239.48Zm-1,6.64a.33.33,0,0,0,.65.09C158.29,246.23,158.22,245.71,158,246.12Zm-.88,6c0,.22.46.87.54.81C157.91,252.73,157.33,250.75,157.13,252.1Zm.16,1.41c.06.08.82-.1.69-.26S157.17,253.35,157.29,253.51Zm.35-2.35c0,.44.32.27.64.09A.33.33,0,0,0,157.64,251.16Zm1.26-6.59c.13.09.52-.07.41-.3S158.78,244.41,158.9,244.57Zm-.74,5c.13.09.52-.07.41-.3S158,249.4,158.16,249.56Zm-.67,7c-.14-.53-.43-.06,0,0C157.63,257.13,157.93,256.59,157.49,256.6Zm2-13.62c.06.08.53-.14.4-.3S159.38,242.75,159.5,243Zm-.39,2.64c0,.21.3.41.35,0C159.49,245.46,159.16,245.26,159.11,245.62ZM160,242c.06.08.53-.14.34-.32S159.82,241.79,160,242Zm-1.91,13c.06.08.53-.14.34-.31S157.91,254.77,158.09,255Zm1.47-10c.06.08.81-.1.69-.26S159.45,244.8,159.56,245Zm-2.21,15c.06.09.82-.1.7-.26S157.24,259.77,157.35,260Zm1.61-8.94c.13.09.53-.14.41-.3S158.85,250.83,159,251.06Zm1.65-1.79c-1.29.32-.05-1.18-.85-1.15a1.76,1.76,0,0,1-.55,1.23C159.72,249.35,160.47,249.68,160.61,249.27Zm-1.18,8c-1.3-.56-1.49.73-.79.9C158.51,258.06,159.25,257,159.43,257.25ZM159,253.4c.05.15.52-.07.4-.24S158.86,253.23,159,253.4Zm-.15,1c0,.15.52-.08.4-.24S158.71,254.23,158.83,254.4Zm-.14,1c.05.16.87,0,.68-.19S158.57,255.23,158.69,255.39Zm1.36-9.27c0,.15.31.41.36.06S160.12,245.7,160.05,246.12Zm1.64-8.64c.05.15.52-.07.33-.25S161.5,237.3,161.69,237.48Zm-1.43,9.7c.06.08.53-.15.34-.32S160.08,246.93,160.26,247.18Zm-1.36,9.26c.06.08.52-.07.32-.24S158.7,256.27,158.9,256.44Zm-.74,5c.06.09.52-.07.34-.31C158.44,261,158,261.26,158.16,261.43Zm3.76-23.55c-.84.31-.49,2.84.47,1.74C161.44,239.7,162.87,237.87,161.92,237.88Zm-1.11,5.59c.55.22.67-.12.73-.55.53-.14.07-.43,0,0C161,242.69,160.86,243.11,160.81,243.47Zm.62-2.24c.13.09.53-.14.41-.31S161.32,241,161.43,241.23Zm-3.13,21.25c0,.21.3.4.36,0C158.68,262.38,158.35,262.12,158.3,262.48ZM161,246.56c.05.15.52-.07.4-.24S160.89,246.39,161,246.56Zm1.71-11.63c.06.09.88,0,.69-.26C163.35,234.59,162.6,234.77,162.72,234.93ZM160,253.54c.05.16.88,0,.68-.19C160.61,253.2,159.86,253.38,160,253.54Zm-1,6.71c0,.14.31.4.36.05S159.06,259.82,159,260.25ZM162.78,237c.06.08.52-.07.34-.31C163.06,236.59,162.59,236.81,162.78,237ZM160,255.59c.05.16.52-.07.33-.24S159.85,255.42,160,255.59Zm-.88,6c.06.08.52-.07.34-.31C159.44,261.18,159,261.41,159.16,261.58ZM160.72,251c.65.53,1.29,1.14,2,.29C161.66,251.53,161.15,250.07,160.72,251Zm-1.12,7.63c-.1.71,1,.14.68-.19C160.17,258.16,159.62,258.44,159.6,258.59Zm1.21-6.24c0,.15.3.41.36.06S160.87,251.93,160.81,252.35Zm-1.3,11.32c-.17.12-.35-.12-.41.31C159.09,265.5,161.31,262.33,159.51,263.67Zm3.68-22.55c.46-.15,0-.44,0,0C161.81,240.63,163,242.11,163.19,241.12Zm-.7,2.3c.06.08.89-.08.69-.26S162.37,243.26,162.49,243.42Zm-1.76,12c.06.08.88-.09.69-.26S160.61,255.17,160.73,255.4Zm5.46-13.84c.15-.56-.19-.68-.62-.74.18-1.21-1.51-2.63-2.39-2.1.66,0,.31.84.5,1.09s.87,0,1,.15c.23.4,0,.95.89.86C165.41,241.38,165.76,241.5,166.19,241.56ZM160,260.39c.53.37,1,1.38,1-.21C160.67,260.2,160.13,260,160,260.39Zm3.7-22.62c.05.15.52-.07.32-.24C164,237.38,163.49,237.6,163.69,237.77ZM162,256.24l-.06.36c-.21,0-1.29-.12-1,.14C161.26,257.23,163.18,256.56,162,256.24Zm2.23-22.1c.42.13.49.65.91.78C165.5,234.32,164.48,233.37,164.22,234.14Zm-.62,15.57c-.84-.2-1.63-.32-1.73.4C162.8,250.68,163.17,250.66,163.6,249.71Zm.09-7.49c1.3.55.22-1,0,0C163.16,242.36,163.7,242.65,163.69,242.22Zm.73-5c.06.08.52-.07.41-.31C164.7,236.83,164.3,237.06,164.42,237.23Zm-.14,1c.06.08.52-.07.4-.3S164.15,238.06,164.28,238.22Zm-1.78,21.45c-1.3.39-.06-1.1-.86-1.08.49-1.38-1-.21,0,0C160.73,259.34,161.71,261.08,162.5,259.67Zm-1.75,2.51a.32.32,0,0,0,.64.09C161,262.22,161,261.7,160.75,262.18Zm-.28,4.33c.05.15.52-.07.33-.24S160.28,266.34,160.47,266.51Zm3.08-20.89c-.25.69-.11,1.22.45,1.38C164.18,246.3,164.11,245.77,163.55,245.62Zm.68-2.67c.13.17.52-.07.4-.23S164.11,242.79,164.23,243Zm-.34,2.35c.13.1.52-.06.41-.3C164.24,244.92,163.77,245.14,163.89,245.3Zm-2.74,18.61c.13.1.52-.07.41-.3S161,263.75,161.15,263.91Zm.39-2.63c0,.14.3.4.35.05S161.59,260.92,161.54,261.28Zm4.52-23.81c-2.38.81,1.43.72.77-.25C166.64,237,166.13,237.48,166.06,237.47Zm-.2-3.09c.06.08.52-.07.41-.31C166.14,234,165.74,234.21,165.86,234.38Zm-2,13.61c0,.16.87,0,.68-.19S163.73,247.83,163.86,248Zm-1,7c0,.15.87,0,.68-.19S162.7,254.82,162.83,255Zm-.3,2c.06.08.88,0,.69-.19S162.41,256.81,162.53,257Zm2-2.4c1.08-1.37-1.49-2.26-1.54-.88C164.24,253.3,164.18,253.73,164.56,254.58Zm-.75-3.82c.46-.15,0-.44,0,0C163.29,250.83,163.76,251.11,163.81,250.76Zm.64-4.35c.06.08.52-.07.34-.32C164.73,246,164.26,246.23,164.45,246.41Zm-2.6,19.65c-.17.19-.1.71.31.41C162.4,266.28,162.26,265.75,161.85,266.06Zm1.07-7.28c.13.1.53-.14.41-.3S162.81,258.55,162.92,258.78Zm-.72,4.92c.12.17.52-.06.4-.23S162.08,263.54,162.2,263.7Zm4.5-30.58c.77.69,1.16-.93.5-.88-.14-.53-.43-.06,0,0C167.19,232.75,166.83,232.77,166.7,233.12Zm1.27,3.24a1.37,1.37,0,0,0-1.76.11C167,236.81,167.36,237.07,168,236.36Zm-4.14,18.77c0,.15.52-.07.39-.23S163.7,255,163.83,255.13Zm1.28-6.22c.49-1.39-1-.22,0,0C165.26,249.37,165.47,248.89,165.11,248.91Zm-1.77,13.94c-1.52-.51,3.08-.64.9-1.18-.12.35-.68.2-1,.14-.16-.46-.44,0,0,0C163.06,262.3,163,262.73,163.34,262.85Zm2.46-18.65c0,.16.52-.07.33-.24S165.61,244,165.8,244.2Zm-3.09,21c.06.09.52-.07.34-.31C163,264.77,162.52,265,162.71,265.16Zm4.6-31.22c0,.14.23.39.29,0S167.36,233.58,167.31,233.94Zm-4.49,34.95c-1.32-.48-.22,1,0,0,.27.12.29,0,.4-.23.46-.15,0-.44,0,0A.27.27,0,0,0,162.82,268.89ZM167.45,235c.13.09.52-.07.41-.31C167.8,234.59,167.34,234.74,167.45,235Zm-3.38,23c.13.1.53-.14.41-.3S164,257.7,164.07,257.93Zm-.29,1.93c.13.16.52-.07.4-.23S163.66,259.69,163.78,259.86Zm-.69,4.7c.13.1.52-.07.41-.3C163.44,264.18,163,264.33,163.09,264.56Zm3.88-26.3c-.06.35.57.52.71.1C167.24,238.37,167.17,237.85,167,238.26Zm1.28-6.23c.06.09.52-.07.4-.3S168.14,231.8,168.25,232Zm-1.66,11.27c0,.15.52-.07.4-.24S166.47,243.14,166.59,243.3Zm.48-3.28c.06.08.89-.09.69-.26S167,239.85,167.07,240Zm-3.42,23.24c.06.08.87,0,.69-.26C164.28,262.92,163.53,263.1,163.65,263.26Zm5-31.82c.06.09.53-.14.33-.31S168.51,231.2,168.7,231.44Zm-4.31,29.24c.06.08.52-.07.34-.32C164.67,260.28,164.21,260.43,164.39,260.68Zm-1,7c.06.09.53-.14.34-.31S163.18,267.42,163.36,267.66Zm.2-1.35c0,.21.24.4.29,0S163.61,266,163.56,266.31Zm5.2-30.85c.05.15.52-.07.4-.23S168.64,235.3,168.76,235.46Zm1.19-1.14c-.26-.69-.79-1.06-1,.14C169.26,234.51,169.83,234.67,170,234.32Zm-1.34,2.14c0,.44.33.26.65.09C169.3,236.27,168.74,236.11,168.61,236.46Zm-3.56,26.64c0,.16.52-.06.33-.24S164.86,262.93,165.05,263.1Zm4.74-30.18c-.14-.53-.37,0,0,0C169.93,233.45,170.22,233,169.79,232.92Zm-.44,3c.13.09.52-.07.41-.3S169.23,235.75,169.35,235.91Zm-4.26,29c.13.09.52-.07.41-.31C165.44,264.47,165,264.62,165.09,264.86Zm5.39-34.17c.06.08.53-.14.41-.31S170.37,230.45,170.48,230.69Zm.12,1.69c.06.08.52-.07.34-.31C170.88,232,170.42,232.13,170.6,232.38ZM167,265.79c-.18.71-1.25.11-1.43.81C166.43,267.1,167.91,266.44,167,265.79ZM167.7,254c0,4.59,2,10.28,4.57,10.51.36.06,1-.43,1.51-.8a7,7,0,0,0,2.38-2.34c1.53-2.47,3.29-9.49,3.14-12.43-.19-4.62.08-10.41-4.11-11.17-.35,0-.47.22-.69.26-1.72.26-2.55,2-3.63,3.84A25.14,25.14,0,0,0,167.7,254Zm2.89-19.6c.13.09.52-.07.41-.31C170.94,234,170.48,234.18,170.59,234.42Zm-4.25,28.87c.12.17.52-.06.4-.23S166.22,263.13,166.34,263.29Zm-.58,6.4c.06.08.52-.07.41-.3S165.64,269.53,165.76,269.69ZM172,231.93c.65,0,.38-1.11.91-1.25-.95-.51-.75.62-.91,1.25C170.93,232.14,172.08,233.69,172,231.93Zm-4.57,36c-.25.18-.18.7.23.39C167.89,268.11,167.75,267.58,167.41,267.9Zm-.44,3c.06.08.52-.07.33-.32C167.24,270.49,166.77,270.72,167,270.89ZM172.54,235c.13.16.52-.07.4-.24S172.42,234.83,172.54,235Zm-4.78,35c.06.08.52-.07.4-.31S167.63,269.82,167.76,270Zm5.83-35.13c.13.09.88-.09.76-.25S173.46,234.7,173.59,234.86Zm-4.54,33.28c.06.08.52-.07.41-.31C169.32,267.74,168.93,268,169.05,268.14Zm.35,2.09c-.15.49-.59.5-.79.9C169.28,271.52,170.23,270.5,169.4,270.23Zm5.39-38.62c.06.08.52-.07.33-.24S174.6,231.44,174.79,231.61Zm-.25,1.71c.06.09.53-.14.34-.31S174.36,233.08,174.54,233.32Zm.45,1.38c.06.08.52-.07.41-.3S174.87,234.54,175,234.7Zm-5,34.23c.05.15.52-.07.4-.24S169.83,268.76,170,268.93Zm5.63-38.22c-.12.35.09.89.3.41C175.94,230.76,175.72,230.22,175.58,230.71Zm-5.38,39c.06.08.53-.14.34-.31S170,269.45,170.2,269.69Zm-.29,2c.06.08.53-.14.34-.32S169.73,271.44,169.91,271.69Zm-.1.64c.07.08.52-.07.34-.32C170.09,271.93,169.62,272.15,169.81,272.33ZM176,232.16c-.14-.53-.35,0,0,0C176.16,232.69,176.46,232.15,176,232.16Zm.56-1.3c0,.15.52-.07.4-.24S176.39,230.68,176.58,230.86Zm-5.27,38.26c-.11.72,1,.22.68-.19C171.88,268.7,171.32,269.05,171.31,269.12Zm6.46-39.4c.06.08.53-.14.4-.3S177.58,229.47,177.77,229.72Zm.16,1.34c-.53.14-.06.42,0,0a.52.52,0,0,0,.69-.19c1.51.58-.13-1.63,0,0C178.2,230.73,178,230.85,177.93,231.06Zm-5.77,39.21c.05.15.8,0,.68-.19S172,270.1,172.16,270.27Zm5.37-36.5c0,.14.24.39.29,0S177.6,233.34,177.53,233.77Zm-4,34.37c.06.08.53-.15.34-.32S173.31,267.89,173.49,268.14Zm.39-.68c.05.16.52-.06.4-.23S173.76,267.3,173.88,267.46ZM179.17,234c-.23.11-.09.64.32.33C179.65,234.22,179.58,233.7,179.17,234Zm-5.43,36.86c.07.08.53-.07.41-.31C174,270.47,173.55,270.69,173.74,270.87Zm.55.74c.05.15.52-.08.4-.24S174.17,271.44,174.29,271.61Zm6.18-39.45c-.9,1.61.78,2.59,1,1.83C181.71,233.58,181,232.89,180.47,232.16ZM175.33,267c.06.08.52-.07.41-.3S175.14,266.85,175.33,267ZM180,235.08c0,.21.29.48.35,0C180.41,235,180.09,234.72,180,235.08Zm-3.86,33.09c-.18-.25-.67.12-.69.26-.67,1.58.14,1.48.28,0C175.77,268.47,176.36,268.41,176.18,268.17Zm4.24-31.28c.57-1.38-1-.22,0,0C179.94,238.2,181.41,237.11,180.42,236.89Zm1-4.59c.07.09.53-.14.34-.31S181.28,232.06,181.46,232.3Zm-.53,3.64c0,.14.23.4.28,0C181.25,235.77,181,235.58,180.93,235.94Zm-4.85,34.91c.12.16.59-.06.4-.24S176,270.68,176.08,270.85Zm5.82-39.5c.13.09.88-.09.76-.25S181.78,231.11,181.9,231.35Zm-5.38,36.5c.12.17.88,0,.75-.18S176.4,267.69,176.52,267.85Zm6.84-32.57c0-2.19-3.08-1.4,0,0C183.28,236.29,184.84,235.13,183.36,235.28Zm-5.64,29.4c.06.08.81-.1.69-.26S177.59,264.52,177.72,264.68Zm-.78,5.27c.05.16.8,0,.68-.19S176.82,269.79,176.94,270Zm5.12-32.82c.14.09.89-.09.77-.25S181.94,237,182.06,237.13Zm.65-4.35c0,.14.45.87.6.82S182.9,231.42,182.71,232.78Zm-4.86,32.94c0,.36.4.28.72.1C178.62,265.47,178.06,265.31,177.85,265.72Zm4.72-29.54c.06.08.89-.09.69-.26S182.45,236,182.57,236.18Zm-4.65,31.59c.49.58,1.75,0,3,.44C180.78,267.61,178.29,267.24,177.92,267.77Zm-.44,3c0,.14.3.41.35.05C177.86,270.6,177.54,270.33,177.48,270.76Zm4.27-26.54c.06.08.53-.14.34-.31S181.57,244,181.75,244.22Zm-2.89,19.61c.06.08.52-.07.34-.32C179.14,263.43,178.68,263.58,178.86,263.83Zm-.92,6.27c.05.15.52-.07.32-.24C178.21,269.7,177.74,269.93,177.94,270.1Zm.77-3.24c.13.1.88-.08.76-.25S178.58,266.7,178.71,266.86Zm5.18-35.22c0,.14.31.41.36.05C184.28,231.48,184,231.21,183.89,231.64Zm-1.71,11.62c.44,0,.5.59.71.11S182.39,242.86,182.18,243.26Zm-3.41,25.65c.06.08.53-.14.41-.3S178.66,268.68,178.77,268.91ZM183,240c.06.08.88,0,.7-.27C183.66,239.62,182.91,239.8,183,240Zm1.16,1.55c-.85-.2-1.15.34-1.51.8C183.53,242.52,183.83,242,184.19,241.52Zm-4.54,21.4c0,.15.3.41.36.06S179.7,262.57,179.65,262.92Zm4.23-26.25c.05.15.52-.07.33-.25S183.69,236.49,183.88,236.67ZM181,256c.06.08.52-.07.33-.32C181.31,255.59,180.85,255.74,181,256Zm.68-4.64c0,.15.23.4.28.05S181.78,250.93,181.72,251.35Zm1.31-6.94c.13.09.6-.13.41-.3S182.92,244.17,183,244.41Zm-3.66,24.88c.12.17.59-.06.4-.23S179.25,269.13,179.37,269.29Zm4.94-33.58c.13.16.88,0,.76-.18S184.19,235.55,184.31,235.71ZM180.14,264c-.16.63-.07,1,.57,1.1.16-.56-.27-.62-.21-1.05l.36.05c.57-1.88-1-1.46-.36-.05Zm2.26-15.33c0,.21.3.48.36.05C182.78,248.6,182.45,248.33,182.4,248.69Zm1.87-10.22c.06.08.52-.07.41-.3S184.16,238.24,184.27,238.47Zm-2.39,16.26c.05.15.52-.07.4-.23S181.76,254.56,181.88,254.73Zm2.41-13.92c.49-1.32-1-.22,0,0C184.43,241.34,184.65,240.86,184.29,240.81ZM182,260.58c-.25-.26-1-.08-1,.14-.14,1,.56,1.17.9.86C181.55,261.89,181.79,260.25,182,260.58Zm3.24-22c.51,0,.29-1,.79-.9.14.53.44,0,0,0,.25-.26.45-.59.82-.61-.57,1.37,1,.22,0,0,.4-.31-1.51-1.17-2-.58s.75,1.35.35,2.09C184.26,238.54,185.43,240,185.27,238.62Zm-2.45,12.17c0,.21.22.47.29,0C183.13,250.69,182.87,250.43,182.82,250.79Zm-.11,2.75c.13.09.88-.09.76-.25S182.6,253.3,182.71,253.54Zm1.14-.85c-.61,1.66,1,.51,0,0,.12-.28,0-.37-.23-.4.81-2.07-1.62.12,0,0C183.51,252.56,183.72,252.6,183.85,252.69Zm.79-9.79c.05.15.52-.07.4-.24S184.52,242.73,184.64,242.9Zm-.55,3.71c.06.08.53-.15.41-.31S184,246.37,184.09,246.61Zm-1.51,10.26c0,.15.52-.07.4-.23S182.46,256.71,182.58,256.87Zm.69-2.23c-.14-.53-.42-.06,0,0C183,256.06,184.55,254.9,183.27,254.64Zm.46,1.38c1.3.56.21-1,0,0l-.65-.09c-.14-.53-.43,0,0,0A.33.33,0,0,0,183.73,256Zm.92-10.72c.06.08.52-.07.34-.31C184.93,244.91,184.46,245.13,184.65,245.3Zm-3.28,22.25c0,.15.52-.07.33-.25S181.18,267.37,181.37,267.55Zm-.2,1.35c.06.08.52-.07.34-.31C181.45,268.51,181,268.73,181.17,268.9Zm-.09.64c0,.16.8,0,.68-.19S181,269.38,181.08,269.54Zm4.4-29.87c-.14.42,0,1.31.19.69C185.87,240,185.71,239.05,185.48,239.67Zm-2.43,23.39c-2.27-.41-.06,1.45,0,0l.29,0c.54-.21,1.54-2,.19-1.28.26-1.78-1.3-.56,0,0C183.51,262.4,183.08,262.41,183.05,263.06Zm2.13-19.35c2.77.91.34-2.36,0,0C184.72,243.86,185.19,244.07,185.18,243.71Zm-1,6.63c-.17.19-.1.64.3.4C184.75,250.56,184.61,250,184.2,250.34Zm1.68-8.94c2.06.82-.14-1.55,0,0C184.82,241.69,186,243.24,185.88,241.4Zm-2.41,16.33c-.52.07,0,.37,0,0,.29,0,.31-.1.41-.3,1.91.43.33-1.7,0,0C183.61,257.31,183.51,257.52,183.47,257.73Zm.5-3.35c.06.08.52-.07.41-.3S183.85,254.22,184,254.38Zm-.83,5.63c.06.09.87,0,.68-.19S183,259.85,183.14,260Zm4-20.1c.06-.43.13-.92.2-1.35l.35.05c.26-.25.64-.85.15-1a1.57,1.57,0,0,0-.5.95C185.66,238,186.25,239.86,187.12,239.91Zm0-4.44c.06.08.8,0,.68-.19S187,235.3,187.12,235.47ZM185.3,247.8c.06.08.82-.1.69-.26S185.19,247.57,185.3,247.8Zm-3.18,21.61c.06.08.81-.1.69-.27S182,269.24,182.12,269.41Zm4.32-24.86s-.05.28-.06.35-.61.2-.45.59S187.66,244.65,186.44,244.55Zm-.65,1.94c.13.09.52-.07.4-.3S185.66,246.33,185.79,246.49Zm-.69,4.63c.12.17.52-.06.4-.23S185,251,185.1,251.12Zm-.4,2.71c0,.15.31.41.36.06S184.77,253.41,184.7,253.83Zm.09,4.39c1.45.5,1.5,1.17,2.68.1-1.8.32-.79-1.57-1.44-1.6-.08,0-.14.93-.15,1-.17.19-1.22-.11-1.09.5C183.3,257.92,184.44,259.55,184.79,258.22Zm1.94-15.67c.06.08.52-.07.41-.31S186.61,242.39,186.73,242.55Zm-1.91,13c.06.08.52-.07.41-.31C185.1,255.13,184.7,255.36,184.82,255.53Zm-1.23,8.34c0,.14.3.41.36.05S183.65,263.44,183.59,263.87Zm2.52-14.64c0,.16.52-.07.33-.24S185.92,249.06,186.11,249.23Zm-2.3,15.62c.05.15.52-.07.33-.25S183.62,264.67,183.81,264.85Zm3.09-16.52c.07-1-1.41.16,0,0C187,248.86,187.33,248.39,186.9,248.33Zm-1.09,4.94c-.85.31.19,1.63.61.82C186,254,186.15,253.39,185.81,253.27Zm-.44,3c.12.17.52-.07.39-.23S185.24,256.1,185.37,256.26Zm-.45,3c.13.16.52-.07.4-.24S184.8,259.09,184.92,259.26Zm-1.22,8.34c.13.09.52-.07.41-.31C184,267.21,183.59,267.36,183.7,267.6Zm3.08-21c.43.06.5.58.72.1C187.55,246.39,187,246.23,186.78,246.64Zm.8-2.94c.06.08.52-.07.41-.31C187.86,243.3,187.46,243.53,187.58,243.7Zm-.15,1c.06.08.52-.07.41-.3S187.31,244.53,187.43,244.69Zm-.83,5.64c.05.15.52-.07.4-.24S186.48,250.16,186.6,250.33ZM185.18,260c.06.08.53-.14.41-.3S185.07,259.79,185.18,260Zm-.18,3.69c.49-1.38-1-.22,0,0C185.14,264.24,185.36,263.69,185,263.71Zm-.8,2.94c0,.15.3.41.36.06S184.26,266.23,184.2,266.65Zm4.18-25.9c0,.22.23.4.28,0C188.68,240.65,188.43,240.4,188.38,240.75Zm.94.51c-.09.64-1,.29-.9,1.17C189.16,242.84,190,241.43,189.32,241.26Zm-2,8.87c.13.1.53-.14.41-.3S187.18,249.9,187.29,250.13Zm.34-2.35c0,.22.31.41.36.06S187.69,247.43,187.63,247.78Zm-2.79,19c0,.14.31.41.36.05S184.9,266.32,184.84,266.75Zm2-11.29c-1.12.64.46,1.82.35.06.53-.14,0-.37,0,0Zm3.35-11.38c-.48-.72-1.11.13-1.74.4C189.33,244.68,189.86,244.54,190.22,244.08Zm-1.79,5.2c.08-1-1.39.09,0,0C188.29,252.76,191.41,247.9,188.43,249.28Zm-2.38,14.22c.06.08.52-.07.34-.31C186.32,263.11,185.86,263.33,186.05,263.5Zm-.5,3.35c.06.08.52-.07.34-.31C185.83,266.46,185.37,266.61,185.55,266.85Zm2.26-15.33c-.12.35.09.89.24.4C188.17,251.58,188,251,187.81,251.52Zm-.49,7.8c-.07,0-.57-.09-.4.23C187.33,260.27,188.87,258.16,187.32,259.32Zm2.44-19c.13.09.52-.07.41-.3S189.65,240.07,189.76,240.3Zm-3.28,22.25c.13.09.52-.07.4-.24S186.36,262.38,186.48,262.55Zm1.53-7.94c.05.16.52-.07.4-.23S187.89,254.45,188,254.61Zm-.4,2.71c.06.08.53-.14.41-.3S187.5,257.09,187.61,257.32Zm1.43-9.7c0,.22.3.49.36.06C189.42,247.54,189.09,247.27,189,247.62Zm-.28,4.41c.06.08.52-.07.34-.32C189,251.63,188.56,251.85,188.76,252Zm-1.42,9.62c.06.08.52-.07.33-.24S187.15,261.48,187.34,261.65Zm1.57-6.18c.53-.14.06-.42,0,0C187.6,254.92,188.69,256.46,188.91,255.47Zm.23-4c.13.09.53-.14.41-.31S189,251.19,189.14,251.43Zm-.24,1.64c.13.09.52-.07.4-.31C189.24,252.68,188.77,252.9,188.9,253.07Zm.47,1.74c0,.16.52-.07.32-.24S189.17,254.64,189.37,254.81Zm-.26,3.75c.13.09.53-.14.41-.3S189,258.33,189.11,258.56Z"/><path d="M230.22,233.66c.48.14,1.05.74,1.89,1,1.32.42,2.24.11,2.28.34.41.64-1.77,12-2,13.62-.27,1.85-.61,4.13-1,6.63-.28,1.85-1,5.6-.58,6.4.36.49,2.75.62,3.2,1.49.51,1-.14,6.39-1.07,7.27-.76.69-3.26-.12-3.9.81a3.3,3.3,0,0,0,0,2.33c1,1.31,3,.37,3.54,1.25.23.4-.44,8.9-1.71,9.59-.87.45-10.12-1.5-11.69-1.73s-10.24-.7-11.21-2c-.49-.66.39-8.61,1.36-9.27s3.15.9,4,.23a3.7,3.7,0,0,0,.44-3c-.54-.81-6.81-1.73-8.89-2-2.29-.26-5.72-.26-8-.82-3.64-1-2.64-1.34-1.85-5.73.36-1.92.34-4.25.79-5.35s1.75-2,2.76-2.94c.6-.57,1.11-1.08,1.61-1.52.75-.61,1.19-1.13,1.93-1.75.33-.25.4-.67.91-1.18s1-.65,1.48-1.17c.25-.25.21-.4.45-.58.58-.5,1.55-1.6,2.4-2.42,1.27-1.2,2.5-2.18,3.93-3.5.18-.19.57-.35.74-.55.42-.37.75-1.12,1.24-1.49.26-.25.85-.31,1.09-.49a18.68,18.68,0,0,1,2-2.12,6.78,6.78,0,0,1,.76-.25l2.62-1.94c1.21-.26,4.46.36,5.4.43A20,20,0,0,1,230.22,233.66Zm-22.68,24.85c.05.15,1.14.17,1.29.19.83.27,5.84,1.37,6.34.93s.6-4.06.74-5c.3-2.07.52-3.56.73-5,0-.22-.23-.4-.6-.38-1.16,1.94-2.34,2.57-4.44,4.45C210.94,254.27,206.9,257.47,207.54,258.51Zm4.39-13.92c.13.09.52-.07.4-.31C212.27,244.2,211.81,244.35,211.93,244.59Zm1.55-1.16c.06.08.81,0,.69-.26C214.11,243.09,213.36,243.27,213.48,243.43Zm1.15-.85c0,.21.3.41.35,0C215,242.49,214.68,242.22,214.63,242.58Zm.84-1.26c.12.16.52-.07.39-.23S215.34,241.15,215.47,241.32Zm-.5,3.35c.13.09.52-.07.41-.3S214.85,244.51,215,244.67Zm1.45-.44c-.29-.48-.11-1.7-.44-1.45-.16.12-.72,1.42.44,1.45C216.56,244.76,216.86,244.22,216.42,244.23Zm-.5.94c.13.1.52-.07.41-.3S215.81,244.94,215.92,245.17ZM214.53,264c.06.08.52-.07.41-.3S214.35,263.74,214.53,264Zm3.74-22.9c.06.08.52-.07.34-.32C218.55,240.68,218.08,240.9,218.27,241.08Zm.21,5.49s-.11.27,0,.29c-.23,0-1.31-.05-1.05.2C217.68,247.55,219.6,246.88,218.48,246.57Zm-.17-3.81c-.17.19-.1.71.31.41C218.78,243.05,218.71,242.52,218.31,242.76Zm.66,2.5c-.13-1.11-.74-.47-1.06.21.56.15.63-.28,1.06-.21C218.89,246.27,220.43,245.18,219,245.26Zm-.45-1.45c-.53.14-.06.43,0,0,.28.11.3,0,.4-.24,1.31.49.15-1,0,0A.27.27,0,0,0,218.52,243.81Zm-.69,4.7c.06.09.53-.14.41-.3S217.65,248.27,217.83,248.51Zm-1.71,16.07c.53-.14.06-.43,0,0C215.6,264.65,216.14,265,216.12,264.58Zm-1.37,9.27c.07.08.88,0,.77-.25S214.63,273.68,214.75,273.85Zm4.6-31.23c.91.28.69-.7,1.15-.85.15-.05,1,.88,1.05-.21-.56-.16-1.69.11-1.19-.83,1.42.28.27-1.35,0,0C219.68,240.92,219.43,241.61,219.35,242.62Zm.12,1.69c.06.08.52-.07.41-.3S219.28,244.14,219.47,244.31Zm-.59,4c.06.09.52-.06.41-.3C219.16,247.91,218.69,248.13,218.88,248.3Zm.6-1.58c.06.08.52-.07.34-.32C219.75,246.32,219.3,246.47,219.48,246.72Zm2.76-7.39c-.72,0-.88-.42-1.3-.56-.64.86,1.29,1.14,1.3.56C222.77,239.19,222.23,238.89,222.24,239.33Zm-2,4.08c.06.08.52-.07.41-.31C220.61,243,220.14,243.24,220.26,243.41Zm-.2,1.35c.06.08.52-.07.41-.3S220,244.53,220.06,244.76Zm-.44,3c.06.08.52-.07.41-.31C220,247.37,219.51,247.52,219.62,247.76Zm-1.27,8.62c.06.09.52-.07.41-.3C218.69,256,218.22,256.22,218.35,256.38Zm-1,7c.06.08.52-.07.41-.3S217.21,263.14,217.32,263.37Zm-.5,3.35c0,.15.31.41.36,0C217.21,266.56,216.89,266.3,216.82,266.72Zm3-17.91c.53-.14,0-.44,0,0C219.29,249,219.77,249.16,219.83,248.81Zm1.56-10.63c.06.09.53-.14.34-.31S221.21,237.94,221.39,238.18Zm-2.19,14.91c.05.15.52-.07.32-.25S219,252.91,219.2,253.09Zm-1.29,8.69c.07.09.54-.14.34-.31S217.73,261.54,217.91,261.78Zm-.53,3.64c-.34.82.55.74.85,1.15C218.58,265.67,217.61,265.82,217.38,265.42Zm1.81-10.3c-.08-.44-.37,0,0,0C219.33,255.65,219.61,255.19,219.19,255.12Zm-2.5,17c1.12-.19-.1-1.83,0,0C216.23,272.24,216.7,272.53,216.69,272.09Zm1.8-12.26c.14.09.61-.13.41-.31S218.38,259.6,218.49,259.83Zm2.86-16.92c0,.07-.16.56-.09.65C222.23,244.86,222,241.18,221.35,242.91Zm-.29,2c.06.08.52-.07.4-.3S220.94,244.68,221.06,244.91Zm-.39,2.64c.06.08.52-.07.41-.31C221,247.16,220.54,247.38,220.67,247.55Zm-2,13.62c.05.15.52-.07.4-.24S218.54,261,218.66,261.17Zm.75-2.59c-.25.18-.1.64.23.4S219.82,258.28,219.41,258.58Zm-1.57,10.62c-.24.19-.1.72.23.4S218.25,268.9,217.84,269.2Zm1-7c0,.15.52-.07.33-.25S218.68,262,218.87,262.22Zm2.4-16.26c0,.14.23.4.28,0C221.58,245.79,221.33,245.53,221.27,246Zm-3.77,25.6c0,.14.23.4.28,0S217.56,271.13,217.5,271.56Zm3.67-20.51c-1.3-.56-.22,1,0,0,.44,0,.46-.66.11-.72.61-1.66-.95-.5,0,0C221.23,250.62,221.2,250.83,221.17,251.05Zm1-9c.13.09.59-.06.41-.3S222,241.78,222.14,242Zm-1.51,10.27c.12.16.59-.06.4-.24S220.5,252.11,220.63,252.28Zm-1.92,13c.14.1.6-.06.4-.23S218.59,265.09,218.71,265.25Zm-.19,1.36c0,.14.45.87.61.74S218.71,265.25,218.52,266.61Zm-.93,6.27c.61.31,2.13-.12,1.61,1-1.73-.62-.58.93,0,0,.89-.09,1.31,0,1.39-.53-.05.29-.91-.79-.91-.79.62.24-1.86.75-1.23-.54,1.3.56.22-1,0,0A3.3,3.3,0,0,0,217.59,272.88Zm1.78-9.57c0,.15.52-.07.39-.23S219.24,263.15,219.37,263.31Zm-1.86,12.62c-.11.2,0,.73.25.76S218.17,274.86,217.51,275.93Zm3.33-22.6a1.76,1.76,0,0,0,.39,1.8C221.42,254.29,221.54,253.5,220.84,253.33Zm.73-5c0,.21.29.48.36,0C222,248.25,221.62,248,221.57,248.34Zm1.52-7.86,0,.28c-.79.9,1.37.57,1.28.19C224.38,241.1,222.88,240.44,223.09,240.48Zm-.53,3.63c.06.08.52-.07.34-.31C222.83,243.72,222.38,243.87,222.56,244.11Zm-.19,1.28c0,.16.52-.06.33-.24S222.18,245.22,222.37,245.39Zm-.2,1.36c.06.08.52-.07.34-.31C222.44,246.35,222,246.58,222.17,246.75ZM218.75,270c.05.16.52-.07.32-.24S218.55,269.82,218.75,270Zm-.15,1c.05.15.52-.07.33-.24S218.4,270.82,218.6,271Zm2.65-13.52c-.19-.69.8-.54.78-.91C222.06,255.91,220.17,256.36,221.25,257.47Zm-1.59,8.29c-.16.12-.09.64.3.4S220.07,265.45,219.66,265.76Zm-.39,2.63c.13.1.59-.05.41-.3C219.62,268,219.15,268.23,219.27,268.39Zm3.09-21c0,.44.4.28.71.11C223.11,247.25,222.55,247.1,222.36,247.43Zm2.93-8c0,.58-2.39-.13-1.15.86C224.16,239.69,226.53,240.4,225.29,239.41ZM223,245.49c.05.15.52-.07.4-.23S222.89,245.33,223,245.49Zm-.73,5c.05.15.52-.07.39-.23S222.15,250.32,222.28,250.48Zm-1.38,9.34c.06.08.52-.07.41-.3S220.78,259.66,220.9,259.82Zm.74-5a.32.32,0,0,0,.64.09C221.92,254.87,221.85,254.35,221.64,254.83Zm.12,8.54c-.56,1.3,1,.22,0,0,0-.44-.6-.38-.94-.5-.14-.53-.43-.07,0,0C220.55,264.14,221.08,263.05,221.76,263.37Zm.62-11.13c-.78,1.86.6,1.84,1.19.83C222.68,253.16,223,252.34,222.38,252.24Zm-.88,6c-.24.11-.1.64.24.33C222,258.45,221.91,257.93,221.5,258.23Zm-1,7c.06.08.53-.14.34-.32S220.29,265,220.47,265.22Zm-.68,4.63c.06.09.52-.07.33-.31C220.06,269.46,219.6,269.61,219.79,269.85Zm-.19,1.29c.05.15.52-.07.32-.25S219.4,271,219.6,271.14Zm3.05-9.39c.37.5,1.15.61,1.4-.08l-1.35-.2.1-.71c-.87-.5-2.36.23-1.5.79.2-.4.9-.15,1.4-.08A2.74,2.74,0,0,1,222.65,261.75Zm-2.57,6.11c.06.08.82-.1.7-.26S220,267.69,220.08,267.86Zm3.58-24.31c0,.21.22.47.29,0C224,243.44,223.71,243.19,223.66,243.55Zm-.49,3.35c.69.24.71-.41.79-.91,1.06.67,1.65,1.63,1.35.2,0,.23-.28.4-.41.31s.28-.91.15-1c-.47-.29-1,.22-1.09.49A3,3,0,0,0,223.17,246.9Zm-4.36,29.58c.55.23.68-.19.74-.54.53-.14.06-.43,0,0C219,275.71,218.87,276.06,218.81,276.48ZM225,238.72c.06.08.53-.14.41-.3S224.92,238.48,225,238.72Zm-4.21,28.59c.06.08.88-.09.69-.26S220.7,267.08,220.82,267.31Zm3.9-17.12c.42.13.58,0,.7-.27-.12.28.15-.56-.21-1,.18.25-.56.36-.7.26-.4-.2-.84-1.72-.94-.5.35.56,1.29.63,1.15,1.56C224.19,250.33,224.66,250.61,224.72,250.19Zm-2,4.43c0,.21.29.48.35,0C223.06,254.53,222.74,254.26,222.69,254.62Zm-1.14,7.7c.59.45,2.51.81,2.35.35C223.84,262.58,222.05,261.88,221.55,262.32Zm3-17.63c.05.15.52-.07.33-.24S224.32,244.52,224.51,244.69ZM222.4,259c.06.08.52-.07.34-.31C222.68,258.63,222.21,258.85,222.4,259Zm-.88,6c.06.08.81-.1.69-.26S221.4,264.85,221.52,265Zm1.32-9c-.21.91,1,1.32,1.19.83C224.12,256.73,223,255.1,222.84,256Zm1.91-13c0,.21.24.4.29,0C225.06,243,224.81,242.69,224.75,243.05Zm-3.91,26.59a.32.32,0,0,0,.64.1C221.11,269.76,221.05,269.17,220.84,269.64ZM219.75,277c0,.14.24.4.29,0C220.07,276.82,219.82,276.56,219.75,277Zm2.84-17.29c-.1.72,1.07.16.76-.18S222.61,259.56,222.59,259.7Zm-1,9.4c.06.08.52-.07.41-.31S221.46,268.86,221.57,269.1Zm-.48,3.28c0,.15.52-.07.4-.24S221,272.21,221.09,272.38Zm-.84,5.7c.06.08.53-.14.41-.3S220.14,277.85,220.25,278.08Zm4.41-29.94c-.1.71,1,.14.69-.27C225.23,247.71,224.68,248,224.66,248.14Zm.86,3.55c-1-.45-1.14.34-1.5.79C224.87,252.68,224.92,251.82,225.52,251.69Zm-3.75,16.05a.33.33,0,0,0,.64.1C222.05,267.86,222,267.27,221.77,267.74Zm-.18,8.13c-.53.15,0,.44,0,0,.54.3.81-1.48.2-1.35.59-.5.32-2.14-.45-1.38,1,.36-.46.66-.19,1.29l.64.09C221.72,275,221.66,275.45,221.59,275.87Zm.63-8.72c.06.09.52-.07.34-.31C222.5,266.76,222,266.91,222.22,267.15Zm3.63-24.59c-.29,1,.64,1,1.09,1.47C227.15,243.11,226.13,243.11,225.85,242.56Zm.38-2.64c.65.09.06,1.1.86,1.14C227.66,240.13,226.74,239,226.23,239.92Zm-.54,5.67c0-.07,1.11.38,1,.43C227.62,245.37,225.7,245,225.69,245.59Zm-1.63,24.89c-.47-.21-1.34-1.72-1.9-.93.92.72.34,1.14,1.9.93C224.2,271,224.5,270.48,224.06,270.48Zm1-11.43c-.8-.48-1.66.92-.84,1.26C224.35,259.67,225.17,260,225.09,259.05Zm2.34-20.34c-.14-.53-.43-.06,0,0C227.57,239.24,227.8,238.69,227.43,238.71Zm-1.76,12c.06.08.53-.14.34-.32S225.49,250.44,225.67,250.69Zm-2.21,15c.06.08.53-.14.34-.31S223.28,265.41,223.46,265.66Zm-.24,1.64c.06.08.52-.07.34-.31S223,267.05,223.22,267.3Zm-.15,1c.06.08.52-.07.34-.32C223.35,267.9,222.89,268.05,223.07,268.3Zm-1.56,10.62c.06.08.52-.07.34-.31C221.79,278.53,221.32,278.75,221.51,278.92Zm3.82-26c0,.21.22.47.29,0C225.64,252.87,225.39,252.61,225.33,253Zm1.8-10.22c.13.09.52-.07.41-.31C227.48,242.36,227,242.51,227.13,242.75Zm-.59,4c.13.09.52-.07.41-.31C226.89,246.35,226.43,246.5,226.54,246.74Zm-.19,1.28c.12.16.52-.07.4-.23S226.23,247.86,226.35,248Zm.49-3.28c.13.09.88-.09.76-.25S226.71,244.58,226.84,244.74Zm-1.72,11.62c0,.16,1.15.61,1,.15C226.14,256.37,225,255.91,225.12,256.36Zm-.23,8.49c0,.37-.74.62-.14,1,.36-2,2-.87,2.64-1.65a5.32,5.32,0,0,0-2.63-.39C223.64,263.5,224.94,264.06,224.89,264.85Zm1.71-16.06c.06.08.52-.07.41-.31C226.88,248.39,226.49,248.55,226.6,248.79Zm-1.86,12.62c-.18.77-.31,1.63.41,1.73C226.66,261.25,225.53,263,224.74,261.41Zm2.65-18c.06.08.88,0,.7-.26C228,243.1,227.27,243.27,227.39,243.44Zm-2,16.38c-.07,0,0,.28,0,.28a6.84,6.84,0,0,0-.46.66C225.13,261.24,226.52,259.77,225.34,259.82Zm1.08-5.31c.55-1.3-1-.21,0,0C226.56,255,226.84,254.58,226.42,254.51Zm-2.94,17.93c-.23.11-.09.64.25.33C224,272.65,223.89,272.13,223.48,272.44Zm3.83-25.95c.06.08.52-.07.33-.32C227.58,246.09,227.11,246.31,227.31,246.49Zm-.2,1.35c.06.08.52-.07.33-.31C227.39,247.44,226.93,247.6,227.11,247.84Zm-3.81,25.88c0,.15.52-.07.32-.24S223.1,273.55,223.3,273.72Zm.77-5.27c-.2.4,0,1.31.19.68C224.47,268.72,224.31,267.83,224.07,268.45Zm-1,7c.06.08.82-.09.7-.26S222.92,275.27,223,275.43Zm3.87-24.27c-.08-.45-.37,0,0,0C227.05,251.69,227.34,251.23,226.91,251.16Zm-2.35,16c0,.22.3.41.35.06C224.94,267,224.61,266.78,224.56,267.13Zm-.67,9.45c-.07,0,0,.28,0,.28s-.69.26-.46.66S225.05,276.68,223.89,276.58Zm2.64-20.37c.05.15.52-.07.4-.24S226.41,256,226.53,256.21Zm-2.19,17.37c1.65.61.5-.94,0,0C223.33,273.51,224.42,275,224.34,273.58Zm4.25-31.35c0,.16.88,0,.68-.19S228.47,242.07,228.59,242.23Zm-2.41,16.33c.07.08.88,0,.7-.26S226.06,258.4,226.18,258.56Zm1.38-9.34c-.12.34.16.9.3.41S227.7,248.73,227.56,249.22Zm-.23,4c-.15-.46-.44,0,0,0C227.47,253.8,227.69,253.32,227.33,253.26ZM228,251c.57-1.37-1-.21,0,0C228.1,251.48,228.39,251,228,251Zm.65-6.38c.06.08.52-.07.34-.32C228.88,244.24,228.41,244.46,228.6,244.64Zm-.15,1c.06.08.52-.07.34-.32C228.73,245.24,228.26,245.46,228.45,245.64ZM224,276.22c.06.08.52-.07.33-.31C224.23,275.83,223.75,276.05,224,276.22Zm1.41-9.62c-.1.71,1,.14.7-.27C225.94,266.17,225.39,266.45,225.36,266.6Zm-.38,2.63c0,.22.23.4.28,0C225.28,269.13,225,268.88,225,269.23Zm3.32-20.56c.13.09.52-.07.4-.3S228.18,248.51,228.3,248.67ZM225.45,268c.13.1.53-.14.41-.3S225.34,267.76,225.45,268ZM229,246.37c.05.15.52-.07.4-.23S228.88,246.21,229,246.37Zm-1,9.39c.06.09.52-.07.34-.31C228.26,255.37,227.79,255.59,228,255.76Zm-1.56,10.63c.06.08.52-.07.32-.25S226.22,266.21,226.42,266.39Zm-.5,3.35c.06.08.52-.07.34-.32C226.2,269.34,225.74,269.49,225.92,269.74ZM224.7,278c.05.15.52-.07.33-.24S224.51,277.84,224.7,278Zm2.69-18.25c.06.08.82-.1.7-.27S227.27,259.59,227.39,259.76Zm-1.12,7.63c0,.21.23.39.28,0C226.57,267.28,226.32,267,226.27,267.39Zm-1.33,9c0,.21.24.4.29,0S225,276,224.94,276.37Zm4-25.2c.13.09.53-.14.41-.3S228.84,250.94,229,251.17Zm-3,20.61c.14.09.52-.07.41-.31C226.26,271.39,225.8,271.54,225.91,271.78Zm.27,5.13c.13.1.53-.14.4-.3S226.07,276.68,226.18,276.91Zm-.3,2c.13.09.89-.09.77-.25S225.76,278.75,225.88,278.91Zm1.62-11c0,.14.3.41.36.05S227.55,267.57,227.5,267.93Zm.17,1.34c.05.15.52-.07.4-.24S227.54,269.1,227.67,269.27Z"/></g></g></svg>