<?xml version="1.0" encoding="utf-8"?>
<!-- Generator: Adobe Illustrator 23.0.2, SVG Export Plug-In . SVG Version: 6.00 Build 0)  -->
<svg version="1.1" id="Capa_1" xmlns="http://www.w3.org/2000/svg" xmlns:xlink="http://www.w3.org/1999/xlink" x="0px" y="0px"
	 viewBox="0 0 425.2 425.2" style="enable-background:new 0 0 425.2 425.2;" xml:space="preserve">
<style type="text/css">
	.st0{fill:#FFFFFF;}
</style>
<path class="st0" d="M230.2,100.1C226,93,219.5,89,212.6,89c-6.9,0-13.3,4.1-17.6,11.1L92.8,267.9c-4.3,7.1-4.9,14.6-1.5,20.6
	c3.3,6,10,9.4,18.4,9.4h205.8c8.3,0,15-3.4,18.4-9.4c3.3-5.9,2.8-13.4-1.6-20.6L230.2,100.1z M315.6,280H109.8
	c-1.4,0-2.3-0.2-2.8-0.4c0.1-0.4,0.4-1.3,1.1-2.5l102.1-167.7c1.2-1.9,2.2-2.5,2.4-2.5c0.2,0,1.2,0.6,2.4,2.5l102.2,167.7
	c0.7,1.1,1,2,1.1,2.5C317.9,279.8,317,280,315.6,280z"/>
<rect x="194" y="240.3" class="st0" width="33.3" height="31.5"/>
<polygon class="st0" points="221.6,232.2 199.8,232.2 190.6,154.2 231.4,154.2 "/>
</svg>
