<svg xmlns="http://www.w3.org/2000/svg" viewBox="0 0 58.36 49.37"><defs><style>.cls-1{fill:#e2514c;}</style></defs><title>alert</title><g id="Layer_2" data-name="Layer 2"><g id="Layer_1-2" data-name="Layer 1"><path class="cls-1" d="M33.34,2.62A4.9,4.9,0,0,0,29.18,0,5,5,0,0,0,25,2.62L.87,42.28a4.75,4.75,0,0,0-.35,4.87,4.7,4.7,0,0,0,4.35,2.22H53.5a4.4,4.4,0,0,0,4-7.09ZM53.53,45.14H4.89a1.76,1.76,0,0,1-.66-.1,2.26,2.26,0,0,1,.26-.59L28.62,4.82c.28-.45.52-.59.56-.59s.29.14.57.59L53.91,44.45a2.27,2.27,0,0,1,.26.59A1.56,1.56,0,0,1,53.53,45.14Z"/><rect class="cls-1" x="24.79" y="35.76" width="7.87" height="7.44"/><polygon class="cls-1" points="31.31 33.84 26.16 33.84 23.99 15.41 33.63 15.41 31.31 33.84"/></g></g></svg>