<svg xmlns="http://www.w3.org/2000/svg" viewBox="0 0 67.79 83.74"><defs><style>.cls-1{fill:#d0c8db;}.cls-2{fill:#eae4f4;}.cls-3{fill:#b9accc;}</style></defs><title>desk-chair</title><g id="Layer_2" data-name="Layer 2"><g id="Layer_1-2" data-name="Layer 1"><g id="Layer_1-2-2" data-name="Layer 1-2"><g id="Layer_1-2-3" data-name="Layer 1-2"><path class="cls-1" d="M25.37,45.69H12c-6.68,0-12-4.77-12-10.64V17.59C0,11.73,5.32,7,12,7H25.37c6.68,0,8.45,2.45,8.45,8.45V38.19C33.82,44.05,32.05,45.69,25.37,45.69Z"/><path class="cls-1" d="M52.92,64.51l.92-17.61H11.7l.3,6L18.82,64.1c3.82,6.14,5.32,11.19,3.14,14.73l-3.68,4.91H60.69Z"/><path class="cls-2" d="M61,49.92v6.14c0,8.86-11.46,16.09-21.69,16.09S20.73,64.92,20.73,56.06V49.92Z"/><rect class="cls-1" x="20.59" y="52.78" width="40.37" height="2.73"/><path class="cls-2" d="M32.46,45.69H19.09c-6.68,0-12-4.77-12-10.64V17.59C7.09,11.73,12.41,7,19.09,7H32.46c6.68,0,8.46,2.45,8.46,8.45V38.19C40.92,44.05,39.14,45.69,32.46,45.69Z"/><path class="cls-3" d="M10,22.78c0,12.68,8.18,22.77,18.14,22.77S46.24,35.33,46.24,22.78,38.05,0,28.1,0,10,10.23,10,22.78Z"/><path class="cls-1" d="M13.37,22.78c0,12.68,8.18,22.77,18.14,22.77S49.65,35.33,49.65,22.78,41.46,0,31.51,0,13.37,10.23,13.37,22.78Z"/><path class="cls-2" d="M10.09,45.69H47.33l-1.64,7.09H10.23a3.56,3.56,0,0,1-.55-7.09Z"/><path class="cls-2" d="M64.1,45.69h.41A3.56,3.56,0,0,1,64,52.78H28.5l-1.64-7.09Z"/></g></g></g></g></svg>