<svg xmlns="http://www.w3.org/2000/svg" viewBox="0 0 23.37 23.41"><defs><style>.cls-1{fill:#f4f4f4;}</style></defs><title>edit-pencil</title><g id="Layer_2" data-name="Layer 2"><g id="Layer_1-2" data-name="Layer 1"><path class="cls-1" d="M20.11,8.76v1.62q0,4.86,0,9.72A3.21,3.21,0,0,1,18.43,23a3.16,3.16,0,0,1-1.7.45c-4.45,0-8.91,0-13.36,0A3.26,3.26,0,0,1,0,20.05Q0,13.3,0,6.56A3.2,3.2,0,0,1,3.18,3.31c3.76,0,7.53,0,11.3,0l.12,0c-.44.46-.87.92-1.32,1.36a.55.55,0,0,1-.35.07H3.45a1.84,1.84,0,0,0-2,2V20a1.81,1.81,0,0,0,1.93,1.94h13.3A1.84,1.84,0,0,0,18.63,20V13.33c0-1,0-1.93,0-2.9a.63.63,0,0,1,.21-.52c.4-.38.78-.78,1.17-1.17Z"/><path class="cls-1" d="M7.51,15.89c.14-.68.26-1.31.37-1.93.17-.87.33-1.74.5-2.6a.76.76,0,0,1,.2-.41l9-9,.07-.05,3.86,3.89c-.58.55-1.2,1.14-1.8,1.74-1.53,1.54-3.05,3.09-4.58,4.62-.86.87-1.73,1.72-2.59,2.58a.59.59,0,0,1-.29.18Zm4.37-1.79L9.29,11.63l-.66,3.11Z"/><path class="cls-1" d="M22.1,5.21,18.3,1.29a13,13,0,0,1,1-1A1.26,1.26,0,0,1,21,.37l2.05,2a1.36,1.36,0,0,1,0,1.89Z"/></g></g></svg>