<?xml version="1.0" encoding="utf-8"?>
<!-- Generator: Adobe Illustrator 23.0.2, SVG Export Plug-In . SVG Version: 6.00 Build 0)  -->
<svg version="1.1" id="Layer_1" xmlns="http://www.w3.org/2000/svg" xmlns:xlink="http://www.w3.org/1999/xlink" x="0px" y="0px"
	 viewBox="0 0 958.6 978.3" style="enable-background:new 0 0 958.6 978.3;" xml:space="preserve">
<style type="text/css">
	.st0{fill:#614F3D;}
	.st1{fill:#969696;}
	.st2{fill:#C1C1C1;}
	.st3{opacity:0.3;fill:#6E6E6E;enable-background:new    ;}
	.st4{fill:#C89E71;}
	.st5{fill:#6E6E6E;}
	.st6{fill:#BC9264;}
	.st7{opacity:0.2;fill:#8E8E8E;enable-background:new    ;}
	.st8{fill:#2c2c2c;}
</style>
<title>empty_1</title>
<g>
	<g>
		<g id="paper">
			<path class="st0" d="M831.8,832.5c0,80.5-20,145.8-44.6,145.8s-44.6-65.3-44.6-145.8s19.9-145.7,44.6-145.7
				S831.8,751.9,831.8,832.5z"/>
			<path class="st1" d="M718.5,178.4c0,12.3-1.3,24.5-3.8,36.5C697.3,297.7,624.3,357,539.8,357c-42.9,0.1-84.3-15.4-116.6-43.6
				c-1.9-1.7-3.8-3.4-5.6-5.2c-15.6-14.8-28.4-32.3-37.7-51.7c-6.8-13.1-11.7-27.1-14.6-41.6c-2.6-12-3.8-24.3-3.8-36.5
				c0-12.2,1.2-24.3,3.5-36.3c3.1-14.5,8-28.5,14.6-41.7C422.7,11.7,529.7-25.2,618.4,18C668,42.2,703.7,88,715,142.1
				C717.3,154.1,718.5,166.2,718.5,178.4z"/>
			<path class="st2" d="M933.2,196.4c-24.7-34.6-64.6-55.1-107.1-55H132.5C59.6,141.4,0,200.7,0,273.6v378.1c-0.1,7.7,0.6,15.4,2,23
				c5.2,29.2,20.2,55.9,42.5,75.5l0,0c24.1,21.8,55.4,33.9,87.9,33.9H826c8.2,0,16.4-0.8,24.5-2.3l0,0c11.5-2,22.6-5.8,33-11.2
				c0,0,0,0,0.1,0c32.9-15.6,57.8-44.2,68.7-79c0.1-0.2,0.1-0.4,0.2-0.6c4.1-12.7,6.1-25.9,6-39.2V273.6
				C958.7,245.8,949.8,218.7,933.2,196.4z M890.7,651.8c-0.2,26.2-16,49.7-40.1,59.9l0,0c-7.8,3.1-16.1,4.7-24.5,4.7H132.5
				c-34.1,0-62.3-26.3-64.8-60.3c-0.1-1.4-0.2-2.9-0.2-4.3V273.6c0-35.7,29.3-64.6,64.9-64.6H826c14.1-0.1,27.8,4.5,39,13
				c16.2,12.2,25.7,31.3,25.7,51.6L890.7,651.8z"/>
			<path class="st3" d="M209.3,716.4v67.8h588.5c0,0-23.7-7.5-19.6-41.6c1.4-11.5,6.9-26.2,6.9-26.2L209.3,716.4z"/>
			<path class="st4" d="M216.7,832.5c0,80.5-20,145.8-44.6,145.8s-44.6-65.3-44.6-145.8s19.9-145.7,44.6-145.7
				S216.7,751.9,216.7,832.5z"/>
			<path class="st5" d="M656.5,178.4c-0.3,49.5-40.3,89.7-89.8,90.1H411.3c-49.5-0.4-89.5-40.6-89.8-90.1
				c-0.1-14.6,3.6-29,10.6-41.8c4.1-8,9.4-15.3,15.8-21.6c16.8-16.8,39.6-26.3,63.4-26.4h155.4c33.3-0.1,63.9,18.4,79.2,48
				C653,149.3,656.6,163.7,656.5,178.4z"/>
			<path class="st2" d="M618.4,168.1c-0.3,43.9-35.7,79.4-79.6,79.9H401.1c-43.9-0.4-79.3-36-79.6-79.9c-0.1-13,3.2-25.7,9.4-37.1
				c3.6-7.1,8.3-13.6,14-19.2C359.8,97,380,88.6,401.1,88.5h137.7c29.5-0.1,56.6,16.3,70.2,42.6
				C615.3,142.4,618.5,155.2,618.4,168.1z"/>
			<rect x="172.1" y="686.8" class="st4" width="543.9" height="291.6"/>
			<path class="st6" d="M787.2,978.3H284.5c0.3,0,0.6,0,0.9,0c0.1-0.1,0.2-0.1,0.4-0.1c0.4-0.1,0.8-0.1,1.3-0.3
				c0.2-0.1,0.4-0.1,0.6-0.2c0.1,0,0.2,0,0.3-0.1c0.2-0.1,0.4-0.1,0.7-0.2c0.5-0.2,1.1-0.4,1.8-0.7s1.1-0.5,1.7-0.7s1.6-0.8,2.5-1.3
				c0.4-0.2,0.8-0.4,1.1-0.6c1.5-0.8,3.1-1.8,5-3c0.9-0.6,1.9-1.3,2.8-2c1.9-1.4,4.1-3,6.4-5c0.6-0.5,1.2-0.9,1.8-1.5
				c3.1-2.7,6.5-5.8,10.2-9.4l2.1-2.1c1.4-1.5,2.9-3,4.4-4.6c0.8-0.8,1.5-1.6,2.3-2.5s1.6-1.7,2.4-2.7c1.5-1.6,3-3.3,4.5-5
				c0.1-0.2,0.3-0.4,0.5-0.6c2.5-3,5.2-6.1,7.9-9.5c1.7-2.1,3.4-4.2,5.1-6.5c0.1-0.2,0.3-0.4,0.4-0.6c2.8-3.5,5.6-7.3,8.5-11.2
				c1.1-1.5,2.2-3.1,3.5-4.7c4.1-5.6,8.3-11.6,12.8-18.1c0.1-0.2,0.2-0.3,0.3-0.4c2.2-3.2,4.5-6.5,6.7-10c0-0.1,0.1-0.3,0.2-0.4
				c1.8-2.6,3.5-5.4,5.4-8.2c2.7-4.2,5.5-8.6,8.3-13.1c2.8-4.5,5.7-9.2,8.7-14.1l0,0c1.4-2.2,2.7-4.4,4-6.6l0,0h0.1
				c86.7-144.9,124.5-145.8,125.4-145.8h251.8c-24.7,0-44.5,65.2-44.5,145.7S762.5,978.2,787.2,978.3z"/>
			<path class="st7" d="M787.2,978.3H284.5c0.3,0,0.6,0,0.9,0c0.1-0.1,0.2-0.1,0.4-0.1c0.4-0.1,0.8-0.1,1.3-0.3
				c0.2-0.1,0.4-0.1,0.6-0.2c0.1,0,0.2,0,0.3-0.1c0.2-0.1,0.4-0.1,0.7-0.2c0.5-0.2,1.1-0.4,1.8-0.7s1.1-0.5,1.7-0.7s1.6-0.8,2.5-1.3
				c0.4-0.2,0.8-0.4,1.1-0.6c1.5-0.8,3.1-1.8,5-3c1-0.6,1.9-1.3,2.8-2c1.9-1.4,4.1-3,6.4-5c0.6-0.5,1.2-0.9,1.8-1.5
				c3.1-2.7,6.5-5.8,10.2-9.4l2.1-2.1c1.4-1.5,2.9-3,4.4-4.6c0.8-0.8,1.5-1.6,2.3-2.5s1.6-1.7,2.4-2.7c1.5-1.6,3-3.3,4.5-5
				c0.1-0.2,0.3-0.4,0.5-0.6c2.5-3,5.2-6.1,7.9-9.5c1.7-2.1,3.4-4.2,5.1-6.5c0.1-0.2,0.3-0.4,0.4-0.6c2.8-3.5,5.6-7.3,8.5-11.2
				c1.1-1.5,2.2-3.1,3.5-4.7c4.1-5.6,8.3-11.6,12.8-18.1c0.1-0.2,0.2-0.3,0.3-0.4c2.2-3.2,4.5-6.5,6.7-10c0-0.1,0.1-0.3,0.2-0.4
				c1.8-2.6,3.5-5.4,5.4-8.2c2.7-4.2,5.5-8.6,8.3-13.1c2.8-4.5,5.7-9.2,8.7-14.1l0,0c1.3-2.2,2.6-4.4,4-6.6l0,0l0,0h332.8
				C742.7,913,762.5,978.2,787.2,978.3z"/>
			<path class="st7" d="M409.8,832.5L409.8,832.5H127.5c0,80.5,19.9,145.8,44.6,145.8h112.4C286.8,978.3,324.3,975.3,409.8,832.5z"
				/>
		</g>
	</g>
</g>
<g>
	<path class="st8" d="M252.4,908.7c1.9-0.9,4.2-1.3,6.9-1.3l1.7,9.4c-1.1-0.1-1.9-0.1-2.3-0.1c-2.9,0-5,0.8-6.4,2.4
		c-1.4,1.6-1.8,4.1-1.2,7.3l2.9,16.5h-10.1l-6.2-35h9.7l0.8,4.6C249.1,910.8,250.5,909.6,252.4,908.7z"/>
	<path class="st8" d="M302.7,928.3h-26.5c0.9,2.2,2.3,3.9,4.3,5.1c2,1.3,4.3,1.9,7,1.9c1.8,0,3.4-0.3,4.7-0.8
		c1.3-0.5,2.5-1.4,3.5-2.6l6.4,5.9c-2.6,3.8-7.1,5.7-13.4,5.7c-3.9,0-7.6-0.8-10.9-2.3c-3.3-1.5-6-3.7-8.1-6.4
		c-2.1-2.7-3.5-5.8-4.1-9.3c-0.6-3.4-0.3-6.5,0.8-9.3c1.1-2.8,3-4.9,5.6-6.4s5.6-2.3,9.1-2.3c3.4,0,6.7,0.7,9.7,2.2
		c3,1.5,5.6,3.6,7.6,6.3c2.1,2.8,3.4,5.9,4.1,9.6C302.5,925.7,302.6,926.6,302.7,928.3z M277,917c-1.3,1.3-2,3.1-1.9,5.3h17.2
		c-0.7-2.2-2-4-3.8-5.3c-1.8-1.3-3.8-2-6.1-2C280.2,915.1,278.4,915.7,277,917z"/>
	<path class="st8" d="M315.4,942.3c-2.9-0.7-5.3-1.6-7.1-2.7l2.1-7.3c1.7,1,3.8,1.8,6.1,2.4c2.3,0.6,4.5,0.9,6.7,0.9
		c4.3,0,6.2-1.1,5.9-3.2c-0.2-1-0.9-1.7-2.1-2.1c-1.2-0.4-3.1-0.8-5.6-1.1c-2.9-0.4-5.4-0.9-7.3-1.5c-2-0.6-3.8-1.6-5.4-3
		c-1.6-1.4-2.7-3.5-3.1-6.1c-0.4-2.2-0.1-4.2,0.9-5.9c1-1.7,2.6-3,4.9-4c2.3-1,5.1-1.4,8.4-1.4c2.5,0,5,0.3,7.5,0.8
		c2.5,0.5,4.7,1.3,6.5,2.2l-2.1,7.2c-3.4-1.7-6.9-2.6-10.5-2.6c-2.2,0-3.7,0.3-4.7,0.9c-1,0.6-1.4,1.4-1.2,2.3
		c0.2,1.1,0.9,1.8,2.2,2.3c1.2,0.4,3.2,0.8,5.8,1.2c2.9,0.5,5.4,1,7.3,1.5c1.9,0.5,3.7,1.5,5.3,3c1.6,1.4,2.6,3.4,3.1,6
		c0.4,2.2,0.1,4.1-0.9,5.8s-2.7,3-5,3.9c-2.3,0.9-5.2,1.4-8.6,1.4C321.2,943.4,318.3,943,315.4,942.3z"/>
	<path class="st8" d="M375.9,907.9l6.2,35h-9.6l-0.7-4.2c-1.1,1.5-2.5,2.7-4.2,3.5c-1.7,0.8-3.7,1.2-5.8,1.2c-4.6,0-8.5-1.3-11.6-4
		c-3.2-2.6-5.2-6.6-6.1-11.8l-3.5-19.8h10.1l3.2,18.3c1,5.6,3.9,8.5,8.6,8.5c2.4,0,4.2-0.8,5.4-2.4c1.2-1.6,1.5-3.9,1-7.1l-3-17.3
		H375.9z"/>
	<path class="st8" d="M382.9,894.6h10.1l8.5,48.2h-10.1L382.9,894.6z"/>
	<path class="st8" d="M435.8,941.2c-0.9,0.7-2,1.3-3.4,1.7c-1.4,0.4-2.9,0.6-4.5,0.6c-4.2,0-7.6-1.1-10.2-3.2
		c-2.6-2.1-4.3-5.2-5.1-9.4l-2.5-14.4h-5.4l-1.4-7.8h5.4l-1.5-8.5h10.1l1.5,8.5h8.7l1.4,7.8h-8.7l2.5,14.2c0.3,1.5,0.8,2.6,1.7,3.4
		c0.9,0.8,2,1.2,3.4,1.2c1.6,0,2.9-0.4,3.9-1.3L435.8,941.2z"/>
	<path class="st8" d="M445,942.3c-2.9-0.7-5.3-1.6-7.1-2.7l2.1-7.3c1.7,1,3.8,1.8,6.1,2.4c2.3,0.6,4.5,0.9,6.7,0.9
		c4.3,0,6.2-1.1,5.9-3.2c-0.2-1-0.9-1.7-2.1-2.1c-1.2-0.4-3.1-0.8-5.6-1.1c-2.9-0.4-5.4-0.9-7.3-1.5c-2-0.6-3.8-1.6-5.4-3
		c-1.6-1.4-2.7-3.5-3.1-6.1c-0.4-2.2-0.1-4.2,0.9-5.9c1-1.7,2.6-3,4.9-4c2.3-1,5.1-1.4,8.4-1.4c2.5,0,5,0.3,7.5,0.8
		c2.5,0.5,4.7,1.3,6.5,2.2l-2.1,7.2c-3.4-1.7-6.9-2.6-10.5-2.6c-2.2,0-3.7,0.3-4.7,0.9c-1,0.6-1.4,1.4-1.2,2.3
		c0.2,1.1,0.9,1.8,2.2,2.3c1.2,0.4,3.2,0.8,5.8,1.2c2.9,0.5,5.4,1,7.3,1.5c1.9,0.5,3.7,1.5,5.3,3c1.6,1.4,2.6,3.4,3.1,6
		c0.4,2.2,0.1,4.1-0.9,5.8s-2.7,3-5,3.9c-2.3,0.9-5.2,1.4-8.6,1.4C450.8,943.4,447.9,943,445,942.3z"/>
	<path class="st8" d="M475.4,941.6c-1.4-1.2-2.3-2.7-2.6-4.5c-0.3-1.9,0-3.4,1-4.5c1-1.1,2.4-1.7,4.2-1.7c1.8,0,3.4,0.6,4.8,1.7
		c1.4,1.1,2.3,2.7,2.6,4.5c0.3,1.8,0,3.3-1,4.5c-1,1.2-2.4,1.8-4.2,1.8C478.5,943.4,476.9,942.8,475.4,941.6z"/>
</g>
<g>
	<path class="st8" d="M240.6,774.9c-3.1-1-5.5-2.2-7.1-3.8l5.7-7.9c1.6,1.4,3.6,2.6,6,3.4c2.5,0.9,5,1.3,7.7,1.3c3,0,5.3-0.4,7-1.3
		c1.7-0.9,2.7-2.1,3.1-3.5c0.3-1.1,0.1-2-0.5-2.7c-0.7-0.7-1.6-1.3-2.8-1.7c-1.2-0.4-2.9-0.9-5-1.4c-3.2-0.8-5.9-1.6-7.9-2.5
		s-3.5-2.1-4.6-4c-1.1-1.8-1.2-4.2-0.4-7.3c0.7-2.6,2.1-5,4.1-7.2c2-2.1,4.6-3.8,7.8-5.1c3.2-1.3,6.9-1.9,11.1-1.9
		c2.9,0,5.6,0.3,8.2,1c2.6,0.7,4.7,1.7,6.5,3l-5.4,8c-3.6-2.4-7.4-3.6-11.7-3.6c-2.9,0-5.3,0.5-6.9,1.4c-1.7,1-2.7,2.2-3.1,3.8
		c-0.4,1.6,0.1,2.7,1.5,3.5c1.4,0.8,3.7,1.5,6.8,2.2c3.2,0.8,5.9,1.6,7.9,2.5s3.5,2.1,4.6,3.9c1.1,1.8,1.3,4.2,0.4,7.2
		c-0.7,2.6-2.1,5-4.1,7.1c-2,2.1-4.7,3.8-7.9,5.1c-3.2,1.3-6.9,1.9-11.1,1.9C247.1,776.4,243.7,775.9,240.6,774.9z"/>
	<path class="st8" d="M311.8,744c2.2,2.6,2.6,6.5,1.2,11.7l-5.3,20h-9.5l1.2-4.4c-2.8,3.3-6.8,4.9-12,4.9c-2.7,0-4.9-0.5-6.6-1.4
		c-1.7-0.9-2.9-2.2-3.5-3.8c-0.6-1.6-0.6-3.4-0.1-5.5c0.9-3.2,2.8-5.8,5.7-7.7c2.9-1.9,7-2.8,12.1-2.8h8.1c0.6-2.2,0.4-3.9-0.6-5.1
		c-1-1.2-2.9-1.8-5.6-1.8c-1.9,0-3.8,0.3-5.7,0.9c-2,0.6-3.7,1.4-5.2,2.4l-1.7-7.1c2.3-1.3,4.8-2.4,7.7-3.1c2.9-0.7,5.7-1.1,8.5-1.1
		C305.7,740.1,309.5,741.4,311.8,744z M296.6,768.1c1.6-0.8,2.8-2,3.8-3.5l1-3.6h-7c-4.2,0-6.6,1.4-7.3,4.1
		c-0.3,1.3-0.1,2.3,0.7,3.1c0.8,0.8,2.1,1.1,3.9,1.1C293.4,769.3,295.1,768.9,296.6,768.1z"/>
	<path class="st8" d="M365.7,727.4l-12.9,48.2h-9.7l1.1-4c-3.3,3-7.4,4.5-12.1,4.5c-3.3,0-6.1-0.7-8.3-2.2c-2.3-1.5-3.8-3.6-4.6-6.3
		c-0.8-2.7-0.7-5.9,0.3-9.5c1-3.6,2.6-6.8,4.8-9.5c2.2-2.7,4.9-4.8,8-6.3c3.1-1.5,6.2-2.2,9.5-2.2c4.5,0,7.6,1.4,9.3,4.2l4.5-17
		H365.7z M343.1,765.2c2.2-1.8,3.6-4.1,4.4-7.1c0.8-2.9,0.6-5.3-0.6-7.1c-1.2-1.8-3.1-2.6-5.7-2.6c-2.6,0-5,0.9-7.1,2.6
		s-3.6,4.1-4.4,7.1c-0.8,2.9-0.6,5.3,0.6,7.1c1.2,1.8,3.1,2.6,5.7,2.6C338.6,767.8,341,767,343.1,765.2z"/>
	<path class="st8" d="M375.1,727.4h10.1l-12.9,48.2h-10.1L375.1,727.4z"/>
	<path class="st8" d="M425.8,740.7l-25.7,37.1c-2.7,4-5.4,6.9-8.2,8.5s-5.9,2.5-9.2,2.5c-1.8,0-3.5-0.3-5.2-0.8
		c-1.6-0.6-2.9-1.3-3.7-2.3l5.6-7.2c0.6,0.7,1.3,1.2,2.3,1.6c0.9,0.4,1.9,0.6,2.9,0.6c1.4,0,2.6-0.3,3.6-1c1-0.7,2.1-1.8,3.2-3.3
		l0.2-0.3l-5.7-35.2h10.5l3.5,23.7l16.2-23.7H425.8z"/>
	<path class="st8" d="M429.7,765.3c0.9,1.1,1,2.7,0.5,4.5c-0.2,0.9-0.6,1.7-1,2.6c-0.5,0.9-1.3,2.2-2.5,3.9l-6.2,9.4h-6.4l5.6-10.3
		c-1-0.4-1.6-1.1-2-2.1c-0.4-1-0.4-2.1,0-3.4c0.5-1.9,1.5-3.4,3-4.5c1.5-1.1,3.2-1.7,5-1.7S428.8,764.1,429.7,765.3z"/>
	<path class="st8" d="M477,773.9c-1.2,0.7-2.6,1.3-4.1,1.7c-1.6,0.4-3.1,0.6-4.7,0.6c-4.2,0-7.1-1.1-8.8-3.2c-1.7-2.1-2-5.2-0.9-9.4
		l3.8-14.4h-5.4l2.1-7.8h5.4l2.3-8.5h10.1l-2.3,8.5h8.7l-2.1,7.8h-8.7l-3.8,14.2c-0.4,1.5-0.3,2.6,0.2,3.4c0.5,0.8,1.5,1.2,2.9,1.2
		c1.6,0,3.1-0.4,4.4-1.3L477,773.9z"/>
	<path class="st8" d="M522.4,744c2,2.6,2.3,6.5,0.9,11.6l-5.4,20h-10.1l4.9-18.5c0.7-2.8,0.7-4.8-0.2-6.2c-0.8-1.4-2.4-2-4.7-2
		c-2.6,0-4.8,0.8-6.7,2.4s-3.3,3.9-4.2,7.1l-4.6,17.3h-10.1l12.9-48.2h10.1l-4.5,16.9c1.7-1.3,3.6-2.4,5.7-3.1
		c2.1-0.7,4.3-1.1,6.5-1.1C517.3,740.1,520.5,741.4,522.4,744z"/>
	<path class="st8" d="M565.5,761h-26.5c-0.1,2.2,0.6,3.9,2,5.1c1.4,1.3,3.5,1.9,6.1,1.9c1.8,0,3.5-0.3,5.1-0.8
		c1.6-0.5,3.1-1.4,4.6-2.6l3.8,5.8c-4.3,3.8-9.6,5.7-15.9,5.7c-3.9,0-7.2-0.8-9.8-2.3c-2.6-1.5-4.4-3.7-5.3-6.4
		c-0.9-2.7-0.9-5.8,0-9.3c0.9-3.4,2.6-6.5,4.9-9.3c2.4-2.8,5.2-4.9,8.4-6.4c3.2-1.5,6.6-2.3,10.1-2.3c3.4,0,6.3,0.7,8.7,2.2
		c2.4,1.5,4,3.6,4.8,6.3c0.8,2.8,0.8,5.9-0.2,9.6C566.4,758.4,566.1,759.3,565.5,761z M544.8,749.8c-1.9,1.3-3.3,3.1-4.3,5.3h17.2
		c0.2-2.2-0.2-4-1.4-5.3s-2.9-2-5.2-2C548.8,747.8,546.7,748.5,544.8,749.8z"/>
	<path class="st8" d="M592.3,741.4c2.3-0.9,4.8-1.3,7.5-1.3l-2.5,9.4c-1.1-0.1-1.8-0.1-2.2-0.1c-2.9,0-5.4,0.8-7.5,2.4
		c-2.1,1.6-3.6,4.1-4.4,7.3l-4.4,16.5h-10.1l9.4-35h9.7l-1.2,4.6C588,743.6,590,742.3,592.3,741.4z"/>
	<path class="st8" d="M634,761h-26.5c-0.1,2.2,0.6,3.9,2,5.1c1.4,1.3,3.5,1.9,6.1,1.9c1.8,0,3.5-0.3,5.1-0.8
		c1.6-0.5,3.1-1.4,4.6-2.6l3.8,5.8c-4.3,3.8-9.6,5.7-15.9,5.7c-3.9,0-7.2-0.8-9.8-2.3c-2.6-1.5-4.4-3.7-5.3-6.4
		c-0.9-2.7-0.9-5.8,0-9.3c0.9-3.4,2.6-6.5,4.9-9.3c2.4-2.8,5.2-4.9,8.4-6.4c3.2-1.5,6.6-2.3,10.1-2.3c3.4,0,6.3,0.7,8.7,2.2
		c2.4,1.5,4,3.6,4.8,6.3c0.8,2.8,0.8,5.9-0.2,9.6C634.8,758.4,634.5,759.3,634,761z M613.2,749.8c-1.9,1.3-3.3,3.1-4.3,5.3h17.2
		c0.2-2.2-0.2-4-1.4-5.3c-1.2-1.3-2.9-2-5.2-2C617.2,747.8,615.1,748.5,613.2,749.8z"/>
</g>
<g>
	<path class="st8" d="M252.3,829c2.9,2.6,4.4,6.5,4.4,11.7v20h-9.5v-4.4c-1.9,3.3-5.5,4.9-10.7,4.9c-2.7,0-5-0.5-7-1.4
		c-2-0.9-3.5-2.2-4.5-3.8c-1-1.6-1.6-3.4-1.6-5.5c0-3.3,1.2-5.8,3.7-7.7c2.4-1.9,6.2-2.8,11.3-2.8h8.1c0-2.2-0.7-3.9-2-5.1
		c-1.3-1.2-3.4-1.8-6-1.8c-1.9,0-3.7,0.3-5.5,0.9c-1.8,0.6-3.3,1.4-4.6,2.4l-3.6-7.1c1.9-1.3,4.2-2.4,6.9-3.1
		c2.7-0.7,5.4-1.1,8.2-1.1C245.2,825.1,249.4,826.4,252.3,829z M243.7,853.1c1.3-0.8,2.3-2,2.9-3.5V846h-7c-4.2,0-6.2,1.4-6.2,4.1
		c0,1.3,0.5,2.3,1.5,3.1c1,0.8,2.4,1.1,4.2,1.1C240.8,854.3,242.3,853.9,243.7,853.1z"/>
	<path class="st8" d="M280.4,826.4c2.1-0.9,4.4-1.3,7.1-1.3v9.4c-1.1-0.1-1.9-0.1-2.3-0.1c-2.9,0-5.2,0.8-6.8,2.4
		c-1.6,1.6-2.5,4.1-2.5,7.3v16.5h-10.1v-35h9.7v4.6C276.7,828.6,278.4,827.3,280.4,826.4z"/>
	<path class="st8" d="M327.3,846h-26.5c0.5,2.2,1.6,3.9,3.4,5.1c1.8,1.3,4,1.9,6.6,1.9c1.8,0,3.4-0.3,4.8-0.8
		c1.4-0.5,2.7-1.4,3.9-2.6l5.4,5.9c-3.3,3.8-8.1,5.7-14.4,5.7c-3.9,0-7.4-0.8-10.5-2.3c-3-1.5-5.4-3.7-7-6.4
		c-1.6-2.7-2.5-5.8-2.5-9.3c0-3.4,0.8-6.5,2.4-9.3s3.9-4.9,6.7-6.4c2.8-1.5,6-2.3,9.5-2.3c3.4,0,6.5,0.7,9.3,2.2
		c2.8,1.5,5,3.6,6.5,6.3c1.6,2.8,2.4,5.9,2.4,9.6C327.5,843.4,327.4,844.3,327.3,846z M303.6,834.8c-1.6,1.3-2.5,3.1-2.9,5.3H318
		c-0.3-2.2-1.3-4-2.9-5.3c-1.6-1.3-3.5-2-5.7-2C307.1,832.8,305.2,833.5,303.6,834.8z"/>
	<path class="st8" d="M384.4,829c2.7,2.6,4,6.5,4,11.6v20h-10.1v-18.5c0-2.8-0.6-4.8-1.8-6.2c-1.2-1.4-3-2-5.3-2
		c-2.6,0-4.6,0.8-6.1,2.4c-1.5,1.6-2.3,3.9-2.3,7.1v17.3h-10.1v-35h9.7v4.1c1.3-1.5,3-2.6,5-3.4c2-0.8,4.2-1.2,6.6-1.2
		C378.3,825.1,381.8,826.4,384.4,829z"/>
	<path class="st8" d="M404.7,858.8c-2.9-1.5-5.2-3.7-6.9-6.4c-1.6-2.7-2.5-5.8-2.5-9.3c0-3.5,0.8-6.6,2.5-9.3
		c1.6-2.7,3.9-4.9,6.9-6.4c2.9-1.5,6.2-2.3,9.9-2.3c3.7,0,7,0.8,9.9,2.3c2.9,1.5,5.2,3.7,6.8,6.4c1.6,2.7,2.5,5.8,2.5,9.3
		c0,3.5-0.8,6.6-2.5,9.3c-1.6,2.7-3.9,4.9-6.8,6.4c-2.9,1.5-6.2,2.3-9.9,2.3C410.9,861.1,407.6,860.4,404.7,858.8z M421,850.2
		c1.7-1.8,2.5-4.1,2.5-7.1c0-2.9-0.8-5.3-2.5-7.1c-1.7-1.8-3.8-2.6-6.4-2.6c-2.6,0-4.7,0.9-6.4,2.6c-1.7,1.8-2.5,4.1-2.5,7.1
		c0,2.9,0.8,5.3,2.5,7.1c1.7,1.8,3.8,2.6,6.4,2.6C417.2,852.8,419.3,852,421,850.2z"/>
	<path class="st8" d="M462.2,860.1c-2.8-0.7-5-1.6-6.6-2.7l3.4-7.3c1.6,1,3.4,1.8,5.7,2.4c2.2,0.6,4.4,0.9,6.5,0.9
		c4.3,0,6.4-1.1,6.4-3.2c0-1-0.6-1.7-1.8-2.1c-1.2-0.4-3-0.8-5.4-1.1c-2.9-0.4-5.2-0.9-7.1-1.5c-1.9-0.6-3.5-1.6-4.8-3
		c-1.4-1.4-2-3.5-2-6.1c0-2.2,0.6-4.2,1.9-5.9c1.3-1.7,3.1-3,5.6-4c2.4-1,5.3-1.4,8.7-1.4c2.5,0,4.9,0.3,7.4,0.8
		c2.4,0.5,4.5,1.3,6.1,2.2l-3.4,7.2c-3.1-1.7-6.4-2.6-10.1-2.6c-2.2,0-3.8,0.3-4.9,0.9c-1.1,0.6-1.6,1.4-1.6,2.3
		c0,1.1,0.6,1.8,1.8,2.3c1.2,0.4,3,0.8,5.6,1.2c2.9,0.5,5.2,1,7,1.5c1.8,0.5,3.4,1.5,4.7,3c1.3,1.4,2,3.4,2,6c0,2.2-0.7,4.1-2,5.8
		c-1.3,1.7-3.2,3-5.7,3.9c-2.5,0.9-5.4,1.4-8.9,1.4C467.8,861.1,465,860.8,462.2,860.1z"/>
	<path class="st8" d="M527.5,846h-26.5c0.5,2.2,1.6,3.9,3.4,5.1c1.8,1.3,4,1.9,6.6,1.9c1.8,0,3.4-0.3,4.8-0.8
		c1.4-0.5,2.7-1.4,3.9-2.6l5.4,5.9c-3.3,3.8-8.1,5.7-14.4,5.7c-3.9,0-7.4-0.8-10.5-2.3c-3-1.5-5.4-3.7-7-6.4
		c-1.6-2.7-2.5-5.8-2.5-9.3c0-3.4,0.8-6.5,2.4-9.3s3.9-4.9,6.7-6.4c2.8-1.5,6-2.3,9.5-2.3c3.4,0,6.5,0.7,9.3,2.2
		c2.8,1.5,5,3.6,6.5,6.3c1.6,2.8,2.4,5.9,2.4,9.6C527.7,843.4,527.6,844.3,527.5,846z M503.8,834.8c-1.6,1.3-2.5,3.1-2.9,5.3h17.2
		c-0.3-2.2-1.3-4-2.9-5.3c-1.6-1.3-3.5-2-5.7-2C507.3,832.8,505.4,833.5,503.8,834.8z"/>
	<path class="st8" d="M560.1,829c2.9,2.6,4.4,6.5,4.4,11.7v20h-9.5v-4.4c-1.9,3.3-5.5,4.9-10.7,4.9c-2.7,0-5-0.5-7-1.4
		c-2-0.9-3.5-2.2-4.5-3.8c-1-1.6-1.6-3.4-1.6-5.5c0-3.3,1.2-5.8,3.7-7.7c2.4-1.9,6.2-2.8,11.3-2.8h8.1c0-2.2-0.7-3.9-2-5.1
		c-1.3-1.2-3.4-1.8-6-1.8c-1.9,0-3.7,0.3-5.5,0.9c-1.8,0.6-3.3,1.4-4.6,2.4l-3.6-7.1c1.9-1.3,4.2-2.4,6.9-3.1
		c2.7-0.7,5.4-1.1,8.2-1.1C553,825.1,557.2,826.4,560.1,829z M551.4,853.1c1.3-0.8,2.3-2,2.9-3.5V846h-7c-4.2,0-6.2,1.4-6.2,4.1
		c0,1.3,0.5,2.3,1.5,3.1c1,0.8,2.4,1.1,4.2,1.1C548.6,854.3,550.1,853.9,551.4,853.1z"/>
	<path class="st8" d="M588.2,826.4c2.1-0.9,4.4-1.3,7.1-1.3v9.4c-1.1-0.1-1.9-0.1-2.3-0.1c-2.9,0-5.2,0.8-6.8,2.4
		c-1.6,1.6-2.5,4.1-2.5,7.3v16.5h-10.1v-35h9.7v4.6C584.5,828.6,586.1,827.3,588.2,826.4z"/>
	<path class="st8" d="M607.9,858.8c-3-1.5-5.3-3.7-7-6.4c-1.7-2.7-2.5-5.8-2.5-9.3c0-3.5,0.8-6.6,2.5-9.3c1.7-2.7,4-4.9,7-6.4
		c3-1.5,6.3-2.3,10-2.3c3.7,0,6.9,0.8,9.7,2.3c2.8,1.5,4.8,3.7,6,6.6l-7.9,4.2c-1.8-3.2-4.4-4.8-7.9-4.8c-2.6,0-4.8,0.9-6.6,2.6
		c-1.7,1.7-2.6,4.1-2.6,7.1c0,3,0.9,5.4,2.6,7.1c1.7,1.7,3.9,2.6,6.6,2.6c3.5,0,6.1-1.6,7.9-4.8l7.9,4.3c-1.3,2.8-3.3,4.9-6,6.5
		c-2.8,1.6-6,2.3-9.7,2.3C614.2,861.1,610.9,860.4,607.9,858.8z"/>
	<path class="st8" d="M670.9,829c2.7,2.6,4,6.5,4,11.6v20h-10.1v-18.5c0-2.8-0.6-4.8-1.8-6.2c-1.2-1.4-3-2-5.3-2
		c-2.6,0-4.6,0.8-6.1,2.4c-1.5,1.6-2.3,3.9-2.3,7.1v17.3h-10.1v-48.2h10.1v16.9c1.3-1.3,3-2.4,4.9-3.1c1.9-0.7,4-1.1,6.2-1.1
		C664.8,825.1,668.3,826.4,670.9,829z"/>
</g>
</svg>
