<?xml version="1.0" encoding="utf-8"?>
<!-- Generator: Adobe Illustrator 23.0.2, SVG Export Plug-In . SVG Version: 6.00 Build 0)  -->
<svg version="1.1" id="Layer_1" xmlns="http://www.w3.org/2000/svg" xmlns:xlink="http://www.w3.org/1999/xlink" x="0px" y="0px"
	 viewBox="0 0 49 49" style="enable-background:new 0 0 49 49;" xml:space="preserve">
<style type="text/css">
	.st0{fill:#FFFFFF;stroke:#2C2C2C;stroke-width:2.17;stroke-miterlimit:10;}
	.st1{fill-rule:evenodd;clip-rule:evenodd;fill:#2C2C2C;}
</style>
<title>logo-github</title>
<g>
	<g id="Layer_1-2">
		<circle class="st0" cx="24.5" cy="24.5" r="23.4"/>
	</g>
</g>
<path class="st1" d="M14.7,21c0.3,0.1,1.3,0.9,2.6,1.8c1.6,1,2.6,1.8,3.5,2.3c0.1,0,0.3,0.1,0.6,0.4c0.3,0.1,0.6,0.3,0.7,0.4
	c0.1,0.1,0.4,0.3,0.7,0.4c0.3,0.1,0.6,0.3,0.7,0.3c0.3,0.1,0.4,0.1,0.7,0.1l0,0l0,0c0.1,0,0.4,0,0.7-0.1c0.3-0.1,0.6-0.1,0.7-0.3
	c0.3-0.1,0.6-0.3,0.7-0.4c0.1-0.1,0.4-0.3,0.7-0.4c0.3-0.1,0.4-0.3,0.6-0.4c0.9-0.6,2.8-1.9,6.3-3.9c0.7-0.4,1.2-1,1.6-1.6
	c0.4-0.6,0.7-1.3,0.7-1.9s-0.1-1-0.6-1.5c-0.4-0.4-1-0.6-1.6-0.6H14.5c-0.7,0-1.3,0.3-1.6,0.7c-0.4,0.4-0.6,1-0.6,1.6
	c0,0.6,0.3,1.2,0.7,1.8C13.6,20.1,14.1,20.7,14.7,21L14.7,21z M34.8,22.3c-2.9,1.9-5.1,3.2-6.7,4.2c-0.6,0.3-0.9,0.6-1.3,0.9
	c-0.3,0.1-0.7,0.4-1.3,0.6c-0.6,0.1-1,0.3-1.5,0.3l0,0l0,0c-0.4,0-1-0.1-1.5-0.3c-0.6-0.1-1-0.4-1.3-0.6c-0.3-0.1-0.7-0.4-1.3-0.9
	c-1.2-0.9-3.4-2.3-6.7-4.2c-0.6-0.3-1-0.7-1.5-1.2v9.9c0,0.6,0.1,1,0.6,1.5c0.4,0.4,1,0.6,1.6,0.6h19.7c0.6,0,1.2-0.1,1.6-0.6
	c0.4-0.4,0.6-0.9,0.6-1.5v-9.8C35.9,21.6,35.4,22,34.8,22.3L34.8,22.3z"/>
</svg>
