<?xml version="1.0" encoding="utf-8"?>
<!-- Generator: Adobe Illustrator 23.0.2, SVG Export Plug-In . SVG Version: 6.00 Build 0)  -->
<svg version="1.1" id="Layer_1" xmlns="http://www.w3.org/2000/svg" xmlns:xlink="http://www.w3.org/1999/xlink" x="0px" y="0px"
	 viewBox="0 0 49 49" style="enable-background:new 0 0 49 49;" xml:space="preserve">
<style type="text/css">
	.st0{fill:#FFFFFF;stroke:#2C2C2C;stroke-width:2.18;stroke-miterlimit:10;}
	.st1{fill-rule:evenodd;clip-rule:evenodd;fill:#2C2C2C;}
</style>
<title>logo-linkedin</title>
<g>
	<g id="Layer_1-2">
		<circle class="st0" cx="24.5" cy="24.5" r="23.4"/>
		<path class="st1" d="M14.1,20.4h4.3v14.8h-4.3V20.4z M16,18.6L16,18.6c-1.3,0.1-2.4-1-2.5-2.3c0-0.1,0-0.2,0-0.2
			c0-1.4,1.1-2.5,2.5-2.5s2.5,1.1,2.5,2.5c0.1,1.3-0.9,2.4-2.2,2.5C16.2,18.7,16.1,18.7,16,18.6z M35.2,35.2h-4.8v-7.6
			c0-2-0.7-3.4-2.3-3.4c-1.1,0-2.1,0.8-2.4,1.9c-0.1,0.4-0.2,0.8-0.1,1.2v7.9h-4.8V20.4h4.8v2.3c0.3-1,1.9-2.3,4.2-2.3
			c2.9,0,5.4,2.2,5.4,6.7L35.2,35.2L35.2,35.2z"/>
	</g>
</g>
</svg>
