<svg xmlns="http://www.w3.org/2000/svg" viewBox="0 0 49 49"><defs><style>.cls-1{fill:none;stroke:#2c2c2c;stroke-miterlimit:10;stroke-width:2.17px;}.cls-2{fill:#2c2c2c;fill-rule:evenodd;}</style></defs><title>logo-github</title><g id="Layer_2" data-name="Layer 2"><g id="Layer_1-2" data-name="Layer 1"><circle class="cls-1" cx="24.5" cy="24.5" r="23.41"/><path class="cls-2" d="M11.33,24.79a12.89,12.89,0,0,0,8.93,12.59c.73.15.88-.29.88-.73V34.31c-3.66.87-4.39-1.91-4.39-1.91a3.59,3.59,0,0,0-1.47-2c-1.17-.88.15-.88.15-.88a3,3,0,0,1,2.05,1.46,2.82,2.82,0,0,0,3.8,1.17,3.32,3.32,0,0,1,.88-1.9c-2.78-.29-6-1.46-6-6.73A5.39,5.39,0,0,1,17.48,20a4.71,4.71,0,0,1,.14-3.52s1.17-.44,3.52,1.47a11.85,11.85,0,0,1,3.22-.44,11.19,11.19,0,0,1,3.22.44c2.48-1.76,3.51-1.47,3.51-1.47A4.65,4.65,0,0,1,31.23,20a5.22,5.22,0,0,1,1.32,3.51c0,5.12-2.93,6.29-6,6.73a3.45,3.45,0,0,1,.88,2.34v3.66c0,.44.29.73.88.73a13.49,13.49,0,0,0,8.92-12.58A13.21,13.21,0,0,0,24.21,11,13.67,13.67,0,0,0,11.33,24.79Z"/></g></g></svg>