<?xml version="1.0" encoding="utf-8"?>
<!-- Generator: Adobe Illustrator 23.0.2, SVG Export Plug-In . SVG Version: 6.00 Build 0)  -->
<svg version="1.1" id="Layer_1" xmlns="http://www.w3.org/2000/svg" xmlns:xlink="http://www.w3.org/1999/xlink" x="0px" y="0px"
	 viewBox="0 0 49 49" style="enable-background:new 0 0 49 49;" xml:space="preserve">
<style type="text/css">
	.st0{fill:#FFFFFF;stroke:#2C2C2C;stroke-width:2.17;stroke-miterlimit:10;}
	.st1{fill-rule:evenodd;clip-rule:evenodd;fill:#2C2C2C;}
</style>
<title>logo-github</title>
<g>
	<g id="Layer_1-2">
		<circle class="st0" cx="24.5" cy="24.5" r="23.4"/>
		<path class="st1" d="M11.3,24.8c-0.1,5.7,3.5,10.8,8.9,12.6c0.7,0.2,0.9-0.3,0.9-0.7v-2.3c-3.7,0.9-4.4-1.9-4.4-1.9
			c-0.2-0.8-0.8-1.5-1.5-2c-1.2-0.9,0.1-0.9,0.1-0.9c0.9,0.2,1.6,0.7,2.1,1.5c0.7,1.4,2.4,1.9,3.8,1.2c0.1-0.7,0.4-1.4,0.9-1.9
			c-2.8-0.3-6-1.5-6-6.7c0-1.3,0.5-2.5,1.3-3.5c-0.4-1.1-0.4-2.4,0.1-3.5c0,0,1.2-0.4,3.5,1.5c1-0.3,2.1-0.4,3.2-0.4
			c1.1,0,2.2,0.1,3.2,0.4c2.5-1.8,3.5-1.5,3.5-1.5c0.5,1.1,0.6,2.4,0.1,3.5c0.9,1,1.3,2.2,1.3,3.5c0,5.1-2.9,6.3-6,6.7
			c0.6,0.6,0.9,1.5,0.9,2.3v3.7c0,0.4,0.3,0.7,0.9,0.7c5.3-1.9,8.9-6.9,8.9-12.6c0.1-7.3-5.7-13.3-13-13.4
			C16.9,11.4,11.3,17.5,11.3,24.8z"/>
	</g>
</g>
</svg>
