<?xml version="1.0" encoding="utf-8"?>
<!-- Generator: Adobe Illustrator 23.0.2, SVG Export Plug-In . SVG Version: 6.00 Build 0)  -->
<svg version="1.1" id="Layer_1" xmlns="http://www.w3.org/2000/svg" xmlns:xlink="http://www.w3.org/1999/xlink" x="0px" y="0px"
	 viewBox="0 0 34.5 34.5" style="enable-background:new 0 0 34.5 34.5;" xml:space="preserve">
<style type="text/css">
	.st0{fill:none;stroke:#3A3A3A;stroke-width:1.4858;stroke-miterlimit:10;}
	.st1{fill-rule:evenodd;clip-rule:evenodd;fill:#3A3A3A;}
</style>
<title>github-logo</title>
<circle class="st0" cx="17.3" cy="17.2" r="16"/>
<path class="st1" d="M8.3,17.4c0,4.1,2.5,7.5,6.1,8.6c0.5,0.1,0.6-0.2,0.6-0.5c0-0.2,0-0.8,0-1.6c-2.5,0.6-3-1.3-3-1.3
	c-0.4-1.1-1-1.4-1-1.4c-0.8-0.6,0.1-0.6,0.1-0.6c0.9,0.1,1.4,1,1.4,1c0.8,1.4,2.1,1,2.6,0.8c0.1-0.6,0.3-1,0.6-1.3
	c-1.9-0.2-4.1-1-4.1-4.6c0-1,0.4-1.8,0.9-2.4c-0.1-0.2-0.4-1.2,0.1-2.4c0,0,0.8-0.3,2.4,1c0.7-0.2,1.5-0.3,2.2-0.3s1.6,0.1,2.2,0.3
	c1.7-1.2,2.4-1,2.4-1c0.5,1.3,0.2,2.2,0.1,2.4c0.6,0.7,0.9,1.5,0.9,2.4c0,3.5-2,4.3-4.1,4.6c0.3,0.3,0.6,0.9,0.6,1.6
	c0,1.3,0,2.2,0,2.5s0.2,0.5,0.6,0.5c3.5-1.2,6.1-4.7,6.1-8.6c0-5-4-9.1-8.9-9.1C12.3,8.2,8.3,12.3,8.3,17.4L8.3,17.4z"/>
</svg>
