<svg xmlns="http://www.w3.org/2000/svg" viewBox="0 0 166.28 133.37"><defs><style>.cls-1{fill:#c74848;}.cls-2{fill:#e09090;}.cls-3{fill:#2c2c2c;}.cls-4{fill:#f2f2f2;}.cls-5{fill:#bfbfbf;}</style></defs><title>little-fish</title><g id="Layer_2" data-name="Layer 2"><g id="Layer_1-2" data-name="Layer 1"><polygon class="cls-1" points="166.28 55.45 126.05 85.59 166.28 115.73 166.28 55.45"/><path class="cls-2" d="M53.56,85.59A47.79,47.79,0,1,0,101.35,37.8,47.78,47.78,0,0,0,53.56,85.59Z"/><path class="cls-3" d="M103.74,68.35A19.76,19.76,0,1,0,84,88.11,19.76,19.76,0,0,0,103.74,68.35Z"/><path class="cls-4" d="M86.84,64.19a8.58,8.58,0,1,0-8.58,8.58A8.58,8.58,0,0,0,86.84,64.19Z"/><polygon class="cls-1" points="105.65 90.47 131.02 100.23 131.02 74.86 105.65 84.33 105.65 90.47"/><path class="cls-5" d="M134.45,120a47.77,47.77,0,0,1-63.55,2.39A52.26,52.26,0,0,1,134.45,120Z"/><polygon class="cls-1" points="0 81.4 7.68 86.65 0 91.91 0 81.4"/><path class="cls-2" d="M22.93,105.33a18.74,18.74,0,0,0,13.3-5.51L22.93,86.53l13.3-13.3a18.81,18.81,0,1,0-13.3,32.1Z"/><path class="cls-3" d="M25.19,70.33A4.28,4.28,0,1,1,23.12,76,4.28,4.28,0,0,1,25.19,70.33Z"/><path class="cls-4" d="M26.62,72a2.52,2.52,0,1,1-1.22,3.35A2.51,2.51,0,0,1,26.62,72Z"/><polygon class="cls-1" points="20.57 87.55 11.92 90.92 11.92 82.28 20.57 85.53 20.57 87.55"/><circle class="cls-5" cx="36.05" cy="57.67" r="2.22"/><path class="cls-5" d="M38.63,66.75a1.58,1.58,0,1,1-1.58-1.58A1.58,1.58,0,0,1,38.63,66.75Z"/><circle class="cls-5" cx="40.7" cy="62.23" r="1.07"/><path class="cls-5" d="M5.64,93.92A18.83,18.83,0,0,0,29.09,104.3a24.83,24.83,0,0,0-10.42-8.21A25,25,0,0,0,5.64,93.92Z"/><path class="cls-5" d="M84,13.45C84,4.58,91.05,0,99.69,0s15.64,4.58,15.64,13.45c0,8.13-5.89,12.65-13.53,13.35l-2.11,3.1-1.91-3.08C90,26.19,84,21.66,84,13.45Z"/><polygon class="cls-3" points="98.22 16.29 101.15 16.29 101.34 6.14 98.02 6.14 98.22 16.29"/><path class="cls-3" d="M98,19.2a1.67,1.67,0,1,0,1.66-1.66A1.66,1.66,0,0,0,98,19.2Z"/><polygon class="cls-1" points="35.47 73.99 35.94 75.77 33.95 75.51 35.47 73.99"/><polygon class="cls-1" points="33.32 76.14 33.79 77.92 31.8 77.66 33.32 76.14"/><polygon class="cls-1" points="30.89 78.57 31.36 80.35 29.37 80.09 30.89 78.57"/><polygon class="cls-1" points="28.91 80.55 29.38 82.33 27.39 82.07 28.91 80.55"/><polygon class="cls-1" points="26.55 82.91 27.02 84.69 25.03 84.43 26.55 82.91"/><polygon class="cls-1" points="25.47 89.05 27.25 88.58 26.99 90.57 25.47 89.05"/><polygon class="cls-1" points="27.89 91.48 29.68 91.01 29.41 93 27.89 91.48"/><polygon class="cls-1" points="29.87 93.46 31.65 92.99 31.39 94.98 29.87 93.46"/><polygon class="cls-1" points="32.23 95.82 34.01 95.36 33.75 97.35 32.23 95.82"/><polygon class="cls-1" points="34.29 97.89 36.08 97.42 35.81 99.41 34.29 97.89"/></g></g></svg>