<svg xmlns="http://www.w3.org/2000/svg" xmlns:xlink="http://www.w3.org/1999/xlink" viewBox="0 0 57.8 22.48"><defs><style>.cls-1{fill:#C74848;}.cls-2{fill:#fff;}</style><symbol id="NpmLogo" data-name="NpmLogo" viewBox="0 0 57.8 22.48"><path class="cls-1" d="M0,0H57.8V19.27H28.9v3.21H16.05V19.27H0ZM3.21,16.05H9.63V6.42h3.21v9.63h3.21V3.21H3.21ZM19.27,3.21V19.27h6.42V16.05h6.42V3.21Zm6.42,3.21H28.9v6.42H25.69Zm9.63-3.21V16.05h6.42V6.42H45v9.63h3.21V6.42h3.21v9.63h3.22V3.21Z"/><polygon class="cls-2" points="3.21 16.05 9.63 16.05 9.63 6.42 12.84 6.42 12.84 16.05 16.05 16.05 16.05 3.21 3.21 3.21 3.21 16.05"/><path class="cls-2" d="M19.27,3.21V19.27h6.42V16.05h6.42V3.21Zm9.63,9.63H25.69V6.42H28.9Z"/><polygon class="cls-2" points="35.32 3.21 35.32 16.05 41.74 16.05 41.74 6.42 44.95 6.42 44.95 16.05 48.16 16.05 48.16 6.42 51.38 6.42 51.38 16.05 54.59 16.05 54.59 3.21 35.32 3.21"/></symbol></defs><title>logo-npm-full</title><g id="Layer_2" data-name="Layer 2"><g id="Layer_1-2" data-name="Layer 1"><use width="57.8" height="22.48" xlink:href="#NpmLogo"/></g></g></svg>