<svg xmlns="http://www.w3.org/2000/svg" viewBox="0 0 37.13 42.32"><defs><style>.cls-1{fill:#e2514c;}</style></defs><title>logo-ball</title><g id="Layer_2" data-name="Layer 2"><g id="Layer_1-2" data-name="Layer 1"><g id="PackageScore"><path class="cls-1" d="M12.71,12.05a.89.89,0,0,0,.87-.85,2.33,2.33,0,0,1,4.59.4,6,6,0,0,1,0,.85,2.86,2.86,0,0,0,5.19,2A3.54,3.54,0,1,1,28.69,19a3.08,3.08,0,0,0-.75,3.52,3,3,0,0,0,2.91,2,2.3,2.3,0,0,1,2.27,2.12,2.23,2.23,0,0,1-1.91,2.48c-.73.08-.86.41-1,1A15.27,15.27,0,0,1,0,27.05,15.14,15.14,0,0,1,12.71,12.05Z" transform="translate(0)"/><circle class="cls-1" cx="21.04" cy="3.04" r="0.68"/><circle class="cls-1" cx="22.96" cy="6.57" r="0.68"/><circle class="cls-1" cx="30.79" cy="21.03" r="1.84"/><circle class="cls-1" cx="21.02" cy="12.59" r="1.86"/><circle class="cls-1" cx="30.02" cy="0.78" r="0.78"/><circle class="cls-1" cx="32.74" cy="7.37" r="0.72"/><circle class="cls-1" cx="35.81" cy="18.67" r="1.31"/><circle class="cls-1" cx="35" cy="12.59" r="0.72"/><circle class="cls-1" cx="16.92" cy="6.54" r="1.31"/><circle class="cls-1" cx="30.02" cy="11.68" r="1.31"/></g></g></g></svg>