<?xml version="1.0" encoding="utf-8"?>
<!-- Generator: Adobe Illustrator 23.0.2, SVG Export Plug-In . SVG Version: 6.00 Build 0)  -->
<svg version="1.1" id="Layer_1" xmlns="http://www.w3.org/2000/svg" xmlns:xlink="http://www.w3.org/1999/xlink" x="0px" y="0px"
	 viewBox="0 0 37.1 42.3" style="enable-background:new 0 0 37.1 42.3;" xml:space="preserve">
<style type="text/css">
	.st0{fill:#C74848;}
</style>
<title>logo-ball</title>
<g>
	<g id="Layer_1-2">
		<g id="PackageScore">
			<path class="st0" d="M37.1,27c0,7.2-5.1,13.4-12.1,14.9c-8.3,1.7-16.4-3.5-18.1-11.8c-0.1-0.6-0.3-0.9-1-1
				C4.7,29,3.9,27.8,4,26.6c0.1-1.2,1.1-2.1,2.3-2.1c1.3,0,2.5-0.8,2.9-2c0.5-1.2,0.2-2.6-0.8-3.5c-0.3-0.2-0.5-0.5-0.7-0.8
				c-1-1.7-0.6-3.8,1.1-4.9c1.7-1,3.8-0.6,4.9,1.1c0.6,0.9,1.7,1.4,2.7,1.2c1.6-0.2,2.7-1.6,2.5-3.2c0-0.3,0-0.6,0-0.9
				c0.1-1,0.8-1.9,1.8-2.1c1.3-0.3,2.5,0.5,2.8,1.7c0,0.5,0.4,0.8,0.9,0.9C31.8,13.2,37.1,19.6,37.1,27z"/>
			<circle class="st0" cx="16.1" cy="3" r="0.7"/>
			<circle class="st0" cx="14.2" cy="6.6" r="0.7"/>
			<circle class="st0" cx="6.3" cy="21" r="1.8"/>
			<circle class="st0" cx="16.1" cy="12.6" r="1.9"/>
			<circle class="st0" cx="7.1" cy="0.8" r="0.8"/>
			<circle class="st0" cx="4.4" cy="7.4" r="0.7"/>
			<circle class="st0" cx="1.3" cy="18.7" r="1.3"/>
			<circle class="st0" cx="2.1" cy="12.6" r="0.7"/>
			<circle class="st0" cx="20.2" cy="6.5" r="1.3"/>
			<circle class="st0" cx="7.1" cy="11.7" r="1.3"/>
		</g>
	</g>
</g>
</svg>
