<?xml version="1.0" encoding="utf-8"?>
<!-- Generator: Adobe Illustrator 23.0.2, SVG Export Plug-In . SVG Version: 6.00 Build 0)  -->
<svg version="1.1" id="Layer_1" xmlns="http://www.w3.org/2000/svg" xmlns:xlink="http://www.w3.org/1999/xlink" x="0px" y="0px"
	 viewBox="0 0 37.1 42.3" style="enable-background:new 0 0 37.1 42.3;" xml:space="preserve">
<style type="text/css">
	.st0{fill:#C74848;}
</style>
<title>logo-ball</title>
<g>
	<g id="Layer_1-2">
		<g id="PackageScore">
			<path class="st0" d="M12.7,12.1c0.5,0,0.8-0.4,0.9-0.9c0.3-1.3,1.6-2,2.8-1.7c1,0.2,1.7,1.1,1.8,2.1c0,0.3,0,0.6,0,0.9
				c-0.2,1.6,0.9,3,2.5,3.2c1.1,0.1,2.1-0.3,2.7-1.2c1-1.7,3.2-2.1,4.9-1.1c1.7,1,2.1,3.2,1.1,4.9c-0.2,0.3-0.4,0.5-0.7,0.8
				c-1,0.9-1.3,2.3-0.8,3.5c0.4,1.2,1.6,2,2.9,2c1.2,0,2.2,0.9,2.3,2.1s-0.7,2.3-1.9,2.5c-0.7,0.1-0.9,0.4-1,1
				c-1.7,8.3-9.8,13.5-18.1,11.8C5.1,40.4,0,34.2,0,27C0,19.6,5.4,13.2,12.7,12.1z"/>
			<circle class="st0" cx="21" cy="3" r="0.7"/>
			<circle class="st0" cx="23" cy="6.6" r="0.7"/>
			<circle class="st0" cx="30.8" cy="21" r="1.8"/>
			<circle class="st0" cx="21" cy="12.6" r="1.9"/>
			<circle class="st0" cx="30" cy="0.8" r="0.8"/>
			<circle class="st0" cx="32.7" cy="7.4" r="0.7"/>
			<circle class="st0" cx="35.8" cy="18.7" r="1.3"/>
			<circle class="st0" cx="35" cy="12.6" r="0.7"/>
			<circle class="st0" cx="16.9" cy="6.5" r="1.3"/>
			<circle class="st0" cx="30" cy="11.7" r="1.3"/>
		</g>
	</g>
</g>
</svg>
