<svg xmlns="http://www.w3.org/2000/svg" xmlns:xlink="http://www.w3.org/1999/xlink" viewBox="0 0 33 33"><defs><style>.cls-1{fill:#2c2c2c;}</style><symbol id="MagGlass" data-name="MagGlass" viewBox="0 0 33 33"><path class="cls-1" d="M0,14.37V12.84c0-.07.07-.13.07-.2A13.61,13.61,0,0,1,5.14,2.93,13.41,13.41,0,0,1,12.78,0h1.65A13.67,13.67,0,0,1,25.1,20.63c-.07.06,0,.26.06.26l7.51,7.59a2.61,2.61,0,0,1,.33.46v.4A7.13,7.13,0,0,1,29.31,33h-.39c-.14-.13-.33-.2-.46-.33-2.51-2.46-4.95-5-7.45-7.45-.06-.07-.26-.07-.33-.07A13.43,13.43,0,0,1,2.11,21,13.65,13.65,0,0,1,0,14.37ZM13.5,24.51a11,11,0,1,0-11-11A10.93,10.93,0,0,0,13.5,24.51Z"/></symbol></defs><title>mag-glass-black</title><g id="Layer_2" data-name="Layer 2"><g id="Layer_1-2" data-name="Layer 1"><use width="33" height="33" xlink:href="#MagGlass"/></g></g></svg>