<svg xmlns="http://www.w3.org/2000/svg" viewBox="0 0 32.9 32.57"><defs><style>.cls-1{fill:#bfbfbf;}</style></defs><title>mag-glass-gray</title><g id="Layer_2" data-name="Layer 2"><g id="Layer_1-2" data-name="Layer 1"><path class="cls-1" d="M0,14.18V12.67c0-.06.07-.13.07-.19A13.35,13.35,0,0,1,5.12,2.89,13.51,13.51,0,0,1,12.74,0h1.64A13.47,13.47,0,0,1,25,20.36c-.07.06,0,.26.07.26l7.48,7.49a2.61,2.61,0,0,1,.33.46V29a7.05,7.05,0,0,1-3.68,3.61h-.39c-.13-.13-.33-.2-.46-.33-2.5-2.43-4.93-4.92-7.42-7.35-.07-.07-.26-.07-.33-.07A13.48,13.48,0,0,1,2.1,20.69,13.34,13.34,0,0,1,0,14.18ZM13.4,24.36a11,11,0,1,0-11-11A10.93,10.93,0,0,0,13.4,24.36Z"/></g></g></svg>