<?xml version="1.0" encoding="utf-8"?>
<!-- Generator: Adobe Illustrator 23.0.2, SVG Export Plug-In . SVG Version: 6.00 Build 0)  -->
<svg version="1.1" id="Layer_1" xmlns="http://www.w3.org/2000/svg" xmlns:xlink="http://www.w3.org/1999/xlink" x="0px" y="0px"
	 viewBox="0 0 204.2 116.4" style="enable-background:new 0 0 204.2 116.4;" xml:space="preserve">
<style type="text/css">
	.st0{fill:#FFA970;}
	.st1{fill:#696372;}
	.st2{fill:#E2514C;}
	.st3{fill:#D0C8DB;}
	.st4{fill:#EAE4F4;}
	.st5{fill:#B9ACCC;}
	.st6{fill:#817199;}
	.st7{fill:#F59157;}
	.st8{fill:#514B59;}
	.st9{fill:#A393BA;}
	.st10{fill:#FFC0C0;}
	.st11{fill:#FFD9D9;}
	.st12{fill:#D16333;}
	.st13{fill:#E87C46;}
	.st14{fill:#807A89;}
</style>
<title>mr-buddy-message_1</title>
<g>
	<g id="Layer_1-2">
		<path class="st0" d="M19.3,43.4c-0.1,1.4,0.9,2.6,2.3,2.7s2.6-0.9,2.7-2.3c0.1-1.4-0.9-2.6-2.3-2.7c-0.1,0-0.1,0-0.2,0
			C20.4,41.1,19.3,42.1,19.3,43.4z"/>
		<path class="st1" d="M38.1,47.5h-1.2v-7.9h1.2c0.4,0,0.8,0.3,0.8,0.8c0,0,0,0,0,0v6.3C38.9,47.1,38.5,47.5,38.1,47.5L38.1,47.5z"
			/>
		<path class="st2" d="M52.5,75.6c3.6-0.1,7.1-0.7,10.5-1.9l-1.7-4.4c-2.3,0.8-9,2.7-13.3,0.9c-4.9-2-8.2-8.9-8.9-11.4l-4.3,1.3
			c0.1,0.5,3.4,11.2,11.4,14.5C48.3,75.3,50.4,75.7,52.5,75.6z"/>
		<path class="st3" d="M18.6,88.3H8.8C4,88.3,0,84.8,0,80.4V67.8c0-4.3,4-7.8,8.8-7.8h9.8c4.9,0,6.2,1.9,6.2,6.2v16.7
			C24.8,87.1,23.5,88.3,18.6,88.3z"/>
		<path class="st3" d="M38.8,102.1l0.8-16.2H8.8v7.8l5,8.2c2.8,4.5,3.9,8.1,2.3,10.8l-2.7,3.6h31.1L38.8,102.1z"/>
		<path class="st4" d="M44.7,91.5V96c0,6.5-8.4,11.7-15.9,11.7S15.1,102.4,15.1,96v-4.5L44.7,91.5z"/>
		<rect x="15.1" y="93.5" class="st3" width="29.6" height="2"/>
		<path class="st4" d="M23.8,88.3H14c-4.9,0-8.8-3.5-8.8-7.8V67.8c0-4.3,3.9-7.8,8.8-7.8h9.8c4.9,0,6.1,1.9,6.1,6.2v16.7
			C29.9,87.1,28.6,88.3,23.8,88.3z"/>
		<path class="st5" d="M7.3,71.6c0,9.2,6,16.7,13.3,16.7s13.3-7.5,13.3-16.7s-6-16.7-13.3-16.7S7.3,62.3,7.3,71.6z"/>
		<path class="st3" d="M9.8,71.6c0,9.2,6,16.7,13.3,16.7s13.3-7.5,13.3-16.7s-6-16.7-13.3-16.7S9.8,62.3,9.8,71.6z"/>
		<polygon class="st6" points="47.2,105.6 41.8,104.2 33.8,104.2 30.6,104.2 30.4,106.6 35.8,108.3 		"/>
		<polygon class="st7" points="41.8,110.1 42.9,111.1 48.9,113.9 48.9,114.8 37.9,114.8 37.9,110.1 		"/>
		<path class="st8" d="M43.9,110.3c3.4,0,6.1,1.9,6.1,4.3h-6.1V110.3z"/>
		<path class="st8" d="M37.8,116.3h11.3c0.5,0,0.9-0.4,0.9-0.9v-0.9H36.8v0.9C36.9,115.9,37.3,116.3,37.8,116.3
			C37.7,116.3,37.7,116.3,37.8,116.3z"/>
		<polygon class="st0" points="33.1,110.1 34.1,111.1 40.2,113.9 40.2,114.8 29.1,114.8 29.1,110.1 		"/>
		<path class="st8" d="M35.2,110.3c3.4,0,6.1,1.9,6.1,4.3h-6.1V110.3z"/>
		<path class="st8" d="M29,116.3h11.3c0.5,0,0.9-0.4,0.9-0.9v-0.9H28.1v0.9C28.1,115.9,28.5,116.3,29,116.3z"/>
		<path class="st7" d="M34.8,83.4h11.4c4.3,0,6.4,3.2,4.6,7.1l-9,19.5h-4L42,93.5h-4l1.3-2.9C41.2,86.7,39.2,83.4,34.8,83.4z"/>
		<path class="st0" d="M24.1,93.5c-5.6,0.1-10.2-4.4-10.2-10c0-0.1,0-0.1,0-0.2l0.8-7.4h10l12.6,7.4v0.2h0.2c4.3,0,6.4,3.2,4.6,7.1
			l-1.3,2.9h0l-3.1,6.7l-4.5,9.9h-4l4.3-16.6L24.1,93.5z"/>
		<path class="st2" d="M32,54.5H22c-4,0-7.3,1.7-7.6,6.7l-0.4,22.3h23.4l2.4-22.3C39.3,56.1,36,54.5,32,54.5z"/>
		<rect x="23" y="47.5" class="st0" width="9" height="7.7"/>
		<path class="st0" d="M23,55.3c0.1,2.4,2.1,4.3,4.5,4.2c2.3,0.2,4.3-1.5,4.5-3.8c0.2-2.3-1.5-4.3-3.8-4.5c-0.2,0-0.5,0-0.7,0
			C25.1,51,23.1,52.9,23,55.3C23,55.2,23,55.2,23,55.3z"/>
		<polygon class="st7" points="32,50.2 23,54.5 23,47.6 32,47.6 		"/>
		<polygon class="st9" points="43.2,111.6 35.2,113 27.5,111.7 28.1,108 28.3,104.8 30.6,104.2 30.4,106.6 35.8,108.3 41.9,106.4 
			47.2,105.6 48.2,108.6 47.2,109.5 48.6,111.9 		"/>
		<polygon class="st6" points="45.1,111.7 42.7,108.3 43.2,111.6 		"/>
		<polygon class="st6" points="37.3,112.6 37,110.5 38.3,112.4 		"/>
		<path class="st4" d="M7.4,88.3h27.3l-1.2,5.2h-26c-1.4,0-2.6-1.2-2.6-2.6C4.8,89.4,6,88.3,7.4,88.3L7.4,88.3z"/>
		<rect x="4.9" y="105.9" class="st10" width="9.2" height="10.4"/>
		<rect x="9.5" y="105.9" class="st11" width="9.2" height="10.4"/>
		<path class="st0" d="M21.8,76.8c1.7,0,3.3-0.2,4.9-0.6l-0.6-3.9c-2.6,0.4-10.3,0.7-13.5-2.1l-3.1,3.6C12.9,76.7,18,76.8,21.8,76.8
			z"/>
		<path class="st2" d="M12.6,70.2c-1-0.9-1.6-2.2-1.5-3.5c0-7.3,9.5-7.4,9.9-7.4l0.9-4.8c-2.7,0-5.4,0.6-7.9,1.5
			c-4.8,2.1-7.6,5.8-7.6,10.7c-0.1,2.7,1.1,5.3,3.1,7.1L12.6,70.2z"/>
		<rect x="56.3" y="87.2" class="st4" width="0.8" height="23.3"/>
		<path class="st4" d="M55.8,91.3c0,0.4,0.4,0.8,0.8,0.8l0,0c0.4,0,0.8-0.4,0.8-0.8v-4.1c0-0.4-0.3-0.8-0.8-0.8c0,0,0,0,0,0l0,0
			c-0.4,0-0.8,0.4-0.8,0.8V91.3z"/>
		<path class="st4" d="M52.7,109.5c0-1.2,1-2.2,2.2-2.3c0,0,0,0,0.1,0h3.4c1.2,0,2.2,1,2.2,2.2c0,0,0,0,0,0v6.9h-7.9V109.5z"/>
		<path class="st4" d="M54.8,105.9h3.6c0.4,0,0.8,0.4,0.8,0.8v3.6c0,0.4-0.4,0.8-0.8,0.8h-3.6c-0.4,0-0.8-0.4-0.8-0.8v-3.6
			C54,106.2,54.4,105.9,54.8,105.9z"/>
		<polygon class="st1" points="30.8,81.9 31.1,81.9 30.4,66.9 30.1,66.9 		"/>
		<path class="st1" d="M30.3,67.2l0.1-0.2c6.5-11,7.1-17.7,7.1-17.7h-0.3c0,0.1-0.6,6.6-7,17.5c-0.9-1.1-8-8.3-9.3-19h-0.3
			C21.9,59.1,30.1,67,30.1,67L30.3,67.2z"/>
		<path class="st5" d="M20.6,39.9v7.9c-0.7,0-1.3-0.6-1.3-1.3c0,0,0,0,0,0v-5.3C19.3,40.5,19.9,39.9,20.6,39.9
			C20.6,39.9,20.6,39.9,20.6,39.9z"/>
		<path class="st1" d="M18.3,42.3c0.1-3.5,1.1-6.3,3.1-8.2s4.9-3.3,9.1-3c2.3,0.1,4.4,1.1,6,2.8c3.1,3.6,2.2,9.4,2.2,9.7l-1-0.1
			c0-0.1,0.9-5.7-1.9-8.9c-1.4-1.4-3.2-2.3-5.2-2.4c-3.8-0.3-6.5,0.8-8.3,2.7s-2.8,4.5-2.8,8v2.4c0,0.4-0.2,0.8-0.5,0.8
			s-0.5-0.3-0.5-0.8L18.3,42.3L18.3,42.3z"/>
		<path class="st0" d="M21.9,44.2c-0.2-5.6-0.1-7.7,1.9-9.9c1.7-1.4,3.8-2.3,6-2.4h0.5c2.1,0.2,4.1,1,5.7,2.4
			c2.1,2.2,2.2,4.3,1.9,9.9c0.2,5.6-1.9,6.9-4,9.1c-1.7,1.7-4.5,1.7-6.3,0C25.6,51.2,21.7,49.8,21.9,44.2z"/>
		<circle class="st1" cx="29.5" cy="43.5" r="1"/>
		<path class="st1" d="M34.2,43.5c0,0.6,0.4,1,1,1s1-0.4,1-1s-0.4-1-1-1c-0.5,0-1,0.4-1,0.9C34.2,43.5,34.2,43.5,34.2,43.5z"/>
		<polygon class="st12" points="30.6,42.3 26.5,41.4 27.4,40.6 31,41.3 		"/>
		<polygon class="st12" points="34,42.2 38,41.5 37,40.7 33.7,41.2 		"/>
		<path class="st12" d="M36.9,48l-1.5,1.3l-1.1-2.1h-5l-1.8,2.4l-4-2.3l-0.3-3l-1.1-1.1L21.8,50l6.9,4.4h4.1l5-4.3v-3.7L36.9,48z
			 M24.7,50.8L24.7,50.8z"/>
		<polygon class="st0" points="30.1,48.2 33.9,48.2 34.4,49.6 33.9,50.3 31.9,51 29.9,50.3 29.4,49.3 		"/>
		<path class="st13" d="M29.9,49.3c0,0.3,0.2,0.5,0.5,0.5c0,0,0,0,0,0h2.9c0.3,0,0.5-0.2,0.5-0.5l0,0l0,0c0-0.3-0.2-0.5-0.5-0.5l0,0
			h-2.9C30.2,48.8,29.9,49,29.9,49.3C29.9,49.3,29.9,49.3,29.9,49.3z"/>
		<path class="st1" d="M21.8,47.8h-1.2v-7.9h1.2c0.4,0,0.8,0.4,0.8,0.8l0,0V47C22.6,47.4,22.3,47.8,21.8,47.8
			C21.8,47.8,21.8,47.8,21.8,47.8z"/>
		<path class="st0" d="M25.9,72.5c0.2-0.2,0.4-0.4,0.6-0.5l0.8-0.4c0.7-0.3,1.4-0.6,2.2-0.8l0.9-0.3c0.9-0.2,1.9-0.3,2.8-0.1
			l1.5,0.3c0.4,0.1,0.6,0.4,0.5,0.8c0,0,0,0,0,0c0,0.1-0.1,0.3-0.2,0.4c0.3,0.1,0.4,0.4,0.3,0.7c-0.1,0.4-0.4,0.6-0.8,0.5h-0.1
			c0,0.1,0,0.3,0,0.4c-0.1,0.4-0.4,0.6-0.8,0.5c0,0,0,0,0,0l-1.8-0.4l0.6,0.6c0.3,0.3,0.3,0.7,0,1c0,0,0,0,0,0c-0.3,0.3-0.7,0.3-1,0
			c0,0,0,0,0,0L31,74.8c-0.2,0.3-0.5,0.5-0.8,0.7L28.8,76c-0.4,0.2-1,0.3-1.5,0.3L25.6,76L25.9,72.5z"/>
		<path class="st0" d="M52.2,70.7c0.1-0.4,0.4-0.6,0.8-0.5c0,0,0,0,0,0l0,0c0.4,0.1,0.6,0.4,0.5,0.8c0,0,0,0,0,0l-0.3,1.9
			c-0.1,0.4-0.4,0.8-0.8,0.7l0,0c-0.4-0.1-0.6-0.4-0.6-0.8c0,0,0,0,0,0L52.2,70.7z"/>
		<path class="st8" d="M60.1,83.4H28.9c-0.9,0-1.6-0.7-1.6-1.6h34.4C61.7,82.7,61,83.4,60.1,83.4z"/>
		<path class="st1" d="M27.9,81.2c0-0.2,0.2-0.4,0.4-0.4c0,0,0,0,0,0h1.1c0.2,0,0.4,0.2,0.4,0.3c0,0,0,0,0,0h0.8
			c0-0.2,0.2-0.4,0.3-0.4c0,0,0,0,0,0H32c0.2,0,0.4,0.2,0.4,0.4l0,0H33l0,0c0-0.2,0.2-0.4,0.3-0.4c0,0,0,0,0,0h1.1
			c0.2,0,0.4,0.2,0.4,0.4l0,0l0,0h26.6v0.6H27.3v-0.6H27.9z"/>
		<path class="st1" d="M36.1,62.5h25.8c0.9,0,1.6,0.7,1.6,1.6v16.2c0,0.9-0.7,1.6-1.6,1.6H36.1c-0.9,0-1.6-0.7-1.6-1.6V64.1
			C34.5,63.2,35.2,62.5,36.1,62.5z"/>
		<path class="st14" d="M56.5,62.5l7,7v10.8c0,0.9-0.7,1.6-1.6,1.6h-1L41.5,62.5H56.5z"/>
		<path class="st14" d="M36.1,62.5h2.7l19.4,19.4H53L34.6,63.5C34.9,62.9,35.5,62.5,36.1,62.5z"/>
		<path class="st8" d="M47,71.5c0,1.1,0.9,2,2,2s2-0.9,2-2s-0.9-2-2-2S47,70.4,47,71.5z"/>
		<path class="st0" d="M63.2,68.2c-0.1,0-2.3,0.1-2.3,0.1c-0.4,0-0.7,0.3-0.6,0.7c0,0.3,0.2,0.5,0.5,0.6h-0.3
			c-0.4,0-0.7,0.3-0.7,0.7c0,0,0,0,0,0c0,0.2,0.1,0.4,0.3,0.6c-0.2,0.1-0.3,0.3-0.3,0.5c0,0.4,0.2,0.7,0.6,0.7c0,0,0,0,0,0h0.1
			c-0.2,0.1-0.3,0.2-0.3,0.4c-0.1,0.4,0.1,0.7,0.5,0.8l1.3,0.6c1.7,0.5,2.7-0.4,2.7-1v-3.4c0-0.7-0.5-1.3-1.2-1.3
			C63.4,68.2,63.3,68.2,63.2,68.2z"/>
	</g>
</g>
</svg>
