<?xml version="1.0" encoding="utf-8"?>
<!-- Generator: Adobe Illustrator 23.0.2, SVG Export Plug-In . SVG Version: 6.00 Build 0)  -->
<svg version="1.1" id="Layer_1" xmlns="http://www.w3.org/2000/svg" xmlns:xlink="http://www.w3.org/1999/xlink" x="0px" y="0px"
	 viewBox="0 0 223.4 126.1" style="enable-background:new 0 0 223.4 126.1;" xml:space="preserve">
<style type="text/css">
	.st0{fill:#FFA970;}
	.st1{fill:#696372;}
	.st2{fill:#E2514C;}
	.st3{fill:#D0C8DB;}
	.st4{fill:#EAE4F4;}
	.st5{fill:#B9ACCC;}
	.st6{fill:#817199;}
	.st7{fill:#F59157;}
	.st8{fill:#514B59;}
	.st9{fill:#A393BA;}
	.st10{fill:#FFC0C0;}
	.st11{fill:#FFD9D9;}
	.st12{fill:#D16333;}
	.st13{fill:#E87C46;}
	.st14{fill:#807A89;}
</style>
<title>mr-buddy-message_3</title>
<g>
	<g id="Layer_1-2">
		<path class="st0" d="M178.1,53.1c-0.1,1.4,1,2.6,2.3,2.6s2.6-1,2.6-2.3c0.1-1.4-1-2.6-2.3-2.6c-0.1,0-0.1,0-0.2,0
			C179.3,50.8,178.1,51.8,178.1,53.1C178.1,53.1,178.1,53.1,178.1,53.1z"/>
		<path class="st1" d="M196.9,57.2h-1.2v-7.9h1.2c0.4,0,0.8,0.4,0.8,0.8v6.3C197.7,56.8,197.3,57.2,196.9,57.2
			C196.9,57.2,196.9,57.2,196.9,57.2z"/>
		<path class="st2" d="M211.4,85.3c3.6-0.1,7.1-0.7,10.5-1.9l-1.7-4.4c-2.3,0.8-9,2.7-13.3,0.9c-4.9-2-8.2-8.9-8.9-11.4l-4.3,1.3
			c0.1,0.4,3.4,11.2,11.4,14.4C207.1,85,209.2,85.4,211.4,85.3z"/>
		<path class="st3" d="M177.4,98h-9.8c-4.9,0-8.8-3.5-8.8-7.8V77.4c0-4.3,3.9-7.8,8.8-7.8h9.8c4.9,0,6.2,1.8,6.2,6.2v16.7
			C183.6,96.8,182.3,98,177.4,98z"/>
		<path class="st3" d="M197.6,111.8l0.9-16.2h-30.9v7.7l5,8.2c2.8,4.5,3.9,8.2,2.3,10.8l-2.7,3.6h31.1L197.6,111.8z"/>
		<path class="st4" d="M203.5,101.1v4.5c0,6.5-8.4,11.8-15.9,11.8s-13.6-5.3-13.6-11.8v-4.5H203.5z"/>
		<rect x="173.9" y="103.2" class="st3" width="29.6" height="2"/>
		<path class="st4" d="M182.6,98h-9.8c-4.9,0-8.8-3.5-8.8-7.8V77.4c0-4.3,3.9-7.8,8.8-7.8h9.8c4.9,0,6.2,1.8,6.2,6.2v16.7
			C188.8,96.8,187.5,98,182.6,98z"/>
		<path class="st5" d="M166.1,81.2c0,9.3,6,16.7,13.3,16.7s13.3-7.5,13.3-16.7s-6-16.7-13.3-16.7S166.1,72,166.1,81.2z"/>
		<path class="st3" d="M168.6,81.2c0,9.3,6,16.7,13.3,16.7s13.3-7.5,13.3-16.7s-6-16.7-13.3-16.7S168.6,72,168.6,81.2z"/>
		<polygon class="st6" points="206,115.3 200.6,113.9 192.6,113.9 189.5,113.9 189.2,116.2 194.7,118 		"/>
		<polygon class="st7" points="200.6,119.8 201.7,120.8 207.7,123.6 207.7,124.5 196.7,124.5 196.7,119.8 		"/>
		<path class="st8" d="M202.7,120c3.4,0,6.1,1.9,6.1,4.3h-6.1V120z"/>
		<path class="st8" d="M196.6,126h11.3c0.5,0,0.9-0.4,0.9-0.9v-0.9h-13.1v0.9C195.7,125.6,196.1,126,196.6,126z"/>
		<polygon class="st0" points="191.9,119.8 192.9,120.8 199,123.6 199,124.5 187.9,124.5 187.9,119.8 		"/>
		<path class="st8" d="M194,120c3.4,0,6.1,1.9,6.1,4.3H194V120z"/>
		<path class="st8" d="M187.8,126h11.3c0.5,0,0.9-0.4,0.9-0.9v-0.9h-13.1v0.9C186.9,125.6,187.3,126,187.8,126
			C187.8,126,187.8,126,187.8,126z"/>
		<path class="st7" d="M193.7,93.1H205c4.3,0,6.4,3.2,4.6,7.1l-9,19.5h-4l4.2-16.6h-4l1.3-2.9C200.1,96.3,198,93.1,193.7,93.1z"/>
		<path class="st0" d="M182.9,103.2c-5.6,0.1-10.2-4.4-10.2-10c0-0.1,0-0.1,0-0.2l0.8-7.4h10L196,93v0.2h0.2c4.4,0,6.4,3.2,4.6,7.1
			l-1.3,2.9l0,0l-3.1,6.7l-4.5,9.9h-4l4.3-16.6L182.9,103.2z"/>
		<path class="st2" d="M190.8,64.1h-10c-4,0-7.3,1.7-7.7,6.7l-0.4,22.3h23.4l2.4-22.3C198.1,65.8,194.8,64.1,190.8,64.1z"/>
		<rect x="181.8" y="57.2" class="st0" width="9" height="7.7"/>
		<path class="st0" d="M181.8,64.9c-0.2,2.5,1.7,4.6,4.2,4.8c2.5,0.2,4.6-1.7,4.8-4.2s-1.7-4.6-4.2-4.8c-0.1,0-0.2,0-0.3,0
			C183.9,60.7,181.9,62.5,181.8,64.9z"/>
		<polygon class="st7" points="190.8,59.9 181.8,64.2 181.8,57.3 190.8,57.3 		"/>
		<polygon class="st9" points="202,121.3 194,122.6 186.3,121.4 186.9,117.7 187.1,114.5 189.5,113.9 189.2,116.2 194.7,118 
			200.7,116.1 206,115.3 207,118.3 206,119.2 207.4,121.6 		"/>
		<polygon class="st6" points="203.9,121.4 201.5,118 202,121.3 		"/>
		<polygon class="st6" points="196.1,122.3 195.8,120.2 197.1,122.1 		"/>
		<path class="st4" d="M166.2,98h27.3l-1.2,5.2h-26c-1.4,0.1-2.7-1-2.8-2.4c-0.1-1.4,1-2.7,2.4-2.8C166,98,166.1,98,166.2,98
			L166.2,98z"/>
		<rect x="163.7" y="115.6" class="st10" width="9.2" height="10.4"/>
		<rect x="168.3" y="115.6" class="st11" width="9.2" height="10.4"/>
		<path class="st0" d="M180.6,86.5c1.7,0,3.3-0.2,4.9-0.6L185,82c-2.6,0.4-10.3,0.7-13.5-2.1l-3.1,3.6
			C171.7,86.4,176.8,86.5,180.6,86.5z"/>
		<path class="st2" d="M171.5,79.9c-1-0.9-1.6-2.2-1.5-3.5c0-7.3,9.5-7.4,9.9-7.4l0.9-4.8c-2.7,0-5.4,0.5-7.9,1.5
			c-4.8,2.1-7.6,5.8-7.6,10.8c-0.1,2.7,1.1,5.3,3.1,7.1L171.5,79.9z"/>
		<rect x="215.1" y="96.8" class="st4" width="0.8" height="23.3"/>
		<path class="st4" d="M214.7,101c0,0.4,0.3,0.8,0.8,0.8c0,0,0,0,0,0l0,0c0.4,0,0.8-0.4,0.8-0.8v-4.2c0-0.4-0.4-0.8-0.8-0.8
			c0,0,0,0,0,0l0,0c-0.4,0-0.8,0.4-0.8,0.8v0V101z"/>
		<path class="st4" d="M211.5,119.2c0-1.2,1-2.2,2.2-2.2l0,0h3.4c1.2,0,2.2,1,2.2,2.2l0,0v6.9h-7.9V119.2z"/>
		<path class="st4" d="M213.7,115.6h3.6c0.4,0,0.8,0.4,0.8,0.8v3.6c0,0.4-0.4,0.8-0.8,0.8h-3.6c-0.4,0-0.8-0.4-0.8-0.8v-3.6
			C212.9,115.9,213.2,115.6,213.7,115.6z"/>
		<polygon class="st1" points="189.6,91.5 189.9,91.5 189.2,76.6 188.9,76.6 		"/>
		<path class="st1" d="M189.1,76.9l0.1-0.2c6.5-11,7.1-17.7,7.1-17.7H196c0,0.1-0.6,6.6-7,17.5c-0.9-1.1-8-8.3-9.3-19h-0.3
			c1.3,11.3,9.4,19.2,9.5,19.2L189.1,76.9z"/>
		<path class="st5" d="M179.4,49.6v7.9c-0.7,0-1.3-0.6-1.3-1.3v-5.3C178.1,50.2,178.7,49.6,179.4,49.6
			C179.4,49.6,179.4,49.6,179.4,49.6z"/>
		<path class="st1" d="M177.1,52c0.1-3.5,1.1-6.3,3.1-8.2s4.9-3.3,9.1-3c2.3,0.1,4.4,1.1,6,2.8c3.1,3.6,2.2,9.4,2.2,9.7l-1-0.1
			c0-0.1,0.9-5.7-1.9-8.9c-1.4-1.4-3.2-2.3-5.2-2.3c-3.8-0.3-6.5,0.8-8.3,2.7s-2.8,4.5-2.8,8v2.4c0,0.4-0.2,0.8-0.5,0.8
			s-0.5-0.3-0.5-0.8L177.1,52L177.1,52z"/>
		<path class="st0" d="M180.7,53.9c-0.2-5.6-0.1-7.7,1.9-9.9c1.7-1.4,3.8-2.3,5.9-2.4h0.5c2.1,0.2,4.1,1,5.7,2.4
			c2.1,2.2,2.2,4.3,1.9,9.9c0.2,5.6-1.9,6.9-3.9,9.1c-1.7,1.7-4.5,1.7-6.3,0C184.4,60.8,180.5,59.5,180.7,53.9z"/>
		<circle class="st1" cx="188.3" cy="53.2" r="0.9"/>
		<path class="st1" d="M193,53.2c0,0.6,0.4,1,0.9,1c0.6,0,1-0.4,1-1c0-0.6-0.4-1-0.9-1c0,0-0.1,0-0.1,0
			C193.4,52.3,193,52.7,193,53.2z"/>
		<polygon class="st12" points="189.4,52 185.3,51.1 186.2,50.3 189.8,51 		"/>
		<polygon class="st12" points="192.8,51.9 196.8,51.2 195.8,50.3 192.5,50.9 		"/>
		<path class="st12" d="M195.7,57.7l-1.5,1.3l-1.1-2.1h-5l-1.8,2.4l-3.9-2.2l-0.3-3l-1.1-1.1l-0.3,6.9l6.9,4.4h4.1l5-4.3v-3.7
			L195.7,57.7z"/>
		<polygon class="st0" points="188.9,57.9 192.7,57.9 193.2,59.3 192.8,60 190.7,60.7 188.7,60 188.2,59 		"/>
		<path class="st13" d="M188.8,59c0,0.3,0.2,0.5,0.5,0.5c0,0,0,0,0,0h2.9c0.3,0,0.5-0.2,0.5-0.5c0,0,0,0,0,0l0,0
			c0-0.3-0.2-0.5-0.5-0.5l0,0h-2.9C189,58.5,188.8,58.7,188.8,59L188.8,59z"/>
		<path class="st1" d="M180.7,57.5h-1.2v-7.9h1.2c0.4,0,0.8,0.3,0.8,0.8c0,0,0,0,0,0v6.3C181.4,57.1,181.1,57.5,180.7,57.5z"/>
		<path class="st0" d="M184.7,82.2c0.2-0.2,0.4-0.4,0.6-0.5l0.8-0.4c0.7-0.3,1.5-0.6,2.2-0.8l0.9-0.3c0.9-0.2,1.9-0.3,2.8-0.1
			l1.5,0.3c0.4,0.1,0.6,0.4,0.5,0.8c0,0,0,0,0,0c0,0.1-0.1,0.3-0.2,0.4c0.3,0.2,0.5,0.6,0.3,0.9c-0.1,0.3-0.5,0.4-0.8,0.3h-0.1
			c0,0.1,0,0.3,0,0.4c-0.1,0.4-0.4,0.6-0.8,0.5c0,0,0,0,0,0l-1.8-0.4l0.6,0.6c0.3,0.3,0.3,0.7,0,1s-0.7,0.3-1,0l-0.5-0.5
			c-0.2,0.3-0.5,0.5-0.8,0.7l-1.4,0.5c-0.4,0.2-1,0.3-1.4,0.3l-1.8-0.2L184.7,82.2z"/>
		<path class="st0" d="M211,80.3c0.1-0.4,0.4-0.6,0.8-0.6l0,0c0.4,0.1,0.6,0.4,0.6,0.8l-0.3,1.9c-0.1,0.4-0.4,0.8-0.8,0.7l0,0
			c-0.4-0.1-0.6-0.4-0.5-0.8c0,0,0,0,0,0L211,80.3z"/>
		<path class="st8" d="M218.9,93.1h-31.2c-0.9,0-1.6-0.7-1.6-1.6h34.4C220.5,92.4,219.8,93.1,218.9,93.1z"/>
		<path class="st1" d="M186.7,90.9c0-0.2,0.2-0.4,0.4-0.4h1.1c0.2,0,0.4,0.2,0.4,0.4h0.8c0-0.2,0.2-0.4,0.4-0.4h1.1
			c0.2,0,0.4,0.2,0.4,0.4h0.6v-0.1c0-0.2,0.2-0.4,0.4-0.4h1.1c0.2,0,0.4,0.2,0.4,0.4c0,0,0,0,0,0.1h26.6v0.6h-34.2v-0.6H186.7z"/>
		<path class="st1" d="M194.9,72.2h25.8c0.9,0,1.6,0.7,1.6,1.6v16.2c0,0.9-0.7,1.6-1.6,1.6h-25.8c-0.9,0-1.6-0.7-1.6-1.6V73.8
			C193.3,72.9,194,72.2,194.9,72.2z"/>
		<path class="st14" d="M215.3,72.2l7,7v10.8c0,0.9-0.7,1.6-1.6,1.6l0,0h-1.1l-19.3-19.4H215.3z"/>
		<path class="st14" d="M194.9,72.2h2.6L217,91.5h-5.1l-18.4-18.4C193.7,72.6,194.3,72.2,194.9,72.2z"/>
		<path class="st8" d="M205.8,81.2c0,1.1,0.9,2,2,2s2-0.9,2-2s-0.9-2-2-2S205.8,80.1,205.8,81.2z"/>
		<path class="st0" d="M222.1,77.8l-2.3,0.1c-0.4,0-0.7,0.3-0.6,0.7c0,0.3,0.2,0.5,0.5,0.6h-0.3c-0.4,0-0.7,0.3-0.6,0.7
			c0,0.2,0.1,0.4,0.3,0.6c-0.2,0.1-0.3,0.3-0.4,0.5c0,0.4,0.2,0.7,0.6,0.7c0,0,0,0,0,0h0.1c-0.2,0.1-0.3,0.2-0.3,0.4
			c-0.1,0.4,0.1,0.7,0.5,0.8c0,0,0,0,0,0l1.3,0.6c1.7,0.5,2.7-0.4,2.7-1v-3.4c0-0.7-0.5-1.3-1.2-1.3
			C222.2,77.8,222.1,77.8,222.1,77.8z"/>
	</g>
</g>
</svg>
