<svg xmlns="http://www.w3.org/2000/svg" viewBox="0 0 204.2 116.41"><defs><style>.cls-1{fill:#ffa970;}.cls-2{fill:#696372;}.cls-3{fill:#e2514c;}.cls-4{fill:#d0c8db;}.cls-5{fill:#eae4f4;}.cls-6{fill:#b9accc;}.cls-7{fill:#817199;}.cls-8{fill:#f59157;}.cls-9{fill:#514b59;}.cls-10{fill:#a393ba;}.cls-11{fill:#ffc0c0;}.cls-12{fill:#ffd9d9;}.cls-13{fill:#d16333;}.cls-14{fill:#e87c46;}.cls-15{fill:#807a89;}.cls-16{fill:#c74848;}.cls-17{fill:#fff;}</style></defs><title>mr-buddy-message_1</title><g id="Layer_2" data-name="Layer 2"><g id="Layer_1-2" data-name="Layer 1"><path class="cls-1" d="M19.29,43.44a2.49,2.49,0,1,0,2.48-2.32A2.41,2.41,0,0,0,19.29,43.44Z"/><path class="cls-2" d="M38.09,47.49H36.86V39.61h1.23a.78.78,0,0,1,.79.78V46.7A.79.79,0,0,1,38.09,47.49Z"/><path class="cls-3" d="M52.53,75.62a33.45,33.45,0,0,0,10.52-1.93l-1.66-4.42c-2.25.84-9,2.65-13.29.89-4.92-2-8.18-8.93-8.92-11.42l-4.26,1.34c.14.46,3.4,11.17,11.38,14.45A16.5,16.5,0,0,0,52.53,75.62Z"/><path class="cls-4" d="M18.63,88.29H8.81C4,88.29,0,84.78,0,80.45V67.75c0-4.33,4-7.84,8.81-7.84h9.82c4.87,0,6.16,1.86,6.16,6.19V82.81C24.79,87.14,23.5,88.29,18.63,88.29Z"/><path class="cls-4" d="M38.79,102.1l.85-16.22H8.79v7.75l5,8.22c2.75,4.54,3.91,8.14,2.28,10.8l-2.7,3.64H44.49Z"/><path class="cls-5" d="M44.65,91.46V96c0,6.48-8.4,11.74-15.94,11.74S15.06,102.44,15.06,96v-4.5Z"/><rect class="cls-4" x="15.06" y="93.52" width="29.59" height="2.02"/><path class="cls-5" d="M23.78,88.29H14c-4.87,0-8.81-3.51-8.81-7.84V67.75c0-4.33,3.94-7.84,8.81-7.84h9.82c4.86,0,6.15,1.86,6.15,6.19V82.81C29.93,87.14,28.64,88.29,23.78,88.29Z"/><path class="cls-6" d="M7.27,71.55c0,9.24,6,16.74,13.31,16.74s13.31-7.5,13.31-16.74-6-16.74-13.31-16.74S7.27,62.3,7.27,71.55Z"/><path class="cls-4" d="M9.77,71.55c0,9.24,6,16.74,13.3,16.74s13.31-7.5,13.31-16.74-6-16.74-13.31-16.74S9.77,62.3,9.77,71.55Z"/><polygon class="cls-7" points="47.2 105.59 41.75 104.17 33.8 104.17 30.65 104.17 30.37 106.56 35.85 108.3 47.2 105.59"/><polygon class="cls-8" points="41.81 110.07 42.86 111.1 48.89 113.87 48.89 114.8 37.86 114.8 37.86 110.07 41.81 110.07"/><path class="cls-9" d="M43.89,110.29c3.36,0,6.09,1.91,6.09,4.28H43.89Z"/><path class="cls-9" d="M37.75,116.29H49.07a.89.89,0,0,0,.91-.86v-.86H36.84v.86A.88.88,0,0,0,37.75,116.29Z"/><polygon class="cls-1" points="33.08 110.07 34.14 111.1 40.17 113.87 40.17 114.8 29.14 114.8 29.14 110.07 33.08 110.07"/><path class="cls-9" d="M35.17,110.29c3.36,0,6.09,1.91,6.09,4.28H35.17Z"/><path class="cls-9" d="M29,116.29H40.35a.89.89,0,0,0,.91-.86v-.86H28.11v.86A.89.89,0,0,0,29,116.29Z"/><path class="cls-8" d="M34.85,83.45H46.21c4.35,0,6.39,3.2,4.57,7.14l-9,19.48h-4L42,93.48h-4l1.34-2.89C41.24,86.65,39.19,83.45,34.85,83.45Z"/><path class="cls-1" d="M24.08,93.48A10.12,10.12,0,0,1,13.84,83.31l.77-7.4h10L37.21,83.3l0,.15h.23c4.35,0,6.39,3.2,4.56,7.14L40.7,93.48h-.05l-3.06,6.7-4.51,9.89H29.13l4.28-16.6Z"/><path class="cls-3" d="M32,54.45h-10c-4,0-7.33,1.65-7.65,6.7l-.45,22.3h23.4l2.4-22.3C39.31,56.1,36,54.45,32,54.45Z"/><rect class="cls-1" x="22.99" y="47.54" width="8.99" height="7.71"/><path class="cls-1" d="M23,55.25a4.33,4.33,0,0,0,4.49,4.16,4.18,4.18,0,1,0,0-8.33A4.33,4.33,0,0,0,23,55.25Z"/><polygon class="cls-8" points="31.96 50.22 22.98 54.47 22.98 47.59 31.96 47.59 31.96 50.22"/><polygon class="cls-10" points="43.15 111.63 35.17 112.96 27.52 111.69 28.11 107.98 28.27 104.83 30.65 104.17 30.37 106.56 35.85 108.3 41.86 106.38 47.2 105.59 48.2 108.57 47.2 109.48 48.61 111.86 43.15 111.63"/><polygon class="cls-7" points="45.1 111.71 42.7 108.3 43.15 111.63 45.1 111.71"/><polygon class="cls-7" points="37.32 112.6 37.03 110.5 38.33 112.43 37.32 112.6"/><path class="cls-5" d="M7.37,88.29H34.64l-1.23,5.18h-26a2.59,2.59,0,1,1,0-5.18Z"/><rect class="cls-11" x="4.9" y="105.91" width="9.19" height="10.38"/><rect class="cls-12" x="9.5" y="105.91" width="9.19" height="10.38"/><path class="cls-1" d="M21.83,76.77a25.19,25.19,0,0,0,4.91-.59l-.6-3.87c-2.65.38-10.25.73-13.5-2.09L9.55,73.79C12.89,76.69,18,76.77,21.83,76.77Z"/><path class="cls-3" d="M12.64,70.22a4.33,4.33,0,0,1-1.49-3.5c0-7.29,9.46-7.42,9.86-7.42l.93-4.85A22.82,22.82,0,0,0,14,56C9.2,58.11,6.43,61.75,6.43,66.72a9.08,9.08,0,0,0,3.12,7.07Z"/><rect class="cls-5" x="56.27" y="87.15" width="0.77" height="23.3"/><path class="cls-5" d="M55.85,91.3a.81.81,0,0,0,.81.81h0a.81.81,0,0,0,.8-.81V87.16a.8.8,0,0,0-.8-.81h0a.81.81,0,0,0-.81.81Z"/><path class="cls-5" d="M52.72,109.49A2.24,2.24,0,0,1,55,107.24h3.4a2.24,2.24,0,0,1,2.24,2.25v6.92H52.72Z"/><rect class="cls-5" x="54.05" y="105.87" width="5.22" height="5.17" rx="0.8"/><polygon class="cls-2" points="30.84 81.86 31.1 81.86 30.38 66.95 30.12 66.95 30.84 81.86"/><path class="cls-2" d="M30.27,67.17l.1-.16c6.48-11,7.11-17.67,7.11-17.74l-.26,0c0,.07-.62,6.62-7,17.48-.87-1.13-8-8.31-9.33-19l-.26,0C21.94,59.11,30.08,67,30.14,67Z"/><path class="cls-6" d="M20.61,39.92v7.87a1.29,1.29,0,0,1-1.28-1.3V41.22A1.29,1.29,0,0,1,20.61,39.92Z"/><path class="cls-2" d="M18.33,42.28c.1-3.52,1.12-6.28,3.06-8.18s4.92-3.27,9.08-3a8.85,8.85,0,0,1,6,2.78c3.14,3.57,2.19,9.39,2.16,9.65l-1-.12c0-.06.92-5.67-1.91-8.9a7.66,7.66,0,0,0-5.2-2.36c-3.84-.26-6.48.84-8.33,2.66s-2.75,4.49-2.75,8v2.38c0,.44-.24.79-.53.79s-.52-.35-.52-.79v-3Z"/><path class="cls-1" d="M21.92,44.23c-.24-5.62-.15-7.72,1.92-9.87a10.32,10.32,0,0,1,5.95-2.42h.54A9.65,9.65,0,0,1,36,34.36c2.07,2.15,2.16,4.25,1.92,9.87.24,5.62-1.88,6.93-4,9.08a4.52,4.52,0,0,1-6.26,0C25.63,51.16,21.68,49.85,21.92,44.23Z"/><circle class="cls-2" cx="29.45" cy="43.55" r="0.95"/><path class="cls-2" d="M34.16,43.55a1,1,0,1,0,1-1A.95.95,0,0,0,34.16,43.55Z"/><polygon class="cls-13" points="30.59 42.31 26.48 41.44 27.43 40.63 30.95 41.28 30.59 42.31"/><polygon class="cls-13" points="34.03 42.23 38.01 41.47 36.99 40.65 33.71 41.18 34.03 42.23"/><path class="cls-13" d="M36.86,48l-1.54,1.28-1.11-2.14h-5l-1.83,2.36-3.95-2.28-.25-3-1.1-1.13-.31,6.91,6.91,4.4h4.09l5-4.27,0-3.69ZM24.67,50.77h0Z"/><polygon class="cls-1" points="30.12 48.22 33.92 48.22 34.42 49.58 33.94 50.29 31.91 50.96 29.9 50.29 29.41 49.33 30.12 48.22"/><path class="cls-14" d="M29.93,49.31a.52.52,0,0,0,.53.52h2.91a.52.52,0,0,0,.52-.52h0a.52.52,0,0,0-.52-.52H30.46a.52.52,0,0,0-.53.52Z"/><path class="cls-2" d="M21.84,47.8H20.61V39.92h1.23a.79.79,0,0,1,.79.79V47A.79.79,0,0,1,21.84,47.8Z"/><path class="cls-1" d="M25.9,72.53a2.32,2.32,0,0,1,.57-.49l.8-.44a13.25,13.25,0,0,1,2.21-.84l.88-.25a7.15,7.15,0,0,1,2.84-.1l1.53.32a.68.68,0,0,1,.53.82.72.72,0,0,1-.2.36.68.68,0,0,1,.35.74.7.7,0,0,1-.82.54l-.13,0a.68.68,0,0,1,0,.4.69.69,0,0,1-.82.54l-1.8-.37.59.56a.69.69,0,0,1,0,1,.69.69,0,0,1-1,0L31,74.83a2.07,2.07,0,0,1-.77.66l-1.4.53a2.38,2.38,0,0,1-1.45.25L25.61,76Z"/><path class="cls-1" d="M52.22,70.65a.67.67,0,0,1,.78-.54h0a.67.67,0,0,1,.54.78l-.32,1.89c-.07.37-.42.75-.78.68h0a.67.67,0,0,1-.55-.78Z"/><path class="cls-9" d="M60.1,83.45H28.87a1.59,1.59,0,0,1-1.59-1.59H61.69A1.59,1.59,0,0,1,60.1,83.45Z"/><path class="cls-2" d="M27.85,81.22a.37.37,0,0,1,.37-.37h1.12a.36.36,0,0,1,.37.37h.81a.36.36,0,0,1,.37-.37H32a.37.37,0,0,1,.37.37H33v0a.36.36,0,0,1,.37-.37h1.12a.37.37,0,0,1,.37.37.43.43,0,0,0,0,0H61.46v.64H27.28v-.64Z"/><rect class="cls-2" x="34.51" y="62.49" width="29.03" height="19.37" rx="1.6"/><path class="cls-15" d="M56.5,62.49l7,7V80.25a1.61,1.61,0,0,1-1.6,1.61H60.88L41.51,62.49Z"/><path class="cls-15" d="M36.11,62.49h2.66L58.14,81.86H53L34.63,63.48A1.6,1.6,0,0,1,36.11,62.49Z"/><path class="cls-9" d="M47,71.48a2,2,0,1,0,2-2A2,2,0,0,0,47,71.48Z"/><path class="cls-1" d="M63.24,68.16c-.1,0-2.26.13-2.26.13a.67.67,0,0,0-.17,1.31l-.32,0a.67.67,0,0,0-.65.7.66.66,0,0,0,.34.55.65.65,0,0,0-.35.52.67.67,0,0,0,.6.74l.08,0a.64.64,0,0,0-.33.42.68.68,0,0,0,.49.82l1.28.55c1.71.5,2.73-.38,2.66-1V69.47A1.24,1.24,0,0,0,63.24,68.16Z"/><rect class="cls-16" x="55.46" width="148.74" height="43.25" rx="5.04"/><polygon class="cls-16" points="55.46 28.8 45.35 45.77 55.46 38.21 55.46 28.8"/><path class="cls-17" d="M72.48,15.7a1.16,1.16,0,0,0-.49-1,3.8,3.8,0,0,0-1.47-.58A6.67,6.67,0,0,1,69,13.67a2.07,2.07,0,0,1-.8-.66,1.64,1.64,0,0,1-.27-.95,1.77,1.77,0,0,1,.73-1.44,3,3,0,0,1,1.88-.57,3,3,0,0,1,2,.61,2,2,0,0,1,.75,1.59h-.82a1.34,1.34,0,0,0-.54-1.08,2.2,2.2,0,0,0-1.37-.43,2.15,2.15,0,0,0-1.3.36,1.12,1.12,0,0,0-.49.93,1,1,0,0,0,.41.86,4.13,4.13,0,0,0,1.48.56,7.19,7.19,0,0,1,1.62.54,2.08,2.08,0,0,1,.79.69,1.71,1.71,0,0,1,.26,1,1.76,1.76,0,0,1-.75,1.49,3.21,3.21,0,0,1-2,.57,3.27,3.27,0,0,1-2.09-.63,1.91,1.91,0,0,1-.8-1.58h.82a1.39,1.39,0,0,0,.6,1.11,2.44,2.44,0,0,0,1.47.4A2.38,2.38,0,0,0,72,16.65,1.13,1.13,0,0,0,72.48,15.7Z"/><path class="cls-17" d="M86.06,14.07a5.59,5.59,0,0,1-.36,1.86,3,3,0,0,1-.93,1.32,2.15,2.15,0,0,1-1.37.47,1.65,1.65,0,0,1-1.08-.35,1.77,1.77,0,0,1-.56-1,2.26,2.26,0,0,1-2,1.33,1.54,1.54,0,0,1-1.43-.83A3.79,3.79,0,0,1,78,14.66a6.06,6.06,0,0,1,.51-2,3.49,3.49,0,0,1,1.06-1.36,2.32,2.32,0,0,1,1.4-.49,2.57,2.57,0,0,1,.92.15,3.54,3.54,0,0,1,.92.59l-.35,3.9a2.09,2.09,0,0,0,.21,1.24.93.93,0,0,0,.86.43,1.55,1.55,0,0,0,1.36-.82,4.48,4.48,0,0,0,.59-2.23,5.89,5.89,0,0,0-1.05-4.17,4.42,4.42,0,0,0-3.59-1.4,4.85,4.85,0,0,0-2.6.72,5,5,0,0,0-1.83,2,7.61,7.61,0,0,0-.75,3,7.06,7.06,0,0,0,.46,3,4.14,4.14,0,0,0,1.62,2,4.61,4.61,0,0,0,2.58.7,5.05,5.05,0,0,0,1.23-.15,3.75,3.75,0,0,0,1-.39l.22.55a3.8,3.8,0,0,1-1.09.43,5.68,5.68,0,0,1-1.41.18,5.46,5.46,0,0,1-2.94-.77,4.71,4.71,0,0,1-1.84-2.22,7.64,7.64,0,0,1-.53-3.38,7.87,7.87,0,0,1,.84-3.37,5.46,5.46,0,0,1,5-3.07,5.56,5.56,0,0,1,3,.73,4.31,4.31,0,0,1,1.8,2.13A7.85,7.85,0,0,1,86.06,14.07Zm-7.39,1.56a2.05,2.05,0,0,0,.39,1.06,1,1,0,0,0,.81.37c.84,0,1.47-.58,1.87-1.75l.31-3.53A1.77,1.77,0,0,0,81,11.44a1.71,1.71,0,0,0-1.31.61,3.79,3.79,0,0,0-.82,1.67A5.65,5.65,0,0,0,78.67,15.63Z"/><path class="cls-17" d="M92,14.78H89.86l-.53,2.8h-.67l.52-2.8H87.44v-.64H89.3l.57-3H88v-.66h2l.54-2.84h.68l-.54,2.84h2.15l.54-2.84H94l-.54,2.84h1.57v.66H93.38l-.57,3h1.74v.64H92.69l-.53,2.8h-.68Zm-2-.64h2.16l.57-3H90.54Z"/><path class="cls-17" d="M101.16,15.12a1.71,1.71,0,0,0-.49-1.24A4.89,4.89,0,0,0,98.93,13a5.1,5.1,0,0,1-2.17-1.15,2.46,2.46,0,0,1-.62-1.73,2.47,2.47,0,0,1,.68-1.8,2.8,2.8,0,0,1,1.86-.79V6.11h.7V7.5a2.62,2.62,0,0,1,1.86.89,3.27,3.27,0,0,1,.66,2.15h-.81a2.49,2.49,0,0,0-.56-1.7A1.93,1.93,0,0,0,99,8.21a2.11,2.11,0,0,0-1.51.51A1.78,1.78,0,0,0,97,10.08a1.68,1.68,0,0,0,.5,1.28,4.89,4.89,0,0,0,1.7.87,7.64,7.64,0,0,1,1.75.78,2.5,2.5,0,0,1,.81.88,2.58,2.58,0,0,1,.27,1.22,2.41,2.41,0,0,1-.7,1.81,3,3,0,0,1-1.93.78V19h-.69V17.71a3.11,3.11,0,0,1-2.12-.87,2.9,2.9,0,0,1-.75-2.12h.82a2.2,2.2,0,0,0,.62,1.67A2.34,2.34,0,0,0,99,17a2.41,2.41,0,0,0,1.59-.52A1.73,1.73,0,0,0,101.16,15.12Z"/><path class="cls-17" d="M103.8,17.1a.57.57,0,0,1,.15-.4.53.53,0,0,1,.41-.16.54.54,0,0,1,.42.16.57.57,0,0,1,.15.4.52.52,0,0,1-.15.38.57.57,0,0,1-.42.15.56.56,0,0,1-.41-.15A.52.52,0,0,1,103.8,17.1Zm.9-2.3h-.76l0-7.17h.85Z"/><path class="cls-17" d="M112.42,14.89l.3,1.55L113.1,15l2.16-7.33H116L118.15,15l.37,1.49.33-1.56,1.8-7.26h.86l-2.55,10h-.81L115.9,9.79l-.26-1-.24,1-2.31,7.79h-.81l-2.54-9.95h.86Z"/><path class="cls-17" d="M126.21,10.88a3.21,3.21,0,0,0-.55-.05,2,2,0,0,0-1.3.43,2.34,2.34,0,0,0-.75,1.24v5.08h-.82v-7.4h.8l0,1.18a2.16,2.16,0,0,1,2.08-1.31,1.54,1.54,0,0,1,.54.08Z"/><path class="cls-17" d="M126.92,13.77a4.29,4.29,0,0,1,.41-1.92,3.23,3.23,0,0,1,1.17-1.33,3.1,3.1,0,0,1,1.71-.47,3,3,0,0,1,2.39,1,4,4,0,0,1,.92,2.75V14a4.48,4.48,0,0,1-.41,1.93,3.14,3.14,0,0,1-1.17,1.32,3.19,3.19,0,0,1-1.72.47,3,3,0,0,1-2.38-1,4,4,0,0,1-.92-2.74Zm.82.23a3.37,3.37,0,0,0,.68,2.17,2.33,2.33,0,0,0,3.6,0,3.43,3.43,0,0,0,.69-2.24v-.16a3.77,3.77,0,0,0-.32-1.55,2.52,2.52,0,0,0-.88-1.09,2.24,2.24,0,0,0-1.3-.39,2.18,2.18,0,0,0-1.78.86,3.47,3.47,0,0,0-.69,2.25Z"/><path class="cls-17" d="M136,10.18l0,1.27a3,3,0,0,1,1-1,2.83,2.83,0,0,1,1.38-.35,2.21,2.21,0,0,1,1.77.67,3,3,0,0,1,.59,2v4.85H140V12.72a2.23,2.23,0,0,0-.42-1.48,1.64,1.64,0,0,0-1.32-.48,2,2,0,0,0-1.34.47,2.87,2.87,0,0,0-.87,1.28v5.07h-.81v-7.4Z"/><path class="cls-17" d="M142.57,13.81a4.47,4.47,0,0,1,.77-2.75,2.47,2.47,0,0,1,2.09-1,2.56,2.56,0,0,1,2.29,1.2l.05-1.07h.76v7.25a3.15,3.15,0,0,1-.8,2.26,2.83,2.83,0,0,1-2.17.83,3.3,3.3,0,0,1-1.47-.34,2.86,2.86,0,0,1-1.1-.92l.46-.49a2.56,2.56,0,0,0,2.06,1.06,2.11,2.11,0,0,0,1.6-.6,2.4,2.4,0,0,0,.59-1.68v-.93a2.63,2.63,0,0,1-2.29,1.1,2.48,2.48,0,0,1-2.06-1,4.47,4.47,0,0,1-.78-2.77Zm.83.15a3.94,3.94,0,0,0,.56,2.23,1.85,1.85,0,0,0,1.6.81,2.19,2.19,0,0,0,2.14-1.35V12.21a2.33,2.33,0,0,0-.82-1.08,2.23,2.23,0,0,0-1.3-.37,1.86,1.86,0,0,0-1.61.81A4.13,4.13,0,0,0,143.4,14Z"/><path class="cls-17" d="M156.93,17.72a3.2,3.2,0,0,1-1.7-.47A3.16,3.16,0,0,1,154,16a4.11,4.11,0,0,1-.42-1.87V13.8a4.29,4.29,0,0,1,.41-1.92,3.38,3.38,0,0,1,1.15-1.35,2.88,2.88,0,0,1,1.6-.48,2.68,2.68,0,0,1,2.14.91,3.8,3.8,0,0,1,.79,2.52v.46h-5.28v.15a3.11,3.11,0,0,0,.72,2.1A2.29,2.29,0,0,0,157,17,2.37,2.37,0,0,0,159,16l.51.39A3,3,0,0,1,156.93,17.72Zm-.15-7a2,2,0,0,0-1.55.68,3.13,3.13,0,0,0-.77,1.82h4.43v-.09a2.73,2.73,0,0,0-.6-1.74A1.93,1.93,0,0,0,156.78,10.74Z"/><path class="cls-17" d="M162.05,10.18l0,1.21a2.76,2.76,0,0,1,1-1,2.83,2.83,0,0,1,1.37-.33,2.07,2.07,0,0,1,2.22,1.43,2.77,2.77,0,0,1,1.06-1.06,2.91,2.91,0,0,1,1.46-.37c1.59,0,2.4.86,2.43,2.59v4.94h-.82V12.7a2.24,2.24,0,0,0-.43-1.47,1.77,1.77,0,0,0-1.37-.47,2.17,2.17,0,0,0-1.49.57,2,2,0,0,0-.68,1.35v4.9H166V12.64a2,2,0,0,0-.45-1.42,1.77,1.77,0,0,0-1.35-.46,2,2,0,0,0-1.33.44,2.58,2.58,0,0,0-.82,1.31v5.07h-.82v-7.4Z"/><path class="cls-17" d="M178.38,17.58a3.82,3.82,0,0,1-.16-1,2.84,2.84,0,0,1-1.1.86,3.38,3.38,0,0,1-1.41.31,2.48,2.48,0,0,1-1.73-.6,2,2,0,0,1-.65-1.5,2,2,0,0,1,.89-1.71,4.33,4.33,0,0,1,2.51-.63h1.48v-.84a1.61,1.61,0,0,0-.49-1.25,2,2,0,0,0-1.42-.45,2.26,2.26,0,0,0-1.42.43,1.32,1.32,0,0,0-.56,1.06h-.82a1.92,1.92,0,0,1,.82-1.53,3.17,3.17,0,0,1,2-.64,2.88,2.88,0,0,1,1.95.61,2.25,2.25,0,0,1,.74,1.73v3.5a4.39,4.39,0,0,0,.22,1.61v.08ZM175.81,17a2.69,2.69,0,0,0,1.46-.4,2.25,2.25,0,0,0,.94-1.06V13.91h-1.46a3.64,3.64,0,0,0-1.91.45,1.32,1.32,0,0,0-.69,1.19,1.31,1.31,0,0,0,.46,1A1.73,1.73,0,0,0,175.81,17Z"/><path class="cls-17" d="M181.16,8.05a.57.57,0,0,1,1-.39.5.5,0,0,1,.16.39.49.49,0,0,1-.16.38.61.61,0,0,1-.82,0A.52.52,0,0,1,181.16,8.05Zm1,9.53h-.82v-7.4h.82Z"/><path class="cls-17" d="M185.26,17.58h-.82V7.08h.82Z"/><path class="cls-17" d="M67.6,30.57A4.43,4.43,0,0,1,68,28.65a3.23,3.23,0,0,1,1.17-1.33,3.15,3.15,0,0,1,1.72-.47,3,3,0,0,1,2.39,1,4,4,0,0,1,.91,2.75v.17a4.34,4.34,0,0,1-.41,1.93,3.12,3.12,0,0,1-1.16,1.32,3.24,3.24,0,0,1-1.72.47,3,3,0,0,1-2.39-1,4,4,0,0,1-.92-2.75Zm.82.23A3.32,3.32,0,0,0,69.11,33a2.2,2.2,0,0,0,1.8.85A2.17,2.17,0,0,0,72.7,33a3.43,3.43,0,0,0,.69-2.24v-.16A3.77,3.77,0,0,0,73.08,29a2.54,2.54,0,0,0-.89-1.09,2.31,2.31,0,0,0-3.08.47,3.47,3.47,0,0,0-.69,2.25Z"/><path class="cls-17" d="M79.31,27.68a3.21,3.21,0,0,0-.55-.05,2,2,0,0,0-1.3.43,2.34,2.34,0,0,0-.75,1.24v5.08h-.82V27h.8l0,1.18a2.15,2.15,0,0,1,2.08-1.31,1.34,1.34,0,0,1,.54.08Z"/><path class="cls-17" d="M90,30.76a4.45,4.45,0,0,1-.76,2.74,2.44,2.44,0,0,1-2,1,2.76,2.76,0,0,1-2.33-1.07v3.77H84V27h.76l0,1.05a2.62,2.62,0,0,1,2.32-1.18,2.45,2.45,0,0,1,2.08,1A4.58,4.58,0,0,1,90,30.64Zm-.82-.15a3.76,3.76,0,0,0-.58-2.23,1.85,1.85,0,0,0-1.62-.82A2.16,2.16,0,0,0,84.81,29v3.55a2.22,2.22,0,0,0,.84,1,2.49,2.49,0,0,0,1.3.33A1.87,1.87,0,0,0,88.56,33,4.18,4.18,0,0,0,89.13,30.61Z"/><path class="cls-17" d="M96.43,34.38a3.89,3.89,0,0,1-.15-1,2.91,2.91,0,0,1-1.1.86,3.38,3.38,0,0,1-1.41.31,2.48,2.48,0,0,1-1.73-.6,1.94,1.94,0,0,1-.66-1.5,2,2,0,0,1,.9-1.71,4.33,4.33,0,0,1,2.51-.63h1.48v-.84A1.61,1.61,0,0,0,95.78,28a2,2,0,0,0-1.42-.45,2.26,2.26,0,0,0-1.42.43A1.32,1.32,0,0,0,92.38,29h-.82a1.89,1.89,0,0,1,.82-1.53,3.17,3.17,0,0,1,2-.64,2.9,2.9,0,0,1,1.95.61,2.21,2.21,0,0,1,.73,1.73v3.5a4.36,4.36,0,0,0,.23,1.61v.08Zm-2.57-.59a2.7,2.7,0,0,0,1.47-.4,2.3,2.3,0,0,0,.94-1.06V30.71H94.81a3.68,3.68,0,0,0-1.92.45,1.32,1.32,0,0,0-.69,1.19,1.34,1.34,0,0,0,.46,1A1.76,1.76,0,0,0,93.86,33.79Z"/><path class="cls-17" d="M103.69,32.5a1.18,1.18,0,0,0-.48-1,3.76,3.76,0,0,0-1.48-.58,7,7,0,0,1-1.53-.48,2.06,2.06,0,0,1-.8-.65,1.64,1.64,0,0,1-.27-.95,1.76,1.76,0,0,1,.74-1.44,2.94,2.94,0,0,1,1.87-.57,3.05,3.05,0,0,1,2,.61,2,2,0,0,1,.74,1.59h-.82a1.34,1.34,0,0,0-.54-1.08,2.18,2.18,0,0,0-1.37-.43,2.15,2.15,0,0,0-1.3.36,1.11,1.11,0,0,0-.48.93,1,1,0,0,0,.4.86,4.4,4.4,0,0,0,1.49.56,7.25,7.25,0,0,1,1.61.54,2,2,0,0,1,.79.69,1.71,1.71,0,0,1,.26,1,1.76,1.76,0,0,1-.75,1.49,3.18,3.18,0,0,1-2,.57,3.32,3.32,0,0,1-2.1-.63,1.93,1.93,0,0,1-.8-1.58h.82a1.39,1.39,0,0,0,.6,1.11,2.49,2.49,0,0,0,1.48.4,2.32,2.32,0,0,0,1.38-.37A1.13,1.13,0,0,0,103.69,32.5Z"/><path class="cls-17" d="M110.78,32.5a1.16,1.16,0,0,0-.49-1,3.65,3.65,0,0,0-1.47-.58,7,7,0,0,1-1.53-.48,2.06,2.06,0,0,1-.8-.65,1.64,1.64,0,0,1-.27-.95,1.76,1.76,0,0,1,.74-1.44,2.94,2.94,0,0,1,1.87-.57,3,3,0,0,1,2,.61,2,2,0,0,1,.75,1.59h-.82A1.34,1.34,0,0,0,110.2,28a2.18,2.18,0,0,0-1.37-.43,2.15,2.15,0,0,0-1.3.36,1.12,1.12,0,0,0-.49.93,1,1,0,0,0,.41.86,4.41,4.41,0,0,0,1.48.56,7.19,7.19,0,0,1,1.62.54,2,2,0,0,1,.79.69,1.71,1.71,0,0,1,.26,1,1.76,1.76,0,0,1-.75,1.49,3.2,3.2,0,0,1-2,.57,3.3,3.3,0,0,1-2.1-.63,1.93,1.93,0,0,1-.8-1.58h.82a1.39,1.39,0,0,0,.6,1.11,2.47,2.47,0,0,0,1.48.4,2.32,2.32,0,0,0,1.38-.37A1.13,1.13,0,0,0,110.78,32.5Z"/><path class="cls-17" d="M115.21,32.68l.13.63.16-.67L117.28,27H118l1.76,5.61.19.78.16-.71L121.6,27h.85l-2.16,7.4h-.7l-1.9-5.87-.08-.4-.09.41-1.87,5.86H115L112.81,27h.84Z"/><path class="cls-17" d="M123.55,30.57a4.29,4.29,0,0,1,.41-1.92,3.23,3.23,0,0,1,1.17-1.33,3.1,3.1,0,0,1,1.71-.47,3,3,0,0,1,2.39,1,4,4,0,0,1,.92,2.75v.17a4.48,4.48,0,0,1-.41,1.93,3.14,3.14,0,0,1-1.17,1.32,3.19,3.19,0,0,1-1.72.47,3,3,0,0,1-2.38-1,4,4,0,0,1-.92-2.75Zm.82.23a3.37,3.37,0,0,0,.68,2.17,2.33,2.33,0,0,0,3.6,0,3.43,3.43,0,0,0,.69-2.24v-.16A3.77,3.77,0,0,0,129,29a2.52,2.52,0,0,0-.88-1.09,2.24,2.24,0,0,0-1.3-.39,2.18,2.18,0,0,0-1.78.86,3.47,3.47,0,0,0-.69,2.25Z"/><path class="cls-17" d="M135.26,27.68a3.33,3.33,0,0,0-.56-.05,2,2,0,0,0-1.29.43,2.29,2.29,0,0,0-.76,1.24v5.08h-.81V27h.8v1.18a2.17,2.17,0,0,1,2.09-1.31,1.4,1.4,0,0,1,.54.08Z"/><path class="cls-17" d="M136.09,30.61a4.46,4.46,0,0,1,.77-2.74,2.48,2.48,0,0,1,2.09-1A2.55,2.55,0,0,1,141.23,28V23.88H142v10.5h-.76l0-1a2.63,2.63,0,0,1-2.31,1.13,2.48,2.48,0,0,1-2.06-1,4.52,4.52,0,0,1-.78-2.78Zm.83.15a3.94,3.94,0,0,0,.56,2.23,1.85,1.85,0,0,0,1.6.81,2.2,2.2,0,0,0,2.15-1.33V29a2.18,2.18,0,0,0-2.13-1.44,1.86,1.86,0,0,0-1.61.81A4.13,4.13,0,0,0,136.92,30.76Z"/><path class="cls-17" d="M144,36.24l-.49-.36a2.89,2.89,0,0,0,.64-1.73V33.09h.8V34A3,3,0,0,1,144,36.24Z"/><path class="cls-17" d="M156.24,30.76a4.46,4.46,0,0,1-.77,2.74,2.45,2.45,0,0,1-2.06,1,2.68,2.68,0,0,1-2.34-1.15l0,1h-.77V23.88h.82v4.18a2.56,2.56,0,0,1,2.31-1.21,2.46,2.46,0,0,1,2.07,1,4.46,4.46,0,0,1,.77,2.78Zm-.82-.15a3.85,3.85,0,0,0-.57-2.26,1.85,1.85,0,0,0-1.6-.79,2.27,2.27,0,0,0-1.33.38,2.32,2.32,0,0,0-.83,1.13v3.34a2.18,2.18,0,0,0,2.17,1.39,1.81,1.81,0,0,0,1.58-.8A4.11,4.11,0,0,0,155.42,30.61Z"/><path class="cls-17" d="M162.8,33.44a2.65,2.65,0,0,1-2.36,1.08,2.29,2.29,0,0,1-1.8-.69,3,3,0,0,1-.63-2V27h.82v4.71c0,1.41.57,2.11,1.71,2.11a2.08,2.08,0,0,0,2.24-1.47V27h.82v7.4h-.79Z"/><path class="cls-17" d="M165.4,30.61a4.46,4.46,0,0,1,.77-2.74,2.48,2.48,0,0,1,2.09-1A2.55,2.55,0,0,1,170.54,28V23.88h.82v10.5h-.77l0-1a2.66,2.66,0,0,1-2.31,1.13,2.47,2.47,0,0,1-2.06-1,4.46,4.46,0,0,1-.79-2.78Zm.83.15A3.86,3.86,0,0,0,166.8,33a1.84,1.84,0,0,0,1.6.81,2.19,2.19,0,0,0,2.14-1.33V29a2.18,2.18,0,0,0-2.13-1.44,1.87,1.87,0,0,0-1.61.81A4.13,4.13,0,0,0,166.23,30.76Z"/><path class="cls-17" d="M173.18,30.61a4.46,4.46,0,0,1,.77-2.74,2.48,2.48,0,0,1,2.09-1A2.55,2.55,0,0,1,178.32,28V23.88h.82v10.5h-.77l0-1A2.66,2.66,0,0,1,176,34.52a2.5,2.5,0,0,1-2.07-1,4.52,4.52,0,0,1-.78-2.78Zm.83.15a3.86,3.86,0,0,0,.57,2.23,1.83,1.83,0,0,0,1.6.81,2.19,2.19,0,0,0,2.14-1.33V29a2.18,2.18,0,0,0-2.13-1.44,1.87,1.87,0,0,0-1.61.81A4.13,4.13,0,0,0,174,30.76Z"/><path class="cls-17" d="M183.63,33.2,185.79,27h.89l-3.16,8.66-.17.38a2,2,0,0,1-1.88,1.35,2.56,2.56,0,0,1-.63-.1v-.68l.42,0a1.52,1.52,0,0,0,1-.29,2.4,2.4,0,0,0,.63-1l.36-1L180.44,27h.9Z"/><path class="cls-17" d="M187.92,33.9a.57.57,0,0,1,.15-.4.61.61,0,0,1,.82,0,.54.54,0,0,1,.16.4.49.49,0,0,1-.16.38.64.64,0,0,1-.82,0A.52.52,0,0,1,187.92,33.9Zm.9-2.3h-.76l0-7.17h.84Z"/></g></g></svg>