<?xml version="1.0" encoding="utf-8"?>
<!-- Generator: Adobe Illustrator 23.0.2, SVG Export Plug-In . SVG Version: 6.00 Build 0)  -->
<svg version="1.1" id="Layer_1" xmlns="http://www.w3.org/2000/svg" xmlns:xlink="http://www.w3.org/1999/xlink" x="0px" y="0px"
	 viewBox="0 0 206.4 126.1" style="enable-background:new 0 0 206.4 126.1;" xml:space="preserve">
<style type="text/css">
	.st0{fill:#FFA970;}
	.st1{fill:#696372;}
	.st2{fill:#C4504B;}
	.st3{fill:#D0C8DB;}
	.st4{fill:#EAE4F4;}
	.st5{fill:#B9ACCC;}
	.st6{fill:#817199;}
	.st7{fill:#F59157;}
	.st8{fill:#514B59;}
	.st9{fill:#A393BA;}
	.st10{fill:#FFC0C0;}
	.st11{fill:#FFD9D9;}
	.st12{fill:#D16333;}
	.st13{fill:#E87C46;}
	.st14{fill:#807A89;}
</style>
<title>mr-buddy-message_3</title>
<g>
	<g id="Layer_1-2">
		<path class="st0" d="M161.1,53.1c-0.1,1.4,1,2.6,2.3,2.6s2.6-1,2.6-2.3c0.1-1.4-1-2.6-2.3-2.6c-0.1,0-0.1,0-0.2,0
			C162.3,50.8,161.1,51.8,161.1,53.1L161.1,53.1z"/>
		<path class="st1" d="M179.9,57.2h-1.2v-7.9h1.2c0.4,0,0.8,0.4,0.8,0.8v6.3C180.7,56.8,180.3,57.2,179.9,57.2L179.9,57.2z"/>
		<path class="st2" d="M194.4,85.3c3.6-0.1,7.1-0.7,10.5-1.9l-1.7-4.4c-2.3,0.8-9,2.7-13.3,0.9c-4.9-2-8.2-8.9-8.9-11.4l-4.3,1.3
			c0.1,0.4,3.4,11.2,11.4,14.4C190.1,85,192.2,85.4,194.4,85.3z"/>
		<path class="st3" d="M160.4,98h-9.8c-4.9,0-8.8-3.5-8.8-7.8V77.4c0-4.3,3.9-7.8,8.8-7.8h9.8c4.9,0,6.2,1.8,6.2,6.2v16.7
			C166.6,96.8,165.3,98,160.4,98z"/>
		<path class="st3" d="M180.6,111.8l0.9-16.2h-30.9v7.7l5,8.2c2.8,4.5,3.9,8.2,2.3,10.8l-2.7,3.6h31.1L180.6,111.8z"/>
		<path class="st4" d="M186.5,101.1v4.5c0,6.5-8.4,11.8-15.9,11.8s-13.6-5.3-13.6-11.8v-4.5H186.5z"/>
		<rect x="156.9" y="103.2" class="st3" width="29.6" height="2"/>
		<path class="st4" d="M165.6,98h-9.8c-4.9,0-8.8-3.5-8.8-7.8V77.4c0-4.3,3.9-7.8,8.8-7.8h9.8c4.9,0,6.2,1.8,6.2,6.2v16.7
			C171.8,96.8,170.5,98,165.6,98z"/>
		<path class="st5" d="M149.1,81.2c0,9.3,6,16.7,13.3,16.7s13.3-7.5,13.3-16.7s-6-16.7-13.3-16.7S149.1,72,149.1,81.2z"/>
		<path class="st3" d="M151.6,81.2c0,9.3,6,16.7,13.3,16.7s13.3-7.5,13.3-16.7s-6-16.7-13.3-16.7S151.6,72,151.6,81.2z"/>
		<polygon class="st6" points="189,115.3 183.6,113.9 175.6,113.9 172.5,113.9 172.2,116.2 177.7,118 		"/>
		<polygon class="st7" points="183.6,119.8 184.7,120.8 190.7,123.6 190.7,124.5 179.7,124.5 179.7,119.8 		"/>
		<path class="st8" d="M185.7,120c3.4,0,6.1,1.9,6.1,4.3h-6.1V120z"/>
		<path class="st8" d="M179.6,126h11.3c0.5,0,0.9-0.4,0.9-0.9v-0.9h-13.1v0.9C178.7,125.6,179.1,126,179.6,126z"/>
		<polygon class="st0" points="174.9,119.8 175.9,120.8 182,123.6 182,124.5 170.9,124.5 170.9,119.8 		"/>
		<path class="st8" d="M177,120c3.4,0,6.1,1.9,6.1,4.3H177V120z"/>
		<path class="st8" d="M170.8,126h11.3c0.5,0,0.9-0.4,0.9-0.9v-0.9h-13.1v0.9C169.9,125.6,170.3,126,170.8,126L170.8,126z"/>
		<path class="st7" d="M176.7,93.1H188c4.3,0,6.4,3.2,4.6,7.1l-9,19.5h-4l4.2-16.6h-4l1.3-2.9C183.1,96.3,181,93.1,176.7,93.1z"/>
		<path class="st0" d="M165.9,103.2c-5.6,0.1-10.2-4.4-10.2-10c0-0.1,0-0.1,0-0.2l0.8-7.4h10L179,93v0.2h0.2c4.4,0,6.4,3.2,4.6,7.1
			l-1.3,2.9l0,0l-3.1,6.7l-4.5,9.9h-4l4.3-16.6H165.9z"/>
		<path class="st2" d="M173.8,64.1h-10c-4,0-7.3,1.7-7.7,6.7l-0.4,22.3h23.4l2.4-22.3C181.1,65.8,177.8,64.1,173.8,64.1z"/>
		<rect x="164.8" y="57.2" class="st0" width="9" height="7.7"/>
		<path class="st0" d="M164.8,64.9c-0.2,2.5,1.7,4.6,4.2,4.8c2.5,0.2,4.6-1.7,4.8-4.2s-1.7-4.6-4.2-4.8c-0.1,0-0.2,0-0.3,0
			C166.9,60.7,164.9,62.5,164.8,64.9z"/>
		<polygon class="st7" points="173.8,59.9 164.8,64.2 164.8,57.3 173.8,57.3 		"/>
		<polygon class="st9" points="185,121.3 177,122.6 169.3,121.4 169.9,117.7 170.1,114.5 172.5,113.9 172.2,116.2 177.7,118 
			183.7,116.1 189,115.3 190,118.3 189,119.2 190.4,121.6 		"/>
		<polygon class="st6" points="186.9,121.4 184.5,118 185,121.3 		"/>
		<polygon class="st6" points="179.1,122.3 178.8,120.2 180.1,122.1 		"/>
		<path class="st4" d="M149.2,98h27.3l-1.2,5.2h-26c-1.4,0.1-2.7-1-2.8-2.4s1-2.7,2.4-2.8C149,98,149.1,98,149.2,98L149.2,98z"/>
		<rect x="146.7" y="115.6" class="st10" width="9.2" height="10.4"/>
		<rect x="151.3" y="115.6" class="st11" width="9.2" height="10.4"/>
		<path class="st0" d="M163.6,86.5c1.7,0,3.3-0.2,4.9-0.6L168,82c-2.6,0.4-10.3,0.7-13.5-2.1l-3.1,3.6
			C154.7,86.4,159.8,86.5,163.6,86.5z"/>
		<path class="st2" d="M154.5,79.9c-1-0.9-1.6-2.2-1.5-3.5c0-7.3,9.5-7.4,9.9-7.4l0.9-4.8c-2.7,0-5.4,0.5-7.9,1.5
			c-4.8,2.1-7.6,5.8-7.6,10.8c-0.1,2.7,1.1,5.3,3.1,7.1L154.5,79.9z"/>
		<rect x="198.1" y="96.8" class="st4" width="0.8" height="23.3"/>
		<path class="st4" d="M197.7,101c0,0.4,0.3,0.8,0.8,0.8l0,0l0,0c0.4,0,0.8-0.4,0.8-0.8v-4.2c0-0.4-0.4-0.8-0.8-0.8l0,0l0,0
			c-0.4,0-0.8,0.4-0.8,0.8l0,0V101z"/>
		<path class="st4" d="M194.5,119.2c0-1.2,1-2.2,2.2-2.2l0,0h3.4c1.2,0,2.2,1,2.2,2.2l0,0v6.9h-7.9v-6.9H194.5z"/>
		<path class="st4" d="M196.7,115.6h3.6c0.4,0,0.8,0.4,0.8,0.8v3.6c0,0.4-0.4,0.8-0.8,0.8h-3.6c-0.4,0-0.8-0.4-0.8-0.8v-3.6
			C195.9,115.9,196.2,115.6,196.7,115.6z"/>
		<polygon class="st1" points="172.6,91.5 172.9,91.5 172.2,76.6 171.9,76.6 		"/>
		<path class="st1" d="M172.1,76.9l0.1-0.2c6.5-11,7.1-17.7,7.1-17.7H179c0,0.1-0.6,6.6-7,17.5c-0.9-1.1-8-8.3-9.3-19h-0.3
			c1.3,11.3,9.4,19.2,9.5,19.2L172.1,76.9z"/>
		<path class="st5" d="M162.4,49.6v7.9c-0.7,0-1.3-0.6-1.3-1.3v-5.3C161.1,50.2,161.7,49.6,162.4,49.6L162.4,49.6z"/>
		<path class="st1" d="M160.1,52c0.1-3.5,1.1-6.3,3.1-8.2s4.9-3.3,9.1-3c2.3,0.1,4.4,1.1,6,2.8c3.1,3.6,2.2,9.4,2.2,9.7l-1-0.1
			c0-0.1,0.9-5.7-1.9-8.9c-1.4-1.4-3.2-2.3-5.2-2.3c-3.8-0.3-6.5,0.8-8.3,2.7s-2.8,4.5-2.8,8v2.4c0,0.4-0.2,0.8-0.5,0.8
			s-0.5-0.3-0.5-0.8L160.1,52L160.1,52z"/>
		<path class="st0" d="M163.7,53.9c-0.2-5.6-0.1-7.7,1.9-9.9c1.7-1.4,3.8-2.3,5.9-2.4h0.5c2.1,0.2,4.1,1,5.7,2.4
			c2.1,2.2,2.2,4.3,1.9,9.9c0.2,5.6-1.9,6.9-3.9,9.1c-1.7,1.7-4.5,1.7-6.3,0C167.4,60.8,163.5,59.5,163.7,53.9z"/>
		<circle class="st1" cx="171.3" cy="53.2" r="0.9"/>
		<path class="st1" d="M176,53.2c0,0.6,0.4,1,0.9,1c0.6,0,1-0.4,1-1s-0.4-1-0.9-1h-0.1C176.4,52.3,176,52.7,176,53.2z"/>
		<polygon class="st12" points="172.4,52 168.3,51.1 169.2,50.3 172.8,51 		"/>
		<polygon class="st12" points="175.8,51.9 179.8,51.2 178.8,50.3 175.5,50.9 		"/>
		<path class="st12" d="M178.7,57.7l-1.5,1.3l-1.1-2.1h-5l-1.8,2.4l-3.9-2.2l-0.3-3L164,53l-0.3,6.9l6.9,4.4h4.1l5-4.3v-3.7
			L178.7,57.7z"/>
		<polygon class="st0" points="171.9,57.9 175.7,57.9 176.2,59.3 175.8,60 173.7,60.7 171.7,60 171.2,59 		"/>
		<path class="st13" d="M171.8,59c0,0.3,0.2,0.5,0.5,0.5l0,0h2.9c0.3,0,0.5-0.2,0.5-0.5l0,0l0,0c0-0.3-0.2-0.5-0.5-0.5l0,0h-2.9
			C172,58.5,171.8,58.7,171.8,59L171.8,59z"/>
		<path class="st1" d="M163.7,57.5h-1.2v-7.9h1.2c0.4,0,0.8,0.3,0.8,0.8l0,0v6.3C164.4,57.1,164.1,57.5,163.7,57.5z"/>
		<path class="st0" d="M167.7,82.2c0.2-0.2,0.4-0.4,0.6-0.5l0.8-0.4c0.7-0.3,1.5-0.6,2.2-0.8l0.9-0.3c0.9-0.2,1.9-0.3,2.8-0.1
			l1.5,0.3c0.4,0.1,0.6,0.4,0.5,0.8l0,0c0,0.1-0.1,0.3-0.2,0.4c0.3,0.2,0.5,0.6,0.3,0.9c-0.1,0.3-0.5,0.4-0.8,0.3h-0.1
			c0,0.1,0,0.3,0,0.4c-0.1,0.4-0.4,0.6-0.8,0.5l0,0l-1.8-0.4l0.6,0.6c0.3,0.3,0.3,0.7,0,1s-0.7,0.3-1,0l-0.5-0.5
			c-0.2,0.3-0.5,0.5-0.8,0.7l-1.4,0.5c-0.4,0.2-1,0.3-1.4,0.3l-1.8-0.2L167.7,82.2z"/>
		<path class="st0" d="M194,80.3c0.1-0.4,0.4-0.6,0.8-0.6l0,0c0.4,0.1,0.6,0.4,0.6,0.8l-0.3,1.9c-0.1,0.4-0.4,0.8-0.8,0.7l0,0
			c-0.4-0.1-0.6-0.4-0.5-0.8l0,0L194,80.3z"/>
		<path class="st8" d="M201.9,93.1h-31.2c-0.9,0-1.6-0.7-1.6-1.6h34.4C203.5,92.4,202.8,93.1,201.9,93.1z"/>
		<path class="st1" d="M169.7,90.9c0-0.2,0.2-0.4,0.4-0.4h1.1c0.2,0,0.4,0.2,0.4,0.4h0.8c0-0.2,0.2-0.4,0.4-0.4h1.1
			c0.2,0,0.4,0.2,0.4,0.4h0.6v-0.1c0-0.2,0.2-0.4,0.4-0.4h1.1c0.2,0,0.4,0.2,0.4,0.4c0,0,0,0,0,0.1h26.6v0.6h-34.2v-0.6H169.7z"/>
		<path class="st1" d="M177.9,72.2h25.8c0.9,0,1.6,0.7,1.6,1.6V90c0,0.9-0.7,1.6-1.6,1.6h-25.8c-0.9,0-1.6-0.7-1.6-1.6V73.8
			C176.3,72.9,177,72.2,177.9,72.2z"/>
		<path class="st14" d="M198.3,72.2l7,7V90c0,0.9-0.7,1.6-1.6,1.6l0,0h-1.1l-19.3-19.4H198.3z"/>
		<path class="st14" d="M177.9,72.2h2.6L200,91.5h-5.1l-18.4-18.4C176.7,72.6,177.3,72.2,177.9,72.2z"/>
		<path class="st8" d="M188.8,81.2c0,1.1,0.9,2,2,2s2-0.9,2-2s-0.9-2-2-2S188.8,80.1,188.8,81.2z"/>
		<path class="st0" d="M205.1,77.8l-2.3,0.1c-0.4,0-0.7,0.3-0.6,0.7c0,0.3,0.2,0.5,0.5,0.6h-0.3c-0.4,0-0.7,0.3-0.6,0.7
			c0,0.2,0.1,0.4,0.3,0.6c-0.2,0.1-0.3,0.3-0.4,0.5c0,0.4,0.2,0.7,0.6,0.7l0,0h0.1c-0.2,0.1-0.3,0.2-0.3,0.4
			c-0.1,0.4,0.1,0.7,0.5,0.8l0,0l1.3,0.6c1.7,0.5,2.7-0.4,2.7-1v-3.4c0-0.7-0.5-1.3-1.2-1.3C205.2,77.8,205.1,77.8,205.1,77.8z"/>
	</g>
</g>
</svg>
