<svg xmlns="http://www.w3.org/2000/svg" viewBox="0 0 223.43 126.09"><defs><style>.cls-1{fill:#ffa970;}.cls-2{fill:#696372;}.cls-3{fill:#e2514c;}.cls-4{fill:#d0c8db;}.cls-5{fill:#eae4f4;}.cls-6{fill:#b9accc;}.cls-7{fill:#817199;}.cls-8{fill:#f59157;}.cls-9{fill:#514b59;}.cls-10{fill:#a393ba;}.cls-11{fill:#ffc0c0;}.cls-12{fill:#ffd9d9;}.cls-13{fill:#d16333;}.cls-14{fill:#e87c46;}.cls-15{fill:#807a89;}.cls-16{fill:#c74848;}.cls-17{fill:#fff;}</style></defs><title>mr-buddy-message_3</title><g id="Layer_2" data-name="Layer 2"><g id="Layer_1-2" data-name="Layer 1"><path class="cls-1" d="M178.1,53.13a2.49,2.49,0,1,0,2.48-2.33A2.4,2.4,0,0,0,178.1,53.13Z"/><path class="cls-2" d="M196.9,57.17h-1.23V49.29h1.23a.79.79,0,0,1,.79.79v6.31A.78.78,0,0,1,196.9,57.17Z"/><path class="cls-3" d="M211.35,85.31a33.22,33.22,0,0,0,10.51-1.94L220.2,79c-2.25.85-9,2.65-13.29.9-4.91-2-8.18-8.93-8.92-11.43l-4.26,1.35c.14.45,3.4,11.16,11.38,14.44A16.37,16.37,0,0,0,211.35,85.31Z"/><path class="cls-4" d="M177.44,98h-9.81c-4.87,0-8.82-3.51-8.82-7.84V77.44c0-4.33,3.95-7.84,8.82-7.84h9.81c4.87,0,6.16,1.85,6.16,6.18V92.49C183.6,96.82,182.31,98,177.44,98Z"/><path class="cls-4" d="M197.6,111.78l.85-16.21H167.6v7.74l5,8.22c2.75,4.54,3.91,8.15,2.28,10.81l-2.7,3.63H203.3Z"/><path class="cls-5" d="M203.46,101.14v4.5c0,6.49-8.4,11.75-15.94,11.75s-13.65-5.26-13.65-11.75v-4.5Z"/><rect class="cls-4" x="173.87" y="103.2" width="29.59" height="2.02"/><path class="cls-5" d="M182.59,98h-9.82c-4.87,0-8.81-3.51-8.81-7.84V77.44c0-4.33,3.94-7.84,8.81-7.84h9.82c4.87,0,6.16,1.85,6.16,6.18V92.49C188.75,96.82,187.46,98,182.59,98Z"/><path class="cls-6" d="M166.08,81.23c0,9.25,6,16.74,13.31,16.74s13.31-7.49,13.31-16.74-6-16.74-13.31-16.74S166.08,72,166.08,81.23Z"/><path class="cls-4" d="M168.58,81.23c0,9.25,6,16.74,13.31,16.74s13.31-7.49,13.31-16.74-6-16.74-13.31-16.74S168.58,72,168.58,81.23Z"/><polygon class="cls-7" points="206.01 115.28 200.56 113.86 192.61 113.86 189.47 113.86 189.19 116.24 194.66 117.98 206.01 115.28"/><polygon class="cls-8" points="200.62 119.75 201.67 120.79 207.7 123.55 207.7 124.48 196.67 124.48 196.67 119.75 200.62 119.75"/><path class="cls-9" d="M202.7,120c3.36,0,6.09,1.92,6.09,4.28H202.7Z"/><path class="cls-9" d="M196.56,126h11.32a.89.89,0,0,0,.91-.86v-.86H195.65v.86A.89.89,0,0,0,196.56,126Z"/><polygon class="cls-1" points="191.9 119.75 192.95 120.79 198.98 123.55 198.98 124.48 187.95 124.48 187.95 119.75 191.9 119.75"/><path class="cls-9" d="M194,120c3.36,0,6.09,1.92,6.09,4.28H194Z"/><path class="cls-9" d="M187.84,126h11.32a.89.89,0,0,0,.91-.86v-.86H186.93v.86A.88.88,0,0,0,187.84,126Z"/><path class="cls-8" d="M193.66,93.14H205c4.34,0,6.38,3.19,4.56,7.14l-9,19.47h-4l4.17-16.59h-4l1.33-2.88C200.05,96.33,198,93.14,193.66,93.14Z"/><path class="cls-1" d="M182.89,103.16A10.12,10.12,0,0,1,172.65,93l.77-7.41h10L196,93l0,.15h.23c4.35,0,6.39,3.19,4.56,7.14l-1.33,2.88h0l-3.06,6.71-4.5,9.88h-4l4.28-16.59Z"/><path class="cls-3" d="M190.8,64.13h-10c-4,0-7.34,1.66-7.66,6.7l-.45,22.31h23.4l2.4-22.31C198.12,65.79,194.8,64.13,190.8,64.13Z"/><rect class="cls-1" x="181.8" y="57.22" width="8.99" height="7.71"/><path class="cls-1" d="M181.8,64.93a4.5,4.5,0,1,0,4.49-4.17A4.34,4.34,0,0,0,181.8,64.93Z"/><polygon class="cls-8" points="190.78 59.9 181.79 64.15 181.79 57.28 190.78 57.28 190.78 59.9"/><polygon class="cls-10" points="201.96 121.31 193.98 122.64 186.34 121.37 186.93 117.66 187.08 114.51 189.47 113.86 189.19 116.24 194.66 117.98 200.67 116.06 206.01 115.28 207.01 118.25 206.01 119.17 207.42 121.55 201.96 121.31"/><polygon class="cls-7" points="203.91 121.4 201.51 117.98 201.96 121.31 203.91 121.4"/><polygon class="cls-7" points="196.13 122.28 195.84 120.18 197.14 122.12 196.13 122.28"/><path class="cls-5" d="M166.18,98h27.28l-1.23,5.19h-26a2.6,2.6,0,1,1,0-5.19Z"/><rect class="cls-11" x="163.71" y="115.59" width="9.19" height="10.38"/><rect class="cls-12" x="168.31" y="115.59" width="9.19" height="10.38"/><path class="cls-1" d="M180.64,86.46a24.09,24.09,0,0,0,4.91-.6L185,82c-2.65.37-10.25.73-13.49-2.1l-3.09,3.58C171.7,86.37,176.78,86.46,180.64,86.46Z"/><path class="cls-3" d="M171.46,79.9a4.29,4.29,0,0,1-1.5-3.49c0-7.29,9.46-7.43,9.87-7.43l.93-4.85a22.86,22.86,0,0,0-7.93,1.52c-4.81,2.14-7.59,5.78-7.59,10.76a9.07,9.07,0,0,0,3.13,7.07Z"/><rect class="cls-5" x="215.08" y="96.83" width="0.77" height="23.3"/><path class="cls-5" d="M214.67,101a.8.8,0,0,0,.8.81h0a.81.81,0,0,0,.81-.81V96.84a.8.8,0,0,0-.81-.8h0a.8.8,0,0,0-.8.8Z"/><path class="cls-5" d="M211.53,119.17a2.24,2.24,0,0,1,2.24-2.24h3.4a2.24,2.24,0,0,1,2.24,2.24v6.92h-7.88Z"/><rect class="cls-5" x="212.86" y="115.55" width="5.22" height="5.17" rx="0.8"/><polygon class="cls-2" points="189.65 91.54 189.91 91.54 189.19 76.64 188.93 76.64 189.65 91.54"/><path class="cls-2" d="M189.08,76.86l.1-.17c6.49-11,7.11-17.66,7.11-17.74l-.26,0c0,.08-.62,6.63-7,17.49-.87-1.14-8-8.32-9.33-19l-.26,0c1.31,11.33,9.44,19.16,9.51,19.24Z"/><path class="cls-6" d="M179.42,49.6v7.88a1.3,1.3,0,0,1-1.28-1.3V50.9A1.29,1.29,0,0,1,179.42,49.6Z"/><path class="cls-2" d="M177.14,52c.1-3.53,1.12-6.28,3.06-8.19s4.92-3.27,9.08-3a8.85,8.85,0,0,1,6,2.77c3.13,3.58,2.19,9.4,2.16,9.66l-1-.12c0-.06.92-5.68-1.91-8.91a7.63,7.63,0,0,0-5.2-2.35c-3.83-.27-6.47.83-8.33,2.65s-2.75,4.5-2.75,8v2.38c0,.44-.24.79-.53.79s-.52-.35-.52-.79V52Z"/><path class="cls-1" d="M180.73,53.91c-.24-5.61-.15-7.71,1.92-9.87a10.34,10.34,0,0,1,5.95-2.42h.54A9.65,9.65,0,0,1,194.81,44c2.07,2.16,2.16,4.26,1.92,9.88.24,5.61-1.88,6.92-3.95,9.08a4.52,4.52,0,0,1-6.26,0C184.45,60.84,180.49,59.53,180.73,53.91Z"/><circle class="cls-2" cx="188.26" cy="53.23" r="0.95"/><path class="cls-2" d="M193,53.23a1,1,0,1,0,.95-.95A1,1,0,0,0,193,53.23Z"/><polygon class="cls-13" points="189.4 52 185.29 51.12 186.24 50.32 189.76 50.96 189.4 52"/><polygon class="cls-13" points="192.84 51.91 196.82 51.16 195.8 50.33 192.53 50.86 192.84 51.91"/><path class="cls-13" d="M195.68,57.73,194.14,59,193,56.86h-5l-1.83,2.37L182.25,57,182,54l-1.1-1.14-.3,6.91,6.9,4.4h4.09l5-4.27,0-3.68Zm-12.2,2.72Z"/><polygon class="cls-1" points="188.93 57.9 192.74 57.9 193.23 59.26 192.75 59.97 190.72 60.65 188.72 59.97 188.22 59.01 188.93 57.9"/><path class="cls-14" d="M188.75,59a.52.52,0,0,0,.52.53h2.91a.52.52,0,0,0,.52-.53h0a.52.52,0,0,0-.52-.52h-2.91a.52.52,0,0,0-.52.52Z"/><path class="cls-2" d="M180.66,57.48h-1.24V49.6h1.24a.78.78,0,0,1,.78.79V56.7A.78.78,0,0,1,180.66,57.48Z"/><path class="cls-1" d="M184.71,82.22a2.32,2.32,0,0,1,.57-.49l.8-.45a13.69,13.69,0,0,1,2.21-.83l.88-.25a7,7,0,0,1,2.84-.1l1.53.31a.69.69,0,0,1,.53.82.66.66,0,0,1-.19.36.69.69,0,0,1-.48,1.28l-.13,0a.72.72,0,0,1,0,.41.69.69,0,0,1-.82.53l-1.8-.37.59.56a.69.69,0,0,1-1,1l-.48-.46a2,2,0,0,1-.77.67l-1.4.52a2.38,2.38,0,0,1-1.45.25l-1.8-.23Z"/><path class="cls-1" d="M211,80.34a.68.68,0,0,1,.78-.55h0a.69.69,0,0,1,.55.79L212,82.46c-.06.37-.41.75-.78.69h0a.67.67,0,0,1-.54-.79Z"/><path class="cls-9" d="M218.91,93.14H187.68a1.6,1.6,0,0,1-1.59-1.6h34.42A1.6,1.6,0,0,1,218.91,93.14Z"/><path class="cls-2" d="M186.66,90.9a.38.38,0,0,1,.37-.37h1.13a.38.38,0,0,1,.37.37h.8a.37.37,0,0,1,.37-.37h1.12a.38.38,0,0,1,.37.37h.62v-.05a.37.37,0,0,1,.37-.37h1.12a.38.38,0,0,1,.37.37.09.09,0,0,1,0,.05h26.62v.64H186.09V90.9Z"/><rect class="cls-2" x="193.32" y="72.17" width="29.03" height="19.37" rx="1.6"/><path class="cls-15" d="M215.32,72.17l7,7V89.94a1.6,1.6,0,0,1-1.6,1.6h-1.06L200.32,72.17Z"/><path class="cls-15" d="M194.93,72.17h2.65L217,91.54h-5.13L193.44,73.17A1.61,1.61,0,0,1,194.93,72.17Z"/><path class="cls-9" d="M205.81,81.16a2,2,0,1,0,2-2A2,2,0,0,0,205.81,81.16Z"/><path class="cls-1" d="M222.06,77.84l-2.27.14a.67.67,0,0,0-.16,1.31h-.33a.69.69,0,0,0-.65.7.7.7,0,0,0,.34.56.65.65,0,0,0-.35.52.67.67,0,0,0,.6.74h.08a.69.69,0,0,0-.33.43.67.67,0,0,0,.5.81l1.27.55c1.71.51,2.74-.38,2.66-1V79.15A1.24,1.24,0,0,0,222.06,77.84Z"/><rect class="cls-16" width="155.31" height="78.54" rx="5.04" transform="translate(155.31 78.54) rotate(-180)"/><polygon class="cls-16" points="146.37 29.37 174.34 56.33 146.37 52 146.37 29.37"/><path d="M29.09,20.36a1,1,0,0,0-.47-.87A5.1,5.1,0,0,0,27.06,19a7.8,7.8,0,0,1-1.82-.58,2.42,2.42,0,0,1-1.59-2.24,2.52,2.52,0,0,1,1-2.05,4,4,0,0,1,2.64-.83,4.26,4.26,0,0,1,2.75.84,2.7,2.7,0,0,1,1.05,2.19H29a1.29,1.29,0,0,0-.46-1,1.75,1.75,0,0,0-1.21-.41,2,2,0,0,0-1.15.32,1,1,0,0,0-.44.87.88.88,0,0,0,.41.77,5.93,5.93,0,0,0,1.67.55,7.37,7.37,0,0,1,2,.66,2.73,2.73,0,0,1,1.07.92,2.33,2.33,0,0,1,.35,1.3,2.49,2.49,0,0,1-1.07,2.08,4.54,4.54,0,0,1-2.78.79,5,5,0,0,1-2.09-.42,3.42,3.42,0,0,1-1.42-1.16A2.73,2.73,0,0,1,23.33,20H25.4A1.5,1.5,0,0,0,26,21.11a2.26,2.26,0,0,0,1.4.41,2.23,2.23,0,0,0,1.29-.32A1,1,0,0,0,29.09,20.36Z"/><path d="M47.26,18.39a6.06,6.06,0,0,1-1.08,3.47,3.15,3.15,0,0,1-2.65,1.27,2.07,2.07,0,0,1-2.12-1.35,3.18,3.18,0,0,1-1,1,2.54,2.54,0,0,1-1.25.33,2.15,2.15,0,0,1-1.94-1.05,4.47,4.47,0,0,1-.51-2.82,7.55,7.55,0,0,1,.7-2.59,4.65,4.65,0,0,1,1.41-1.78,3.05,3.05,0,0,1,1.83-.63,4.24,4.24,0,0,1,1.3.19,4.68,4.68,0,0,1,1.33.76l-.45,5c-.11,1.16.22,1.74,1,1.74a1.68,1.68,0,0,0,1.47-1,5,5,0,0,0,.63-2.49,7.19,7.19,0,0,0-1.25-5,5.12,5.12,0,0,0-4.22-1.72,5.54,5.54,0,0,0-3.05.86,5.91,5.91,0,0,0-2.11,2.49,9.34,9.34,0,0,0-.87,3.72,8.64,8.64,0,0,0,.51,3.65,4.75,4.75,0,0,0,1.87,2.33,5.67,5.67,0,0,0,3.08.8,7,7,0,0,0,1.54-.18,5,5,0,0,0,1.37-.47l.34,1.2a4.38,4.38,0,0,1-1.45.57,8.17,8.17,0,0,1-1.83.22A7.38,7.38,0,0,1,36,26a5.8,5.8,0,0,1-2.4-2.74,9.68,9.68,0,0,1-.73-4.43,10.44,10.44,0,0,1,1.08-4.33,7.45,7.45,0,0,1,2.66-3,7.7,7.7,0,0,1,7.62-.1,5.85,5.85,0,0,1,2.36,2.77A9.4,9.4,0,0,1,47.26,18.39Zm-8.87.85a3.43,3.43,0,0,0,.21,1.81,1.11,1.11,0,0,0,1,.62,1.26,1.26,0,0,0,.9-.42,3,3,0,0,0,.68-1.14l.4-4.34a2.41,2.41,0,0,0-.85-.16,1.84,1.84,0,0,0-1.59.91A5.94,5.94,0,0,0,38.39,19.24Z"/><path d="M54.38,19.34h-2L51.74,23H50.27l.67-3.61h-2V18H51.2l.51-2.76H49.57V13.8H52l.69-3.65h1.47l-.69,3.65h2l.68-3.65h1.47l-.68,3.65h1.82v1.39H56.62L56.11,18h1.94v1.39h-2.2L55.18,23H53.71ZM52.68,18h2l.51-2.76h-2Z"/><path d="M66.25,19.61a1.7,1.7,0,0,0-.48-1.24,4.21,4.21,0,0,0-1.58-.88,12.61,12.61,0,0,1-1.72-.72,3.51,3.51,0,0,1-2-3.26,3.33,3.33,0,0,1,.89-2.4A3.81,3.81,0,0,1,63.71,10V8.08h1.41V10a3.46,3.46,0,0,1,2.37,1.29,4.48,4.48,0,0,1,.83,2.8H66.19a2.75,2.75,0,0,0-.49-1.74,1.61,1.61,0,0,0-1.35-.64,1.8,1.8,0,0,0-1.32.46,1.71,1.71,0,0,0-.48,1.31A1.63,1.63,0,0,0,63,14.72a4.7,4.7,0,0,0,1.6.88,13.64,13.64,0,0,1,1.77.76,4.77,4.77,0,0,1,1.08.81,3.1,3.1,0,0,1,.67,1,3.62,3.62,0,0,1,.24,1.38A3.28,3.28,0,0,1,67.47,22a4.06,4.06,0,0,1-2.53,1.09V24.8h-1.4V23.09a4,4,0,0,1-2.68-1.24,4.1,4.1,0,0,1-.93-2.8h2.13a2.47,2.47,0,0,0,.56,1.72,2.05,2.05,0,0,0,1.58.6,2.17,2.17,0,0,0,1.52-.48A1.66,1.66,0,0,0,66.25,19.61Z"/><path d="M70.53,21.94a1.13,1.13,0,0,1,.33-.83,1.19,1.19,0,0,1,.89-.33,1.21,1.21,0,0,1,.89.33,1.16,1.16,0,0,1,.32.83,1.06,1.06,0,0,1-.32.8,1.38,1.38,0,0,1-1.79,0A1.09,1.09,0,0,1,70.53,21.94Zm2.11-2.76H70.8l-.2-9h2.25Z"/><path class="cls-17" d="M82.8,18.91l.25,1.69.36-1.52,2.53-8.93h1.43l2.47,8.93.35,1.54.27-1.72,2-8.75h1.69L91,23H89.5l-2.63-9.33-.21-1-.2,1L83.73,23H82.19L79.1,10.15h1.68Z"/><path class="cls-17" d="M100.17,14.89a4.92,4.92,0,0,0-.8-.06A2.15,2.15,0,0,0,97.2,16.2V23H95.58V13.44h1.58l0,1.09a2.54,2.54,0,0,1,2.27-1.27,1.67,1.67,0,0,1,.72.12Z"/><path class="cls-17" d="M101.06,18.1a5.54,5.54,0,0,1,.55-2.51,4,4,0,0,1,1.53-1.72,4.1,4.1,0,0,1,2.23-.61,4,4,0,0,1,3.15,1.34,5.18,5.18,0,0,1,1.2,3.58v.12a5.62,5.62,0,0,1-.54,2.49,4,4,0,0,1-1.52,1.72,4.17,4.17,0,0,1-2.27.61,4,4,0,0,1-3.13-1.34,5.17,5.17,0,0,1-1.2-3.56Zm1.63.2a4.08,4.08,0,0,0,.74,2.54,2.36,2.36,0,0,0,2,.95,2.33,2.33,0,0,0,2-1,4.4,4.4,0,0,0,.73-2.72,4.07,4.07,0,0,0-.74-2.53,2.36,2.36,0,0,0-2-1,2.32,2.32,0,0,0-1.94,1A4.46,4.46,0,0,0,102.69,18.3Z"/><path class="cls-17" d="M113.29,13.44l.06,1.19a3.46,3.46,0,0,1,2.84-1.37q3,0,3,3.4V23h-1.63v-6.3a2.21,2.21,0,0,0-.47-1.52,1.89,1.89,0,0,0-1.44-.49,2.36,2.36,0,0,0-1.39.42,2.8,2.8,0,0,0-.93,1.11V23h-1.62V13.44Z"/><path class="cls-17" d="M121.3,18.11a5.58,5.58,0,0,1,1-3.54,3.55,3.55,0,0,1,5.44-.08l.08-1.05h1.48v9.28a3.87,3.87,0,0,1-1.09,2.91,4.08,4.08,0,0,1-2.94,1.06,4.89,4.89,0,0,1-2-.44,3.46,3.46,0,0,1-1.51-1.2l.85-1a3.19,3.19,0,0,0,2.56,1.29,2.49,2.49,0,0,0,1.85-.67,2.55,2.55,0,0,0,.66-1.88V22A3.34,3.34,0,0,1,125,23.12a3.27,3.27,0,0,1-2.71-1.34A5.88,5.88,0,0,1,121.3,18.11Zm1.64.19a4.31,4.31,0,0,0,.65,2.52,2.16,2.16,0,0,0,1.85.92,2.37,2.37,0,0,0,2.26-1.4V16a2.41,2.41,0,0,0-2.24-1.36,2.19,2.19,0,0,0-1.86.92A4.71,4.71,0,0,0,122.94,18.3Z"/><path class="cls-17" d="M71.08,44.72a4.15,4.15,0,0,1-3.15-1.27,4.72,4.72,0,0,1-1.21-3.4v-.29a5.7,5.7,0,0,1,.54-2.53,4.28,4.28,0,0,1,1.51-1.74,3.81,3.81,0,0,1,2.11-.63,3.57,3.57,0,0,1,2.88,1.22,5.28,5.28,0,0,1,1,3.5v.68H68.35a3.35,3.35,0,0,0,.82,2.27,2.56,2.56,0,0,0,2,.86A2.8,2.8,0,0,0,72.63,43a3.52,3.52,0,0,0,1-.93l1,.77A4,4,0,0,1,71.08,44.72Zm-.2-8.52a2.14,2.14,0,0,0-1.65.71,3.43,3.43,0,0,0-.83,2h4.76V38.8a3,3,0,0,0-.67-1.92A2,2,0,0,0,70.88,36.2Z"/><path class="cls-17" d="M78.2,35l0,1.05a3.52,3.52,0,0,1,2.82-1.23,2.72,2.72,0,0,1,2.72,1.53,3.51,3.51,0,0,1,3-1.53q3.14,0,3.18,3.31v6.38H88.37V38.27a2.21,2.21,0,0,0-.47-1.53,2.07,2.07,0,0,0-1.56-.5,2.17,2.17,0,0,0-1.51.54,2.22,2.22,0,0,0-.69,1.45v6.32H82.51V38.31a1.81,1.81,0,0,0-2-2.07,2.17,2.17,0,0,0-2.19,1.36v6.95H76.66V35Z"/><path class="cls-17" d="M98.32,44.55a3.34,3.34,0,0,1-.23-1,3.62,3.62,0,0,1-2.71,1.18,3.37,3.37,0,0,1-2.31-.79,2.59,2.59,0,0,1-.9-2A2.7,2.7,0,0,1,93.3,39.6a5.34,5.34,0,0,1,3.18-.82h1.58V38a1.83,1.83,0,0,0-.51-1.36,2.07,2.07,0,0,0-1.5-.5,2.39,2.39,0,0,0-1.46.44A1.3,1.3,0,0,0,94,37.67H92.37a2.27,2.27,0,0,1,.5-1.37,3.38,3.38,0,0,1,1.37-1,4.59,4.59,0,0,1,1.91-.39,3.74,3.74,0,0,1,2.57.82,3,3,0,0,1,1,2.26v4.38A5.38,5.38,0,0,0,100,44.4v.15Zm-2.7-1.24a2.91,2.91,0,0,0,1.45-.4,2.33,2.33,0,0,0,1-1v-2H96.79c-2,0-3,.58-3,1.75a1.49,1.49,0,0,0,.51,1.2A2,2,0,0,0,95.62,43.31Z"/><path class="cls-17" d="M102.25,32.51a1,1,0,0,1,.24-.67,1.08,1.08,0,0,1,1.43,0,1,1,0,0,1,.25.67.89.89,0,0,1-.25.66,1.08,1.08,0,0,1-1.43,0A.92.92,0,0,1,102.25,32.51Zm1.75,12h-1.62V35H104Z"/><path class="cls-17" d="M108.37,44.55h-1.62V31.05h1.62Z"/><path class="cls-17" d="M115,39.7a5.54,5.54,0,0,1,.55-2.51,4,4,0,0,1,1.53-1.72,4.1,4.1,0,0,1,2.23-.61,4,4,0,0,1,3.15,1.34,5.18,5.18,0,0,1,1.2,3.58v.12a5.62,5.62,0,0,1-.54,2.49,4,4,0,0,1-1.52,1.72,4.19,4.19,0,0,1-2.27.61,4,4,0,0,1-3.13-1.34,5.17,5.17,0,0,1-1.2-3.56Zm1.63.2a4.08,4.08,0,0,0,.74,2.54,2.36,2.36,0,0,0,2,1,2.33,2.33,0,0,0,2-1A4.4,4.4,0,0,0,122,39.7a4.07,4.07,0,0,0-.74-2.53,2.37,2.37,0,0,0-2-1,2.32,2.32,0,0,0-1.94.95A4.46,4.46,0,0,0,116.63,39.9Z"/><path class="cls-17" d="M130.29,36.49a4.92,4.92,0,0,0-.8-.06,2.15,2.15,0,0,0-2.17,1.37v6.75H125.7V35h1.58l0,1.09a2.54,2.54,0,0,1,2.27-1.27,1.67,1.67,0,0,1,.72.12Z"/><path class="cls-17" d="M56.87,61.5a5.63,5.63,0,0,1-1,3.49,3.15,3.15,0,0,1-2.68,1.33,3.5,3.5,0,0,1-2.73-1.1V69.8H48.83V56.64h1.49l.08,1a3.34,3.34,0,0,1,2.76-1.23,3.24,3.24,0,0,1,2.71,1.29,5.73,5.73,0,0,1,1,3.6Zm-1.63-.19a4.25,4.25,0,0,0-.68-2.54,2.22,2.22,0,0,0-1.88-.93,2.4,2.4,0,0,0-2.22,1.31v4.54A2.39,2.39,0,0,0,52.69,65a2.21,2.21,0,0,0,1.86-.92A4.6,4.6,0,0,0,55.24,61.31Z"/><path class="cls-17" d="M64.8,66.15a3.41,3.41,0,0,1-.22-1,3.62,3.62,0,0,1-2.71,1.18,3.36,3.36,0,0,1-2.31-.79,2.59,2.59,0,0,1-.9-2,2.7,2.7,0,0,1,1.13-2.31A5.3,5.3,0,0,1,63,60.38h1.58v-.75A1.83,1.83,0,0,0,64,58.27a2.07,2.07,0,0,0-1.5-.5,2.39,2.39,0,0,0-1.46.44,1.3,1.3,0,0,0-.59,1.06H58.85a2.22,2.22,0,0,1,.51-1.37,3.31,3.31,0,0,1,1.37-1,4.58,4.58,0,0,1,1.9-.39,3.75,3.75,0,0,1,2.58.82,3,3,0,0,1,1,2.26v4.38A5.38,5.38,0,0,0,66.51,66v.15Zm-2.69-1.24a2.91,2.91,0,0,0,1.45-.4,2.45,2.45,0,0,0,1-1V61.53H63.28c-2,0-3,.58-3,1.75a1.49,1.49,0,0,0,.51,1.2A2,2,0,0,0,62.11,64.91Z"/><path class="cls-17" d="M74.26,63.62a1.17,1.17,0,0,0-.5-1A4.85,4.85,0,0,0,72,62a8.86,8.86,0,0,1-2-.63A2.83,2.83,0,0,1,69,60.46a2.13,2.13,0,0,1-.35-1.21,2.47,2.47,0,0,1,1-2,3.86,3.86,0,0,1,2.53-.81,4,4,0,0,1,2.62.83,2.67,2.67,0,0,1,1,2.14H74.16a1.46,1.46,0,0,0-.56-1.15,2.15,2.15,0,0,0-1.43-.48,2.23,2.23,0,0,0-1.39.38,1.24,1.24,0,0,0-.5,1,1,1,0,0,0,.47.89,5.65,5.65,0,0,0,1.68.57,8.71,8.71,0,0,1,2,.65,2.83,2.83,0,0,1,1.12.91,2.21,2.21,0,0,1,.37,1.3,2.42,2.42,0,0,1-1,2,4.3,4.3,0,0,1-2.65.77,4.79,4.79,0,0,1-2-.4,3.33,3.33,0,0,1-1.37-1.13,2.69,2.69,0,0,1-.5-1.57H70a1.66,1.66,0,0,0,.66,1.29,2.53,2.53,0,0,0,1.61.48,2.6,2.6,0,0,0,1.48-.37A1.13,1.13,0,0,0,74.26,63.62Z"/><path class="cls-17" d="M83.54,63.62a1.18,1.18,0,0,0-.49-1A4.91,4.91,0,0,0,81.31,62a8.86,8.86,0,0,1-2-.63,2.83,2.83,0,0,1-1.07-.88,2.12,2.12,0,0,1-.34-1.21,2.46,2.46,0,0,1,1-2,3.88,3.88,0,0,1,2.53-.81,4,4,0,0,1,2.62.83,2.64,2.64,0,0,1,1,2.14H83.45a1.47,1.47,0,0,0-.57-1.15,2.13,2.13,0,0,0-1.43-.48,2.23,2.23,0,0,0-1.39.38,1.24,1.24,0,0,0-.5,1,1,1,0,0,0,.47.89,5.65,5.65,0,0,0,1.68.57,8.71,8.71,0,0,1,2,.65,2.83,2.83,0,0,1,1.12.91,2.21,2.21,0,0,1,.37,1.3,2.42,2.42,0,0,1-1,2,4.3,4.3,0,0,1-2.65.77,4.79,4.79,0,0,1-2-.4,3.33,3.33,0,0,1-1.37-1.13,2.76,2.76,0,0,1-.5-1.57h1.63a1.65,1.65,0,0,0,.65,1.29A2.55,2.55,0,0,0,81.5,65,2.6,2.6,0,0,0,83,64.62,1.13,1.13,0,0,0,83.54,63.62Z"/><path class="cls-17" d="M95.71,63.9l1.82-7.26h1.63l-2.77,9.51H95.07l-2.31-7.21-2.25,7.21H89.19l-2.76-9.51h1.62l1.87,7.11,2.22-7.11h1.31Z"/><path class="cls-17" d="M100.38,61.3a5.68,5.68,0,0,1,.55-2.51,4.06,4.06,0,0,1,3.77-2.33,4,4,0,0,1,3.14,1.34,5.18,5.18,0,0,1,1.2,3.58v.12a5.75,5.75,0,0,1-.53,2.49A4.1,4.1,0,0,1,107,65.71a4.22,4.22,0,0,1-2.27.61A4,4,0,0,1,101.58,65a5.17,5.17,0,0,1-1.2-3.56Zm1.64.2a4.07,4.07,0,0,0,.73,2.54,2.38,2.38,0,0,0,2,.95,2.31,2.31,0,0,0,2-1,4.4,4.4,0,0,0,.73-2.72,4,4,0,0,0-.74-2.53,2.47,2.47,0,0,0-3.91,0A4.39,4.39,0,0,0,102,61.5Z"/><path class="cls-17" d="M115.68,58.09a5.1,5.1,0,0,0-.8-.06,2.16,2.16,0,0,0-2.18,1.37v6.75h-1.62V56.64h1.58l0,1.09A2.52,2.52,0,0,1,115,56.46a1.75,1.75,0,0,1,.73.12Z"/><path class="cls-17" d="M116.61,61.31a5.58,5.58,0,0,1,1-3.52A3.54,3.54,0,0,1,123,57.6v-5h1.62v13.5h-1.49l-.08-1a3.34,3.34,0,0,1-2.72,1.19A3.24,3.24,0,0,1,117.65,65a5.6,5.6,0,0,1-1-3.54Zm1.62.19A4.27,4.27,0,0,0,118.9,64a2.16,2.16,0,0,0,1.85.91A2.37,2.37,0,0,0,123,63.55V59.18a2.41,2.41,0,0,0-2.25-1.34,2.19,2.19,0,0,0-1.86.92A4.71,4.71,0,0,0,118.23,61.5Z"/><path class="cls-17" d="M127.33,65.32a1,1,0,0,1,.24-.67.91.91,0,0,1,.72-.27.94.94,0,0,1,.72.27,1,1,0,0,1,.24.67A.92.92,0,0,1,129,66a1,1,0,0,1-.72.26,1,1,0,0,1-.72-.26A.92.92,0,0,1,127.33,65.32Zm1.64-2.8h-1.46l-.12-9.17h1.71Z"/></g></g></svg>