<svg xmlns="http://www.w3.org/2000/svg" viewBox="0 0 122.04 139.41"><defs><style>.cls-1{fill:#e2514c;}.cls-2{fill:#fff;}</style></defs><title>Asset 35</title><g id="Layer_2" data-name="Layer 2"><g id="Layer_1-2" data-name="Layer 1"><path class="cls-1" d="M41.74,39.6a3,3,0,0,0,2.9-2.8,7.45,7.45,0,0,1,8.3-5.9,7.62,7.62,0,0,1,6.8,7.2,26.2,26.2,0,0,1-.1,2.8c-.3,4.7,2,8.4,6.1,10a9.31,9.31,0,0,0,11-3.5,11.65,11.65,0,1,1,18.7,13.9,6.89,6.89,0,0,1-1.1,1.3c-3.2,3.3-4.2,7.3-2.5,11.6,1.7,4.1,4.8,6.6,9.6,6.6a7.61,7.61,0,0,1,7.5,7c.3,4-2.3,7.8-6.3,8.2-2.4.3-2.8,1.3-3.2,3.3a50.24,50.24,0,1,1-57.7-59.7Z"/><circle class="cls-1" cx="69.14" cy="10" r="2.3"/><circle class="cls-1" cx="75.44" cy="21.6" r="2.3"/><circle class="cls-1" cx="101.24" cy="69.2" r="6"/><circle class="cls-1" cx="69.04" cy="41.4" r="6.1"/><circle class="cls-1" cx="98.64" cy="2.6" r="2.6"/><circle class="cls-1" cx="107.64" cy="24.2" r="2.4"/><circle class="cls-1" cx="117.74" cy="61.4" r="4.3"/><circle class="cls-1" cx="115.04" cy="41.4" r="2.4"/><circle class="cls-1" cx="55.64" cy="21.5" r="4.3"/><circle class="cls-1" cx="98.63" cy="38.46" r="4.3" transform="translate(38.53 125.61) rotate(-76.71)"/><path class="cls-2" d="M44.64,68.1c4.2,0,7.4,1.5,9.6,4.6a24.4,24.4,0,0,1,7.7-3.5,30.15,30.15,0,0,1,7.4-1.1h.8a11,11,0,0,1,11.6,11.6v30H68V82a2.56,2.56,0,0,0-.8-1.9,2.73,2.73,0,0,0-1.9-.8H65a34.9,34.9,0,0,0-8.9,1.5v28.9H42.64V82a2.56,2.56,0,0,0-.8-1.9,2.73,2.73,0,0,0-1.9-.8h-.4a34.9,34.9,0,0,0-8.9,1.5v28.9H17.14V68.9H29l.8,3.8a26.23,26.23,0,0,1,7.4-3.5,25.18,25.18,0,0,1,6.4-1.1Z"/></g></g></svg>