<?xml version="1.0" encoding="utf-8"?>
<!-- Generator: Adobe Illustrator 23.0.2, SVG Export Plug-In . SVG Version: 6.00 Build 0)  -->
<svg version="1.1" id="Layer_1" xmlns="http://www.w3.org/2000/svg" xmlns:xlink="http://www.w3.org/1999/xlink" x="0px" y="0px"
	 viewBox="0 0 299 139.2" style="enable-background:new 0 0 299 139.2;" xml:space="preserve">
<style type="text/css">
	.st0{fill:#C74848;}
	.st1{fill:#2C2C2C;}
	.st2{fill:#FFFFFF;}
</style>
<title>npmm-logo</title>
<path class="st0" d="M218.7,39.6c1.8-0.3,2.5-1,2.9-2.8c0.8-3.9,4.3-6.3,8.3-5.9c3.7,0.4,6.6,3.4,6.8,7.2c0,0.9,0,1.9-0.1,2.8
	c-0.3,4.7,2,8.4,6.1,10c4,1.5,8.6,0.1,11-3.5c3.8-5.2,11.1-6.2,16.3-2.4s6.2,11.1,2.4,16.3c-0.3,0.5-0.7,0.9-1.1,1.3
	c-3.2,3.3-4.2,7.3-2.5,11.6c1.7,4.1,4.8,6.6,9.6,6.6c3.9,0,7.2,3.1,7.5,7c0.3,4-2.3,7.8-6.3,8.2c-2.4,0.3-2.8,1.3-3.2,3.3
	c-5.6,27.2-32.1,44.6-59.3,39.1S172.4,106.1,178,79C182.1,58.7,198.3,43.1,218.7,39.6z"/>
<circle class="st0" cx="246.1" cy="10" r="2.3"/>
<circle class="st0" cx="252.4" cy="21.6" r="2.3"/>
<circle class="st0" cx="278.2" cy="69.2" r="6"/>
<circle class="st0" cx="246" cy="41.4" r="6.1"/>
<ellipse class="st0" cx="275.6" cy="2.6" rx="2.6" ry="2.6"/>
<circle class="st0" cx="284.6" cy="24.2" r="2.4"/>
<circle class="st0" cx="294.7" cy="61.4" r="4.3"/>
<circle class="st0" cx="292" cy="41.4" r="2.4"/>
<circle class="st0" cx="232.6" cy="21.5" r="4.3"/>
<ellipse transform="matrix(0.2298 -0.9732 0.9732 0.2298 174.8791 297.8518)" class="st0" cx="275.6" cy="38.4" rx="4.3" ry="4.3"/>
<path class="st1" d="M48.7,79.3c-2.7,0-5.8,0.5-9.2,1.5v28.9H26V68.9h11.9l0.8,3.8c2.4-1.6,4.9-2.8,7.4-3.5c2.5-0.7,4.7-1.1,6.4-1.1
	H56c3.5,0,6.3,1.1,8.4,3.2c2.1,2.1,3.2,4.9,3.2,8.4v30H54.1V82c0-0.8-0.3-1.4-0.8-1.9c-0.5-0.5-1.2-0.8-1.9-0.8H48.7z"/>
<path class="st1" d="M88,109.7v13.1H74.5V68.9h11.9l0.8,3.8c2.4-1.6,4.9-2.8,7.4-3.5c2.5-0.7,4.7-1.1,6.4-1.1h3.5
	c3.5,0,6.3,1.1,8.4,3.2c2.1,2.1,3.2,4.9,3.2,8.4v17.7c0,3.9-1.1,6.9-3.3,9c-2.2,2.2-5.2,3.3-9,3.3H88z M97.2,79.3
	c-2.7,0-5.8,0.5-9.2,1.5v18.5h11.5c2.1,0,3.1-1,3.1-3.1V82c0-0.8-0.3-1.4-0.8-1.9c-0.5-0.5-1.2-0.8-1.9-0.8H97.2z"/>
<path class="st1" d="M150.3,68.1c4.2,0,7.4,1.5,9.6,4.6c2.4-1.6,4.9-2.8,7.7-3.5c2.7-0.7,5.2-1.1,7.4-1.1h0.8c3.5,0,6.3,1.1,8.4,3.2
	c2.1,2.1,3.2,4.9,3.2,8.4v30h-13.5V82c0-0.8-0.3-1.4-0.8-1.9c-0.5-0.5-1.2-0.8-1.9-0.8h-0.4c-2.3,0-5.3,0.5-8.9,1.5v28.9h-13.5V82
	c0-0.8-0.3-1.4-0.8-1.9c-0.5-0.5-1.2-0.8-1.9-0.8h-0.4c-2.3,0-5.3,0.5-8.9,1.5v28.9H123V68.9h11.9l0.8,3.8c2.4-1.6,4.9-2.8,7.4-3.5
	c2.5-0.7,4.7-1.1,6.4-1.1H150.3z"/>
<path class="st2" d="M221.6,68.1c4.2,0,7.4,1.5,9.6,4.6c2.4-1.6,4.9-2.8,7.7-3.5c2.7-0.7,5.2-1.1,7.4-1.1h0.8c3.5,0,6.3,1.1,8.4,3.2
	c2.1,2.1,3.2,4.9,3.2,8.4v30H245V82c0-0.8-0.3-1.4-0.8-1.9c-0.5-0.5-1.2-0.8-1.9-0.8H242c-2.3,0-5.3,0.5-8.9,1.5v28.9h-13.5V82
	c0-0.8-0.3-1.4-0.8-1.9c-0.5-0.5-1.2-0.8-1.9-0.8h-0.4c-2.3,0-5.3,0.5-8.9,1.5v28.9h-13.5V68.9h11.9l0.8,3.8
	c2.4-1.6,4.9-2.8,7.4-3.5c2.5-0.7,4.7-1.1,6.4-1.1H221.6z"/>
</svg>
