<svg xmlns="http://www.w3.org/2000/svg" viewBox="0 0 114.76 26.98"><defs><style>.cls-1{fill:#2c2c2c;}.cls-2{fill:#C74848;}</style></defs><title>npmm-title</title><g id="Layer_2" data-name="Layer 2"><g id="Layer_1-2" data-name="Layer 1"><g id="NavBar"><path class="cls-1" d="M11.21,5.51a16.05,16.05,0,0,0-4.56.76V20.52H0V.38H5.89l.38,1.9A13.76,13.76,0,0,1,9.94.55,11.51,11.51,0,0,1,13.11,0h1.71A5.6,5.6,0,0,1,19,1.56,5.6,5.6,0,0,1,20.52,5.7V20.52H13.87V6.84a1.3,1.3,0,0,0-1.33-1.33Z"/><path class="cls-1" d="M30.59,20.52V27H23.94V.38h5.89l.38,1.9A13.76,13.76,0,0,1,33.88.55,11.51,11.51,0,0,1,37.05,0h1.71A5.6,5.6,0,0,1,42.9,1.56,5.6,5.6,0,0,1,44.46,5.7v8.74a6,6,0,0,1-1.62,4.46,6,6,0,0,1-4.46,1.62Zm4.56-15a16.05,16.05,0,0,0-4.56.76v9.12h5.7a1.35,1.35,0,0,0,1.52-1.52v-7a1.3,1.3,0,0,0-1.33-1.33Z"/><path class="cls-1" d="M61.37,0a5.55,5.55,0,0,1,4.75,2.28A12.72,12.72,0,0,1,69.9.55,14,14,0,0,1,73.53,0h.38a5.6,5.6,0,0,1,4.14,1.56A5.6,5.6,0,0,1,79.61,5.7V20.52H73V6.84a1.3,1.3,0,0,0-1.33-1.33h-.19a16.46,16.46,0,0,0-4.37.76V20.52H60.42V6.84a1.3,1.3,0,0,0-1.33-1.33H58.9a16.46,16.46,0,0,0-4.37.76V20.52H47.88V.38h5.89l.38,1.9A13.76,13.76,0,0,1,57.82.55,11.51,11.51,0,0,1,61,0Z"/><path class="cls-2" d="M96.52,0a5.55,5.55,0,0,1,4.75,2.28A12.72,12.72,0,0,1,105.05.55,13.87,13.87,0,0,1,108.68,0h.38a5.6,5.6,0,0,1,4.14,1.56,5.6,5.6,0,0,1,1.56,4.14V20.52h-6.65V6.84a1.3,1.3,0,0,0-1.33-1.33h-.19a16.46,16.46,0,0,0-4.37.76V20.52H95.57V6.84a1.3,1.3,0,0,0-1.33-1.33h-.19a16.46,16.46,0,0,0-4.37.76V20.52H83V.38h5.89l.38,1.9A13.76,13.76,0,0,1,93,.55,11.51,11.51,0,0,1,96.14,0Z"/></g></g></g></svg>