<?xml version="1.0" encoding="utf-8"?>
<!-- Generator: Adobe Illustrator 23.0.2, SVG Export Plug-In . SVG Version: 6.00 Build 0)  -->
<svg version="1.1" id="Layer_1" xmlns="http://www.w3.org/2000/svg" xmlns:xlink="http://www.w3.org/1999/xlink" x="0px" y="0px"
	 viewBox="0 0 299 139.2" style="enable-background:new 0 0 299 139.2;" xml:space="preserve">
<style type="text/css">
	.st0{fill:#E2514C;}
	.st1{fill:#2C2C2C;}
	.st2{font-family:'RussoOne-Regular';}
	.st3{font-size:77px;}
	.st4{fill:#FFFFFF;}
</style>
<title>npmm-logo</title>
<g>
	<g id="Layer_1-2">
		<path class="st0" d="M218.7,39.6c1.8-0.3,2.5-1,2.9-2.8c0.8-3.9,4.3-6.3,8.3-5.9c3.7,0.4,6.6,3.4,6.8,7.2c0,0.9,0,1.9-0.1,2.8
			c-0.3,4.7,2,8.4,6.1,10c4,1.5,8.6,0.1,11-3.5c3.8-5.2,11.1-6.2,16.3-2.4s6.2,11.1,2.4,16.3c-0.3,0.5-0.7,0.9-1.1,1.3
			c-3.2,3.3-4.2,7.3-2.5,11.6c1.7,4.1,4.8,6.6,9.6,6.6c3.9,0,7.2,3.1,7.5,7c0.3,4-2.3,7.8-6.3,8.2c-2.4,0.3-2.8,1.3-3.2,3.3
			c-5.6,27.2-32.1,44.6-59.3,39.1S172.4,106.1,178,79C182.1,58.7,198.3,43.1,218.7,39.6z"/>
		<circle class="st0" cx="246.1" cy="10" r="2.3"/>
		<circle class="st0" cx="252.4" cy="21.6" r="2.3"/>
		<circle class="st0" cx="278.2" cy="69.2" r="6"/>
		<circle class="st0" cx="246" cy="41.4" r="6.1"/>
		<ellipse transform="matrix(0.1979 -0.9802 0.9802 0.1979 218.553 272.2196)" class="st0" cx="275.6" cy="2.6" rx="2.6" ry="2.6"/>
		<circle class="st0" cx="284.6" cy="24.2" r="2.4"/>
		<circle class="st0" cx="294.7" cy="61.4" r="4.3"/>
		<circle class="st0" cx="292" cy="41.4" r="2.4"/>
		<circle class="st0" cx="232.6" cy="21.5" r="4.3"/>
		
			<ellipse transform="matrix(0.2298 -0.9732 0.9732 0.2298 174.9228 297.8244)" class="st0" cx="275.6" cy="38.4" rx="4.3" ry="4.3"/>
		<text transform="matrix(1 0 0 1 22.13 109.6801)" class="st1 st2 st3">npm</text>
		<text transform="matrix(1 0 0 1 190.37 109.6801)" class="st4 st2 st3">m</text>
	</g>
</g>
</svg>
