<svg xmlns="http://www.w3.org/2000/svg" viewBox="0 0 26.78 16.06"><defs><style>.cls-1{fill:#bfbfbf;}</style></defs><title>password-hide</title><g id="Layer_2" data-name="Layer 2"><g id="Layer_1-2" data-name="Layer 1"><path class="cls-1" d="M0,7.94C3,2.81,7.44,0,13.4,0S23.72,2.86,26.78,8c-2.77,4.8-6.84,7.6-12.39,8A14.87,14.87,0,0,1,0,7.94ZM24.45,8c-2.78-4-6.49-6.11-11.31-6A12.87,12.87,0,0,0,2.29,8,12.89,12.89,0,0,0,13,14C17.85,14.18,21.61,12,24.45,8Z"/><path class="cls-1" d="M13.4,11.88A3.86,3.86,0,1,1,17.23,8,3.85,3.85,0,0,1,13.4,11.88Zm0-5.71A1.85,1.85,0,1,0,15.23,8,1.88,1.88,0,0,0,13.39,6.17Z"/></g></g></svg>