<?xml version="1.0" encoding="utf-8"?>
<!-- Generator: Adobe Illustrator 23.0.2, SVG Export Plug-In . SVG Version: 6.00 Build 0)  -->
<svg version="1.1" id="Layer_1" xmlns="http://www.w3.org/2000/svg" xmlns:xlink="http://www.w3.org/1999/xlink" x="0px" y="0px"
	 viewBox="0 0 26.8 21.7" style="enable-background:new 0 0 26.8 21.7;" xml:space="preserve">
<style type="text/css">
	.st0{fill:#919191;}
</style>
<title>password-show</title>
<g>
	<g id="Layer_1-2_1_">
		<path class="st0" d="M0,10.6c3-5.1,7.4-7.9,13.4-7.9s10.3,2.9,13.4,8c-2.8,4.8-6.8,7.6-12.4,8C8.4,19.1,2.7,15.9,0,10.6z
			 M24.5,10.6c-2.8-4-6.5-6.1-11.3-6c-4.4,0-8.5,2.3-10.9,6c2.3,3.7,6.4,5.9,10.7,6C17.9,16.8,21.6,14.6,24.5,10.6z"/>
		<path class="st0" d="M13.4,14.5c-2.1,0-3.9-1.7-3.9-3.8s1.7-3.9,3.8-3.9s3.9,1.7,3.9,3.8c0,0,0,0,0,0
			C17.2,12.8,15.5,14.5,13.4,14.5C13.4,14.5,13.4,14.5,13.4,14.5z M13.4,8.8c-1,0-1.9,0.8-1.9,1.8s0.8,1.9,1.8,1.9s1.9-0.8,1.9-1.8
			c0,0,0,0,0,0C15.2,9.6,14.4,8.8,13.4,8.8L13.4,8.8z"/>
	</g>
</g>
</svg>
