<svg xmlns="http://www.w3.org/2000/svg" viewBox="0 0 26.78 21.74"><defs><style>.cls-1{fill:#bfbfbf;}</style></defs><title>password-show</title><g id="Layer_2" data-name="Layer 2"><g id="Layer_1-2" data-name="Layer 1"><path class="cls-1" d="M2.29,10.6a12.9,12.9,0,0,1,9.43-5.92l.72-2.07C7,2.89,2.84,5.67,0,10.52a14.46,14.46,0,0,0,7.32,6.87L8,15.51A13.83,13.83,0,0,1,2.29,10.6Z"/><path class="cls-1" d="M19.44,3.76l-.67,2a14,14,0,0,1,5.68,4.9A13.07,13.07,0,0,1,15,16.52l-.72,2.08h.08c5.55-.41,9.62-3.21,12.39-8A16,16,0,0,0,19.44,3.76Z"/><rect class="cls-1" x="2.3" y="9.37" width="21.97" height="3" transform="translate(-1.33 19.87) rotate(-70.92)"/><rect class="cls-1" x="2.3" y="9.37" width="21.97" height="3" transform="translate(-1.33 19.87) rotate(-70.92)"/></g></g></svg>