<?xml version="1.0" encoding="utf-8"?>
<!-- Generator: Adobe Illustrator 23.0.2, SVG Export Plug-In . SVG Version: 6.00 Build 0)  -->
<svg version="1.1" id="Layer_1" xmlns="http://www.w3.org/2000/svg" xmlns:xlink="http://www.w3.org/1999/xlink" x="0px" y="0px"
	 viewBox="0 0 282 138.9" style="enable-background:new 0 0 282 138.9;" xml:space="preserve">
<style type="text/css">
	.st0{fill:#2C2C2C;}
	.st1{fill:#171724;}
	.st2{fill:#C74848;}
	.st3{fill:#993A3A;}
	.st4{fill:#BCBEC0;}
	.st5{fill:#E09090;}
	.st6{fill:#FFFFFF;}
	.st7{fill:#231F2D;}
	.st8{fill:#D85050;}
	.st9{fill:#A0A0A0;stroke:#606060;stroke-miterlimit:10;}
	.st10{fill:#171723;}
	.st11{fill:#AEB5BF;}
</style>
<title>rocket</title>
<g>
	<g id="Layer_1-2">
		<polygon class="st0" points="101.3,94.3 100,80.2 104.2,82.4 105.1,91.9 		"/>
		<path class="st1" d="M104.6,81.7l-4.2-2.2l-1.2-0.6l0.1,1.4l1.2,14.1l0.1,1.2l1-0.7l3.8-2.4l0.4-0.3v-0.4l-0.8-9.5v-0.4
			L104.6,81.7z M105.1,91.9l-3.8,2.4L100,80.2l4.2,2.2L105.1,91.9z"/>
		<path class="st2" d="M130,83.2c-2.6-3.2-10.4-10.5-25-5.6c-1,0.4-1.6,1.4-1.5,2.4l1.2,14c0.1,1,0.9,1.8,1.9,2
			c15.2,2.3,21.6-6.1,23.6-9.8C130.7,85.2,130.6,84.1,130,83.2z"/>
		<path class="st3" d="M114,91.6c-0.3,0.1-0.6,0.2-0.8,0.2c-0.1-0.1-0.2-0.1-0.4-0.2c-0.1,0-0.2,0-0.3,0l0,0
			c-0.4-0.2-0.8-0.2-1.2-0.2l0,0c-0.3-0.1-0.6-0.1-0.9-0.1h-0.4c-0.9,0-1.8,0-2.8,0s-1.8-0.1-2.7-0.1c-0.2,0-0.4,0-0.7,0
			c0.3,0.9,0.5,1.9,0.5,2.9l0.3,0.6c0.1,0.2,0.2,0.4,0.2,0.6h0.1c0.6,0,1.2,0,1.7-0.1c0.8-0.1,1.6-0.2,2.4-0.4
			c0.5-0.1,1-0.3,1.5-0.5l0.6-0.2c0.2-0.1,0.4-0.2,0.5-0.3c0.5-0.2,0.9-0.5,1.2-1c0.1-0.1,0.2-0.1,0.2-0.2c0.1-0.1,0.2-0.2,0.2-0.4
			C113.6,92.1,113.9,91.9,114,91.6C114.1,91.7,114.1,91.6,114,91.6z"/>
		<path class="st1" d="M130.6,82.7c-1.7-2.1-3.8-3.8-6.2-5.1c-3.8-2-8-2.8-12.2-2.3c-2.5,0.2-5,0.8-7.4,1.6c-1.3,0.5-2.1,1.8-2,3.1
			l1.2,14c0.1,1.4,1.2,2.5,2.5,2.7c2.5,0.4,5.1,0.5,7.6,0.3c4.2-0.3,8.3-1.8,11.7-4.4c2.1-1.7,3.9-3.7,5.2-6.1
			C131.5,85.3,131.4,83.9,130.6,82.7z M130.2,86.2c-1.6,3-6.3,9.2-16.3,10.1c-2.5,0.2-5,0.1-7.4-0.3c-1-0.2-1.7-1-1.9-2l-1.2-14
			c-0.1-1,0.5-2,1.5-2.3c2.3-0.8,4.8-1.3,7.3-1.6c10-0.9,15.6,4.5,17.7,7.2C130.6,84.1,130.7,85.2,130.2,86.2z"/>
		<path class="st1" d="M108.1,123l-4.2-2.2l-1.2-0.6l0.1,1.4l1.2,14.1l0.1,1.2l1-0.6l3.8-2.4l0.4-0.2v-0.5l-0.8-9.5v-0.4L108.1,123z
			 M108.6,133.2l-3.7,2.3l-1.2-14.1l4.2,2.2L108.6,133.2z"/>
		<polygon class="st0" points="104.8,135.5 103.6,121.4 107.8,123.6 108.6,133.1 		"/>
		<path class="st2" d="M133.5,124.4c-2.6-3.2-10.4-10.5-25-5.6c-1,0.4-1.6,1.3-1.5,2.3l1.2,14c0.1,1,0.9,1.8,1.9,2.1
			c15.2,2.3,21.7-6.1,23.7-9.8C134.2,126.5,134.1,125.3,133.5,124.4z"/>
		<path class="st4" d="M110,133.4l-0.3,0.1L110,133.4L110,133.4z"/>
		<path class="st3" d="M131.2,128.5c-0.2,0.1-0.4,0.1-0.5,0.2s-0.4,0.2-0.5,0.3c-0.4,0.2-0.8,0.4-1.1,0.6l-0.4,0.2h-0.2
			c-0.2,0-0.4,0.1-0.5,0.2c-0.4,0.2-0.8,0.4-1.2,0.6s-0.8,0.3-1.2,0.5c-0.2,0.1-0.4,0.1-0.6,0.2h-0.1l-0.3,0.1l-0.2,0.1h-0.1
			l-0.3,0.1l-0.6,0.2l-1.4,0.4c-1.8,0.4-3.6,0.7-5.5,0.8c-0.9,0.1-1.8,0.1-2.7,0.2h-0.8h-0.7h-0.2c-0.4,0-0.8,0-1.2,0.1
			c-0.2,0-0.3,0.1-0.5,0.1l-0.5,0.2l0,0h-0.2l-0.5,0.2c-0.2,0.1-0.3,0.1-0.4,0.3h-0.2l-0.2,0.1c0,0-0.3,0.1-0.1,0.1
			c-0.2,0-0.3,0.1-0.5,0.1c0.1,0.3,0.2,0.6,0.2,0.9c0.1,0.2,0.1,0.5,0.2,0.7l0,0l0.2,0.2l0.3,0.1c0.4,0.3,0.8,0.5,1.2,0.6
			c0.6,0.2,1.1,0.3,1.7,0.4c1.1,0,2.1,0,3.2-0.1c0.9-0.1,1.8-0.2,2.7-0.3c0.9-0.1,1.8-0.3,2.7-0.6c1.9-0.4,3.7-1,5.5-1.9
			c0.9-0.4,1.7-0.9,2.5-1.4c0.4-0.2,0.7-0.4,1-0.7c0.2-0.1,0.3-0.2,0.4-0.4l0.1-0.3c0.2-0.2,0.3-0.3,0.5-0.5c0.3-0.3,0.5-0.6,0.8-1
			c0.1-0.2,0.2-0.3,0.3-0.5c0.1-0.2,0.2-0.4,0.3-0.6C131.9,128.7,131.5,128.4,131.2,128.5z M109.2,133.8L109.2,133.8L109.2,133.8
			C109.3,133.7,109.3,133.7,109.2,133.8z"/>
		<path class="st4" d="M112.2,133.1"/>
		<path class="st4" d="M113.9,133C114.3,133,114.1,133,113.9,133z"/>
		<path class="st1" d="M134.1,124c-1.7-2.1-3.8-3.8-6.1-5.1c-3.8-2-8-2.8-12.2-2.3c-2.5,0.2-5,0.8-7.4,1.6c-1.3,0.5-2.1,1.8-2,3.1
			l1.2,14c0.1,1.4,1.2,2.5,2.5,2.7c2.5,0.4,5.1,0.5,7.6,0.3c4.2-0.3,8.3-1.8,11.7-4.4c2.1-1.7,3.9-3.7,5.2-6.1
			C135.1,126.6,134.9,125.1,134.1,124z M133.8,127.5c-1.6,3-6.2,9.2-16.3,10.1c-2.5,0.2-5,0.1-7.4-0.3c-1-0.2-1.8-1-1.9-2.1l-1.2-14
			c-0.1-1,0.5-2,1.5-2.3c2.3-0.8,4.8-1.3,7.2-1.6c10-0.9,15.6,4.5,17.7,7.2C134.1,125.3,134.2,126.5,133.8,127.5L133.8,127.5z"/>
		<path class="st5" d="M141.7,127.1h-0.3v0.3l-14.3-2.1v-0.1l-0.1,0.3l-5.2-1.2l-12.5-6.7L107.1,99l9.9-9.1h0.4l3.2-1.8l1-0.2
			l14.3-6.1v-0.5l0.2,0.5l6.4-2.3c-0.1,0.5-0.2,0.9-0.2,1.4c-2.2,15.8-0.4,31.9,5.2,46.9L141.7,127.1z"/>
		<path class="st2" d="M223.2,116.6c1.4-14.9-0.6-29.9-6-43.8c0,0,38,7,39.3,17.7C257.9,100.9,223.2,116.6,223.2,116.6z"/>
		<path class="st5" d="M223.2,116.6L223.2,116.6l-2,0.5H221l-42.6,8.9l-28.6,1.5h-0.3l-1.8,0.3h-0.2c-5.6-15-7.4-31.1-5.2-46.9
			c0.1-0.5,0.1-1,0.2-1.4l0.2-0.1l1.9-0.6h0.1l27.4-4.9l42.8-1.3h2.2h0.1C222.6,86.6,224.7,101.6,223.2,116.6L223.2,116.6z"/>
		<polygon class="st6" points="107.8,115.8 107.8,115.8 107.8,115.8 104.2,108.7 106,100.6 106,100.5 107.8,115.6 107.8,115.9 		"/>
		<path d="M107.9,115.9v-0.3l-1.8-15.1v0.1l-1.8,8.1l3.6,7.1l0,0l0,0V115.9z"/>
		<path class="st7" d="M257.9,90.2c-0.3-1.7-1.1-3.3-2.4-4.6c-1.5-1.5-3.1-2.7-4.9-3.7c-4.4-2.4-9-4.3-13.7-5.7
			c-6.3-2-12.7-3.6-19.2-4.8l-0.2-0.1h-2.5l-42.8,1.3H172h-0.1l-27.4,4.8h-0.1h-0.1h-0.2l-1.9,0.6h-0.1l-0.2,0.1l-5.2,1.9l-2.3,0.8
			l-14.3,6L120,87l-3.9,1.9l-9.9,9.2l-0.5,0.4l0.1,0.7l0.2,1.4l1.8,15.2l0,0l0,0l0.2,2l0.1,0.7l0.6,0.3l12.5,6.7l0.2,0.1h0.2
			l6.5,1.3l14.5,1.7l4.8,0.6h0.2h0.2h0.2l1.8-0.3h0.3l28.5-1.5h0.1h0.1l42.6-8.9l0,0h0.2l1.9-0.4l0.3-0.1l0.2-0.1
			c5.9-2.7,11.6-5.8,17.2-9.2c4.2-2.5,8.1-5.4,11.7-8.7c1.3-1.2,2.5-2.5,3.4-4c0.1-0.2,0.3-0.4,0.4-0.6
			C257.6,93.8,258,92,257.9,90.2z M223.2,116.6L223.2,116.6l-2,0.5H221l-42.6,8.9l-28.6,1.5h-0.3l-1.8,0.3h-0.2l-5.8-0.7h-0.3
			l-14.3-2l-5.3-1l-12.5-6.7l-0.7-5.4l-1.6-13l9.9-9.1l4.7-1.9l14.3-6.1l6.6-2.3l0.2-0.1l1.9-0.6h0.1l27.4-4.9l42.8-1.3h2.2h0.1
			c0,0,38,7,39.3,17.7c0.1,0.4,0.1,0.9,0,1.3C255.1,102.2,223.2,116.6,223.2,116.6L223.2,116.6z"/>
		<path class="st8" d="M141.7,127.1h-0.3l-14.3-2l-5.3-1l-12.5-6.7l-0.7-5.4l11.7,2.3c0,0,9.5,1,23.5,1.5c0.9,4,2.1,8,3.6,11.8
			L141.7,127.1z"/>
		<path class="st8" d="M221.2,117.1H221l-42.6,8.9l-28.6,1.5h-0.3c-1.4-3.7-2.6-7.6-3.6-11.5c21,0.7,51.2,0.2,75.7-6
			C221.6,112.5,221.5,114.8,221.2,117.1z"/>
		<path class="st3" d="M256.6,91.7c-1.4,10.5-33.3,24.9-33.3,24.9c0.2-2.3,0.4-4.6,0.4-7C237.5,105.8,249.5,100.2,256.6,91.7z"/>
		<path class="st7" d="M223.7,109.6c0.1-4.6-0.1-9.2-0.7-13.7c-0.9-7.9-2.9-15.7-5.8-23.1h-0.1h-2c3,7.5,5,15.4,5.9,23.4
			c0.6,4.6,0.8,9.3,0.6,14c-0.1,2.4-0.2,4.7-0.5,7l1.9-0.4l0.1-0.1C223.5,114.3,223.6,111.9,223.7,109.6z M146,116.1
			c-0.8-3.6-1.5-7.2-1.9-10.8c-1.1-8.8-0.9-17.7,0.6-26.4l-1.9,0.6l-0.2,0.1c-0.1,0.5-0.2,0.9-0.2,1.4c-1.2,8.2-1.2,16.4-0.2,24.6
			c0.4,3.5,1,7,1.8,10.5c0.9,4,2.1,8,3.6,11.8h0.2l1.8-0.3C148.1,123.8,146.9,120,146,116.1z"/>
		<path class="st9" d="M19.1,117.3c0.1,0,0.1-0.1,0.2-0.1h-0.2C19,117.2,19.1,117.3,19.1,117.3z"/>
		<path class="st9" d="M19.7,117c-0.1,0-0.2,0.1-0.4,0.1L19.7,117z"/>
		<path class="st9" d="M41.4,109.1C41.5,109,41.6,108.9,41.4,109.1z"/>
		<path class="st9" d="M41.7,111.5L41.7,111.5z"/>
		<path class="st9" d="M40.6,120.5c0.2,0,0.4,0,0.7-0.1C41.1,120.4,40.8,120.4,40.6,120.5z"/>
		<path class="st9" d="M40.3,120.5l0.3-0.1L40.3,120.5C40.2,120.4,40.2,120.6,40.3,120.5z"/>
		<path class="st9" d="M42.1,120.2c-0.2,0-0.4,0-0.6,0H42.1z"/>
		<path class="st9" d="M41,120.3c0.1,0,0.3,0,0.5-0.1C41.3,120.3,41.1,120.3,41,120.3C40.9,120.2,40.9,120.3,41,120.3z"/>
		<path class="st9" d="M85,115.4v0.1l0.3-0.1L85,115.4z"/>
		<path class="st9" d="M85.4,115.2v0.2c0.1-0.1,0.3-0.2,0.4-0.3L85.4,115.2L85.4,115.2z"/>
		<path class="st9" d="M84.6,104.3c-0.6-0.1-0.8-0.1-1.5-0.2h-0.1c0,0,0,0.1,0,0.1c0,0.3,0,0.5,0.1,0.7c0.4,0,0.9-0.1,1.3-0.1
			C84.4,104.7,84.5,104.5,84.6,104.3z"/>
		<path class="st9" d="M84.7,108.5c0.1-0.2,0.1-0.4,0-0.7c-0.3,0-0.7,0-1-0.1h-0.3c0.1,0.5,0.3,0.9,0.5,1.4c0.4-0.1,0.8-0.3,1.3-0.4
			C85.1,108.6,84.9,108.5,84.7,108.5z"/>
		<path class="st9" d="M84.6,111.5c0,0.2,0.1,0.4,0.1,0.6l0.4-0.1l0.2-0.2c0.1-0.1,0.2-0.2,0.3-0.3h-0.6L84.6,111.5z"/>
		<path class="st9" d="M83.2,106.5v0.3l0.4-0.1L83.2,106.5z"/>
		<path class="st9" d="M86.2,109.8c-0.3,0-0.7-0.1-1.1-0.1h-1c0.1,0.2,0.2,0.3,0.3,0.5c0.1,0.1,0.1,0.2,0.2,0.3l1.7-0.4
			C86.3,110,86.2,109.9,86.2,109.8z"/>
		<path class="st9" d="M76.3,118h0.4l0.7-0.2c0.5-0.1,1.1-0.3,1.5-0.6l0.1-0.1h0.1c1-0.2,2.1-0.4,3.1-0.7c-1.3,0.2-2.7,0.3-4,0.4
			l-3.9,0.5l-1.4,0.2l0,0l1.4-0.2l3.9-0.5c1.3,0,2.7-0.1,4-0.4h0.1h-0.3l0.9-0.2c0.3-0.1,0.5-0.1,0.8-0.2c0.4-0.1,0.8-0.3,1.2-0.4
			v-0.1h0.3l0,0v-0.2l0,0h-0.5c-1,0-2.1,0.2-3.1,0.2c-1,0-1.9,0.1-2.9,0.2c0,0-0.1,0,0,0c1-0.1,2.1-0.3,3.1-0.5
			c0.9-0.2,1.9-0.3,2.8-0.5l0.6-0.1c-0.3,0-0.7,0-1,0c-0.2,0-0.4,0-0.6,0l0,0l0,0c0,0.1-0.3,0.1-0.3,0s-0.1-0.2,0-0.1
			c-0.1,0-0.1-0.1-0.2-0.1c0-0.1,0-0.1,0-0.2c-0.3,0-0.6-0.1-0.9-0.1c-0.7,0-1.3,0.1-2,0.1c-0.7,0-1.4,0-2.1,0c-0.3,0-0.6,0-1,0.1
			c-0.3,0-0.7,0-1,0c-0.1,0-0.1,0,0,0c0.4-0.1,0.8-0.1,1.2-0.3c0.2-0.1,0.5-0.1,0.7-0.1c0.7-0.1,1.3-0.3,2.1-0.5
			c0.4-0.1,0.7-0.2,1.1-0.2c0.3,0,0.6-0.1,0.8-0.2c0.3-0.1,0.6-0.3,0.9-0.4c0.3-0.1,0.7-0.2,1-0.2l0.6-0.1c-0.1-0.2-0.1-0.4-0.1-0.6
			c-0.6,0-1.3,0-1.9,0c-0.3,0-0.6,0-0.9-0.1l-0.2-0.1c-0.1,0-0.1-0.1,0,0s0.1,0,0.2,0.1c0.2,0.1,1-0.3,1.3-0.4l1.6-0.4
			c0-0.1-0.1-0.2-0.2-0.3c-0.1-0.2-0.2-0.4-0.3-0.5h-1l-0.9-0.1c-0.2,0-0.4,0-0.5-0.1h-0.1c-0.1,0,0-0.1,0,0h0.1
			c0.2,0,0.3,0,0.5,0.1c0.5-0.1,1-0.2,1.5-0.3l0.3-0.1c-0.2-0.5-0.4-0.9-0.5-1.4c-0.4,0-0.7-0.1-1-0.3c-0.2-0.2,0.3-0.4,0.9-0.6
			v-0.3l-0.2-0.1c-0.2-0.1-0.5-0.1-0.7-0.1c-1.8,0.2-3.5,0.2-5.3,0.2c-1,0-2-0.2-3.1-0.1h-0.2l0,0l-0.3,0.1c-0.1,0-0.1,0,0,0h0.3H74
			l0,0c0.4-0.1,0.7-0.2,1-0.3c0.7-0.1,1.4-0.2,2.1-0.2c0.9-0.1,1.9-0.2,2.8-0.4c1-0.2,1.9-0.3,2.8-0.5h0.4c0-0.2,0-0.5-0.1-0.7
			c0,0,0-0.1,0-0.1c-0.5-0.1-0.9-0.1-1.4-0.1c-0.6,0-1.2,0-1.8,0.1c-0.7,0.1-1.4,0.1-2.1,0c-0.3,0-0.6-0.1-0.9-0.2
			c-0.2,0-0.4,0-0.6-0.1H76c-0.1,0,0-0.1,0,0l0.2,0.1l0.6,0.1c0.6,0,1.1-0.1,1.7-0.3c0.7-0.2,1.3-0.3,2-0.5s1.3-0.3,2-0.4
			c-0.1-0.1-0.2-0.2-0.4-0.3c0.2,0.1,0.3,0.2,0.4,0.3c0.3,0,0.6-0.1,0.9-0.1c-0.4-0.2-0.8-0.2-1.2-0.3h-0.1c0.2-0.1,0.3-0.2,0.5-0.3
			l-0.1-0.1h-0.6c-1.2-0.1-2.4-0.1-3.7-0.2c-0.3,0-0.7,0-1-0.1c-0.4,0-0.9,0-1.3,0s-0.9,0-1.3-0.1h-0.1h-0.1l-0.5,0.1
			c-1.2,0.3-2.4,0.3-3.5,0.1c-0.3,0.1-0.5,0.2-0.8,0.2s-0.9,0.1-1.3,0.2l-1.2,0.2c-0.7,0.1-1.3,0.2-2,0.2c-0.5,0-0.9,0.1-1.4,0.1
			c-1,0.1-2,0.2-3,0.3c-0.5,0.1-1,0.2-1.5,0.3s-1.2,0.1-1.8,0.2s-1.4,0.4-2.2,0.6c-0.4,0.1-0.8,0.2-1.2,0.3l0,0l0,0l0,0
			c0.4,0,0.8,0,1.1,0c0.7,0,1.4,0.1,2.1,0.1c0.4,0,0.8,0,1.3,0c0.4,0,0.8,0.1,1.1,0.2c-0.9,0.2-1.8,0.4-2.7,0.6
			c-1.8,0.3-3.6,0.8-5.4,1.3c-0.7,0-1.3-0.1-2-0.1c-1.1,0-2.2,0.2-3.3,0.4c-0.8,0.2-1.6,0.5-2.4,0.9c-0.7,0.3-1.3,0.6-2,1
			c-0.2,0.1-1.3,0.7-0.7,0.4l0,0h-0.1c-0.1,0-0.3,0.1-0.4,0.1c-1,0.2-2,0.4-3,0.6c-0.8,0.2-1.6,0.4-2.3,0.6
			c-0.9,0.1-1.8,0.2-2.6,0.3s-1.6,0.2-2.4,0.3c-0.4,0.1-0.8,0.2-1.2,0.3c-0.4,0.1-0.9,0.2-1.3,0.3l0,0c0.7,0,1.4,0,2.2,0.1
			c0.3,0,0.7,0,1,0h1.1l2.2-0.1l1.1-0.1c0.4,0,0.7,0,1.1,0.1c1.5,0.1,3.1-0.1,4.6-0.1h0.3c0,0,1.3,0,0.5,0c0.3,0,0.6,0,0.9,0
			l-0.5,0.2c-0.8,0.3-1.6,0.6-2.4,0.9l0,0l-0.5,0.2l-1,0.3c-1.3,0.3-2.5,0.7-3.8,1c-0.4,0.1-1.1,0.2-1.7,0.3l-2.3,0.4
			c-1.9,0.4-4.1,0.6-6.2,1c-1,0.2-2.1,0.4-3.1,0.7c-0.4,0.1-0.9,0.3-1.3,0.4l-0.6,0.3c0.3-0.1,0.6-0.1,0.8-0.2
			c0.5-0.1,0.9-0.1,1.4-0.2c1-0.1,2.1-0.1,3.1-0.2c2-0.1,4,0,6-0.1c1.2,0,2.5-0.1,3.7-0.1s2.5,0.1,3.8,0c0.8,0,1.6-0.1,2.5-0.1
			c0.2,0,1.2-0.1,0.3,0h0.6h-0.1c-0.8,0.1-1.3,0.3-2,0.4l-2.1,0.4c-1.4,0.3-2.7,0.6-4.1,0.9s-2.6,0.9-4,1.2l0,0c1.3,0,2.6,0,3.9-0.1
			c0.7-0.1,1.4-0.2,2.1-0.3s1.3,0,2,0h1.9c0.7,0,1.4,0,2.1,0c1.5,0,3-0.2,4.5-0.4c0.6-0.1,1.1-0.1,1.7-0.2l0.8-0.2c-0.3,0-0.3,0,0,0
			s0.7,0,1,0c0.6-0.1,1.2-0.2,1.8-0.3c1.9,0,3.9,0,5.8,0h1.4l-0.6,0.2l-0.5,0.2c-0.2,0.1-0.5,0.2-0.7,0.3l-0.4,0.1l-0.4,0.1
			c-0.8,0.2-1.6,0.4-2.3,0.5c-0.8,0.1-1.7,0.2-2.5,0.3s-1.5,0.2-2.2,0.3s-1.8,0.2-2.7,0.2l-1.9,0.2l-0.7,0.1c-0.5,0-1.1,0.1-1.7,0.2
			h0.5l-0.6,0.1l-0.7,0.1h0.5l1.2-0.1h0.5c0.8,0,1.7,0,2.5,0c1.6,0,3.3,0,4.9-0.1c0.8,0,1.7-0.1,2.5-0.2s1.6,0,2.4,0
			c0.9,0.1,1.7,0.1,2.6,0c0.8-0.1,1.5-0.2,2.3-0.2c1.8,0,3.5-0.2,5.2-0.4c1.7-0.2,3.3-0.3,5-0.5s3.4-0.4,5.1-0.7
			c0.2,0,0.5-0.1,0.7-0.2l-0.4,0.1C76.2,118.1,76.2,118,76.3,118z"/>
		<path class="st9" d="M5.9,114.6c0.3,0,0.7-0.1,1-0.1C6.5,114.5,6.2,114.6,5.9,114.6z"/>
		<path class="st9" d="M5.5,114.7l0.3-0.1L5.5,114.7C5.4,114.6,5.4,114.7,5.5,114.7z"/>
		<path class="st9" d="M15.3,113.5c0.8,0,1.5,0,2.3,0s1.3-0.2,2-0.2c0.6,0,1.2-0.2,1.6-0.6c0.1-0.1,0.1-0.2,0-0.3c0,0,0,0,0,0
			c-0.5-0.3-1-0.3-1.5-0.2l-2,0.2c-0.7,0.1-1.3,0.2-2,0.4c-0.7,0.2-1.4,0.3-2.2,0.4c-0.6,0.1-1.2,0.2-1.7,0.4
			c-0.6,0.2-1.1,0.4-1.7,0.5c-0.3,0.1-0.7,0.1-1,0.1c-0.4,0-0.7,0.1-1,0.1c-0.3,0-0.7,0-1,0.1H6.9h0.9c0.7,0,1.3,0.2,2,0.1
			c1.2-0.2,2.3-0.7,3.5-0.8C13.9,113.7,14.6,113.6,15.3,113.5z"/>
		<path class="st9" d="M0.4,124c0.1,0,0.2-0.1,0.3-0.1L0.4,124C0.3,123.9,0.3,124,0.4,124z"/>
		<path class="st9" d="M0.8,123.9c0.2,0,0.5,0,0.7-0.1C1.3,123.9,1,123.9,0.8,123.9z"/>
		<path class="st9" d="M18.2,122.5c0.9-0.1,1.8-0.2,2.6-0.3c0.8-0.1,1.6-0.3,2.3-0.8c0.3-0.2,0.1-0.5-0.3-0.4
			c-0.8,0.2-1.7,0.3-2.5,0.4c-0.8,0.1-1.6,0.1-2.5,0.2c-1.9,0.2-3.8,0.5-5.8,0.8s-3.8,1-5.8,1.2c-0.9,0.1-1.9,0.1-2.8,0.1H2.2
			l-0.7,0.1H2c0.6,0,1.1,0,1.7,0c0.9,0,1.8,0,2.6-0.1l3-0.1c1-0.1,2-0.4,3.1-0.5L18.2,122.5z"/>
		<path class="st9" d="M40.2,123.3c0.4,0,0.7-0.1,1.1-0.1C41,123.2,40.6,123.2,40.2,123.3z"/>
		<path class="st9" d="M39.9,123.4l0.3-0.1L39.9,123.4C39.9,123.3,39.9,123.4,39.9,123.4z"/>
		<path class="st9" d="M51.3,122.1c0.4,0,0.7,0,1-0.1c0.7-0.1,1.4-0.1,2-0.3s1.3-0.3,2-0.5c0.2,0,0.2-0.2,0-0.2c-0.6,0-1.2,0-1.8,0
			s-1.3,0.2-2,0.2l-0.9,0.1c-0.4,0.1-0.7,0.3-1.1,0.3l-2,0.3l-4.1,0.7l-2,0.3c-0.3,0-0.7,0.1-1,0.2l0.8-0.1l2-0.2l4.3-0.5l2-0.2
			C50.8,122.1,51,122.1,51.3,122.1z"/>
		<path class="st9" d="M42.2,105.7C42.2,105.7,42.2,105.7,42.2,105.7L42.2,105.7C42,105.6,42.1,105.8,42.2,105.7z"/>
		<path class="st9" d="M42.3,105.7c0.2,0,0.4,0,0.6,0C42.7,105.6,42.5,105.6,42.3,105.7z"/>
		<path class="st9" d="M50.9,104.5c0.1-0.1-0.1-0.2-0.2-0.2c-0.5,0.2-1.1,0.3-1.7,0.4c-0.8,0.2-1.6,0.3-2.4,0.4s-1.6,0.2-2.3,0.3
			l-1,0.1h-0.3h0.2l1.1-0.1c0.9-0.1,1.8-0.1,2.7-0.1C48.1,105.3,50,105.3,50.9,104.5z"/>
		<path class="st9" d="M62.1,91.7C62.1,91.7,62.2,91.7,62.1,91.7C62.2,91.7,62.1,91.7,62.1,91.7C62,91.7,62.1,91.8,62.1,91.7z"/>
		<path class="st9" d="M62.4,91.6c-0.1,0-0.1,0-0.2,0.1L62.4,91.6z"/>
		<path class="st9" d="M73.2,86C73.3,86,73.3,85.9,73.2,86z"/>
		<path class="st9" d="M73.5,87.9L73.5,87.9z"/>
		<path class="st9" d="M73.2,95.1c0.1,0,0.2,0,0.3,0C73.5,95,73.3,95,73.2,95.1z"/>
		<path class="st9" d="M73.1,95.1h0.2H73.1C73.1,95.1,73,95.1,73.1,95.1z"/>
		<path class="st9" d="M74,94.9c-0.1,0-0.2,0-0.3,0H74z"/>
		<path class="st9" d="M73.4,94.9c0.1,0,0.2,0,0.2,0H73.4L73.4,94.9z"/>
		<path class="st9" d="M95.9,92.6L95.9,92.6c0.1,0.1,0.1,0,0.1,0L95.9,92.6z"/>
		<path class="st9" d="M96,92.4v0.2l0.2-0.2L96,92.4L96,92.4z"/>
		<path class="st9" d="M95.2,83.7c-0.3-0.1-0.4-0.1-0.8-0.2h-0.1c0,0,0,0.1,0,0.1c0,0.2,0,0.4,0.1,0.6c0.2,0,0.4,0,0.7,0
			C95.1,84,95.2,83.8,95.2,83.7z"/>
		<path class="st9" d="M95.4,87c0-0.2,0-0.4,0-0.5l-0.5-0.1h-0.1c0.1,0.4,0.2,0.8,0.3,1.1l0.6-0.3C95.6,87.1,95.5,87.1,95.4,87z"/>
		<path class="st9" d="M95.4,89.4c0,0.2,0,0.3,0.1,0.4h0.2l0.1-0.1c0.1-0.1,0.1-0.2,0.2-0.3L95.4,89.4L95.4,89.4z"/>
		<path class="st9" d="M94.6,85.4v0.2l0.2-0.1L94.6,85.4z"/>
		<path class="st9" d="M96.2,88.1C96,88.1,95.9,88,95.7,88h-0.5l0.2,0.4c0,0.1,0.1,0.2,0.1,0.2l0.9-0.3
			C96.3,88.3,96.2,88.2,96.2,88.1z"/>
		<path class="st9" d="M91.4,94.3h0.2l0.4-0.2c0.3-0.1,0.5-0.2,0.8-0.4h0.1h0c0.5-0.1,1-0.2,1.5-0.5c-0.7,0.1-1.3,0.2-2,0.2l-2,0.2
			l-0.7,0.1l0,0l0.7-0.1l2-0.2c0.7,0,1.3,0,2-0.2h0.1h-0.2l0.5-0.1l0.4-0.1c0.2-0.1,0.4-0.2,0.6-0.3v-0.1h0.2l0,0v-0.2l0,0h-0.3
			c-0.5,0-1.1,0-1.6,0c-0.5,0-1,0-1.5,0.1v-0.1c0.5,0,1.1-0.1,1.6-0.3c0.5-0.1,1-0.2,1.4-0.3c0.1,0,0.2,0,0.3-0.1
			c-0.2,0-0.3,0-0.5-0.1c-0.1,0-0.2,0-0.3,0l0,0l0,0c0,0.1-0.1,0.1-0.2,0s-0.1-0.1,0-0.1c0,0-0.1-0.1-0.1-0.1c0,0,0-0.1,0-0.1
			c-0.2,0-0.3-0.1-0.5-0.1c-0.3,0-0.7,0-1,0c-0.4,0-0.7-0.1-1.1-0.1h-0.5c-0.2,0-0.4,0-0.5,0l0,0c0.2-0.1,0.4-0.2,0.6-0.3l0.4-0.1
			c0.3-0.1,0.7-0.2,1-0.3l0.5-0.2c0.1,0,0.3-0.1,0.4-0.1l0.4-0.3C94.8,90,95,90,95.1,90l0.3-0.1c0-0.1-0.1-0.3-0.1-0.4
			c-0.3,0-0.7,0-1-0.1c-0.2,0-0.3,0-0.5-0.1c0,0-0.1-0.1-0.1-0.1l0,0c0,0,0,0,0.1,0.1s0.5-0.2,0.6-0.3l0.8-0.3
			c0-0.1-0.1-0.1-0.1-0.2L95.2,88l-0.5-0.1c-0.2,0-0.3-0.1-0.5-0.1c-0.1,0-0.2,0-0.3-0.1h-0.1c0,0,0-0.1,0,0h0.1
			c0.1,0,0.2,0,0.3,0.1c0.3,0,0.5-0.1,0.7-0.2l0.1-0.1c-0.1-0.4-0.2-0.8-0.3-1.1c-0.2,0-0.4-0.1-0.6-0.3c-0.1-0.2,0.1-0.3,0.4-0.4
			v-0.2l-0.1-0.1l-0.4-0.1c-0.9,0.1-1.8,0.1-2.7,0c-0.5,0-1-0.2-1.6-0.2h-0.1l0,0h-0.2l0,0h0.2l0,0l0,0l0,0c0.2,0,0.3-0.1,0.5-0.2
			c0.3-0.1,0.7-0.1,1-0.1c0.5,0,1-0.1,1.4-0.2c0.5-0.1,1-0.2,1.4-0.3h0.2c0-0.2,0-0.4-0.1-0.6c0,0,0-0.1,0-0.1
			c-0.2-0.1-0.5-0.1-0.7-0.2c-0.3,0-0.6,0-0.9,0c-0.4,0-0.7,0-1.1-0.1c-0.2,0-0.3-0.1-0.5-0.2c-0.1,0-0.2,0-0.3-0.1h-0.1
			c0,0,0-0.1,0,0l0.1,0.1l0.3,0.1c0.3,0,0.6-0.1,0.8-0.2c0.3-0.1,0.7-0.2,1-0.3c0.3-0.1,0.7-0.2,1-0.3c-0.1-0.1-0.1-0.2-0.2-0.2
			c0.1,0.1,0.2,0.1,0.2,0.2l0.5-0.1c-0.2-0.1-0.4-0.2-0.6-0.2h-0.1c0.1-0.1,0.2-0.1,0.2-0.2v-0.1h-0.3c-0.6-0.1-1.3-0.1-1.9-0.3
			c-0.2,0-0.3-0.1-0.5-0.1c-0.2,0-0.4,0-0.7,0c-0.2,0-0.5-0.1-0.7-0.1l0,0L89.9,81h-0.3c-0.6,0.2-1.2,0.1-1.8-0.1l-0.4,0.2
			c-0.2,0-0.4,0.1-0.7,0.1c-0.2,0-0.4,0.1-0.6,0.1s-0.7,0.1-1,0.1l-0.7,0.1c-0.5,0-1,0.1-1.5,0.2c-0.3,0.1-0.5,0.1-0.7,0.2
			c-0.3,0-0.6,0-0.9,0.1c-0.4,0.1-0.7,0.2-1.1,0.4c-0.2,0.1-0.4,0.2-0.6,0.2l0,0c0.2,0,0.4,0.1,0.6,0.1c0.4,0,0.7,0.1,1.1,0.1
			c0.2,0,0.4,0,0.6,0c0.2,0,0.4,0.1,0.6,0.2c-0.4,0.2-0.9,0.3-1.4,0.3c-0.9,0.2-1.8,0.5-2.7,0.9c-0.3-0.1-0.7-0.1-1-0.1
			c-0.6,0-1.1,0.1-1.7,0.2c-0.4,0.2-0.8,0.4-1.2,0.7c-0.3,0.2-0.7,0.5-1,0.7c-0.1,0.1-0.6,0.5-0.3,0.3l0,0l0,0c0,0-0.3,0.1-0.2,0.1
			c-0.5,0.1-1,0.2-1.5,0.4c-0.4,0.2-0.8,0.3-1.2,0.4c-0.4,0.1-0.9,0.1-1.3,0.1S68.2,87,67.8,87c-0.2,0-0.4,0.1-0.6,0.2
			c-0.2,0.1-0.4,0.1-0.7,0.2l0,0c0.4,0,0.7,0.1,1.1,0.2c0.2,0,0.4,0,0.5,0h0.6c0.4,0,0.8,0,1.1,0h0.6c0.2,0,0.4,0.1,0.6,0.1
			c0.8,0.1,1.6,0,2.3,0.1h0.2c0,0,0.7,0,0.2,0h0.5L74,87.9c-0.4,0.2-0.8,0.4-1.2,0.7l0,0l-0.2,0.1c-0.2,0.1-0.3,0.1-0.5,0.2
			c-0.7,0.2-1.3,0.5-1.9,0.7c-0.2,0.1-0.6,0.1-0.9,0.2s-0.8,0.2-1.1,0.2c-1,0.2-2.1,0.4-3.2,0.6c-0.5,0.1-1.1,0.2-1.6,0.4
			c-0.2,0.1-0.4,0.2-0.6,0.3l-0.3,0.2c0.1-0.1,0.3-0.1,0.4-0.1c0.2,0,0.5-0.1,0.7-0.1c0.5,0,1.1,0,1.6,0c1,0,2,0.1,3.1,0.1
			c0.6,0,1.3,0,1.9,0s1.3,0.2,1.9,0.2c0.4,0,0.8,0,1.3,0c0.1,0,0.6,0,0.2,0h0.3c-0.4,0.1-0.6,0.2-1,0.3L71.6,92
			c-0.7,0.2-1.4,0.4-2.1,0.6s-1.3,0.6-2,0.8l0,0c0.7,0.1,1.3,0.1,2,0c0.4-0.1,0.7-0.1,1.1-0.1c0.3,0,0.7,0,1,0h1
			c0.4,0,0.7,0.1,1.1,0.1c0.7,0.1,1.5,0.1,2.2,0.1c0.3,0,0.6-0.1,0.8-0.1l0.4-0.1c-0.2,0-0.2,0,0,0h0.5c0.3,0,0.6-0.1,0.9-0.2
			c1,0.1,2,0.1,3,0.2l0.7,0.1L82,93.5l-0.3,0.1c-0.1,0.1-0.2,0.2-0.3,0.2L81.2,94L81.1,94c-0.4,0.1-0.8,0.2-1.2,0.3
			c-0.4,0.1-0.8,0.1-1.3,0.2s-0.8,0.1-1.1,0.2s-0.9,0.1-1.4,0.1l-1,0.1h-0.4c-0.3,0-0.6,0-0.9,0.1h0.3L73.9,95h-0.3h0.2h0.6h0.3
			c0.4,0,0.8,0.1,1.3,0.1c0.8,0,1.7,0.1,2.5,0.1c0.4,0,0.8,0,1.3,0c0.4,0,0.8,0,1.3,0.1c0.4,0,0.9,0,1.3,0c0.4-0.1,0.8-0.1,1.2-0.1
			c0.9,0,1.8,0,2.7-0.2c0.9-0.1,1.7-0.2,2.6-0.3s1.7-0.2,2.6-0.4l0.3-0.1L91.4,94.3C91.4,94.3,91.4,94.3,91.4,94.3z"/>
		<path class="st9" d="M55.2,89.2c0.2,0,0.4,0,0.5-0.1C55.5,89.1,55.4,89.1,55.2,89.2z"/>
		<path class="st9" d="M55,89.2h0.2H55C55,89.2,55,89.2,55,89.2z"/>
		<path class="st9" d="M60,88.6c0.4,0,0.8,0,1.2,0c0.3,0,0.7-0.1,1-0.1s0.7-0.1,0.8-0.4c0-0.1,0-0.1,0-0.2c-0.2-0.2-0.5-0.3-0.8-0.2
			l-1,0.1c-0.3,0.1-0.7,0.1-1,0.3c-0.4,0.1-0.7,0.2-1.1,0.2c-0.3,0-0.6,0.1-0.9,0.3c-0.3,0.1-0.6,0.2-0.9,0.3
			c-0.2,0-0.3,0.1-0.5,0.1c-0.2,0-0.4,0-0.5,0.1h-0.5h0.4c0.4,0,0.7,0.2,1,0.1c0.6-0.1,1.2-0.5,1.8-0.5C59.3,88.6,59.7,88.6,60,88.6
			z"/>
		<path class="st9" d="M52.8,96.5h0.2H52.8C52.8,96.5,52.7,96.5,52.8,96.5z"/>
		<path class="st9" d="M52.9,96.4h0.4C53.2,96.4,53.1,96.4,52.9,96.4z"/>
		<path class="st9" d="M61.8,95.9c0.5,0,0.9-0.1,1.3-0.1c0.4,0,0.9-0.2,1.2-0.5c0.1-0.1,0.1-0.2,0-0.2c0-0.1-0.1-0.1-0.2-0.1
			c-0.4,0.1-0.8,0.2-1.3,0.2c-0.4,0-0.8,0-1.3,0.1c-1,0.1-2,0.3-2.9,0.4s-1.9,0.7-2.9,0.7c-0.5,0-1,0-1.4,0h-0.7h-0.3h0.2h0.9
			c0.5,0,0.9,0,1.3,0h1.5c0.5,0,1-0.3,1.5-0.3C59.9,96.1,60.9,96,61.8,95.9z"/>
		<path class="st9" d="M73.1,97.3c0.2,0,0.4,0,0.6-0.1C73.5,97.3,73.3,97.3,73.1,97.3z"/>
		<path class="st9" d="M73,97.4h0.2H73C73,97.4,72.9,97.4,73,97.4z"/>
		<path class="st9" d="M78.8,96.8c0.2,0,0.4,0,0.5,0c0.3,0,0.7-0.1,1-0.2c0.3-0.1,0.7-0.2,1-0.3c0,0,0.1,0,0.1-0.1
			c0,0,0-0.1-0.1-0.1c-0.3,0-0.6-0.1-0.9-0.1c-0.3,0-0.7,0.1-1,0.1l-0.5,0.1c-0.2,0-0.4,0.2-0.6,0.2l-1,0.2L75.2,97l-1,0.2
			c-0.2,0-0.3,0.1-0.5,0.1h0.4l1-0.1l2.2-0.3l1-0.1C78.5,96.7,78.6,96.7,78.8,96.8z"/>
		<path class="st9" d="M73.5,83.3L73.5,83.3L73.5,83.3C73.4,83.2,73.5,83.4,73.5,83.3z"/>
		<path class="st9" d="M73.5,83.3c0.1,0,0.2,0,0.3,0C73.7,83.2,73.6,83.2,73.5,83.3z"/>
		<path class="st9" d="M77.9,82.6c0,0,0-0.1,0-0.1s-0.1,0-0.1,0c-0.3,0.1-0.5,0.2-0.8,0.3c-0.4,0.1-0.8,0.2-1.2,0.3
			s-0.8,0.1-1.2,0.2h-0.5h-0.1h0.1h0.6c0.4,0,0.9,0,1.4,0C76.5,83.2,77.5,83.2,77.9,82.6z"/>
		<path class="st9" d="M67.2,132.6C67.2,132.5,67.3,132.5,67.2,132.6L67.2,132.6C67.1,132.5,67.2,132.6,67.2,132.6z"/>
		<path class="st9" d="M67.5,132.4c-0.1,0-0.1,0.1-0.2,0.1L67.5,132.4z"/>
		<path class="st9" d="M78.6,126.6C78.7,126.6,78.8,126.5,78.6,126.6z"/>
		<path class="st9" d="M78.9,128.6L78.9,128.6z"/>
		<path class="st9" d="M78.7,136c0.1,0,0.2,0,0.3,0H78.7z"/>
		<path class="st9" d="M78.5,136c0.1,0,0.1,0,0.2-0.1L78.5,136C78.4,136,78.4,136,78.5,136z"/>
		<path class="st9" d="M79.4,135.8c-0.1,0-0.2,0-0.3,0H79.4z"/>
		<path class="st9" d="M78.9,135.8h0.2H78.9C78.9,135.8,78.8,135.9,78.9,135.8z"/>
		<path class="st9" d="M101.9,133.4L101.9,133.4l0.2,0L101.9,133.4z"/>
		<path class="st9" d="M102.1,133.2v0.2l0.2-0.2L102.1,133.2L102.1,133.2z"/>
		<path class="st9" d="M101.3,124.3c-0.3-0.1-0.4-0.2-0.8-0.2h-0.1c0,0,0,0.1,0,0.1c0,0.2,0,0.4,0.1,0.6c0.2,0,0.4,0,0.7,0
			C101.2,124.6,101.2,124.4,101.3,124.3z"/>
		<path class="st9" d="M101.5,127.7c0-0.2,0-0.4,0-0.5c-0.2,0-0.4-0.1-0.6-0.1h-0.2c0.1,0.4,0.2,0.8,0.3,1.2
			c0.2-0.1,0.4-0.2,0.7-0.3L101.5,127.7z"/>
		<path class="st9" d="M101.5,130.2c0,0.2,0,0.3,0.1,0.5l0.2-0.1l0.1-0.1c0.1-0.1,0.1-0.2,0.2-0.3c-0.1,0-0.2,0-0.3,0L101.5,130.2z"
			/>
		<path class="st9" d="M100.6,126v0.2l0.2-0.1C100.8,126.1,100.7,126,100.6,126z"/>
		<path class="st9" d="M102.3,128.8c-0.2-0.1-0.4-0.1-0.6-0.1h-0.5c0.1,0.1,0.1,0.3,0.2,0.4c0,0.1,0.1,0.2,0.1,0.2l0.9-0.3
			C102.4,129,102.4,128.9,102.3,128.8z"/>
		<path class="st9" d="M97.4,135.2h0.2c0.1,0,0.2-0.1,0.4-0.2c0.3-0.1,0.6-0.2,0.8-0.4c0,0,0,0,0.1-0.1h0c0.5-0.1,1.1-0.3,1.6-0.5
			c-0.7,0.1-1.4,0.2-2.1,0.1l-2.1,0.3l-0.8,0.1l0,0l0.8-0.1l2.1-0.3c0.7,0,1.4,0,2.1-0.1h0.1h-0.2l0.5-0.1l0.4-0.1
			c0.2-0.1,0.4-0.2,0.6-0.3v-0.1h0.2l0,0v-0.2h-0.2c-0.6,0-1.1,0.1-1.6,0.1c-0.5,0-1,0-1.5,0.1v-0.1c0.5,0,1.1-0.1,1.6-0.3
			c0.5-0.1,1-0.2,1.5-0.3l0.3-0.1c-0.2,0-0.3,0-0.5-0.1c-0.1,0-0.2,0-0.3-0.1l0,0l0,0c0,0.1-0.1,0.1-0.2,0s-0.1-0.1,0-0.1
			c0,0-0.1-0.1-0.1-0.1c0,0,0-0.1,0-0.1c-0.2-0.1-0.3-0.1-0.5-0.1c-0.3,0-0.7,0-1,0c-0.4,0-0.7-0.1-1.1-0.1c-0.2,0-0.3,0-0.5,0
			c-0.2,0-0.4,0-0.6,0V132c0.2,0,0.4-0.1,0.6-0.2l0.4-0.1c0.4-0.1,0.7-0.2,1.1-0.3l0.6-0.2c0.2,0,0.3-0.1,0.4-0.1
			c0.2-0.1,0.3-0.2,0.5-0.3c0.2-0.1,0.3-0.1,0.5-0.1l0.3-0.1c0-0.1-0.1-0.3-0.1-0.5c-0.3,0-0.7,0-1-0.1c-0.2,0-0.3,0-0.5-0.1
			l-0.1-0.1l0,0l0.1,0.1c0.1,0.1,0.5-0.2,0.7-0.3l0.8-0.3c0-0.1-0.1-0.2-0.1-0.2c0-0.2-0.1-0.3-0.2-0.4c-0.2,0-0.4,0-0.6-0.1
			c-0.2,0-0.3-0.1-0.5-0.1c-0.1,0-0.2,0-0.3-0.1h-0.2c0,0,0-0.1,0,0v0.1l0.3,0.1c0.3,0,0.5-0.1,0.8-0.2l0.1-0.1
			c-0.1-0.4-0.2-0.8-0.3-1.2c-0.2,0-0.4-0.1-0.6-0.3c-0.1-0.2,0.1-0.3,0.4-0.5v-0.2l-0.1-0.1c-0.1-0.1-0.3-0.1-0.4-0.1
			c-0.9,0.1-1.9,0.1-2.8,0c-0.6,0-1.1-0.2-1.6-0.2h-0.1l0,0h-0.2c0,0,0-0.1,0,0h0.2l0,0h0.1l0,0c0.2-0.1,0.4-0.1,0.6-0.2
			c0.4-0.1,0.7-0.1,1.1-0.1c0.5,0,1-0.1,1.4-0.2c0.5-0.1,1-0.2,1.5-0.3h0.2c0-0.2-0.1-0.4-0.1-0.6c0,0,0-0.1,0-0.1
			c-0.2-0.1-0.5-0.1-0.7-0.2c-0.3,0-0.6,0-0.9,0c-0.4,0-0.7,0-1.1-0.1l-0.5-0.2c-0.1,0-0.2,0-0.3-0.1h-0.1c0,0,0-0.1,0,0
			c0,0,0,0,0.1,0.1l0.3,0.1c0.3,0,0.6-0.1,0.9-0.2c0.3-0.1,0.7-0.2,1-0.4c0.3-0.1,0.7-0.2,1-0.3c-0.1-0.1-0.1-0.2-0.2-0.3
			c0.1,0.1,0.2,0.2,0.2,0.3l0.5-0.1c-0.2-0.1-0.4-0.2-0.6-0.3h-0.1c0.1-0.1,0.2-0.1,0.3-0.2v-0.1h-0.3c-0.7-0.1-1.3-0.1-1.9-0.3
			c-0.2,0-0.3-0.1-0.5-0.1c-0.2,0-0.5,0-0.7,0c-0.2,0-0.5-0.1-0.7-0.1l0,0h-0.1h-0.3c-0.6,0.2-1.3,0.2-1.8-0.1l-0.4,0.2
			c-0.2,0-0.4,0.1-0.7,0.1l-0.6,0.1c-0.4,0-0.7,0-1,0.1c-0.2,0-0.5,0-0.7,0.1c-0.5,0-1.1,0.1-1.6,0.2c-0.3,0.1-0.5,0.1-0.8,0.2
			c-0.3,0-0.6,0-0.9,0.1c-0.4,0.1-0.7,0.2-1.1,0.4c-0.2,0.1-0.4,0.2-0.6,0.2l0,0c0.2,0,0.4,0.1,0.6,0.1c0.4,0,0.7,0.1,1.1,0.1
			s0.4,0,0.7,0.1c0.2,0,0.4,0.1,0.6,0.2c-0.5,0.2-0.9,0.3-1.4,0.3c-1,0.2-1.9,0.5-2.8,0.9c-0.3-0.1-0.7-0.1-1-0.1
			c-0.6,0-1.2,0.1-1.7,0.3c-0.4,0.2-0.9,0.4-1.2,0.7c-0.3,0.2-0.7,0.5-1,0.7c-0.1,0.1-0.6,0.5-0.3,0.3l0,0l0,0c0,0-0.3,0.1-0.2,0.1
			c-0.5,0.1-1,0.2-1.5,0.4c-0.4,0.2-0.8,0.3-1.2,0.4c-0.5,0.1-0.9,0.1-1.4,0.1s-0.8,0.1-1.3,0.1c-0.2,0-0.4,0.1-0.6,0.2
			c-0.2,0.1-0.4,0.1-0.7,0.2l0,0c0.4,0,0.8,0.1,1.1,0.2c0.2,0,0.4,0,0.6,0h0.6c0.4,0,0.8,0,1.2,0h0.6c0.2,0,0.4,0,0.6,0.1
			c0.8,0.1,1.7,0.1,2.4,0.1H79c0,0,0.7,0,0.2,0c0.2,0,0.3,0,0.5,0l-0.2,0.1c-0.4,0.2-0.8,0.4-1.2,0.7l0,0l-0.2,0.1l-0.5,0.2
			c-0.7,0.2-1.3,0.5-2,0.7c-0.2,0.1-0.6,0.1-0.9,0.2l-1.2,0.3c-1,0.2-2.2,0.4-3.2,0.6c-0.5,0.1-1.1,0.3-1.6,0.4
			c-0.2,0.1-0.4,0.2-0.7,0.3l-0.3,0.2c0.1-0.1,0.3-0.1,0.4-0.1c0.2,0,0.5-0.1,0.7-0.1c0.5,0,1.1,0,1.6,0c1.1,0,2.1,0.1,3.2,0.1
			c0.7,0,1.3,0,1.9,0s1.3,0.1,2,0.2c0.4,0,0.9,0,1.3,0c0.1,0,0.6,0,0.2,0h0.3c-0.4,0.1-0.7,0.2-1.1,0.3l-1.1,0.3
			c-0.7,0.2-1.4,0.4-2.1,0.6s-1.3,0.6-2,0.9l0,0c0.7,0.1,1.4,0.1,2.1,0.1c0.4,0,0.7-0.1,1.1-0.1s0.7,0,1.1,0h1
			c0.4,0,0.7,0.1,1.1,0.1c0.8,0,1.6,0,2.3-0.1l0.9-0.1l0.4-0.1c-0.2,0-0.2,0,0,0c0.2,0,0.4,0,0.6,0c0.3,0,0.7-0.1,1-0.2
			c1,0.1,2,0.1,3.1,0.2c0.2,0,0.5,0,0.7,0.1l-0.3,0.2l-0.3,0.1c-0.1,0.1-0.2,0.2-0.3,0.2l-0.2,0.1l-0.2,0.1
			c-0.4,0.1-0.8,0.3-1.2,0.3l-1.3,0.1c-0.4,0-0.8,0.1-1.2,0.1s-0.9,0.1-1.4,0.1l-1,0.1h-0.4c-0.3,0-0.6,0-0.9,0.1h0.3h-0.3h-0.3h0.2
			h0.7c0.1,0,0.2,0,0.3,0c0.4,0,0.9,0.1,1.3,0.1c0.9,0,1.7,0.1,2.6,0.1c0.4,0,0.9,0,1.3,0c0.4,0,0.9,0,1.3,0.1
			c0.5,0.1,0.9,0.1,1.4,0.1c0.4-0.1,0.8-0.1,1.2-0.1c0.9,0,1.8,0,2.8-0.2c0.9-0.1,1.8-0.2,2.6-0.3c0.9-0.1,1.8-0.2,2.6-0.4
			c0.1,0,0.2-0.1,0.3-0.1h-0.2C97.6,135.4,97.3,135.2,97.4,135.2z"/>
		<path class="st9" d="M60.1,129.9l0.5-0.1C60.4,129.8,60.3,129.8,60.1,129.9z"/>
		<path class="st9" d="M59.9,129.9l0.2-0.1L59.9,129.9C59.9,129.9,59.9,130,59.9,129.9z"/>
		<path class="st9" d="M65,129.3c0.4,0,0.8,0,1.2,0c0.3,0,0.7-0.1,1-0.1c0.3,0,0.7-0.1,0.8-0.4c0-0.1,0-0.2,0-0.2
			c-0.2-0.2-0.5-0.3-0.8-0.2l-1,0.1c-0.4,0-0.7,0.1-1.1,0.3c-0.4,0.1-0.7,0.2-1.1,0.2c-0.3,0-0.6,0.1-0.9,0.3
			c-0.3,0.1-0.6,0.3-0.9,0.4c-0.2,0-0.4,0.1-0.5,0.1c-0.2,0-0.4,0.1-0.5,0.1h-0.5h0.4c0.4,0,0.7,0.2,1.1,0.1
			c0.6-0.1,1.2-0.5,1.8-0.5C64.4,129.3,64.7,129.3,65,129.3z"/>
		<path class="st9" d="M57.6,137.4c0.1,0,0.1,0,0.2-0.1L57.6,137.4C57.5,137.4,57.5,137.5,57.6,137.4z"/>
		<path class="st9" d="M57.8,137.4h0.4H57.8z"/>
		<path class="st9" d="M66.9,136.8c0.5,0,0.9-0.1,1.4-0.1c0.5-0.1,0.9-0.2,1.2-0.6c0.1-0.1,0.1-0.2,0-0.3c0,0-0.1-0.1-0.2,0
			c-0.4,0.1-0.9,0.2-1.3,0.2c-0.4,0-0.9,0-1.3,0.1c-1,0.1-2,0.3-3,0.4c-1,0.1-2,0.7-3,0.8c-0.5,0-1,0-1.5,0h-0.7h-0.3h0.2
			c0.3,0,0.6,0,0.9,0c0.5,0,0.9,0.1,1.4,0.1h1.6c0.5,0,1.1-0.3,1.6-0.3C64.9,137,65.9,136.9,66.9,136.8z"/>
		<path class="st9" d="M78.6,138.3c0.2,0,0.4,0,0.6-0.1C78.9,138.2,78.7,138.3,78.6,138.3z"/>
		<path class="st9" d="M78.4,138.4l0.2-0.1L78.4,138.4C78.4,138.3,78.3,138.4,78.4,138.4z"/>
		<path class="st9" d="M84.4,137.7c0.2,0,0.4,0,0.6,0c0.3,0,0.7-0.1,1-0.2c0.4-0.1,0.7-0.2,1-0.3c0.1,0,0.1-0.2,0-0.2
			c-0.3,0-0.7-0.1-1-0.1c-0.4,0-0.7,0.1-1.1,0.1c-0.2,0-0.3,0-0.5,0.1c-0.2,0.1-0.4,0.2-0.6,0.2l-1.1,0.2l-2.1,0.4l-1.1,0.2
			l-0.5,0.1h0.4l1.1-0.1l2.3-0.3l1.1-0.1C84,137.7,84.2,137.7,84.4,137.7z"/>
		<path class="st9" d="M78.9,123.8L78.9,123.8L78.9,123.8C78.9,123.8,78.9,123.9,78.9,123.8z"/>
		<path class="st9" d="M79,123.8c0.1,0,0.2,0,0.3,0C79.2,123.8,79.1,123.8,79,123.8z"/>
		<path class="st9" d="M83.5,123.2c0,0,0-0.1,0-0.1c0,0-0.1,0-0.1,0c-0.3,0.1-0.6,0.2-0.9,0.3c-0.4,0.1-0.8,0.2-1.3,0.3
			s-0.8,0.1-1.2,0.2h-0.5h-0.1h0.1H80c0.5,0,0.9,0,1.4,0C82,123.8,83,123.8,83.5,123.2z"/>
		<path class="st7" d="M146.4,97.1c0-0.1,0-0.3,0-0.4c0-0.1,0-0.3-0.1-0.4c-0.1-0.3-0.4-0.4-0.7-0.3c-0.2,0-0.3,0.1-0.5,0.3
			c-0.1,0.1-0.2,0.2-0.3,0.2c-0.2,0.2-0.1,0.6,0.1,0.8c0,0,0,0,0,0c0.1,0.1,0.2,0.2,0.3,0.2c0.2,0,0.4,0,0.5,0
			C146.2,97.5,146.4,97.3,146.4,97.1z"/>
		<path class="st7" d="M146,88.9c0.3-0.3,0-0.7-0.3-0.9c-0.2-0.2-0.6-0.2-0.8,0c-0.1,0.1-0.2,0.2-0.2,0.4c0,0.1,0,0.3,0.1,0.4l0,0
			c0.1,0.1,0.2,0.2,0.3,0.3c0.2,0.1,0.3,0.1,0.5,0C145.8,89.1,145.9,89,146,88.9z"/>
		<path class="st7" d="M146.9,80.8c0-0.3-0.3-0.5-0.6-0.4c-0.3,0-0.5,0.3-0.4,0.6l0,0c0,0.3,0.3,0.5,0.6,0.4
			C146.8,81.3,146.9,81.1,146.9,80.8z"/>
		<path class="st7" d="M146.7,104.8c0-0.1,0-0.2-0.1-0.3c0-0.1-0.1-0.3-0.2-0.3l-0.3-0.2c-0.2-0.1-0.5-0.1-0.7,0
			c-0.4,0.3-0.9,0.8-0.4,1.2c0.4,0.4,0.9,0.5,1.4,0.3C146.7,105.3,146.8,105.1,146.7,104.8z"/>
		<path class="st7" d="M147.1,111.1h-0.2c-0.3,0-0.5,0.2-0.5,0.5c0,0,0,0.1,0,0.1c0,0.3,0.2,0.5,0.4,0.5c0,0,0.1,0,0.1,0h0.2
			C147.9,112.2,147.8,111,147.1,111.1z"/>
		<path class="st7" d="M149.1,118.9c0-0.3-0.3-0.5-0.6-0.5c-0.3,0-0.5,0.3-0.5,0.6s0.3,0.5,0.6,0.5
			C148.9,119.4,149.1,119.2,149.1,118.9z"/>
		<path class="st7" d="M150.4,125.3c-0.1,0.1-0.1,0.2-0.1,0.4c0,0.1,0,0.2,0.1,0.3l0.1,0.1c0.1,0.1,0.2,0.1,0.2,0.1
			c0.1,0,0.3,0,0.4,0c0.4,0,0.5-0.4,0.4-0.7c-0.1-0.3-0.5-0.4-0.8-0.3c0,0,0,0-0.1,0C150.5,125.2,150.5,125.2,150.4,125.3z"/>
		<path class="st7" d="M139.6,97.9c0-0.1,0-0.3,0-0.4c0-0.1-0.1-0.3-0.1-0.4c-0.1-0.3-0.4-0.4-0.6-0.3c-0.1,0-0.3,0.1-0.4,0.2
			l-0.1,0.2c-0.1,0.1-0.2,0.1-0.2,0.2c-0.2,0.2-0.1,0.6,0.1,0.7l0.3,0.2c0.2,0.1,0.4,0.2,0.6,0.1C139.4,98.3,139.6,98.1,139.6,97.9z
			"/>
		<path class="st7" d="M139.2,89.8c0.1-0.1,0.1-0.2,0.1-0.4c0-0.1-0.1-0.3-0.2-0.3h-0.1c-0.1-0.2-0.3-0.4-0.6-0.3
			c-0.3,0-0.5,0.2-0.5,0.5c0,0.1,0,0.3,0.1,0.4c0,0,0,0,0,0.1c0.1,0.1,0.2,0.2,0.3,0.3c0.2,0.1,0.3,0.1,0.5,0
			C139,89.9,139.1,89.9,139.2,89.8z"/>
		<path class="st7" d="M140.1,81.6c0-0.3-0.3-0.5-0.6-0.4c-0.3,0-0.5,0.3-0.4,0.6s0.3,0.5,0.6,0.4C140,82.1,140.2,81.9,140.1,81.6
			L140.1,81.6z"/>
		<path class="st7" d="M139.9,105.6c0-0.1,0-0.2-0.1-0.3c0-0.1-0.1-0.3-0.2-0.3h-0.1l-0.1-0.1c-0.1,0-0.1-0.1-0.2-0.2
			c-0.1,0-0.2-0.1-0.4-0.1h-0.1c-0.1,0-0.2,0-0.3,0.1h-0.1c-0.1,0-0.2,0.1-0.3,0.2c-0.2,0.2-0.2,0.5-0.1,0.8
			c0.1,0.1,0.2,0.2,0.3,0.4c0.1,0.1,0.2,0.1,0.3,0.1c0.3,0.1,0.5,0.2,0.9,0.1C139.9,106.2,140,105.9,139.9,105.6z"/>
		<path class="st7" d="M139.4,104.8L139.4,104.8L139.4,104.8C139.5,104.8,139.5,104.8,139.4,104.8z"/>
		<path class="st7" d="M140.3,112h-0.2c-0.3,0-0.5,0.2-0.5,0.5c0,0,0,0.1,0,0.1c0,0.3,0.2,0.5,0.4,0.5c0,0,0.1,0,0.1,0h0.2
			C141.1,113,141,111.8,140.3,112z"/>
		<path class="st7" d="M142.3,119.7c0-0.3-0.3-0.5-0.6-0.5c-0.3,0-0.5,0.3-0.5,0.6l0,0c0,0.3,0.3,0.5,0.6,0.5
			C142.1,120.3,142.3,120,142.3,119.7z"/>
		<path class="st7" d="M144.8,126.3c0-0.3-0.3-0.5-0.6-0.5c-0.1,0-0.3,0-0.4,0.1c-0.1,0-0.2,0.1-0.2,0.2c-0.1,0.1-0.1,0.2-0.1,0.4
			c0,0.1,0,0.2,0.1,0.3l0.1,0.1c0.1,0.1,0.2,0.1,0.2,0.1c0.1,0,0.3,0,0.4,0C144.6,126.9,144.8,126.6,144.8,126.3z"/>
		<path class="st7" d="M218.6,89.6c0.2-0.2,0.2-0.4,0-0.6c0,0,0,0,0,0c-0.1-0.1-0.2-0.1-0.2-0.1c-0.1-0.1-0.3-0.1-0.4-0.1
			c-0.2,0-0.4,0.1-0.5,0.4c0,0.1,0,0.2,0,0.3c0,0.1,0,0.2,0.1,0.3c0.1,0.2,0.3,0.3,0.5,0.3c0.2,0,0.3-0.1,0.4-0.1
			C218.5,89.8,218.6,89.7,218.6,89.6z"/>
		<path class="st7" d="M217.1,82.8L217.1,82.8c0-0.2,0-0.3,0-0.4c-0.1-0.2-0.4-0.3-0.6-0.2c-0.1,0-0.2,0.1-0.2,0.2
			c-0.1,0.2-0.3,0.6,0,0.8c0.1,0.1,0.2,0.1,0.3,0.1c0.1,0,0.3,0,0.4-0.1C217.1,83,217.1,82.9,217.1,82.8z"/>
		<path class="st7" d="M218.9,95.4c-0.1,0.1-0.1,0.2-0.1,0.3c0,0.1,0,0.2,0,0.2c0,0.2,0.2,0.4,0.4,0.4c0.4,0.1,0.8-0.1,1-0.5
			c0.3-0.5-0.2-0.8-0.6-0.9c-0.2-0.1-0.4,0-0.6,0.2L218.9,95.4z"/>
		<path class="st7" d="M219.9,102h0.1c0.2,0,0.4-0.2,0.4-0.4c0,0,0-0.1,0-0.1c0.1-0.2,0-0.4-0.2-0.5c-0.1,0-0.2,0-0.3,0h-0.1
			C219.2,101.1,219.3,102.1,219.9,102z"/>
		<path class="st7" d="M220.6,107.5c0-0.2-0.3-0.4-0.5-0.4c-0.2,0-0.4,0.3-0.4,0.5s0.3,0.4,0.5,0.4
			C220.4,108,220.6,107.7,220.6,107.5L220.6,107.5z"/>
		<path class="st7" d="M219.7,113.7c0.1,0,0.1-0.1,0.2-0.1l0.1-0.1c0-0.1,0-0.1,0-0.2c0-0.1,0-0.2-0.1-0.3c-0.1,0-0.1-0.1-0.2-0.1
			c-0.3-0.1-0.5,0-0.6,0.3c0,0,0,0,0,0.1c-0.1,0.3,0.1,0.6,0.4,0.5C219.6,113.8,219.7,113.7,219.7,113.7z"/>
		<path class="st7" d="M224.2,88.9c0.1-0.2,0.1-0.5-0.1-0.6c-0.1,0-0.1-0.1-0.2-0.1l-0.1-0.1c-0.1,0-0.2-0.1-0.3-0.1
			c-0.2,0-0.4,0.1-0.4,0.4c0,0.1,0,0.2,0,0.3c0,0.1,0,0.2,0.1,0.3c0.1,0.2,0.3,0.3,0.5,0.3c0.2,0,0.4-0.1,0.5-0.2L224.2,88.9z"/>
		<path class="st7" d="M224.5,94.6L224.5,94.6L224.5,94.6C224.5,94.5,224.5,94.6,224.5,94.6z"/>
		<path class="st7" d="M224.6,94.6L224.6,94.6v0.1c-0.1,0.1-0.1,0.2-0.1,0.3c0,0.1,0,0.2,0,0.2c0,0.2,0.2,0.4,0.4,0.4
			c0.3,0,0.4-0.1,0.6-0.3s0.2,0,0.2-0.1c0-0.1,0.1-0.2,0.1-0.3c0.1-0.2-0.1-0.5-0.2-0.6c-0.1-0.1-0.2-0.1-0.3-0.1h-0.1
			c-0.1,0-0.1,0-0.2,0H225c-0.1,0-0.2,0-0.3,0.1C224.7,94.4,224.6,94.5,224.6,94.6z"/>
		<path class="st7" d="M225.4,101.3h0.1c0.2,0,0.4-0.2,0.4-0.5c0-0.2-0.2-0.4-0.5-0.4l0,0h-0.1C224.7,100.4,224.9,101.4,225.4,101.3
			z"/>
		<path class="st7" d="M226.1,106.8c0-0.2-0.3-0.4-0.5-0.4c-0.2,0-0.4,0.3-0.4,0.5s0.3,0.4,0.5,0.4
			C226,107.3,226.2,107.1,226.1,106.8L226.1,106.8z"/>
		<path class="st7" d="M225.3,113c0.1,0,0.1-0.1,0.2-0.1l0.1-0.1c0-0.1,0-0.1,0-0.2c0-0.1-0.1-0.2-0.2-0.3c-0.1,0-0.1-0.1-0.2-0.1
			c-0.1,0-0.2,0-0.3,0c-0.2,0-0.4,0.2-0.4,0.5c0,0,0,0,0,0c0,0.2,0.2,0.4,0.5,0.4c0,0,0,0,0,0C225.1,113.1,225.2,113,225.3,113z"/>
		<polygon class="st0" points="93.4,116.4 92.1,100.8 96.7,103.2 97.6,113.7 		"/>
		<path class="st1" d="M97.1,102.6l-4.6-2.4l-1.2-0.6l0.1,1.4l1.3,15.6l0.1,1.2l1-0.7l4.2-2.6l0.4-0.2v-0.5l-0.9-10.5v-0.4
			L97.1,102.6z M97.6,113.7l-4.2,2.6l-1.3-15.6l4.6,2.4L97.6,113.7z"/>
		<path class="st2" d="M125.2,104.1c-2.9-3.6-11.5-11.6-27.6-6.2c-1.1,0.4-1.7,1.4-1.7,2.6l1.4,15.5c0.1,1.1,1,2,2.1,2.3
			c16.8,2.6,23.9-6.8,26.2-10.8C126,106.4,125.9,105.1,125.2,104.1z"/>
		<path class="st3" d="M124.6,105.3c-0.2,0.3-0.4,0.6-0.6,0.8l-0.3,0.4l-0.2,0.2c-0.1,0.1-0.3,0.3,0,0.1c-0.2,0.1-0.3,0.2-0.5,0.4
			c-0.1,0.1-0.4,0.4-0.2,0.2c-0.1,0.1-0.2,0.2-0.3,0.3l-0.2,0.2l-0.1,0.1l-0.4,0.4l-0.4,0.3c-0.1,0.1-0.1,0.1-0.2,0.2l0,0l0,0
			l-1,0.6c-0.4,0.2-0.8,0.4-1.2,0.7l-0.5,0.3l0,0l-0.2,0.1c-1.4,0.8-2.8,1.4-4.2,2c-0.4,0.1-0.7,0.3-1.1,0.4l-0.6,0.2l-0.2,0.1h-0.1
			c-0.8,0.2-1.6,0.4-2.4,0.6c-1.1,0.3-2.3,0.4-3.5,0.6c-0.6,0.1-1.2,0.1-1.7,0.2h-0.9h-0.4c-1.1,0-2.2,0-3.3-0.1c-0.2,0-0.5,0-0.7,0
			c0.7,0,0.1,0-0.1,0c-0.4,0-0.7,0.1-1.1,0.1c-0.3,0-0.6,0.1-0.9,0.2c-0.1,0.1-0.2,0.1-0.3,0.2c0.2,0.4,0.2,0.8,0.2,1.2
			c0,0.3-0.1,0.6-0.3,0.8c0.1,0.1,0.1,0.1,0.2,0.1c0.4,0.2,0.8,0.5,1.2,0.7c0.8,0.3,1.7,0.4,2.5,0.4c1.7,0.1,3.3,0.1,5-0.1
			c3.4-0.3,6.7-1.1,9.8-2.3c1.1-0.4,2.2-1,3.2-1.6c0.6-0.4,1.2-0.7,1.7-1.2c0.6-0.4,1.1-0.9,1.5-1.4c0.3-0.4,0.6-0.9,1-1.3
			c0.4-0.4,0.7-0.9,1-1.4c0.2-0.3,0.4-0.7,0.5-1.2l0,0v-0.1l0.2-0.4c0.2-0.5,0.4-1.1,0.5-1.7c0-0.2-0.2-0.4-0.4-0.4
			C124.7,105.2,124.6,105.2,124.6,105.3z"/>
		<path class="st1" d="M125.7,103.6c-1.9-2.3-4.2-4.2-6.8-5.6c-4.1-2.2-8.8-3.1-13.5-2.6c-2.8,0.3-5.5,0.9-8.2,1.8
			c-0.7,0.2-1.3,0.7-1.6,1.3c-0.4,0.6-0.6,1.3-0.5,2l1.3,15.5c0.1,0.7,0.4,1.4,0.9,1.9c0.5,0.5,1.1,0.9,1.8,1
			c2.8,0.5,5.6,0.6,8.4,0.3c4.7-0.3,9.1-2,12.8-4.8c2.3-1.8,4.3-4.1,5.7-6.7c0.3-0.7,0.5-1.4,0.4-2.1
			C126.4,104.9,126.2,104.2,125.7,103.6z M125.4,107.4c-1.8,3.3-6.9,10.2-18,11.1c-2.7,0.2-5.5,0.1-8.2-0.3c-1.1-0.2-1.9-1.1-2-2.3
			l-1.4-15.5c-0.1-1.1,0.6-2.2,1.7-2.6c2.6-0.9,5.3-1.5,8-1.7c11-1,17.3,5,19.6,7.9C125.8,105.1,125.9,106.4,125.4,107.4z"/>
		<path class="st3" d="M254.5,89.9c-0.8-1.1-1.7-2-2.9-2.8c-1.1-0.9-2.1-2-3.3-2.8c-2.5-1.7-5.2-3.1-8-4.2c-2.8-1.1-5.6-2.1-8.5-2.8
			c-1.4-0.4-2.9-0.8-4.3-1s-3.1-0.7-4.4-0.2c-0.4,0.1-0.6,0.6-0.5,1c0.1,0.2,0.2,0.3,0.3,0.4c1.2,0.7,2.6,1.1,4,1.2
			c1.4,0.3,2.8,0.5,4.2,0.8c2.9,0.6,5.7,1.4,8.4,2.4c2.7,1,5.3,2.2,7.9,3.5c1.2,0.7,2.5,1.3,3.7,2.1s2.1,2,3.3,2.8
			C254.5,90.2,254.7,90.1,254.5,89.9L254.5,89.9z"/>
		<path class="st2" d="M172,77.1L172,77.1C171.7,77.2,171.9,77.1,172,77.1z"/>
		<path class="st2" d="M165.5,97.7L165.5,97.7z"/>
		<path class="st2" d="M192.2,96.5c-0.1-0.2-0.4-0.4-0.6-0.6c-0.3-0.1-0.5-0.2-0.8-0.2c-0.4,0-0.8,0.1-1.1,0.3l-0.2,0.1
			c-0.1,0-0.3,0.1-0.4,0.1h-0.1c0-0.1-0.1-0.1-0.1-0.2l-0.1-0.2c-0.1-0.1-0.2-0.2-0.3-0.3l-0.1-0.1c-0.1-0.1-0.2-0.2-0.3-0.3
			l-0.3-0.3l0,0c0,0-0.1-0.1-0.1-0.1c-0.6-0.9-1.1-1.8-1.7-2.7c0-0.2,0-0.4-0.1-0.6c0-0.4-0.1-0.8-0.1-1.2c-0.1-0.7-0.1-1.4-0.1-2.2
			s0-1.3-0.1-2c0-0.2,0-0.4-0.1-0.6c0,0,0-0.1,0-0.1v-0.3c0-0.4-0.1-0.7-0.2-1.1c0-0.1-0.1-0.2-0.1-0.3c-0.2-0.4-0.2-0.4-0.1-0.2
			c0,0,0-0.1,0-0.1l-0.2-0.7c-0.1-0.4-0.2-0.7-0.4-1.1c0.4-0.2,0.7-0.4,1-0.7c0.2-0.2,0.3-0.4,0.4-0.6c0.2-0.5,0.3-1,0.2-1.5
			c0-0.1,0-0.2-0.1-0.3c0.4-0.5,0.5-1.1,0.3-1.7c-0.2-0.6-0.6-1-1.2-1.2c-0.5-0.1-1.1-0.1-1.6,0.2c-0.2,0.1-0.3,0.2-0.5,0.3H183
			l-0.2,0.1c-0.9,0.3-1.7,0.4-2.6,0.6l-0.3,0.2h-0.3l-0.9,0.1c-0.6,0.1-1.3,0.1-1.9,0.1s-1.2,0-1.8-0.1h-0.3l-0.6-0.1
			c-0.3,0-0.6,0-0.9,0c-0.4,0-0.7,0.1-1.1,0.2h-0.1c-0.2,0-0.4,0.1-0.6,0.1H171c-0.2,0-0.5,0-0.7,0c-0.3,0.1-0.6,0.3-0.7,0.7l0,0
			c-0.1,0.2-0.1,0.4,0,0.6v-0.1c0,0.2,0.1,0.4,0.3,0.5c-0.1,0.1-0.1,0.2-0.1,0.3h-0.2c-0.2-0.1-0.5,0-0.6,0.2c0,0,0,0,0,0
			c0,0,0,0,0,0.1c-0.1,0.2,0,0.4,0.2,0.5l0.2,0.1c-0.1,0.3-0.1,0.7-0.1,1c0.1,1.3,0.3,2.5,0.6,3.8c0.1,0.3,0.2,0.7,0.3,1
			s0.1,0.7,0.2,1c0,0,0,0.2,0,0.2s0,0.2,0,0.3c0,0.2,0,0.4,0,0.6c0,0.5,0,1,0.1,1.5c0.1,0.9,0.1,1.8,0.1,2.7c0,0,0,0.1,0,0.2
			c0,0.1-0.1,0.1-0.1,0.2c-0.1,0.2-0.1,0.3-0.2,0.5c0,0,0,0.1-0.1,0.1l-0.1,0.3l-0.1,0.2c-0.1,0.1-0.1,0.2-0.2,0.2l-0.1,0.1
			l-0.1,0.1l-0.7,0.6l-0.4,0.3l-0.2,0.1l-0.4,0.3c-0.2,0.1-0.4,0.2-0.6,0.3l0,0c-0.1,0-0.2,0.1-0.3,0.1c-0.2,0-0.5,0.1-0.7,0.2
			c-0.1,0-0.2,0-0.3,0.1c-0.4,0.1-0.7,0.5-0.7,1v-0.1c0,0.2,0,0.3,0.1,0.5l0.1,0.2c0.1,0.2,0.2,0.3,0.4,0.5c0,0,0,0,0.1,0.1
			c0,0.1,0.1,0.1,0.1,0.2c0.3,0.2,0.5,0.3,0.8,0.4c0.2,0.1,0.5,0,0.7-0.1l0.1,0c0.3,0,0.6-0.1,0.9-0.2c0.1,0,0.2-0.1,0.3-0.1
			c-0.1,0-0.1,0,0.2,0c0.2-0.1,0.4-0.2,0.5-0.4l0.1-0.1l0.3-0.2c0.2-0.1,0.4-0.3,0.6-0.4c0.7-0.5,1.2-1.2,1.5-2
			c0.2-0.3,0.4-0.6,0.6-0.9c0.3-0.5,0.4-1.1,0.4-1.7v0.1l0.1-0.5c0,0,0-0.1,0-0.2c0.2-0.4,0.3-0.8,0.3-1.2c0-0.6,0-1.3-0.1-1.9
			c0-0.4-0.1-0.7-0.1-1.1c0,0,0,0,0-0.1c0.1-0.3,0-0.6-0.1-0.8l0,0v-0.2c0-0.5,0-1,0.1-1.4s0.1-1.1,0.2-1.7c0-0.1,0-0.2,0-0.2
			c0-0.1,0-0.1,0.1-0.2c0-0.2,0.1-0.3,0.1-0.5v-0.1l0,0c0-0.1,0.1-0.2,0.1-0.3c0.1-0.2,0.2-0.3,0.3-0.4l0,0l0.1-0.1
			c1.2,0.3,2.4,0.4,3.6,0.5c1.4,0.1,2.9,0.1,4.3-0.2h0.1c0,0.5,0,1,0.1,1.5c0,0.1,0,0.1,0,0.2c-0.1,0.5-0.1,1-0.1,1.6
			c-0.1,1.3-0.1,2.6-0.3,3.8c0,0.3,0,0.6-0.1,0.9c0,0,0,0-0.1,0.1c-0.1,0.2-0.1,0.4-0.1,0.7c0,0.5,0,1,0,1.4c0,1.2,0.3,2.3,0.8,3.4
			c0.5,1,1.3,1.9,2.3,2.6c0.9,0.6,1.9,0.9,3,1c0.9,0.1,1.9,0,2.8-0.3c0.8-0.2,1.5-0.8,1.8-1.7C192.6,97.4,192.5,96.9,192.2,96.5z
			 M170.7,92.5l0.1-0.1L170.7,92.5L170.7,92.5z M169.7,98.3L169.7,98.3z M169.7,98.3L169.7,98.3z M173.5,84
			C173.5,83.9,173.5,83.8,173.5,84z"/>
		<path class="st6" d="M156.8,66l0.2-0.4c1.2-1.6,3-2.7,4.9-3.1c1.8-0.5,3.8-0.3,5.4,0.6c0,0,0.1,0,0.1,0h0.1c0.1-0.1,0.2-0.1,0.3,0
			h0.1c0,0,0.1,0,0.1,0c3.2-1.9,5.7-4.8,7.2-8.1c0.5-1.5,0.5-2.6-0.2-3.4c-0.5-0.6-1.2-1-2-1.1c-0.7,0-1.4,0.1-2.1,0.4l0,0l0,0
			c-0.2,0.1-0.5,0.2-0.7,0.3l-0.1,0.2h-0.1c-0.1,0-0.2,0.1-0.2,0.2l0,0c-0.1,0-0.2,0.1-0.2,0.2c-0.2,0.2-0.4,0.5-0.6,0.7
			c-0.1,0.2-0.3,0.4-0.4,0.5c-0.1-0.1-0.1-0.2,0-0.3c0.1-0.2,0.2-0.4,0.3-0.5l0,0l-0.1,0l0,0c0.3-0.4,0.5-0.8,0.6-1.2
			c0,0,0-0.1,0-0.1l0.2-0.2c0,0,0,0,0-0.1l0,0l0,0c0.1,0,0.1,0,0.2-0.1l0,0l0.2-0.1v-0.5h-0.1c-0.1,0-0.1-0.1-0.1-0.1
			c-0.4,0.1-0.8,0.2-1.1,0.3c-1,0.4-1.8,1.3-2,2.3c-0.1,0.7-0.9,1.4-2.2,2.1c-0.6,0.3-1.2,0.6-1.9,0.8v0c0.8-0.6,1.5-1.2,2.2-2
			c0.6-0.4,1-0.8,1.1-1.1c0.2-1.4,1.2-2.5,2.5-3l0.4-0.2c0.1-0.1,0.2-0.1,0.3-0.2c0.6-0.2,1.2-0.4,1.7-0.7c0.4-0.3,0.7-0.6,1-1
			c0.2-0.3,0.4-0.6,0.5-1c0.2-0.6,0.2-1.2,0-1.7c-0.1-0.3-0.2-0.6-0.4-0.9c-0.1-0.4-0.2-0.8-0.4-1.2c-0.2-0.3-0.4-0.6-0.6-0.8
			c-0.5-0.6-1.2-1-2-1.2l0,0l-0.4-0.2l0,0l-0.2-0.1l-0.2-0.1l-0.2-0.1l-0.2-0.1l-0.2-0.1l-0.4-0.3l-0.1-0.1l-0.3-0.2l-0.1-0.1
			l-0.3-0.2l-0.1-0.1l-0.2-0.1c0,0-0.1,0.1-0.1,0.1c-0.2,0-0.4,0.1-0.5,0.2c-2.6,1-4.9,2.9-6.4,5.2c-1.2,1.7-2.1,3.4-2.9,5.3
			c0,0.1,0,0.1-0.1,0.2l-0.2,0.8c-0.6,1.8-0.9,3.7-1.1,5.6c-0.4,2.8,0,5.7,1.1,8.4c0.3,0.6,0.6,1.2,1,1.7L156.8,66z"/>
		<path class="st6" d="M201.4,56.5c-0.1-2.2-0.5-4.3-1.2-6.4l-0.3-0.9c-0.8-2.3-2-4.4-3.5-6.3c-0.1,0-0.2,0-0.2-0.1
			c-0.1-0.2-0.2-0.4-0.4-0.6c-0.1-0.1-0.1-0.2-0.2-0.2c-1.2-1.2-2.6-2.3-4.1-3.1l-0.4,0.3l-0.1,0.1l-0.4,0.2l-0.1,0.1l-0.3,0.2
			l-0.2,0.1l-0.3,0.2l-0.2,0.1l-0.2,0.1l-0.2,0.1l0,0l-0.3,0.2h-0.3c-1.2,0-2.4,0.6-3,1.6c-0.3,0.6-0.5,1.3-0.5,2
			c-0.7,0.6-1.1,1.4-1.1,2.3c0,1.7,1.3,3,3,3c0.2,0,0.4,0,0.6,0c0.4,0.1,0.7,0.2,1.1,0.4c1.3,0.5,2.2,1.7,2.4,3.1
			c0.1,0.4,0.5,0.8,1.1,1.2c0.6,0.7,1.3,1.3,2.2,1.8l-0.1,0.2c-0.6-0.2-1.3-0.5-1.9-0.8c-1.4-0.7-2.1-1.5-2.2-2.2
			c-0.1-1.1-0.9-2-1.9-2.4c-0.4-0.2-0.8-0.3-1.2-0.4c0,0,0,0-0.1,0.1v0.1c0,0-0.1,0.1-0.1,0.1c0,0,0,0-0.1,0c-0.1,0.1-0.1,0.2,0,0.3
			c0,0,0,0,0,0c0,0.1,0,0.1,0.1,0.2c0,0,0.1,0.1,0.1,0.1c0,0.1,0.1,0.1,0.1,0.1h0.1l0,0l0,0l0,0c0,0.1,0.1,0.2,0.2,0.2c0,0,0,0,0,0
			l0,0l0,0l0,0l0.1,0.1c0.1,0.1,0.1,0.2,0.2,0.3c0.1,0.1,0.1,0.2,0.1,0.3c0,0,0.1,0.1,0.1,0.1l0,0v0.1c0,0.1,0,0.2,0.1,0.2
			c0,0.2,0.1,0.4,0.1,0.7s0,0.2,0,0.2h-0.1c-0.1-0.3-0.2-0.7-0.4-1c0,0-0.1-0.1-0.1-0.1c0-0.1-0.1-0.3-0.2-0.4
			c0-0.1-0.1-0.1-0.2-0.1c0,0-0.2,0-0.1,0s-0.1-0.1-0.1-0.2c-0.1,0-0.1-0.1-0.2-0.1c0,0,0,0,0-0.1c-0.9-0.6-1.9-1-2.9-1
			c-0.8,0-1.6,0.4-2.1,1c-0.7,0.8-0.8,1.9-0.3,3.4c1.1,3.3,4.9,7.5,7.3,8.6c1.8-0.6,3.8-0.7,5.7-0.3c1.6,0.5,3.1,1.4,4.2,2.7
			c0.1,0.1,0.2,0.2,0.3,0.3l0,0c0.4-0.5,0.7-1,1-1.6C201.2,62.1,201.6,59.3,201.4,56.5z"/>
		<path class="st6" d="M199.4,70.8c0-0.1,0-0.1,0-0.2c0,0,0-0.1,0-0.1s0-0.1,0-0.2c0,0,0-0.1,0-0.1c0,0,0-0.1,0-0.2s0-0.1,0-0.1
			c0-0.1,0-0.1,0-0.2c0,0,0-0.1,0-0.1v-0.2c0,0,0-0.1,0-0.1c0-0.2-0.1-0.4-0.2-0.6c0,0,0,0,0-0.1l-0.1-0.2c0,0,0-0.1,0-0.1
			c0-0.1,0-0.1-0.1-0.2v-0.1c-0.1-0.1-0.2-0.1-0.3-0.2c0,0,0-0.1,0-0.1c0-0.1,0-0.1-0.1-0.2v-0.1c0-0.1,0-0.1-0.1-0.2c0,0,0,0,0-0.1
			l-0.1-0.2l0,0l-0.2-0.4c-0.1-0.2-0.3-0.4-0.4-0.6c-1.3-1.5-3.2-2.3-5.1-2.4c-4.4-0.2-9.1,3.4-10.6,4.7c0,0,0,0,0-0.1
			c0-0.1-0.1-0.1-0.1-0.2c0.6-0.7,1.3-1.4,2-2h0.1c0.2-0.1,0.4-0.3,0.6-0.5c0,0,0.1-0.1,0.1-0.1l0,0c0.1-0.1,0.2-0.1,0.2-0.2
			c0.9-0.6,1.9-1.1,2.9-1.5c-0.7-0.4-1.4-1-2.1-1.5c0,0.3,0,0.6-0.3,0.8c-0.1,0.2-0.2,0.4-0.3,0.5c0,0,0,0.1-0.1,0.1l-0.2,0.1
			c-0.8,0.6-1.7,0.9-2.6,0.9c-0.2,0-0.4,0-0.6-0.1h-0.1h-0.2c0,0-0.1,0,0,0h-0.1c-0.4,0.2-0.8,0.2-1.3,0c0,0-0.1,0-0.1-0.1
			c-0.9,0-1.7,0.1-2.5,0.1c-1,0-2.1,0-3.1-0.1c-0.8-0.1-1.5-0.2-2.3-0.3c-0.1,0-0.2-0.1-0.2-0.2c-0.2-0.1-0.3-0.2-0.5-0.3l0,0
			c-0.2-0.2-0.4-0.5-0.5-0.8c0,0-0.1,0-0.1-0.1c-0.1-0.1-0.1-0.2-0.1-0.3c-0.1,0-0.2-0.1-0.2-0.3v-0.1c-0.7,0.6-1.5,1.1-2.3,1.5
			c1,0.5,1.9,1,2.8,1.6l0.2,0.1c0.6,0.6,1.3,1.2,1.9,1.8c0,0.1,0.1,0.2,0.1,0.3c0.1,0.1,0.1,0.2,0.1,0.3c-0.1,0-0.2,0.1-0.3,0.1
			c-1.8-1.6-6-4.7-10-4.7c-1.9,0-3.7,0.8-5,2.2c-0.2,0.3-0.5,0.6-0.7,0.9c-0.1,0.1-0.1,0.2-0.2,0.3l0,0c-0.1,0.2-0.2,0.4-0.3,0.6
			l0,0c0,0.1-0.1,0.1-0.1,0.2l0,0c0,0.1,0,0.1-0.1,0.2l0,0c0,0.1-0.1,0.1-0.1,0.2l0,0c-0.1,0.2-0.1,0.4-0.2,0.7l0,0v0.2v0.1
			c0,0.1,0,0.1,0,0.2c0,0,0,0.1,0,0.1v0.2v0.1c0,0.2,0,0.4,0,0.7V71c0,0.1,0,0.1,0,0.2v0.1c0,0,0,0.1,0,0.2s0,0.1,0,0.2s0,0.1,0,0.2
			c0,0.1,0,0.1,0,0.2v0.2c0,0.1,0,0.1,0,0.2c0,0,0,0.1,0,0.2v0.2V73c0,0.1,0,0.1,0,0.2v0.2c0,0.1,0,0.2,0,0.2v0.1
			c0,0.1,0,0.2,0.1,0.3v0.1c0,0.1,0.1,0.2,0.1,0.3v0.1c0,0.1,0.1,0.2,0.1,0.2s0,0.1,0,0.1s0.1,0.2,0.1,0.2l0.1,0.1
			c0,0.1,0,0.2,0.1,0.3c0,0,0,0.1,0,0.1l0.1,0.4c0.5,1,1,2.1,1.5,3c0,0.1,0,0.2,0.1,0.3c0.1,0.3,0.2,0.6,0.3,0.9
			c0.2,0.6,0.5,1.3,0.8,1.9v0.1c0,0.1,0.1,0.1,0.1,0.2c0.5,1.3,1.4,2.2,1.6,3.6c0,0.3,0.3,0.6,0.3,0.9s0,0.4,0,0.6c0,0,0,0.1,0,0.2
			s0,0.1,0,0.2c-0.1,1-0.3,1.9-0.4,2.8c-0.1,0.1-0.1,0.3-0.1,0.5c0,0.3,0,0.7,0,1c-0.1,0.5-0.1,1-0.1,1.6c0,0.1,0,0.2,0.1,0.3
			c0,0.5,0.1,1,0.1,1.5c0.1,0.7,0.4,1.4,0.9,1.9c0.4,0.4,1.1,0.5,1.6,0.8c0.7,0.2,1.4,0.2,2-0.1c0.3-0.1,0.7-0.2,1-0.3
			c1.1-0.5,2.1-1.3,2.8-2.4c0.4-0.7,0.7-1.5,0.9-2.4c0.2-1,0.2-2,0.1-3c0-0.2,0-0.4-0.1-0.6c-0.1-0.7-0.2-1.4-0.3-2.1
			c0-0.2-0.2-0.6-0.2-0.8c0.1-0.6,0.2-1.3,0.1-1.9l0,0c0-0.3,0.2-0.7,0.2-1.1c0-0.3,0-0.7,0-1c0.1-0.9,0.1-1.7,0-2.6
			c0-0.2,0-0.4,0-0.6c0-0.8-0.1-1.7-0.2-2.5c0-0.1,0-0.2,0-0.3c0-0.1,0-0.2,0-0.3s0-0.2,0-0.3v-0.1c0-1.9-0.5-3.9-1.3-5.6l0.2-0.1
			l0.3,0.3c0.4,0.7,0.7,1.3,1.1,2c0.1,0.3,0.3,0.7,0.4,1c0.2,0.9,0.3,1.8,0.2,2.7c0,0.2,0,0.3,0,0.4l0.1,0.1l0.6,0.3h0.1l0,0h0.1
			l0,0h0.1l0,0h0.1l0,0h0.1h0.1l0.1,0.1l0,0h0.1l0,0h0.1h0.1h0.1l0,0l0.2,0.1l0,0h0.1h0.1h0.1l0,0l0.2,0.1l0,0h0.2h0.1h0.1h0.1h0.2
			h0.2h0.1h0.1h0.1h0.1h0.1h0.1h0.1h0.1h0.1h0.1h0.1h0.1h0.1h0.1h0.2h0.1h0.2h2.8c1.6-0.1,3.2-0.4,4.8-0.9l0.2-0.1h0.1V76
			c0-0.1,0-0.1,0-0.2v-0.2c0-0.3,0.1-0.7,0.1-1c0-0.1,0-0.1,0.1-0.2l0,0c0-0.3,0-0.5,0.1-0.8c0.1-0.1,0.1-0.2,0.1-0.3l0.2-0.6
			c0-0.1,0-0.2,0-0.2c0.1-0.5,0.3-0.9,0.5-1.4c0-0.1,0.1-0.1,0.1-0.1c0-0.1,0-0.2,0.1-0.3c0-0.1,0.1-0.2,0.3-0.2
			c0-0.1,0.1-0.2,0.1-0.2c0.3-0.3,0.5-0.6,0.8-0.9h0.1c-0.3,0.6-0.6,1.2-0.8,1.8c0,0.1,0,0.1,0,0.2c0,0,0,0.1,0,0.1l-0.1,0.1
			c0,0,0,0.1,0,0.1c-0.1,0.1-0.1,0.3-0.1,0.4s-0.1,0.3-0.2,0.5l0,0v0.1c0,0,0,0,0,0.1c0,0.1,0,0.2,0,0.3c0,0-0.1,0.1-0.1,0.1l0,0
			v0.1c0,0.1,0,0.1,0,0.2c-0.1,0.4-0.2,0.8-0.3,1.2c0,0.1,0,0.2,0,0.2V76l0,0l-0.1,0.8l0,0c0,0.1,0,0.2,0,0.3l0,0l0,0v0.2
			c0,0.3,0,0.5,0,0.8c0,0.1-0.1,0.2-0.1,0.3c0,0.4-0.1,0.8-0.1,1.3c0,0.2,0,0.4-0.1,0.6c-0.1,0.9-0.1,1.7,0,2.6c0,0.3,0,0.7-0.1,1
			c0,0.3,0.2,0.7,0.1,1.1l0,0c-0.1,0.6,0,1.3,0.1,1.9c0,0.2-0.2,0.6-0.2,0.8c-0.1,0.7-0.2,1.4-0.4,2.1c0,0.2-0.1,0.4-0.1,0.6
			c-0.1,1-0.1,2,0,3c0.1,0.8,0.4,1.6,0.8,2.4c0.6,1.1,1.6,2,2.7,2.5c0.3,0.2,0.7,0.3,1,0.4c0.6,0.3,1.3,0.4,2,0.2
			c0.6-0.1,1.1-0.4,1.6-0.7c0.5-0.5,0.8-1.2,0.9-1.9c0.1-0.5,0.2-1,0.2-1.5c0-0.1,0.1-0.2,0.1-0.3c0-0.5,0-1,0-1.6c0-0.3,0-0.7,0-1
			c0-0.2,0-0.3-0.1-0.5c-0.1-1-0.3-1.9-0.3-2.8v-0.2c0,0,0-0.1,0-0.1c0-0.2,0-0.4,0-0.6s0.3-0.6,0.3-0.9c0.3-1.4,1.2-2.3,1.7-3.5
			l0.1-0.2v-0.1c0.3-0.6,0.6-1.2,0.8-1.8l0,0c0.1-0.2,0.3-0.5,0.4-0.7l0,0l0.1-0.2v-0.1c0-0.1,0.1-0.1,0.1-0.2v-0.1
			c0-0.1,0.1-0.1,0.1-0.2v-0.1l0.1-0.2c0,0,0-0.1,0.1-0.1l0.1-0.2c0,0,0-0.1,0.1-0.1l0.1-0.2l0.1-0.1c0-0.1,0.1-0.1,0.1-0.2l0.1-0.1
			l0.1-0.2l0.1-0.1c0-0.1,0-0.1,0.1-0.2c0,0,0-0.1,0.1-0.1c0-0.1,0-0.1,0.1-0.2l0.1-0.1l0.1-0.2V77l0.1-0.3l0.1-0.4v-0.1l0.1-0.3
			c0,0,0-0.1,0.1-0.2c0-0.1,0-0.2,0.1-0.2s0-0.1,0.1-0.2l0.1-0.2c0,0,0-0.1,0.1-0.2l0.1-0.2v-0.2l0.1-0.2c0,0,0-0.1,0-0.2l0.1-0.2
			v-0.1c0-0.1,0.1-0.2,0.1-0.3v-0.1c0-0.1,0-0.1,0-0.2c0-0.1,0-0.1,0-0.2v-0.2v-0.2v-0.2c0-0.1,0-0.1,0-0.2s0-0.1,0-0.2s0-0.1,0-0.2
			c0,0,0-0.1,0-0.2c0-0.1,0-0.1,0-0.2v-0.2c0-0.2,0-0.4,0-0.6L199.4,70.8z"/>
		<path class="st6" d="M154.9,41c0,0.2,0,0.4,0,0.6c0,0.4,0.1,0.8,0.2,1.2c0,0.6,0,1.2,0,1.8c0,0.1,0,0.2,0.1,0.3c0,0.3,0,0.7,0,1
			c0,0,0,0.1,0,0.1c0,0.1,0,0.2,0,0.3v0.6c0,0.1,0,0.2,0.1,0.3c0,0.1,0,0.2,0,0.3c0,0,0,0.1,0,0.1l0,0c0,0.1,0,0.3,0,0.4
			c0,0.1,0,0.1,0.1,0.1c0.1,0,0.1,0,0.2-0.1c0,0,0,0,0,0l0.1-0.3c0,0,0.1,0,0.1-0.1l0,0c0,0,0.1-0.1,0.1-0.1v0c0,0,0-0.1,0.1-0.1
			c0.2-0.1,0.3-0.2,0.3-0.4v-0.2c0.3-0.3,0.5-0.6,0.7-1c0.2-0.4,0.4-0.9,0.6-1.3c0.8-1.3,1.8-2.5,2.9-3.6c0.8-0.8,1.8-1.5,2.8-2.2
			l1.3-1l0,0c0.1,0,0.1-0.1,0.1-0.2c0,0,0-0.1,0-0.1l0,0c0,0,0-0.1,0-0.1c0,0,0-0.1,0-0.1l0,0c0,0,0,0,0-0.1c0-0.1-0.1-0.1-0.1-0.1
			l-0.1-0.1c-0.1-0.2-0.3-0.3-0.4-0.4c-0.1-0.1-0.1-0.1-0.2-0.1l-0.2-0.1c-1.3-1.3-2.4-2.8-3.3-4.4h-0.1c-0.1-0.1-0.2-0.2-0.3-0.3
			c-0.1,0-0.1,0-0.2,0c-0.2,0-0.4,0-0.6,0.1l0,0l-0.1,0.1c-0.3,0-0.6,0.2-0.9,0.4c-0.1,0-0.1,0-0.2,0.1l0,0l-0.2,0.1
			c-0.1,0-0.2,0.1-0.3,0.1l-0.1,0.1c-0.1,0-0.3,0.1-0.3,0.2c-0.2,0.1-0.4,0.3-0.6,0.5c-0.3,0.3-0.6,0.6-0.8,1
			c-0.2,0.5-0.3,0.9-0.3,1.4c-0.1,0.5-0.1,1-0.2,1.6c-0.2,1.1-0.2,2.2-0.2,3.3C154.9,40.5,154.9,40.8,154.9,41z"/>
		<path class="st6" d="M193.4,37.6c0,0.1,0,0.1,0,0.2l0,0c0.1,0.5,0.1,1,0.1,1.5l0.1,0.1c2.4,1.6,4.4,3.8,5.8,6.3
			c0,0.2,0.1,0.4,0.2,0.6c0.1,0.5,0.3,0.9,0.4,1.3c0,0,0.1,0.1,0.1,0.2c0,0,0,0.1,0,0.1c0,0.1,0.1,0.1,0.1,0.1c0,0,0,0,0,0h0.1
			c0.1,0,0.2-0.1,0.2-0.2c0-0.2,0-0.5,0-0.7c0,0,0-0.1,0-0.1l0,0c0.1-0.1,0.1-0.2,0.1-0.3c0-0.3,0-0.7,0-1c0,0,0-0.1,0-0.2
			c0-0.1,0-0.2,0.1-0.3c0,0,0-0.1,0-0.2l0,0c0-0.1,0.1-0.2,0.1-0.2c0.1-0.7,0.1-1.3,0.1-2c0.1-1,0.2-2,0.3-3c0-0.3,0-0.5,0-0.8
			c0-0.5,0.1-1,0.1-1.5s0-0.8,0.1-1.3c0-0.2,0-0.4-0.1-0.6c0-0.4-0.1-0.7-0.3-1c-0.2-0.3-0.4-0.6-0.6-0.9c0-0.1-0.1-0.1-0.2-0.2
			c-0.1-0.1-0.3-0.2-0.4-0.3c-0.1-0.1-0.2-0.2-0.3-0.3c-0.1-0.1-0.1-0.1-0.2-0.1c-0.1-0.1-0.1-0.2-0.2-0.2c-0.2-0.2-0.5-0.4-0.8-0.5
			l-0.2-0.1c-0.1,0-0.2-0.1-0.2-0.1c-0.1-0.1-0.2-0.2-0.3-0.3l-0.1-0.1c-0.2-0.1-0.5-0.3-0.7-0.4c-0.2-0.1-0.4,0-0.6,0
			c-0.3,0.4-0.6,0.8-0.9,1.1c-0.5,0.6-1,1.2-1.5,1.7c-0.4,0.5-0.6,1.1-0.6,1.8C193.3,36.5,193.4,37,193.4,37.6z"/>
		<path class="st6" d="M192.9,33.8L192.9,33.8L192.9,33.8L192.9,33.8z"/>
		<path class="st6" d="M196.2,27.1c0,0.1,0,0.1,0-0.1V27.1z"/>
		<path class="st4" d="M183.9,78.1l0.5-0.1c0.2-0.1,0.4-0.2,0.6-0.4c0.1-0.1,0.2-0.1,0.3-0.2c0.5-0.5,0.5-1.2,0-1.7l-0.1-0.1
			c0.1-0.3,0.2-0.6,0.3-0.9c0.1-0.2,0-0.4-0.2-0.5c0.1-0.1,0.1-0.3,0.1-0.5c0-0.1,0.1-0.1,0.1-0.2c0-0.1,0.1-0.2,0.2-0.2
			c0.1-0.1,0.1-0.1,0.1-0.2l0.1-0.1c0.2-0.2,0.4-0.5,0.5-0.8c0.1-0.3-0.1-0.6-0.4-0.6c-0.1,0-0.3,0-0.4,0c-0.3,0.2-0.5,0.4-0.6,0.7
			c-0.2,0.2-0.3,0.4-0.4,0.6c-0.1,0-0.2,0.1-0.3,0.2c-0.1,0.3-0.4,0.5-0.7,0.7c-0.2,0-0.3,0.1-0.4,0.3c-0.2,0-0.4,0-0.5,0.1
			c0.4-0.1-0.4,0.1-0.4,0.1c-0.7,0.2-1.3,0.4-2,0.6c-0.6,0.2-1.3,0.3-1.9,0.3c-0.4,0-0.7,0-1.1,0h-0.5h-0.1h-0.1
			c-0.5-0.1-1-0.2-1.4-0.4c-0.5-0.1-1-0.3-1.4-0.6c-0.2-0.1-0.4-0.2-0.6-0.3l-0.2-0.1c0.1,0-0.1-0.1-0.1-0.1
			c-0.2-0.1-0.3-0.2-0.5-0.3c-0.1-0.1-0.3-0.2-0.4-0.2l-0.2-0.1c-0.1-0.1-0.2-0.2-0.3-0.2c-0.2-0.1-0.3-0.3-0.5-0.4
			c-0.1-0.1-0.3-0.1-0.4-0.2l0,0c0,0,0,0,0-0.1c0-0.1-0.1-0.2-0.2-0.1c-0.1,0-0.1,0-0.1,0.1c-0.1-0.1-0.2-0.2-0.3-0.3
			c-0.1-0.2-0.4,0.1-0.3,0.2c0.2,0.3,0.4,0.5,0.7,0.8c0.1,0.2,0.2,0.3,0.3,0.5c0,0.2,0,0.3,0.1,0.4l0,0c0,0.1,0.1,0.2,0.2,0.3
			c0.1,0.2,0.2,0.3,0.3,0.4c0,0.1,0,0.1,0,0.2c0,0.1,0.1,0.2,0.1,0.3c-0.1,0-0.2,0-0.2,0.1c-0.1,0-0.1,0.1-0.2,0.1
			c-0.1,0.1-0.2,0.2-0.2,0.3c-0.1,0.2-0.1,0.5,0,0.7c0,0.2,0.1,0.3,0.2,0.4c0.1,0.3,0.2,0.5,0.4,0.6c0.9,0.8,2,1.2,3.2,1.3
			c1,0.1,2.1,0.1,3.1,0.1c1.3,0,2.5,0,3.8-0.1c0.7-0.1,1.4-0.2,2.1-0.4L183.9,78.1C184,78.1,184,78.1,183.9,78.1z M170.8,75.3
			l0.1-0.1C170.9,75.3,170.8,75.3,170.8,75.3L170.8,75.3z"/>
		<path class="st4" d="M173.9,64.4c-0.1,0-0.3,0-0.4,0c0.1,0-0.3-0.1-0.3-0.1h-0.1l-0.2-0.1c0.2,0.1-0.2-0.2-0.1-0.1
			c-0.1-0.2-0.3-0.3-0.4-0.4l0,0c-0.2-0.2-0.3-0.4-0.4-0.6c0,0,0-0.1-0.1-0.1c-0.1-0.1-0.2-0.3-0.4-0.3c0,0-0.1-0.1-0.1-0.1
			c-0.1-0.2-0.2-0.3-0.4-0.3l0,0c0,0-0.1-0.1-0.1-0.1l0,0c-0.1,0-0.1,0-0.1,0.1l0,0c-0.2,0-0.3,0.2-0.4,0.4c-0.1,0.2-0.1,0.4,0,0.5
			v0.1c-0.1,0.2,0,0.4,0.1,0.5c0,0.1,0.1,0.3,0.1,0.4c0.1,0.2,0.2,0.5,0.3,0.7c0,0.3,0.2,0.5,0.4,0.7c0.4,0.6,1,1,1.7,1.1
			c0.4,0.1,0.9,0.1,1.3,0.1c0.5-0.1,1-0.1,1.4,0c1.4,0.3,2.9,0.4,4.3,0.4c1.4,0.1,2.7-0.1,4-0.6c0.7-0.3,1.3-0.7,1.8-1.2
			c0.2-0.3,0.4-0.6,0.6-0.9c0-0.1,0.1-0.1,0.1-0.2l0.1-0.3c0,0.1,0,0.1,0,0c0.2-0.3,0.2-0.7,0-1.1c-0.1-0.2-0.2-0.4-0.4-0.5
			c-0.3-0.2-0.6-0.1-0.9,0.1c-0.3,0.2-0.6,0.4-0.8,0.8c0,0.1-0.1,0.2-0.2,0.3l-0.1,0.2l0,0l0,0l-0.2,0.2l0,0l-0.1,0.1
			c-0.1,0.1-0.2,0.1-0.4,0.2l-0.1,0.1l0,0l0,0c-0.2,0.1-0.5,0.2-0.8,0.2c-0.1,0-0.3,0.1-0.4,0.1h-0.1H182c-0.6,0-1.2,0-1.8,0
			c-1.1,0-2.3-0.1-3.4-0.3c-0.5-0.1-0.9-0.2-1.4-0.2C174.8,64.3,174.3,64.4,173.9,64.4z M172.7,64.2L172.7,64.2v0.1
			C172.7,64.4,172.7,64.3,172.7,64.2L172.7,64.2z"/>
		<path class="st4" d="M157.2,47.3c0.5-0.8,1-1.5,1.7-2.2c0.3-0.3,0.7-0.6,0.9-1c0.3-0.4,0.6-0.8,1-1.1c0.6-0.6,1.4-1.2,2.2-1.6
			c0.6-0.3,1.2-0.3,1.8-0.2c0.6,0.1,1.2,0.3,1.8,0.7c0.2,0.2,0.4,0.2,0.6,0.2l0,0c0.1,0.1,0.3,0.2,0.4,0.2c0.3,0,0.7,0.1,0.9,0.4
			c0.5,0.4,0.9,1,1.1,1.7c0.1,0.3,0.1,0.6,0.2,0.9c0,0.5,0.1,1,0.1,1.5v0.4c0,0.1,0,0.1,0,0.2l0,0l0,0l0,0V48c0,0.4,0.1,0.8,0.3,1.1
			c0.2,0.2,0.5,0.2,0.7,0c0.5-0.5,0.3-1.3,0.3-1.9s-0.1-1.4-0.1-2.2c0-0.5,0-1.1-0.1-1.6c0-0.4-0.2-0.9,0-1.2c0.1-0.2,0.1-0.4,0-0.5
			c0-0.1-0.1-0.1-0.1-0.2c-0.1-0.2-0.4-0.2-0.5-0.1c-0.1,0-0.1,0.1-0.1,0.2l0,0c-0.1-0.1-0.2-0.2-0.4-0.3c0,0-0.1,0-0.1,0l0,0
			c-0.1,0-0.2,0-0.3,0c-0.1,0-0.3,0-0.4,0.1l0,0c0-0.1-0.1-0.2-0.2-0.1c-0.1,0-0.1,0.1-0.1,0.1c0,0,0,0.1,0,0.1l0,0
			c-0.1-0.1-0.3-0.1-0.5-0.2c-0.1,0-0.1-0.1-0.2-0.1c0.1,0,0,0,0-0.1c-0.1-0.1-0.2-0.2-0.3-0.2c-0.4-0.4-0.8-0.6-1.3-0.8
			c-0.1-0.4-0.6-0.7-1-0.8c-0.3,0-0.6,0-0.9,0l0,0c0-0.2-0.2-0.4-0.4-0.4c0,0-0.1,0-0.1,0c-0.4,0.1-0.6,0.4-0.8,0.7
			c0,0.1,0,0.1,0,0.2c-0.5,0.2-1,0.4-1.4,0.7c-1.2,0.8-2.2,1.8-3,3c-0.1,0.1-0.1,0.2-0.1,0.3s-0.2,0.3-0.3,0.4s-0.4,0.5-0.5,0.8
			c-0.4,0.6-0.6,1.2-0.8,1.9c-0.1,0.1-0.1,0.3,0,0.4S157.1,47.4,157.2,47.3z"/>
		<path class="st4" d="M199.9,46.6c0.1-0.4,0-0.9-0.2-1.3c-0.3-0.4-0.5-0.8-0.6-1.3c0-0.2-0.3-0.4-0.4-0.6s0-0.3,0-0.4
			s-0.1-0.3-0.1-0.4c0-0.2-0.1-0.4-0.2-0.5c-0.1-0.1-0.1-0.1-0.2-0.2c0-0.1,0-0.2,0-0.2c0-0.1,0-0.3,0,0c0.1-0.3-0.1-0.7-0.3-0.8
			c-0.2-0.6-0.5-1.1-0.8-1.7c-0.2-0.3-0.3-0.7-0.5-1c-0.1-0.3-0.2-0.6-0.3-0.9c-0.1-0.8,0-1.7,0.2-2.5c0.2-0.9,0.4-1.7,0.5-2.6
			c0.1-0.5-0.6-0.6-0.8-0.4l-0.2,0.2c0.2-0.2-0.1,0-0.2,0.1c-0.3,0.2-0.5,0.4-0.6,0.7c-0.2,0.3-0.3,0.6-0.5,0.9
			c-0.1,0.1-0.2,0.3-0.3,0.4c0,0-0.2,0.2-0.1,0.1c-0.1,0-0.2,0.1-0.2,0.1h0c-0.1,0-0.3,0.1-0.3,0.2c-0.1,0.3-0.2,0.7-0.2,1
			c0,0.3,0.1,0.6,0.1,0.9s-0.1,0.4-0.1,0.6s-0.1,0.4-0.1,0.5c0,0.3,0,0.6,0.1,0.9c0,0.2,0.1,0.5,0.2,0.7c0.3,0.4,0.7,0.7,1.1,0.8
			l0,0l0,0c0,0.2,0.1,0.4,0.3,0.5c0,0.1,0.1,0.1,0.2,0.2c0.2,0.2,0.3,0.5,0.6,0.6l0,0c-0.1-0.1-0.3-0.1-0.4-0.2l-0.6-0.3l0,0
			c0-0.2-0.1-0.4-0.3-0.5c-0.1-0.1-0.1-0.1-0.2-0.2c-0.1-0.1-0.2-0.2-0.3-0.3l0,0l-0.2-0.1c-0.2-0.1-0.5-0.2-0.7-0.2
			c-0.3-0.1-0.5-0.2-0.8-0.2c-0.6-0.1-1.2-0.1-1.8,0.1c-1,0.4-1.9,1.1-2.4,2.1c0-0.2-0.1-0.3-0.3-0.4c-0.3-0.2-0.7-0.1-0.9,0.3
			c0,0.1-0.1,0.1-0.1,0.2c-0.1,0.5-0.1,1.1-0.1,1.6c0,0.3,0,0.7,0,1.1c0,0,0,0.1,0,0.1c-0.1,0.2-0.1,0.5-0.1,0.7
			c-0.1,0.4-0.1,0.8-0.2,1.2c-0.1,0.4-0.1,0.8-0.1,1.2c0,0.7-0.1,1.4-0.4,2c-0.2,0.3-0.1,0.8,0.3,1c0.4,0.2,0.8,0.1,1-0.3
			c0,0,0-0.1,0.1-0.1c0.5-1.3,0.8-2.7,0.8-4.1c0.1-0.6,0.1-1.3,0.1-1.9c0-0.1,0-0.2,0.1-0.2c0.1-0.4,0.2-0.8,0.4-1.1
			c0.2-0.3,0.4-0.5,0.6-0.8c0.2-0.3,0.4-0.5,0.7-0.7c0.5-0.5,1.2-0.7,1.9-0.6c0.4,0,0.8,0.2,1.1,0.2h0.3h0.1
			c0.1,0.1,0.2,0.1,0.3,0.1c0.1,0.1,0.2,0.2,0.3,0.2c0,0.1,0.1,0.2,0.2,0.3c0.7,0.3,1.3,0.6,1.9,1c0.1,0.1,0.3,0.1,0.4,0
			c0.1-0.1,0.1-0.3,0-0.4c0,0-0.1-0.1-0.1-0.1c0.1,0,0.1,0.1,0.2,0.1l0,0c0,0,0.1,0.1,0.1,0.1c0,0.1,0.1,0.2,0.1,0.3
			c0.1,0.2,0.3,0.4,0.5,0.6c0,0.1,0.1,0.2,0.2,0.3c0.1,0.2,0.1,0.4,0.2,0.6c0.1,0.2,0.2,0.4,0.4,0.5c0.1,0.1,0.2,0.2,0.1,0
			c0,0.1,0.1,0.2,0.1,0.3c0.2,0.3,0.4,0.6,0.6,0.9c0.2,0.3,0.3,0.7,0.3,1.1c0,0.2,0.1,0.3,0.3,0.4c0.1,0.3,0.6,0.2,0.6-0.1
			C200,46.7,199.9,46.7,199.9,46.6z M188,41.2L188,41.2C188.1,41.2,188,41.1,188,41.2L188,41.2z M194.8,37.7c0,0.1,0,0.2,0,0.3l0,0
			C194.9,37.9,194.9,37.8,194.8,37.7L194.8,37.7z M195.1,34.6L195.1,34.6C195.2,34.6,195.2,34.6,195.1,34.6
			C195.2,34.5,195.1,34.6,195.1,34.6z M199.4,47C199.4,47,199.4,47,199.4,47C199.4,47,199.4,47,199.4,47z"/>
		<path class="st4" d="M158.9,42.3c0.2,0,0.3,0,0.4-0.2c0.1,0,0.2,0,0.3-0.1c0.2,0,0.3-0.1,0.4-0.3c0.1-0.1,0.3-0.2,0.4-0.3
			c0.1-0.1,0.2-0.1,0.3-0.2c0.1-0.1,0.1-0.1,0.1-0.2c0.1-0.1,0.1-0.1,0.2-0.2c0.4-0.2,0.7-0.4,1-0.7c0.2-0.1,0.3-0.3,0.4-0.5
			c0.7-0.6,1.1-1.6,1-2.5c-0.2-1-0.6-1.9-1.1-2.8c-0.2-0.4-0.4-0.8-0.6-1.2c-0.2-0.5-0.6-0.8-0.9-1.2s-0.8-0.6-1.2-0.9
			c-0.2-0.2-0.5,0-0.7,0c-0.1,0-0.2,0.1-0.1,0.3c0,0.1,0.1,0.1,0.1,0.1l0.4,0.1c0.1,0.2,0.3,0.5,0.4,0.7c0.3,0.4,0.5,0.8,0.8,1.2
			c0,0,0,0,0,0.1c0,0.1,0,0.2,0.1,0.3c0.1,0.2,0.2,0.4,0.2,0.6c0.2,0.4,0.3,0.8,0.5,1.1c0.4,0.6,0.6,1.4,0.6,2.1
			c0,0.3-0.2,0.6-0.4,0.8c-0.2,0.2-0.5,0.4-0.6,0.7c0,0.1,0,0.1,0,0.2c-0.1,0.2-0.3,0.3-0.5,0.5s-0.4,0.2-0.5,0.4v0.1
			c-0.2,0.1-0.3,0.3-0.3,0.5c0,0,0,0.1,0,0.1l-0.1,0.1l0,0c-0.2,0-0.4,0.2-0.4,0.4c-0.1,0.1-0.2,0.2-0.2,0.3c-0.1,0-0.1,0.1-0.1,0.2
			l0,0c-0.1,0-0.2,0.1-0.3,0.2C158.6,42.1,158.7,42.3,158.9,42.3z"/>
		<path class="st4" d="M170.8,88.6c-0.3-0.4,0.1-0.9,0.1-1.4s-0.2-1-0.3-1.6c0-0.3-0.4-0.3-0.4,0c0,0.4,0.1,0.9,0.2,1.3
			c0,0.4-0.1,0.8-0.2,1.1c0,0.2-0.1,0.4-0.2,0.6c-0.2,0.2-0.3,0.5-0.3,0.8c0,0.2-0.2,0.4-0.2,0.6s-0.1,0.4-0.1,0.7
			c-0.4,1.7-1.2,3.2-2.3,4.5c-0.3,0.1-0.5,0.2-0.6,0.5l0,0c-0.2,0-0.4,0.2-0.6,0.4c0,0.1-0.1,0.1-0.1,0.2l0,0h-0.1
			c-0.2,0.1-0.3,0.2-0.5,0.2c-0.4,0.1-0.8,0.1-1.1,0c-0.1,0,0,0-0.2-0.1c-0.1-0.1-0.2-0.1-0.3-0.2c-0.2,0-0.5-0.1-0.7-0.2
			c-0.1,0-0.2-0.2-0.4-0.3l-0.2-0.1c0-0.2-0.2-0.3-0.4-0.2c0-0.1-0.1-0.1-0.2-0.1c-0.1,0-0.2,0-0.2,0.1c0,0.1-0.1,0.2-0.1,0.2
			c0,0.1,0,0.2,0.1,0.3c0,0.1,0,0.1,0,0.2c0.1,0.2,0.1,0.3,0.2,0.4c0.3,0.5,0.7,0.8,1.2,1c0.6,0.4,1.4,0.6,2.1,0.5
			c0.7,0,1.4-0.3,1.9-0.8c0.1,0,0.2-0.1,0.3-0.1l0.1-0.1c0.2,0,0.5-0.1,0.6-0.3c0.1-0.1,0.2-0.1,0.3-0.2c-0.1,0.1-0.1,0.2,0,0.3
			c0.1,0.1,0.2,0.1,0.3,0l0,0c0.2-0.1,0.4-0.3,0.6-0.4c0.3-0.2,0.6-0.4,0.8-0.7c0.6-0.5,1.1-1.3,1.2-2.1c0-0.2-0.2-0.4-0.5-0.4
			c0,0-0.1,0-0.1,0c0.2-0.5,0.4-1,0.5-1.4c0.2-0.5,0.3-1.1,0.3-1.7c0-0.3-0.1-0.6-0.2-0.9C171.1,89.1,171,88.9,170.8,88.6z"/>
		<path class="st4" d="M194.3,95.6c0-0.2,0-0.4-0.1-0.7v-0.1c0-0.4-0.1-0.8-0.3-1.1l0,0c0.1-0.3,0.2-0.7,0.2-1c0.1-0.3,0-0.7-0.1-1
			c-0.1-0.1-0.2-0.1-0.3-0.1c0,0-0.1,0-0.1,0.1c-0.2,0.3-0.3,0.7-0.3,1.1V93c0-0.2,0-0.3,0-0.4c0-0.1-0.1-0.2-0.2-0.2
			c-0.1,0-0.1,0.1-0.2,0.2c0,0.4,0,0.7,0,1.1c-0.1,0.3-0.3,0.6-0.5,0.9c-0.1,0.2-0.2,0.4-0.3,0.5c-0.1,0.2-0.2,0.3-0.3,0.5
			c-0.2,0.3-0.3,0.6-0.5,0.8c-0.3,0.1-0.7,0.2-1,0.2c-0.7,0.1-1.4,0-2-0.3l-0.2-0.1c0,0-0.4-0.2-0.2,0c-0.1-0.1-0.2-0.2-0.4-0.3
			c-0.1,0-0.1-0.1-0.2-0.1l-0.2-0.1l0,0l0,0c0,0-0.1-0.1-0.1-0.1c0-0.1-0.1-0.2-0.1-0.3c-0.1-0.1-0.1-0.1-0.2-0.2l0,0l-0.2-0.1
			c0,0,0-0.1,0-0.1c0-0.1-0.1-0.1-0.1-0.2l0,0c0,0,0-0.1,0-0.1c-0.1-0.9-0.4-1.7-0.7-2.6c-0.1-0.4-0.1-0.8,0-1.2c0-0.4,0-0.8,0-1.2
			s0-0.7-0.1-1.1c0-0.2,0-0.4-0.1-0.6v-0.2l0,0c0.1,0,0.2-0.1,0.2-0.2c0-0.1-0.1-0.1-0.2-0.2c-0.7-0.1-0.6,0.8-0.7,1.3
			c-0.1,0.8-0.1,1.6-0.1,2.4l0,0c-0.1,0.3-0.2,0.7-0.2,1c-0.1,0.7,0,1.4,0.3,2c0.1,0.3,0,0.7,0.3,1l0,0v0.1c0,0.1,0,0.3,0,0.4
			c0,0.2,0.1,0.4,0.3,0.6c0.2,0.6,0.7,1.1,1.2,1.5c0.4,0.3,0.5,0.7,1,0.8s1,0.4,1.5,0.6c1,0.2,2,0.2,2.9-0.1c0.5,0,1-0.3,1.3-0.7
			c0.1-0.1,0.2-0.2,0.2-0.3c0.1-0.1,0.1-0.1,0.2-0.2c0.5-0.3,0.8-0.9,0.9-1.4C194.6,96,194.5,95.8,194.3,95.6z M186.7,95.3
			L186.7,95.3C186.7,95.4,186.7,95.4,186.7,95.3z"/>
		<path class="st4" d="M192.4,61.7L192.4,61.7L192.4,61.7z"/>
		<path class="st4" d="M198.2,64.1c-0.2-0.2-0.4-0.3-0.6-0.5c-0.2-0.2-0.4-0.3-0.7-0.4c-0.4-0.2-0.9-0.5-1.4-0.6
			c-0.2-0.1-0.4-0.2-0.6-0.3c-0.1-0.1-0.2-0.1-0.3-0.1c-0.1-0.1-0.2-0.1-0.3-0.2c-0.1,0-0.1,0-0.2,0c0,0-0.1,0-0.1,0
			c-0.1,0-0.2,0-0.2,0.1c0,0,0,0.1,0,0.1c-0.3-0.1-0.6-0.2-0.9-0.3c-0.1,0-0.1,0-0.2-0.1c0.2,0.1-0.4-0.2-0.4-0.2
			c-0.2-0.1-0.5-0.1-0.8,0c-0.2,0-0.4,0.1-0.6,0.1h-0.4c-0.1,0-0.2,0-0.3,0l-0.4-0.1c-0.1,0-0.3-0.1-0.4-0.2l0,0l-0.2-0.1
			c-0.2-0.1-0.4-0.2-0.6-0.4l0,0l0,0h-0.1c-0.2-0.3-0.4-0.5-0.8-0.5v-0.1l0,0l0,0l-0.1-0.1c-0.1-0.3-0.3-0.5-0.6-0.6l-0.3-0.1l0,0
			c-0.5-0.2-0.9-0.5-1.3-0.9c-0.4-0.4-0.7-0.7-1-1.2c-0.1-0.2-0.2-0.3-0.3-0.5c-0.1-0.3-0.3-0.5-0.6-0.7c-0.1-0.3-0.3-0.5-0.4-0.8
			c-0.2-0.3-0.3-0.6-0.4-0.9c-0.1-0.2-0.2-0.3-0.3-0.4c-0.1-0.1-0.1-0.3-0.2-0.4c-0.2-0.3-0.3-0.7-0.2-1c0-0.1-0.1-0.2-0.2-0.2
			c-0.1,0-0.2,0-0.2,0.1l0,0h-0.1c0-0.1-0.1-0.2-0.2-0.2c-0.1,0-0.2,0.1-0.2,0.2c0,0.1,0,0.2,0,0.2c0,0.1,0.1,0.2,0.2,0.2
			c0,0.6,0,1.2,0.2,1.7c0.2,0.7,0.4,1.4,0.7,2.2c0.1,0.1,0.2,0.2,0.3,0.2l0.2,0.3c0.2,0.8,0.5,1.5,1,2.2c0.5,0.7,1.1,1.4,1.9,1.8
			c0.2,0.3,0.4,0.6,0.6,0.8c0.1,0.1,0.3,0.3,0.4,0.3c0.1,0.2,0.3,0.3,0.5,0.5c-0.1,0-0.2,0.1-0.2,0.2c-0.2,0.1-0.3,0.3-0.2,0.5
			c0,0.1,0.1,0.1,0.2,0.2c0.3,0.3,1,0.2,1.3,0c0.1,0,0.1-0.1,0.1-0.2c0.3,0.1,0.6,0.2,0.9,0.3c0.6,0.2,1.2,0.3,1.8,0.3
			c0.6,0,1.2-0.2,1.6-0.7h0.1c0.1,0,0.2,0,0.3,0c0.2,0.1,0.4,0.1,0.6,0.1c0.1,0,0.2,0,0.3-0.1c0.1,0.1,0.3,0.1,0.4,0.1
			c0,0,0.2,0.1,0.3,0.1h-0.1c0.1,0.1,0.2,0.1,0.4,0.1c0.1,0,0.2-0.1,0.2-0.2h0.2c-0.3,0,0,0.1,0.1,0.1c0.1,0,0.4,0.2,0.6,0.3
			c0.4,0.1,0.7,0.4,0.9,0.7c0.2,0.3,0.7,0.5,0.9,0.9c0.3,0.8,1.5,0.4,1.2-0.3C199.2,65,198.8,64.4,198.2,64.1z"/>
		<path class="st4" d="M162.7,62.9c0.5-0.1,1.1-0.1,1.7-0.1c0.4,0,0.8,0,1.2,0c0.1,0.2,0.3,0.3,0.5,0.3c0.4,0.1,0.7,0.2,1.1,0.2
			c0.1,0,0.3,0,0.4,0c0.2,0,0.5-0.1,0.7-0.1c0.4-0.1,0.7-0.3,1-0.5c0.2-0.1,0.4-0.3,0.6-0.4c0.2,0,0.3-0.1,0.4-0.2
			c0.1-0.1,0.2-0.1,0.3-0.2h0.1c0.1-0.1,0.2-0.2,0.3-0.3c0.2-0.1,0.4-0.3,0.6-0.5c0.3-0.1,0.5-0.3,0.6-0.5l0,0
			c0.3-0.1,0.5-0.2,0.6-0.5c0.1-0.1,0.2-0.2,0.3-0.3c0.2-0.2,0.3-0.4,0.5-0.6l0.4-0.7c0.5-0.9,1-1.9,1.4-2.8
			c0.4-0.9,0.6-1.8,0.6-2.8c0-0.3,0-0.5-0.1-0.8c0-0.5-0.3-1-0.7-1.4l0,0c0-0.2-0.1-0.4-0.4-0.3h-0.2c-0.2,0-0.3,0.1-0.3,0.3
			c0,0.1,0.1,0.2,0.2,0.3c0,0.1,0.1,0.2,0.2,0.3c0.3,0.3,0.4,0.7,0.3,1.1c0,0.5-0.1,1.1-0.2,1.6c-0.6,2.4-2.2,4.4-4.3,5.5
			c-0.3,0.2-0.6,0.3-0.9,0.5c-0.1,0.1-0.2,0.1-0.3,0.1l0,0c-0.2,0.1-0.4,0.1-0.5,0.3l-0.3,0.2h-0.4c-0.3,0.1-0.6,0.1-0.9,0.1
			c-0.1,0-0.2,0.2-0.2,0.3h-0.1c-0.2-0.1-0.4-0.1-0.6,0c-1.5,0.2-3.1-0.1-4.5,0.5c-0.4,0.1-0.7,0.3-1.1,0.5c-0.3,0.1-0.7,0.2-1,0.4
			c-0.2,0.1-0.3,0.2-0.4,0.3c-0.1,0.1-0.1,0.1-0.1,0.2h-0.1c-0.1,0-0.2,0-0.2,0c-0.1,0-0.2,0.1-0.3,0.2c-0.3,0.4-0.6,0.7-1,1
			c-0.2,0-0.4,0-0.5,0.1c-0.2,0.2-0.4,0.5-0.6,0.8c0,0.1-0.1,0.2-0.1,0.3v0.1c0,0.1,0,0.2,0.1,0.3c0.1,0.2,0.3,0.4,0.5,0.3
			c0.1,0,0.2-0.1,0.2-0.1c0.1-0.1,0.1-0.1,0.2-0.2s0-0.1,0.1-0.2l0.1-0.1c0.1-0.1,0.2-0.2,0.3-0.3c0-0.1,0.1-0.2,0.1-0.2
			c0.2-0.2,0.4-0.4,0.6-0.6c0.1,0.1,0.3,0.2,0.4,0.1c0,0,0.1,0,0.1-0.1c0.2-0.2,0.5-0.4,0.8-0.5c0.2,0.1,0.5,0.1,0.8,0
			c0.3-0.1,0.6-0.2,0.9-0.3C161.8,63.2,162.2,63.1,162.7,62.9z M171.3,61.3C171,61.3,171.2,61.3,171.3,61.3z"/>
		<path class="st10" d="M201.1,65.3c1.3-2.8,1.8-5.9,1.4-8.9l0,0c-0.2-2.2-0.5-4.3-1.1-6.4c0-0.3,0.1-0.6,0.1-0.9V49
			c0-0.2,0-0.3,0-0.4c0.1-0.2,0.2-0.5,0.2-0.7c0-0.2,0-0.4,0-0.6c0.1-0.2,0.1-0.4,0.1-0.5c0-0.3,0-0.7,0-1v-0.1c0-0.1,0-0.3,0-0.4
			c0-0.1,0-0.2,0-0.2c0-0.5,0.1-0.9,0.1-1.4V43c0-0.2,0-0.3,0.1-0.5l0,0c0.1-0.8,0.2-1.7,0.2-2.5c0-0.3,0-0.5,0-0.8
			c0-0.6,0.1-1.1,0.1-1.5s0-0.8,0.1-1.3c0-0.3,0-0.6-0.1-0.9c0-0.5-0.2-1-0.5-1.4c-0.1-0.1-0.2-0.3-0.3-0.4
			c-0.1-0.1-0.2-0.2-0.2-0.3c-0.1-0.2-0.3-0.4-0.4-0.6c0,0-0.1-0.1-0.1-0.1c-0.1-0.1-0.3-0.2-0.4-0.3c-0.2-0.2-0.5-0.4-0.8-0.5l0,0
			c-0.1-0.1-0.2-0.1-0.4-0.2c-0.3,0-0.7-0.1-1-0.3c-1.4-0.8-0.6-3.8-0.4-5.1c0.9-4.1,0.7-8.4-0.7-12.4l-0.1-0.2
			c-0.5-0.1-1-0.4-1.3-0.9l-0.1-0.1c-0.3-0.2-0.5-0.4-0.7-0.8c-1.9-3.8-3.6-7.3-7.4-9.5c-3.3-1.9-7-2.7-10.7-2.5
			c-0.7,0-1.3,0.2-2,0.3c-0.8,0.2-1.7,0.4-2.5,0.6c-2.3,0.6-6,3.4-7.5,5.3c-1.4,1.9-2.5,3.9-3.4,6.1l0,0c-0.3,0.8-0.6,1.5-0.9,2.3
			c-0.3,1-1.3,1.6-2.4,1.3l0,0c0.5,0.2,0.1,4.6,0,5.1c-0.1,2.7,0.5,5.1,0.8,7.8c0.2,1.9-0.9,1.8-2.4,2.5c-0.2,0.1-0.4,0.2-0.5,0.4
			c-0.1,0.1-0.2,0.2-0.4,0.3l-0.1,0.1c-0.5,0.4-0.9,0.9-1.1,1.5c-0.2,0.5-0.3,1-0.4,1.5v0.2c-0.1,0.5-0.1,1-0.2,1.5v0.1
			c0,0.3-0.1,0.5-0.1,0.8c-0.1,0.9-0.2,1.8-0.1,2.7c0,0.3,0.1,0.5,0.1,0.8c0,0,0,0.1,0,0.1s0,0.2,0,0.3c0,0.5,0.1,0.9,0.2,1.4
			c0,0.3,0,0.5,0,0.7s0,0.6,0,0.9c0,0.2,0,0.4,0.1,0.6v0.1c0,0.2,0,0.4,0,0.6l0,0c0,0.1,0,0.3,0,0.4v0.5c0,0.2,0,0.4,0.1,0.5v0.2
			c0,0.1,0,0.2,0,0.4c0,0.2,0,0.4,0.1,0.6c0,0.5,0.1,1.1,0.3,1.6c-0.5,1.8-0.9,3.6-1.1,5.5l0,0c-0.4,3,0,6.1,1.1,8.9
			c0.3,0.6,0.6,1.2,1,1.8c0.1,0.3,0.2,0.6,0.4,0.8l0,0l0,0l0,0l-0.1,0.2v0.1l-0.1,0.2v0.1l-0.1,0.2l0,0c-0.1,0.3-0.1,0.5-0.2,0.8
			l0,0c0,0.1,0,0.2,0,0.2v0.1v0.2c0,0,0,0.1,0,0.1l0,0v0.2v0.1h0.4h-0.4c0,0.2,0,0.5,0,0.7v0.7c0,0,0,0.1,0,0.1l0,0c0,0,0,0.1,0,0.2
			l0,0c0,0,0,0.1,0,0.2c0,0.1,0,0.1,0,0.2c0,0.1,0,0.2,0,0.2V72v0.2c0,0,0,0.1,0,0.1v0.1v0.2v0.2l0,0v0.2v0.1l0,0
			c0,0.1,0,0.2,0.1,0.2l0,0c0,0,0,0.1,0,0.1s0.1,0.2,0.1,0.4l0,0c0,0.1,0,0.2,0.1,0.3c0,0,0,0.1,0,0.1v0.1l0.1,0.2
			c0,0.1,0,0.1,0,0.2s0.1,0.2,0.1,0.3v0.1l0.1,0.3c0,0,0,0.1,0,0.1c0.1,0.2,0.1,0.3,0.1,0.4c0.5,1.2,1,2.4,1.6,3.6
			c0,0,0,0.1,0.1,0.2c0.1,0.3,0.2,0.7,0.3,1c0.2,0.5,0.4,1,0.6,1.5c0.1,0.2,0.1,0.3,0.2,0.5v0.1c0,0,0,0.1,0,0.1v0.1
			c0.2,0.5,0.5,1,0.8,1.5c0.4,0.5,0.6,1.2,0.8,1.8c0,0.2,0.1,0.5,0.2,0.7l0.1,0.2c0,0.1,0,0.3,0,0.5v0.2c0,0.4-0.1,0.8-0.2,1.3
			s-0.1,0.9-0.2,1.3c-0.1,0.2-0.2,0.5-0.2,0.8c0,0.3,0,0.7,0,1c-0.1,0.5-0.1,1.1-0.1,1.7c0,0.2,0,0.3,0.1,0.5c0,0.5,0.1,1,0.2,1.6
			c0.1,0.9,0.5,1.8,1.1,2.5c0.4,0.4,0.9,0.7,1.5,0.8c0.2,0,0.3,0.1,0.4,0.2c0.4,0.2,0.8,0.3,1.2,0.3c0.6,0,1.1-0.1,1.6-0.3
			c0.4-0.1,0.7-0.2,1.1-0.4c1.3-0.6,2.4-1.6,3.2-2.8c0.5-0.8,0.8-1.8,1-2.7c0.2-1.1,0.2-2.2,0.1-3.3c0-0.2-0.1-0.5-0.1-0.7
			s-0.1-0.7-0.2-1s-0.1-0.7-0.2-1.1c0-0.1-0.1-0.2-0.1-0.4c0,0,0-0.1,0-0.1c0.1-0.5,0.1-1.1,0.1-1.6c0-0.1,0-0.2,0-0.3v-0.1
			c0,0,0-0.2,0.1-0.2c0.1-0.3,0.1-0.6,0.1-0.8c0-0.1,0-0.2,0-0.3c0-0.2,0-0.4,0-0.6c0-0.1,0-0.2,0-0.3l0,0c0.1-0.8,0.1-1.6,0-2.4
			c0-0.2,0-0.3,0-0.5c0-0.4,0-0.9-0.1-1.3l0,0l0.1,0.1l0,0h0.1h0.1h0.1h0.1l0.1,0.1l0,0h0.1h0.1h0.1l0,0h0.1h0.1l0,0l0.2,0.1l0,0
			l0.2,0.1h0.1h0.1h0.1l0.2,0.1l0,0h0.1h0.1h0.1h0.2h0.1l0.2,0.1h0.2h0.1h0.1h0.1h0.1h0.1h0.1h0.1h0.1h0.1h0.1h0.2h0.1h0.2h0.2h0.1
			h2.8h0.3l0,0c1.5-0.1,2.9-0.4,4.4-0.7c0,0.3-0.1,0.6-0.1,0.9s0,0.3,0,0.5c-0.1,0.8-0.1,1.6-0.1,2.4c0,0.1,0,0.2,0,0.4
			c0,0.2,0,0.4,0,0.6l0,0c0,0.1,0,0.2,0,0.3c0,0.3,0,0.6,0.1,0.9c0,0.1,0,0.1,0.1,0.2V84c0,0.1,0,0.2,0,0.3l0,0c0,0.5,0,1.1,0.1,1.6
			c0,0,0,0.1,0,0.1c0,0.1-0.1,0.2-0.1,0.3c-0.1,0.4-0.1,0.7-0.2,1.1s-0.1,0.7-0.2,1s-0.1,0.4-0.1,0.7c-0.2,1.1-0.2,2.2,0,3.3
			c0.1,1,0.4,1.9,0.9,2.8c0.7,1.2,1.8,2.3,3.1,2.9c0.3,0.2,0.7,0.3,1.1,0.4c0.5,0.2,1.1,0.4,1.6,0.4c0.4,0,0.8-0.1,1.2-0.3
			c0.1-0.1,0.3-0.1,0.4-0.2c0.5-0.1,1.1-0.4,1.5-0.8c0.6-0.7,1.1-1.5,1.2-2.4c0.1-0.5,0.2-1,0.2-1.6c0-0.2,0.1-0.3,0.1-0.5
			c0-0.5,0-1.1,0-1.6v-1c0-0.3-0.1-0.5-0.1-0.8c0-0.5-0.1-0.9-0.1-1.3c-0.1-0.4-0.1-0.9-0.1-1.3v-0.1c0-0.1,0-0.1,0-0.2s0-0.3,0-0.5
			l0.1-0.2c0.1-0.2,0.2-0.5,0.3-0.7c0.2-0.6,0.5-1.2,0.8-1.8c0.3-0.5,0.6-1,0.8-1.5c0-0.1,0-0.1,0.1-0.2v-0.1
			c0.1-0.2,0.1-0.3,0.2-0.4l0,0c0.2-0.4,0.4-0.9,0.6-1.4c0.1-0.2,0.3-0.4,0.4-0.7l0,0v-0.1l0.1-0.2l0.1-0.2v-0.1l0.1-0.2
			c0,0,0-0.1,0-0.1l0.1-0.2l0.1-0.1c0-0.1,0.1-0.1,0.1-0.2v-0.1l0.1-0.2l0.1-0.1l0.1-0.1l0.1-0.2l0.1-0.2l0,0c0,0,0-0.1,0-0.1l0,0
			c0-0.1,0.1-0.1,0.1-0.2l0.5,0.7l0.1-0.2c0,0,0-0.1,0-0.1l0,0l0.1-0.2l0.1-0.1c0.1-0.1,0.1-0.2,0.1-0.3s0.1-0.3,0.2-0.4v-0.1
			l0.1-0.3c0,0,0-0.1,0-0.1v-0.1l0.1-0.2l0,0c0,0,0-0.1,0-0.1s0.1-0.2,0.1-0.2s0-0.1,0.1-0.1l0,0l0.1-0.2l0.1-0.2l0.1-0.2l0,0
			c0-0.1,0-0.1,0-0.2l0.1-0.2v-0.2c0-0.1,0.1-0.2,0.1-0.4c0,0,0-0.1,0-0.1l0,0c0-0.1,0-0.1,0-0.2v-0.2v-0.2l0,0c0,0,0-0.1,0-0.2
			v-0.2c0-0.1,0-0.1,0-0.2l0,0c0-0.1,0-0.1,0-0.2s0-0.1,0-0.2s0-0.1,0-0.2s0-0.1,0-0.2c0,0,0-0.1,0-0.1l0,0c0-0.2,0-0.5,0-0.7V71
			c0-0.1,0-0.1,0-0.2l0,0c0,0,0-0.1,0-0.1c0-0.1,0-0.1,0-0.2s0-0.1,0-0.1c0-0.1,0-0.1,0-0.2c0,0,0-0.1,0-0.1v-0.2c0,0,0-0.1,0-0.1
			l0,0v-0.2c0,0,0-0.1,0-0.1l0,0c0-0.3-0.1-0.5-0.2-0.7l0,0c0,0,0,0,0-0.1s-0.1-0.1-0.1-0.2v-0.1l-0.1-0.2l0,0c0,0,0-0.1,0-0.1
			c0-0.1,0-0.1-0.1-0.2l0,0c0,0,0-0.1-0.1-0.1l0,0c0.1-0.2,0.2-0.3,0.3-0.5C200.3,66.7,200.7,66,201.1,65.3z M196.2,27.1V27
			C196.2,27.1,196.2,27.1,196.2,27.1z M193.9,34.1c0.5-0.5,1-1.1,1.5-1.7c0.3-0.4,0.6-0.7,0.9-1.1c0.2-0.1,0.4-0.1,0.6,0
			c0.2,0.2,0.4,0.3,0.7,0.4l0.1,0.1c0.1,0.1,0.2,0.2,0.3,0.3c0,0,0.1,0.1,0.2,0.1l0.2,0.1c0.3,0.1,0.6,0.3,0.8,0.5
			c0.1,0.1,0.2,0.1,0.2,0.2c0.1,0,0.1,0.1,0.2,0.1c0.1,0.1,0.2,0.2,0.3,0.3c0.2,0.1,0.3,0.2,0.4,0.3c0.1,0,0.1,0.1,0.2,0.2
			c0.2,0.3,0.4,0.6,0.6,0.9c0.2,0.3,0.3,0.6,0.3,1c0.1,0.2,0.1,0.4,0.1,0.6c0,0.4,0,0.8-0.1,1.3s-0.1,1-0.1,1.5c0,0.3,0,0.5,0,0.8
			c0,1-0.2,2-0.3,3c0,0.7,0,1.3-0.1,2c0,0.1,0,0.2-0.1,0.2l0,0c0,0,0,0.1,0,0.2c0,0.1,0,0.2-0.1,0.3c0,0,0,0.1,0,0.2
			c0,0.3,0,0.7,0,1c0,0.1,0,0.2-0.1,0.3l0,0c0,0,0,0.1,0,0.1c0,0.2,0,0.5,0,0.7c0,0.1-0.1,0.2-0.2,0.2h-0.1c-0.1,0-0.1,0-0.2-0.1
			c0,0,0,0,0,0c0,0,0-0.1,0-0.1c0-0.1-0.1-0.1-0.1-0.2c-0.2-0.4-0.3-0.9-0.4-1.3c-0.1-0.2-0.2-0.4-0.2-0.6c-1.4-2.5-3.4-4.7-5.8-6.3
			l-0.1-0.1c0-0.5,0-1-0.1-1.5l0,0c0-0.1,0-0.1,0-0.2c0-0.5-0.1-1.1-0.1-1.7C193.2,35.2,193.5,34.6,193.9,34.1L193.9,34.1z
			 M192.9,33.8L192.9,33.8L192.9,33.8z M155,37c0-0.5,0.1-1,0.2-1.6c0-0.5,0.1-1,0.3-1.4c0.2-0.4,0.4-0.7,0.8-1
			c0.2-0.2,0.4-0.3,0.6-0.5c0.1-0.1,0.2-0.2,0.3-0.2l0.1-0.1c0.1-0.1,0.2-0.1,0.3-0.1l0.2-0.1l0,0c0.1,0,0.1-0.1,0.2-0.1
			c0.3-0.2,0.5-0.3,0.9-0.4l0.1-0.1l0,0c0.2-0.1,0.4-0.1,0.6-0.1c0.1,0,0.1,0,0.2,0c0.1,0,0.3,0.2,0.3,0.3h0.1c0.9,1.6,2,3,3.3,4.4
			l0.2,0.1c0.1,0,0.2,0.1,0.2,0.1c0.1,0.2,0.3,0.3,0.4,0.4l0.1,0.1c0.1,0,0.1,0.1,0.1,0.1c0,0,0,0.1,0,0.1l0,0c0,0,0,0.1,0,0.1
			c0,0,0,0.1,0,0.1l0,0c0,0,0,0.1,0,0.1c0,0.1,0,0.1-0.1,0.2l0,0l-1.3,1c-1,0.6-1.9,1.4-2.8,2.2c-1.1,1.1-2.1,2.3-2.9,3.6
			c-0.2,0.4-0.4,0.9-0.6,1.3c-0.2,0.4-0.4,0.7-0.7,1v0.2c0,0.2-0.1,0.3-0.3,0.4c0,0,0,0.1-0.1,0.1v0c0,0,0,0.1-0.1,0.1l0,0
			c0,0-0.1,0.1-0.1,0.1l-0.1,0.3c0,0.1-0.1,0.1-0.1,0.1c0,0,0,0,0,0c-0.1,0-0.1-0.1-0.1-0.1c0-0.1,0-0.3,0-0.4l0,0c0,0,0-0.1,0-0.1
			c0-0.1,0-0.2,0-0.3c-0.1-0.1-0.1-0.2-0.1-0.3v-0.6c0-0.1,0-0.2,0-0.3c0,0,0-0.1,0-0.1c0-0.3,0-0.7,0-1c-0.1-0.1-0.1-0.2-0.1-0.3
			c0-0.6,0-1.2,0-1.8c-0.1-0.4-0.2-0.8-0.2-1.2c0-0.2,0-0.4,0-0.6c0-0.2-0.1-0.5-0.1-0.7C154.7,39.2,154.8,38.1,155,37z M155.7,64.1
			c-1.1-2.7-1.4-5.6-1.1-8.4c0.2-1.9,0.6-3.7,1.1-5.6l0.2-0.8c0-0.1,0.1-0.1,0.1-0.2c0.7-1.9,1.7-3.7,2.9-5.3
			c1.5-2.4,3.8-4.2,6.4-5.2c0.2-0.1,0.4-0.1,0.5-0.2c0,0,0.1,0,0.1-0.1l0.2,0.1l0.1,0.1l0.3,0.2l0.1,0.1l0.3,0.2l0.1,0.1l0.4,0.3
			l0.2,0.1l0.2,0.1l0.2,0.1l0.2,0.1l0.2,0.1l0,0l0.4,0.2l0,0c0.8,0.2,1.5,0.6,2,1.2c0.2,0.2,0.4,0.5,0.6,0.8
			c0.2,0.4,0.3,0.8,0.4,1.2c0.2,0.3,0.3,0.6,0.4,0.9c0.2,0.6,0.2,1.2,0,1.7c-0.1,0.4-0.3,0.7-0.5,1c-0.3,0.4-0.6,0.7-1,1
			c-0.5,0.3-1.1,0.6-1.7,0.7c-0.1,0.1-0.2,0.1-0.3,0.2l-0.4,0.2c-1.3,0.5-2.3,1.6-2.5,3c-0.1,0.4-0.5,0.8-1.1,1.1
			c-0.7,0.7-1.4,1.3-2.2,1.9v0c0.6-0.2,1.3-0.5,1.9-0.8c1.4-0.7,2.1-1.4,2.2-2.1c0.2-1.1,1-2,2-2.3c0.4-0.1,0.7-0.3,1.1-0.3
			c0,0,0.1,0.1,0.1,0.1h0.1v0.5l-0.2,0.1l0,0c0,0.1-0.1,0.1-0.2,0.1l0,0l0,0c0,0,0,0,0,0.1l-0.2,0.2c0,0,0,0.1,0,0.1
			c-0.1,0.4-0.3,0.8-0.6,1.2l0,0l0.1,0l0,0c-0.1,0.2-0.2,0.3-0.3,0.5c-0.1,0.1-0.1,0.2,0,0.3c0.1-0.2,0.2-0.4,0.4-0.5
			c0.2-0.2,0.4-0.5,0.6-0.7c0.1-0.1,0.1-0.1,0.2-0.2l0,0c0-0.1,0.1-0.2,0.2-0.2h0.1l0.1-0.2c0.2-0.1,0.5-0.2,0.7-0.3l0,0l0,0
			c0.7-0.3,1.4-0.4,2.1-0.4c0.8,0.1,1.5,0.5,2,1.1c0.6,0.8,0.7,1.9,0.2,3.4c-1.5,3.4-4,6.2-7.2,8.2c0,0-0.1,0-0.1,0h-0.1
			c-0.1-0.1-0.2-0.1-0.3,0h-0.1c0,0-0.1,0-0.1,0c-1.7-0.9-3.6-1.2-5.4-0.6c-2,0.4-3.7,1.5-4.9,3.1l-0.2,0.4l-0.1-0.2
			C156.3,65.2,155.9,64.7,155.7,64.1L155.7,64.1z M199.4,71.5v0.2c0,0.1,0,0.1,0,0.2c0,0,0,0.1,0,0.2c0,0.1,0,0.1,0,0.2s0,0.1,0,0.2
			s0,0.1,0,0.2v0.2v0.2V73c0,0.1,0,0.1,0,0.2c0,0.1,0,0.1,0,0.2v0.1c0,0.1,0,0.2-0.1,0.3v0.1l-0.1,0.2c0,0,0,0.1,0,0.2l-0.1,0.2v0.2
			l-0.4,0.3c0,0.1,0,0.1-0.1,0.2l-0.1,0.2c0,0,0,0.1-0.1,0.2s0,0.2-0.1,0.2c0,0.1,0,0.1-0.1,0.2l-0.1,0.3v0.1l-0.1,0.4l-0.1,0.3v0.1
			l-0.1,0.2l-0.1,0.1c0,0.1,0,0.1-0.1,0.2c0,0,0,0.1-0.1,0.1c0,0.1-0.1,0.1-0.1,0.2l-0.1,0.1l-0.1,0.2l-0.1,0.1c0,0.1,0,0.1-0.1,0.2
			l-0.1,0.1l-0.1,0.2c0,0,0,0.1-0.1,0.1l-0.1,0.2c0,0,0,0.1-0.1,0.1l-0.1,0.2v0.1c0,0.1-0.1,0.1-0.1,0.2v0.1c0,0.1-0.1,0.1-0.1,0.2
			v0.1l-0.1,0.2l0,0c-0.1,0.3-0.3,0.5-0.4,0.7l0,0c-0.3,0.6-0.5,1.2-0.8,1.8v0.1l-0.1,0.2c-0.5,1.3-1.5,2.1-1.7,3.5
			c-0.1,0.3-0.3,0.6-0.3,0.9s0,0.4,0,0.6c0,0,0,0.1,0,0.1v0.2c0.1,1,0.3,1.9,0.3,2.8c0.1,0.1,0.1,0.3,0.1,0.5c0,0.3,0,0.7,0,1
			c0,0.5,0,1,0,1.6c0,0.1,0,0.2-0.1,0.3c0,0.5-0.1,1-0.2,1.5c-0.1,0.7-0.4,1.3-0.9,1.9c-0.5,0.3-1,0.6-1.6,0.7
			c-0.7,0.2-1.4,0.2-2-0.2c-0.3-0.1-0.7-0.2-1-0.4c-1.1-0.6-2-1.4-2.7-2.5c-0.4-0.7-0.7-1.5-0.8-2.4c-0.1-1-0.1-2,0-3
			c0-0.2,0.1-0.4,0.1-0.6c0.2-0.7,0.3-1.4,0.4-2.1c0-0.2,0.2-0.6,0.2-0.8c-0.1-0.6-0.1-1.3-0.1-1.9l0,0c0-0.3-0.2-0.7-0.1-1.1
			c0-0.3,0.1-0.7,0.1-1c-0.1-0.9-0.1-1.7,0-2.6c0-0.2,0-0.4,0.1-0.6c0-0.4,0.1-0.8,0.1-1.3c0.1,0,0.2-0.1,0.1-0.3c0-0.3,0-0.5,0-0.8
			v-0.2l0,0l0,0c0-0.1,0-0.2,0-0.3l0,0l0.1-0.8l0,0v-0.1c0-0.1,0-0.2,0-0.2c0.1-0.4,0.2-0.8,0.3-1.2c0-0.1,0-0.1,0-0.2v-0.1l0,0
			c0,0,0-0.1,0.1-0.1c0-0.1,0-0.2,0-0.3c0,0,0,0,0-0.1v-0.1l0,0c0-0.2,0.1-0.3,0.2-0.5s0.1-0.3,0.1-0.4c0,0,0-0.1,0-0.1l0.1-0.1
			c0,0,0-0.1,0-0.1c0,0,0-0.1,0-0.2c0.2-0.6,0.5-1.2,0.8-1.8h-0.1c-0.3,0.3-0.6,0.6-0.8,0.9c0,0.1-0.1,0.1-0.1,0.2
			c-0.1,0-0.2,0.1-0.3,0.2c0,0.1,0,0.2-0.1,0.3c-0.1,0-0.1,0.1-0.1,0.1c-0.2,0.4-0.4,0.9-0.5,1.4c0,0.1,0,0.2,0,0.2l-0.2,0.6
			c0,0.1-0.1,0.2-0.1,0.3c0,0.3-0.1,0.5-0.1,0.8l0,0c0,0-0.1,0.1-0.1,0.2c0,0.3-0.1,0.7-0.1,1v0.2c0,0.1,0,0.1,0,0.2v0.2h-0.1
			l-0.2,0.1c-1.6,0.5-3.2,0.7-4.8,0.9h-2.8h-0.2h-0.1h-0.2h-0.1h-0.1H176h-0.1h-0.1h-0.1h-0.1h-0.1h-0.1h-0.1H175h-0.1h-0.1h-0.1
			h-0.2h-0.2h-0.1h-0.1h-0.1h-0.2l0,0l-0.2-0.1l0,0h-0.1h-0.1h-0.1l0,0l-0.2-0.1l0,0h-0.1H173h-0.1l0,0h-0.1l0,0l-0.1-0.1h-0.1h-0.1
			l0,0h-0.1l0,0h-0.1l0,0l-0.4-1l0,0h-0.1l-0.6-0.3l-0.1-0.1c0-0.1,0-0.3,0-0.4c0-0.9-0.1-1.8-0.2-2.7c-0.1-0.3-0.3-0.7-0.4-1
			c-0.3-0.7-0.7-1.3-1.1-2l-0.3-0.3l-0.2,0.1c0.8,1.7,1.3,3.7,1.3,5.6V76c0,0.1,0,0.2,0,0.3s0,0.2,0,0.3c0,0.1,0,0.2,0,0.3
			c0.1,0.8,0.2,1.7,0.2,2.5c0,0.2,0,0.4,0,0.6c0.1,0.9,0.1,1.7,0,2.6c0,0.3,0,0.7,0,1c0,0.4-0.2,0.7-0.2,1.1l0,0
			c0,0.6,0,1.3-0.1,1.9c-0.1,0.2,0.1,0.6,0.2,0.8c0.1,0.7,0.2,1.4,0.3,2.1c0,0.2,0.1,0.4,0.1,0.6c0.1,1,0,2-0.1,3
			c-0.1,0.8-0.4,1.6-0.9,2.4c-0.7,1-1.6,1.9-2.8,2.4c-0.3,0.2-0.7,0.3-1,0.3c-0.6,0.3-1.3,0.4-2,0.1c-0.5-0.3-1.2-0.4-1.6-0.8
			c-0.5-0.5-0.8-1.2-0.9-1.9c-0.1-0.5-0.1-1-0.1-1.5c0-0.1,0-0.2-0.1-0.3c0-0.5,0-1,0.1-1.6c0-0.3,0-0.7,0-1c0-0.2,0.1-0.3,0.1-0.5
			c0.1-1,0.3-1.9,0.4-2.8c0,0,0-0.1,0-0.2s0-0.1,0-0.2c0-0.2,0-0.4,0-0.6c0-0.3-0.3-0.6-0.3-0.9c-0.2-1.4-1.1-2.3-1.6-3.6
			c0-0.1,0-0.1-0.1-0.2v-0.1c-0.3-0.6-0.5-1.2-0.8-1.9c-0.1-0.3-0.2-0.6-0.3-0.9c0-0.1-0.1-0.2-0.1-0.3c-0.5-1-1-2-1.3-3.1l-0.1-0.4
			c0,0,0-0.1,0-0.1c0-0.1-0.1-0.2-0.1-0.3l-0.1-0.1c0-0.1,0-0.2-0.1-0.2s0-0.1,0-0.1s-0.1-0.2-0.1-0.2v-0.1c0-0.1-0.1-0.2-0.1-0.3
			V74c0-0.1,0-0.2-0.1-0.3v-0.1c0-0.1,0-0.2,0-0.2v-0.2c0-0.1,0-0.1,0-0.2v-0.2v-0.2c0,0,0-0.1,0-0.2c0-0.1,0-0.1,0-0.2V72
			c0-0.1,0-0.1,0-0.2c0-0.1,0-0.1,0-0.2s0-0.1,0-0.2s0-0.1,0-0.2v-0.1c0-0.1,0-0.1,0-0.2v-0.4c0-0.2,0-0.4,0-0.7v-0.1v-0.2
			c0,0,0-0.1,0-0.1c0-0.1,0-0.1,0-0.2v-0.1v-0.2l0,0c0-0.2,0.1-0.5,0.2-0.7l0,0c0-0.1,0-0.1,0.1-0.2l0,0c0-0.1,0.1-0.1,0.1-0.2l0,0
			c0-0.1,0-0.1,0.1-0.2l0,0c0.1-0.2,0.2-0.4,0.3-0.6l0,0c0.1-0.1,0.1-0.2,0.2-0.3c0.2-0.3,0.4-0.6,0.7-0.9c1.3-1.4,3.1-2.2,5-2.2
			c4,0,8.2,3.1,10,4.7c0.1,0,0.2,0,0.3-0.1c0-0.1-0.1-0.2-0.1-0.3c-0.1-0.1-0.1-0.2-0.1-0.3c-0.6-0.6-1.2-1.2-1.9-1.8l-0.2-0.1
			c-1-0.7-2-1.3-3-1.8c0.8-0.4,1.6-0.9,2.3-1.5v0.1c0,0.1,0.1,0.2,0.2,0.3c0,0.1,0,0.2,0.1,0.3c0,0,0.1,0,0.1,0.1
			c0.1,0.3,0.3,0.6,0.5,0.7l0,0c0.2,0.1,0.3,0.2,0.5,0.3c0,0.1,0.1,0.2,0.2,0.2c0.7,0.2,1.5,0.3,2.3,0.3c1,0.1,2.1,0.1,3.1,0.1
			c0.8,0,1.7,0,2.5-0.1c0,0,0.1,0.1,0.1,0.1c0.4,0.2,0.8,0.2,1.3,0h0.1c-0.1,0,0,0,0,0h0.2h0.1c0.2,0,0.4,0.1,0.6,0.1
			c0.9,0,1.8-0.3,2.6-0.9l0.2-0.1c0,0,0.1-0.1,0.1-0.1c0.1-0.2,0.2-0.3,0.3-0.5c0.2-0.2,0.3-0.5,0.3-0.8c0.6,0.6,1.3,1.1,2.1,1.5
			c-1,0.4-2,0.9-2.9,1.5c-0.1,0.1-0.2,0.1-0.2,0.2l0,0c0,0,0,0.1-0.1,0.1c-0.2,0.2-0.4,0.4-0.6,0.5h-0.1c-0.7,0.7-1.4,1.3-2,2
			c0,0,0.1,0.1,0.1,0.2c0,0,0,0,0,0.1c1.7-1.3,6.3-4.8,10.7-4.7c1.9,0.1,3.7,0.9,5,2.4c0.1,0.2,0.3,0.4,0.4,0.6l0.2,0.4l0,0l0.1,0.2
			c0,0,0,0,0,0.1c0,0,0.1,0.1,0.1,0.2v0.1c0,0,0.1,0.1,0.1,0.2c0,0,0,0.1,0,0.1c0,0.1,0.1,0.1,0.1,0.2v0.1c0,0.1,0.1,0.1,0.1,0.2
			c0,0,0,0.1,0,0.1l0.1,0.2c0,0,0,0,0,0.1c0.1,0.2,0.1,0.4,0.2,0.6c0,0,0,0.1,0,0.1v0.2c0,0,0,0.1,0,0.1c0,0.1,0,0.1,0,0.2
			c0,0,0,0.1,0,0.1s0,0.1,0,0.2c0,0,0,0.1,0,0.1c0,0.1,0,0.1,0,0.2s0,0.1,0,0.1c0,0.1,0,0.1,0,0.2v0.1
			C199.4,71.1,199.4,71.3,199.4,71.5L199.4,71.5z M199.1,66.3L199.1,66.3c-0.1-0.1-0.2-0.2-0.3-0.3c-1.1-1.3-2.6-2.2-4.2-2.7
			c-1.9-0.5-3.9-0.4-5.7,0.3c-2.4-1.1-6.1-5.2-7.3-8.6c-0.5-1.5-0.4-2.7,0.3-3.4c0.5-0.6,1.3-1,2.1-1c1.1,0,2.1,0.4,2.9,1
			c0,0,0,0,0,0.1c0.1,0,0.1,0,0.2,0.1c0.1,0,0.1,0.1,0.1,0.2s0.1,0,0.1,0c0.1,0,0.1,0,0.2,0.1c0.1,0.1,0.1,0.2,0.2,0.4
			c0,0,0.1,0,0.1,0.1c0.1,0.3,0.3,0.7,0.4,1h0.1c0-0.1,0-0.2,0-0.2s-0.1-0.4-0.1-0.7c-0.1,0-0.1-0.1-0.1-0.2v-0.1l0,0
			c-0.1,0-0.1-0.1-0.1-0.1c-0.1-0.1-0.1-0.2-0.1-0.3c0-0.1-0.1-0.2-0.2-0.3l-0.1-0.1l0,0l0,0l0,0c-0.1,0-0.2-0.1-0.2-0.2
			c0,0,0,0,0,0l0,0l0,0l0,0h-0.1c-0.1,0-0.1-0.1-0.1-0.1c0,0-0.1-0.1-0.1-0.1c-0.1,0-0.1-0.1-0.1-0.2c-0.1-0.1-0.1-0.2,0-0.3
			c0,0,0,0,0,0c0,0,0,0,0.1,0c0-0.1,0-0.1,0.1-0.1V50c0,0,0.1,0,0.1-0.1c0.4,0.1,0.8,0.2,1.2,0.4c1,0.4,1.8,1.3,1.9,2.4
			c0.1,0.7,0.8,1.5,2.2,2.2c0.6,0.3,1.2,0.6,1.9,0.8l0.1-0.2c-0.9-0.4-1.6-1-2.2-1.8c-0.6-0.4-1-0.8-1.1-1.2
			c-0.2-1.4-1.1-2.6-2.4-3.1c-0.3-0.2-0.7-0.3-1.1-0.4c-0.2,0-0.4,0-0.6,0c-1.7,0-3-1.3-3-3c0-0.9,0.4-1.7,1.1-2.3
			c0-0.7,0.1-1.4,0.5-2c0.6-1,1.8-1.6,3-1.6h0.1l0.3-0.2l0,0l0.2-0.1l0.2-0.1l0.2-0.1l0.3-0.2l0.2-0.1l0.3-0.2l0.1-0.1l0.4-0.2
			l0.1-0.1l0.4-0.3c1.6,0.8,3,1.9,4.2,3.2c0.1,0.1,0.1,0.1,0.2,0.2c0.1,0.2,0.3,0.4,0.4,0.6c0,0.1,0.1,0.1,0.2,0.1
			c1.6,1.9,2.7,4,3.5,6.3l0.3,0.9c0.6,2.1,1,4.2,1.2,6.4c0.3,2.9-0.2,5.7-1.3,8.4C199.8,65.4,199.5,65.9,199.1,66.3L199.1,66.3z"/>
		<path class="st11" d="M190.7,33.8h-0.2c-0.8,0-1.5,0.4-2,1c-0.2,0.2-0.4,0.4-0.6,0.7c-0.3,0.2-0.6,0.5-0.8,0.8l-0.5,0.2l-0.5,0.2
			l-0.2,0.1l-0.3,0.1c-0.3,0.1-0.5,0.2-0.8,0.3s-0.5,0.2-0.7,0.2h-0.1c-0.4,0-0.8,0.1-1.1,0.2s-0.6,0.1-0.9,0.2
			c-0.5,0.1-0.9,0.2-1.4,0.3s-0.9,0-1.4,0h-1.8c-1.1,0-2.1,0-3.1-0.1c-1-0.2-1.9-0.4-2.8-0.8c-0.5-0.2-1.1-0.3-1.6-0.5
			c-0.4-0.1-0.7-0.2-1.1-0.3c-0.4-0.2-0.7-0.4-1.1-0.6c-0.1-0.1-0.2-0.1-0.2-0.2c-1-1-2.7-1-3.8,0c-0.2,0.2-0.3,0.4-0.4,0.6v0.1
			c0,0.1,0,0.3-0.1,0.4v2c0.1,0.3,0.3,0.5,0.5,0.7c0.7,0.7,1.5,1.3,2.5,1.7c0.5,0.3,1.1,0.5,1.6,0.7c0.4,0.2,0.8,0.2,1.3,0.4
			c0.9,0.3,1.7,0.6,2.6,0.8c1.1,0.3,2.1,0.4,3.2,0.5c1.6,0.1,3.1,0.1,4.6,0c0.4,0,0.8,0,1.1,0c0.6-0.1,1.2-0.2,1.8-0.3
			c0.6-0.1,1.2-0.3,1.8-0.4l0,0c0.3,0,0.6-0.1,0.9-0.1l0.5-0.1c0.3-0.1,0.7-0.2,1-0.3l-0.2,0.1c0.4-0.2,0.8-0.3,1.1-0.4
			s0.7-0.3,1-0.5c0.1-0.1,0.3-0.1,0.4-0.2c0.3-0.1,0.6-0.3,0.9-0.5c0.2-0.2,0.5-0.3,0.7-0.5l0.2-0.1c0.3-0.2,0.6-0.4,0.8-0.7
			l0.1-0.1l0.2-0.3c0.3-0.2,0.6-0.5,0.8-0.8c0.1-0.9,0.1-1.8,0.1-2.7c0-0.1,0-0.1,0-0.2C192.6,34.4,191.7,33.8,190.7,33.8z"/>
		<path class="st6" d="M194.9,32.4c0.4-0.8,0.9-1.6,1.3-2.4c0.1-0.3,0.2-0.7,0.3-1c0.1-0.4,0.2-0.8,0.4-1.2c0.3-0.7,0.5-1.4,0.6-2.2
			c0,0,0-0.1,0-0.1c0-0.2,0-0.3,0.1-0.5c0.1-0.6,0.1-1.3,0.1-2.1c0-0.4,0-0.8-0.1-1.2c1.6-0.6,2.7-2.9,2.7-5.7c0-3.2,0-6.3-3.5-5.8
			c-1,0.1-2,0.4-2.7,1.1c-2.9-6.4-8.9-10.7-15.8-10.7s-13,4.4-15.9,10.8c-0.8-0.7-1.8-1.2-2.8-1.2c-3.5-0.5-3.5,2.6-3.5,5.8
			c0,2.8,1.2,5.1,2.8,5.7c0,0.4-0.1,0.8-0.1,1.2c0,5.8,1.7,9.2,4.6,11.3v4.4c0,0.1,0,0.1,0,0.2c0.1,0.1,0.1,0.2,0.3,0.3
			c9.3,3.9,19.7,3.9,29,0c0.2-0.1,0.3-0.2,0.3-0.4v-4.6c0.6-0.4,1.2-0.9,1.7-1.5C194.7,32.6,194.8,32.5,194.9,32.4z"/>
		<path class="st10" d="M194.7,17c-0.3-0.5-0.6-1-1-1.4v-0.1c-0.1-0.1-0.1-0.2-0.2-0.3l-0.1-0.1c-0.8-0.9-1.6-1.7-2.5-2.4
			c-1.7-1.3-3.6-2.3-5.7-3c-4.5-1.5-9.3-1.5-13.8,0c-2,0.7-4,1.7-5.7,3c-0.8,0.6-1.6,1.3-2.2,2.1c-0.1,0-0.2,0-0.2,0.1
			c0,0.1-0.1,0.2-0.2,0.3c-0.2,0.3-0.4,0.5-0.6,0.8l-0.1,0.1c-0.3,0.3-0.6,0.7-0.7,1.1c-0.8,1.4-1.3,3-1.4,4.6l0,0
			c0,1.8,0.4,3.5,1,5.2c0,0.1,0.1,0.2,0.1,0.3c0,0,0,0.1,0,0.1c0,0,0,0.1,0.1,0.1l0.1,0.1l0,0c0,0.1,0,0.2,0.1,0.2c0,0,0,0,0.1,0
			l0,0c0,0,0,0,0,0l0,0c0,0,0,0,0,0l0.1,0.3c0.7,1.3,1.6,2.5,2.6,3.5c0,0.1,0.1,0.3,0.3,0.3c0,0,0.1,0,0.1,0
			c0.3,0.2,0.6,0.5,0.9,0.7c3.1,2.2,7.5,3.4,12.6,3.4s9.5-1,12.6-3.3c0.7-0.5,1.4-1.1,1.9-1.7c0.1,0,0.1-0.1,0.1-0.1l0.3-0.3l0,0
			c0,0,0.1-0.1,0.1-0.1c0.6-0.7,1-1.4,1.4-2.2c0.3-0.6,0.6-1.2,0.8-1.9c0.1-0.1,0.2-0.2,0.2-0.3c0,0,0,0,0,0l0,0l0.1-0.7
			c0.3-1.2,0.4-2.4,0.5-3.5l0,0C196.2,20.1,195.6,18.5,194.7,17z"/>
		<path class="st10" d="M159,12.2c-0.6,0-1.2,0.5-1.2,1.1s0.5,1.2,1.1,1.2c0.6,0,1.2-0.5,1.2-1.1c0,0,0,0,0,0
			C160.2,12.7,159.6,12.2,159,12.2z"/>
		<path class="st10" d="M158.1,18.9c0.7,0.1,1.4-0.5,1.4-1.2s-0.5-1.4-1.2-1.4c-0.1,0-0.2,0-0.2,0c-0.7,0.1-1.3,0.7-1.2,1.4
			C157,18.4,157.5,18.9,158.1,18.9z M158.1,16.6c0.6,0,1,0.4,1,1s-0.4,1-1,1s-1-0.4-1-1S157.5,16.6,158.1,16.6z"/>
		<path class="st10" d="M158.1,18.3c0.4,0,0.7-0.3,0.7-0.7s-0.3-0.7-0.7-0.7c-0.4,0-0.7,0.3-0.7,0.7C157.4,18,157.7,18.3,158.1,18.3
			L158.1,18.3z"/>
		<path class="st10" d="M200.5,14.1C200.5,14.1,200.5,14,200.5,14.1c0-0.4,0-0.8-0.1-1.1c-0.1-0.9-0.4-1.7-1-2.3
			c-0.7-0.5-1.6-0.7-2.5-0.5c-1,0.1-1.9,0.4-2.7,1c-1.4-3-3.6-5.7-6.4-7.6c-5.7-4-13.3-4-19,0c-2.8,1.9-5,4.6-6.4,7.6
			c-0.8-0.6-1.7-1-2.8-1.1c-0.9-0.2-1.8,0-2.5,0.5c-1.2,1-1.2,3.3-1.2,5.4c0,1.3,0.3,2.6,0.8,3.8c0,0.1,0.1,0.2,0.1,0.3
			c0,0,0,0.1,0,0.1l0,0c0,0,0,0.1,0,0.1v0.1c0,0.1,0,0.1,0.1,0.1c0,0,0,0,0,0c0.4,0.6,0.9,1.1,1.6,1.4c0,0.4,0,0.8,0,1.2
			c0,2.2,0.5,4.4,1.3,6.5c0.7,1.9,1.8,3.6,3.4,4.9v4.3c0,0.1,0,0.1,0.1,0.2c0.1,0.2,0.2,0.3,0.3,0.3c4.6,2,9.6,3,14.6,3h0.9
			c0,0,0.1,0,0.1,0c0,0,0,0,0,0c2.1-0.1,4.3-0.3,6.4-0.7c2.5-0.5,4.9-1.3,7.2-2.3c0.2-0.1,0.3-0.3,0.4-0.5c0,0,0-0.1,0-0.1v-4.4
			c1.6-1.3,2.8-3.1,3.4-5.1c0.8-2,1.2-4,1.2-6.1c0-0.4,0-0.7,0-1.1c0.9-0.4,1.5-1.2,1.9-2c0.5-1.2,0.8-2.4,0.8-3.7
			C200.5,15.4,200.5,14.7,200.5,14.1z M196.9,10.4c0.8-0.2,1.6,0,2.3,0.5c0.4,0.3,0.6,0.8,0.8,1.2c-0.2-0.3-0.4-0.7-0.8-0.8
			c0-0.1-0.1-0.1-0.1-0.1h-0.2c-0.2-0.2-0.5-0.3-0.8-0.3h-0.3h-0.1c0,0-0.1-0.1-0.1-0.1h-0.1h-0.3c-0.3,0-0.6,0-0.9,0
			c-0.3,0-0.5,0-0.8,0.1l0,0l0,0c0,0-0.1,0-0.1,0h-0.1C195.8,10.7,196.3,10.5,196.9,10.4z M194.8,11.6L194.8,11.6L194.8,11.6h0.1
			H194.8z M194.4,11.7L194.4,11.7L194.4,11.7L194.4,11.7z M195,10.9L195,10.9z M194.3,11.4L194.3,11.4L194.3,11.4L194.3,11.4
			C194.3,11.4,194.3,11.4,194.3,11.4L194.3,11.4z M194.9,12.8C194.9,12.8,194.9,12.8,194.9,12.8L194.9,12.8z M161.7,12.8
			c0,0,0-0.1,0-0.1l0.1-0.1L161.7,12.8z M160,11.2c0.1,0.1,0.2,0.2,0.4,0.2l0.2,0.1c0,0,0.1,0.1,0.1,0.1l0,0h0.1
			c0.1,0.1,0.1,0.1,0.2,0.2c0,0,0.1,0.1,0.1,0.1l0,0c0.1,0.1,0.1,0.2,0.1,0.4l0.1,0.3l0.1,0.1c0,0,0,0.1,0,0.1c0,0,0,0,0,0.1
			c0,0.4-0.1,0.7-0.3,1c0-0.2,0-0.3,0.1-0.5c0-1.1-0.9-2.1-2.1-2.1c-1.1,0-2.1,0.9-2.1,2.1c0,1.1,0.9,2.1,2.1,2.1
			c0.8,0,1.5-0.5,1.9-1.2c0,0,0,0,0,0.1c0,0,0,0,0,0.1c0,0.1-0.1,0.1-0.1,0.2v0.2c-0.2,0.4-0.4,0.8-0.5,1.2
			c-0.1,0.3-0.2,0.5-0.3,0.8c-0.1,0.3-0.3,0.6-0.4,0.9c-0.1,0.3-0.2,0.6-0.3,0.9c0,0.1-0.1,0.2-0.1,0.3c-0.1,0.2-0.1,0.4-0.1,0.6
			l0,0c-0.1,0.1-0.1,0.3-0.2,0.4c-0.1,0.1-0.1,0.3-0.2,0.4c0,0.1-0.1,0.1-0.1,0.2c-0.1,0-0.1,0.1-0.1,0.1c0,0,0,0,0,0.1l-0.1,0.1
			h-0.1c-0.4-0.1-0.8-0.4-1-0.8l0,0c0,0,0,0,0-0.1h-0.1c-0.1-0.5-0.6-1-0.5-1.5c0-0.1,0-0.1-0.1-0.1c-0.1-0.3-0.1-0.7-0.2-1
			c0,0,0-0.1-0.1-0.1c0-1,0-2.1,0.1-3.1l0,0c0.1-0.3,0.2-0.5,0.1-0.8c0-0.3,0.1-0.6,0.1-0.9c0.1-0.6,0.6-1.1,1.2-1.2
			C158.6,11,159.3,11,160,11.2L160,11.2z M160.8,13.3c0,1-0.8,1.8-1.8,1.8c-1,0-1.8-0.8-1.8-1.8c0-1,0.8-1.8,1.8-1.8
			C160,11.5,160.8,12.3,160.8,13.3C160.9,13.3,160.9,13.3,160.8,13.3L160.8,13.3z M156.3,13.4c0,0.1,0,0.1,0,0.2l0,0
			c0-0.1,0-0.2,0-0.4C156.3,13.3,156.3,13.4,156.3,13.4L156.3,13.4z M157.9,21.1L157.9,21.1L157.9,21.1z M158.7,21.6L158.7,21.6
			L158.7,21.6C158.7,21.6,158.8,21.6,158.7,21.6L158.7,21.6z M161.3,15L161.3,15L161.3,15L161.3,15z M162.8,13.1L162.8,13.1l0.2-0.3
			l0.1-0.1L162.8,13.1z M164.4,11.4l0.1-0.1l0,0L164.4,11.4L164.4,11.4z M183.6,6.4l0.6,0.2l-0.7-0.2L183.6,6.4z M192.3,11.5
			c0.5,0.5,0.9,1,1.3,1.5c-0.3-0.3-0.6-0.6-0.9-0.9s-0.6-0.6-0.9-0.9L192.3,11.5z M198.5,21L198.5,21L198.5,21z M178.3,0.8
			c6.6,0,12.6,4,15.7,10.5l0,0l0.1,0.1l0.2,0.5V12c0,0.1,0,0.1,0.1,0.1c0.3,0.6,0.5,1.2,0.7,1.8c-0.6-1-1.4-1.9-2.2-2.7
			c-1.1-1.1-2.3-2-3.6-2.8c-1.3-0.8-2.7-1.5-4.1-2c-1-0.4-2-0.7-3-0.9c-0.7-0.2-1.4-0.3-2.1-0.4c-0.4,0-0.7,0-1.1,0h-0.3
			c-0.9,0-1.7,0-2.6,0.1l-0.7,0.1c-0.4,0-0.9,0.1-1.3,0.2c-0.8,0.2-1.6,0.4-2.3,0.7c-0.8,0.3-1.5,0.7-2.3,1.1
			c-0.6,0.3-1.1,0.7-1.6,1.2c-0.4,0.3-0.7,0.5-1.1,0.8l-0.4,0.3l-0.5,0.3l-0.3,0.1c-0.3,0.1-0.5,0.3-0.7,0.5h-0.1
			c-0.1,0.1-0.2,0.1-0.3,0.2l-0.3,0.3l-0.1,0.1c0,0-0.1,0-0.1,0l-0.4,0.4c0,0,0,0-0.1,0c-0.2,0.2-0.4,0.4-0.5,0.6l-0.1,0.1
			c-0.4,0.4-0.8,0.8-1.2,1.2l0,0c0.2-0.7,0.5-1.3,0.8-2C165.6,4.9,171.6,0.8,178.3,0.8z M157.3,10.8c0.6-0.5,1.5-0.6,2.3-0.5h0.2
			c0,0,0.1,0.1,0.1,0.1c0.2,0,0.4,0.1,0.5,0.1l0.5,0.1l0,0c0,0.1,0.1,0.1,0.1,0.1h0.2c0,0,0.1,0.1,0.2,0.1l0,0l0,0
			c0,0.1,0.1,0.1,0.1,0.1h0.1c0,0.1,0.1,0.1,0.2,0.2l0.1,0.1h-0.1c0,0-0.1-0.1-0.2-0.1c0,0-0.1,0-0.1,0.1h-0.1l-0.4-0.2
			c-0.3-0.1-0.7-0.2-1-0.3c0,0-0.1-0.1-0.1-0.1h-0.1c-0.7-0.2-1.5-0.1-2.2,0.1c-0.5,0.2-0.9,0.5-1.1,1
			C156.8,11.5,157,11.1,157.3,10.8L157.3,10.8z M167.6,36.8L167.6,36.8L167.6,36.8L167.6,36.8z M164.3,35L164.3,35z M163.8,34.7
			c0,0.2,0,0.3,0,0.5v0.2c0,0,0,0.1,0,0.1v0.1l0,0c0,0.1,0,0.2,0,0.2l0,0v0.1l0,0v0l0,0c0.4-0.5,1-0.3,1.5,0
			c0.7,0.5,1.5,0.9,2.4,1.2c0.4,0.1,0.9,0.2,1.3,0.3s0.9,0.3,1.3,0.4c0.9,0.3,1.9,0.5,2.9,0.7c0.5,0.1,1,0.1,1.4,0.2
			c0.5,0,0.9,0,1.4,0c0.7,0.1,1.5,0.1,2.2,0.1c1.3,0,2.6-0.1,3.9-0.3c0,0,0,0.1,0,0.1c0,0,0,0,0,0c0.4-0.1,0.8-0.2,1.1-0.2h0.1
			c0,0,0,0,0.1,0l0,0h0.1l0.5-0.1c0,0,0,0,0.1,0c0.8-0.2,1.6-0.3,2.5-0.4c0.6-0.1,1.2-0.3,1.7-0.6c0.8-0.4,1.5-0.8,2.3-1.1
			c0.4-0.2,0.9-0.3,1.3-0.2c0,0,0.1,0,0.1,0c0,0,0.1,0,0.1,0.1c0.1,0.1,0.2,0.3,0.2,0.5l0,0c0-0.1,0-0.1,0-0.2c0,0,0,0,0,0.1
			c0,0.1,0,0.1,0,0.2c0,0,0,0.1,0,0.1c0,0,0,0.1,0,0.2c0,0.1,0.1,0.1,0.1,0.1c0,0,0.1,0,0.1,0c0-0.3-0.1-0.6-0.1-0.8v0l0,0
			c0-0.1,0-0.2,0-0.2v-0.1c0-0.1,0-0.2,0-0.3c0-0.1,0-0.2,0-0.2l0,0c0-0.1,0-0.1,0-0.2l0,0c0-0.1,0-0.2,0-0.3l0.3-0.2v3.4l-0.2,0.1
			l-0.1-0.1c0,0-0.1,0-0.1,0c0,0,0-0.1,0-0.1c0,0-0.1,0-0.1,0c0,0,0,0,0,0l0,0c-0.1,0-0.2,0-0.3,0.1c0,0-0.1,0.1-0.1,0.1
			c-0.1,0-0.1,0.1-0.2,0.2l-0.1,0.1c-0.2,0.1-0.5,0.2-0.7,0.3c-0.5,0.2-1,0.4-1.5,0.6c-0.5,0.2-1.1,0.3-1.6,0.4
			c-0.5,0.1-0.9,0.2-1.4,0.4c-7,1.5-14.2,1-20.9-1.3l0,0l-0.1-0.1l-0.3-0.2c-0.1,0-0.1-0.1-0.2-0.1c-0.1-0.1-0.3-0.1-0.4-0.2
			l-0.6-0.3l0,0c-0.1-0.1-0.2-0.1-0.2-0.2l-0.1-0.2v-2.8L163.8,34.7z M191.1,35.7L191.1,35.7z M192.3,34.9L192.3,34.9L192.3,34.9z
			 M186.2,37.6L186.2,37.6H186H186.2z M192.3,38.1L192.3,38.1l0.1-0.1L192.3,38.1z M192.6,37.9L192.6,37.9L192.6,37.9L192.6,37.9
			L192.6,37.9z M163.7,37.9L163.7,37.9L163.7,37.9z M163.6,37.8L163.6,37.8L163.6,37.8L163.6,37.8L163.6,37.8L163.6,37.8z
			 M164.2,38.1l0.1,0.1h0.1L164.2,38.1L164.2,38.1z M192.9,38.7c0,0.1-0.1,0.2-0.2,0.3c-4.3,1.8-8.8,2.8-13.4,2.9c0,0-0.1,0-0.1,0
			h-0.9h-1.3h0c-4.5-0.2-8.9-1.1-13.1-2.9c-0.1,0-0.2-0.1-0.2-0.2c0,0,0-0.1,0-0.1V38c2.3,0.9,4.7,1.6,7.1,2.1
			c2.5,0.5,5,0.7,7.5,0.7c2.5,0,5.1-0.2,7.6-0.7c2.4-0.5,4.8-1.2,7.1-2.1v0.6L192.9,38.7z M193,34.1c-0.7,0.5-1.5,1-2.3,1.4
			l-0.4,0.2c-0.1,0.1-0.3,0.1-0.4,0.2l-0.2,0.1l0,0l-0.1,0.1l-0.2,0.1c-0.2,0.1-0.4,0.2-0.6,0.3c-0.1,0-0.1,0-0.2,0l-0.8,0.4
			c-3.1,1.2-6.3,1.8-9.6,1.8c-4,0-8-0.9-11.7-2.6l-0.6-0.3l-0.6-0.3c-0.7-0.4-1.3-0.8-1.9-1.2c-1.6-1.2-2.7-2.9-3.4-4.8
			c-0.8-2-1.2-4.2-1.2-6.4c0-0.4,0-0.8,0.1-1.1c0.3-2.1,1-4.1,2.1-5.9c0.2-0.3,0.4-0.6,0.6-0.9c0.1,0,0.1-0.1,0.1-0.1
			c0.1-0.2,0.3-0.4,0.4-0.6c1.1-1.5,2.5-2.9,4-4l0.5-0.4c0.6-0.4,1.2-0.8,1.9-1.1c0.7-0.4,1.4-0.7,2.1-1c0.2-0.1,0.4-0.3,0.6-0.4
			c2.2-0.9,4.6-1.3,7-1.3c7.1,0.1,13.6,3.9,17.2,10l0.2,0.4c0,0,0,0.1,0.1,0.1l0,0v0.1c0,0.1,0,0.1,0.1,0.2c0.8,1.5,1.3,3.1,1.5,4.8
			c0,0.4,0.1,0.8,0.1,1.2c0.1,3.2-1.6,9-4.5,11.1L193,34.1z M199.9,18.7c0,0-0.1,0-0.1,0c0,0-0.1,0.1-0.1,0.1
			c-0.1,0.1-0.1,0.2-0.1,0.3c-0.2,0.3-0.4,0.6-0.5,0.9c-0.1,0-0.1,0.1-0.1,0.1c0,0.1,0,0.2-0.1,0.3h-0.1c0,0-0.1,0.1-0.1,0.1l0,0
			l0,0c-0.1,0-0.1,0-0.1,0.1l0,0c-0.1,0-0.1,0-0.2,0l0,0l0,0c0-0.1-0.1-0.1-0.1-0.1s0-0.1,0-0.1l-0.1-0.1c-0.1-0.1-0.2-0.1-0.3-0.2
			c-0.1-0.2-0.3-0.5-0.4-0.7c-0.1-0.2-0.3-0.5-0.4-0.8c0-0.3-0.1-0.6-0.2-0.9c-0.1-0.2-0.2-0.4-0.3-0.6c-0.1-0.1-0.1-0.2-0.2-0.3
			l-0.1-0.2c0-0.1-0.1-0.2-0.1-0.3c-0.2-0.3-0.2-0.7-0.3-1c0,0,0-0.1-0.1-0.1l-0.1-0.4c0-0.1-0.1-0.3-0.1-0.4c0-0.1-0.1-0.3-0.2-0.4
			c-0.1-0.1-0.1-0.2-0.1-0.3c0-0.1,0-0.2-0.1-0.4v-0.2c0,0,0,0,0-0.1c0-0.1,0-0.1,0-0.2c0,0,0,0-0.1,0c0-0.1,0-0.2,0-0.2l0,0
			c0-0.1,0-0.3,0-0.4v-0.1c0,0,0,0,0-0.1l0,0l0,0c0-0.2,0.2-0.3,0.3-0.4l0,0c0.1,0,0.1,0,0.1-0.1c0,0,0,0,0,0l0.1-0.1
			c0.4-0.2,0.9-0.3,1.4-0.3c0.3,0,0.5,0,0.8,0c0.1,0,0.1,0,0.2,0c0,0,0.1,0,0.1,0h0.1c0.2,0,0.3,0.1,0.4,0.1c0.1,0,0.1,0.1,0.1,0.1
			c0.1,0,0.1,0.1,0.2,0.1c0,0.1,0.1,0.1,0.2,0.1c0.1,0,0.3,0.2,0.4,0.3c0.2,0.2,0.3,0.4,0.4,0.6c0.1,0.2,0.2,0.4,0.3,0.5l0.1,0.1
			c0.1,1,0.1,2,0.1,2.9C200.4,17.1,200.2,17.9,199.9,18.7z"/>
		<path class="st10" d="M199.6,13.3c0-1.2-0.9-2.1-2.1-2.1c-1.2,0-2.1,0.9-2.1,2.1c0,1.2,0.9,2.1,2.1,2.1c0,0,0,0,0,0
			C198.6,15.4,199.6,14.5,199.6,13.3C199.6,13.3,199.6,13.3,199.6,13.3z M195.7,13.3c0-1,0.8-1.8,1.8-1.8s1.8,0.8,1.8,1.8
			c0,1-0.8,1.8-1.8,1.8C196.5,15.2,195.7,14.3,195.7,13.3C195.7,13.3,195.7,13.3,195.7,13.3L195.7,13.3z"/>
		<path class="st10" d="M198.6,13.3c0-0.6-0.5-1.1-1.2-1.1s-1.1,0.5-1.1,1.2c0,0.6,0.5,1.1,1.1,1.1C198.1,14.5,198.6,14,198.6,13.3
			C198.6,13.3,198.6,13.3,198.6,13.3z"/>
		<path class="st10" d="M198.4,16.3c-0.7,0.1-1.3,0.7-1.2,1.4c0.1,0.6,0.6,1.1,1.2,1.2c0.7,0.1,1.4-0.5,1.4-1.2s-0.5-1.4-1.2-1.4
			C198.5,16.3,198.5,16.3,198.4,16.3z M198.4,18.7c-0.6,0-1-0.4-1-1s0.4-1,1-1s1,0.4,1,1S198.9,18.7,198.4,18.7z"/>
		<path class="st10" d="M198.4,16.9c-0.4,0-0.7,0.3-0.7,0.7s0.3,0.7,0.7,0.7c0.4,0,0.7-0.3,0.7-0.7
			C199.1,17.2,198.8,16.9,198.4,16.9C198.4,16.9,198.4,16.9,198.4,16.9z"/>
		<path class="st6" d="M163.7,22.2c-0.1-0.7,0-1.4,0.1-2.1c0.2-0.6,0.4-1.2,0.8-1.8c0.3-0.6,0.7-1.1,1.1-1.6c0,0,0.1-0.1,0,0
			l0.1-0.1c0-0.1,0.1-0.1,0.1-0.2c0.1-0.1,0.2-0.3,0.3-0.4c0.2-0.2,0.4-0.5,0.7-0.7c0.2-0.2,0.5-0.4,0.7-0.6s-0.1,0.1,0,0l0.1-0.1
			l0.2-0.1c0.1-0.1,0.3-0.2,0.4-0.3l0.9-0.5c0.2-0.1,0.3-0.2,0.5-0.3s0.2-0.2,0.4-0.3c0.1-0.1,0.1-0.3,0-0.4
			c-0.1-0.1-0.1-0.1-0.2-0.1c-0.2,0-0.4,0-0.5,0.1c-0.2,0.1-0.4,0.2-0.6,0.3c-0.3,0.2-0.6,0.3-0.9,0.5c-0.6,0.4-1.2,0.8-1.7,1.3
			c-0.5,0.5-0.9,1-1.3,1.5c-0.2,0.3-0.3,0.6-0.5,0.9c0,0.1,0,0.1-0.1,0.2s0,0.1-0.1,0.1s0,0.1-0.1,0.2s-0.1,0.3-0.2,0.5
			c-0.2,0.7-0.3,1.3-0.3,2C163.6,20.7,163.6,21.5,163.7,22.2L163.7,22.2L163.7,22.2z"/>
		<path class="st6" d="M171.6,12.2h0.1l-0.4-0.1c0.2,0.1,0.4,0.2,0.6,0.1c-0.1,0,0.1,0,0.2,0l0.2-0.1c0.3-0.1,0.9-0.2,0.9-0.6
			l-0.1,0.3c0,0,0.1-0.1,0.1-0.2c0.1-0.1,0.1-0.2,0-0.3c0,0-0.1-0.1-0.2-0.1l0.1,0.1c-0.1-0.3-0.4-0.3-0.7-0.2
			c-0.1,0-0.3,0.1-0.4,0.1c-0.2,0-0.4,0.1-0.5,0.2l0,0c-0.1,0-0.1,0.1-0.2,0.1c-0.1,0.1-0.1,0.2-0.1,0.4l0.2-0.3l-0.1,0.1
			c-0.1,0.1-0.2,0.2-0.2,0.4C171.3,12.2,171.5,12.3,171.6,12.2L171.6,12.2z"/>
		<path class="st6" d="M174.6,11.3c0.1,0,0.2,0.1,0.2,0.1c0.1,0,0.2,0,0.3-0.1c0.1,0,0.3-0.1,0.4-0.2l-0.1,0.1c0,0,0,0,0.1,0
			c0.1,0,0.3-0.1,0.2-0.3c0-0.1,0-0.1-0.1-0.2c-0.1-0.2-0.4-0.3-0.6-0.2c-0.3,0-0.5,0.2-0.6,0.4C174.5,11.1,174.5,11.2,174.6,11.3
			L174.6,11.3z"/>
		<path class="st6" d="M163.9,24.1L163.9,24.1c0,0-0.1,0.1-0.1,0.2c0,0.1,0,0.3,0,0.4s0.1,0.4,0.2,0.5c0,0,0.1,0,0.2,0
			c0.1-0.1,0-0.4,0-0.5c0-0.1-0.1-0.3-0.2-0.4C164,24.1,164,24.1,163.9,24.1L163.9,24.1z"/>
		<path class="st6" d="M188.9,13.8c0.3,0.2,0.6,0.4,0.8,0.7c0.3,0.2,0.5,0.4,0.7,0.7s0.4,0.5,0.6,0.7c0.2,0.2,0.4,0.4,0.6,0.7
			c0.4,0.5,0.7,1,0.9,1.5c0,0,0.1,0.1,0.1,0.1c0,0.1,0.1,0.2,0.1,0.3c0-0.1,0,0,0,0c0,0,0,0.1,0,0.1c0,0.1,0.1,0.2,0.1,0.2
			c0.1,0.3,0.2,0.6,0.3,0.8c0.1,0.3,0.1,0.6,0.2,0.9c0,0,0,0.1,0,0.1s0-0.1,0,0v0.2v0.5c0,0.6,0,1.2-0.1,1.8c0,0.1,0-0.1,0,0
			s0,0.1,0,0.1c0,0.1,0,0.1,0,0.2c0,0.1-0.1,0.3-0.1,0.5s-0.1,0.6-0.2,0.9c-0.1,0.3-0.2,0.6-0.3,0.9c-0.1,0.1,0-0.1,0,0s0,0.1,0,0.1
			c0,0.1-0.1,0.1-0.1,0.2l-0.2,0.5c-0.3,0.6-0.7,1.2-1.2,1.8c-0.5,0.6-1.1,1.2-1.6,1.8c-0.1,0.1-0.1,0.2,0,0.3
			c0.1,0.1,0.1,0.1,0.2,0c1.2-0.8,2.2-1.8,2.9-3c0.7-1.1,1.2-2.3,1.5-3.5c0.5-2.4-0.1-5-1.5-7c-0.4-0.7-1-1.3-1.6-1.8
			c-0.3-0.3-0.7-0.5-1-0.7c-0.4-0.2-0.8-0.4-1.1-0.6l0,0V13.8z"/>
		<path class="st6" d="M188.2,30.9c-0.1,0-0.2,0-0.3,0c-0.3,0.1-0.6,0.3-0.9,0.5c-0.2,0.2,0,0.5,0.2,0.4c0.2,0,0.4-0.1,0.6-0.2
			l0.3-0.1c0.1-0.1,0.2-0.1,0.3-0.2C188.4,31.1,188.3,30.9,188.2,30.9L188.2,30.9z"/>
		<path class="st6" d="M188.1,13.3c-0.1,0-0.1-0.1-0.2-0.1l-0.3-0.1c-0.2-0.1-0.4-0.1-0.6-0.2c-0.1,0-0.1,0.1-0.1,0.2
			c0.1,0.1,0.3,0.2,0.5,0.3l0.3,0.1c0,0,0.1,0,0.1,0c0,0,0.1,0,0.1,0C188.2,13.5,188.2,13.4,188.1,13.3L188.1,13.3z"/>
		<path class="st6" d="M185.7,12.8L185.7,12.8c0,0,0.1,0,0.1-0.1c0,0,0-0.1,0-0.1c0-0.1-0.1-0.2-0.1-0.2c0,0,0,0,0,0h-0.1h-0.1
			c0,0,0,0.1,0,0.1c0,0,0,0,0,0.1c0,0,0.1,0.1,0.1,0.1C185.6,12.7,185.6,12.7,185.7,12.8L185.7,12.8c0-0.1,0.1-0.1,0.1-0.2
			c0,0,0,0,0,0c0,0,0-0.1,0-0.1c0,0-0.1,0-0.1,0l0,0c-0.1,0-0.2,0.1-0.2,0.1c0,0,0,0,0,0C185.6,12.6,185.6,12.7,185.7,12.8
			L185.7,12.8L185.7,12.8z"/>
		<path class="st10" d="M187,39.8c-0.2-0.2-0.5-0.4-0.8-0.4c-2.4-0.2-4.9-0.3-7.4-0.4s-4.9,0-7.4,0.1c-0.3,0-0.6,0.1-0.8,0.4
			c-0.1,0.1-0.2,0.3-0.2,0.5l0.6,10c0.7-0.3,1.5-0.4,2.2-0.4c1,0.1,2,0.6,2.6,1.4c0.8,1,0.9,2.5,0.3,4.2c-0.9,2.2-2.3,4.2-4,5.8
			c-0.1,0.2-0.3,0.3-0.5,0.5l0.1,1.2c0,0.4,0.4,0.8,0.8,0.7c1.9-0.1,3.9-0.1,5.8-0.1s3.9,0.1,5.8,0.3h0.1l0.3-0.1l0,0
			c0.2-0.1,0.3-0.3,0.3-0.6l0.1-1.2l-0.5-0.5c-1.7-1.7-2.9-3.8-3.8-6c-0.6-1.8-0.4-3.2,0.4-4.2c0.7-0.8,1.6-1.3,2.6-1.3
			c0.6,0,1.1,0.1,1.7,0.3c0.1-0.1,0.2-0.1,0.4-0.1l0,0l0.2-0.2l0,0v-0.1l0.7-7.6l-0.6,0.6l0,0l0.6-0.6l0.2-1.7
			C187.1,40.1,187,40,187,39.8z M181,46.8c0,1.3-0.2,2.6-0.7,3.8c-0.4,1.1-1,1.7-1.7,1.7s-1.2-0.6-1.6-1.8c-0.8-2.5-0.7-5.2,0.1-7.7
			c0.4-1.1,1-1.7,1.7-1.7s1.2,0.6,1.6,1.8C180.8,44.1,181,45.4,181,46.8L181,46.8z"/>
		<path class="st6" d="M180.4,42.9c-0.4-1.1-1-1.8-1.6-1.8s-1.3,0.6-1.7,1.7c-0.8,2.5-0.9,5.2-0.1,7.7c0.4,1.1,1,1.8,1.6,1.8
			s1.3-0.6,1.7-1.7C181.1,48.1,181.2,45.4,180.4,42.9z M177.7,48.8c0-0.5,0.4-0.9,0.9-0.9c0.5,0,0.9,0.4,0.9,0.9
			c0,0.5-0.4,0.9-0.9,0.9C178.1,49.7,177.7,49.3,177.7,48.8C177.7,48.8,177.7,48.8,177.7,48.8z M178.7,46.9
			c-0.8-0.1-1.5-0.8-1.4-1.7c0.1-0.8,0.7-1.3,1.4-1.4c0.8-0.1,1.6,0.6,1.6,1.4c0.1,0.8-0.6,1.6-1.4,1.6
			C178.8,46.9,178.7,46.9,178.7,46.9z"/>
		<path class="st6" d="M186.5,40.5c0-0.1,0-0.1,0-0.2c-0.2-0.4-0.7-0.4-1-0.4s-0.4,0-0.6,0s-0.7,0-1,0c-0.3,0-0.6,0.1-0.9,0.1
			c-0.4,0-0.8,0-1.2,0c-0.4,0-0.7,0-1.1-0.1c-0.3-0.1-0.6,0-0.9-0.1c-0.1,0-0.2,0.1-0.1,0.1c0.2,0.1,0.3,0.1,0.5,0.1
			c0.3,0,0.6,0.1,0.8,0.1c0.7,0.1,1.4,0,2.1,0.1c0.4,0,0.9,0.2,1.3,0.2l0,0c0.2,0.1,0.4,0.2,0.6,0.3l0,0l0,0c0,0,0,0.1,0.1,0.1
			c0.3,0.3,0.3,0.9,0.4,1.3c0.1,0.6,0.2,1.2,0.2,1.8c0,0.6-0.1,1.2-0.1,1.9c0,0.3,0,0.7,0,1s0,0.7,0,1c0,0.1,0.2,0.1,0.2,0
			c0-0.6,0.1-1.3,0.1-1.9s0.1-1.3,0.1-2c0-0.7,0.1-1.3,0.3-2C186.5,41.5,186.5,41,186.5,40.5z"/>
		<path class="st6" d="M184.7,62.2c-0.1,0.2-0.1,0.6-0.2,0.8c-0.2,0.4-0.6,0.7-1,0.7c-0.9,0.1-1.8,0.3-2.8,0.3c0,0-0.1,0-0.1,0.1
			c0,0,0,0.1,0.1,0.1c0.6,0,1.1,0,1.7,0h0.8c0.3,0,0.5,0,0.8,0c0.4-0.1,0.8-0.4,0.9-0.8c0.2-0.4,0.2-0.8,0.1-1.2
			c0-0.1-0.2-0.2-0.3-0.1C184.8,62.1,184.8,62.1,184.7,62.2z"/>
		<path class="st6" d="M177.8,40c0.1,0,0.2-0.1,0.3-0.1s0.1-0.2,0-0.2l0,0c0,0-0.1-0.1-0.1-0.1c0,0,0,0,0,0h-0.1h-0.1
			c-0.1,0-0.3,0-0.4,0c0,0-0.1,0-0.1,0.1h-0.2c-0.3,0-0.7,0.1-1,0.1c-0.4,0-0.8,0-1.2,0c-0.3,0-0.7-0.1-1-0.1s-0.7,0-1,0
			s-0.4,0-0.6,0c-0.4,0-0.9,0-1.1,0.4c0,0.1,0,0.1,0,0.2c0,0.5,0,1,0.1,1.5c0.1,0.7,0.2,1.3,0.3,2c0.1,1.3,0.3,2.7,0.3,4
			c0,0,0.1,0.1,0.1,0.1c0,0,0,0,0.1-0.1c0-0.6-0.1-1.3,0-1.9c0.1-0.7,0.1-1.3,0-2l0,0c0-0.6,0.1-1.2,0.2-1.8
			c0.1-0.4,0.1-1.1,0.4-1.3c0,0,0.1-0.1,0.1-0.1l0,0l0,0c0,0.1,0,0,0,0c0.2-0.1,0.4-0.2,0.6-0.3c0,0,0,0,0.1,0h0.1
			c0.4,0,0.7-0.1,1.1-0.2c0.7-0.1,1.4,0,2.1-0.1c0.3,0,0.5-0.1,0.8-0.1C177.6,40,177.7,40,177.8,40z"/>
		<path class="st6" d="M178.3,44.2c0,0-0.1,0-0.1,0c-0.1,0-0.2,0-0.2,0.1l0,0l0,0c-0.1,0.1-0.1,0.2-0.1,0.4c0,0.2-0.2,0.4-0.1,0.6
			s0.2,0.8,0.6,0.9c0.1,0,0.1-0.1,0.1-0.1c0,0,0,0,0,0c0-0.1,0.1-0.2,0-0.3c-0.1-0.2-0.2-0.4-0.2-0.6c0-0.1,0.1-0.1,0.1-0.2
			s-0.1-0.3,0-0.4c0,0,0.1-0.1,0.1-0.1c0,0,0-0.1,0-0.1C178.4,44.4,178.4,44.2,178.3,44.2z"/>
	</g>
</g>
</svg>
