<svg xmlns="http://www.w3.org/2000/svg" viewBox="0 0 258.03 138.86"><defs><style>.cls-1{fill:#2c2c2c;}.cls-2{fill:#171724;}.cls-3{fill:#c74848;}.cls-4{fill:#993a3a;}.cls-5{fill:#bcbec0;}.cls-6{fill:#e09090;}.cls-7{fill:#fff;}.cls-8{fill:#231f2d;}.cls-9{fill:#d85050;}.cls-10{fill:#a0a0a0;stroke:#606060;stroke-miterlimit:10;}.cls-11{fill:#171723;}.cls-12{fill:#aeb5bf;}</style></defs><title>rocket</title><g id="Layer_2" data-name="Layer 2"><g id="Layer_1-2" data-name="Layer 1"><polygon class="cls-1" points="101.39 94.28 100.18 80.2 104.37 82.39 105.19 91.9 101.39 94.28"/><path class="cls-2" d="M104.72,81.73l-4.19-2.2-1.22-.63.12,1.37,1.21,14.07.11,1.23,1-.66,3.8-2.37.39-.25,0-.45-.82-9.51,0-.41Zm.47,10.17-3.8,2.38L100.18,80.2l4.19,2.19Z"/><path class="cls-3" d="M130.1,83.2c-2.6-3.24-10.36-10.5-25-5.59A2.37,2.37,0,0,0,103.63,80l1.2,14a2.36,2.36,0,0,0,1.88,2c15.23,2.34,21.64-6.14,23.65-9.77A3,3,0,0,0,130.1,83.2Z"/><path class="cls-4" d="M114.17,91.64a2.65,2.65,0,0,1-.84.2.66.66,0,0,0-.36-.16.7.7,0,0,0-.25,0h0a2.46,2.46,0,0,0-1.18-.21h0a1.57,1.57,0,0,0-.86-.08h-.41c-.92,0-1.84,0-2.75,0s-1.82-.06-2.74-.07q-.33,0-.66,0a9.05,9.05,0,0,1,.46,2.92l.31.59a2.32,2.32,0,0,1,.21.61h.09a12.32,12.32,0,0,0,1.72-.12,18.37,18.37,0,0,0,2.44-.45c.51-.14,1-.3,1.52-.46l.57-.2a1.59,1.59,0,0,0,.53-.33,2.31,2.31,0,0,0,1.15-1,1.16,1.16,0,0,0,.24-.2.57.57,0,0,0,.16-.39c.21-.22.48-.4.69-.61C114.23,91.67,114.2,91.62,114.17,91.64Z"/><path class="cls-2" d="M130.69,82.73a19.9,19.9,0,0,0-6.15-5.09,21.63,21.63,0,0,0-12.24-2.35,32.38,32.38,0,0,0-7.42,1.61,3.09,3.09,0,0,0-2,3.12l1.2,14a3.11,3.11,0,0,0,2.51,2.73,32.28,32.28,0,0,0,7.59.31,21.5,21.5,0,0,0,11.65-4.41A20,20,0,0,0,131,86.57,3.74,3.74,0,0,0,130.69,82.73Zm-.33,3.48c-1.65,3-6.25,9.21-16.25,10.08a30.65,30.65,0,0,1-7.4-.31,2.36,2.36,0,0,1-1.88-2l-1.2-14a2.37,2.37,0,0,1,1.49-2.34,31,31,0,0,1,7.25-1.56c10-.87,15.6,4.49,17.73,7.15A3,3,0,0,1,130.36,86.21Z"/><path class="cls-2" d="M108.27,123l-4.19-2.19-1.21-.64.11,1.37,1.22,14.08.1,1.22,1-.65,3.79-2.38.39-.24,0-.46-.81-9.51,0-.41Zm.47,10.17L105,135.51l-1.22-14.07,4.2,2.19Z"/><polygon class="cls-1" points="104.95 135.51 103.73 121.44 107.92 123.63 108.75 133.13 104.95 135.51"/><path class="cls-3" d="M133.66,124.43c-2.61-3.24-10.37-10.5-25-5.59a2.39,2.39,0,0,0-1.5,2.35l1.2,14a2.39,2.39,0,0,0,1.88,2.05c15.24,2.34,21.65-6.14,23.65-9.78A3,3,0,0,0,133.66,124.43Z"/><path class="cls-5" d="M110.14,133.38l-.25.06.24-.05Z"/><path class="cls-4" d="M131.38,128.51c-.17.09-.36.09-.53.18s-.35.17-.52.27a12,12,0,0,1-1.14.55l-.42.17-.21,0a1.81,1.81,0,0,0-.52.2c-.39.2-.8.39-1.21.57s-.77.33-1.16.47c-.2.08-.4.14-.6.21l-.12,0-.28.08-.22.07-.08,0-.31.09-.62.16-1.36.35a38.72,38.72,0,0,1-5.46.84c-.88.09-1.77.15-2.65.18l-.76,0-.65,0h-.21a9.34,9.34,0,0,0-1.18.07,4.71,4.71,0,0,0-.52.09l-.51.16h0l-.21,0-.53.16a1.1,1.1,0,0,0-.41.26l-.15,0-.16.09s-.26.11-.11.08a4.46,4.46,0,0,0-.48.09,2.33,2.33,0,0,1,.16.91,2.2,2.2,0,0,1,.15.72h0l.21.16.28.15a3.82,3.82,0,0,0,1.24.63,5.1,5.1,0,0,0,1.73.37c1.06,0,2.11,0,3.17-.07.91-.06,1.83-.16,2.74-.28a23.06,23.06,0,0,0,2.72-.57,27.23,27.23,0,0,0,5.48-1.86,26,26,0,0,0,2.52-1.44c.35-.21.68-.45,1-.69a1.79,1.79,0,0,0,.4-.38l.14-.25c.16-.16.31-.33.46-.5.27-.32.54-.64.8-1a5.14,5.14,0,0,0,.32-.49,5.24,5.24,0,0,0,.27-.65C132,128.68,131.66,128.39,131.38,128.51Zm-22.09,5.25-.07,0,0,0C109.42,133.72,109.44,133.72,109.29,133.76Z"/><path class="cls-5" d="M112.35,133.06Z"/><path class="cls-5" d="M114.07,133c.32,0,.14,0,0,0Z"/><path class="cls-2" d="M134.24,124a20.19,20.19,0,0,0-6.15-5.09,21.53,21.53,0,0,0-12.23-2.34,31.71,31.71,0,0,0-7.42,1.6,3.11,3.11,0,0,0-2,3.12l1.2,14a3.11,3.11,0,0,0,2.52,2.73,31.66,31.66,0,0,0,7.58.31,21.6,21.6,0,0,0,11.66-4.4,20,20,0,0,0,5.18-6.07A3.72,3.72,0,0,0,134.24,124Zm-.33,3.48c-1.64,3-6.24,9.22-16.25,10.08a31.16,31.16,0,0,1-7.4-.3,2.39,2.39,0,0,1-1.88-2.05l-1.2-14a2.39,2.39,0,0,1,1.5-2.35,31.32,31.32,0,0,1,7.24-1.56c10-.86,15.6,4.5,17.74,7.15A3,3,0,0,1,133.91,127.44Z"/><path class="cls-6" d="M141.83,127.1l-.34,0,0,.3-14.27-2.13,0-.12-.06.25-5.24-1.21-12.48-6.67L107.21,99l9.87-9.14h.43l3.2-1.76,1-.17,14.31-6.09,0-.52.17.53,6.43-2.35c-.08.47-.16.95-.23,1.43a96,96,0,0,0,5.2,46.9Z"/><path class="cls-3" d="M223.36,116.57a96.37,96.37,0,0,0-6-43.85s38,7,39.35,17.68C258,100.92,223.36,116.57,223.36,116.57Z"/><path class="cls-6" d="M223.36,116.57l-.08.06-1.94.45-.17,0L178.55,126,150,127.52l-.32,0-1.82.29-.18,0a96,96,0,0,1-5.2-46.9c.07-.48.15-1,.23-1.43l.16-.06,1.93-.55.15,0L172.32,74l42.75-1.33h2.21l.08,0a96.37,96.37,0,0,1,6,43.85Z"/><polygon class="cls-7" points="107.93 115.77 107.93 115.77 107.92 115.75 104.32 108.67 106.11 100.58 106.13 100.47 107.94 115.6 107.98 115.86 107.93 115.77"/><path d="M108,115.86l0-.26-1.81-15.13,0,.11-1.79,8.09,3.6,7.08v0h0Z"/><path class="cls-8" d="M258,90.24a8.07,8.07,0,0,0-2.42-4.56A21.67,21.67,0,0,0,250.65,82a71.77,71.77,0,0,0-13.71-5.69,179.94,179.94,0,0,0-19.2-4.84l-.19-.08H215l-42.75,1.33h-.09l-.1,0-27.38,4.83-.07,0h-.06l-.16,0-1.92.55h-.09l-.16.06-5.18,1.9-2.26.79L120.5,86.84l-.41.15-3.88,1.93-9.87,9.15-.48.44.08.65.17,1.42,1.81,15.15v0h0l.23,2,.08.66.59.32,12.48,6.66.15.08.17,0,6.54,1.27,14.5,1.75,4.83.61.18,0,.18,0,.17,0,1.83-.29.25,0,28.51-1.53h.09l.1,0,42.62-8.86h0l.17,0,1.94-.45.28-.07.18-.14a179.42,179.42,0,0,0,17.16-9.15,70.77,70.77,0,0,0,11.74-8.67,23.08,23.08,0,0,0,3.45-4c.14-.2.26-.41.38-.62A8,8,0,0,0,258,90.24Zm-34.63,26.33-.08.06-1.94.45-.17,0L178.55,126,150,127.52l-.32,0-1.82.29-.18,0-5.83-.74-.34,0-14.27-2-5.3-1-12.48-6.67-.65-5.39L107.21,99l9.87-9.14,4.67-1.93,14.31-6.09,6.63-2.34.16-.06,1.93-.55.15,0L172.32,74l42.75-1.33h2.21l.08,0s38,7,39.35,17.68a4.65,4.65,0,0,1,0,1.29C255.28,102.15,223.36,116.57,223.36,116.57Z"/><path class="cls-9" d="M141.83,127.1l-.34,0-14.27-2-5.3-1-12.48-6.67-.65-5.39,11.74,2.32s9.47,1,23.54,1.54a90.22,90.22,0,0,0,3.59,11.81Z"/><path class="cls-9" d="M221.34,117.08l-.17,0L178.55,126,150,127.52l-.32,0a88.25,88.25,0,0,1-3.57-11.47c21,.69,51.19.21,75.73-6Q221.72,113.66,221.34,117.08Z"/><path class="cls-4" d="M256.7,91.69c-1.42,10.46-33.34,24.88-33.34,24.88q.34-3.46.43-7C237.68,105.83,249.59,100.16,256.7,91.69Z"/><path class="cls-8" d="M223.79,109.58a96.61,96.61,0,0,0-.68-13.74,93.48,93.48,0,0,0-5.75-23.12l-.08,0h-2a91.46,91.46,0,0,1,5.94,23.39,93.94,93.94,0,0,1,.64,14q-.1,3.57-.48,7l1.94-.45.08-.06Q223.71,113.11,223.79,109.58Zm-77.7,6.52a94.44,94.44,0,0,1-1.92-10.79,90,90,0,0,1,.61-26.41l-1.93.55-.16.06c-.08.47-.16.95-.23,1.43a93.17,93.17,0,0,0-.23,24.6A96.93,96.93,0,0,0,144.07,116a90.22,90.22,0,0,0,3.59,11.81l.18,0,1.82-.29A88.25,88.25,0,0,1,146.09,116.1Z"/><path class="cls-10" d="M19.27,117.26a.78.78,0,0,1,.18-.11l-.23,0C19.1,117.22,19.21,117.32,19.27,117.26Z"/><path class="cls-10" d="M19.81,117a2.46,2.46,0,0,0-.36.14Z"/><path class="cls-10" d="M41.52,109.06c.15-.06.21-.12,0,0Z"/><path class="cls-10" d="M41.82,111.48h0Z"/><path class="cls-10" d="M40.76,120.46c.22,0,.44,0,.65-.07A4.78,4.78,0,0,0,40.76,120.46Z"/><path class="cls-10" d="M40.44,120.53l.32-.07h-.33C40.33,120.45,40.35,120.56,40.44,120.53Z"/><path class="cls-10" d="M42.19,120.23c-.21,0-.42,0-.62,0Z"/><path class="cls-10" d="M41.12,120.29a3.44,3.44,0,0,1,.45-.05,3.15,3.15,0,0,1-.44,0C41,120.2,41,120.3,41.12,120.29Z"/><path class="cls-10" d="M85.17,115.42v.11l.29-.14Z"/><path class="cls-10" d="M85.5,115.16l0,.2a4.23,4.23,0,0,0,.42-.25l-.42,0Z"/><path class="cls-10" d="M84.69,104.33c-.63-.1-.83-.14-1.5-.22l-.11,0a.68.68,0,0,1,0,.14q0,.39.09.72c.43,0,.86-.08,1.28-.1A1.66,1.66,0,0,0,84.69,104.33Z"/><path class="cls-10" d="M84.88,108.47a1.14,1.14,0,0,0,0-.66c-.34,0-.68,0-1-.07l-.28,0a7.71,7.71,0,0,0,.48,1.4c.43-.14.85-.29,1.27-.45A2.68,2.68,0,0,0,84.88,108.47Z"/><path class="cls-10" d="M84.71,111.53a4.88,4.88,0,0,0,.12.55l.4-.09.24-.17c.12-.1.23-.21.34-.32l-.61,0Z"/><path class="cls-10" d="M83.38,106.53l0,.28.37-.12Z"/><path class="cls-10" d="M86.36,109.79c-.34,0-.71-.07-1.06-.08h-1c.08.17.16.35.25.53a3.08,3.08,0,0,1,.16.28l1.7-.43A2.93,2.93,0,0,0,86.36,109.79Z"/><path class="cls-10" d="M76.41,118l.45,0,.71-.23a5.26,5.26,0,0,0,1.54-.6l.12-.07h.13a22.32,22.32,0,0,0,3.06-.72,26.75,26.75,0,0,1-4,.36l-3.94.47-1.43.17h0l1.43-.17,3.94-.47a26.75,26.75,0,0,0,4-.36l.11,0-.31,0,.94-.19c.27-.06.54-.12.8-.2a8,8,0,0,0,1.22-.43v-.11l.3,0,0,0,0-.2,0,0-.51,0c-1,0-2.08.15-3.12.19a17.27,17.27,0,0,0-2.87.23s-.06,0,0,0a20.1,20.1,0,0,0,3.09-.5c.94-.19,1.89-.33,2.84-.51l.55-.1a8.18,8.18,0,0,1-1,0,3.81,3.81,0,0,1-.59,0h0a.08.08,0,0,0,0,0c0,.1-.28.14-.32,0s-.11-.17,0-.14a.26.26,0,0,1-.16-.12.18.18,0,0,1,0-.16c-.3,0-.61-.11-.91-.12-.65,0-1.3.07-2,.06a18.59,18.59,0,0,0-2.11,0c-.32,0-.63,0-1,.06a6.14,6.14,0,0,0-1,0c-.06,0-.06,0,0,0a8.82,8.82,0,0,0,1.24-.26c.24-.05.48-.09.73-.12.72-.11,1.35-.32,2.05-.48.36-.09.71-.17,1.07-.24a6,6,0,0,0,.84-.17c.3-.12.59-.25.89-.36a7.24,7.24,0,0,1,1-.19l.63-.12a4.88,4.88,0,0,1-.12-.55,18.12,18.12,0,0,1-1.95,0,3.35,3.35,0,0,1-.91-.09l-.18-.14c-.07,0-.09-.06,0,0s.1,0,.17.07c.24.06,1-.33,1.29-.4l1.59-.42a3.08,3.08,0,0,0-.16-.28c-.09-.18-.17-.36-.25-.53l-1,0-.93-.12a1.2,1.2,0,0,1-.52-.06h-.14c-.07,0,0-.08,0,0l.1,0a4.35,4.35,0,0,1,.52.06,7.52,7.52,0,0,0,1.46-.34l.25-.09a7.71,7.71,0,0,1-.48-1.4,1.83,1.83,0,0,1-1-.3c-.19-.18.28-.4.9-.6l0-.28-.24-.07a6.6,6.6,0,0,0-.73-.13c-1.77.18-3.52.19-5.28.21-1,0-2-.15-3.06-.12h-.15s0,0,0,0l-.32.06c-.06,0-.07,0,0,0h.33l.12,0h0c.36-.09.69-.2,1-.27a14.51,14.51,0,0,1,2.08-.21,18.79,18.79,0,0,0,2.79-.42c1-.2,1.88-.35,2.85-.47l.36,0q0-.33-.09-.72a.68.68,0,0,0,0-.14,10,10,0,0,0-1.37-.14c-.59,0-1.19,0-1.78.06a13.35,13.35,0,0,1-2.1,0c-.31,0-.63-.1-.94-.16a1.71,1.71,0,0,1-.57-.08h-.19c-.07,0,0-.08,0,0l.15.06.57.08a7.27,7.27,0,0,0,1.68-.29c.67-.16,1.33-.34,2-.52s1.31-.33,2-.44a1.33,1.33,0,0,0-.4-.29,1.33,1.33,0,0,1,.4.29c.3,0,.62-.1.94-.13a3.6,3.6,0,0,0-1.16-.26l-.11,0a2.64,2.64,0,0,0,.49-.29l-.09-.09-.61,0c-1.21-.06-2.45-.07-3.65-.17q-.5,0-1-.12c-.43,0-.86,0-1.29,0s-.9,0-1.33-.1h-.08l-.12,0-.51.07a7.93,7.93,0,0,1-3.52.06c-.27.08-.54.16-.8.22s-.87.08-1.28.15l-1.22.16c-.67.07-1.34.15-2,.24-.46,0-.93.1-1.39.13-1,.08-2,.18-3,.35-.46.08-1,.2-1.47.34s-1.17.11-1.77.21-1.43.39-2.15.56c-.4.1-.78.24-1.18.35h0a0,0,0,0,0,0,0h0c.38,0,.75,0,1.13,0,.71,0,1.4.07,2.1.07.43,0,.84,0,1.26,0a7.35,7.35,0,0,1,1.14.2,27.49,27.49,0,0,1-2.73.55,50.79,50.79,0,0,0-5.41,1.31c-.65,0-1.31-.07-2-.06a16,16,0,0,0-3.3.45,12.14,12.14,0,0,0-2.38.93c-.67.31-1.32.63-2,1-.16.08-1.26.71-.67.36l0,0-.08,0a4,4,0,0,0-.44.12c-1,.2-2,.38-3,.62a23.6,23.6,0,0,1-2.34.6c-.87.12-1.75.18-2.62.26s-1.6.16-2.4.26a5.78,5.78,0,0,0-1.17.32c-.4.13-.86.2-1.28.3,0,0,0,0,0,0a15.38,15.38,0,0,1,2.16.13,9.39,9.39,0,0,0,1.05,0l1.09,0,2.19-.11,1.11-.07a7.69,7.69,0,0,1,1.07.07c1.51.07,3.14-.08,4.59-.06h.34s1.26,0,.46,0c.34,0,.64,0,.94,0l-.47.17a24.78,24.78,0,0,0-2.42.93h0l-.46.15-1,.29c-1.29.33-2.55.69-3.85,1-.41.1-1.12.2-1.69.3l-2.25.41c-1.9.37-4.13.64-6.2,1a28.78,28.78,0,0,0-3.09.68c-.44.13-.86.27-1.27.42l-.64.27c.29-.08.61-.14.82-.18.45-.08.91-.13,1.37-.17,1-.1,2.06-.13,3.09-.18,2-.08,4,0,6-.12,1.24,0,2.48-.1,3.72-.13s2.5.07,3.76,0c.82,0,1.64-.08,2.47-.14.18,0,1.2-.07.28,0l.58,0h-.08c-.81.14-1.26.28-2,.42l-2.14.4c-1.38.26-2.73.59-4.09.9s-2.61.86-4,1.23c0,0,0,0,0,0a30.14,30.14,0,0,0,3.91-.11c.72-.08,1.41-.21,2.14-.25s1.35,0,2,0l1.91,0c.7,0,1.39,0,2.09,0,1.48,0,3-.19,4.45-.37.56-.06,1.11-.14,1.67-.23l.85-.15c-.29,0-.3,0,0,0s.7,0,1,0a9.18,9.18,0,0,0,1.84-.35c1.94,0,3.88,0,5.81,0h1.41l-.57.22-.54.19c-.23.09-.45.24-.68.32l-.38.12-.36.09a20.85,20.85,0,0,1-2.35.49c-.83.11-1.66.2-2.49.29s-1.47.19-2.21.29-1.77.15-2.65.24l-1.9.23-.73.06c-.52,0-1.11.11-1.68.15h.5l-.63.06-.65.09.45,0,1.24-.11.52,0c.83,0,1.66,0,2.5,0,1.63,0,3.25,0,4.89-.06.83,0,1.67-.1,2.51-.15s1.6,0,2.43,0a19,19,0,0,0,2.61,0,17.7,17.7,0,0,1,2.28-.2,44.44,44.44,0,0,0,5.24-.44c1.68-.15,3.35-.33,5-.54s3.38-.43,5.06-.69a6.78,6.78,0,0,0,.68-.15l-.43.08C76.35,118.05,76.35,118,76.41,118Z"/><path class="cls-10" d="M6,114.62c.34,0,.71-.09,1-.12A7,7,0,0,0,6,114.62Z"/><path class="cls-10" d="M5.63,114.69l.32-.07H5.62C5.52,114.62,5.54,114.72,5.63,114.69Z"/><path class="cls-10" d="M15.39,113.52c.76,0,1.52,0,2.3,0s1.34-.15,2-.23a2.39,2.39,0,0,0,1.65-.57.18.18,0,0,0,0-.26,2.14,2.14,0,0,0-1.55-.19l-2,.24a15.22,15.22,0,0,0-2,.42,17.09,17.09,0,0,1-2.16.37,9.15,9.15,0,0,0-1.74.39c-.57.18-1.12.38-1.71.52a8.86,8.86,0,0,1-1,.12c-.35,0-.69.09-1,.12s-.67,0-1,.08H7l.89,0c.71,0,1.33.17,2,.07,1.22-.17,2.29-.69,3.53-.82A18.17,18.17,0,0,1,15.39,113.52Z"/><path class="cls-10" d="M.58,124a2,2,0,0,1,.35-.07H.57C.47,123.92.48,124,.58,124Z"/><path class="cls-10" d="M.93,123.93c.24,0,.49,0,.74-.07A6,6,0,0,0,.93,123.93Z"/><path class="cls-10" d="M18.32,122.48c.87-.1,1.75-.17,2.62-.28a5.83,5.83,0,0,0,2.34-.77c.29-.18.08-.47-.3-.36a16.2,16.2,0,0,1-2.51.4c-.82.08-1.64.12-2.46.22-1.92.24-3.84.51-5.76.77s-3.83,1-5.83,1.18c-.94.07-1.88.08-2.81.11l-1.28,0-.66.06h.44c.57,0,1.13,0,1.69,0,.88,0,1.75,0,2.63-.06l3-.13c1-.06,2-.41,3.06-.52Z"/><path class="cls-10" d="M40.37,123.31a8.65,8.65,0,0,0,1.1-.13A9.73,9.73,0,0,0,40.37,123.31Z"/><path class="cls-10" d="M40.06,123.39l.31-.08h-.32C40,123.31,40,123.41,40.06,123.39Z"/><path class="cls-10" d="M51.44,122.12a7.44,7.44,0,0,0,1.05-.09c.67-.09,1.36-.14,2-.28s1.34-.33,2-.49c.17,0,.15-.22,0-.22-.62,0-1.23,0-1.85,0s-1.35.15-2,.24l-.9.14c-.39.07-.73.25-1.12.31l-2,.33-4.07.65-2,.3c-.32,0-.66.11-1,.17l.79-.07,2-.24,4.32-.52,2-.24A4.06,4.06,0,0,1,51.44,122.12Z"/><path class="cls-10" d="M42.32,105.71s0,0,.07,0l-.08,0C42.18,105.59,42.21,105.8,42.32,105.71Z"/><path class="cls-10" d="M42.39,105.67a2.6,2.6,0,0,0,.59,0A2.65,2.65,0,0,0,42.39,105.67Z"/><path class="cls-10" d="M51,104.5c.14-.12-.07-.23-.24-.16a8.43,8.43,0,0,1-1.68.42c-.81.15-1.61.3-2.43.41s-1.56.24-2.35.31l-1,.1-.27,0h.16l1.14-.07c.9-.06,1.78-.06,2.68-.13C48.2,105.32,50.1,105.25,51,104.5Z"/><path class="cls-10" d="M62.24,91.74a.36.36,0,0,1,.09-.08.27.27,0,0,1-.12,0C62.15,91.7,62.21,91.79,62.24,91.74Z"/><path class="cls-10" d="M62.51,91.57a.51.51,0,0,0-.18.09Z"/><path class="cls-10" d="M73.36,86c.07,0,.1-.08,0,0Z"/><path class="cls-10" d="M73.59,87.9h0Z"/><path class="cls-10" d="M73.37,95.06a1.84,1.84,0,0,0,.33,0A1.76,1.76,0,0,0,73.37,95.06Z"/><path class="cls-10" d="M73.21,95.11l.16,0H73.2S73.16,95.13,73.21,95.11Z"/><path class="cls-10" d="M74.09,94.93a1.63,1.63,0,0,0-.31,0Z"/><path class="cls-10" d="M73.54,94.94a1,1,0,0,1,.24,0l-.23,0A0,0,0,1,0,73.54,94.94Z"/><path class="cls-10" d="M96,92.59v.08a.71.71,0,0,0,.14-.1Z"/><path class="cls-10" d="M96.11,92.39l0,.16.21-.19h-.22Z"/><path class="cls-10" d="M95.32,83.68c-.33-.11-.43-.14-.78-.23l-.06,0s0,.08,0,.11c0,.21,0,.41.07.59a4.73,4.73,0,0,1,.65,0A1.89,1.89,0,0,0,95.32,83.68Z"/><path class="cls-10" d="M95.56,87a1.56,1.56,0,0,0,0-.53l-.54-.1-.14,0a8.68,8.68,0,0,0,.3,1.14l.63-.32A1.12,1.12,0,0,0,95.56,87Z"/><path class="cls-10" d="M95.58,89.45c0,.15,0,.3.08.44l.2,0,.12-.13a2.13,2.13,0,0,0,.16-.25h-.56Z"/><path class="cls-10" d="M94.72,85.4l0,.22.18-.08Z"/><path class="cls-10" d="M96.36,88.12a3.23,3.23,0,0,0-.54-.11l-.52,0,.15.44c0,.09.07.16.09.22l.86-.28A1.57,1.57,0,0,0,96.36,88.12Z"/><path class="cls-10" d="M91.55,94.34h.23l.36-.16a2,2,0,0,0,.77-.43l.06,0H93a6.83,6.83,0,0,0,1.54-.46,9.32,9.32,0,0,1-2,.15l-2,.24-.73.08h0l.73-.08,2-.24a9.32,9.32,0,0,0,2-.15l.06,0-.16,0,.47-.12.41-.13a2.92,2.92,0,0,0,.61-.31v-.08l.15,0,0,0,0-.16v0h-.26c-.53,0-1.06,0-1.59,0a6.06,6.06,0,0,0-1.47.09s0-.05,0-.05a6,6,0,0,0,1.56-.29c.48-.12,1-.2,1.44-.3a2.8,2.8,0,0,1,.28-.06,4.43,4.43,0,0,1-.51-.06,1,1,0,0,1-.3,0h0v0c0,.08-.14.1-.16,0s-.06-.14,0-.11a.18.18,0,0,1-.09-.1.29.29,0,0,1,0-.13c-.16,0-.32-.11-.47-.13-.33,0-.67,0-1,0a6.52,6.52,0,0,0-1.08-.06l-.49,0a1.88,1.88,0,0,0-.53,0s0,0,0,0A2.33,2.33,0,0,0,92,91l.37-.07a7.66,7.66,0,0,0,1-.32l.54-.15a2.07,2.07,0,0,0,.43-.1l.44-.26a2,2,0,0,1,.49-.12l.32-.08c0-.14-.06-.29-.08-.44a4.72,4.72,0,0,1-1-.07,1.28,1.28,0,0,1-.47-.1,1.27,1.27,0,0,0-.1-.12s0,0,0,0,0,0,.09.06.51-.23.64-.28l.8-.28c0-.06-.05-.13-.09-.22L95.3,88l-.54-.07c-.15,0-.31-.08-.48-.13a.44.44,0,0,1-.26-.06h-.08s0-.07,0,0l.06,0a2.44,2.44,0,0,1,.26.06,2.31,2.31,0,0,0,.74-.22l.13-.06a8.68,8.68,0,0,1-.3-1.14.84.84,0,0,1-.55-.28c-.1-.15.14-.31.45-.45l0-.22-.13-.07-.37-.12a20.26,20.26,0,0,1-2.7,0c-.53,0-1-.18-1.58-.2h-.07a0,0,0,0,1,0,0l-.16,0s0,0,0,0h.17s0,0,0,0l0,0h0c.18,0,.35-.13.53-.18a4.15,4.15,0,0,1,1-.09,6.11,6.11,0,0,0,1.42-.24,11.81,11.81,0,0,1,1.44-.28l.19,0c0-.18,0-.38-.07-.59,0,0,0-.07,0-.11a4,4,0,0,0-.71-.16c-.3,0-.6,0-.9,0a3.88,3.88,0,0,1-1.08-.09c-.16,0-.33-.11-.49-.16a.66.66,0,0,1-.29-.08l-.1,0s0-.06,0,0l.08.06.29.08a2.34,2.34,0,0,0,.85-.18c.34-.1.67-.22,1-.34a7.4,7.4,0,0,1,1-.29,1,1,0,0,0-.21-.24,1,1,0,0,1,.21.24l.48-.07a1.43,1.43,0,0,0-.6-.24l-.06,0a1.7,1.7,0,0,0,.24-.22l0-.08-.31,0c-.63-.1-1.26-.14-1.88-.27a4.07,4.07,0,0,1-.5-.13,4.86,4.86,0,0,1-.66,0,5.09,5.09,0,0,1-.68-.12l0,0L90,81l-.25,0A2.73,2.73,0,0,1,88,80.93l-.4.15a4.46,4.46,0,0,1-.65.07c-.2,0-.41.06-.62.09s-.68.07-1,.12l-.71.06a9.81,9.81,0,0,0-1.53.17,4.71,4.71,0,0,0-.74.22c-.3,0-.6,0-.9.11a8.6,8.6,0,0,0-1.08.37c-.2.07-.39.17-.6.24h0c.19,0,.38.07.58.08.36,0,.72.11,1.08.14.21,0,.43,0,.64,0a3.12,3.12,0,0,1,.59.19,7.76,7.76,0,0,1-1.38.35,17.52,17.52,0,0,0-2.72.86,7.07,7.07,0,0,0-1-.11,5,5,0,0,0-1.67.24,4.5,4.5,0,0,0-1.19.66c-.33.22-.65.46-1,.69-.08.06-.62.53-.33.26l0,0,0,0s-.29.1-.21.08c-.5.12-1,.23-1.51.39a7,7,0,0,1-1.17.4c-.45.06-.9.08-1.34.11s-.81.08-1.22.13a1.9,1.9,0,0,0-.59.21,4.45,4.45,0,0,1-.65.19s0,0,0,0a6,6,0,0,1,1.11.18,3.13,3.13,0,0,0,.53,0h.56c.38,0,.75,0,1.12,0l.57,0a3.53,3.53,0,0,1,.55.1c.78.11,1.6,0,2.35.11h.17s.65,0,.24,0h.48l-.24.12a8.37,8.37,0,0,0-1.21.66h0l-.23.1a4.65,4.65,0,0,1-.52.2c-.65.22-1.28.47-1.94.66-.21.06-.57.13-.86.19s-.76.16-1.13.24c-1,.23-2.1.37-3.15.57a9.53,9.53,0,0,0-1.56.44,5.24,5.24,0,0,0-.64.29l-.31.2a2.23,2.23,0,0,1,.41-.12,5.36,5.36,0,0,1,.7-.09c.52,0,1.05,0,1.58,0,1,0,2,.1,3.06.11.63,0,1.27,0,1.9,0s1.29.15,1.93.17c.42,0,.84,0,1.26,0,.09,0,.62,0,.15,0h.25c-.41.09-.64.18-1,.27l-1.09.24c-.7.16-1.38.38-2.06.58s-1.31.59-2,.85c0,0,0,0,0,0a10.27,10.27,0,0,0,2,0,9.64,9.64,0,0,1,1.08-.12c.35,0,.7,0,1,0l1,0c.36,0,.72.08,1.07.09A15.64,15.64,0,0,0,76,93.51c.29,0,.57-.08.85-.13l.43-.09c-.15,0-.15,0,0,0h.53a2.79,2.79,0,0,0,.93-.21c1,.08,2,.13,3,.22l.72.06-.28.15-.27.14c-.12.06-.22.17-.34.22l-.19.09-.18.06a6.13,6.13,0,0,1-1.19.31c-.42.06-.84.1-1.26.15s-.75.09-1.12.15-.91.05-1.36.1l-1,.11-.37,0c-.27,0-.57,0-.86.06l.26,0L74,95l-.33,0h.22l.64,0,.27,0c.42,0,.85.06,1.27.07.84,0,1.67.11,2.51.12.43,0,.85,0,1.28,0a7.49,7.49,0,0,1,1.25.07,6.55,6.55,0,0,0,1.33,0,5.69,5.69,0,0,1,1.16-.07,14.91,14.91,0,0,0,2.67-.17c.86-.07,1.71-.15,2.56-.26s1.72-.23,2.57-.37l.35-.1-.22,0S91.52,94.33,91.55,94.34Z"/><path class="cls-10" d="M55.32,89.16c.18,0,.36,0,.53-.06A2.26,2.26,0,0,0,55.32,89.16Z"/><path class="cls-10" d="M55.16,89.21l.16,0h-.17S55.11,89.23,55.16,89.21Z"/><path class="cls-10" d="M60.12,88.61a11.45,11.45,0,0,0,1.17,0c.34,0,.69-.08,1-.11s.66-.07.82-.41a.18.18,0,0,0,0-.2.79.79,0,0,0-.8-.21l-1,.12a5.11,5.11,0,0,0-1,.27,6.7,6.7,0,0,1-1.1.22,3,3,0,0,0-.88.25,8.14,8.14,0,0,1-.86.35,1.78,1.78,0,0,1-.51.06,4.78,4.78,0,0,1-.53.06l-.51,0h.41c.37,0,.69.18,1.05.13.62-.09,1.15-.47,1.78-.53A5.51,5.51,0,0,1,60.12,88.61Z"/><path class="cls-10" d="M52.9,96.49l.17,0h-.18S52.85,96.51,52.9,96.49Z"/><path class="cls-10" d="M53.07,96.44l.38,0A2.48,2.48,0,0,0,53.07,96.44Z"/><path class="cls-10" d="M61.93,95.89c.45,0,.9-.07,1.34-.13a2,2,0,0,0,1.17-.54.17.17,0,0,0-.17-.29,4.91,4.91,0,0,1-1.27.23c-.42,0-.83,0-1.25.09-1,.13-2,.28-2.93.42s-1.93.68-2.94.74c-.48,0-1,0-1.44,0h-.66l-.33,0h.23l.86,0c.45,0,.9,0,1.35,0h1.55c.53,0,1-.26,1.55-.31C60,96.09,61,96,61.93,95.89Z"/><path class="cls-10" d="M73.27,97.34a2.77,2.77,0,0,0,.56-.07A2.52,2.52,0,0,0,73.27,97.34Z"/><path class="cls-10" d="M73.11,97.39l.16,0H73.1S73.06,97.4,73.11,97.39Z"/><path class="cls-10" d="M78.9,96.77a1.87,1.87,0,0,0,.53,0,7.31,7.31,0,0,0,1-.15c.34-.09.67-.22,1-.32a.09.09,0,0,0,0-.18c-.31,0-.63-.06-.94-.06a8.77,8.77,0,0,0-1,.12l-.46.08c-.19,0-.36.18-.56.21l-1,.2L75.36,97l-1,.17a5.09,5.09,0,0,0-.51.1l.4,0,1-.12,2.19-.27,1-.12A1.36,1.36,0,0,1,78.9,96.77Z"/><path class="cls-10" d="M73.65,83.3s0,0,0,0l0,0C73.57,83.2,73.59,83.37,73.65,83.3Z"/><path class="cls-10" d="M73.68,83.27a1.08,1.08,0,0,0,.3,0A.74.74,0,0,0,73.68,83.27Z"/><path class="cls-10" d="M78,82.63a.09.09,0,0,0-.13-.13,2.84,2.84,0,0,1-.84.27c-.42.09-.82.19-1.24.25s-.79.13-1.19.16l-.52,0-.14,0h.09l.58,0c.45,0,.91,0,1.37,0C76.65,83.19,77.62,83.2,78,82.63Z"/><path class="cls-10" d="M67.34,132.55a.24.24,0,0,1,.09-.08l-.12,0C67.25,132.51,67.31,132.6,67.34,132.55Z"/><path class="cls-10" d="M67.61,132.37a.77.77,0,0,0-.18.1Z"/><path class="cls-10" d="M78.78,126.59c.08,0,.11-.09,0,0Z"/><path class="cls-10" d="M79,128.6h0Z"/><path class="cls-10" d="M78.79,136a1.86,1.86,0,0,0,.34,0Z"/><path class="cls-10" d="M78.63,136a.49.49,0,0,1,.16-.05h-.17C78.57,136,78.58,136,78.63,136Z"/><path class="cls-10" d="M79.54,135.83a1.82,1.82,0,0,0-.33,0Z"/><path class="cls-10" d="M79,135.84l.23,0-.23,0S78.93,135.85,79,135.84Z"/><path class="cls-10" d="M102,133.42v.09l.15-.11Z"/><path class="cls-10" d="M102.21,133.21l0,.17.21-.19h-.23Z"/><path class="cls-10" d="M101.39,124.25c-.34-.11-.44-.15-.8-.24h-.06s0,.07,0,.11c0,.22,0,.41.07.6.22,0,.45,0,.67,0A1.51,1.51,0,0,0,101.39,124.25Z"/><path class="cls-10" d="M101.64,127.67a1.64,1.64,0,0,0,0-.54,4.86,4.86,0,0,1-.55-.1l-.15,0a9.12,9.12,0,0,0,.3,1.17c.23-.1.44-.21.66-.33Z"/><path class="cls-10" d="M101.66,130.19c0,.16,0,.31.08.46l.21-.06.12-.13a2.33,2.33,0,0,0,.17-.26c-.11,0-.22,0-.32,0Z"/><path class="cls-10" d="M100.77,126l0,.23.19-.08A1.07,1.07,0,0,0,100.77,126Z"/><path class="cls-10" d="M102.46,128.82a3.27,3.27,0,0,0-.56-.11l-.52,0q.08.21.15.45a1.78,1.78,0,0,1,.09.23l.88-.29A1,1,0,0,0,102.46,128.82Z"/><path class="cls-10" d="M97.52,135.22h.23a3.76,3.76,0,0,0,.37-.16,2.13,2.13,0,0,0,.79-.44s0,0,.06-.05H99a7.38,7.38,0,0,0,1.6-.48,8.77,8.77,0,0,1-2.1.15l-2.06.25-.75.09h0l.75-.09,2.06-.25a8.77,8.77,0,0,0,2.1-.15l.05,0-.16,0L101,134l.42-.14a3,3,0,0,0,.62-.31v-.09l.16,0,0,0,0-.17H102c-.55,0-1.09.05-1.64.05a5.48,5.48,0,0,0-1.51.09s0-.05,0-.05a6.44,6.44,0,0,0,1.61-.3c.49-.12,1-.2,1.48-.31l.28-.06a4.88,4.88,0,0,1-.52-.06,1.55,1.55,0,0,1-.31-.06h0v0c0,.08-.14.1-.16,0s-.07-.14,0-.12a.18.18,0,0,1-.09-.1.29.29,0,0,1,0-.13,4.94,4.94,0,0,0-.48-.13c-.34,0-.69,0-1,0a6.89,6.89,0,0,0-1.11-.06,4.18,4.18,0,0,1-.5,0,2,2,0,0,0-.55,0s0-.05,0-.05a2.09,2.09,0,0,0,.64-.17l.38-.07a7.76,7.76,0,0,0,1.07-.32l.55-.16a1.58,1.58,0,0,0,.44-.11c.16-.08.3-.18.46-.26a2.15,2.15,0,0,1,.5-.12l.33-.08c0-.15-.06-.3-.08-.46a5.81,5.81,0,0,1-1-.07,1.29,1.29,0,0,1-.48-.1l-.1-.13s0,0,0,0l.09.06c.13.06.53-.23.67-.28l.82-.29a1.78,1.78,0,0,0-.09-.23q-.07-.24-.15-.45a5,5,0,0,1-.56-.08,4.43,4.43,0,0,1-.49-.13.5.5,0,0,1-.28-.06H100s0-.07,0,0l0,.05.28.06a2.21,2.21,0,0,0,.75-.23l.13-.06a9.12,9.12,0,0,1-.3-1.17.87.87,0,0,1-.56-.29c-.11-.15.13-.32.45-.46l0-.23-.12-.07a2.54,2.54,0,0,0-.39-.13,19.84,19.84,0,0,1-2.78,0c-.55,0-1.08-.2-1.62-.21h-.08s0,0,0,0l-.16,0s0-.05,0,0h.17s0,0,0,0l.06,0h0c.19-.06.36-.14.55-.19a5,5,0,0,1,1.09-.1,6,6,0,0,0,1.45-.24,12.64,12.64,0,0,1,1.49-.29l.19,0c0-.19-.05-.38-.07-.6,0,0,0-.08,0-.11a3.56,3.56,0,0,0-.73-.17c-.31,0-.62,0-.93,0a4.54,4.54,0,0,1-1.11-.09l-.51-.17a.62.62,0,0,1-.3-.09l-.1,0s0-.06,0,0a.16.16,0,0,0,.08.06l.3.09a2.51,2.51,0,0,0,.88-.18c.35-.11.69-.23,1-.36a7.94,7.94,0,0,1,1-.29.76.76,0,0,0-.22-.25.76.76,0,0,1,.22.25l.49-.08a1.62,1.62,0,0,0-.62-.25l-.06,0a1.09,1.09,0,0,0,.25-.23l0-.07-.32,0c-.65-.09-1.3-.14-1.94-.27a4.84,4.84,0,0,1-.51-.14,3.91,3.91,0,0,1-.68,0,4.1,4.1,0,0,1-.7-.12l0,0-.06,0-.27,0a2.78,2.78,0,0,1-1.85-.08l-.41.15a4.91,4.91,0,0,1-.67.08l-.64.09q-.54,0-1,.12c-.24,0-.48,0-.73.06a12,12,0,0,0-1.57.18,5.36,5.36,0,0,0-.76.23c-.31,0-.62,0-.93.1a11.25,11.25,0,0,0-1.11.39c-.21.07-.4.17-.61.24h0c.2,0,.4.07.6.08.38,0,.74.11,1.11.14s.44,0,.66.05a2.59,2.59,0,0,1,.61.21,9.19,9.19,0,0,1-1.42.35,17.16,17.16,0,0,0-2.8.88,9.35,9.35,0,0,0-1-.11,5,5,0,0,0-1.72.25,4.94,4.94,0,0,0-1.23.68c-.34.23-.67.47-1,.71-.08.06-.64.54-.34.27l0,0,0,0s-.31.11-.23.09c-.51.13-1,.24-1.54.4a7.84,7.84,0,0,1-1.21.41c-.46.07-.92.08-1.38.12s-.84.08-1.26.13a2.17,2.17,0,0,0-.6.22c-.21.09-.45.13-.67.2,0,0,0,0,0,0a5.54,5.54,0,0,1,1.14.19,2.53,2.53,0,0,0,.55,0h.58c.38,0,.76,0,1.15,0l.58,0a3,3,0,0,1,.57.1c.8.12,1.65.05,2.42.11l.18,0s.66,0,.24,0a2.62,2.62,0,0,0,.49,0l-.24.12a10,10,0,0,0-1.24.69h0l-.24.11-.53.2c-.67.23-1.32.48-2,.68-.21.06-.58.13-.88.19l-1.17.25c-1,.23-2.16.38-3.24.59a8.84,8.84,0,0,0-1.6.45,3.93,3.93,0,0,0-.66.3l-.33.2a2.38,2.38,0,0,1,.43-.12,5.67,5.67,0,0,1,.72-.1c.54,0,1.08,0,1.62,0,1.05,0,2.1.11,3.16.12.65,0,1.3,0,1.95,0s1.33.15,2,.18c.43,0,.86,0,1.3,0,.09,0,.63,0,.15,0h.26c-.43.09-.66.19-1.06.28l-1.12.25c-.71.17-1.41.39-2.12.6s-1.35.61-2,.87c0,0,0,0,0,0a10.14,10.14,0,0,0,2.06.05c.38,0,.74-.12,1.12-.13s.72,0,1.07,0l1,0c.37,0,.73.08,1.1.09a16.7,16.7,0,0,0,2.34-.14l.87-.13.44-.1c-.15,0-.15,0,0,0a5,5,0,0,0,.55,0,3,3,0,0,0,1-.21c1,.07,2,.13,3.07.22.24,0,.49,0,.74.06l-.3.16-.27.14a3.5,3.5,0,0,1-.35.23l-.2.09-.18.06a6.57,6.57,0,0,1-1.23.33l-1.3.15c-.39,0-.77.09-1.15.15s-.93.06-1.39.11l-1,.11-.38,0c-.27,0-.58,0-.88.06l.26,0-.33,0-.34,0h.24l.65,0a1.33,1.33,0,0,0,.28,0c.43,0,.87.07,1.31.08.86,0,1.72.11,2.58.12.44,0,.88,0,1.32,0a9.17,9.17,0,0,1,1.28.08,6.36,6.36,0,0,0,1.38.06,5.3,5.3,0,0,1,1.19-.08,14.89,14.89,0,0,0,2.75-.17q1.32-.1,2.64-.27c.88-.12,1.76-.24,2.64-.39a1.29,1.29,0,0,0,.35-.1l-.22,0S97.48,135.22,97.52,135.22Z"/><path class="cls-10" d="M60.21,129.89l.55-.06A2.44,2.44,0,0,0,60.21,129.89Z"/><path class="cls-10" d="M60.05,129.94l.16-.05H60S60,130,60.05,129.94Z"/><path class="cls-10" d="M65.15,129.33c.41,0,.81,0,1.21,0a9.11,9.11,0,0,0,1-.11c.34,0,.68-.07.85-.41a.22.22,0,0,0,0-.22.82.82,0,0,0-.82-.21l-1,.13a4.77,4.77,0,0,0-1.05.27,6.12,6.12,0,0,1-1.13.23,3,3,0,0,0-.91.25,8.59,8.59,0,0,1-.88.37,2.39,2.39,0,0,1-.53.06c-.18,0-.36.05-.54.06l-.52,0h.42c.37,0,.7.19,1.07.13.64-.09,1.19-.48,1.84-.54A5.73,5.73,0,0,1,65.15,129.33Z"/><path class="cls-10" d="M57.72,137.44a.61.61,0,0,1,.18-.05h-.19C57.66,137.37,57.67,137.46,57.72,137.44Z"/><path class="cls-10" d="M57.9,137.39l.39,0Z"/><path class="cls-10" d="M67,136.82c.46,0,.92-.07,1.38-.13a2.15,2.15,0,0,0,1.21-.56.18.18,0,0,0-.18-.3,4.81,4.81,0,0,1-1.31.24c-.43,0-.86,0-1.28.09-1,.13-2,.29-3,.43s-2,.7-3,.76c-.49,0-1,0-1.48,0h-.68l-.34,0h.23c.3,0,.59,0,.89,0,.46,0,.93.05,1.39.05h1.6c.54,0,1.06-.26,1.59-.31C65,137,66,136.93,67,136.82Z"/><path class="cls-10" d="M78.69,138.31a3,3,0,0,0,.58-.07A3.54,3.54,0,0,0,78.69,138.31Z"/><path class="cls-10" d="M78.53,138.36l.16-.05h-.17S78.48,138.38,78.53,138.36Z"/><path class="cls-10" d="M84.49,137.72a2.54,2.54,0,0,0,.55,0,9.17,9.17,0,0,0,1-.16c.36-.09.7-.23,1-.33.09,0,.07-.18,0-.18-.33,0-.65-.07-1-.07a7.67,7.67,0,0,0-1.06.13,4.2,4.2,0,0,0-.47.08c-.2.05-.37.18-.57.22l-1.07.2-2.12.38-1.06.17-.52.11.41,0,1.06-.12,2.26-.28,1.07-.12A2,2,0,0,1,84.49,137.72Z"/><path class="cls-10" d="M79.08,123.85a.05.05,0,0,1,0,0l-.05,0C79,123.75,79,123.93,79.08,123.85Z"/><path class="cls-10" d="M79.12,123.83a1.24,1.24,0,0,0,.31,0A1,1,0,0,0,79.12,123.83Z"/><path class="cls-10" d="M83.6,123.17a.1.1,0,0,0-.13-.14,3,3,0,0,1-.87.29c-.42.09-.84.18-1.27.25s-.81.14-1.23.17l-.53,0-.14,0h.08l.6,0c.47,0,.94,0,1.41,0C82.17,123.75,83.17,123.76,83.6,123.17Z"/><path class="cls-8" d="M146.56,97.08a1.6,1.6,0,0,0,0-.38,1.7,1.7,0,0,0-.09-.39.55.55,0,0,0-.66-.31.91.91,0,0,0-.46.25,2.83,2.83,0,0,0-.25.24.54.54,0,0,0,.15.77,1.83,1.83,0,0,0,.31.24,1,1,0,0,0,.54,0A.55.55,0,0,0,146.56,97.08Z"/><path class="cls-8" d="M146.15,88.93c.25-.31,0-.71-.27-.94a.58.58,0,0,0-1,.33.6.6,0,0,0,.1.41s0,0,0,0a.62.62,0,0,0,.31.31.75.75,0,0,0,.47,0A.49.49,0,0,0,146.15,88.93Z"/><path class="cls-8" d="M147.05,80.8a.49.49,0,0,0-1,.12A.49.49,0,0,0,147.05,80.8Z"/><path class="cls-8" d="M146.87,104.81a.63.63,0,0,0-.1-.28.54.54,0,0,0-.21-.35l-.26-.23a.62.62,0,0,0-.7,0c-.43.28-.89.75-.42,1.22a1.27,1.27,0,0,0,1.37.29A.6.6,0,0,0,146.87,104.81Z"/><path class="cls-8" d="M147.22,111.13l-.17,0a.47.47,0,0,0-.45.61.46.46,0,0,0,.58.47h.17C148.07,112.2,147.93,111,147.22,111.13Z"/><path class="cls-8" d="M149.2,118.87a.55.55,0,0,0-1.1.13A.55.55,0,0,0,149.2,118.87Z"/><path class="cls-8" d="M150.53,125.27a.52.52,0,0,0-.11.38.6.6,0,0,0,.1.25l.1.09a.53.53,0,0,0,.24.11,1,1,0,0,0,.38,0c.39,0,.49-.41.35-.72a.59.59,0,0,0-.85-.25A.49.49,0,0,0,150.53,125.27Z"/><path class="cls-8" d="M139.77,97.89a1.63,1.63,0,0,0,0-.38,1.72,1.72,0,0,0-.1-.39.51.51,0,0,0-.64-.3,1,1,0,0,0-.36.17l-.14.15c-.07.06-.16.08-.22.16a.54.54,0,0,0,.09.74l.26.21a.8.8,0,0,0,.64.1A.56.56,0,0,0,139.77,97.89Z"/><path class="cls-8" d="M139.36,89.75a.56.56,0,0,0,.11-.37.53.53,0,0,0-.19-.34l-.06,0a.57.57,0,0,0-.59-.34.58.58,0,0,0-.5.48.58.58,0,0,0,.1.4.14.14,0,0,0,0,.06.62.62,0,0,0,.31.31.75.75,0,0,0,.47,0A.52.52,0,0,0,139.36,89.75Z"/><path class="cls-8" d="M140.26,81.61a.49.49,0,0,0-1,.12A.49.49,0,0,0,140.26,81.61Z"/><path class="cls-8" d="M140.08,105.62a.77.77,0,0,0-.1-.28.62.62,0,0,0-.21-.35l-.07,0-.06-.08c-.08,0-.15-.11-.23-.15a.7.7,0,0,0-.35-.06H139a1,1,0,0,0-.25.08l-.05,0a.63.63,0,0,0-.29.22.66.66,0,0,0-.1.76,3.38,3.38,0,0,0,.27.36c.09.08.21.06.31.09.3.07.54.23.85.1A.62.62,0,0,0,140.08,105.62Z"/><path class="cls-8" d="M139.57,104.79l.07.07,0,0A.48.48,0,0,0,139.57,104.79Z"/><path class="cls-8" d="M140.43,112l-.18,0a.47.47,0,0,0-.45.6.47.47,0,0,0,.58.48h.18C141.28,113,141.13,111.81,140.43,112Z"/><path class="cls-8" d="M142.41,119.69a.55.55,0,0,0-1.1.13A.55.55,0,0,0,142.41,119.69Z"/><path class="cls-8" d="M144.91,126.31a.53.53,0,0,0-.59-.46.91.91,0,0,0-.37.08.41.41,0,0,0-.21.15.49.49,0,0,0-.11.38.43.43,0,0,0,.1.25l.09.1a.51.51,0,0,0,.24.1,1.28,1.28,0,0,0,.39,0A.54.54,0,0,0,144.91,126.31Z"/><path class="cls-8" d="M218.77,89.59a.44.44,0,0,0,0-.64,1.88,1.88,0,0,0-.24-.14.76.76,0,0,0-.42-.11.44.44,0,0,0-.46.37,1.82,1.82,0,0,0,0,.33,1,1,0,0,0,.07.3.45.45,0,0,0,.46.28,1,1,0,0,0,.43-.13A2.56,2.56,0,0,0,218.77,89.59Z"/><path class="cls-8" d="M217.28,82.79v-.05a.45.45,0,0,0,0-.34.47.47,0,0,0-.82-.08c-.15.23-.3.61,0,.81a.41.41,0,0,0,.3.08.67.67,0,0,0,.37-.11A.48.48,0,0,0,217.28,82.79Z"/><path class="cls-8" d="M219.05,95.37a.55.55,0,0,0-.1.32.62.62,0,0,0,0,.24.5.5,0,0,0,.38.44,1,1,0,0,0,1-.5c.29-.47-.17-.76-.57-.89a.49.49,0,0,0-.55.16Z"/><path class="cls-8" d="M220,102l.15,0a.38.38,0,0,0,.37-.49A.39.39,0,0,0,220,101h-.14C219.29,101.07,219.41,102.06,220,102Z"/><path class="cls-8" d="M220.7,107.49a.45.45,0,0,0-.9.11A.45.45,0,0,0,220.7,107.49Z"/><path class="cls-8" d="M219.88,113.69a.45.45,0,0,0,.17-.13l.06-.1a.39.39,0,0,0,0-.21A.43.43,0,0,0,220,113a.44.44,0,0,0-.2-.08.48.48,0,0,0-.63.36c-.05.28.1.56.42.51A1,1,0,0,0,219.88,113.69Z"/><path class="cls-8" d="M224.38,88.88a.43.43,0,0,0-.07-.6,1,1,0,0,0-.21-.09l-.14-.08a.71.71,0,0,0-.32-.07.41.41,0,0,0-.45.36,1.22,1.22,0,0,0,0,.33,1.13,1.13,0,0,0,.06.31.47.47,0,0,0,.47.27.7.7,0,0,0,.5-.2Z"/><path class="cls-8" d="M224.68,94.59l0,0,0-.07A.28.28,0,0,0,224.68,94.59Z"/><path class="cls-8" d="M224.71,94.57l0,.07,0,.06a.44.44,0,0,0-.1.32.62.62,0,0,0,0,.24.5.5,0,0,0,.42.45c.27,0,.43-.13.65-.25s.17,0,.23-.13A3.49,3.49,0,0,0,226,95c.1-.2-.06-.46-.23-.59a.66.66,0,0,0-.27-.12h-.05a.5.5,0,0,0-.21,0l-.07,0a.54.54,0,0,0-.27.11C224.81,94.45,224.77,94.52,224.71,94.57Z"/><path class="cls-8" d="M225.56,101.28l.14,0a.44.44,0,0,0-.1-.88h-.15C224.87,100.4,225,101.39,225.56,101.28Z"/><path class="cls-8" d="M226.28,106.83a.45.45,0,0,0-.9.1A.45.45,0,0,0,226.28,106.83Z"/><path class="cls-8" d="M225.46,113a.43.43,0,0,0,.17-.13l.05-.09a.35.35,0,0,0,0-.22.42.42,0,0,0-.16-.28.4.4,0,0,0-.2-.09.81.81,0,0,0-.31,0,.43.43,0,0,0-.38.48.42.42,0,0,0,.48.38A.81.81,0,0,0,225.46,113Z"/><polygon class="cls-1" points="93.56 116.36 92.22 100.8 96.85 103.22 97.76 113.73 93.56 116.36"/><path class="cls-2" d="M97.2,102.56l-4.64-2.43-1.21-.63.11,1.37,1.35,15.56.1,1.22,1-.65,4.19-2.63.4-.24,0-.46-.91-10.51,0-.41Zm.56,11.18-4.2,2.62L92.22,100.8l4.63,2.43Z"/><path class="cls-3" d="M125.3,104.11c-2.88-3.58-11.46-11.6-27.62-6.17A2.61,2.61,0,0,0,96,100.52L97.36,116a2.61,2.61,0,0,0,2.07,2.27c16.85,2.59,23.93-6.79,26.15-10.81A3.34,3.34,0,0,0,125.3,104.11Z"/><path class="cls-4" d="M124.71,105.27c-.23.26-.38.56-.6.82l-.34.39-.17.19c-.07.08-.34.27,0,.09a4.67,4.67,0,0,0-.51.36c-.07.06-.37.37-.18.18-.1.1-.21.2-.3.31l-.18.2-.1.1-.37.38-.38.35a1.06,1.06,0,0,1-.21.16l0,0h0l-1,.55c-.4.23-.8.45-1.18.72l-.46.3,0,0-.22.14a30.05,30.05,0,0,1-4.24,2c-.36.14-.72.28-1.09.4l-.55.19-.24.07-.07,0c-.78.24-1.57.44-2.37.61a33.75,33.75,0,0,1-3.46.58c-.57.07-1.15.12-1.72.16l-.86,0h-.45a27.42,27.42,0,0,1-3.27-.13,6,6,0,0,0-.74,0c.66,0,.1,0-.05,0a5.61,5.61,0,0,0-1.09.14,4,4,0,0,0-.92.22,1.61,1.61,0,0,0-.3.21,2.43,2.43,0,0,1,.18,1.2A2.37,2.37,0,0,1,97,117a.83.83,0,0,0,.18.13c.39.22.76.48,1.17.67a7.18,7.18,0,0,0,2.52.43,35.48,35.48,0,0,0,5-.07,33.79,33.79,0,0,0,9.8-2.33,20.6,20.6,0,0,0,3.21-1.63,20.23,20.23,0,0,0,1.74-1.16,8.65,8.65,0,0,0,1.53-1.43c.35-.43.61-.93,1-1.34a15.56,15.56,0,0,0,1-1.38,2.73,2.73,0,0,0,.48-1.17v0l0-.06.15-.4a6.9,6.9,0,0,0,.46-1.67A.37.37,0,0,0,124.71,105.27Z"/><path class="cls-2" d="M125.88,103.64a22.18,22.18,0,0,0-6.77-5.6,23.73,23.73,0,0,0-13.49-2.58,35.46,35.46,0,0,0-8.18,1.76,3.22,3.22,0,0,0-1.64,1.34,3.36,3.36,0,0,0-.53,2l1.34,15.46a3.3,3.3,0,0,0,.86,1.91,3.17,3.17,0,0,0,1.85,1,34.59,34.59,0,0,0,8.36.34,23.63,23.63,0,0,0,12.85-4.85,22.12,22.12,0,0,0,5.71-6.68,3.85,3.85,0,0,0,.4-2.13A3.78,3.78,0,0,0,125.88,103.64Zm-.3,3.8c-1.82,3.3-6.91,10.19-18,11.14a34.2,34.2,0,0,1-8.19-.33A2.61,2.61,0,0,1,97.36,116L96,100.52a2.61,2.61,0,0,1,1.65-2.58,34.38,34.38,0,0,1,8-1.73c11-1,17.25,5,19.61,7.9A3.34,3.34,0,0,1,125.58,107.44Z"/><path class="cls-4" d="M254.66,89.86a10.85,10.85,0,0,0-2.86-2.79c-1.14-.9-2.13-2-3.33-2.8a41.76,41.76,0,0,0-8-4.24A82,82,0,0,0,232,77.18c-1.44-.4-2.88-.76-4.34-1s-3.06-.65-4.43-.2a.78.78,0,0,0-.17,1.41,10.63,10.63,0,0,0,4,1.18c1.4.28,2.8.54,4.2.84a62.82,62.82,0,0,1,8.4,2.39,58.13,58.13,0,0,1,7.85,3.53c1.24.67,2.48,1.3,3.66,2.06s2.08,2,3.3,2.75c.15.1.33-.09.24-.25Z"/><path class="cls-3" d="M172.15,77.13h.07C171.87,77.15,172,77.14,172.15,77.13Z"/><path class="cls-3" d="M165.59,97.74h0Z"/><path class="cls-3" d="M192.35,96.51a1.39,1.39,0,0,0-.63-.55,1.71,1.71,0,0,0-.83-.21,2.48,2.48,0,0,0-1.13.31l-.22.12a3.45,3.45,0,0,1-.43.12l-.08,0a1.07,1.07,0,0,0-.14-.16l-.15-.16a3.71,3.71,0,0,1-.27-.29l-.06-.07a3.92,3.92,0,0,0-.25-.32l-.3-.33h0a.71.71,0,0,1-.1-.14c-.63-.87-1.12-1.83-1.73-2.71,0-.2,0-.4-.05-.6,0-.41-.09-.82-.13-1.22-.07-.72-.07-1.45-.08-2.17s0-1.31-.06-2a3.44,3.44,0,0,0-.09-.56,1.11,1.11,0,0,0,0-.13l0-.3a4.86,4.86,0,0,0-.23-1.07c0-.11-.08-.2-.12-.3-.16-.38-.19-.44-.07-.18,0,0,0-.09,0-.14l-.18-.65c-.1-.37-.23-.73-.36-1.1a3.69,3.69,0,0,0,1-.69,2.71,2.71,0,0,0,.44-.64,2.43,2.43,0,0,0,.19-1.48.75.75,0,0,0-.09-.29,1.88,1.88,0,0,0,.31-1.7,1.71,1.71,0,0,0-1.18-1.18,2.37,2.37,0,0,0-1.61.2,4.4,4.4,0,0,0-.51.29l-.09,0-.2.07a18,18,0,0,1-2.62.57L180,77l-.31,0-.88.08c-.63.05-1.26.06-1.9.06s-1.18,0-1.77-.08l-.25,0-.63-.07a4.51,4.51,0,0,0-.9,0,9.32,9.32,0,0,0-1.06.15h-.1c-.22,0-.43.07-.65.12h-.44a1.93,1.93,0,0,0-.74,0,1,1,0,0,0-.67.66v0a.94.94,0,0,0,0,.62l0-.09A.86.86,0,0,0,170,79a2.17,2.17,0,0,0-.15.35l-.16,0a.44.44,0,0,0-.59.29s0,0,0,.08a.47.47,0,0,0,.21.52l.21.12a5,5,0,0,0-.05,1,19.4,19.4,0,0,0,.64,3.78c.08.33.19.65.29,1s.13.7.19,1c0,0,0,.18,0,.19s0,.2,0,.31a3.87,3.87,0,0,1,0,.59,12.26,12.26,0,0,0,.1,1.48,15.25,15.25,0,0,1,.1,2.7.54.54,0,0,0,0,.15,1,1,0,0,0-.09.22c-.06.17-.1.33-.16.5a.89.89,0,0,1-.05.13l-.15.27-.12.16a2.09,2.09,0,0,1-.2.22l-.15.13-.14.11-.69.56-.43.34-.19.14-.38.26a4.19,4.19,0,0,1-.58.34h0c-.09,0-.19.06-.28.09a1.76,1.76,0,0,0-.69.18,1.36,1.36,0,0,0-.29.06,1,1,0,0,0-.72,1l0-.06a1.06,1.06,0,0,0,.13.5l.13.17c.13.18.24.35.38.52a.46.46,0,0,1,.07.07.47.47,0,0,0,.15.19,3.53,3.53,0,0,0,.84.44.88.88,0,0,0,.69-.07L168,99a2.5,2.5,0,0,0,.85-.23,2.39,2.39,0,0,1,.32-.11c-.12,0-.05,0,.22,0a1,1,0,0,0,.54-.38l.09-.06.34-.15a2,2,0,0,0,.62-.45,4.08,4.08,0,0,0,1.49-2,3.92,3.92,0,0,0,.59-.92,3.87,3.87,0,0,0,.45-1.69l0,.14.06-.46s0-.1,0-.15a2.06,2.06,0,0,0,.32-1.18,10.72,10.72,0,0,0-.1-1.88c0-.36-.09-.73-.14-1.09a.15.15,0,0,0,0-.07,1.12,1.12,0,0,0-.13-.83v0l0-.16c0-.47,0-1,.08-1.42s.1-1.12.16-1.68a1.94,1.94,0,0,1,0-.24,1.42,1.42,0,0,1,.05-.22,4.44,4.44,0,0,1,.15-.52l0-.06h0a2.59,2.59,0,0,1,.14-.29,4.92,4.92,0,0,1,.28-.45l0,0,.08-.1a26.49,26.49,0,0,0,3.65.51,14.32,14.32,0,0,0,4.28-.22l.08,0c0,.5,0,1,.07,1.49a1.1,1.1,0,0,1,0,.18c-.09.51-.11,1-.15,1.55-.09,1.28-.13,2.57-.25,3.84,0,.31,0,.62-.06.92,0,0,0,0-.05.09a2.52,2.52,0,0,0-.11.67c0,.48,0,1,0,1.45a9.78,9.78,0,0,0,.76,3.42A7,7,0,0,0,185,98.83a5.9,5.9,0,0,0,3,1,5.67,5.67,0,0,0,2.8-.34,2.71,2.71,0,0,0,1.82-1.65A1.88,1.88,0,0,0,192.35,96.51Zm-26.61,1.43Zm22.65-2.32Zm-.59-.71Zm-17-2.46.08-.12-.09.19Zm-1,5.81s0,0,0,0Zm0,0,0,0Zm3.79-14.29c0-.08,0-.17,0,0Z"/><path class="cls-7" d="M156.94,66l.24-.38a8.59,8.59,0,0,1,4.93-3.09,7,7,0,0,1,5.44.61.19.19,0,0,1,.09,0l.12,0a.3.3,0,0,1,.34,0l.09,0a.2.2,0,0,1,.13,0A18.24,18.24,0,0,0,175.48,55c.54-1.48.48-2.63-.16-3.42a2.8,2.8,0,0,0-2-1.1,4.58,4.58,0,0,0-2.09.42v0h0a5.54,5.54,0,0,0-.69.34l-.15.21h-.07a.2.2,0,0,0-.19.19h0a.46.46,0,0,0-.24.15,6,6,0,0,0-.63.7,3.31,3.31,0,0,0-.37.55.25.25,0,0,1,0-.3c.1-.19.21-.37.32-.54h0l-.06.05h0a3.78,3.78,0,0,0,.57-1.2.14.14,0,0,0,0-.09l.2-.23s0,0,0-.06l0,0h0a.21.21,0,0,0,.18-.11l0,0,.21-.11,0-.55-.11,0a.42.42,0,0,1-.14-.09,5.47,5.47,0,0,0-1.12.33,3,3,0,0,0-2,2.34c-.12.74-.85,1.43-2.23,2.13a14.57,14.57,0,0,1-1.89.79l0-.05A12.5,12.5,0,0,0,165,53.35c.6-.37,1-.78,1.11-1.14a3.84,3.84,0,0,1,2.52-3l.41-.15a2.61,2.61,0,0,0,.27-.19,8.84,8.84,0,0,0,1.7-.74,3.16,3.16,0,0,0,1-1,3,3,0,0,0,.5-1,3.2,3.2,0,0,0,0-1.71,2.27,2.27,0,0,0-.39-.89,3.39,3.39,0,0,0-.39-1.2,3.57,3.57,0,0,0-.59-.81,3.75,3.75,0,0,0-2-1.19v0l-.37-.2h0l-.22-.12-.22-.13-.22-.13-.23-.14-.2-.12-.4-.25-.12-.09-.31-.21-.15-.1-.29-.21-.13-.1-.16-.11a.32.32,0,0,1-.13.08,4.84,4.84,0,0,0-.54.17,13.62,13.62,0,0,0-6.42,5.22,25.75,25.75,0,0,0-2.88,5.31,1.43,1.43,0,0,1-.08.22l-.24.76a28.42,28.42,0,0,0-1.12,5.56,16.57,16.57,0,0,0,1.06,8.4,8.71,8.71,0,0,0,1,1.72Z"/><path class="cls-7" d="M201.56,56.46a28.5,28.5,0,0,0-1.17-6.38l-.3-.91a20.2,20.2,0,0,0-3.54-6.31.24.24,0,0,1-.24-.13,5.5,5.5,0,0,0-.38-.56,2.09,2.09,0,0,0-.2-.22,15.36,15.36,0,0,0-4.12-3.07l-.38.25-.1.07-.36.23-.1.06-.27.17-.16.09-.32.19-.19.1-.18.1-.21.11h0l-.3.16h-.25a3.41,3.41,0,0,0-3,1.59,3.72,3.72,0,0,0-.49,2,3,3,0,0,0-1.11,2.3,3,3,0,0,0,3,3,4.68,4.68,0,0,0,.55,0,5.93,5.93,0,0,1,1.08.36,3.85,3.85,0,0,1,2.43,3.06c.05.37.48.79,1.08,1.19a6.52,6.52,0,0,0,2.2,1.76l-.08.22a14.17,14.17,0,0,1-1.86-.85c-1.36-.74-2.07-1.46-2.17-2.2a3,3,0,0,0-1.92-2.41,5.86,5.86,0,0,0-1.23-.39.21.21,0,0,1-.08.06v.11a.25.25,0,0,0-.09.13s0,0-.05,0a.18.18,0,0,0,0,.29.25.25,0,0,0,.08.18.43.43,0,0,0,.13.09.18.18,0,0,0,.12.12l.08,0h0l0,0h0a.19.19,0,0,0,.2.2h0v0h0l.05.06a2.08,2.08,0,0,1,.17.33c.05.11.06.24.11.34a.26.26,0,0,0,.13.1l0,0v.12a.2.2,0,0,0,.11.19c0,.22.06.44.09.66s0,.16,0,.23l-.08,0a6.6,6.6,0,0,0-.35-1,.18.18,0,0,0-.1-.09,3,3,0,0,0-.17-.37.22.22,0,0,0-.18-.1s-.16,0-.14,0-.06-.12-.12-.16a.77.77,0,0,0-.2-.07s0,0,0-.06a5.34,5.34,0,0,0-2.95-1,2.75,2.75,0,0,0-2.06,1c-.67.75-.76,1.9-.27,3.41,1.1,3.35,4.9,7.51,7.25,8.59a10.23,10.23,0,0,1,5.72-.28,8.64,8.64,0,0,1,4.19,2.7c.09.11.19.22.28.34l0,0a8.11,8.11,0,0,0,1-1.55A16.74,16.74,0,0,0,201.56,56.46Z"/><path class="cls-7" d="M199.58,70.79a.91.91,0,0,1,0-.17s0-.08,0-.13,0-.11,0-.17a.49.49,0,0,1,0-.12s0-.11,0-.17,0-.07,0-.11a.88.88,0,0,0,0-.17s0-.08,0-.11l0-.17s0-.06,0-.09c0-.22-.1-.44-.16-.64,0,0,0,0,0-.06l-.06-.17s0-.06,0-.09a1.11,1.11,0,0,0-.07-.16l0-.09A1.11,1.11,0,0,0,199,68a.36.36,0,0,0,0-.09,1,1,0,0,0-.07-.15l0-.09a1.09,1.09,0,0,0-.08-.15.16.16,0,0,0,0-.07l-.09-.17h0l-.23-.36c-.13-.19-.26-.37-.41-.55A6.89,6.89,0,0,0,193,64c-4.4-.17-9.07,3.41-10.61,4.71a.25.25,0,0,0,0-.07c0-.06-.09-.1-.13-.15.63-.71,1.33-1.37,2-2l.08,0a2,2,0,0,0,.61-.48.22.22,0,0,0,.08-.09h0a2.57,2.57,0,0,1,.24-.21,20.18,20.18,0,0,1,2.92-1.49,13,13,0,0,1-2.06-1.53,1,1,0,0,1-.26.84,1.56,1.56,0,0,1-.32.52.19.19,0,0,1-.08.1l-.18.13a4.4,4.4,0,0,1-2.6.86,3.93,3.93,0,0,1-.59-.06H182l-.17,0s-.09,0,0,0l-.12,0a1.74,1.74,0,0,1-1.25,0,.2.2,0,0,1-.12-.08c-.85,0-1.69.06-2.52.06-1,0-2.08,0-3.12-.13a14.46,14.46,0,0,1-2.27-.34.25.25,0,0,1-.18-.19,2.41,2.41,0,0,1-.5-.33h0a1.71,1.71,0,0,1-.54-.75.21.21,0,0,1-.1-.06.8.8,0,0,1-.11-.34.26.26,0,0,1-.16-.25v-.14A11.13,11.13,0,0,1,168.52,64a22.73,22.73,0,0,1,2.84,1.63l.19.12c.64.58,1.29,1.17,1.88,1.81a1.66,1.66,0,0,0,.13.27.86.86,0,0,1,.12.35.66.66,0,0,1-.26.07c-1.82-1.57-6-4.7-10-4.67a6.88,6.88,0,0,0-5,2.19,7.43,7.43,0,0,0-.68.91c-.07.11-.13.22-.19.33l0,0c-.1.2-.2.41-.29.62h0a1.54,1.54,0,0,0-.08.19l0,0a1.46,1.46,0,0,1-.07.19v0c0,.07-.05.14-.07.2v0c-.06.22-.12.45-.16.68v0l0,.2,0,.08c0,.06,0,.13,0,.19a.28.28,0,0,0,0,.09l0,.19v.08c0,.22,0,.44,0,.67V71a1.09,1.09,0,0,0,0,.18v.14s0,.11,0,.17,0,.1,0,.15,0,.11,0,.17a1.49,1.49,0,0,0,0,.21l0,.23a1.36,1.36,0,0,0,0,.2.77.77,0,0,1,0,.15l0,.19,0,.16a1.62,1.62,0,0,0,0,.19l0,.15c0,.07,0,.15,0,.22l0,.13c0,.12,0,.23.08.35l0,.06c0,.1.05.2.08.31l0,.13c0,.08.05.16.07.24s0,.09,0,.14.05.16.07.24l.05.14a2.58,2.58,0,0,0,.08.26.56.56,0,0,1,0,.12l.14.39A26.17,26.17,0,0,0,159,79.05a2.5,2.5,0,0,0,.07.26,7.45,7.45,0,0,0,.27.92c.22.63.5,1.25.75,1.87l0,.08a1.34,1.34,0,0,1,.07.18c.49,1.27,1.41,2.19,1.62,3.58,0,.31.28.61.3.9s0,.4,0,.6c0,0,0,.1,0,.15s0,.13,0,.18c-.09,1-.33,1.87-.41,2.83a.91.91,0,0,0-.15.49c0,.34,0,.68,0,1a13.17,13.17,0,0,0-.09,1.55.94.94,0,0,0,.05.3,8.81,8.81,0,0,0,.15,1.53,3.74,3.74,0,0,0,.85,1.9c.39.41,1.11.52,1.6.77a2.52,2.52,0,0,0,2-.11,4.6,4.6,0,0,0,1-.35,6.49,6.49,0,0,0,2.76-2.37,7,7,0,0,0,.86-2.36,10.88,10.88,0,0,0,.14-3c0-.2,0-.39-.09-.58-.14-.7-.21-1.41-.34-2.12,0-.17-.22-.59-.17-.75a6.62,6.62,0,0,0,.13-1.89v0c0-.34.19-.7.18-1.06a8.68,8.68,0,0,1,0-1,12.65,12.65,0,0,0,0-2.61c0-.19,0-.38,0-.57,0-.85-.11-1.69-.22-2.53a2.26,2.26,0,0,0,0-.26c0-.1,0-.2,0-.31s0-.2,0-.3v-.14a13,13,0,0,0-1.3-5.6l.2-.1.25.3c.38.65.74,1.31,1.06,2,.15.32.28.65.4,1a12.23,12.23,0,0,1,.23,2.69c0,.15,0,.3,0,.43l.1.06.63.33.11,0,0,0,.09,0h0l.12,0h0l.13,0,0,0,.1,0,.05,0,.12.05h0l.15,0,0,0,.12,0,.05,0,.12,0,0,0,.17.05h0l.14,0,.06,0,.13,0h0l.19.06h0l.16,0h.06l.15,0,.06,0,.21,0,.2,0,.08,0,.13,0,.1,0,.12,0,.11,0,.12,0,.12,0h.11l.14,0,.1,0,.15,0h.1l.15,0h.1l.17,0h.09l.18,0h2.76a23,23,0,0,0,4.78-.87l.23-.07.1,0,0-.19a1.09,1.09,0,0,0,0-.18v-.17c0-.35.05-.69.09-1a.29.29,0,0,1,.07-.17v0a6.82,6.82,0,0,1,.07-.79.83.83,0,0,0,.12-.25l.18-.6a.32.32,0,0,1,0-.24,8.57,8.57,0,0,1,.48-1.37.24.24,0,0,1,.11-.13c0-.11,0-.21.08-.32a.25.25,0,0,1,.26-.21,1.59,1.59,0,0,1,.13-.22c.26-.3.54-.59.81-.88l.07,0a13.62,13.62,0,0,0-.78,1.8c0,.06,0,.11,0,.16a.28.28,0,0,1,0,.13l-.08.06a.45.45,0,0,1,0,.11c-.05.14-.09.28-.13.42s-.11.32-.16.48h0l0,.11s0,0,0,.06a2.33,2.33,0,0,0,0,.28.39.39,0,0,0-.08.1v0l0,.07a.25.25,0,0,1,0,.19c-.1.39-.19.79-.29,1.18,0,.07,0,.15,0,.22V76h0l-.12.79h0c0,.1,0,.2,0,.29v0h0v.18c0,.27,0,.54,0,.81a.28.28,0,0,1-.15.25c0,.43-.09.85-.12,1.28,0,.19,0,.38-.05.57a12.56,12.56,0,0,0,0,2.6,7,7,0,0,1-.05,1c0,.35.18.72.15,1.07v0a6.61,6.61,0,0,0,.07,1.89c0,.16-.16.58-.2.75-.15.7-.24,1.41-.41,2.1a5.86,5.86,0,0,0-.1.58,11,11,0,0,0,0,3,6.89,6.89,0,0,0,.79,2.38A6.52,6.52,0,0,0,188,98.05a4.4,4.4,0,0,0,1,.37,2.43,2.43,0,0,0,2,.18,5.38,5.38,0,0,0,1.62-.72,3.71,3.71,0,0,0,.92-1.87,9.73,9.73,0,0,0,.2-1.52,1.33,1.33,0,0,0,.06-.3,13.31,13.31,0,0,0,0-1.55c0-.34,0-.68,0-1a.86.86,0,0,0-.13-.49c-.05-1-.26-1.87-.32-2.83V88.1a.68.68,0,0,0,0-.14c0-.21,0-.4,0-.6s.27-.58.33-.9c.26-1.38,1.21-2.27,1.73-3.52l.08-.18,0-.08c.28-.61.57-1.22.82-1.85v0c.13-.22.28-.46.42-.72l0,0,.11-.21,0-.06a1.62,1.62,0,0,1,.1-.18l0-.08a1.62,1.62,0,0,1,.1-.18l0-.09.09-.17a.31.31,0,0,0,.05-.1l.09-.17a.47.47,0,0,0,.05-.1l.09-.17.05-.12a.89.89,0,0,0,.08-.17l.06-.11.08-.18.06-.11a1.42,1.42,0,0,1,.08-.18.61.61,0,0,1,.05-.12c0-.06,0-.13.08-.19l.05-.11.09-.21,0-.1.12-.31.15-.38,0-.13.09-.26a.88.88,0,0,0,.05-.15c0-.07,0-.15.08-.22s0-.11.05-.16l.07-.22s0-.1.05-.16l.06-.21,0-.15.06-.22a.83.83,0,0,0,0-.15l.06-.24,0-.11c0-.11.05-.23.07-.34l0-.14a1.18,1.18,0,0,1,0-.2,1,1,0,0,0,0-.16l0-.18,0-.17,0-.16c0-.06,0-.11,0-.17s0-.11,0-.16,0-.11,0-.17a.76.76,0,0,0,0-.15c0-.06,0-.11,0-.17v-.15c0-.21,0-.42,0-.63Z"/><path class="cls-7" d="M155,41a5.61,5.61,0,0,1,0,.58,3.12,3.12,0,0,0,.21,1.21c0,.6,0,1.21,0,1.81a.5.5,0,0,0,.12.32c0,.34,0,.68,0,1a.28.28,0,0,0,0,.09.5.5,0,0,0,0,.27v.61a.41.41,0,0,0,.09.28c0,.11,0,.22,0,.34a.22.22,0,0,0,0,.08h0c0,.12,0,.26,0,.4a.13.13,0,0,0,.11.13.12.12,0,0,0,.16-.09l.09-.34a.14.14,0,0,0,.1-.08h0a.11.11,0,0,0,.05-.1v-.05s0-.1.05-.14a.47.47,0,0,0,.28-.42v-.18a3.42,3.42,0,0,0,.66-1c.22-.43.41-.88.6-1.31a19.21,19.21,0,0,1,2.92-3.62,17.66,17.66,0,0,1,2.75-2.17l1.26-1h0a.23.23,0,0,0,.1-.15.59.59,0,0,0,0-.14h0a.71.71,0,0,0,0-.14.37.37,0,0,0,0-.11v0s0-.05,0-.07a.2.2,0,0,0-.11-.13l-.06-.14c-.1-.17-.27-.27-.38-.42a.36.36,0,0,0-.21-.13l-.24-.11a22,22,0,0,1-3.26-4.35h-.06a.52.52,0,0,0-.31-.29.78.78,0,0,0-.22,0,1.22,1.22,0,0,0-.59.07h0l-.1.06a1.91,1.91,0,0,0-.86.36A.66.66,0,0,0,158,32h0l-.19.08a.92.92,0,0,0-.32.14l-.11.11a.49.49,0,0,0-.34.22c-.2.12-.38.3-.58.45a2.43,2.43,0,0,0-.78,1,5.23,5.23,0,0,0-.31,1.41c-.08.52-.13,1-.18,1.57a16.18,16.18,0,0,0-.19,3.26C155,40.53,155,40.76,155,41Z"/><path class="cls-7" d="M193.58,37.56a1.55,1.55,0,0,0,0,.21h0c.06.51.07,1,.09,1.55l.1.09a19.21,19.21,0,0,1,5.83,6.33,1.87,1.87,0,0,0,.18.61,7,7,0,0,0,.45,1.31s.05.11.08.17a.29.29,0,0,0,0,.09.12.12,0,0,0,.16.08h.06a.19.19,0,0,0,.16-.19,5.31,5.31,0,0,0,0-.69.53.53,0,0,1,0-.13h0a.41.41,0,0,0,.13-.32,6.25,6.25,0,0,0,0-1c0-.05,0-.1,0-.15a2.21,2.21,0,0,1,.05-.25.16.16,0,0,0,0-.16v0a.51.51,0,0,0,.07-.24c.06-.65.07-1.31.1-2,.11-1,.23-2,.27-3,0-.27,0-.54,0-.81,0-.51.07-1,.1-1.55s0-.83.05-1.25a1.12,1.12,0,0,0-.11-.62,1.86,1.86,0,0,0-.31-1,7.43,7.43,0,0,1-.59-.91.46.46,0,0,0-.17-.17,1,1,0,0,0-.41-.29,1.42,1.42,0,0,0-.29-.26,1,1,0,0,0-.2-.14,2.39,2.39,0,0,0-.22-.23,2.83,2.83,0,0,0-.81-.46l-.16-.06c-.06,0-.19-.13-.16-.1a3.45,3.45,0,0,1-.28-.26l-.06-.09a3.79,3.79,0,0,1-.69-.43.93.93,0,0,0-.62.05,11.59,11.59,0,0,1-.87,1.12A18.46,18.46,0,0,1,194,34.1a2.66,2.66,0,0,0-.59,1.8C193.44,36.45,193.54,37,193.58,37.56Z"/><path class="cls-7" d="M193,33.83h0l0,0,0,0Z"/><path class="cls-7" d="M196.34,27.08c0,.07,0,.07,0-.12Z"/><path class="cls-5" d="M184,78.07l.49-.07a1.23,1.23,0,0,0,.59-.36,1.12,1.12,0,0,0,.26-.22,1.22,1.22,0,0,0,0-1.7l-.11-.11c.13-.3.22-.63.32-.94a.45.45,0,0,0-.16-.51.9.9,0,0,0,.15-.48.48.48,0,0,0,.06-.18,1.88,1.88,0,0,1,.16-.23.46.46,0,0,0,.14-.21l.1-.13a2.86,2.86,0,0,0,.5-.76.51.51,0,0,0-.74-.58,2.39,2.39,0,0,0-.63.71,6.58,6.58,0,0,0-.42.61.47.47,0,0,0-.29.24c-.14.34-.45.51-.7.74a.82.82,0,0,0-.41.27,4.68,4.68,0,0,0-.54.09c.37-.08-.37.06-.45.08-.68.19-1.34.44-2,.64a9.39,9.39,0,0,1-1.9.34,10.28,10.28,0,0,1-1.11,0l-.53,0h-.05l-.09,0a11.46,11.46,0,0,1-1.42-.39,7.23,7.23,0,0,1-1.4-.58c-.19-.11-.39-.2-.58-.3l-.22-.14c.08,0-.09-.09-.12-.12a1.76,1.76,0,0,0-.51-.3c-.14-.07-.26-.16-.39-.24l-.19-.11a.6.6,0,0,0-.25-.2,2.91,2.91,0,0,0-.51-.37,1.59,1.59,0,0,0-.43-.16h0a.42.42,0,0,1,0-.06.19.19,0,0,0-.35-.05,3.49,3.49,0,0,1-.32-.35c-.15-.17-.44.06-.31.24a8.54,8.54,0,0,0,.69.78,3.41,3.41,0,0,0,.28.5.66.66,0,0,0,.14.42h0a1.66,1.66,0,0,0,.18.35,2.88,2.88,0,0,0,.33.43,2.07,2.07,0,0,0,0,.22.7.7,0,0,0,.14.27.85.85,0,0,0-.22.09,1.21,1.21,0,0,0-.2.09.42.42,0,0,0-.19.32.83.83,0,0,0,0,.69.82.82,0,0,0,.21.44,1.11,1.11,0,0,0,.42.63,5,5,0,0,0,3.18,1.28,18.65,18.65,0,0,0,3.08.07c1.26,0,2.52,0,3.79-.11a13,13,0,0,0,2.13-.45l.41-.08C184.09,78.06,184.11,78.05,184,78.07Zm-13.42-5.69Zm.37,2.94.11-.07a.52.52,0,0,0-.11.1Z"/><path class="cls-5" d="M174,64.38a2.56,2.56,0,0,1-.39,0c.12,0-.25-.06-.31-.08l-.07,0-.16-.1c.2.13-.18-.23-.12-.14a1.45,1.45,0,0,0-.44-.41v0c-.16-.21-.28-.43-.45-.62a.53.53,0,0,0-.06-.1.83.83,0,0,0-.38-.32.68.68,0,0,0-.12-.12.54.54,0,0,0-.36-.33l0,0a.24.24,0,0,0-.15-.06h0a.24.24,0,0,0-.15.06l0,0a.5.5,0,0,0-.37.37.88.88,0,0,0,0,.53l0,.08a.68.68,0,0,0,.05.51,1.32,1.32,0,0,0,.15.39,7.37,7.37,0,0,1,.34.69,1,1,0,0,0,.42.65,2.68,2.68,0,0,0,1.69,1.14,5.82,5.82,0,0,0,1.32.08,5.86,5.86,0,0,1,1.45,0,24.29,24.29,0,0,0,4.34.44,9.67,9.67,0,0,0,4-.55,4.62,4.62,0,0,0,1.76-1.19,4.23,4.23,0,0,0,.59-.86.77.77,0,0,0,.07-.16l.11-.25c0,.11,0,.1,0,0a1.2,1.2,0,0,0,0-1.06.88.88,0,0,0-.4-.53.76.76,0,0,0-.87.1,1.66,1.66,0,0,0-.77.78,1.82,1.82,0,0,1-.16.31l-.09.15,0,0,0,0-.24.24,0,0-.13.1a3.35,3.35,0,0,1-.36.21l-.15.08h0l0,0a6.61,6.61,0,0,1-.76.22,3.58,3.58,0,0,1-.45.09h-.08l-.18,0a13.08,13.08,0,0,1-1.77,0,18.94,18.94,0,0,1-3.36-.29,9.75,9.75,0,0,0-1.42-.22C174.93,64.29,174.46,64.38,174,64.38Zm-1.12-.16h0v.14S172.86,64.26,172.86,64.22Z"/><path class="cls-5" d="M157.32,47.33A9.32,9.32,0,0,1,159,45.18a7.82,7.82,0,0,0,.94-1,12,12,0,0,1,1-1.13,8.83,8.83,0,0,1,2.18-1.62,3,3,0,0,1,1.84-.2,3.94,3.94,0,0,1,1.76.7.78.78,0,0,0,.57.23h0a.6.6,0,0,0,.4.17,1.49,1.49,0,0,1,.91.37,3.41,3.41,0,0,1,1.1,1.7,5.38,5.38,0,0,1,.17.89c0,.51.06,1,.1,1.52l0,.42a.48.48,0,0,0,0,.17.06.06,0,0,0,0,0v0h0l0,.56a1.56,1.56,0,0,0,.33,1.13.52.52,0,0,0,.72,0c.46-.49.31-1.29.27-1.9s-.1-1.44-.15-2.16c0-.54,0-1.09-.09-1.63,0-.37-.18-.91,0-1.22a.52.52,0,0,0,0-.51,1.77,1.77,0,0,0-.12-.17.39.39,0,0,0-.68.07l0,0a.64.64,0,0,0-.39-.29.36.36,0,0,0-.15,0h0a.76.76,0,0,0-.33,0,.82.82,0,0,0-.4.1l0,0a.19.19,0,0,0-.36,0,.38.38,0,0,0,0,.1h0c-.14-.1-.33-.13-.47-.23a1.2,1.2,0,0,0-.23-.11c.14,0,0,0,0-.07a1.08,1.08,0,0,0-.34-.2,3.69,3.69,0,0,0-1.32-.79c-.06-.42-.64-.71-1-.75a3.7,3.7,0,0,0-.94,0v0a.36.36,0,0,0-.45-.34,1.18,1.18,0,0,0-.78.71.2.2,0,0,0,0,.21,5.07,5.07,0,0,0-1.41.68,11,11,0,0,0-3,3c-.07.09-.08.23-.15.32s-.2.25-.3.38-.35.53-.52.8a6.64,6.64,0,0,0-.81,1.9A.25.25,0,0,0,157.32,47.33Z"/><path class="cls-5" d="M200,46.6a1.93,1.93,0,0,0-.2-1.28,6.15,6.15,0,0,1-.65-1.31c0-.24-.3-.38-.37-.62s0-.3,0-.44-.09-.28-.13-.42a1.2,1.2,0,0,0-.21-.51c-.06-.08-.11-.14-.16-.22a.34.34,0,0,1,0-.23c0-.06,0-.31,0,0a.8.8,0,0,0-.33-.85,9.31,9.31,0,0,0-.82-1.68,6.54,6.54,0,0,1-.48-1,4.36,4.36,0,0,1-.29-.93,7.43,7.43,0,0,1,.17-2.53A25.38,25.38,0,0,0,197,32c.06-.46-.55-.6-.84-.35l-.19.17c.23-.21-.06,0-.17.07a2.14,2.14,0,0,0-.65.72c-.18.28-.33.59-.49.88a3.87,3.87,0,0,1-.27.43s-.2.17-.13.14a1,1,0,0,0-.23.14H194a.31.31,0,0,0-.32.19,3.06,3.06,0,0,0-.21,1c0,.31.06.61.05.92s-.12.38-.13.58-.06.36-.08.54a1.54,1.54,0,0,0,.15.88,1.76,1.76,0,0,0,.2.71,2,2,0,0,0,1.15.82h0v0a.61.61,0,0,0,.28.5.31.31,0,0,0,.23.15,2.91,2.91,0,0,0,.57.64v0c-.12-.08-.26-.13-.37-.2l-.62-.34a0,0,0,0,0,0,0,.83.83,0,0,0-.25-.52,2.11,2.11,0,0,1-.19-.23.68.68,0,0,0-.31-.25l0,0-.17-.14a3.65,3.65,0,0,0-.73-.23,3,3,0,0,0-.78-.18,4,4,0,0,0-1.83.12,4.19,4.19,0,0,0-2.36,2.09.56.56,0,0,0-.28-.37.68.68,0,0,0-1,.43,6.58,6.58,0,0,0-.06,1.6c0,.35,0,.73,0,1.1a.38.38,0,0,0,0,.1c-.06.23-.09.48-.13.72a9.41,9.41,0,0,1-.24,1.15,4.88,4.88,0,0,0-.1,1.15,5.71,5.71,0,0,1-.4,2,.75.75,0,0,0,.26,1,.75.75,0,0,0,1-.27s0-.09.07-.14a12.47,12.47,0,0,0,.8-4.06c.05-.63.12-1.25.13-1.88a2.25,2.25,0,0,1,.08-.24,3.56,3.56,0,0,1,.44-1.1,4.31,4.31,0,0,0,.56-.83,2.94,2.94,0,0,1,.71-.74,2.35,2.35,0,0,1,1.9-.63c.38,0,.75.18,1.14.23h.25l.05,0a.77.77,0,0,0,.28.12c.1.08.18.16.28.23a.4.4,0,0,0,.2.3,8.67,8.67,0,0,1,1.92,1,.25.25,0,0,0,.35-.36.36.36,0,0,1-.07-.1.5.5,0,0,0,.2.08l0,0a.49.49,0,0,0,.13.12c0,.1.06.2.1.3a1.89,1.89,0,0,0,.47.62,1.32,1.32,0,0,0,.18.33c.1.17.09.42.18.62a2,2,0,0,0,.35.5c.06.06.17.23.1,0a1.69,1.69,0,0,0,.13.31,8.4,8.4,0,0,0,.61.94,2.13,2.13,0,0,1,.32,1.1.38.38,0,0,0,.32.37c.14.27.63.22.61-.14A.71.71,0,0,0,200,46.6Zm-11.83-5.38v0C188.19,41.16,188.18,41.12,188.21,41.22Zm5.8-.41Zm1-3.07A2.56,2.56,0,0,1,195,38h0C195,37.91,195,37.83,195,37.74Zm.3-3.13,0,0a.27.27,0,0,0,.07-.08C195.3,34.53,195.28,34.57,195.27,34.61ZM199.52,47a.15.15,0,0,0,0,.07A.15.15,0,0,1,199.52,47Z"/><path class="cls-5" d="M159,42.27a.42.42,0,0,0,.42-.15.3.3,0,0,0,.3-.13.44.44,0,0,0,.38-.26,1.35,1.35,0,0,0,.4-.26c.09-.08.21-.12.3-.21a.71.71,0,0,0,.13-.22.61.61,0,0,0,.19-.2,7.64,7.64,0,0,0,1-.71,1.12,1.12,0,0,0,.38-.53,2.86,2.86,0,0,0,1-2.53,8.09,8.09,0,0,0-1.12-2.78,9.11,9.11,0,0,1-.6-1.16c-.17-.48-.62-.78-.88-1.21s-.81-.58-1.18-.86c-.22-.17-.5,0-.74,0a.2.2,0,0,0,0,.38l.37.07a7.82,7.82,0,0,0,.45.72c.29.37.51.79.8,1.16a.23.23,0,0,0,0,.07,1.12,1.12,0,0,0,.08.26c.07.2.16.4.24.6.16.38.34.75.53,1.12a4.28,4.28,0,0,1,.65,2.1,1.47,1.47,0,0,1-.4.84c-.19.22-.47.37-.55.66a1.37,1.37,0,0,0,0,.19c-.15.16-.31.32-.48.47s-.39.19-.51.4l0,.06a.54.54,0,0,0-.26.48s0,.08,0,.12l-.12.14h0a.45.45,0,0,0-.44.36.42.42,0,0,0-.16.32.23.23,0,0,0-.14.23h0A.23.23,0,0,0,159,42.27Z"/><path class="cls-5" d="M170.89,88.62c-.26-.43.1-.91.08-1.36s-.24-1-.26-1.55c0-.28-.45-.29-.44,0a7.34,7.34,0,0,0,.18,1.33,2.27,2.27,0,0,1-.24,1.11,1.75,1.75,0,0,1-.22.63,1.6,1.6,0,0,0-.32.81c0,.19-.16.4-.2.64s-.06.41-.12.7A9.31,9.31,0,0,1,167,95.39a1,1,0,0,0-.63.49.08.08,0,0,1,0,0,.83.83,0,0,0-.55.4,1.12,1.12,0,0,1-.1.16l0,0-.05,0a1.36,1.36,0,0,1-.52.22,2.2,2.2,0,0,1-1.14,0c-.1,0,0,0-.16-.07a1.41,1.41,0,0,0-.34-.19,2.16,2.16,0,0,1-.66-.2c-.08,0-.24-.16-.41-.27l-.19-.11a.34.34,0,0,0-.4-.24.19.19,0,0,0-.17-.09.2.2,0,0,0-.19.11,1.28,1.28,0,0,0-.11.24.34.34,0,0,0,.11.32.33.33,0,0,0,0,.17,1.58,1.58,0,0,0,.24.44,2.28,2.28,0,0,0,1.22,1,2.94,2.94,0,0,0,2.14.51,3.24,3.24,0,0,0,1.91-.79,1,1,0,0,0,.27-.1l.1-.07a.8.8,0,0,0,.61-.31,1.91,1.91,0,0,0,.34-.24.19.19,0,0,0,.29.25,2.94,2.94,0,0,1,.55-.37A4.13,4.13,0,0,0,170,96a3.45,3.45,0,0,0,1.21-2.1.45.45,0,0,0-.56-.43,14.77,14.77,0,0,0,.53-1.45,7.84,7.84,0,0,0,.31-1.66,4.69,4.69,0,0,0-.16-.91A2.26,2.26,0,0,0,170.89,88.62Z"/><path class="cls-5" d="M194.41,95.57c0-.22,0-.43-.1-.65l0-.12a1.72,1.72,0,0,0-.27-1.07h0a4.55,4.55,0,0,0,.22-1,1.32,1.32,0,0,0-.13-1,.23.23,0,0,0-.39,0,2.22,2.22,0,0,0-.27,1.08l0,.18c0-.15,0-.29,0-.44a.2.2,0,0,0-.39,0c0,.37,0,.74,0,1.11a4.82,4.82,0,0,1-.51.92,3.11,3.11,0,0,1-.34.52,4.07,4.07,0,0,0-.33.48c-.17.28-.32.57-.51.84a5.62,5.62,0,0,1-1,.19,3.71,3.71,0,0,1-2-.31l-.22-.11s-.35-.22-.17,0c-.12-.11-.24-.2-.37-.3a.62.62,0,0,0-.2-.1l-.18-.13,0,0,0,0a1.74,1.74,0,0,1-.14-.14.73.73,0,0,0-.15-.29,1.28,1.28,0,0,0-.22-.17l0,0-.17-.13a.54.54,0,0,0,0-.11,1.07,1.07,0,0,0-.14-.16l0,0a.16.16,0,0,0,0-.1,13.16,13.16,0,0,0-.69-2.55,4.59,4.59,0,0,1,0-1.23c0-.4,0-.81,0-1.21s0-.73-.06-1.09a3.55,3.55,0,0,0-.07-.57l0-.17h0a.2.2,0,0,0,0-.39c-.7-.13-.64.76-.68,1.25-.06.79-.08,1.59-.09,2.39v0c-.06.34-.18.68-.24,1a4.28,4.28,0,0,0,.25,2c.1.34,0,.72.25,1h0l0,.1a1.84,1.84,0,0,0,0,.41.63.63,0,0,0,.26.58,3.62,3.62,0,0,0,1.19,1.54c.36.32.49.68,1,.85s1,.44,1.49.61a5.66,5.66,0,0,0,2.94-.14,2,2,0,0,0,1.34-.67,1.88,1.88,0,0,0,.21-.31,1,1,0,0,0,.18-.22,2.23,2.23,0,0,0,.9-1.44A.71.71,0,0,0,194.41,95.57Zm-7.59-.29h0C186.84,95.37,186.84,95.36,186.82,95.28Z"/><path class="cls-5" d="M192.5,61.66l.07,0Z"/><path class="cls-5" d="M198.38,64.11a6.82,6.82,0,0,1-.58-.49,3.85,3.85,0,0,0-.68-.39,8,8,0,0,0-1.37-.61,2.19,2.19,0,0,1-.59-.35.49.49,0,0,0-.33-.06.54.54,0,0,0-.28-.16.37.37,0,0,0-.21,0,.19.19,0,0,0-.14,0,.22.22,0,0,0-.2.12.2.2,0,0,0,0,.08,4.8,4.8,0,0,0-.87-.32.79.79,0,0,1-.22-.06c.2.07-.41-.17-.37-.16a1.28,1.28,0,0,0-.75,0,4.08,4.08,0,0,0-.59.11h-.37a1.76,1.76,0,0,1-.27,0l-.45-.11c-.15,0-.3-.1-.44-.15h0l-.16-.08c-.22-.11-.44-.24-.65-.37l0,0,0,0-.05,0a1.2,1.2,0,0,0-.77-.55l0-.06,0,0h0l-.05-.08a2,2,0,0,0-.55-.64l-.31-.12h0a4.67,4.67,0,0,1-1.29-.92,6.4,6.4,0,0,1-1-1.18,2,2,0,0,1-.26-.51,1.53,1.53,0,0,0-.6-.66,5.64,5.64,0,0,0-.42-.77c-.17-.3-.26-.63-.43-.94a2.27,2.27,0,0,0-.33-.42,1.4,1.4,0,0,1-.16-.4,1.53,1.53,0,0,1-.23-1,.2.2,0,0,0-.38-.11v0h-.07a.21.21,0,0,0-.42,0,1.77,1.77,0,0,1,0,.23.22.22,0,0,0,.16.22,4.91,4.91,0,0,0,.22,1.7,20.09,20.09,0,0,0,.72,2.15.34.34,0,0,0,.34.22l.21.26a5.66,5.66,0,0,0,1,2.19,6.75,6.75,0,0,0,1.85,1.84,4.66,4.66,0,0,0,.59.83,1.27,1.27,0,0,0,.42.33,3.17,3.17,0,0,0,.48.49.55.55,0,0,0-.24.15.4.4,0,0,0,0,.72c.29.32,1,.19,1.3,0a.49.49,0,0,0,.14-.15c.29.12.59.23.86.32a5.39,5.39,0,0,0,1.82.26,2.14,2.14,0,0,0,1.59-.69l.12,0a1.58,1.58,0,0,1,.31,0,2.37,2.37,0,0,0,.65.09,1.23,1.23,0,0,0,.29-.07.6.6,0,0,0,.41.06s.23.09.34.09H195a.43.43,0,0,0,.38.12.22.22,0,0,0,.21-.2l.19,0c-.26,0,0,.08.08.11s.4.22.6.33a2.61,2.61,0,0,1,.92.65c.24.35.73.5.87.92.26.79,1.52.43,1.23-.34A2.42,2.42,0,0,0,198.38,64.11Z"/><path class="cls-5" d="M162.83,62.93a6.15,6.15,0,0,1,1.66-.08c.41,0,.81,0,1.21,0a.83.83,0,0,0,.52.33,5.52,5.52,0,0,0,1.12.21,1.63,1.63,0,0,0,.44,0,2.21,2.21,0,0,0,.67-.13,4.45,4.45,0,0,0,1-.52c.19-.13.37-.28.55-.42a1.19,1.19,0,0,0,.43-.16,1.06,1.06,0,0,0,.29-.24l.07,0a1,1,0,0,0,.33-.32,2.06,2.06,0,0,0,.57-.45.93.93,0,0,0,.61-.53l0,0a.79.79,0,0,0,.56-.47,3,3,0,0,0,.27-.32,4.1,4.1,0,0,0,.47-.56l.39-.73c.5-.93,1-1.86,1.4-2.83A7.74,7.74,0,0,0,176,52.9a2.46,2.46,0,0,0-.05-.76,1.93,1.93,0,0,0-.67-1.4h0c0-.17-.14-.38-.35-.35l-.24,0a.31.31,0,0,0-.14.59.39.39,0,0,0,.19.29,1.17,1.17,0,0,1,.31,1.12A11.18,11.18,0,0,1,174.8,54a8.53,8.53,0,0,1-4.33,5.54c-.28.17-.56.31-.85.46a2.52,2.52,0,0,1-.33.14l0,0a1.83,1.83,0,0,0-.53.25l-.28.17-.4,0c-.3.06-.61.07-.9.14a.29.29,0,0,0-.2.3h-.07a1.47,1.47,0,0,0-.62-.05c-1.52.21-3.07-.12-4.52.47-.36.14-.71.31-1.06.47a6.5,6.5,0,0,0-1,.38,4.48,4.48,0,0,0-.44.32.94.94,0,0,0-.14.19H159a1.6,1.6,0,0,0-.23,0,.33.33,0,0,0-.28.17,3.24,3.24,0,0,1-1,1,.55.55,0,0,0-.51.14,2.19,2.19,0,0,0-.57.79.57.57,0,0,0-.06.25v.06a.5.5,0,0,0,.12.33.45.45,0,0,0,.75.22c.05-.07.12-.13.16-.2s0-.1.05-.17l.07-.09a.92.92,0,0,0,.33-.29.9.9,0,0,0,.08-.23,4.4,4.4,0,0,0,.6-.62.3.3,0,0,0,.48.08,2.45,2.45,0,0,1,.8-.45,1.64,1.64,0,0,0,.76,0,9.4,9.4,0,0,0,.88-.34A10.34,10.34,0,0,1,162.83,62.93Zm8.61-1.68c-.33.08-.1,0,0,0Z"/><path class="cls-11" d="M201.2,65.31a17.6,17.6,0,0,0,1.45-8.92h0A30.43,30.43,0,0,0,201.51,50c0-.31.06-.62.08-.89V49c0-.15,0-.29,0-.42a1.29,1.29,0,0,0,.22-.7c0-.2,0-.4,0-.57a1.46,1.46,0,0,0,.11-.55,6.93,6.93,0,0,0,0-1l0-.13a1.2,1.2,0,0,0,0-.38,2,2,0,0,0,0-.24c0-.46.05-.92.07-1.36l0-.6c0-.18,0-.35.05-.53h0c.09-.81.18-1.65.22-2.49,0-.27,0-.55,0-.83,0-.59.07-1.07.09-1.52s0-.84.05-1.29a2.24,2.24,0,0,0-.11-.89,3,3,0,0,0-.47-1.36,4,4,0,0,0-.29-.43,2.05,2.05,0,0,1-.23-.35,1.5,1.5,0,0,0-.44-.56,1.27,1.27,0,0,0-.12-.1,1.31,1.31,0,0,0-.41-.3,1.9,1.9,0,0,0-.76-.46h0a1.5,1.5,0,0,0-.38-.19,1.92,1.92,0,0,1-1-.25c-1.38-.81-.59-3.8-.38-5.09A22.84,22.84,0,0,0,197.09,14L197,13.8a1.65,1.65,0,0,1-1.27-.9l-.06-.15A1.7,1.7,0,0,1,195,12c-1.94-3.8-3.55-7.25-7.43-9.48A19.39,19.39,0,0,0,176.84,0c-.68,0-1.31.23-2,.31a22.35,22.35,0,0,0-2.47.64c-2.34.58-6,3.38-7.48,5.28a28.59,28.59,0,0,0-3.38,6.1h0c-.31.77-.6,1.54-.86,2.33a2,2,0,0,1-2.36,1.34h0c.53.16.05,4.59,0,5.08-.12,2.74.5,5.05.79,7.77.2,1.91-.85,1.78-2.41,2.49a1.52,1.52,0,0,0-.49.35,4.15,4.15,0,0,0-.36.28l-.15.13a3.5,3.5,0,0,0-1.13,1.48,5.66,5.66,0,0,0-.36,1.52l0,.16c-.07.52-.12,1-.17,1.54v.08c0,.25-.05.51-.08.76a11.72,11.72,0,0,0-.11,2.73c0,.25.06.5.11.75,0,0,0,.1,0,.14s0,.19,0,.3a4.58,4.58,0,0,0,.22,1.39c0,.25,0,.49,0,.73s0,.58,0,.88a1.71,1.71,0,0,0,.11.59v.09c0,.21,0,.43,0,.64v0a1.55,1.55,0,0,0,0,.43v.51a1.89,1.89,0,0,0,.08.53v.19c0,.11,0,.23,0,.36a1.2,1.2,0,0,0,.12.59,8.75,8.75,0,0,0,.27,1.57,29.66,29.66,0,0,0-1.07,5.46h0a17.62,17.62,0,0,0,1.15,8.95,10.38,10.38,0,0,0,1,1.77,3.52,3.52,0,0,0,.41.8v0h0l0,0-.09.22,0,.06-.07.22,0,.06-.08.23v0c-.07.25-.13.51-.19.78v0a1.85,1.85,0,0,1,0,.23v.08l0,.21s0,.07,0,.1h0l0,.21v.09l.42,0-.42,0a6,6,0,0,0,0,.74v.65s0,.09,0,.14h0a.76.76,0,0,0,0,.15v0s0,.1,0,.15a1.23,1.23,0,0,0,0,.19,1.64,1.64,0,0,0,0,.23l0,.25,0,.21s0,.07,0,.11v.06l0,.19,0,.18v0l0,.16,0,.14v0c0,.08,0,.16.05.24v0s0,.06,0,.1.06.24.09.38l0,0a3,3,0,0,0,.08.32,1,1,0,0,0,0,.14v.07l.06.18c0,.05,0,.11,0,.16s.05.16.08.25l0,.14.09.27a.65.65,0,0,1,0,.13c.05.15.1.28.14.41A29.66,29.66,0,0,0,158,79.44s0,.1.05.15a9.7,9.7,0,0,0,.3,1c.17.5.38,1,.57,1.46.07.15.13.31.19.46l0,.07a.69.69,0,0,1,0,.13l0,.05a10.54,10.54,0,0,0,.78,1.54,5.18,5.18,0,0,1,.78,1.81,2.81,2.81,0,0,0,.23.71L161,87c0,.14,0,.31,0,.47v.23c0,.43-.12.85-.19,1.29s-.15.86-.2,1.32a2.11,2.11,0,0,0-.18.78c0,.32,0,.66,0,1a11.8,11.8,0,0,0-.09,1.65,1.8,1.8,0,0,0,.05.46,10.4,10.4,0,0,0,.16,1.56,4.77,4.77,0,0,0,1.13,2.46,3.69,3.69,0,0,0,1.46.83,3.41,3.41,0,0,1,.44.17,2.72,2.72,0,0,0,1.2.28,4.06,4.06,0,0,0,1.63-.33,5.29,5.29,0,0,0,1.1-.4,7.6,7.6,0,0,0,3.24-2.79,8.24,8.24,0,0,0,1-2.73,12.35,12.35,0,0,0,.15-3.29c0-.24-.07-.47-.11-.68s-.11-.67-.16-1-.11-.71-.18-1.07a2.42,2.42,0,0,0-.1-.36.61.61,0,0,0,0-.11,6.65,6.65,0,0,0,.12-1.64c0-.11,0-.22,0-.33v-.08s0-.15.05-.21a3.06,3.06,0,0,0,.14-.85c0-.1,0-.21,0-.31a4,4,0,0,1,0-.6c0-.11,0-.21,0-.32v0a11.59,11.59,0,0,0,0-2.43c0-.18,0-.35,0-.53,0-.44,0-.88-.08-1.32l0,0,.14.06,0,0,.13,0,.08,0,.07,0,.05,0,.12.06h0l.15,0,.05,0,.13,0h0l.05,0,.14,0h0l.18.06h0l.16.06h.05l.14,0,.07,0,.2.06h0l.11,0,.06,0h.07l.16,0,.07,0,.21.05.22,0,.1,0,.12,0,.12,0,.13,0,.11,0,.12,0,.12,0,.14,0,.14,0h.11l.16,0,.1,0,.17,0h.23l.15,0h2.78l.31,0h0a23.7,23.7,0,0,0,4.38-.73c0,.31-.06.62-.09.91s0,.35,0,.53a11.62,11.62,0,0,0-.06,2.42c0,.12,0,.24,0,.36a4.16,4.16,0,0,1,0,.6h0c0,.1,0,.2,0,.3a3,3,0,0,0,.1.86,2.09,2.09,0,0,1,.05.21v.07c0,.11,0,.22,0,.32v0a7,7,0,0,0,.06,1.64.36.36,0,0,1,0,.11,3.58,3.58,0,0,0-.11.35c-.08.37-.14.72-.2,1.07s-.13.7-.2,1-.09.44-.13.68a11.75,11.75,0,0,0,0,3.29,8.09,8.09,0,0,0,.91,2.76,7.63,7.63,0,0,0,3.14,2.9,5.78,5.78,0,0,0,1.09.44,4.22,4.22,0,0,0,1.62.38,2.79,2.79,0,0,0,1.21-.25,3.69,3.69,0,0,1,.44-.15,3.55,3.55,0,0,0,1.48-.78,4.75,4.75,0,0,0,1.22-2.42,10,10,0,0,0,.21-1.55,1.84,1.84,0,0,0,.07-.47,13,13,0,0,0,0-1.64v-1a2.13,2.13,0,0,0-.15-.79c0-.46-.1-.9-.15-1.32a12.05,12.05,0,0,1-.15-1.3v-.07c0-.05,0-.11,0-.16s0-.33,0-.47l.07-.15a2.67,2.67,0,0,0,.25-.7,5.25,5.25,0,0,1,.84-1.78,11.54,11.54,0,0,0,.84-1.53,1.11,1.11,0,0,1,.07-.16l0-.07c.06-.15.13-.3.2-.45h0c.2-.45.41-.91.6-1.39.13-.21.26-.44.38-.65l0,0,0-.06.08-.15.13-.22,0-.1.1-.19a.93.93,0,0,0,0-.1l.09-.17.06-.11a1.5,1.5,0,0,0,.09-.18l0-.1.09-.18.06-.11.05-.12.09-.18.09-.19h0a.39.39,0,0,0,0-.09v0a1.42,1.42,0,0,0,.08-.18L199,78l.09-.2a1,1,0,0,1,0-.1h0l.07-.18.06-.14c.05-.11.09-.22.13-.32s.1-.25.16-.42l0-.12.09-.27a.69.69,0,0,0,0-.1l0-.09.07-.21v0s0-.09,0-.14.05-.15.07-.22,0-.09.05-.13v0l.06-.23.05-.16.06-.22h0c0-.05,0-.1,0-.16l.06-.23,0-.15a3.21,3.21,0,0,0,.08-.36.43.43,0,0,0,0-.11v0a1.55,1.55,0,0,0,0-.21l0-.18,0-.15v0s0-.14,0-.19l0-.18a1,1,0,0,1,0-.16h0c0-.06,0-.13,0-.18s0-.12,0-.18,0-.12,0-.17,0-.12,0-.19a.49.49,0,0,1,0-.12v0c0-.23,0-.47,0-.71v-.14a1.21,1.21,0,0,0,0-.19v0a.28.28,0,0,0,0-.09c0-.07,0-.13,0-.19s0-.09,0-.13a1.36,1.36,0,0,1,0-.2.69.69,0,0,1,0-.13l0-.18a.43.43,0,0,0,0-.11v0l0-.19a.29.29,0,0,1,0-.09v0c0-.25-.11-.5-.18-.73h0s0,0,0-.06-.05-.13-.07-.2l0-.1-.06-.19v0a.3.3,0,0,0,0-.08,1.34,1.34,0,0,0-.07-.18h0a.93.93,0,0,1-.05-.1l0,0a2.68,2.68,0,0,0,.28-.49A9.33,9.33,0,0,0,201.2,65.31Zm-4.86-38.23,0-.12C196.33,27.15,196.33,27.15,196.34,27.08Zm-2.32,7a18.46,18.46,0,0,0,1.46-1.69,11.59,11.59,0,0,0,.87-1.12.93.93,0,0,1,.62-.05,3.79,3.79,0,0,0,.69.43l.06.09A3.45,3.45,0,0,0,198,32s.1.06.16.1l.16.06a2.83,2.83,0,0,1,.81.46,2.39,2.39,0,0,1,.22.23,1,1,0,0,1,.2.14,1.42,1.42,0,0,1,.29.26,1,1,0,0,1,.41.29.46.46,0,0,1,.17.17,7.43,7.43,0,0,0,.59.91,1.86,1.86,0,0,1,.31,1,1.12,1.12,0,0,1,.11.62c0,.42,0,.83-.05,1.25s-.06,1-.1,1.55c0,.27,0,.54,0,.81,0,1-.16,2-.27,3,0,.65,0,1.31-.1,2a.51.51,0,0,1-.07.24v0a.16.16,0,0,1,0,.16,2.21,2.21,0,0,0-.05.25s0,.1,0,.15a6.25,6.25,0,0,1,0,1,.41.41,0,0,1-.13.32h0a.53.53,0,0,0,0,.13,5.31,5.31,0,0,1,0,.69.19.19,0,0,1-.16.19h-.06a.12.12,0,0,1-.16-.08.29.29,0,0,1,0-.09c0-.06-.05-.12-.08-.17a7,7,0,0,1-.45-1.31,1.87,1.87,0,0,1-.18-.61,19.21,19.21,0,0,0-5.83-6.33l-.1-.09c0-.52,0-1-.09-1.55h0a1.55,1.55,0,0,1,0-.21c0-.55-.14-1.11-.15-1.66A2.66,2.66,0,0,1,194,34.1Zm-1-.27h0l0,0ZM155.12,37c0-.53.1-1.05.18-1.57a5.23,5.23,0,0,1,.31-1.41,2.43,2.43,0,0,1,.78-1c.2-.15.38-.33.58-.45a.49.49,0,0,1,.34-.22l.11-.11a.92.92,0,0,1,.32-.14l.19-.08h0a.66.66,0,0,1,.19-.09,1.91,1.91,0,0,1,.86-.36l.1-.06h0a1.22,1.22,0,0,1,.59-.07.78.78,0,0,1,.22,0,.52.52,0,0,1,.31.29h.06a22,22,0,0,0,3.26,4.35l.24.11a.36.36,0,0,1,.21.13c.11.15.28.25.38.42l.06.14a.2.2,0,0,1,.11.13s0,.06,0,.07v0a.37.37,0,0,1,0,.11.71.71,0,0,1,0,.14h0a.59.59,0,0,1,0,.14.23.23,0,0,1-.1.15h0l-1.26,1a17.66,17.66,0,0,0-2.75,2.17,19.21,19.21,0,0,0-2.92,3.62c-.19.43-.38.88-.6,1.31a3.42,3.42,0,0,1-.66,1v.18a.47.47,0,0,1-.28.42s0,.09-.05.14v.05a.11.11,0,0,1-.05.1h0a.14.14,0,0,1-.1.08l-.09.34a.12.12,0,0,1-.16.09.13.13,0,0,1-.11-.13c0-.14,0-.28,0-.4h0a.22.22,0,0,1,0-.08c0-.12,0-.23,0-.34a.41.41,0,0,1-.09-.28V46.3a.5.5,0,0,1,0-.27.28.28,0,0,1,0-.09c0-.35,0-.69,0-1a.5.5,0,0,1-.12-.32c0-.6,0-1.21,0-1.81a3.12,3.12,0,0,1-.21-1.21,5.61,5.61,0,0,0,0-.58c0-.23-.07-.46-.1-.7A16.18,16.18,0,0,1,155.12,37Zm.67,27.07a16.57,16.57,0,0,1-1.06-8.4,28.42,28.42,0,0,1,1.12-5.56l.24-.76a1.43,1.43,0,0,0,.08-.22,25.75,25.75,0,0,1,2.88-5.31,13.62,13.62,0,0,1,6.42-5.22,4.84,4.84,0,0,1,.54-.17.32.32,0,0,0,.13-.08l.16.11.13.1.29.21.15.1.31.21.12.09.4.25.2.12.23.14.22.13.22.13.22.12h0l.37.2v0a3.75,3.75,0,0,1,2,1.19,3.57,3.57,0,0,1,.59.81,3.39,3.39,0,0,1,.39,1.2,2.27,2.27,0,0,1,.39.89,3.2,3.2,0,0,1,0,1.71,3,3,0,0,1-.5,1,3.16,3.16,0,0,1-1,1,8.84,8.84,0,0,1-1.7.74,2.61,2.61,0,0,1-.27.19l-.41.15a3.84,3.84,0,0,0-2.52,3c-.07.36-.51.77-1.11,1.14a12.5,12.5,0,0,1-2.22,1.87l0,.05a14.57,14.57,0,0,0,1.89-.79c1.38-.7,2.11-1.39,2.23-2.13a3,3,0,0,1,2-2.34,5.47,5.47,0,0,1,1.12-.33.42.42,0,0,0,.14.09l.11,0,0,.55-.21.11,0,0a.21.21,0,0,1-.18.11h0l0,0s0,0,0,.06l-.2.23a.14.14,0,0,1,0,.09,3.78,3.78,0,0,1-.57,1.2h0l.06-.05h0c-.11.17-.22.35-.32.54a.25.25,0,0,0,0,.3,3.31,3.31,0,0,1,.37-.55,6,6,0,0,1,.63-.7.46.46,0,0,1,.24-.15h0a.2.2,0,0,1,.19-.19h.07l.15-.21a5.54,5.54,0,0,1,.69-.34h0v0a4.58,4.58,0,0,1,2.09-.42,2.8,2.8,0,0,1,2,1.1c.64.79.7,1.94.16,3.42a18.24,18.24,0,0,1-7.16,8.18.2.2,0,0,0-.13,0l-.09,0a.3.3,0,0,0-.34,0l-.12,0a.19.19,0,0,0-.09,0,7,7,0,0,0-5.44-.61,8.59,8.59,0,0,0-4.93,3.09l-.24.38-.13-.17A8.71,8.71,0,0,1,155.79,64.1Zm43.78,7.45v.15c0,.06,0,.11,0,.17a.76.76,0,0,1,0,.15c0,.06,0,.11,0,.17s0,.11,0,.16,0,.11,0,.17l0,.16,0,.17,0,.18a1,1,0,0,1,0,.16,1.18,1.18,0,0,0,0,.2l0,.14c0,.11,0,.23-.07.34l0,.11-.06.24a.83.83,0,0,1,0,.15l-.06.22,0,.15L199,75c0,.06,0,.11-.05.16l-.07.22s0,.1-.05.16,0,.15-.08.22a.88.88,0,0,1-.05.15l-.09.26,0,.13-.15.38-.12.31,0,.1-.09.21-.05.11c0,.06,0,.13-.08.19a.61.61,0,0,0-.05.12,1.42,1.42,0,0,0-.08.18l-.06.11-.08.18-.06.11a.89.89,0,0,1-.08.17l-.05.12-.09.17a.47.47,0,0,1-.05.1l-.09.17a.31.31,0,0,1-.05.1l-.09.17,0,.09a1.62,1.62,0,0,0-.1.18l0,.08a1.62,1.62,0,0,0-.1.18l0,.06-.11.21,0,0c-.14.26-.29.5-.42.72v0c-.25.63-.54,1.24-.82,1.85l0,.08-.08.18c-.52,1.25-1.47,2.14-1.73,3.52-.06.32-.3.6-.33.9s0,.39,0,.6a.68.68,0,0,1,0,.14v.19c.06,1,.27,1.87.32,2.83a.86.86,0,0,1,.13.49c0,.35,0,.69,0,1a13.31,13.31,0,0,1,0,1.55,1.33,1.33,0,0,1-.06.3,9.73,9.73,0,0,1-.2,1.52,3.71,3.71,0,0,1-.92,1.87,5.38,5.38,0,0,1-1.62.72,2.43,2.43,0,0,1-2-.18,4.4,4.4,0,0,1-1-.37,6.52,6.52,0,0,1-2.68-2.47,6.89,6.89,0,0,1-.79-2.38,11,11,0,0,1,0-3,5.86,5.86,0,0,1,.1-.58c.17-.69.26-1.4.41-2.1,0-.17.24-.59.2-.75a6.61,6.61,0,0,1-.07-1.89v0c0-.35-.17-.72-.15-1.07a7,7,0,0,0,.05-1,12.56,12.56,0,0,1,0-2.6c0-.19,0-.38.05-.57,0-.43.07-.85.12-1.28a.28.28,0,0,0,.15-.25c0-.27,0-.54,0-.81v-.18h0v0c0-.09,0-.19,0-.29h0l.12-.79h0V75.9c0-.07,0-.15,0-.22.1-.39.19-.79.29-1.18a.25.25,0,0,0,0-.19l0-.07v0a.39.39,0,0,1,.08-.1,2.33,2.33,0,0,1,0-.28s0,0,0-.06l0-.11h0c0-.16.1-.32.16-.48s.08-.28.13-.42a.45.45,0,0,0,0-.11l.08-.06a.28.28,0,0,0,0-.13s0-.1,0-.16a13.62,13.62,0,0,1,.78-1.8l-.07,0c-.27.29-.55.58-.81.88a1.59,1.59,0,0,0-.13.22.25.25,0,0,0-.26.21c0,.11,0,.21-.08.32a.24.24,0,0,0-.11.13,8.57,8.57,0,0,0-.48,1.37.32.32,0,0,0,0,.24l-.18.6a.83.83,0,0,1-.12.25,6.82,6.82,0,0,0-.07.79v0a.29.29,0,0,0-.07.17c0,.35-.07.69-.09,1v.17a1.09,1.09,0,0,1,0,.18l0,.19-.1,0-.23.07a23,23,0,0,1-4.78.87h-2.76l-.18,0h-.09l-.17,0h-.1l-.15,0h-.1l-.15,0-.1,0-.14,0h-.11l-.12,0-.12,0-.11,0-.12,0-.1,0-.13,0-.08,0-.2,0-.21,0-.06,0-.15,0h-.06l-.16,0h0l-.19-.06h0l-.13,0-.06,0-.14,0h0l-.17-.05,0,0-.12,0-.05,0-.12,0,0,0-.15,0h0l-.12-.05-.05,0-.1,0,0,0-.13,0h0l-.12,0h0L172,77l0,0-.11,0-.63-.33-.1-.06c0-.13,0-.28,0-.43a12.23,12.23,0,0,0-.23-2.69c-.12-.33-.25-.66-.4-1-.32-.69-.68-1.35-1.06-2l-.25-.3-.2.1a13,13,0,0,1,1.3,5.6V76c0,.1,0,.2,0,.3s0,.21,0,.31a2.26,2.26,0,0,1,0,.26c.11.84.18,1.68.22,2.53,0,.19,0,.38,0,.57a12.65,12.65,0,0,1,0,2.61,8.68,8.68,0,0,0,0,1c0,.36-.2.72-.18,1.06v0a6.62,6.62,0,0,1-.13,1.89c-.05.16.13.58.17.75.13.71.2,1.42.34,2.12,0,.19.06.38.09.58a10.88,10.88,0,0,1-.14,3,7,7,0,0,1-.86,2.36,6.49,6.49,0,0,1-2.76,2.37,4.6,4.6,0,0,1-1,.35,2.52,2.52,0,0,1-2,.11c-.49-.25-1.21-.36-1.6-.77a3.74,3.74,0,0,1-.85-1.9,8.81,8.81,0,0,1-.15-1.53.94.94,0,0,1-.05-.3,13.17,13.17,0,0,1,.09-1.55c0-.34,0-.68,0-1a.91.91,0,0,1,.15-.49c.08-1,.32-1.87.41-2.83,0,0,0-.11,0-.18s0-.1,0-.15q0-.3,0-.6c0-.29-.25-.59-.3-.9-.21-1.39-1.13-2.31-1.62-3.58a1.34,1.34,0,0,0-.07-.18l0-.08c-.25-.62-.53-1.24-.75-1.87a7.45,7.45,0,0,1-.27-.92,2.5,2.5,0,0,1-.07-.26A26.17,26.17,0,0,1,157.66,76l-.14-.39a.56.56,0,0,0,0-.12,2.58,2.58,0,0,1-.08-.26l-.05-.14c0-.08,0-.16-.07-.24s0-.1,0-.14-.05-.16-.07-.24l0-.13c0-.11-.06-.21-.08-.31l0-.06c0-.12,0-.23-.08-.35l0-.13c0-.07,0-.15,0-.22l0-.15a1.62,1.62,0,0,1,0-.19l0-.16,0-.19a.77.77,0,0,0,0-.15,1.36,1.36,0,0,1,0-.2l0-.23a1.49,1.49,0,0,1,0-.21c0-.06,0-.11,0-.17s0-.1,0-.15,0-.12,0-.17v-.14a1.09,1.09,0,0,1,0-.18v-.41c0-.23,0-.45,0-.67V69.8l0-.19a.28.28,0,0,1,0-.09c0-.06,0-.13,0-.19l0-.08,0-.2v0c0-.23.1-.46.16-.68v0c0-.06,0-.13.07-.2v0a1.46,1.46,0,0,0,.07-.19l0,0a1.54,1.54,0,0,1,.08-.19h0c.09-.21.19-.42.29-.62l0,0c.06-.11.12-.22.19-.33a7.43,7.43,0,0,1,.68-.91,6.88,6.88,0,0,1,5-2.19c4,0,8.2,3.1,10,4.67a.66.66,0,0,0,.26-.07.86.86,0,0,0-.12-.35,1.66,1.66,0,0,1-.13-.27c-.59-.64-1.24-1.23-1.88-1.81l-.19-.12A22.73,22.73,0,0,0,168.52,64a11.13,11.13,0,0,0,2.27-1.51v.14a.26.26,0,0,0,.16.25.8.8,0,0,0,.11.34.21.21,0,0,0,.1.06,1.71,1.71,0,0,0,.54.75h0a2.41,2.41,0,0,0,.5.33.25.25,0,0,0,.18.19,14.46,14.46,0,0,0,2.27.34c1,.09,2.08.13,3.12.13.83,0,1.67,0,2.52-.06a.2.2,0,0,0,.12.08,1.74,1.74,0,0,0,1.25,0l.12,0c-.08,0,0,0,0,0l.17,0h.11a3.93,3.93,0,0,0,.59.06,4.4,4.4,0,0,0,2.6-.86l.18-.13a.19.19,0,0,0,.08-.1,1.56,1.56,0,0,0,.32-.52,1,1,0,0,0,.26-.84,13,13,0,0,0,2.06,1.53,20.18,20.18,0,0,0-2.92,1.49,2.57,2.57,0,0,0-.24.21h0a.22.22,0,0,1-.08.09,2,2,0,0,1-.61.48l-.08,0c-.67.68-1.37,1.34-2,2,0,0,.09.09.13.15a.25.25,0,0,1,0,.07C184,67.42,188.63,63.84,193,64A6.89,6.89,0,0,1,198,66.37c.15.18.28.36.41.55l.23.36h0l.09.17a.16.16,0,0,1,0,.07,1.09,1.09,0,0,1,.08.15l0,.09a1,1,0,0,1,.07.15.36.36,0,0,1,0,.09,1.11,1.11,0,0,1,.07.16l0,.09a1.11,1.11,0,0,1,.07.16s0,.06,0,.09l.06.17s0,0,0,.06c.06.2.11.42.16.64,0,0,0,.06,0,.09l0,.17s0,.07,0,.11a.88.88,0,0,1,0,.17s0,.07,0,.11,0,.12,0,.17a.49.49,0,0,0,0,.12c0,.06,0,.12,0,.17s0,.09,0,.13a.91.91,0,0,0,0,.17v.13C199.58,71.13,199.58,71.34,199.57,71.55Zm-.32-5.17,0,0c-.09-.12-.19-.23-.28-.34a8.64,8.64,0,0,0-4.19-2.7,10.23,10.23,0,0,0-5.72.28c-2.35-1.08-6.15-5.24-7.25-8.59-.49-1.51-.4-2.66.27-3.41a2.75,2.75,0,0,1,2.06-1,5.34,5.34,0,0,1,2.95,1s0,0,0,.06a.77.77,0,0,1,.2.07c.06,0,.07.1.12.16s.14,0,.14,0a.22.22,0,0,1,.18.1,3,3,0,0,1,.17.37.18.18,0,0,1,.1.09,6.6,6.6,0,0,1,.35,1l.08,0c0-.07,0-.15,0-.23s-.07-.44-.09-.66a.2.2,0,0,1-.11-.19v-.12l0,0a.26.26,0,0,1-.13-.1c-.05-.1-.06-.23-.11-.34a2.08,2.08,0,0,0-.17-.33l-.05-.06h0v0h0a.19.19,0,0,1-.2-.2h0l0,0h0l-.08,0a.18.18,0,0,1-.12-.12.43.43,0,0,1-.13-.09.25.25,0,0,1-.08-.18.18.18,0,0,1,0-.29s0,0,.05,0a.25.25,0,0,1,.09-.13V50a.21.21,0,0,0,.08-.06,5.86,5.86,0,0,1,1.23.39,3,3,0,0,1,1.92,2.41c.1.74.81,1.46,2.17,2.2a14.17,14.17,0,0,0,1.86.85l.08-.22a6.52,6.52,0,0,1-2.2-1.76c-.6-.4-1-.82-1.08-1.19a3.85,3.85,0,0,0-2.43-3.06,5.93,5.93,0,0,0-1.08-.36,4.68,4.68,0,0,1-.55,0,3,3,0,0,1-3-3,3,3,0,0,1,1.11-2.3,3.72,3.72,0,0,1,.49-2,3.41,3.41,0,0,1,3-1.59H189l.3-.16h0l.21-.11.18-.1.19-.1.32-.19.16-.09.27-.17.1-.06.36-.23.1-.07.38-.25A15.36,15.36,0,0,1,195.73,42a2.09,2.09,0,0,1,.2.22,5.5,5.5,0,0,1,.38.56.24.24,0,0,0,.24.13,20.2,20.2,0,0,1,3.54,6.31l.3.91a28.5,28.5,0,0,1,1.17,6.38,16.74,16.74,0,0,1-1.34,8.37A8.11,8.11,0,0,1,199.25,66.38Z"/><path class="cls-12" d="M190.84,33.84h-.17a2.66,2.66,0,0,0-2,1,2.5,2.5,0,0,0-.56.65,2.87,2.87,0,0,0-.82.77l-.47.22-.49.22-.17.09-.26.09c-.26.08-.51.18-.76.28s-.47.15-.71.21h-.07c-.38,0-.76.09-1.13.16s-.59.12-.89.19c-.47.11-.94.23-1.42.31s-.92,0-1.38,0l-1.79,0a27.56,27.56,0,0,1-3.15-.12,18.34,18.34,0,0,1-2.82-.76c-.53-.18-1.07-.35-1.61-.51a11.3,11.3,0,0,1-1.08-.35,7.25,7.25,0,0,1-1.09-.61,2.39,2.39,0,0,1-.23-.22,2.69,2.69,0,0,0-3.75,0,2.34,2.34,0,0,0-.45.61v.06a.47.47,0,0,1-.07.37v2a2.25,2.25,0,0,0,.51.72,8.63,8.63,0,0,0,2.46,1.69,16.76,16.76,0,0,0,1.65.67c.41.15.84.24,1.26.37.87.27,1.71.58,2.58.83a17.05,17.05,0,0,0,3.24.5c1.55.12,3.1.06,4.65,0,.38,0,.75,0,1.13,0a18,18,0,0,0,1.79-.27c.59-.13,1.18-.29,1.78-.4h0c.3,0,.65-.08.92-.12l.49-.1a8.1,8.1,0,0,0,1-.34l-.16.06c.37-.15.76-.25,1.13-.4s.66-.28,1-.45a3.49,3.49,0,0,1,.44-.2,7.11,7.11,0,0,0,.95-.49,7,7,0,0,0,.69-.53l.22-.12a2.56,2.56,0,0,0,.77-.65l.06-.06.2-.26a2.81,2.81,0,0,0,.76-.85c.06-.91.07-1.82.15-2.73a.42.42,0,0,1,0-.16A2.69,2.69,0,0,0,190.84,33.84Z"/><path class="cls-7" d="M195,32.43c.44-.8.94-1.58,1.32-2.42a7.49,7.49,0,0,0,.32-1.05A11.15,11.15,0,0,1,197,27.8a13,13,0,0,0,.65-2.18s0-.08,0-.12a1.21,1.21,0,0,1,.12-.47c.06-.65.08-1.33.08-2.06a11.81,11.81,0,0,0-.06-1.18c1.56-.6,2.72-2.92,2.72-5.7,0-3.23,0-6.34-3.51-5.84a4.49,4.49,0,0,0-2.72,1.1C191.34,5,185.35.7,178.44.7s-13,4.37-15.89,10.75a4.31,4.31,0,0,0-2.81-1.2c-3.48-.5-3.5,2.61-3.5,5.84,0,2.8,1.18,5.14,2.76,5.71q-.06.6-.06,1.17c0,5.8,1.74,9.23,4.63,11.26v4.39a.53.53,0,0,0,0,.16.55.55,0,0,0,.26.28,37.33,37.33,0,0,0,29,0,.53.53,0,0,0,.3-.37V34.13a9.61,9.61,0,0,0,1.69-1.5A1.67,1.67,0,0,1,195,32.43Z"/><path class="cls-11" d="M194.85,17a13.08,13.08,0,0,0-1-1.42l0-.1a.74.74,0,0,0-.23-.29l-.1-.07A17.15,17.15,0,0,0,191,12.73a20.2,20.2,0,0,0-5.67-3,21.1,21.1,0,0,0-13.8,0,20.34,20.34,0,0,0-5.67,3,18.43,18.43,0,0,0-2.24,2.06.14.14,0,0,0-.17.1,1.28,1.28,0,0,1-.16.27q-.31.38-.6.75l-.11.12a3.41,3.41,0,0,0-.72,1.13,10,10,0,0,0-1.44,4.57h0a15.87,15.87,0,0,0,1,5.2,3,3,0,0,0,.1.32.93.93,0,0,0,0,.13.16.16,0,0,0,.06.12l.06.09,0,0a.16.16,0,0,0,.12.24h0s0,0,0,.05v0s0,0,0,.05l.14.28a12.33,12.33,0,0,0,2.65,3.45.52.52,0,0,0,.28.32.13.13,0,0,0,.1,0c.29.24.58.47.89.69,3.1,2.21,7.46,3.38,12.6,3.38S187.89,35,191,32.7A13,13,0,0,0,192.94,31a.15.15,0,0,0,.12-.13l.28-.32,0,0a.22.22,0,0,0,.07-.09,11.66,11.66,0,0,0,1.42-2.18,14.44,14.44,0,0,0,.78-1.85.41.41,0,0,0,.16-.31.08.08,0,0,0,0-.05v0l.15-.69a16.72,16.72,0,0,0,.47-3.55h0A10.14,10.14,0,0,0,194.85,17Z"/><path class="cls-11" d="M159.14,12.18a1.16,1.16,0,1,0,1.15,1.15A1.16,1.16,0,0,0,159.14,12.18Z"/><path class="cls-11" d="M158.22,18.94a1.31,1.31,0,1,0,0-2.61,1.31,1.31,0,0,0,0,2.61Zm0-2.35a1,1,0,1,1-1,1A1,1,0,0,1,158.22,16.59Z"/><path class="cls-11" d="M158.22,18.32a.69.69,0,1,0-.69-.69A.69.69,0,0,0,158.22,18.32Z"/><path class="cls-11" d="M200.6,14.08a.12.12,0,0,0,0-.09,2.63,2.63,0,0,0-.13-1,3.75,3.75,0,0,0-1-2.34,3,3,0,0,0-2.47-.52,5,5,0,0,0-2.67,1,19.28,19.28,0,0,0-6.4-7.59,16.61,16.61,0,0,0-19,0,19.16,19.16,0,0,0-6.4,7.65,4.79,4.79,0,0,0-2.76-1.1,3,3,0,0,0-2.47.52c-1.18,1-1.18,3.28-1.18,5.45a8.64,8.64,0,0,0,.8,3.75,1.71,1.71,0,0,0,.14.27.16.16,0,0,0,0,.09s0,0,0,0a.56.56,0,0,1,0,.08v.08a.13.13,0,0,0,.14.14,3.51,3.51,0,0,0,1.55,1.35A10,10,0,0,0,158.8,23a18.52,18.52,0,0,0,1.25,6.45,10.94,10.94,0,0,0,3.39,4.88v4.32a.54.54,0,0,0,.05.21.63.63,0,0,0,.33.35,37.64,37.64,0,0,0,14.57,3h.92a.08.08,0,0,0,.12,0,37.78,37.78,0,0,0,6.36-.73A37.41,37.41,0,0,0,193,39.18a.67.67,0,0,0,.38-.47s0-.06,0-.09V34.2a11.2,11.2,0,0,0,3.39-5.09A18.43,18.43,0,0,0,198,23a10.24,10.24,0,0,0,0-1.1,4.11,4.11,0,0,0,1.92-2.05,8.58,8.58,0,0,0,.79-3.73C200.64,15.42,200.64,14.73,200.6,14.08ZM197,10.38a2.73,2.73,0,0,1,2.26.46,2.64,2.64,0,0,1,.75,1.23c-.18-.32-.45-.73-.8-.79a.14.14,0,0,0-.14-.11h-.16a1.21,1.21,0,0,0-.77-.3l-.3,0-.08,0a.13.13,0,0,0-.12-.06h-.08l-.28,0c-.29,0-.59,0-.88,0a3.71,3.71,0,0,0-.81.08h0l0,0a.1.1,0,0,0-.09,0h-.08A6.84,6.84,0,0,1,197,10.38Zm-2.1,1.18h0v0H195Zm-.35.11,0,0,0,0h0Zm.59-.78h0Zm-.69.49a.11.11,0,0,0,0,0l0,0,0,0S194.46,11.38,194.47,11.38Zm.56,1.4a.17.17,0,0,1,0,.07l0-.07Zm-33.2.07a.3.3,0,0,0,0-.1l.08-.05Zm.17-1.1Zm-1.88-.55a1.74,1.74,0,0,0,.36.24l.16.08a.13.13,0,0,0,.11.05h0l.07,0a.58.58,0,0,0,.2.18.16.16,0,0,0,.09.07h0a1.77,1.77,0,0,1,.15.38l.13.27.06.13a.59.59,0,0,0,0,.13.13.13,0,0,0,0,.06,2.4,2.4,0,0,1-.31,1,2.34,2.34,0,0,0,.05-.47,2.08,2.08,0,1,0-.19.88.16.16,0,0,0,0,.07.14.14,0,0,1,0,.06c0,.06-.1.1-.1.18v.17a3.1,3.1,0,0,0-.46,1.23,3.89,3.89,0,0,1-.33.79c-.14.3-.27.6-.4.91a7.35,7.35,0,0,0-.3.94c0,.1-.05.19-.07.29a2.1,2.1,0,0,0-.14.6h0a3.55,3.55,0,0,1-.23.43,4.28,4.28,0,0,0-.2.44c0,.08-.07.15-.1.23a.17.17,0,0,0-.1.13.15.15,0,0,1,0,.07l-.11.08h-.08a1.25,1.25,0,0,1-1-.77h0a.13.13,0,0,0,0-.06h-.07c-.09-.55-.55-1-.51-1.55a.14.14,0,0,0-.07-.13,7.71,7.71,0,0,1-.17-1,.13.13,0,0,0-.05-.11c0-1,0-2.06.05-3.09a.08.08,0,0,0,0,0,1.7,1.7,0,0,0,.15-.83,4.17,4.17,0,0,1,.14-.86A1.57,1.57,0,0,1,158,11.21,4.39,4.39,0,0,1,160.12,11.2Zm.84,2.13a1.82,1.82,0,1,1-1.82-1.82A1.83,1.83,0,0,1,161,13.33Zm-4.49.12a1,1,0,0,1,0,.17h0c0-.12,0-.24,0-.35A1.09,1.09,0,0,0,156.47,13.45Zm1.63,7.61h0l0,0Zm.79.53v0h0S158.89,21.6,158.89,21.59ZM161.43,15h0l-.06.08Zm1.46-1.88h0l.21-.25.08-.08Zm1.66-1.77.15-.14h0l-.17.16Zm19.14-4.91.55.21-.66-.2Zm8.76,5.08A16.34,16.34,0,0,1,193.76,13c-.27-.32-.56-.62-.85-.92s-.59-.58-.89-.86ZM198.68,21h0l0,0ZM178.44.83c6.63,0,12.64,4,15.68,10.5l0,0,.08.07.23.51V12a.14.14,0,0,0,.08.13q.38.88.66,1.8a13.76,13.76,0,0,0-2.24-2.74,20.86,20.86,0,0,0-3.63-2.79,24.82,24.82,0,0,0-4.07-2,18.68,18.68,0,0,0-3-.9,11.36,11.36,0,0,0-2.08-.38,8.09,8.09,0,0,0-1.1,0l-.26,0a16,16,0,0,0-2.59.08l-.72.11a11.44,11.44,0,0,0-1.31.17,14.06,14.06,0,0,0-2.32.68,18.87,18.87,0,0,0-2.27,1.08A12.39,12.39,0,0,0,168,8.4c-.38.25-.73.52-1.09.8l-.4.26L166,9.8l-.26.15a5.39,5.39,0,0,0-.73.48l-.1,0a.88.88,0,0,0-.25.22l-.29.3-.06.06a.13.13,0,0,0-.15,0l-.36.42a.1.1,0,0,0-.05,0,6,6,0,0,0-.53.6l-.1.14a10.36,10.36,0,0,1-1.22,1.17h0a19.43,19.43,0,0,1,.77-2C165.69,4.92,171.74.83,178.44.83Zm-21,10a2.74,2.74,0,0,1,2.26-.46l.16,0a.12.12,0,0,0,.11.07,2,2,0,0,1,.54.14l.47.13,0,0a.15.15,0,0,0,.14.11h.23a.4.4,0,0,0,.17.09.1.1,0,0,0,0,0h0a.15.15,0,0,0,.14.15h.08a1,1,0,0,0,.17.19l.15.13-.12,0a.21.21,0,0,0-.16-.06.12.12,0,0,0-.12.06h-.09l-.4-.2a6.48,6.48,0,0,0-1-.32.11.11,0,0,0-.11-.06H160a4.59,4.59,0,0,0-2.18.07,1.75,1.75,0,0,0-1.06,1A2.58,2.58,0,0,1,157.46,10.84Zm10.29,26,.06,0-.07,0ZM164.47,35h0Zm-.51-.33a3.7,3.7,0,0,1,0,.47v.18s0,.08,0,.11v.07h0a1.79,1.79,0,0,0,0,.23h0l0,.06h0l0,.05h0c.39-.48,1-.26,1.5,0a12.38,12.38,0,0,0,2.36,1.24c.43.11.86.19,1.28.3s.87.29,1.32.41c.95.28,1.9.53,2.87.73a14.12,14.12,0,0,0,1.44.17,6.37,6.37,0,0,0,1.38,0c.74.06,1.49.09,2.24.09a26.18,26.18,0,0,0,3.86-.28.05.05,0,0,0,.06.05,7.4,7.4,0,0,1,1.14-.22h.07s0,0,.06,0h0l.11,0,.48-.07a.06.06,0,0,0,.07,0c.82-.16,1.65-.25,2.47-.44a7.57,7.57,0,0,0,1.74-.58,20.82,20.82,0,0,1,2.34-1.11,2.77,2.77,0,0,1,1.34-.24.35.35,0,0,1,.11,0,.36.36,0,0,1,.12.08.59.59,0,0,1,.18.45h0a.63.63,0,0,0,0-.19.14.14,0,0,1,0,.07,1,1,0,0,1,0,.17.1.1,0,0,0,0,.09s0,.1,0,.15a.13.13,0,0,0,.21.1,4.57,4.57,0,0,1-.06-.83v-.05h0c0-.07,0-.15,0-.22v-.13a2.11,2.11,0,0,0,0-.25c0-.08,0-.15,0-.23h0a1.62,1.62,0,0,1,0-.22h0c0-.11,0-.21,0-.31l.27-.19v3.37l-.19.07-.06-.08a.12.12,0,0,0-.11,0,.15.15,0,0,0,0-.13.06.06,0,0,0-.09,0h0a.31.31,0,0,0-.27.09.39.39,0,0,1-.14.08,1.59,1.59,0,0,0-.21.15l-.14.11c-.23.13-.47.24-.71.35a15.7,15.7,0,0,1-1.54.57c-.53.16-1.06.3-1.6.44a9.46,9.46,0,0,0-1.35.4,39.58,39.58,0,0,1-20.92-1.25h0l-.14-.12-.27-.19a.88.88,0,0,0-.19-.12,3.23,3.23,0,0,0-.42-.2l-.58-.25,0,0a2.11,2.11,0,0,1-.23-.19l-.11-.15V34.48Zm27.24,1h0Zm1.23-.78h0l0,0Zm-6.13,2.76h0l-.18,0Zm6.15.41.09-.07h.05Zm.27-.13,0,0v0l-.06,0Zm0,0Zm-28.84-.06,0,0v0Zm-.19-.09h0l0,0v.05l-.07,0Zm.63.29.14.06.05,0-.21-.09Zm28.75.68a.4.4,0,0,1-.22.28,37.23,37.23,0,0,1-13.45,2.9.11.11,0,0,0-.08,0h-.94l-1.34,0H177a36.9,36.9,0,0,1-13.06-2.88.45.45,0,0,1-.2-.21.26.26,0,0,1,0-.11V38a40.46,40.46,0,0,0,7.15,2.11,39.81,39.81,0,0,0,7.54.73,39.83,39.83,0,0,0,7.55-.73A40.11,40.11,0,0,0,193.08,38v.63Zm.06-4.63a21.34,21.34,0,0,1-2.26,1.39l-.38.16a3.55,3.55,0,0,0-.39.2l-.17.12h0l-.12.06-.2.07a2.74,2.74,0,0,0-.57.28.21.21,0,0,0-.19,0l-.78.4a27,27,0,0,1-9.61,1.78,27.9,27.9,0,0,1-11.68-2.57l-.58-.31-.6-.28a20.75,20.75,0,0,1-1.95-1.21,10.34,10.34,0,0,1-3.36-4.79A18.21,18.21,0,0,1,159.07,23a11.37,11.37,0,0,1,.06-1.15,14.92,14.92,0,0,1,2.09-5.92c.19-.3.38-.6.58-.9a.19.19,0,0,0,.14-.11c.14-.21.27-.43.4-.65a20.38,20.38,0,0,1,4-4l.52-.37a19.88,19.88,0,0,1,1.89-1.11c.68-.37,1.39-.67,2.07-1,.22-.12.43-.25.64-.38a19.34,19.34,0,0,1,7-1.33A20.42,20.42,0,0,1,195.7,16.13l.24.44a.14.14,0,0,0,.05.11l0,0,0,.08a.31.31,0,0,0,.09.18,14.13,14.13,0,0,1,1.51,4.83q.06.6.06,1.17C197.72,26.17,196.09,31.94,193.14,34ZM200,18.7a.11.11,0,0,0-.12,0,.61.61,0,0,0-.07.1.43.43,0,0,0-.15.26,3.94,3.94,0,0,0-.48.88.14.14,0,0,0-.09.13.39.39,0,0,1-.13.3l-.05,0s-.12.06-.15.11v0h0a.14.14,0,0,0-.14.11l0,0a.36.36,0,0,1-.18,0l0,0v0c0-.08-.05-.11-.1-.15s0-.1,0-.14l-.06-.09A3,3,0,0,1,198,20c-.11-.24-.28-.45-.4-.69a3.8,3.8,0,0,1-.35-.77,4.92,4.92,0,0,0-.17-.85,4.65,4.65,0,0,0-.34-.58,1.85,1.85,0,0,0-.21-.33l-.11-.19a.5.5,0,0,0-.13-.26,3.21,3.21,0,0,1-.29-1,.11.11,0,0,0-.07-.09l-.09-.38c0-.13-.07-.26-.11-.38a2.09,2.09,0,0,0-.17-.41.63.63,0,0,1-.09-.33.64.64,0,0,0-.06-.36v-.19a.07.07,0,0,0,0-.07c0-.06,0-.11,0-.17a.07.07,0,0,0-.06,0,1,1,0,0,1,0-.24v0a.88.88,0,0,0,0-.39v-.15a.05.05,0,0,0,0-.05v0h0c0-.18.2-.25.31-.39h0a.13.13,0,0,0,.14-.13l.12-.05a5,5,0,0,1,1.37-.28,6.43,6.43,0,0,1,.76,0,.58.58,0,0,0,.19,0s.06,0,.08,0h.1a1.39,1.39,0,0,1,.45.14c.05,0,.07.08.11.12a.31.31,0,0,0,.2.05.15.15,0,0,0,.18.1c.15,0,.3.17.39.27a3.82,3.82,0,0,1,.4.64c.09.18.18.36.28.54l.06.14a23,23,0,0,1,.12,2.93A8.85,8.85,0,0,1,200,18.7Z"/><path class="cls-11" d="M199.69,13.33a2.09,2.09,0,1,0-2.08,2.09A2.08,2.08,0,0,0,199.69,13.33Zm-3.9,0a1.82,1.82,0,1,1,1.82,1.83A1.82,1.82,0,0,1,195.79,13.33Z"/><path class="cls-11" d="M198.76,13.33a1.15,1.15,0,1,0-1.15,1.16A1.15,1.15,0,0,0,198.76,13.33Z"/><path class="cls-11" d="M198.52,16.33a1.31,1.31,0,0,0,0,2.61,1.31,1.31,0,1,0,0-2.61Zm0,2.34a1,1,0,1,1,1-1A1,1,0,0,1,198.52,18.67Z"/><path class="cls-11" d="M198.52,16.94a.69.69,0,1,0,.7.69A.69.69,0,0,0,198.52,16.94Z"/><path class="cls-7" d="M163.85,22.21A7.46,7.46,0,0,1,164,20.1a7.88,7.88,0,0,1,.75-1.8,11.77,11.77,0,0,1,1.06-1.64s.08-.12,0,0l.08-.09a1.19,1.19,0,0,1,.15-.18c.11-.13.22-.26.34-.38a9.28,9.28,0,0,1,.69-.71c.23-.21.47-.41.71-.6s-.08.06,0,0l.1-.07.2-.14c.13-.1.27-.19.41-.28l.85-.52c.16-.1.33-.2.48-.31s.23-.23.35-.34a.29.29,0,0,0-.21-.49,4.52,4.52,0,0,0-.53.06,4.23,4.23,0,0,0-.58.25,6.73,6.73,0,0,0-.89.53,11,11,0,0,0-1.66,1.31A9.47,9.47,0,0,0,165,16.2a8.1,8.1,0,0,0-.49.85c0,.06,0,.11-.07.17s0,.08-.05.1,0,.15-.08.22-.12.31-.17.47a9.37,9.37,0,0,0-.34,2,12.1,12.1,0,0,0,0,2.17s0,0,0,0Z"/><path class="cls-7" d="M171.74,12.17l.13,0-.36-.09a.57.57,0,0,0,.6.09c-.13,0,.15,0,.18,0l.23-.06c.33-.09.88-.17.87-.64l-.11.27a1.12,1.12,0,0,0,.13-.16.29.29,0,0,0,0-.34.47.47,0,0,0-.16-.1l.14.14c-.12-.26-.43-.27-.67-.24a3.2,3.2,0,0,0-.42.1,1.08,1.08,0,0,0-.52.24s0,0,0,0a.66.66,0,0,0-.17.12.53.53,0,0,0-.14.35l.19-.32-.12.08a.36.36,0,0,0-.16.39.35.35,0,0,0,.43.24Z"/><path class="cls-7" d="M174.77,11.26a.51.51,0,0,0,.24.07.78.78,0,0,0,.25-.07,1.28,1.28,0,0,0,.42-.17l-.14.08a.09.09,0,0,1,.07,0,.26.26,0,0,0,.18-.43.57.57,0,0,0-.58-.22.63.63,0,0,0-.56.44.28.28,0,0,0,.12.31Z"/><path class="cls-7" d="M164,24.06h0a.16.16,0,0,0-.06.16c0,.13,0,.26,0,.39s.06.4.22.49a.12.12,0,0,0,.16,0c.1-.15,0-.38,0-.54a2.05,2.05,0,0,0-.16-.41.14.14,0,0,0-.12-.07Z"/><path class="cls-7" d="M189,13.84a5.61,5.61,0,0,1,.8.66c.25.22.49.43.72.66s.44.47.65.71a7.45,7.45,0,0,1,.57.69,8.72,8.72,0,0,1,.93,1.55.85.85,0,0,1,.07.15c0,.08.07.16.11.25,0-.07,0,0,0,0a.42.42,0,0,1,0,.1,2.18,2.18,0,0,1,.09.23c.1.28.19.56.26.84a6.72,6.72,0,0,1,.18.87s0,.07,0,.1,0-.09,0,0l0,.21,0,.46a10.47,10.47,0,0,1-.05,1.77c0,.12,0-.09,0,0s0,.07,0,.1a2.07,2.07,0,0,1,0,.22c0,.15-.06.3-.09.46s-.14.59-.23.88a9.25,9.25,0,0,1-.32.88c-.05.12,0-.07,0,0s0,.07,0,.11a2,2,0,0,1-.1.21l-.21.45a10.38,10.38,0,0,1-1.17,1.81c-.51.62-1.09,1.19-1.65,1.77a.2.2,0,0,0,.24.31,10.18,10.18,0,0,0,2.95-3,9.43,9.43,0,0,0,1.46-3.51,9.2,9.2,0,0,0-1.48-7,8.32,8.32,0,0,0-1.58-1.77,11.33,11.33,0,0,0-1-.72,11.36,11.36,0,0,0-1.15-.59s0,0,0,0Z"/><path class="cls-7" d="M188.31,30.92a.9.9,0,0,0-.28,0,3.26,3.26,0,0,0-.9.48c-.21.18,0,.47.24.42a2,2,0,0,0,.58-.24l.25-.13a1.37,1.37,0,0,0,.25-.23c.1-.12,0-.35-.14-.34Z"/><path class="cls-7" d="M188.26,13.31c-.08,0-.1-.13-.19-.15l-.26-.09a2.16,2.16,0,0,0-.55-.16c-.11,0-.14.12-.08.19a1,1,0,0,0,.49.29l.27.09a.28.28,0,0,0,.13,0,.42.42,0,0,1,.15,0c.07,0,.11-.11,0-.14Z"/><path class="cls-7" d="M185.86,12.75h0a.26.26,0,0,0,.12-.05.21.21,0,0,0,0-.11.15.15,0,0,0-.16-.16h-.14l-.07,0a.16.16,0,0,0,0,.11.19.19,0,0,0,0,.07.17.17,0,0,0,.1.07s.07,0,.1,0h0a.16.16,0,0,0,.16-.16.21.21,0,0,0,0-.12.17.17,0,0,0-.12,0h0a.15.15,0,0,0-.16.16.16.16,0,0,0,.16.16Z"/><path class="cls-11" d="M187.09,39.83a1.24,1.24,0,0,0-.82-.4c-2.44-.2-4.91-.33-7.35-.37s-4.92,0-7.36.13a1.21,1.21,0,0,0-.83.37.66.66,0,0,0-.18.47l.59,9.95a5.05,5.05,0,0,1,2.22-.38A3.63,3.63,0,0,1,176,51c.83,1,.94,2.47.3,4.23a17.36,17.36,0,0,1-4,5.82c-.15.16-.3.31-.46.45l.07,1.23a.78.78,0,0,0,.8.74c1.93-.1,3.89-.13,5.82-.1s3.89.13,5.82.29h.15l.34-.14h0a.79.79,0,0,0,.31-.56l.11-1.18-.49-.51a17.55,17.55,0,0,1-3.77-6c-.58-1.78-.43-3.24.43-4.22a3.61,3.61,0,0,1,2.65-1.32,4.72,4.72,0,0,1,1.68.25.28.28,0,0,1,.36-.08l0,0,.19-.18h0l0-.06.71-7.63-.6.59s0,0,0,0l.62-.6.16-1.72A.68.68,0,0,0,187.09,39.83Zm-6,6.92a11.31,11.31,0,0,1-.67,3.83c-.44,1.11-1,1.72-1.7,1.71s-1.24-.64-1.64-1.76a12.55,12.55,0,0,1,.13-7.7c.44-1.11,1-1.72,1.7-1.7s1.24.63,1.64,1.76A11.42,11.42,0,0,1,181.07,46.75Z"/><path class="cls-7" d="M180.53,42.89c-.4-1.13-1-1.75-1.64-1.76s-1.26.59-1.7,1.7a12.55,12.55,0,0,0-.13,7.7c.4,1.12,1,1.75,1.64,1.76s1.26-.6,1.7-1.71a12.52,12.52,0,0,0,.13-7.69Zm-2.65,5.9a.88.88,0,1,1,.87.89A.87.87,0,0,1,177.88,48.79Zm.91-1.91a1.54,1.54,0,0,1,.05-3.07,1.54,1.54,0,1,1-.05,3.07Z"/><path class="cls-7" d="M186.62,40.47a.45.45,0,0,0,0-.22c-.16-.37-.69-.4-1-.44s-.42,0-.64,0-.69,0-1,0a8.46,8.46,0,0,0-.86.12,9.14,9.14,0,0,1-1.17,0,4.78,4.78,0,0,1-1.07-.08c-.3-.07-.63,0-.93-.12-.09,0-.17.09-.08.14a1.41,1.41,0,0,0,.5.12c.28,0,.55.07.83.11.69.08,1.39,0,2.07.09.42,0,.85.15,1.28.2,0,0,0,0,0,0a1.82,1.82,0,0,1,.56.31l0,0v0a.14.14,0,0,0,.06.12c.33.26.34.94.44,1.33a9.36,9.36,0,0,1,.24,1.82c0,.62-.07,1.24-.06,1.86,0,.34,0,.68,0,1s0,.68,0,1c0,.11.17.11.18,0,0-.63.06-1.26.13-1.89s.08-1.33.15-2a13.07,13.07,0,0,1,.25-2A4,4,0,0,0,186.62,40.47Z"/><path class="cls-7" d="M184.86,62.17c-.14.23-.09.59-.17.85a1,1,0,0,1-1,.66c-.92.09-1.84.27-2.76.29a.08.08,0,0,0,0,.16c.56,0,1.12,0,1.68,0l.84,0a5,5,0,0,0,.77,0,1.28,1.28,0,0,0,.94-.79,1.54,1.54,0,0,0,.12-1.15A.23.23,0,0,0,184.86,62.17Z"/><path class="cls-7" d="M177.91,40c.11,0,.22-.07.34-.07s.1-.16,0-.16h0a.09.09,0,0,0-.12-.07l-.07,0-.1,0a1,1,0,0,0-.44,0,.11.11,0,0,0-.07.06l-.23,0a7.45,7.45,0,0,1-1,.08,9,9,0,0,1-1.16,0c-.34,0-.68-.11-1-.13s-.66,0-1,0-.4,0-.6,0c-.36,0-.95,0-1.12.44a.45.45,0,0,0,0,.22,4.45,4.45,0,0,0,.14,1.46c.11.66.19,1.3.26,2,.12,1.34.26,2.68.3,4a.09.09,0,0,0,.17,0c0-.63-.09-1.26,0-1.89a12.15,12.15,0,0,0,0-2h0a9.36,9.36,0,0,1,.24-1.82c.1-.39.1-1.07.44-1.33a.16.16,0,0,0,.06-.12s0,0,0,0h0c0,.08,0,0,0,0a1.85,1.85,0,0,1,.55-.3.06.06,0,0,0,.05,0l.05,0c.36,0,.72-.14,1.08-.17.7-.06,1.39,0,2.09-.09.28,0,.54-.09.82-.11A1.79,1.79,0,0,0,177.91,40Z"/><path class="cls-7" d="M178.4,44.21a.17.17,0,0,0-.13,0,.18.18,0,0,0-.19.13,0,0,0,0,0,0,0l0,0a.64.64,0,0,0-.15.37c0,.22-.16.37-.13.62s.23.85.59.86a.12.12,0,0,0,.12-.13c0-.13.05-.2,0-.32a1.19,1.19,0,0,1-.17-.58c0-.09.06-.13.08-.21s-.05-.26,0-.37a.22.22,0,0,0,.06-.14.14.14,0,0,0,0-.08C178.57,44.37,178.51,44.22,178.4,44.21Z"/></g></g></svg>