<svg xmlns="http://www.w3.org/2000/svg" viewBox="0 0 51.57 92.74"><defs><style>.cls-1{fill:none;}.cls-2{fill:#fff;}.cls-3{fill:#d1d3d4;}.cls-4{fill:#e2514c;}.cls-5{fill:#e6e7e8;}.cls-6{fill:#a7a9ac;}</style></defs><title>spaceman-search</title><g id="Layer_2" data-name="Layer 2"><g id="Layer_1-2" data-name="Layer 1"><path d="M23.65,90.08a.32.32,0,0,1-.32.32.32.32,0,0,1-.33-.32.33.33,0,0,1,.33-.33A.32.32,0,0,1,23.65,90.08Z"/><path d="M23.41,90.06a.33.33,0,1,1-.32-.32A.32.32,0,0,1,23.41,90.06Z"/><circle cx="23.56" cy="89.99" r="0.32"/><path d="M23.36,89.8a.33.33,0,0,1-.65,0,.33.33,0,1,1,.65,0Z"/><path d="M23.84,89.73a.33.33,0,0,1-.65,0,.33.33,0,1,1,.65,0Z"/><path d="M23.59,89.73a.32.32,0,1,1-.64,0,.32.32,0,1,1,.64,0Z"/><path d="M23.77,89.27a.32.32,0,1,1-.32-.32A.32.32,0,0,1,23.77,89.27Z"/><circle cx="23.28" cy="89.08" r="0.32"/><circle cx="23.21" cy="89.33" r="0.32"/><path d="M23.16,89.29a.33.33,0,1,1-.32-.32A.32.32,0,0,1,23.16,89.29Z"/><path d="M22.83,89.4a.32.32,0,1,1-.32-.32A.32.32,0,0,1,22.83,89.4Z"/><path d="M22.49,89.41a.32.32,0,1,1-.64,0,.32.32,0,0,1,.64,0Z"/><path d="M22.16,89.82a.33.33,0,1,1-.32-.32A.32.32,0,0,1,22.16,89.82Z"/><circle cx="21.89" cy="90.02" r="0.32"/><path d="M21.8,90.33a.33.33,0,1,1-.65,0,.33.33,0,0,1,.65,0Z"/><path d="M21.8,90.74a.32.32,0,0,1-.32.33.33.33,0,0,1-.33-.33.32.32,0,0,1,.33-.32A.32.32,0,0,1,21.8,90.74Z"/><path d="M22.2,91.11a.32.32,0,0,1-.32.32.32.32,0,1,1,0-.64A.32.32,0,0,1,22.2,91.11Z"/><path d="M22.55,90.74a.33.33,0,1,1-.33-.32A.32.32,0,0,1,22.55,90.74Z"/><path d="M23.11,90.42a.32.32,0,1,1-.32-.32A.32.32,0,0,1,23.11,90.42Z"/><path d="M24.14,89.33a.33.33,0,1,1-.33-.33A.33.33,0,0,1,24.14,89.33Z"/><path d="M24.36,88.59a.33.33,0,0,1-.65,0,.33.33,0,1,1,.65,0Z"/><path d="M24.36,88.18a.32.32,0,0,1-.33.32.32.32,0,1,1,0-.64A.32.32,0,0,1,24.36,88.18Z"/><path d="M23.68,87.89a.32.32,0,1,1-.32-.33A.32.32,0,0,1,23.68,87.89Z"/><path d="M23.27,87.91a.32.32,0,0,1-.32.32.32.32,0,1,1,0-.64A.32.32,0,0,1,23.27,87.91Z"/><path d="M22.33,88.29a.32.32,0,1,1-.64,0,.32.32,0,1,1,.64,0Z"/><path d="M21.7,88.69a.33.33,0,0,1-.33.33.32.32,0,0,1-.32-.33.32.32,0,0,1,.32-.32A.32.32,0,0,1,21.7,88.69Z"/><path d="M20.82,89.3a.32.32,0,0,1-.32.32.33.33,0,1,1,0-.65A.32.32,0,0,1,20.82,89.3Z"/><path d="M20.69,89.69a.32.32,0,0,1-.33.32.32.32,0,0,1-.32-.32.32.32,0,0,1,.32-.33A.33.33,0,0,1,20.69,89.69Z"/><path d="M20.88,89.76a.32.32,0,0,1-.32.32.32.32,0,0,1-.33-.32.33.33,0,0,1,.33-.33A.32.32,0,0,1,20.88,89.76Z"/><path d="M21.26,89.65a.32.32,0,0,1-.32.32.32.32,0,1,1,0-.64A.32.32,0,0,1,21.26,89.65Z"/><path d="M21.64,89.17a.32.32,0,0,1-.32.32.32.32,0,1,1,0-.64A.32.32,0,0,1,21.64,89.17Z"/><path d="M20.71,88.92a.32.32,0,0,1-.64,0,.32.32,0,1,1,.64,0Z"/><path d="M20.83,88.7a.33.33,0,1,1-.32-.32A.32.32,0,0,1,20.83,88.7Z"/><path d="M21.08,88.68a.33.33,0,0,1-.33.33.32.32,0,0,1-.32-.33.32.32,0,0,1,.32-.32A.32.32,0,0,1,21.08,88.68Z"/><path d="M21,88.92a.32.32,0,1,1-.64,0,.32.32,0,1,1,.64,0Z"/><path d="M19.89,86.43a.32.32,0,1,1-.32-.32A.32.32,0,0,1,19.89,86.43Z"/><path d="M19.15,86.6a.32.32,0,0,1-.32.33.33.33,0,0,1-.33-.33.32.32,0,0,1,.33-.32A.32.32,0,0,1,19.15,86.6Z"/><path d="M18.74,87a.33.33,0,1,1-.33-.32A.32.32,0,0,1,18.74,87Z"/><path d="M18.68,87.39a.32.32,0,0,1-.33.32.32.32,0,0,1-.32-.32.32.32,0,0,1,.32-.33A.33.33,0,0,1,18.68,87.39Z"/><path d="M19,87.7a.33.33,0,0,1-.33.32.33.33,0,0,1,0-.65A.33.33,0,0,1,19,87.7Z"/><path d="M19.65,87.94a.33.33,0,0,1-.65,0,.33.33,0,1,1,.65,0Z"/><path d="M20.23,88.2a.32.32,0,0,1-.33.32.32.32,0,0,1-.32-.32.32.32,0,0,1,.32-.33A.33.33,0,0,1,20.23,88.2Z"/><path d="M20.64,88.09a.32.32,0,1,1-.64,0,.32.32,0,0,1,.64,0Z"/><path d="M21.08,87.74a.33.33,0,0,1-.65,0,.33.33,0,1,1,.65,0Z"/><path d="M21.11,87.34a.32.32,0,1,1-.32-.32A.32.32,0,0,1,21.11,87.34Z"/><path d="M20.5,86.8a.32.32,0,0,1-.33.32.32.32,0,0,1,0-.64A.32.32,0,0,1,20.5,86.8Z"/><path d="M19.79,86.62a.33.33,0,1,1-.65,0,.33.33,0,0,1,.65,0Z"/><path d="M18.48,86.33a.33.33,0,1,1-.65,0,.33.33,0,0,1,.65,0Z"/><circle cx="17.08" cy="86.73" r="0.32"/><path d="M20,84a.33.33,0,0,1-.33.33.33.33,0,0,1,0-.65A.33.33,0,0,1,20,84Z"/><circle cx="19.34" cy="83.62" r="0.32"/><path d="M19.2,83.69a.32.32,0,1,1-.64,0,.32.32,0,0,1,.64,0Z"/><path d="M18.56,84.35a.33.33,0,0,1-.33.32.33.33,0,0,1,0-.65A.33.33,0,0,1,18.56,84.35Z"/><path d="M18.21,85a.32.32,0,0,1-.32.32.32.32,0,1,1,0-.64A.32.32,0,0,1,18.21,85Z"/><path d="M18.11,86a.33.33,0,0,1-.65,0,.33.33,0,1,1,.65,0Z"/><path d="M18.05,86.39a.33.33,0,1,1-.32-.32A.33.33,0,0,1,18.05,86.39Z"/><path d="M18.88,85.91a.33.33,0,0,1-.33.33.33.33,0,0,1,0-.65A.33.33,0,0,1,18.88,85.91Z"/><circle cx="18.93" cy="84.99" r="0.32"/><path d="M19.59,84.07a.32.32,0,1,1-.32-.32A.32.32,0,0,1,19.59,84.07Z"/><path d="M19.26,83.27a.33.33,0,1,1-.33-.33A.33.33,0,0,1,19.26,83.27Z"/><path d="M18.57,83a.32.32,0,0,1-.32.32.32.32,0,1,1,0-.64A.32.32,0,0,1,18.57,83Z"/><path d="M17.5,83.7a.32.32,0,0,1-.33.32.32.32,0,0,1,0-.64A.32.32,0,0,1,17.5,83.7Z"/><path d="M17.13,84.68a.32.32,0,0,1-.33.32.32.32,0,1,1,0-.64A.32.32,0,0,1,17.13,84.68Z"/><path d="M17.08,85.4a.32.32,0,0,1-.33.32.32.32,0,0,1,0-.64A.32.32,0,0,1,17.08,85.4Z"/><circle cx="17.16" cy="85.38" r="0.32"/><path d="M17.83,84.66a.33.33,0,1,1-.33-.32A.32.32,0,0,1,17.83,84.66Z"/><path d="M18.2,83.68a.33.33,0,1,1-.32-.32A.33.33,0,0,1,18.2,83.68Z"/><path d="M17.89,82.72a.32.32,0,0,1-.33.32.32.32,0,0,1-.32-.32.32.32,0,0,1,.32-.33A.33.33,0,0,1,17.89,82.72Z"/><path d="M23.71,90.47a.32.32,0,1,1-.32-.32A.32.32,0,0,1,23.71,90.47Z"/><path d="M23.51,90.54a.33.33,0,0,1-.33.33.32.32,0,0,1-.32-.33.32.32,0,0,1,.32-.32A.32.32,0,0,1,23.51,90.54Z"/><path d="M24,90.85a.32.32,0,0,1-.64,0,.32.32,0,1,1,.64,0Z"/><path d="M24.76,90.3a.32.32,0,0,1-.33.32.32.32,0,0,1-.32-.32.32.32,0,0,1,.32-.33A.33.33,0,0,1,24.76,90.3Z"/><path d="M25.06,89.86a.32.32,0,1,1-.32-.32A.32.32,0,0,1,25.06,89.86Z"/><path d="M25.51,89.43a.32.32,0,1,1-.32-.32A.32.32,0,0,1,25.51,89.43Z"/><path d="M25.37,88.59a.32.32,0,0,1-.32.32.32.32,0,0,1-.33-.32.33.33,0,0,1,.33-.33A.32.32,0,0,1,25.37,88.59Z"/><circle cx="24.71" cy="88.95" r="0.32"/><path d="M24.72,89.4a.32.32,0,0,1-.33.32.32.32,0,0,1-.32-.32.32.32,0,0,1,.32-.33A.33.33,0,0,1,24.72,89.4Z"/><path d="M24.38,90.33a.32.32,0,0,1-.32.33.33.33,0,0,1-.33-.33.32.32,0,0,1,.33-.32A.32.32,0,0,1,24.38,90.33Z"/><path d="M24.72,90.77a.33.33,0,1,1-.32-.32A.33.33,0,0,1,24.72,90.77Z"/><path d="M25.38,90.31a.32.32,0,0,1-.32.33.33.33,0,1,1,0-.65A.32.32,0,0,1,25.38,90.31Z"/><path d="M26.08,89.83a.32.32,0,0,1-.32.32.32.32,0,0,1-.33-.32.33.33,0,0,1,.33-.33A.32.32,0,0,1,26.08,89.83Z"/><path d="M26.65,89.13a.32.32,0,0,1-.32.33.33.33,0,0,1-.33-.33.32.32,0,0,1,.33-.32A.32.32,0,0,1,26.65,89.13Z"/><circle cx="26.3" cy="88.69" r="0.32"/><path d="M26,88.29a.32.32,0,0,1-.32.33.33.33,0,1,1,0-.65A.32.32,0,0,1,26,88.29Z"/><path d="M25.34,89.39a.32.32,0,1,1-.32-.32A.32.32,0,0,1,25.34,89.39Z"/><path d="M25.76,90.28a.33.33,0,1,1-.33-.32A.32.32,0,0,1,25.76,90.28Z"/><path d="M26.64,90.55a.33.33,0,0,1-.33.33.33.33,0,0,1,0-.65A.33.33,0,0,1,26.64,90.55Z"/><path d="M27.84,89.82a.32.32,0,0,1-.33.32.32.32,0,0,1-.32-.32.32.32,0,0,1,.32-.33A.33.33,0,0,1,27.84,89.82Z"/><path d="M29,88.83a.32.32,0,0,1-.33.32.32.32,0,0,1,0-.64A.32.32,0,0,1,29,88.83Z"/><path d="M29,87.81a.32.32,0,1,1-.64,0,.32.32,0,0,1,.64,0Z"/><path d="M28.37,87.79a.32.32,0,0,1-.32.32.32.32,0,0,1-.33-.32.33.33,0,0,1,.33-.33A.32.32,0,0,1,28.37,87.79Z"/><path d="M27.51,88.43a.33.33,0,0,1-.65,0,.33.33,0,1,1,.65,0Z"/><path d="M26.33,90.58a.33.33,0,0,1-.65,0,.33.33,0,1,1,.65,0Z"/><path d="M26.34,90.81a.33.33,0,0,1-.65,0,.33.33,0,1,1,.65,0Z"/><path d="M26.76,90.59a.32.32,0,0,1-.33.32.32.32,0,1,1,0-.64A.32.32,0,0,1,26.76,90.59Z"/><path d="M26.76,90.84a.32.32,0,0,1-.32.32.32.32,0,1,1,0-.64A.32.32,0,0,1,26.76,90.84Z"/><path d="M27.15,90.77a.33.33,0,0,1-.33.33.33.33,0,0,1,0-.65A.33.33,0,0,1,27.15,90.77Z"/><path d="M27.76,90.52a.33.33,0,0,1-.65,0,.33.33,0,1,1,.65,0Z"/><path d="M28.4,90.1a.32.32,0,0,1-.33.32.32.32,0,0,1-.32-.32.32.32,0,0,1,.32-.33A.33.33,0,0,1,28.4,90.1Z"/><path d="M29,89.79a.33.33,0,1,1-.32-.32A.33.33,0,0,1,29,89.79Z"/><circle cx="29.43" cy="89.43" r="0.32"/><path d="M29.61,88.61a.32.32,0,1,1-.64,0,.32.32,0,1,1,.64,0Z"/><path d="M29.81,88.84a.33.33,0,0,1-.33.32.33.33,0,0,1,0-.65A.33.33,0,0,1,29.81,88.84Z"/><path d="M29.22,88.67a.32.32,0,0,1-.32.32.33.33,0,1,1,0-.65A.32.32,0,0,1,29.22,88.67Z"/><path d="M28.61,89a.32.32,0,0,1-.33.32A.32.32,0,0,1,28,89a.32.32,0,0,1,.32-.33A.33.33,0,0,1,28.61,89Z"/><path d="M28.27,89.34a.33.33,0,1,1-.33-.33A.33.33,0,0,1,28.27,89.34Z"/><path d="M28,90a.32.32,0,1,1-.32-.32A.32.32,0,0,1,28,90Z"/><path d="M27.64,90.32a.32.32,0,0,1-.32.32.32.32,0,1,1,0-.64A.32.32,0,0,1,27.64,90.32Z"/><path d="M28.42,90.86a.33.33,0,0,1-.33.32.33.33,0,0,1,0-.65A.33.33,0,0,1,28.42,90.86Z"/><path d="M29.08,90.53a.33.33,0,0,1-.65,0,.33.33,0,1,1,.65,0Z"/><path d="M30.08,90.23a.32.32,0,1,1-.32-.32A.32.32,0,0,1,30.08,90.23Z"/><path d="M31.15,89.16a.32.32,0,0,1-.32.32.32.32,0,0,1-.33-.32.33.33,0,0,1,.33-.33A.32.32,0,0,1,31.15,89.16Z"/><path d="M31.37,88.46a.33.33,0,1,1-.32-.32A.33.33,0,0,1,31.37,88.46Z"/><path d="M31.37,87.77a.32.32,0,1,1-.64,0,.32.32,0,1,1,.64,0Z"/><path d="M31,87.77a.32.32,0,1,1-.32-.32A.32.32,0,0,1,31,87.77Z"/><path d="M30.61,87.38a.32.32,0,1,1-.32-.32A.32.32,0,0,1,30.61,87.38Z"/><path d="M30,87.69a.32.32,0,0,1-.32.32.32.32,0,1,1,0-.64A.32.32,0,0,1,30,87.69Z"/><path d="M29.64,88.28a.32.32,0,0,1-.33.32.32.32,0,0,1-.32-.32.32.32,0,0,1,.32-.33A.33.33,0,0,1,29.64,88.28Z"/><path d="M29.31,89.41a.33.33,0,1,1-.65,0,.33.33,0,0,1,.65,0Z"/><path d="M29.72,89.86a.33.33,0,0,1-.33.33.32.32,0,0,1-.32-.33.32.32,0,0,1,.32-.32A.32.32,0,0,1,29.72,89.86Z"/><path d="M30.44,89.83a.32.32,0,0,1-.32.32.32.32,0,1,1,0-.64A.32.32,0,0,1,30.44,89.83Z"/><path d="M30.94,89.12a.32.32,0,1,1-.32-.33A.32.32,0,0,1,30.94,89.12Z"/><path d="M25.51,88.2a.33.33,0,1,1-.33-.32A.32.32,0,0,1,25.51,88.2Z"/><path d="M24.89,88.53a.33.33,0,0,1-.65,0,.33.33,0,1,1,.65,0Z"/><path d="M24.18,89.51a.32.32,0,0,1-.32.32.32.32,0,1,1,0-.64A.32.32,0,0,1,24.18,89.51Z"/><path d="M23.87,90.18a.32.32,0,0,1-.33.32.32.32,0,0,1,0-.64A.32.32,0,0,1,23.87,90.18Z"/><path d="M23.52,90.83a.32.32,0,1,1-.64,0,.32.32,0,1,1,.64,0Z"/><path d="M23.15,91.21a.33.33,0,0,1-.33.33.33.33,0,0,1,0-.65A.33.33,0,0,1,23.15,91.21Z"/><path d="M23.53,91.59a.32.32,0,1,1-.32-.32A.32.32,0,0,1,23.53,91.59Z"/><path d="M23.92,91.23a.33.33,0,1,1-.33-.32A.32.32,0,0,1,23.92,91.23Z"/><path d="M24.28,90.86a.32.32,0,0,1-.33.32.32.32,0,0,1-.32-.32.32.32,0,0,1,.32-.33A.33.33,0,0,1,24.28,90.86Z"/><path d="M24.58,89.89a.32.32,0,0,1-.32.33.33.33,0,1,1,0-.65A.32.32,0,0,1,24.58,89.89Z"/><path d="M24.89,89.22a.32.32,0,1,1-.64,0,.32.32,0,0,1,.64,0Z"/><path d="M24.48,88.52a.33.33,0,1,1-.65,0,.33.33,0,0,1,.65,0Z"/><path d="M24.23,87.54a.33.33,0,1,1-.65,0,.33.33,0,0,1,.65,0Z"/><path d="M23.62,86.89a.32.32,0,0,1-.32.33.33.33,0,0,1-.33-.33.32.32,0,0,1,.33-.32A.32.32,0,0,1,23.62,86.89Z"/><path d="M22.67,86.94a.32.32,0,1,1-.32-.32A.32.32,0,0,1,22.67,86.94Z"/><path d="M22,87.24a.32.32,0,0,1-.32.32.32.32,0,0,1-.33-.32.33.33,0,0,1,.33-.33A.32.32,0,0,1,22,87.24Z"/><path d="M21.68,88.28a.33.33,0,0,1-.33.33.32.32,0,0,1-.32-.33.32.32,0,0,1,.32-.32A.32.32,0,0,1,21.68,88.28Z"/><path d="M21.63,88.94a.32.32,0,0,1-.32.32.32.32,0,1,1,0-.64A.32.32,0,0,1,21.63,88.94Z"/><path d="M21.6,89.59a.32.32,0,0,1-.32.32.32.32,0,1,1,0-.64A.32.32,0,0,1,21.6,89.59Z"/><path d="M21.56,90.26a.33.33,0,0,1-.33.32.33.33,0,0,1,0-.65A.33.33,0,0,1,21.56,90.26Z"/><path d="M21.92,90.63a.33.33,0,1,1-.33-.33A.33.33,0,0,1,21.92,90.63Z"/><path d="M22.29,90.22a.32.32,0,0,1-.32.33.33.33,0,0,1-.33-.33A.32.32,0,0,1,22,89.9.32.32,0,0,1,22.29,90.22Z"/><path d="M22.63,89.23a.32.32,0,0,1-.32.32.32.32,0,1,1,0-.64A.32.32,0,0,1,22.63,89.23Z"/><path d="M22.66,88.24a.32.32,0,0,1-.32.32.32.32,0,1,1,0-.64A.32.32,0,0,1,22.66,88.24Z"/><path d="M22.66,86.52a.32.32,0,1,1-.64,0,.32.32,0,0,1,.64,0Z"/><path d="M22.05,85a.33.33,0,0,1-.65,0,.33.33,0,1,1,.65,0Z"/><path d="M21.45,83.78a.33.33,0,0,1-.65,0,.33.33,0,1,1,.65,0Z"/><path d="M20.82,83.13a.33.33,0,1,1-.32-.32A.32.32,0,0,1,20.82,83.13Z"/><path d="M19.82,83.81a.32.32,0,0,1-.33.32.32.32,0,0,1-.32-.32.32.32,0,0,1,.32-.33A.33.33,0,0,1,19.82,83.81Z"/><path d="M18.79,86a.32.32,0,1,1-.32-.32A.32.32,0,0,1,18.79,86Z"/><path d="M19.35,87.29A.32.32,0,1,1,19,87,.32.32,0,0,1,19.35,87.29Z"/><path d="M19.75,86.91a.33.33,0,0,1-.33.33.32.32,0,0,1-.32-.33.32.32,0,0,1,.32-.32A.32.32,0,0,1,19.75,86.91Z"/><path d="M20.14,86a.32.32,0,1,1-.32-.33A.32.32,0,0,1,20.14,86Z"/><path d="M20.16,84.44a.33.33,0,0,1-.33.33.32.32,0,0,1-.32-.33.32.32,0,0,1,.32-.32A.32.32,0,0,1,20.16,84.44Z"/><path d="M19.84,83.14a.33.33,0,1,1-.65,0,.33.33,0,0,1,.65,0Z"/><path d="M19.56,82.21a.33.33,0,0,1-.33.33.32.32,0,0,1-.32-.33.32.32,0,0,1,.32-.32A.32.32,0,0,1,19.56,82.21Z"/><circle cx="18.62" cy="81.59" r="0.32"/><path d="M18.28,81.63A.32.32,0,0,1,18,82a.32.32,0,0,1-.32-.32A.32.32,0,0,1,18,81.3.33.33,0,0,1,18.28,81.63Z"/><path d="M17.58,82.26a.32.32,0,0,1-.64,0,.32.32,0,1,1,.64,0Z"/><path d="M17.24,83.18a.32.32,0,0,1-.32.33.33.33,0,1,1,0-.65A.32.32,0,0,1,17.24,83.18Z"/><path d="M16.9,84.13a.33.33,0,0,1-.33.33.33.33,0,0,1,0-.65A.33.33,0,0,1,16.9,84.13Z"/><circle cx="16.91" cy="84.82" r="0.32"/><path d="M17.62,84.45a.33.33,0,0,1-.33.33.32.32,0,0,1-.32-.33.32.32,0,0,1,.32-.32A.32.32,0,0,1,17.62,84.45Z"/><path d="M17.94,83.5a.32.32,0,0,1-.32.33.33.33,0,1,1,0-.65A.32.32,0,0,1,17.94,83.5Z"/><path d="M17.92,81.28A.32.32,0,1,1,17.6,81,.32.32,0,0,1,17.92,81.28Z"/><path d="M17.35,80.39a.33.33,0,1,1-.65,0,.33.33,0,0,1,.65,0Z"/><path d="M17,80.05a.32.32,0,1,1-.32-.33A.32.32,0,0,1,17,80.05Z"/><path d="M16,80.42a.33.33,0,0,1-.33.33.32.32,0,0,1-.32-.33.32.32,0,0,1,.32-.32A.32.32,0,0,1,16,80.42Z"/><circle cx="34.71" cy="86.06" r="0.32"/><path d="M34.94,85.87a.32.32,0,1,1-.64,0,.32.32,0,0,1,.64,0Z"/><path d="M34.63,86.37a.33.33,0,0,1-.65,0,.33.33,0,1,1,.65,0Z"/><path d="M34.29,86.74a.32.32,0,0,1-.32.32.32.32,0,1,1,0-.64A.32.32,0,0,1,34.29,86.74Z"/><circle cx="33.94" cy="87.44" r="0.32"/><path d="M35,87.8a.33.33,0,0,1-.33.33.33.33,0,0,1,0-.65A.33.33,0,0,1,35,87.8Z"/><path d="M35.34,87.79a.33.33,0,0,1-.65,0,.33.33,0,1,1,.65,0Z"/><path d="M36,87.05a.32.32,0,1,1-.32-.32A.32.32,0,0,1,36,87.05Z"/><path d="M36.33,86.1a.32.32,0,0,1-.32.32.32.32,0,1,1,0-.64A.32.32,0,0,1,36.33,86.1Z"/><path d="M36,84.59a.32.32,0,0,1-.64,0,.32.32,0,1,1,.64,0Z"/><path d="M35,84a.32.32,0,0,1-.33.32.32.32,0,0,1-.32-.32.32.32,0,0,1,.32-.33A.33.33,0,0,1,35,84Z"/><path d="M34.06,83.32a.32.32,0,1,1-.32-.32A.32.32,0,0,1,34.06,83.32Z"/><path d="M33.32,83.57a.32.32,0,0,1-.32.32.33.33,0,1,1,0-.65A.32.32,0,0,1,33.32,83.57Z"/><path d="M32.74,84.67a.33.33,0,0,1-.33.32.33.33,0,0,1,0-.65A.33.33,0,0,1,32.74,84.67Z"/><path d="M32.73,85.66a.33.33,0,1,1-.65,0,.33.33,0,0,1,.65,0Z"/><path d="M32.63,86.79a.33.33,0,1,1-.65,0,.33.33,0,0,1,.65,0Z"/><path d="M33,86.78a.32.32,0,1,1-.32-.32A.32.32,0,0,1,33,86.78Z"/><path d="M33.39,86.77a.33.33,0,0,1-.65,0,.33.33,0,1,1,.65,0Z"/><path d="M33.69,86a.32.32,0,0,1-.32.32A.32.32,0,0,1,33,86a.33.33,0,0,1,.33-.33A.32.32,0,0,1,33.69,86Z"/><path d="M33.78,84.59a.33.33,0,1,1-.32-.32A.32.32,0,0,1,33.78,84.59Z"/><path d="M33.42,83.74a.32.32,0,0,1-.32.32.32.32,0,0,1-.33-.32.33.33,0,0,1,.33-.33A.32.32,0,0,1,33.42,83.74Z"/><path d="M32.38,83.31a.32.32,0,0,1-.32.33.33.33,0,0,1-.33-.33.32.32,0,0,1,.33-.32A.32.32,0,0,1,32.38,83.31Z"/><circle cx="31.33" cy="84.34" r="0.32"/><path d="M31.29,86a.32.32,0,1,1-.64,0,.32.32,0,1,1,.64,0Z"/><path d="M31.3,86.45a.33.33,0,0,1-.65,0,.33.33,0,1,1,.65,0Z"/><path d="M31.71,86.45a.32.32,0,1,1-.32-.32A.32.32,0,0,1,31.71,86.45Z"/><path d="M32,85.73a.33.33,0,0,1-.65,0,.33.33,0,1,1,.65,0Z"/><path d="M32.06,85.06a.32.32,0,1,1-.32-.33A.32.32,0,0,1,32.06,85.06Z"/><path d="M31.68,84.76a.33.33,0,0,1-.65,0,.33.33,0,1,1,.65,0Z"/><path d="M31.84,84.25a.32.32,0,1,1-.32-.32A.32.32,0,0,1,31.84,84.25Z"/><path d="M31.33,83.91a.33.33,0,1,1-.32-.32A.33.33,0,0,1,31.33,83.91Z"/><circle cx="30.93" cy="84.36" r="0.32"/><path d="M31,85.07a.32.32,0,0,1-.32.33.33.33,0,1,1,0-.65A.32.32,0,0,1,31,85.07Z"/><path d="M31,86.8a.33.33,0,0,1-.33.33.32.32,0,0,1-.32-.33.32.32,0,0,1,.32-.32A.32.32,0,0,1,31,86.8Z"/><path d="M31.65,87.81a.33.33,0,1,1-.65,0,.33.33,0,0,1,.65,0Z"/><path d="M33,88.15a.32.32,0,0,1-.32.32.32.32,0,0,1-.33-.32.33.33,0,0,1,.33-.33A.32.32,0,0,1,33,88.15Z"/><circle cx="34.26" cy="87.83" r="0.32"/><path d="M35.66,86.36a.32.32,0,1,1-.32-.32A.32.32,0,0,1,35.66,86.36Z"/><path d="M36,85a.33.33,0,0,1-.33.33.33.33,0,0,1,0-.65A.33.33,0,0,1,36,85Z"/><path d="M35,84.66a.33.33,0,0,1-.65,0,.33.33,0,1,1,.65,0Z"/><path d="M33.66,84.77a.32.32,0,0,1-.32.32.33.33,0,1,1,0-.65A.32.32,0,0,1,33.66,84.77Z"/><path d="M32.7,86.08a.32.32,0,0,1-.33.32.32.32,0,0,1-.32-.32.32.32,0,0,1,.32-.33A.33.33,0,0,1,32.7,86.08Z"/><path d="M32,87.45a.32.32,0,0,1-.33.32.32.32,0,0,1-.32-.32.32.32,0,0,1,.32-.33A.33.33,0,0,1,32,87.45Z"/><path d="M32.34,88.16a.32.32,0,1,1-.64,0,.32.32,0,1,1,.64,0Z"/><path d="M33.65,88.16a.32.32,0,1,1-.32-.33A.32.32,0,0,1,33.65,88.16Z"/><path d="M35.31,87.06a.33.33,0,1,1-.33-.32A.32.32,0,0,1,35.31,87.06Z"/><path d="M36.43,85.91a.33.33,0,0,1-.33.33.32.32,0,0,1-.32-.33.32.32,0,0,1,.32-.32A.32.32,0,0,1,36.43,85.91Z"/><path d="M36,85.62a.32.32,0,0,1-.32.32.32.32,0,1,1,0-.64A.32.32,0,0,1,36,85.62Z"/><path d="M37.27,88.71a.32.32,0,1,1-.32-.33A.32.32,0,0,1,37.27,88.71Z"/><path d="M37.07,88.84a.33.33,0,0,1-.33.33.32.32,0,0,1-.32-.33.32.32,0,0,1,.32-.32A.32.32,0,0,1,37.07,88.84Z"/><path d="M37.6,88.31a.32.32,0,0,1-.32.32.32.32,0,0,1-.33-.32.33.33,0,0,1,.33-.33A.32.32,0,0,1,37.6,88.31Z"/><path d="M37.56,88.1a.32.32,0,0,1-.33.32.32.32,0,0,1-.32-.32.32.32,0,0,1,.32-.33A.33.33,0,0,1,37.56,88.1Z"/><path d="M38.2,88.61a.32.32,0,1,1-.32-.33A.32.32,0,0,1,38.2,88.61Z"/><path d="M37.06,88.58a.32.32,0,0,1-.32.33.33.33,0,0,1-.33-.33.32.32,0,0,1,.33-.32A.32.32,0,0,1,37.06,88.58Z"/><path d="M37.11,88.17a.33.33,0,0,1-.33.33.32.32,0,0,1-.32-.33.32.32,0,0,1,.32-.32A.32.32,0,0,1,37.11,88.17Z"/><path d="M36.66,88.71a.32.32,0,0,1-.32.32.32.32,0,0,1-.33-.32.33.33,0,0,1,.33-.33A.32.32,0,0,1,36.66,88.71Z"/><path d="M37.46,89.42a.33.33,0,0,1-.33.32.33.33,0,0,1,0-.65A.33.33,0,0,1,37.46,89.42Z"/><path d="M38.15,89.35a.32.32,0,1,1-.32-.33A.32.32,0,0,1,38.15,89.35Z"/><path d="M39.09,88.6a.32.32,0,0,1-.32.32.33.33,0,1,1,0-.65A.32.32,0,0,1,39.09,88.6Z"/><path d="M40,87.94a.33.33,0,1,1-.33-.32A.32.32,0,0,1,40,87.94Z"/><path d="M40.28,87.26a.32.32,0,0,1-.32.32.32.32,0,0,1-.33-.32.33.33,0,0,1,.33-.33A.32.32,0,0,1,40.28,87.26Z"/><path d="M21.42,87.59a.32.32,0,0,1-.33.32.32.32,0,0,1-.32-.32.32.32,0,0,1,.32-.33A.33.33,0,0,1,21.42,87.59Z"/><path d="M21.05,87.61a.33.33,0,0,1-.65,0,.33.33,0,1,1,.65,0Z"/><path d="M20.69,87.65a.32.32,0,0,1-.32.32.33.33,0,1,1,0-.65A.32.32,0,0,1,20.69,87.65Z"/><path d="M20.06,87.71a.32.32,0,0,1-.32.33.33.33,0,1,1,0-.65A.32.32,0,0,1,20.06,87.71Z"/><path d="M19.37,87.72a.33.33,0,0,1-.65,0,.33.33,0,1,1,.65,0Z"/><path d="M18.74,88.33a.32.32,0,1,1-.32-.32A.32.32,0,0,1,18.74,88.33Z"/><path d="M18.45,89.3a.33.33,0,0,1-.33.32.33.33,0,0,1,0-.65A.33.33,0,0,1,18.45,89.3Z"/><path d="M19.11,90a.33.33,0,0,1-.33.33.32.32,0,0,1-.32-.33.32.32,0,0,1,.32-.32A.32.32,0,0,1,19.11,90Z"/><path d="M19.74,89a.33.33,0,0,1-.33.33.33.33,0,0,1,0-.65A.33.33,0,0,1,19.74,89Z"/><path d="M20.1,87.27a.32.32,0,1,1-.32-.33A.32.32,0,0,1,20.1,87.27Z"/><path d="M19.47,85.67a.33.33,0,0,1-.65,0,.33.33,0,1,1,.65,0Z"/><path d="M17.89,85.44a.33.33,0,1,1-.32-.32A.32.32,0,0,1,17.89,85.44Z"/><path d="M16.29,86.38a.33.33,0,0,1-.33.33.32.32,0,0,1-.32-.33.32.32,0,0,1,.32-.32A.32.32,0,0,1,16.29,86.38Z"/><path d="M15.65,87.65a.32.32,0,0,1-.32.32.32.32,0,0,1-.33-.32.33.33,0,0,1,.33-.33A.32.32,0,0,1,15.65,87.65Z"/><path d="M15.67,88.35a.33.33,0,0,1-.65,0,.33.33,0,1,1,.65,0Z"/><circle cx="16.01" cy="88.01" r="0.32"/><path d="M16.63,87a.32.32,0,1,1-.32-.32A.32.32,0,0,1,16.63,87Z"/><path d="M16.28,85.43a.33.33,0,1,1-.32-.32A.32.32,0,0,1,16.28,85.43Z"/><path d="M14.77,84.49a.32.32,0,0,1-.33.32.32.32,0,0,1-.32-.32.32.32,0,0,1,.32-.33A.33.33,0,0,1,14.77,84.49Z"/><path d="M13,84.82a.32.32,0,1,1-.64,0,.32.32,0,0,1,.64,0Z"/><path d="M19.22,88.59a.23.23,0,1,1-.45,0,.23.23,0,1,1,.45,0Z"/><path d="M19.08,87.92a.23.23,0,0,1-.23.23.23.23,0,0,1-.23-.23.24.24,0,0,1,.23-.23A.23.23,0,0,1,19.08,87.92Z"/><path d="M19.61,87.6a.23.23,0,1,1-.46,0,.23.23,0,0,1,.46,0Z"/><path d="M19.49,87.2a.23.23,0,1,1-.23-.22A.23.23,0,0,1,19.49,87.2Z"/><path d="M19.68,87.22a.23.23,0,0,1-.23.23.23.23,0,1,1,0-.46A.23.23,0,0,1,19.68,87.22Z"/><path d="M19.13,87.54a.23.23,0,0,1-.23.23.24.24,0,0,1-.23-.23.23.23,0,0,1,.23-.23A.23.23,0,0,1,19.13,87.54Z"/><path d="M19.26,88a.23.23,0,1,1-.23-.23A.23.23,0,0,1,19.26,88Z"/><path d="M18.79,88.56a.22.22,0,0,1-.23.22.23.23,0,1,1,0-.45A.23.23,0,0,1,18.79,88.56Z"/><path d="M18.81,88.93a.23.23,0,0,1-.23.23.23.23,0,0,1,0-.46A.23.23,0,0,1,18.81,88.93Z"/><path d="M18.82,89.3a.23.23,0,0,1-.23.23.23.23,0,0,1-.23-.23.24.24,0,0,1,.23-.23A.23.23,0,0,1,18.82,89.3Z"/><path d="M19.24,89.3a.23.23,0,1,1-.23-.23A.23.23,0,0,1,19.24,89.3Z"/><path d="M19.6,89a.23.23,0,0,1-.46,0,.23.23,0,0,1,.46,0Z"/><path d="M20,88.59a.23.23,0,0,1-.23.23.23.23,0,0,1,0-.46A.23.23,0,0,1,20,88.59Z"/><path d="M20,87.93a.23.23,0,0,1-.23.23.23.23,0,0,1,0-.46A.23.23,0,0,1,20,87.93Z"/><path d="M19.58,86.84a.23.23,0,0,1-.23.22.23.23,0,1,1,0-.45A.23.23,0,0,1,19.58,86.84Z"/><path d="M18.91,86.31a.22.22,0,0,1-.23.22.23.23,0,1,1,0-.45A.23.23,0,0,1,18.91,86.31Z"/><path d="M17.93,85.7a.23.23,0,0,1-.23.23.23.23,0,1,1,0-.46A.23.23,0,0,1,17.93,85.7Z"/><path d="M16.7,85.41a.23.23,0,1,1-.23-.23A.22.22,0,0,1,16.7,85.41Z"/><path d="M15.76,85.73a.23.23,0,0,1-.46,0,.23.23,0,1,1,.46,0Z"/><path d="M15.14,86.67a.24.24,0,0,1-.23.23.23.23,0,0,1-.23-.23.23.23,0,0,1,.23-.23A.23.23,0,0,1,15.14,86.67Z"/><path d="M15.12,87.62a.23.23,0,1,1-.45,0,.23.23,0,1,1,.45,0Z"/><path d="M15.76,88a.23.23,0,0,1-.23.23A.24.24,0,0,1,15.3,88a.23.23,0,0,1,.23-.23A.23.23,0,0,1,15.76,88Z"/><path d="M16.68,87.94a.23.23,0,1,1-.45,0,.23.23,0,1,1,.45,0Z"/><path d="M17.6,87.29a.23.23,0,0,1-.23.23.23.23,0,0,1,0-.46A.23.23,0,0,1,17.6,87.29Z"/><circle cx="18.34" cy="85.99" r="0.23"/><circle cx="18.38" cy="85.05" r="0.23"/><path d="M18,84.15a.23.23,0,0,1-.46,0,.23.23,0,0,1,.46,0Z"/><path d="M16.73,83.25a.23.23,0,0,1-.23.23.23.23,0,1,1,0-.46A.23.23,0,0,1,16.73,83.25Z"/><path d="M14.88,83a.23.23,0,1,1-.46,0,.23.23,0,1,1,.46,0Z"/><path d="M12.73,83a.23.23,0,1,1-.23-.23A.23.23,0,0,1,12.73,83Z"/><path d="M16.68,85.67a.23.23,0,0,1-.23.23.23.23,0,1,1,0-.46A.23.23,0,0,1,16.68,85.67Z"/><path d="M16.31,85.62a.23.23,0,1,1-.22-.22A.22.22,0,0,1,16.31,85.62Z"/><path d="M16,86a.23.23,0,1,1-.23-.23A.22.22,0,0,1,16,86Z"/><path d="M15.61,86.28a.23.23,0,0,1-.23.23.23.23,0,0,1-.23-.23.23.23,0,0,1,.23-.23A.24.24,0,0,1,15.61,86.28Z"/><path d="M14.94,86.51a.23.23,0,0,1-.23.23.24.24,0,0,1-.23-.23.23.23,0,0,1,.23-.23A.23.23,0,0,1,14.94,86.51Z"/><path d="M15,86.87a.23.23,0,1,1-.23-.22A.23.23,0,0,1,15,86.87Z"/><path d="M14.63,87.37a.23.23,0,1,1-.23-.23A.23.23,0,0,1,14.63,87.37Z"/><path d="M14.51,87.14a.23.23,0,1,1-.22-.22A.22.22,0,0,1,14.51,87.14Z"/><path d="M15.07,87.28a.23.23,0,1,1-.22-.23A.22.22,0,0,1,15.07,87.28Z"/><path d="M15.73,87a.23.23,0,1,1-.46,0,.23.23,0,1,1,.46,0Z"/><path d="M16,86.36a.24.24,0,0,1-.23.23.23.23,0,0,1-.23-.23.23.23,0,0,1,.23-.23A.23.23,0,0,1,16,86.36Z"/><path d="M15.92,85.59a.23.23,0,1,1-.45,0,.23.23,0,1,1,.45,0Z"/><path d="M15.57,85.26a.23.23,0,0,1-.23.23.23.23,0,0,1-.23-.23.24.24,0,0,1,.23-.23A.23.23,0,0,1,15.57,85.26Z"/><path d="M14.62,85a.23.23,0,0,1-.23.23.23.23,0,0,1-.23-.23.24.24,0,0,1,.23-.23A.23.23,0,0,1,14.62,85Z"/><path d="M13.67,85a.23.23,0,1,1-.46,0,.23.23,0,0,1,.46,0Z"/><path d="M12.72,85.3a.23.23,0,1,1-.45,0,.23.23,0,1,1,.45,0Z"/><path d="M11.76,85.66a.23.23,0,1,1-.23-.22A.23.23,0,0,1,11.76,85.66Z"/><path d="M11.41,86.35a.23.23,0,0,1-.46,0,.23.23,0,0,1,.46,0Z"/><path d="M11.08,87a.23.23,0,1,1-.45,0,.23.23,0,1,1,.45,0Z"/><path d="M11.7,87.66a.23.23,0,1,1-.23-.23A.23.23,0,0,1,11.7,87.66Z"/><path d="M12.32,87.66a.22.22,0,0,1-.23.22.23.23,0,1,1,0-.45A.23.23,0,0,1,12.32,87.66Z"/><path d="M12.94,87.28a.23.23,0,0,1-.46,0,.23.23,0,0,1,.46,0Z"/><path d="M13.32,86.6a.23.23,0,1,1-.23-.23A.23.23,0,0,1,13.32,86.6Z"/><path d="M13,86.28a.23.23,0,1,1-.23-.23A.22.22,0,0,1,13,86.28Z"/><path d="M12.38,85.67a.22.22,0,0,1-.23.22.23.23,0,1,1,0-.45A.23.23,0,0,1,12.38,85.67Z"/><path d="M11.38,85.67a.23.23,0,1,1-.22-.23A.22.22,0,0,1,11.38,85.67Z"/><path d="M15.78,87.66a.23.23,0,0,1-.46,0,.23.23,0,1,1,.46,0Z"/><path d="M15,87.74a.23.23,0,0,1-.23.23.23.23,0,0,1,0-.46A.23.23,0,0,1,15,87.74Z"/><path d="M14.66,87.76a.23.23,0,0,1-.23.23.23.23,0,0,1-.23-.23.24.24,0,0,1,.23-.23A.23.23,0,0,1,14.66,87.76Z"/><path d="M14.31,87.71a.23.23,0,0,1-.23.23.23.23,0,0,1-.23-.23.24.24,0,0,1,.23-.23A.23.23,0,0,1,14.31,87.71Z"/><path d="M13.89,87.78a.23.23,0,1,1-.23-.23A.23.23,0,0,1,13.89,87.78Z"/><path d="M13.8,87.5a.23.23,0,0,1-.23.23.23.23,0,1,1,0-.46A.23.23,0,0,1,13.8,87.5Z"/><path d="M13.58,88a.23.23,0,0,1-.23.23.24.24,0,0,1-.23-.23.23.23,0,0,1,.23-.23A.23.23,0,0,1,13.58,88Z"/><path d="M13.6,88.41a.23.23,0,1,1-.22-.23A.22.22,0,0,1,13.6,88.41Z"/><path d="M14,88.74a.23.23,0,0,1-.23.23.23.23,0,1,1,0-.45A.22.22,0,0,1,14,88.74Z"/><path d="M14.67,88.74a.23.23,0,1,1-.23-.23A.23.23,0,0,1,14.67,88.74Z"/><path d="M15.35,88.42a.23.23,0,0,1-.23.23.23.23,0,0,1-.23-.23.24.24,0,0,1,.23-.23A.23.23,0,0,1,15.35,88.42Z"/><path d="M15.74,88.07a.23.23,0,1,1-.22-.23A.22.22,0,0,1,15.74,88.07Z"/><path d="M15.4,87.69a.23.23,0,0,1-.23.23.24.24,0,0,1-.23-.23.23.23,0,0,1,.23-.23A.23.23,0,0,1,15.4,87.69Z"/><path d="M14.67,87.18a.23.23,0,0,1-.23.23.23.23,0,0,1-.23-.23.24.24,0,0,1,.23-.23A.23.23,0,0,1,14.67,87.18Z"/><path d="M14,87.58a.23.23,0,1,1-.46,0,.23.23,0,1,1,.46,0Z"/><path d="M13.2,88a.23.23,0,0,1-.23.23.23.23,0,0,1-.23-.23.24.24,0,0,1,.23-.23A.23.23,0,0,1,13.2,88Z"/><path d="M13.29,89a.23.23,0,0,1-.23.23.23.23,0,1,1,0-.45A.22.22,0,0,1,13.29,89Z"/><path d="M18.63,88.18a.23.23,0,0,1-.23.23.23.23,0,0,1-.23-.23A.24.24,0,0,1,18.4,88,.23.23,0,0,1,18.63,88.18Z"/><path d="M18.3,88.14a.23.23,0,1,1-.23-.23A.23.23,0,0,1,18.3,88.14Z"/><path d="M18.13,88.15a.22.22,0,0,1-.23.22.23.23,0,1,1,0-.45A.23.23,0,0,1,18.13,88.15Z"/><path d="M17.8,88.16a.23.23,0,1,1-.23-.23A.23.23,0,0,1,17.8,88.16Z"/><path d="M18.22,88.58a.23.23,0,0,1-.23.23.23.23,0,0,1-.23-.23.24.24,0,0,1,.23-.23A.23.23,0,0,1,18.22,88.58Z"/><path d="M18.17,89a.23.23,0,0,1-.23.23.23.23,0,0,1-.23-.23.24.24,0,0,1,.23-.23A.23.23,0,0,1,18.17,89Z"/><path d="M18.56,89.31a.24.24,0,0,1-.23.23.23.23,0,0,1-.23-.23.23.23,0,0,1,.23-.23A.23.23,0,0,1,18.56,89.31Z"/><circle cx="18.99" cy="89.59" r="0.23"/><path d="M19.58,89.25a.23.23,0,0,1-.23.23.23.23,0,1,1,0-.46A.23.23,0,0,1,19.58,89.25Z"/><path d="M19.94,88.91a.23.23,0,1,1-.45,0,.23.23,0,1,1,.45,0Z"/><path d="M20.3,87.87a.23.23,0,1,1-.23-.23A.22.22,0,0,1,20.3,87.87Z"/><path d="M19.64,87.09a.22.22,0,0,1-.23.22.23.23,0,1,1,0-.45A.23.23,0,0,1,19.64,87.09Z"/><path d="M18.89,86.52a.23.23,0,0,1-.46,0,.23.23,0,0,1,.46,0Z"/><path d="M18.22,86.55a.23.23,0,1,1-.23-.23A.23.23,0,0,1,18.22,86.55Z"/><path d="M17.27,86.88a.23.23,0,1,1-.23-.23A.23.23,0,0,1,17.27,86.88Z"/><path d="M16.91,87.24a.23.23,0,1,1-.23-.23A.23.23,0,0,1,16.91,87.24Z"/><path d="M17.18,88.22a.22.22,0,0,1-.23.22A.23.23,0,1,1,17,88,.23.23,0,0,1,17.18,88.22Z"/><path d="M17.8,88.6a.23.23,0,0,1-.23.23.23.23,0,0,1-.23-.23.23.23,0,0,1,.23-.23A.24.24,0,0,1,17.8,88.6Z"/><path d="M18.61,88.91a.23.23,0,0,1-.23.23.23.23,0,0,1-.23-.23.23.23,0,0,1,.23-.23A.24.24,0,0,1,18.61,88.91Z"/><path d="M19.55,88.56a.23.23,0,0,1-.23.23.23.23,0,0,1-.23-.23.24.24,0,0,1,.23-.23A.23.23,0,0,1,19.55,88.56Z"/><path d="M19.93,88.24a.23.23,0,0,1-.46,0,.23.23,0,0,1,.46,0Z"/><path d="M19.9,87.85a.23.23,0,1,1-.45,0,.23.23,0,1,1,.45,0Z"/><path d="M19.56,87.24a.23.23,0,1,1-.45,0,.22.22,0,0,1,.22-.22A.22.22,0,0,1,19.56,87.24Z"/><path d="M19.17,87.16a.23.23,0,0,1-.23.23.23.23,0,0,1-.23-.23.23.23,0,0,1,.23-.23A.24.24,0,0,1,19.17,87.16Z"/><path d="M19.2,87.57a.23.23,0,0,1-.46,0,.23.23,0,0,1,.46,0Z"/><path d="M16.5,88.81a.23.23,0,0,1-.23.22.23.23,0,1,1,0-.45A.23.23,0,0,1,16.5,88.81Z"/><path d="M16.17,88.37a.23.23,0,0,1-.23.23.23.23,0,1,1,0-.45A.22.22,0,0,1,16.17,88.37Z"/><path d="M15.73,88.74a.22.22,0,0,1-.23.22.22.22,0,0,1-.22-.22.23.23,0,1,1,.45,0Z"/><path d="M15.88,88.84a.23.23,0,0,1-.23.23.23.23,0,0,1-.23-.23.23.23,0,0,1,.23-.23A.24.24,0,0,1,15.88,88.84Z"/><path d="M15.58,89.53a.23.23,0,1,1-.46,0,.23.23,0,0,1,.46,0Z"/><path d="M15.51,90.15a.23.23,0,0,1-.46,0,.23.23,0,1,1,.46,0Z"/><path d="M15.48,90.79a.23.23,0,0,1-.23.23.23.23,0,0,1-.23-.23.23.23,0,0,1,.23-.23A.24.24,0,0,1,15.48,90.79Z"/><path d="M16.12,91.09a.23.23,0,1,1-.45,0,.23.23,0,1,1,.45,0Z"/><path d="M16.77,91.08a.23.23,0,0,1-.46,0,.23.23,0,0,1,.46,0Z"/><path d="M17.41,91.08a.23.23,0,1,1-.22-.23A.22.22,0,0,1,17.41,91.08Z"/><path d="M18,90.15a.23.23,0,0,1-.46,0,.23.23,0,0,1,.46,0Z"/><path d="M18.07,89.38a.23.23,0,0,1-.23.23.23.23,0,1,1,0-.45A.23.23,0,0,1,18.07,89.38Z"/><circle cx="17.54" cy="88.76" r="0.23"/><path d="M16.81,88.4a.23.23,0,0,1-.23.23.23.23,0,0,1-.23-.23.24.24,0,0,1,.23-.23A.23.23,0,0,1,16.81,88.4Z"/><path d="M15.77,88.35a.23.23,0,0,1-.23.23.24.24,0,0,1-.23-.23.23.23,0,0,1,.23-.23A.23.23,0,0,1,15.77,88.35Z"/><path d="M15.11,88.73a.23.23,0,1,1-.46,0,.23.23,0,0,1,.46,0Z"/><path d="M14.77,89.09a.23.23,0,0,1-.46,0,.23.23,0,1,1,.46,0Z"/><path d="M14.43,89.78a.23.23,0,0,1-.23.22.23.23,0,1,1,0-.45A.23.23,0,0,1,14.43,89.78Z"/><path d="M14.81,90.18a.23.23,0,0,1-.23.22.23.23,0,1,1,0-.45A.23.23,0,0,1,14.81,90.18Z"/><path d="M16.77,86.27a.23.23,0,1,1-.22-.23A.22.22,0,0,1,16.77,86.27Z"/><path d="M13.31,87.23a.23.23,0,0,1-.46,0,.23.23,0,0,1,.46,0Z"/><path d="M12.07,89.76a.23.23,0,1,1-.45,0,.23.23,0,1,1,.45,0Z"/><path d="M14.82,89.77a.23.23,0,0,1-.23.23.23.23,0,0,1-.23-.23.23.23,0,0,1,.23-.23A.24.24,0,0,1,14.82,89.77Z"/><path d="M16.77,85.05a.23.23,0,0,1-.46,0,.23.23,0,0,1,.46,0Z"/><path d="M13.34,85.69a.23.23,0,1,1-.46,0,.23.23,0,1,1,.46,0Z"/><path d="M12.38,88.49a.23.23,0,0,1-.23.23.23.23,0,1,1,0-.45A.23.23,0,0,1,12.38,88.49Z"/><path d="M14.88,86.58a.23.23,0,1,1-.23-.23A.23.23,0,0,1,14.88,86.58Z"/><path d="M13.05,83.86a.23.23,0,1,1-.23-.23A.23.23,0,0,1,13.05,83.86Z"/><path d="M8.16,85.74a.23.23,0,1,1-.23-.23A.23.23,0,0,1,8.16,85.74Z"/><circle cx="6.71" cy="88.51" r="0.23"/><path d="M20.56,88.79a.23.23,0,0,1-.23.23.24.24,0,0,1-.23-.23.23.23,0,0,1,.23-.23A.23.23,0,0,1,20.56,88.79Z"/><path d="M17.44,88.4a.23.23,0,0,1-.23.23A.23.23,0,0,1,17,88.4a.23.23,0,0,1,.23-.23A.24.24,0,0,1,17.44,88.4Z"/><circle cx="15.18" cy="89.41" r="0.23"/><path d="M18,89.75a.23.23,0,0,1-.23.23.23.23,0,1,1,0-.45A.23.23,0,0,1,18,89.75Z"/><path d="M19.28,88.13a.23.23,0,0,1-.23.23.23.23,0,0,1,0-.46A.23.23,0,0,1,19.28,88.13Z"/><path d="M17.09,89.46a.23.23,0,0,1-.23.23.23.23,0,0,1-.23-.23.24.24,0,0,1,.23-.23A.23.23,0,0,1,17.09,89.46Z"/><path d="M19,90.08a.23.23,0,1,1-.22-.22A.22.22,0,0,1,19,90.08Z"/><path d="M20.19,88.78A.23.23,0,0,1,20,89a.23.23,0,1,1,0-.45A.23.23,0,0,1,20.19,88.78Z"/><path d="M18.4,90.12a.23.23,0,0,1-.23.23.24.24,0,0,1-.23-.23.23.23,0,0,1,.23-.23A.23.23,0,0,1,18.4,90.12Z"/><path d="M20.2,90.73A.23.23,0,0,1,20,91a.23.23,0,0,1-.23-.23A.23.23,0,0,1,20,90.5.24.24,0,0,1,20.2,90.73Z"/><path d="M20.54,90.36a.24.24,0,0,1-.23.23.23.23,0,0,1-.23-.23.23.23,0,0,1,.23-.23A.23.23,0,0,1,20.54,90.36Z"/><path d="M19.87,90.28a.23.23,0,1,1-.23-.23A.23.23,0,0,1,19.87,90.28Z"/><path d="M18.87,90.36a.23.23,0,0,1-.23.23.23.23,0,1,1,0-.46A.23.23,0,0,1,18.87,90.36Z"/><path d="M20.14,91.12a.23.23,0,1,1-.23-.23A.23.23,0,0,1,20.14,91.12Z"/><path d="M20.83,90.67a.23.23,0,0,1-.23.23.23.23,0,0,1-.23-.23.23.23,0,0,1,.23-.23A.24.24,0,0,1,20.83,90.67Z"/><path d="M19.84,90.68a.23.23,0,0,1-.23.23.23.23,0,0,1,0-.46A.23.23,0,0,1,19.84,90.68Z"/><path d="M20.23,91a.23.23,0,0,1-.23.23.24.24,0,0,1-.23-.23.23.23,0,0,1,.23-.23A.23.23,0,0,1,20.23,91Z"/><path d="M21.14,90.31a.23.23,0,1,1-.22-.23A.22.22,0,0,1,21.14,90.31Z"/><path d="M18.86,91.07a.23.23,0,0,1-.23.23.23.23,0,0,1,0-.46A.23.23,0,0,1,18.86,91.07Z"/><path d="M19.21,90.71a.23.23,0,0,1-.23.23.24.24,0,0,1-.23-.23.23.23,0,0,1,.23-.23A.23.23,0,0,1,19.21,90.71Z"/><path d="M18.94,89.58a.24.24,0,0,1-.23.23.23.23,0,0,1-.23-.23.23.23,0,0,1,.23-.23A.23.23,0,0,1,18.94,89.58Z"/><path d="M17,90.08a.23.23,0,0,1-.46,0,.23.23,0,0,1,.46,0Z"/><path d="M17.93,90.4a.23.23,0,0,1-.23.23.23.23,0,1,1,0-.45A.22.22,0,0,1,17.93,90.4Z"/><path d="M18.91,89.75a.23.23,0,1,1-.23-.22A.23.23,0,0,1,18.91,89.75Z"/><path d="M16.88,89.66a.22.22,0,0,1-.23.22.23.23,0,1,1,0-.45A.23.23,0,0,1,16.88,89.66Z"/><path d="M17,90.44a.23.23,0,1,1-.45,0,.23.23,0,1,1,.45,0Z"/><path d="M18.27,89.33a.23.23,0,0,1-.23.23.23.23,0,1,1,0-.46A.23.23,0,0,1,18.27,89.33Z"/><path d="M17.07,89.69a.23.23,0,1,1-.23-.23A.23.23,0,0,1,17.07,89.69Z"/><path d="M17.93,89.7a.23.23,0,0,1-.23.23.23.23,0,0,1-.23-.23.24.24,0,0,1,.23-.23A.23.23,0,0,1,17.93,89.7Z"/><path d="M18.91,87.22a.23.23,0,1,1-.23-.23A.23.23,0,0,1,18.91,87.22Z"/><path d="M17.05,86a.23.23,0,1,1-.23-.23A.23.23,0,0,1,17.05,86Z"/><path d="M13.67,86a.23.23,0,1,1-.23-.23A.23.23,0,0,1,13.67,86Z"/><path d="M13.05,88.82a.23.23,0,0,1-.23.23.24.24,0,0,1-.23-.23.23.23,0,0,1,.23-.23A.23.23,0,0,1,13.05,88.82Z"/><path d="M16.11,87a.23.23,0,1,1-.23-.23A.22.22,0,0,1,16.11,87Z"/><path d="M14.3,83.28a.23.23,0,0,1-.23.23.23.23,0,1,1,0-.45A.23.23,0,0,1,14.3,83.28Z"/><path d="M9.7,87.28a.23.23,0,0,1-.23.23.23.23,0,0,1-.23-.23.23.23,0,0,1,.23-.23A.24.24,0,0,1,9.7,87.28Z"/><path d="M10.92,88.82a.23.23,0,0,1-.23.23.23.23,0,0,1-.23-.23.23.23,0,0,1,.23-.23A.24.24,0,0,1,10.92,88.82Z"/><path d="M10,84.22a.23.23,0,0,1-.23.23.24.24,0,0,1-.23-.23A.23.23,0,0,1,9.78,84,.23.23,0,0,1,10,84.22Z"/><path d="M15.53,83.63a.23.23,0,0,1-.23.23.23.23,0,0,1-.23-.23.23.23,0,0,1,.23-.23A.24.24,0,0,1,15.53,83.63Z"/><path d="M36.31,88.21a.22.22,0,0,1-.22.22.23.23,0,1,1,.22-.22Z"/><path d="M33.81,89.44a.24.24,0,0,1-.23.23.23.23,0,0,1-.23-.23.23.23,0,0,1,.23-.23A.23.23,0,0,1,33.81,89.44Z"/><path d="M36.18,88.21a.23.23,0,1,1-.45,0,.23.23,0,1,1,.45,0Z"/><path d="M31.35,88.5a.23.23,0,0,1-.23.23.23.23,0,1,1,0-.46A.23.23,0,0,1,31.35,88.5Z"/><path d="M32.27,90.05a.23.23,0,0,1-.23.23.23.23,0,1,1,0-.46A.23.23,0,0,1,32.27,90.05Z"/><path d="M36.91,87.88a.24.24,0,0,1-.23.23.23.23,0,0,1-.23-.23.23.23,0,0,1,.23-.23A.23.23,0,0,1,36.91,87.88Z"/><path d="M34.41,88.19a.23.23,0,0,1-.23.23.23.23,0,0,1-.23-.23.24.24,0,0,1,.23-.23A.23.23,0,0,1,34.41,88.19Z"/><path d="M34.76,87.89a.23.23,0,1,1-.46,0,.23.23,0,1,1,.46,0Z"/><path d="M36,89.48a.23.23,0,1,1-.45,0,.23.23,0,1,1,.45,0Z"/><path d="M38.46,89.13a.23.23,0,1,1-.22-.23A.22.22,0,0,1,38.46,89.13Z"/><path d="M36.9,88.83a.23.23,0,0,1-.23.23.23.23,0,1,1,0-.45A.22.22,0,0,1,36.9,88.83Z"/><path d="M36.28,90.42a.23.23,0,1,1-.22-.23A.22.22,0,0,1,36.28,90.42Z"/><path d="M38.77,89.78a.23.23,0,0,1-.23.23.23.23,0,0,1-.23-.23.24.24,0,0,1,.23-.23A.23.23,0,0,1,38.77,89.78Z"/><path d="M37.55,88.83a.23.23,0,0,1-.23.23.23.23,0,1,1,0-.46A.23.23,0,0,1,37.55,88.83Z"/><path d="M36.93,87a.23.23,0,1,1-.23-.23A.22.22,0,0,1,36.93,87Z"/><path d="M34.66,88.59a.23.23,0,1,1-.22-.22A.22.22,0,0,1,34.66,88.59Z"/><path d="M34.83,88.54a.23.23,0,0,1-.23.23.23.23,0,0,1-.23-.23.23.23,0,0,1,.23-.23A.24.24,0,0,1,34.83,88.54Z"/><path d="M34.47,86.67a.23.23,0,1,1-.23-.22A.23.23,0,0,1,34.47,86.67Z"/><path d="M32.29,87.32a.23.23,0,0,1-.23.23.23.23,0,1,1,0-.45A.22.22,0,0,1,32.29,87.32Z"/><path d="M32.28,88a.23.23,0,1,1-.45,0,.23.23,0,1,1,.45,0Z"/><path d="M33,85.18a.24.24,0,0,1-.23.23.23.23,0,0,1-.23-.23.23.23,0,0,1,.23-.23A.23.23,0,0,1,33,85.18Z"/><path d="M31.38,84.57a.23.23,0,0,1-.23.23.24.24,0,0,1-.23-.23.23.23,0,0,1,.23-.23A.23.23,0,0,1,31.38,84.57Z"/><path d="M31.39,85.52a.24.24,0,0,1-.23.23.23.23,0,0,1-.23-.23.23.23,0,0,1,.23-.23A.23.23,0,0,1,31.39,85.52Z"/><path d="M32.7,83.91a.23.23,0,0,1-.46,0,.23.23,0,0,1,.46,0Z"/><path d="M31,83.21a.24.24,0,0,1-.23.23.23.23,0,0,1-.23-.23.23.23,0,0,1,.23-.23A.23.23,0,0,1,31,83.21Z"/><path d="M30.43,85.52a.23.23,0,1,1-.45,0,.23.23,0,1,1,.45,0Z"/><path d="M32.38,83.26a.23.23,0,1,1-.45,0,.22.22,0,0,1,.22-.22A.22.22,0,0,1,32.38,83.26Z"/><path d="M30.13,82.65a.23.23,0,1,1-.45,0,.23.23,0,1,1,.45,0Z"/><path d="M29.52,84.25a.23.23,0,0,1-.23.23.24.24,0,0,1-.23-.23.23.23,0,0,1,.23-.23A.23.23,0,0,1,29.52,84.25Z"/><path d="M31.74,82.85a.23.23,0,0,1-.23.23.23.23,0,0,1-.23-.23.23.23,0,0,1,.23-.23A.24.24,0,0,1,31.74,82.85Z"/><path d="M30.46,81.7a.22.22,0,0,1-.23.22A.22.22,0,0,1,30,81.7a.23.23,0,1,1,.45,0Z"/><path d="M31.08,83.38a.23.23,0,0,1-.23.23.23.23,0,0,1-.23-.23.23.23,0,0,1,.23-.23A.24.24,0,0,1,31.08,83.38Z"/><path d="M29.21,83a.23.23,0,0,1-.23.23.23.23,0,0,1-.23-.23.23.23,0,0,1,.23-.23A.24.24,0,0,1,29.21,83Z"/><path d="M25.55,83.62a.23.23,0,1,1-.23-.23A.22.22,0,0,1,25.55,83.62Z"/><path d="M25.55,84.58a.24.24,0,0,1-.23.23.23.23,0,0,1-.23-.23.23.23,0,0,1,.23-.23A.23.23,0,0,1,25.55,84.58Z"/><path d="M27.62,82.9a.23.23,0,0,1-.23.23.23.23,0,0,1,0-.46A.23.23,0,0,1,27.62,82.9Z"/><path d="M24,83.32a.23.23,0,0,1-.23.23.24.24,0,0,1-.23-.23.23.23,0,0,1,.23-.23A.23.23,0,0,1,24,83.32Z"/><path d="M22.8,84.56a.23.23,0,1,1-.23-.23A.23.23,0,0,1,22.8,84.56Z"/><path d="M24.33,82.36a.23.23,0,1,1-.23-.22A.23.23,0,0,1,24.33,82.36Z"/><path d="M19.47,83a.23.23,0,1,1-.23-.23A.23.23,0,0,1,19.47,83Z"/><path d="M32.34,84.26a.23.23,0,1,1-.23-.23A.23.23,0,0,1,32.34,84.26Z"/><path d="M28,84.57a.23.23,0,0,1-.46,0,.23.23,0,0,1,.46,0Z"/><path d="M28.9,84.9a.23.23,0,1,1-.46,0,.23.23,0,1,1,.46,0Z"/><path d="M31.73,83a.24.24,0,0,1-.23.23.23.23,0,0,1-.23-.23.23.23,0,0,1,.23-.23A.23.23,0,0,1,31.73,83Z"/><path d="M27.73,83.06a.23.23,0,0,1-.23.23.23.23,0,0,1-.23-.23.23.23,0,0,1,.23-.23A.24.24,0,0,1,27.73,83.06Z"/><path d="M14.63,87.63a.23.23,0,1,1-.22-.22A.22.22,0,0,1,14.63,87.63Z"/><path d="M13.39,86.68a.23.23,0,1,1-.23-.22A.23.23,0,0,1,13.39,86.68Z"/><path d="M11.24,86.71a.23.23,0,1,1-.23-.23A.22.22,0,0,1,11.24,86.71Z"/><path d="M11.24,88.26a.23.23,0,0,1-.23.23.24.24,0,0,1-.23-.23A.23.23,0,0,1,11,88,.23.23,0,0,1,11.24,88.26Z"/><path d="M14,87a.23.23,0,0,1-.23.23.23.23,0,0,1-.23-.23.24.24,0,0,1,.23-.23A.23.23,0,0,1,14,87Z"/><path d="M10,85.79a.23.23,0,0,1-.23.23.24.24,0,0,1-.23-.23.23.23,0,0,1,.23-.23A.23.23,0,0,1,10,85.79Z"/><path d="M8.78,87.94a.23.23,0,1,1-.22-.23A.22.22,0,0,1,8.78,87.94Z"/><path d="M12.17,86.38a.23.23,0,1,1-.22-.23A.22.22,0,0,1,12.17,86.38Z"/><path d="M9.27,85.1A.23.23,0,1,1,9,84.87.23.23,0,0,1,9.27,85.1Z"/><path d="M6,87.32a.23.23,0,1,1-.23-.23A.23.23,0,0,1,6,87.32Z"/><path d="M4.8,87a.23.23,0,0,1-.23.23.23.23,0,0,1,0-.46A.23.23,0,0,1,4.8,87Z"/><path d="M16.43,82.7a.22.22,0,0,1-.23.22.23.23,0,1,1,0-.45A.23.23,0,0,1,16.43,82.7Z"/><circle cx="12.25" cy="83.59" r="0.23"/><path d="M9.49,85.19a.24.24,0,0,1-.23.23A.23.23,0,0,1,9,85.19.23.23,0,0,1,9.26,85,.23.23,0,0,1,9.49,85.19Z"/><path d="M11.25,84.52a.22.22,0,0,1-.22.22.23.23,0,1,1,.22-.22Z"/><path d="M9.7,84.18a.23.23,0,1,1-.45,0,.23.23,0,1,1,.45,0Z"/><path d="M6.36,85.76a.23.23,0,0,1-.23.23.23.23,0,1,1,0-.45A.23.23,0,0,1,6.36,85.76Z"/><path d="M5.71,85.44a.23.23,0,0,1-.23.22.23.23,0,1,1,0-.45A.23.23,0,0,1,5.71,85.44Z"/><path d="M17.34,83a.23.23,0,1,1-.22-.22A.22.22,0,0,1,17.34,83Z"/><path d="M17.37,83.07a.22.22,0,0,1-.23.22.23.23,0,1,1,0-.45A.23.23,0,0,1,17.37,83.07Z"/><circle cx="14.39" cy="83.91" r="0.32"/><path d="M14.73,82.64a.32.32,0,0,1-.32.32.32.32,0,0,1-.33-.32.33.33,0,0,1,.33-.33A.32.32,0,0,1,14.73,82.64Z"/><path d="M13.46,83.27a.32.32,0,0,1-.32.32.33.33,0,1,1,0-.65A.32.32,0,0,1,13.46,83.27Z"/><path d="M11,84.53a.32.32,0,0,1-.32.32.32.32,0,1,1,0-.64A.32.32,0,0,1,11,84.53Z"/><path d="M11,86.74a.32.32,0,1,1-.64,0,.32.32,0,0,1,.64,0Z"/><path d="M14.08,84.26a.33.33,0,0,1-.33.33.33.33,0,0,1,0-.65A.33.33,0,0,1,14.08,84.26Z"/><path d="M12.83,83.93a.33.33,0,0,1-.65,0,.33.33,0,1,1,.65,0Z"/><path d="M11,86.07a.33.33,0,1,1-.65,0,.33.33,0,0,1,.65,0Z"/><path d="M15.67,85.5a.32.32,0,0,1-.33.32A.32.32,0,0,1,15,85.5a.32.32,0,0,1,.32-.33A.33.33,0,0,1,15.67,85.5Z"/><circle cx="15.04" cy="84.28" r="0.32"/><path d="M12.88,86.73a.33.33,0,1,1-.33-.32A.32.32,0,0,1,12.88,86.73Z"/><path d="M16,86.44a.32.32,0,1,1-.32-.33A.32.32,0,0,1,16,86.44Z"/><path d="M15.73,83.88a.33.33,0,1,1-.32-.32A.32.32,0,0,1,15.73,83.88Z"/><path d="M11.34,88.34a.33.33,0,0,1-.65,0,.33.33,0,1,1,.65,0Z"/><path d="M18.47,87a.32.32,0,0,1-.32.32.32.32,0,0,1-.33-.32.33.33,0,0,1,.33-.33A.32.32,0,0,1,18.47,87Z"/><circle cx="17.52" cy="86.4" r="0.32"/><path d="M15.37,85.13a.32.32,0,0,1-.32.32.32.32,0,0,1-.33-.32.33.33,0,0,1,.33-.33A.32.32,0,0,1,15.37,85.13Z"/><path d="M12,86.05a.32.32,0,1,1-.32-.32A.32.32,0,0,1,12,86.05Z"/><path d="M12.29,87.41a.32.32,0,0,1-.33.32.32.32,0,0,1,0-.64A.32.32,0,0,1,12.29,87.41Z"/><path d="M15.37,85.54a.33.33,0,0,1-.33.32.33.33,0,0,1,0-.65A.33.33,0,0,1,15.37,85.54Z"/><path d="M13.83,83.94a.33.33,0,0,1-.65,0,.33.33,0,1,1,.65,0Z"/><path d="M10.7,86.32a.32.32,0,0,1-.32.33.33.33,0,1,1,0-.65A.32.32,0,0,1,10.7,86.32Z"/><path d="M12.68,87.38a.32.32,0,1,1-.64,0,.32.32,0,0,1,.64,0Z"/><circle cx="15.73" cy="84.52" r="0.32"/><path d="M13.53,83.23a.32.32,0,0,1-.33.32.32.32,0,0,1,0-.64A.32.32,0,0,1,13.53,83.23Z"/><path d="M10.59,86.78a.33.33,0,1,1-.33-.32A.32.32,0,0,1,10.59,86.78Z"/><circle cx="13.54" cy="86.74" r="0.32"/><path d="M15.7,83.87a.32.32,0,0,1-.32.32.32.32,0,0,1-.33-.32.33.33,0,0,1,.33-.33A.32.32,0,0,1,15.7,83.87Z"/><path d="M13.13,83.24a.33.33,0,1,1-.32-.32A.33.33,0,0,1,13.13,83.24Z"/><path d="M12,87a.32.32,0,0,1-.32.32.32.32,0,0,1-.33-.32.33.33,0,0,1,.33-.33A.32.32,0,0,1,12,87Z"/><path d="M16,85.83a.32.32,0,1,1-.32-.32A.32.32,0,0,1,16,85.83Z"/><path d="M16.33,82.94a.32.32,0,1,1-.32-.33A.32.32,0,0,1,16.33,82.94Z"/><path d="M11.35,84.5a.32.32,0,0,1-.32.32.32.32,0,1,1,0-.64A.32.32,0,0,1,11.35,84.5Z"/><path d="M10.8,86.76a.32.32,0,1,1-.32-.32A.32.32,0,0,1,10.8,86.76Z"/><path d="M14.18,83.23a.32.32,0,0,1-.32.32.32.32,0,1,1,0-.64A.32.32,0,0,1,14.18,83.23Z"/><path d="M10.43,82.32a.32.32,0,1,1-.64,0,.32.32,0,1,1,.64,0Z"/><path d="M6.13,85.5a.32.32,0,1,1-.64,0,.32.32,0,1,1,.64,0Z"/><circle cx="8.24" cy="85.49" r="0.32"/><path d="M9.5,83.26a.33.33,0,0,1-.33.32.33.33,0,0,1,0-.65A.33.33,0,0,1,9.5,83.26Z"/><path d="M5.48,84.54a.33.33,0,0,1-.65,0,.33.33,0,1,1,.65,0Z"/><path d="M5.82,86.45a.32.32,0,0,1-.33.32.32.32,0,0,1,0-.64A.32.32,0,0,1,5.82,86.45Z"/><path d="M9.19,84.52a.32.32,0,0,1-.32.32.32.32,0,0,1-.33-.32.33.33,0,0,1,.33-.33A.32.32,0,0,1,9.19,84.52Z"/><path d="M6.13,84.18a.32.32,0,1,1-.32-.32A.32.32,0,0,1,6.13,84.18Z"/><path d="M3.33,86.44a.33.33,0,0,1-.33.33.32.32,0,0,1-.32-.33A.32.32,0,0,1,3,86.12.32.32,0,0,1,3.33,86.44Z"/><path d="M6.78,84.53a.32.32,0,0,1-.32.32.32.32,0,0,1-.33-.32.33.33,0,0,1,.33-.33A.32.32,0,0,1,6.78,84.53Z"/><path d="M3.65,83.91a.33.33,0,1,1-.33-.33A.33.33,0,0,1,3.65,83.91Z"/><path d="M3.68,86.08a.32.32,0,0,1-.32.32.32.32,0,1,1,0-.64A.32.32,0,0,1,3.68,86.08Z"/><path d="M4.89,83.26a.32.32,0,0,1-.32.32.33.33,0,1,1,0-.65A.32.32,0,0,1,4.89,83.26Z"/><path d="M.92,83.61a.33.33,0,0,1-.33.33.33.33,0,0,1,0-.65A.33.33,0,0,1,.92,83.61Z"/><path d="M19.62,86.38a.32.32,0,1,1-.32-.32A.32.32,0,0,1,19.62,86.38Z"/><path d="M14.74,85.46a.32.32,0,0,1-.32.33.33.33,0,0,1-.33-.33.32.32,0,0,1,.33-.32A.32.32,0,0,1,14.74,85.46Z"/><path d="M12.92,87.32a.32.32,0,0,1-.33.32.32.32,0,0,1-.32-.32.32.32,0,0,1,.32-.33A.33.33,0,0,1,12.92,87.32Z"/><path d="M15.37,87a.32.32,0,0,1-.33.32.32.32,0,0,1,0-.64A.32.32,0,0,1,15.37,87Z"/><path d="M15.06,84.51a.33.33,0,0,1-.65,0,.33.33,0,1,1,.65,0Z"/><path d="M9.85,85.49a.32.32,0,0,1-.33.32.32.32,0,0,1-.32-.32.32.32,0,0,1,.32-.33A.33.33,0,0,1,9.85,85.49Z"/><path d="M11.38,87.32a.33.33,0,0,1-.33.33.33.33,0,0,1,0-.65A.33.33,0,0,1,11.38,87.32Z"/><path d="M10.16,83.87a.33.33,0,1,1-.32-.32A.32.32,0,0,1,10.16,83.87Z"/><path d="M6.44,87.06a.33.33,0,1,1-.65,0,.33.33,0,0,1,.65,0Z"/><path d="M8.92,88a.32.32,0,1,1-.32-.32A.32.32,0,0,1,8.92,88Z"/><path d="M10.49,84.83a.32.32,0,1,1-.64,0,.32.32,0,0,1,.64,0Z"/><path d="M5.84,84.83a.32.32,0,0,1-.32.32.32.32,0,0,1-.33-.32.33.33,0,0,1,.33-.33A.32.32,0,0,1,5.84,84.83Z"/><path d="M6.81,86.7a.33.33,0,0,1-.65,0,.33.33,0,1,1,.65,0Z"/><path d="M9.2,84.83a.32.32,0,1,1-.32-.33A.32.32,0,0,1,9.2,84.83Z"/><path d="M6.47,83.58a.32.32,0,0,1-.32.32.32.32,0,1,1,0-.64A.32.32,0,0,1,6.47,83.58Z"/><circle cx="3.67" cy="85.47" r="0.32"/><path d="M6.14,86.07a.33.33,0,1,1-.33-.32A.32.32,0,0,1,6.14,86.07Z"/><path d="M3.39,83.6a.32.32,0,1,1-.64,0,.32.32,0,1,1,.64,0Z"/><path d="M.65,84.85a.32.32,0,0,1-.33.32.32.32,0,1,1,0-.64A.32.32,0,0,1,.65,84.85Z"/><path d="M18.77,85.5a.32.32,0,1,1-.64,0,.32.32,0,0,1,.64,0Z"/><path d="M15.73,84.59a.33.33,0,1,1-.33-.32A.32.32,0,0,1,15.73,84.59Z"/><path d="M12.33,85a.32.32,0,0,1-.32.32.33.33,0,1,1,0-.65A.32.32,0,0,1,12.33,85Z"/><path d="M12.33,86.5a.33.33,0,1,1-.65,0,.33.33,0,0,1,.65,0Z"/><path d="M15.11,85.24a.33.33,0,1,1-.33-.32A.32.32,0,0,1,15.11,85.24Z"/><path d="M10.12,86.21a.32.32,0,1,1-.32-.32A.32.32,0,0,1,10.12,86.21Z"/><path d="M11.68,83.56a.33.33,0,1,1-.65,0,.33.33,0,0,1,.65,0Z"/><path d="M7.94,83.25a.33.33,0,1,1-.32-.32A.33.33,0,0,1,7.94,83.25Z"/><path d="M6.94,85.51a.33.33,0,0,1-.65,0,.33.33,0,1,1,.65,0Z"/><path d="M7,82.62a.32.32,0,0,1-.64,0,.32.32,0,1,1,.64,0Z"/><path d="M5.43,86.13a.32.32,0,1,1-.32-.32A.32.32,0,0,1,5.43,86.13Z"/><path d="M8.86,83.21a.32.32,0,0,1-.64,0,.32.32,0,1,1,.64,0Z"/><path d="M6.63,84.53a.32.32,0,1,1-.64,0,.32.32,0,0,1,.64,0Z"/><path d="M7.64,85.86a.33.33,0,1,1-.65,0,.33.33,0,0,1,.65,0Z"/><path d="M8.86,83.63a.33.33,0,1,1-.32-.32A.32.32,0,0,1,8.86,83.63Z"/><path d="M7.28,86.22a.33.33,0,1,1-.65,0,.33.33,0,0,1,.65,0Z"/><path d="M10.45,84.93a.32.32,0,0,1-.32.32.32.32,0,0,1-.33-.32.33.33,0,0,1,.33-.33A.32.32,0,0,1,10.45,84.93Z"/><path d="M10.09,84.26a.32.32,0,0,1-.33.32.32.32,0,1,1,0-.64A.32.32,0,0,1,10.09,84.26Z"/><path d="M11.07,86.51a.32.32,0,1,1-.32-.32A.32.32,0,0,1,11.07,86.51Z"/><path d="M14.17,85.24a.33.33,0,0,1-.65,0,.33.33,0,1,1,.65,0Z"/><path d="M15.69,83a.32.32,0,0,1-.33.32.32.32,0,0,1,0-.64A.32.32,0,0,1,15.69,83Z"/><path d="M16.33,83.65A.32.32,0,0,1,16,84a.32.32,0,0,1-.33-.32.33.33,0,0,1,.33-.33A.32.32,0,0,1,16.33,83.65Z"/><path d="M18.78,82.08a.32.32,0,1,1-.32-.32A.32.32,0,0,1,18.78,82.08Z"/><path d="M16.31,81.73a.32.32,0,0,1-.32.33.33.33,0,0,1-.33-.33.32.32,0,0,1,.33-.32A.32.32,0,0,1,16.31,81.73Z"/><path d="M13.87,84.24a.32.32,0,0,1-.32.32.32.32,0,0,1-.33-.32.33.33,0,0,1,.33-.33A.32.32,0,0,1,13.87,84.24Z"/><path d="M17,83.32a.32.32,0,0,1-.32.32.33.33,0,1,1,0-.65A.32.32,0,0,1,17,83.32Z"/><path d="M17.24,80.81a.32.32,0,0,1-.33.32.32.32,0,0,1-.32-.32.32.32,0,0,1,.32-.33A.33.33,0,0,1,17.24,80.81Z"/><path d="M12.05,83.22a.32.32,0,0,1-.32.33.33.33,0,1,1,0-.65A.32.32,0,0,1,12.05,83.22Z"/><path d="M12.35,84.56a.33.33,0,0,1-.33.32.33.33,0,0,1,0-.65A.33.33,0,0,1,12.35,84.56Z"/><path d="M14.16,81.09a.33.33,0,1,1-.32-.32A.32.32,0,0,1,14.16,81.09Z"/><path d="M10.76,82.6a.33.33,0,1,1-.65,0,.33.33,0,0,1,.65,0Z"/><path d="M9.49,85.56a.32.32,0,0,1-.32.32.33.33,0,1,1,0-.65A.32.32,0,0,1,9.49,85.56Z"/><path d="M11.69,84a.32.32,0,0,1-.32.33A.33.33,0,0,1,11,84a.32.32,0,0,1,.33-.32A.32.32,0,0,1,11.69,84Z"/><path d="M10.09,82.6a.33.33,0,1,1-.33-.32A.32.32,0,0,1,10.09,82.6Z"/><path d="M7.91,85.18a.32.32,0,1,1-.64,0,.32.32,0,0,1,.64,0Z"/><path d="M10.45,83.89a.33.33,0,0,1-.33.33.33.33,0,0,1,0-.65A.33.33,0,0,1,10.45,83.89Z"/><path d="M11,80.76a.32.32,0,1,1-.32-.33A.32.32,0,0,1,11,80.76Z"/><path d="M7.54,83.27a.32.32,0,0,1-.32.33.33.33,0,0,1-.33-.33A.32.32,0,0,1,7.22,83,.32.32,0,0,1,7.54,83.27Z"/><path d="M8.57,85.21a.32.32,0,0,1-.32.32.32.32,0,1,1,0-.64A.32.32,0,0,1,8.57,85.21Z"/><path d="M13.22,81.4a.33.33,0,1,1-.65,0,.33.33,0,0,1,.65,0Z"/><path d="M15.66,81.52a.32.32,0,0,1-.33.32.32.32,0,0,1,0-.64A.32.32,0,0,1,15.66,81.52Z"/><path d="M16.93,81.81a.32.32,0,0,1-.33.32.32.32,0,1,1,0-.64A.32.32,0,0,1,16.93,81.81Z"/><circle cx="15.37" cy="80.55" r="0.32"/><path d="M13.54,82.77a.33.33,0,0,1-.65,0,.33.33,0,1,1,.65,0Z"/><path d="M16.28,82.47a.33.33,0,0,1-.33.33.32.32,0,0,1-.32-.33.32.32,0,0,1,.32-.32A.32.32,0,0,1,16.28,82.47Z"/><circle cx="14.34" cy="80.23" r="0.32"/><path d="M11.61,82.43a.32.32,0,1,1-.64,0,.32.32,0,0,1,.64,0Z"/><path d="M13.14,82.76a.33.33,0,0,1-.33.33.32.32,0,0,1-.32-.33.32.32,0,0,1,.32-.32A.32.32,0,0,1,13.14,82.76Z"/><path d="M15.06,80.22a.32.32,0,0,1-.32.32.32.32,0,0,1-.33-.32.33.33,0,0,1,.33-.33A.32.32,0,0,1,15.06,80.22Z"/><path d="M11.61,81.2a.32.32,0,0,1-.32.32A.32.32,0,0,1,11,81.2a.33.33,0,0,1,.33-.33A.32.32,0,0,1,11.61,81.2Z"/><circle cx="10.98" cy="83.39" r="0.32"/><path d="M13.78,81.18a.33.33,0,1,1-.65,0,.33.33,0,0,1,.65,0Z"/><path d="M11.62,80.52a.32.32,0,0,1-.32.32.32.32,0,0,1-.33-.32.33.33,0,0,1,.33-.33A.32.32,0,0,1,11.62,80.52Z"/><path d="M30.08,86.83a.32.32,0,0,1-.32.32.32.32,0,1,1,0-.64A.32.32,0,0,1,30.08,86.83Z"/><path d="M30.07,87.79a.32.32,0,1,1-.32-.32A.32.32,0,0,1,30.07,87.79Z"/><circle cx="31.56" cy="89.64" r="0.32"/><circle cx="35.28" cy="87.21" r="0.32"/><circle cx="32.06" cy="87.76" r="0.32"/><path d="M32.41,89.64a.32.32,0,0,1-.32.32.32.32,0,1,1,0-.64A.32.32,0,0,1,32.41,89.64Z"/><path d="M37,87.74a.32.32,0,1,1-.64,0,.32.32,0,1,1,.64,0Z"/><path d="M35.58,87.34a.32.32,0,0,1-.33.32.32.32,0,1,1,0-.64A.32.32,0,0,1,35.58,87.34Z"/><path d="M35.12,89.65a.33.33,0,1,1-.32-.32A.32.32,0,0,1,35.12,89.65Z"/><path d="M37.89,88.7a.32.32,0,0,1-.32.32.32.32,0,1,1,0-.64A.32.32,0,0,1,37.89,88.7Z"/><path d="M36.06,88.71a.32.32,0,0,1-.33.32.32.32,0,0,1-.32-.32.32.32,0,0,1,.32-.33A.33.33,0,0,1,36.06,88.71Z"/><path d="M36.53,90.13a.33.33,0,0,1-.65,0,.33.33,0,1,1,.65,0Z"/><path d="M38.91,88.69a.32.32,0,0,1-.32.32.32.32,0,1,1,0-.64A.32.32,0,0,1,38.91,88.69Z"/><path d="M38.4,88.69a.33.33,0,0,1-.33.33.32.32,0,0,1-.32-.33.32.32,0,0,1,.32-.32A.32.32,0,0,1,38.4,88.69Z"/><path d="M39.31,90.57a.32.32,0,0,1-.32.32.32.32,0,1,1,0-.64A.32.32,0,0,1,39.31,90.57Z"/><path d="M30.56,88.22a.32.32,0,0,1-.32.32.32.32,0,1,1,0-.64A.32.32,0,0,1,30.56,88.22Z"/><path d="M29.64,89.62a.32.32,0,0,1-.33.32.32.32,0,1,1,0-.64A.32.32,0,0,1,29.64,89.62Z"/><path d="M33.3,91a.32.32,0,0,1-.32.32.32.32,0,1,1,0-.64A.32.32,0,0,1,33.3,91Z"/><path d="M36.07,88.68a.33.33,0,1,1-.65,0,.33.33,0,0,1,.65,0Z"/><path d="M33.31,89.14a.32.32,0,0,1-.32.32.32.32,0,0,1-.33-.32.33.33,0,0,1,.33-.33A.32.32,0,0,1,33.31,89.14Z"/><path d="M34.7,91.46a.32.32,0,0,1-.32.33.33.33,0,0,1-.33-.33.32.32,0,0,1,.33-.32A.32.32,0,0,1,34.7,91.46Z"/><circle cx="38.94" cy="89.16" r="0.32"/><circle cx="39.43" cy="88.67" r="0.32"/><path d="M38.82,91.46a.33.33,0,1,1-.32-.32A.32.32,0,0,1,38.82,91.46Z"/><path d="M38.32,86.73a.33.33,0,0,1-.33.33.32.32,0,0,1-.32-.33.32.32,0,0,1,.32-.32A.32.32,0,0,1,38.32,86.73Z"/><path d="M37.82,87.25a.33.33,0,0,1-.65,0,.33.33,0,1,1,.65,0Z"/><path d="M39.2,89.18a.32.32,0,0,1-.33.32.32.32,0,1,1,0-.64A.32.32,0,0,1,39.2,89.18Z"/><path d="M40.56,89.73a.33.33,0,1,1-.32-.32A.33.33,0,0,1,40.56,89.73Z"/><path d="M37.79,89.15a.32.32,0,0,1-.32.32.32.32,0,1,1,0-.64A.32.32,0,0,1,37.79,89.15Z"/><path d="M36.45,90.14a.33.33,0,1,1-.65,0,.33.33,0,0,1,.65,0Z"/><path d="M39.29,90.73a.32.32,0,0,1-.32.33.33.33,0,1,1,0-.65A.32.32,0,0,1,39.29,90.73Z"/><path d="M40.53,89.14a.32.32,0,0,1-.32.33.33.33,0,0,1-.33-.33.32.32,0,0,1,.33-.32A.32.32,0,0,1,40.53,89.14Z"/><path d="M39.2,88.62a.33.33,0,0,1-.33.33.32.32,0,0,1-.32-.33.32.32,0,0,1,.32-.32A.32.32,0,0,1,39.2,88.62Z"/><path d="M39.15,90.58a.32.32,0,0,1-.32.33.33.33,0,0,1-.33-.33.32.32,0,0,1,.33-.32A.32.32,0,0,1,39.15,90.58Z"/><path d="M42.1,89.76a.33.33,0,1,1-.65,0,.33.33,0,0,1,.65,0Z"/><path d="M42.55,88.69a.33.33,0,1,1-.32-.32A.33.33,0,0,1,42.55,88.69Z"/><path d="M41.08,90.28a.33.33,0,1,1-.65,0,.33.33,0,0,1,.65,0Z"/><path d="M43.73,89.29a.33.33,0,0,1-.33.33.32.32,0,0,1-.32-.33A.32.32,0,0,1,43.4,89,.32.32,0,0,1,43.73,89.29Z"/><path d="M43.11,88.12a.33.33,0,0,1-.33.33.32.32,0,0,1-.32-.33.32.32,0,0,1,.32-.32A.32.32,0,0,1,43.11,88.12Z"/><path d="M41.55,89.76a.32.32,0,1,1-.64,0,.32.32,0,0,1,.64,0Z"/><path d="M43.51,89.21a.32.32,0,0,1-.32.32.32.32,0,0,1-.33-.32.33.33,0,0,1,.33-.33A.32.32,0,0,1,43.51,89.21Z"/><path d="M44.05,87.66a.33.33,0,0,1-.33.33.33.33,0,0,1,0-.65A.33.33,0,0,1,44.05,87.66Z"/><path d="M42.54,89.26a.32.32,0,1,1-.32-.33A.32.32,0,0,1,42.54,89.26Z"/><path d="M41,89.16a.32.32,0,1,1-.32-.32A.32.32,0,0,1,41,89.16Z"/><path d="M42.1,90.32a.33.33,0,0,1-.65,0,.33.33,0,1,1,.65,0Z"/><path d="M43.59,88.64a.33.33,0,1,1-.65,0,.33.33,0,0,1,.65,0Z"/><path d="M42.57,87.57a.33.33,0,1,1-.65,0,.33.33,0,0,1,.65,0Z"/><path d="M43.05,89.26a.32.32,0,0,1-.32.33.33.33,0,0,1-.33-.33.32.32,0,0,1,.33-.32A.32.32,0,0,1,43.05,89.26Z"/><path d="M45.41,87.26a.32.32,0,0,1-.33.32.32.32,0,1,1,0-.64A.32.32,0,0,1,45.41,87.26Z"/><path d="M43.48,85.8a.32.32,0,1,1-.32-.32A.32.32,0,0,1,43.48,85.8Z"/><path d="M41.49,88.18a.33.33,0,0,1-.33.33.32.32,0,0,1-.32-.33.32.32,0,0,1,.32-.32A.32.32,0,0,1,41.49,88.18Z"/><path d="M44.14,88.68a.33.33,0,0,1-.33.33.33.33,0,0,1,0-.65A.33.33,0,0,1,44.14,88.68Z"/><path d="M44.41,84.9a.32.32,0,1,1-.32-.32A.32.32,0,0,1,44.41,84.9Z"/><path d="M41.08,85.79a.32.32,0,0,1-.64,0,.32.32,0,1,1,.64,0Z"/><path d="M42.57,88.14a.33.33,0,0,1-.33.32.33.33,0,0,1,0-.65A.33.33,0,0,1,42.57,88.14Z"/><path d="M42.05,84.86a.33.33,0,0,1-.33.33.32.32,0,0,1-.32-.33.32.32,0,0,1,.32-.32A.32.32,0,0,1,42.05,84.86Z"/><path d="M41.43,87.62a.32.32,0,0,1-.32.32.32.32,0,0,1-.33-.32.33.33,0,0,1,.33-.33A.32.32,0,0,1,41.43,87.62Z"/><path d="M41.57,89.18a.32.32,0,0,1-.33.32.32.32,0,0,1-.32-.32.32.32,0,0,1,.32-.33A.33.33,0,0,1,41.57,89.18Z"/><path d="M43.58,89.83a.32.32,0,0,1-.32.33.33.33,0,0,1-.33-.33.32.32,0,0,1,.33-.32A.32.32,0,0,1,43.58,89.83Z"/><path d="M42,88.16a.32.32,0,1,1-.64,0,.32.32,0,1,1,.64,0Z"/><path d="M38.27,89.68a.33.33,0,0,1-.33.32.33.33,0,0,1,0-.65A.33.33,0,0,1,38.27,89.68Z"/><path d="M38.76,91.62a.33.33,0,0,1-.65,0,.33.33,0,1,1,.65,0Z"/><path d="M41.6,87.58a.33.33,0,0,1-.33.32.33.33,0,0,1,0-.65A.33.33,0,0,1,41.6,87.58Z"/><path d="M35.55,88.7a.32.32,0,0,1-.32.32.32.32,0,1,1,0-.64A.32.32,0,0,1,35.55,88.7Z"/><path d="M33.29,91.07a.32.32,0,0,1-.32.32.32.32,0,1,1,0-.64A.32.32,0,0,1,33.29,91.07Z"/><path d="M36,87.24a.32.32,0,1,1-.64,0,.32.32,0,1,1,.64,0Z"/><path d="M32.83,86.76a.32.32,0,0,1-.33.32.32.32,0,1,1,0-.64A.32.32,0,0,1,32.83,86.76Z"/><path d="M31,89.12a.33.33,0,0,1-.33.33.33.33,0,0,1,0-.65A.33.33,0,0,1,31,89.12Z"/><path d="M33.27,88.26a.32.32,0,0,1-.33.32.32.32,0,1,1,0-.64A.32.32,0,0,1,33.27,88.26Z"/><path d="M32.29,86.77a.32.32,0,1,1-.64,0,.32.32,0,1,1,.64,0Z"/><path d="M30.05,89.6a.32.32,0,0,1-.33.32.32.32,0,0,1,0-.64A.32.32,0,0,1,30.05,89.6Z"/><path d="M32.37,89.64A.33.33,0,0,1,32,90a.32.32,0,0,1-.32-.33.32.32,0,0,1,.32-.32A.32.32,0,0,1,32.37,89.64Z"/><path d="M34.22,87.73a.32.32,0,0,1-.33.32.32.32,0,1,1,0-.64A.32.32,0,0,1,34.22,87.73Z"/><path d="M30.53,90.13a.32.32,0,1,1-.64,0,.32.32,0,1,1,.64,0Z"/><circle cx="31.13" cy="91.08" r="0.32"/><path d="M33.26,87.72a.32.32,0,1,1-.32-.33A.32.32,0,0,1,33.26,87.72Z"/><path d="M29.11,89.13a.33.33,0,1,1-.65,0,.33.33,0,0,1,.65,0Z"/><path d="M27.33,92.42A.33.33,0,1,1,27,92.1.32.32,0,0,1,27.33,92.42Z"/><path d="M29.56,90.14a.33.33,0,0,1-.33.32.33.33,0,0,1,0-.65A.33.33,0,0,1,29.56,90.14Z"/><path d="M28.23,88.18a.32.32,0,1,1-.32-.32A.32.32,0,0,1,28.23,88.18Z"/><circle cx="23.8" cy="92.41" r="0.32"/><circle cx="25.62" cy="92.41" r="0.32"/><circle cx="27.39" cy="88.19" r="0.32"/><path d="M23.19,91a.32.32,0,0,1-.32.32.33.33,0,1,1,0-.65A.32.32,0,0,1,23.19,91Z"/><path d="M23.17,92.41a.32.32,0,1,1-.32-.32A.32.32,0,0,1,23.17,92.41Z"/><path d="M25.91,88.67a.32.32,0,1,1-.32-.32A.32.32,0,0,1,25.91,88.67Z"/><path d="M21.82,89.12a.32.32,0,1,1-.32-.33A.32.32,0,0,1,21.82,89.12Z"/><path d="M19.52,91.93a.32.32,0,0,1-.64,0,.32.32,0,1,1,.64,0Z"/><path d="M21.35,90.08a.33.33,0,0,1-.65,0,.33.33,0,1,1,.65,0Z"/><path d="M19.52,88.67a.32.32,0,0,1-.32.32.32.32,0,1,1,0-.64A.32.32,0,0,1,19.52,88.67Z"/><path d="M16.78,90.07a.32.32,0,0,1-.32.32.32.32,0,1,1,0-.64A.32.32,0,0,1,16.78,90.07Z"/><path class="cls-1" d="M13.19,22.2a.5.5,0,0,0,0-.12A.5.5,0,0,1,13.19,22.2Z"/><path class="cls-1" d="M13.2,22.32a.41.41,0,0,0,0-.11A.41.41,0,0,1,13.2,22.32Z"/><path class="cls-1" d="M13.2,22.33v0Z"/><path class="cls-1" d="M13.18,22.54s0-.06,0-.09S13.19,22.51,13.18,22.54Z"/><path class="cls-1" d="M13.41,22.54l-.18.18Z"/><path class="cls-1" d="M12.54,22.19l0,.14Z"/><path class="cls-1" d="M12.71,22.67s0-.07-.05-.1,0,.07.05.1Z"/><path class="cls-1" d="M12.79,23.2h0c-.08.08-.15.17-.23.26C12.64,23.37,12.71,23.28,12.79,23.2Z"/><path class="cls-1" d="M12.61,22.46l.05.11Z"/><path class="cls-1" d="M12.57,22.33a.56.56,0,0,0,0,.12A.56.56,0,0,1,12.57,22.33Z"/><polygon class="cls-2" points="25.32 27.18 25.32 27.18 25.32 27.18 25.32 27.18"/><path class="cls-3" d="M24.56,81.09a8.59,8.59,0,0,0-1.93.19,7.9,7.9,0,0,0-.95.27c-.3.11-.59.24-.87.37a7.4,7.4,0,0,0-1.4.93,7.23,7.23,0,0,0-.84.85,2.65,2.65,0,0,0-.21.26l-.07.09a.13.13,0,0,1-.09,0l.06.14c.12.26.23.52.37.76s.28.48.43.72l.24.33a4.19,4.19,0,0,0,.26.33l.13.16.14.15.14.15.15.14a4.56,4.56,0,0,0,.64.5,6.1,6.1,0,0,0,.7.41,6.36,6.36,0,0,0,.75.34,9.72,9.72,0,0,0,1.56.49,8.79,8.79,0,0,0,3.18.18,6.41,6.41,0,0,0,.76-.16,5.3,5.3,0,0,0,.7-.26l.34-.18.33-.19.15-.1.15-.11c.1-.07.18-.16.27-.23a2.38,2.38,0,0,0,.42-.54,1.88,1.88,0,0,0,.19-.61,2.44,2.44,0,0,0,0-.66,4.26,4.26,0,0,0-.22-.66A8.81,8.81,0,0,0,29.32,84c-.26-.4-.54-.79-.81-1.18l-.39-.58-.2-.3-.12-.23-.37-.12c-.28-.08-.68-.19-1.17-.28A9.58,9.58,0,0,0,24.56,81.09Z"/><path class="cls-3" d="M40.7,82.31a3,3,0,0,0-.3-.2,3.69,3.69,0,0,0-.9-.36,5.23,5.23,0,0,0-.64-.12,5.93,5.93,0,0,0-.74,0,7.08,7.08,0,0,0-1.6.25,8,8,0,0,0-2.73,1.36,5.09,5.09,0,0,0-.73.67l-.18.21-.05.08,0,0a7.54,7.54,0,0,0,.44,1.47,5.58,5.58,0,0,0,.57,1,3.94,3.94,0,0,0,.82.81l.24.17.12.08.12.06a4.53,4.53,0,0,0,.55.23,9,9,0,0,0,1.19.31,15.06,15.06,0,0,0,2.52.26c.42,0,.85,0,1.27,0a6.24,6.24,0,0,0,1.22-.22,2.69,2.69,0,0,0,.56-.21,1.91,1.91,0,0,0,.46-.32l.11-.1.11-.11a1.81,1.81,0,0,0,.18-.21,1.54,1.54,0,0,0,.24-.48,1.47,1.47,0,0,0-.15-1,5.26,5.26,0,0,0-.67-1c-.25-.33-.53-.66-.79-1a4.94,4.94,0,0,1-.69-1.16,5.37,5.37,0,0,1-.21-.56h0C40.89,82.27,40.76,82.35,40.7,82.31Z"/><path class="cls-4" d="M17.8,42.57a5.27,5.27,0,0,0-.94-1.74A13.66,13.66,0,0,0,15,39c-.38-.32-.78-.66-1.19-1a12.56,12.56,0,0,1-1.21-1.21c-.1-.11-.19-.23-.29-.35l0,0,0,0s0,0,0,0l-.06-.09L12,36c-.08-.13-.16-.25-.23-.39l-.22-.41c-.08-.13-.14-.28-.21-.42s-.13-.28-.19-.43L11,33.87l-.08-.23c0-.07-.05-.15-.08-.23s-.1-.3-.14-.46-.09-.31-.13-.47c-.09-.32-.14-.65-.2-1a11.2,11.2,0,0,1-.13-2v-.26c0-.08,0-.17,0-.25s0-.34,0-.52.06-.33.08-.5l.05-.26.06-.25.13-.5.17-.5a2.34,2.34,0,0,1,.09-.24L11,26c.08-.16.14-.32.22-.47a12,12,0,0,1,1.12-1.74l.26-.31c.08-.09.15-.18.23-.26s-.06-.36-.08-.53,0-.07-.05-.1h0l-.05-.11h0a.56.56,0,0,1,0-.12h0l0-.14,0-.14c0-.05,0-.11,0-.19l-.23.15a.25.25,0,0,1-.14,0l-.14.07-.1.05-.31.17a11.51,11.51,0,0,0-1.11.71l-.36.28-.37.32c-.13.11-.25.24-.38.37l-.19.2c-.07.07-.13.15-.19.22a9,9,0,0,0-1.39,2.25,12.29,12.29,0,0,0-.83,3c0,.14,0,.28,0,.42s0,.29-.05.43,0,.59-.06.88c0,.6,0,1.21,0,1.83,0,1.25.14,2.53.29,3.84s.33,2.63.48,4a53,53,0,0,0,1.24,7.72c.16.6.34,1.19.53,1.75a15.63,15.63,0,0,0,.65,1.62,12.29,12.29,0,0,0,.77,1.44l.21.33c.08.1.14.22.22.32s.15.2.23.29l.11.15.12.14a7.46,7.46,0,0,0,2,1.68l.25.14.25.12.25.12a1.7,1.7,0,0,0,.24.09l.46.16.43.11a7.74,7.74,0,0,0,1.29.2l.35,0h.11a1,1,0,0,1,.25,0c0-.41,0-.82.06-1.21.35-7,.59-11.61.59-11.61a3.68,3.68,0,0,1,.05-.5v-.39A5.33,5.33,0,0,0,17.8,42.57Z"/><path class="cls-5" d="M13.23,22.72h0l.18-.18.27-.27A16.73,16.73,0,0,1,15.22,21c.53-.39,1.07-.75,1.61-1.09A53.33,53.33,0,0,1,23,16.79l.4-.18s0-.1,0-.16a3,3,0,0,1,.11-.46h0l0,0h0c.06-.17.12-.32.17-.44l.07-.18h.09s0,0,0-.06a2.75,2.75,0,0,1,.17-.41l.08-.16c0-.06.05-.13.08-.19l.07-.21,0-.08h.08l.07-.13a19.45,19.45,0,0,1,1.09-1.72,1.63,1.63,0,0,1-.38,0,1.68,1.68,0,0,1-.63-.21,2,2,0,0,1-.52-.39,1.5,1.5,0,0,1-.44-1.28,1.78,1.78,0,0,1,.25-.64,2.2,2.2,0,0,1,1-.82,2.17,2.17,0,0,1,1.26-.15c.09,0,.12.17.08.34h0a.58.58,0,0,1,.26.07l-.09-.17a1.87,1.87,0,0,1,.48.45,1.54,1.54,0,0,1,.29.62,1.43,1.43,0,0,1,0,.22c.12-.14.25-.27.38-.41l.27-.28h0l-.05,0-.1,0h0l0,0-.12-.15-.07-.07,0,0,0-.05-.08-.1-.11-.12a2.08,2.08,0,0,0-.84-.56l-.15-.05-.16,0c-.11,0-.22,0-.34,0a2.31,2.31,0,0,0-.37,0l-.19,0-.1,0-.09,0a3,3,0,0,0-1.39,1c-.09.11-.17.23-.25.35a3.37,3.37,0,0,0-.19.38,2.24,2.24,0,0,0-.17.79,2,2,0,0,0,.14.71,2.25,2.25,0,0,0,.16.31,1.47,1.47,0,0,0,.1.13l.1.13.22.22a.31.31,0,0,0,.11.09l.11.09.1.08.1.06.18.12.08,0,.08,0,.11.06.1,0c.07,0,.07.19,0,.36s-.19.26-.27.22l-.11-.05-.14-.07-.08,0-.09,0-.21-.14-.12-.07-.13-.1-.13-.1-.13-.11c-.08-.09-.18-.17-.27-.27l-.13-.17a1,1,0,0,1-.12-.17,2.63,2.63,0,0,1-.21-.41,2.4,2.4,0,0,1-.19-1,2.74,2.74,0,0,1,.21-1,3.07,3.07,0,0,1,.24-.48,4,4,0,0,1,.3-.42,4,4,0,0,1,.77-.71A3.74,3.74,0,0,1,24.76,8a2.76,2.76,0,0,1,1.82,0,2.73,2.73,0,0,1,1.08.72h0l.07,0,.06.08A1,1,0,0,1,28,9,.5.5,0,0,1,28,9.1a1,1,0,0,1,.07.15.14.14,0,0,0,0,.07h0l0,0h0l.13-.12a20.18,20.18,0,0,1,3.91-2.91,18,18,0,0,1,5.39-2,15.23,15.23,0,0,1,1.55-.21,12.32,12.32,0,0,1,1.61,0,11.58,11.58,0,0,1,1.64.18A11.87,11.87,0,0,1,44,4.65l.4.15.15.07c-.23-.17-.51-.36-.84-.58a22.38,22.38,0,0,0-4.82-2.38A23.31,23.31,0,0,0,35.4,1a22.24,22.24,0,0,0-4-.34c-.69,0-1.4,0-2.12.11a19.82,19.82,0,0,0-2.14.34A20.42,20.42,0,0,0,25,1.66c-.7.23-1.39.5-2.07.8a20.54,20.54,0,0,0-2,1,18.77,18.77,0,0,0-1.81,1.25,16.83,16.83,0,0,0-3,3.05l-.31.42-.29.42c-.1.14-.18.29-.27.43s-.18.29-.26.44-.32.58-.46.87-.28.59-.4.88a16.81,16.81,0,0,0-1,3.43,19.78,19.78,0,0,0-.24,5.36c0,.32.06.61.09.86s.06.47.09.64,0,.31.06.4l0,.13a.5.5,0,0,1,0,.12h0a.41.41,0,0,1,0,.11h0v.12s0,.06,0,.09h0C13.2,22.6,13.21,22.66,13.23,22.72Z"/><path class="cls-3" d="M46.07,60.33l-.4.25a5.9,5.9,0,0,1-1.48.56l-.57.11-.42,0-.15,0h-.2a.86.86,0,0,1-.24,0,.61.61,0,0,0-.07.14l-.12.23-.14.23s0,0,0,.08a1.56,1.56,0,0,1,0,.73l-.12.62c0,.19-.08.43-.13.7a4.12,4.12,0,0,0,.43,1.25,2.24,2.24,0,0,0,.53.67,1.31,1.31,0,0,0,.78.36,1.41,1.41,0,0,0,.89-.27,3.51,3.51,0,0,0,.77-.77,4.14,4.14,0,0,0,.51-1,8.06,8.06,0,0,0,.29-1.07c.15-.72.23-1.42.31-2s.15-1.1.22-1.46h0a3.83,3.83,0,0,1-.28.29Z"/><path class="cls-6" d="M25.07,9.62a1.49,1.49,0,0,0-.69.57,1,1,0,0,0-.16.39.75.75,0,0,0,0,.39,1.3,1.3,0,0,0,.59.62,1.08,1.08,0,0,0,.82.1,1.24,1.24,0,0,0,.66-.54,1.11,1.11,0,0,0,.14-.83,1.1,1.1,0,0,0-.5-.67l-.15-.11v0A1.51,1.51,0,0,0,25.07,9.62Z"/><path class="cls-5" d="M40.74,64c-.12.13-.25.24-.37.37l-.18.18-.2.17-.19.17-.1.08-.1.08-.41.31c-.29.19-.57.38-.87.54a11.16,11.16,0,0,1-1.81.81l-.22.08-.23.08L35.6,67l-.9.25c-.59.16-1.18.3-1.75.43a4.54,4.54,0,0,1-.53.12,2.68,2.68,0,0,1,.09.46s0,0,0,.16,0,.26,0,.47v.76c0,.15,0,.31,0,.48v.54c0,.77,0,1.7-.1,2.76s-.13,2.26-.17,3.56a33.14,33.14,0,0,0,.12,4.17l.07.55,0,.28v.31c0,.36.06.72.11,1.08a6.39,6.39,0,0,1,.73-.66,8.63,8.63,0,0,1,3-1.47A7.69,7.69,0,0,1,38.1,81a7.4,7.4,0,0,1,.83,0,4.22,4.22,0,0,1,.74.14,4,4,0,0,1,1,.42l.13.08a11.37,11.37,0,0,1-.33-1.4,17.11,17.11,0,0,1-.25-2.44c0-.79,0-1.57,0-2.32.06-1.5.14-2.92.22-4.23.19-2.61.47-4.78.7-6.3.06-.34.11-.65.16-.93a3.39,3.39,0,0,1,0-.35c0-.1,0-.15,0-.15s.06-.16.17-.19,0-.09,0-.13,0-.13,0-.19l-.14.17C41.2,63.45,41,63.71,40.74,64Z"/><path class="cls-5" d="M25.6,27.57v0h0a3.18,3.18,0,0,1-.26-.35v0h0l-.24.36h0l-.21.34,0,0-.17.32,0,.06-.18.37a7.22,7.22,0,0,0-.52,1.37,5.47,5.47,0,0,0-.18,1.27,4.21,4.21,0,0,0,.13,1.06,3.1,3.1,0,0,0,.29.77,2,2,0,0,0,.14.26l.13.19.08.12,0,0a.29.29,0,0,1-.09.4.28.28,0,0,1-.42,0l0,0L23.9,34c0-.06-.09-.13-.14-.22a2.88,2.88,0,0,1-.17-.31,4.36,4.36,0,0,1-.34-.9,5,5,0,0,1-.15-1.23,6.26,6.26,0,0,1,.21-1.43,8.88,8.88,0,0,1,.55-1.48,14.54,14.54,0,0,1,1.86-2.83,28.6,28.6,0,0,1,4.53-4.34l.32-.24s0-.07,0-.08l.13-.11c.08-.06.19-.17.33-.27a10.81,10.81,0,0,1,1.07-.75l.55-.33a.1.1,0,0,1,.08-.05h0l.47-.27.51-.27s.07,0,.12.13l.06-.09a1.35,1.35,0,0,0,.15-.62,3,3,0,0,0-.12-.8,4.85,4.85,0,0,0-.31-.85,6.78,6.78,0,0,0-.45-.84c-.18-.3-.34-.57-.52-.83a2.44,2.44,0,0,0-.58-.61.86.86,0,0,0-.3-.12,1.36,1.36,0,0,0-.35,0,6.08,6.08,0,0,0-.74.16l-1.18.3-.46.1a.16.16,0,0,1-.13-.07h0c-.28.15-.69.37-1.22.63s-1.18.57-1.92.91-1.59.72-2.5,1.13a53.72,53.72,0,0,0-6.09,3.08c-.52.33-1.05.68-1.56,1.06a17,17,0,0,0-1.47,1.22,13.72,13.72,0,0,0-1.32,1.43,10.77,10.77,0,0,0-1.05,1.63c-.07.14-.14.29-.2.44l-.1.22a1.55,1.55,0,0,0-.08.23l-.16.45-.12.47-.06.23,0,.24c0,.16-.06.32-.08.48l0,.47a1.94,1.94,0,0,0,0,.24v.24a10,10,0,0,0,.13,1.9c.06.3.1.61.19.91s.07.3.12.45.09.29.14.44,0,.14.07.22l.08.21.16.42.19.41c.06.13.12.27.19.4l.21.38.22.38a1.74,1.74,0,0,1,.11.18l.06.09h0l0,0a4.15,4.15,0,0,0,.27.32,21.33,21.33,0,0,0,2.33,2.18,15,15,0,0,1,2,2,5.82,5.82,0,0,1,1.05,2,5.37,5.37,0,0,1,.23,1.42c0,.16,0,.29,0,.37v.13a1.78,1.78,0,0,1,0,.26s0,0,0,0v.14s-.23,4.64-.58,11.61c-.18,3.49-.38,7.55-.6,11.9,0,.55-.05,1.1-.08,1.65s-.07,1.11-.1,1.67c-.07,1.12-.14,2.25-.17,3.39s0,2.28,0,3.43c0,.57.07,1.14.14,1.71l.12.85c.06.28.1.56.16.84A15.1,15.1,0,0,0,18,83.43l.13-.15a7.55,7.55,0,0,1,2.44-1.93,9.06,9.06,0,0,1,.95-.41,8.54,8.54,0,0,1,1-.29,9.35,9.35,0,0,1,2.08-.21,11.65,11.65,0,0,1,1.8.18c.42.08.77.17,1.05.24-.08-.18-.15-.37-.22-.56a10.67,10.67,0,0,1-.52-2.52,13.62,13.62,0,0,1,0-2.3,30.17,30.17,0,0,1,.52-3.67c.41-2,.64-3.14.64-3.14a3.31,3.31,0,0,1,.26-.79c-.11,0-.21-.06-.32-.09l-.33-.11c-.21-.08-.42-.16-.61-.25a18.23,18.23,0,0,1-1.91-1.05l-1.58-1c-.3-.19-.47-.47-.38-.62s.42-.12.73.07l1.57,1a16.33,16.33,0,0,0,1.83,1,6.47,6.47,0,0,0,2.56.61A11.78,11.78,0,0,0,32.81,67l1.72-.42.89-.25.43-.14.23-.08.21-.08A10.16,10.16,0,0,0,38,65.3a7.69,7.69,0,0,0,.81-.5l.38-.29.09-.07.09-.08.19-.16.18-.16.17-.17.34-.34c.22-.25.44-.49.63-.75l.15-.2.08-.1.07-.1.28-.41c.1-.13.17-.27.26-.41l.12-.21.11-.22c.07-.15.15-.29.21-.45l.19-.45c.11-.31.23-.62.31-.93s.17-.64.25-1l.09-.48.05-.24,0-.25a15.76,15.76,0,0,0,.19-1.93c0-.33,0-.64,0-1,0-.16,0-.32,0-.48s0-.31,0-.47a27.23,27.23,0,0,0-.37-3.6c-.19-1.13-.43-2.2-.69-3.17s-.49-1.66-.75-2.37l-.41-.25-.16-.09,0,0h0l0,0-.15-.07-.3-.14a6.11,6.11,0,0,0-.64-.26A11.61,11.61,0,0,0,37.63,43c.15,1.14.27,2.39.33,3.71,0,.91,0,1.86,0,2.81s-.11,1.93-.22,2.9-.28,1.93-.47,2.87-.43,1.85-.69,2.73a33.3,33.3,0,0,1-1.8,4.65,34.25,34.25,0,0,1-1.66,3.11c-.22.37-.39.66-.51.85l-.19.29c-.14.22-.37.31-.52.22a.42.42,0,0,1,0-.57l.18-.29c.13-.19.29-.47.51-.83.42-.72,1-1.76,1.63-3A34,34,0,0,0,36,57.82c.25-.86.48-1.75.68-2.67s.34-1.87.46-2.81.18-1.91.21-2.85,0-1.86,0-2.76c-.06-1.37-.19-2.67-.34-3.84l-.23,0-.83-.08c-.28,0-.57,0-.86,0-.58,0-1.17,0-1.78,0H31.91l-.45.05L29.58,43c-.64.09-1.29.17-1.94.23a14.61,14.61,0,0,1-2,.06,5.91,5.91,0,0,1-1-.12,2.87,2.87,0,0,1-1-.42,1.48,1.48,0,0,1-.42-.44l-.13-.24c0-.09-.07-.17-.1-.25a2.76,2.76,0,0,1-.08-.27,2.33,2.33,0,0,1-.05-.28,1.62,1.62,0,0,1,0-.58,1.31,1.31,0,0,1,.09-.28.84.84,0,0,1,.06-.14,1.25,1.25,0,0,1,.08-.12,2,2,0,0,1,.17-.23l.1-.1.1-.1a3.31,3.31,0,0,1,.89-.54,8.51,8.51,0,0,1,1.86-.53,23.3,23.3,0,0,1,3.55-.28c1.13,0,2.19,0,3.17.09,1.26.08,2.37.2,3.31.32l-.09-.38c-.09-.41-.17-.73-.22-.95l-.09-.33a1.11,1.11,0,0,1,0-.17h-.59c-.78,0-1.62-.07-2.45-.17s-1.65-.23-2.41-.39a5.25,5.25,0,0,1-.57-.13l-.53-.13c-.35-.09-.68-.17-1-.27-.6-.17-1.09-.35-1.43-.47l-.54-.2c-.1,0-.13-.2-.07-.37s.2-.27.3-.23l.53.2c.33.11.81.28,1.4.45.29.1.61.18.95.27l.52.13.55.12c.74.16,1.55.28,2.36.38s1.62.14,2.38.16,1.48,0,2.09,0l.43,0,.4,0,.64-.06.55-.07c.11,0,.22.12.24.3s0,.33-.15.34l-.57.07-.66.06-.4,0-.45,0-.9,0v0l.08.34c.06.22.13.54.23,1l.14.61.73.12c.57.09,1,.18,1.32.25s.46.11.46.11a.93.93,0,0,1,.42.22.26.26,0,0,1,.09.29h0c.17-.08.41.12.55.43L41.23,42l1.12,2.51.25.55,0,.07-.06,0L42.44,45l-.09-.06c.17.52.34,1.08.5,1.67a32,32,0,0,1,.71,3.24,29.91,29.91,0,0,1,.38,3.68c0,.16,0,.32,0,.48v.49c0,.33,0,.66,0,1a19.63,19.63,0,0,1-.2,2l0,.25-.05.25c0,.17-.06.34-.1.51-.08.33-.15.67-.26,1s-.21.66-.33,1l-.08.21h.26l.39,0,.51-.1A5.1,5.1,0,0,0,45.35,60a3.63,3.63,0,0,0,1.27-1.21,4.39,4.39,0,0,0,.46-.92,4.64,4.64,0,0,0,.16-.53,5.07,5.07,0,0,0,.13-.56,12.44,12.44,0,0,0,.15-2.48c0-1.74-.34-3.61-.52-5.5s-.36-3.76-.6-5.5-.55-3.37-.88-4.73a29.17,29.17,0,0,0-1-3.24c-.07-.19-.14-.36-.19-.51s-.11-.27-.16-.37l-.13-.31,0-.08-.07,0a9.55,9.55,0,0,1-.89.54,10.91,10.91,0,0,1-2,.76,12.32,12.32,0,0,1-2.19.33,14.77,14.77,0,0,1-2.21,0,19.51,19.51,0,0,1-2.11-.29,27.46,27.46,0,0,1-3.63-1c-1-.36-1.89-.72-2.47-1L27.51,33a.33.33,0,0,1-.17-.44.34.34,0,0,1,.45-.14l.9.41c.58.26,1.4.61,2.42,1a24.19,24.19,0,0,0,3.54,1,18.9,18.9,0,0,0,2,.29,16.64,16.64,0,0,0,2.12,0,12.16,12.16,0,0,0,2.08-.32,8.31,8.31,0,0,0,2.71-1.2,7,7,0,0,0,.73-.56l.17-.15.16-.15.15-.15a.75.75,0,0,0,.15-.16c.1-.1.19-.21.28-.31l.13-.15.12-.16a10.05,10.05,0,0,0,1.23-2.1,14.66,14.66,0,0,1-4.43,2.93,13.16,13.16,0,0,1-10.46,0,14.53,14.53,0,0,1-1.81-1,15.33,15.33,0,0,1-1.43-1L28,30.2l-.49-.43c-.29-.28-.55-.52-.74-.72l-.44-.47-.14-.16-.11-.12,0,0L26,28.15h0L25.9,28l0,0-.06-.12h0A3.53,3.53,0,0,1,25.6,27.57Z"/><path d="M50.1,12.49c0-.14-.08-.27-.13-.41l-.14-.4-.16-.4-.07-.2-.09-.19-.17-.39-.2-.38-.09-.19-.11-.19c-.07-.12-.13-.24-.21-.36a10.9,10.9,0,0,0-1-1.36,9.16,9.16,0,0,0-1.17-1.16,8.22,8.22,0,0,0-1.34-.93,8.4,8.4,0,0,0-1.46-.67,10.33,10.33,0,0,0-3.07-.58c-.52,0-1,0-1.53,0a14.44,14.44,0,0,0-1.49.21,17.09,17.09,0,0,0-5.19,2,19.85,19.85,0,0,0-3.79,2.81c-.26.24-.5.48-.73.72s-.44.47-.64.7l-.56.67-.49.63a22.59,22.59,0,0,0-1.27,2l-.29.54h0c-.06.15-.12.3-.19.45s-.23.49-.33.67l-.08.14,0,.07,1.39-.62c.74-.34,1.38-.65,1.9-.9l1.2-.63.41-.23c.3-.18.62-.2.72-.05a.29.29,0,0,1,0,.09l.77-.2a6.69,6.69,0,0,1,.83-.17,1.9,1.9,0,0,1,.53,0,1.28,1.28,0,0,1,.47.18.44.44,0,0,1,.26-.37L33.67,13c.68-.29,1.67-.68,2.87-1.12a39.06,39.06,0,0,1,4.17-1.26,13.12,13.12,0,0,1,2.48-.35,4.47,4.47,0,0,1,1.34.14,2.09,2.09,0,0,1,.67.33,1.45,1.45,0,0,1,.48.64,1.39,1.39,0,0,1,.06.19,1.42,1.42,0,0,1,0,.2v.21a1.52,1.52,0,0,1,0,.21,1.45,1.45,0,0,1-.41.69,3.48,3.48,0,0,1-1.19.7,12,12,0,0,1-1.22.36c-.41.1-.8.18-1.19.26l-1.14.22-.54.13a3,3,0,0,0-.48.15l0,0-.06,0-.12.06-.22.12a3.25,3.25,0,0,0-.45.25c-.28.17-.56.33-.81.51a18.73,18.73,0,0,0-2.31,1.92l-.59.6-.2.22a.31.31,0,0,1-.11.09,1.81,1.81,0,0,1-.22.76,1.42,1.42,0,0,1-.29.35,1.32,1.32,0,0,1-.33.23,1.94,1.94,0,0,1-.6.19L33,20a.23.23,0,0,1-.1.12s-.24.14-.64.41-1,.67-1.65,1.19A27.23,27.23,0,0,0,26.22,26l-.29.36v0l-.28.36c.1.19.2.38.31.56l.09.14h0l0,0a3.38,3.38,0,0,1,.59.53l.14.16.42.45c.19.2.43.42.72.69l.47.42.55.45c.41.3.85.63,1.37.94a14.12,14.12,0,0,0,1.74.91,12.68,12.68,0,0,0,4.54,1,12.22,12.22,0,0,0,2.67-.19A13.55,13.55,0,0,0,42,32a14.16,14.16,0,0,0,5-3.6,15,15,0,0,0,3.2-5.76,16.47,16.47,0,0,0,.63-3.36,17.32,17.32,0,0,0-.07-3.45A19.51,19.51,0,0,0,50.1,12.49Z"/><path class="cls-3" d="M33.7,15.45a6.67,6.67,0,0,1,.84,1.87l.06.29q.19-.21.51-.51a18.88,18.88,0,0,1,2.4-2c.26-.19.55-.36.85-.54a3,3,0,0,1,.47-.26l.24-.13.12-.06.07,0,.07,0a4.17,4.17,0,0,1,.57-.18l.56-.13,1.15-.22,1.17-.25a11.52,11.52,0,0,0,1.14-.35,3,3,0,0,0,1-.55.77.77,0,0,0,.23-.38s0-.07,0-.1a.33.33,0,0,0,0-.1l0-.12,0-.11a1,1,0,0,0-.27-.36,1.63,1.63,0,0,0-.46-.22,4.24,4.24,0,0,0-1.14-.12,13.05,13.05,0,0,0-2.35.34,37.77,37.77,0,0,0-4.11,1.24c-1.18.43-2.15.82-2.83,1.1L32.85,14l-.16,0a3.36,3.36,0,0,1,.46.55C33.35,14.87,33.53,15.17,33.7,15.45Z"/><path class="cls-2" d="M32.89,39.15c-1-.06-2-.1-3.12-.09a21.64,21.64,0,0,0-3.45.27,8.17,8.17,0,0,0-1.71.48,2.72,2.72,0,0,0-.72.44,1.15,1.15,0,0,0-.4.62,1.31,1.31,0,0,0,.08.77,1.54,1.54,0,0,0,.08.19l.09.19.05.06a.2.2,0,0,0,.06.07l.06.06.08.06a2.28,2.28,0,0,0,.78.31,6.66,6.66,0,0,0,.91.11,15.08,15.08,0,0,0,1.9-.06c.64-.06,1.28-.14,1.91-.23l1.89-.26.47,0,.25,0h1.17c.61,0,1.22,0,1.81,0l.88,0c.29,0,.58,0,.86.08h0c0-.13,0-.26,0-.38-.14-.89-.3-1.69-.44-2.36C35.41,39.36,34.23,39.23,32.89,39.15Z"/><path class="cls-2" d="M39.27,40l-.44-.1c-.3-.07-.73-.16-1.28-.25l-.49-.07c.13.63.27,1.35.39,2.16l.09.57a12.6,12.6,0,0,1,2.42.6c.23.09.47.17.69.28l.32.15.14.07c-.19-.46-.37-.86-.53-1.21-.26-.53-.47-.94-.62-1.21l-.24-.41a.93.93,0,0,1-.15-.54A1.13,1.13,0,0,1,39.27,40Z"/><path d="M51.45,15.8a20.72,20.72,0,0,0-.73-3.5c0-.14-.09-.28-.14-.42l-.14-.43L50.27,11l-.08-.21-.09-.2-.18-.41-.2-.4-.1-.2-.11-.19L49.28,9a13,13,0,0,0-1-1.44A11.26,11.26,0,0,0,47,6.36a8.11,8.11,0,0,0-.89-.65l0,0c.12-.14,0-.45-.36-.71l-.11-.09-.33-.25c-.28-.21-.71-.52-1.27-.89A22.9,22.9,0,0,0,35.52.36,22.73,22.73,0,0,0,31.4,0C30.68,0,30,0,29.22.12S27.74.31,27,.46a22.39,22.39,0,0,0-2.2.59,21.48,21.48,0,0,0-2.14.83,19.11,19.11,0,0,0-3.91,2.37,17.8,17.8,0,0,0-3.1,3.16l-.32.44-.3.44c-.1.14-.19.3-.28.45s-.19.29-.27.44c-.17.31-.34.61-.48.92s-.29.61-.42.91a17,17,0,0,0-1.06,3.56,20.86,20.86,0,0,0-.26,5.54c0,.33.07.63.1.88l0,.25a.22.22,0,0,0-.13,0,.79.79,0,0,0-.23.14l0,0a1,1,0,0,0-.31.1l-.11.05-.32.18a9.56,9.56,0,0,0-1.18.75l-.38.29-.4.35c-.14.12-.27.26-.41.4l-.21.22a2.2,2.2,0,0,0-.2.23A9.7,9.7,0,0,0,7,26.42a12.91,12.91,0,0,0-.88,3.21c0,.14,0,.29,0,.44s0,.29,0,.44,0,.61-.06.91c0,.62,0,1.24,0,1.88.06,2.54.46,5.21.77,7.87A51.32,51.32,0,0,0,8,49c.15.62.34,1.22.54,1.8a16.79,16.79,0,0,0,.67,1.68A13.53,13.53,0,0,0,10,54c.07.12.15.24.23.35a3.39,3.39,0,0,0,.23.34l.24.31.12.16.13.15A8.38,8.38,0,0,0,13.1,57.1l.27.16.28.13.26.12.27.1.5.18.47.12a8.47,8.47,0,0,0,1.39.22l.37,0H17l.23,0c-.15,3-.32,6.47-.5,10.09,0,.55-.06,1.1-.08,1.65s-.07,1.1-.1,1.66c-.07,1.12-.14,2.26-.18,3.41s0,2.31,0,3.48c0,.59.08,1.17.15,1.76,0,.29.08.58.13.87s.09.59.16.88a12.77,12.77,0,0,0,.48,1.71c0,.14.09.29.15.42l.17.42a8.43,8.43,0,0,0,.39.8c.14.27.3.52.46.78l.26.36c.09.13.19.24.28.35l.15.18.15.16.16.16a1.21,1.21,0,0,0,.16.16,4.8,4.8,0,0,0,.72.56,6.53,6.53,0,0,0,.77.46,8.16,8.16,0,0,0,.8.36,11,11,0,0,0,1.66.52,9.39,9.39,0,0,0,3.42.19,5.84,5.84,0,0,0,.83-.18,5.6,5.6,0,0,0,.81-.3l.37-.2c.12-.07.24-.13.36-.21l.18-.11.17-.13c.12-.08.22-.18.33-.27a3,3,0,0,0,.54-.7,2.32,2.32,0,0,0,.26-.86,3.09,3.09,0,0,0,0-.86,4.63,4.63,0,0,0-.25-.77,8.58,8.58,0,0,0-.74-1.34c-.27-.42-.55-.81-.82-1.2l-.39-.57-.18-.27-.15-.29a9.34,9.34,0,0,1-.51-1.18,10.11,10.11,0,0,1-.49-2.37,13.5,13.5,0,0,1,0-2.2,30,30,0,0,1,.51-3.59c.41-2,.65-3.13.65-3.13a2.69,2.69,0,0,0,.05-.82l.33,0,.38,0,.4,0a10.25,10.25,0,0,0,2.24-.2,1.67,1.67,0,0,0,0,.39.92.92,0,0,1,0,.16l0,.46c0,.1,0,.21,0,.33v1.42c0,.75,0,1.67-.1,2.73s-.12,2.26-.16,3.57a31.16,31.16,0,0,0,.12,4.26c0,.19,0,.38.07.57l0,.29h0v.25c0,.39.07.78.13,1.18a9.65,9.65,0,0,0,.62,2.4,5.83,5.83,0,0,0,.64,1.14,4.5,4.5,0,0,0,1,1l.28.19a.56.56,0,0,0,.15.1l.15.08a5.59,5.59,0,0,0,.63.26,9.62,9.62,0,0,0,1.28.33,14.39,14.39,0,0,0,2.63.27,12.07,12.07,0,0,0,1.34,0A8.08,8.08,0,0,0,42,89a3.31,3.31,0,0,0,.66-.25,2.37,2.37,0,0,0,.61-.42l.13-.11.12-.13c.09-.09.16-.19.24-.28a2,2,0,0,0,.34-.69,1.82,1.82,0,0,0,0-.77,2.68,2.68,0,0,0-.22-.71,6.61,6.61,0,0,0-.75-1.14c-.26-.34-.54-.67-.79-1a4.41,4.41,0,0,1-.6-1,11.54,11.54,0,0,1-.67-2.32,15.71,15.71,0,0,1-.23-2.35c0-.77,0-1.53,0-2.28,0-1.49.13-2.9.22-4.2.17-2.4.42-4.41.64-5.89a1.3,1.3,0,0,0,.08.17,3.06,3.06,0,0,0,.67.85,2,2,0,0,0,1.16.52,2.1,2.1,0,0,0,1.3-.38,4.27,4.27,0,0,0,.93-.92,4.86,4.86,0,0,0,.6-1.15,8.69,8.69,0,0,0,.31-1.16c.16-.76.24-1.47.32-2.07h0l0-.14a3.56,3.56,0,0,0,.07-.35c.06-.29.11-.67.16-1,0-.18.06-.37.09-.53s0-.17.05-.24l.06-.21a1.73,1.73,0,0,1,.1-.3l0-.11s0-.06-.14-.1a1,1,0,0,1,0-.1c.06-.19.13-.38.18-.59a5.47,5.47,0,0,0,.13-.61,13.12,13.12,0,0,0,.17-2.61c-.05-1.8-.35-3.68-.52-5.54S47.29,45,47,43.23a47.06,47.06,0,0,0-.89-4.79,31.52,31.52,0,0,0-1-3.32c-.08-.19-.14-.37-.2-.52s-.11-.28-.16-.38l-.14-.32a.64.64,0,0,0-.13-.19l.24-.19.18-.16.17-.17.17-.16a1.22,1.22,0,0,0,.15-.17l.3-.33a2.09,2.09,0,0,0,.14-.17l.13-.17a10.38,10.38,0,0,0,1.35-2.34l.18-.4.1-.3.09-.25a.39.39,0,0,0,0-.26,15.69,15.69,0,0,0,3.14-5.78,17,17,0,0,0,.66-3.49A19.38,19.38,0,0,0,51.45,15.8ZM18,44.22a3.68,3.68,0,0,0-.05.5s-.24,4.64-.59,11.61c0,.39,0,.8-.06,1.21a1,1,0,0,0-.25,0h-.11l-.35,0a7.74,7.74,0,0,1-1.29-.2l-.43-.11L14.41,57a1.7,1.7,0,0,1-.24-.09l-.25-.12-.25-.12-.25-.14a7.46,7.46,0,0,1-2-1.68l-.12-.14-.11-.15c-.08-.09-.15-.19-.23-.29s-.14-.22-.22-.32l-.21-.33a12.29,12.29,0,0,1-.77-1.44,15.63,15.63,0,0,1-.65-1.62c-.19-.56-.37-1.15-.53-1.75A53,53,0,0,1,7.33,41.1c-.15-1.35-.34-2.67-.48-4s-.25-2.59-.29-3.84c0-.62,0-1.23,0-1.83,0-.29,0-.59.06-.88s0-.28.05-.43,0-.28,0-.42a12.29,12.29,0,0,1,.83-3A9,9,0,0,1,9,24.43c.06-.07.12-.15.19-.22l.19-.2c.13-.13.25-.26.38-.37l.37-.32.36-.28a11.51,11.51,0,0,1,1.11-.71l.31-.17.1-.05.14-.07a.25.25,0,0,0,.14,0l.23-.15c0,.08,0,.14,0,.19l0,.14,0,.14h0a.56.56,0,0,0,0,.12h0l.05.11h0s0,.07.05.1h0c.09.12.19.2.28.18s.16-.14.19-.31,0-.06,0-.09v-.12h0a.41.41,0,0,0,0-.11h0a.5.5,0,0,0,0-.12l0-.13c0-.09,0-.23-.06-.4s-.06-.38-.09-.64-.06-.54-.09-.86a19.78,19.78,0,0,1,.24-5.36,16.81,16.81,0,0,1,1-3.43c.12-.29.25-.59.4-.88s.3-.58.46-.87.17-.29.26-.44.17-.29.27-.43l.29-.42.31-.42a16.83,16.83,0,0,1,3-3A18.77,18.77,0,0,1,21,3.5a20.54,20.54,0,0,1,2-1c.68-.3,1.37-.57,2.07-.8a20.42,20.42,0,0,1,2.14-.56A19.82,19.82,0,0,1,29.28.76C30,.69,30.71.66,31.4.65a22.24,22.24,0,0,1,4,.34,23.31,23.31,0,0,1,3.49.92,22.38,22.38,0,0,1,4.82,2.38c.33.22.61.41.84.58L44.4,4.8,44,4.65a11.87,11.87,0,0,0-1.63-.43A11.58,11.58,0,0,0,40.73,4a12.32,12.32,0,0,0-1.61,0,15.23,15.23,0,0,0-1.55.21,18,18,0,0,0-5.39,2.05,20.18,20.18,0,0,0-3.91,2.91l-.13.12h0l0,0h0a.14.14,0,0,1,0-.07A1,1,0,0,0,28,9.1.5.5,0,0,0,28,9a1,1,0,0,0-.15-.18l-.06-.08-.07,0h0A2.73,2.73,0,0,0,26.58,8a2.76,2.76,0,0,0-1.82,0,3.74,3.74,0,0,0-.92.45,4,4,0,0,0-.77.71,4,4,0,0,0-.3.42,3.07,3.07,0,0,0-.24.48,2.74,2.74,0,0,0-.21,1,2.4,2.4,0,0,0,.19,1,2.63,2.63,0,0,0,.21.41,1,1,0,0,0,.12.17l.13.17c.09.1.19.18.27.27l.13.11.13.1.13.1.12.07.21.14.09,0,.08,0,.14.07.11.05c.08,0,.2-.06.27-.22s.07-.33,0-.36l-.1,0-.11-.06-.08,0-.08,0L24.1,13l-.1-.06-.1-.08-.11-.09a.31.31,0,0,1-.11-.09l-.22-.22-.1-.13a1.47,1.47,0,0,1-.1-.13,2.25,2.25,0,0,1-.16-.31,2,2,0,0,1-.14-.71,2.24,2.24,0,0,1,.17-.79,3.37,3.37,0,0,1,.19-.38c.08-.12.16-.24.25-.35a3,3,0,0,1,1.39-1l.09,0,.1,0,.19,0a2.31,2.31,0,0,1,.37,0c.12,0,.23,0,.34,0l.16,0,.15.05a2.08,2.08,0,0,1,.84.56l.11.12.08.1,0,.05,0,0,.07.07.12.15,0,0h0l.1,0,.05,0h0l-.27.28c-.13.14-.26.27-.38.41a1.43,1.43,0,0,0,0-.22,1.54,1.54,0,0,0-.29-.62,1.87,1.87,0,0,0-.48-.45l.09.17a.58.58,0,0,0-.26-.07h0c0-.17,0-.33-.08-.34A2.17,2.17,0,0,0,24.82,9a2.2,2.2,0,0,0-1,.82,1.78,1.78,0,0,0-.25.64A1.5,1.5,0,0,0,24,11.76a2,2,0,0,0,.52.39,1.68,1.68,0,0,0,.63.21,1.63,1.63,0,0,0,.38,0,19.45,19.45,0,0,0-1.09,1.72l-.07.13h-.08l0,.08-.07.21c0,.06-.05.13-.08.19l-.08.16a2.75,2.75,0,0,0-.17.41s0,0,0,.06h-.09l-.07.18c-.05.12-.11.27-.17.44h0l0,0h0a3,3,0,0,0-.11.46c0,.06,0,.12,0,.16l-.4.18a53.33,53.33,0,0,0-6.15,3.12c-.54.34-1.08.7-1.61,1.09a16.73,16.73,0,0,0-1.54,1.27l-.27.27-.18.18c-.15.16-.3.31-.44.48h0c-.08.08-.15.17-.23.26l-.26.31a12,12,0,0,0-1.12,1.74c-.08.15-.14.31-.22.47l-.1.24a2.34,2.34,0,0,0-.09.24l-.17.5-.13.5-.06.25-.05.26c0,.17-.06.33-.08.5s0,.35,0,.52,0,.17,0,.25v.26a11.2,11.2,0,0,0,.13,2c.06.32.11.65.2,1,0,.16.08.31.13.47s.09.31.14.46,0,.16.08.23l.08.23.18.44c.06.15.13.29.19.43s.13.29.21.42l.22.41c.07.14.15.26.23.39l.12.2.06.09s0,0,0,0l0,0,0,0c.1.12.19.24.29.35a12.56,12.56,0,0,0,1.21,1.21c.41.37.81.71,1.19,1a13.66,13.66,0,0,1,1.91,1.88,5.27,5.27,0,0,1,.94,1.74A5.33,5.33,0,0,1,18,43.83v.39ZM26,9.65a1.1,1.1,0,0,1,.5.67,1.11,1.11,0,0,1-.14.83,1.24,1.24,0,0,1-.66.54,1.08,1.08,0,0,1-.82-.1,1.3,1.3,0,0,1-.59-.62.75.75,0,0,1,0-.39,1,1,0,0,1,.16-.39,1.49,1.49,0,0,1,.69-.57,1.51,1.51,0,0,1,.75-.13v0Zm1.83,72,.12.23.2.3.39.58c.27.39.55.78.81,1.18A8.81,8.81,0,0,1,30,85.19a4.26,4.26,0,0,1,.22.66,2.44,2.44,0,0,1,0,.66,1.88,1.88,0,0,1-.19.61,2.38,2.38,0,0,1-.42.54c-.09.07-.17.16-.27.23l-.15.11-.15.1-.33.19-.34.18a5.3,5.3,0,0,1-.7.26,6.41,6.41,0,0,1-.76.16,8.79,8.79,0,0,1-3.18-.18,9.72,9.72,0,0,1-1.56-.49,6.36,6.36,0,0,1-.75-.34,6.1,6.1,0,0,1-.7-.41,4.56,4.56,0,0,1-.64-.5L20,86.83l-.14-.15-.14-.15-.13-.16A4.19,4.19,0,0,1,19.3,86l-.24-.33c-.15-.24-.3-.47-.43-.72s-.25-.5-.37-.76l-.06-.14a.13.13,0,0,0,.09,0l.07-.09a2.65,2.65,0,0,1,.21-.26,7.23,7.23,0,0,1,.84-.85,7.4,7.4,0,0,1,1.4-.93c.28-.13.57-.26.87-.37a7.9,7.9,0,0,1,.95-.27,8.59,8.59,0,0,1,1.93-.19,9.58,9.58,0,0,1,1.7.17c.49.09.89.2,1.17.28Zm13.2.47h0a5.37,5.37,0,0,0,.21.56,4.94,4.94,0,0,0,.69,1.16c.26.35.54.68.79,1a5.26,5.26,0,0,1,.67,1,1.47,1.47,0,0,1,.15,1,1.54,1.54,0,0,1-.24.48,1.81,1.81,0,0,1-.18.21L43,87.7l-.11.1a1.91,1.91,0,0,1-.46.32,2.69,2.69,0,0,1-.56.21,6.24,6.24,0,0,1-1.22.22c-.42,0-.85,0-1.27,0a15.06,15.06,0,0,1-2.52-.26A9,9,0,0,1,35.66,88a4.53,4.53,0,0,1-.55-.23L35,87.74l-.12-.08-.24-.17a3.94,3.94,0,0,1-.82-.81,5.58,5.58,0,0,1-.57-1,7.54,7.54,0,0,1-.44-1.47l0,0,.05-.08.18-.21a5.09,5.09,0,0,1,.73-.67,8,8,0,0,1,2.73-1.36,7.08,7.08,0,0,1,1.6-.25,5.93,5.93,0,0,1,.74,0,5.23,5.23,0,0,1,.64.12,3.69,3.69,0,0,1,.9.36,3,3,0,0,1,.3.2C40.76,82.35,40.89,82.27,41,82.13Zm.5-18.94s0,.08,0,.13-.18.11-.17.19,0,.05,0,.15a3.39,3.39,0,0,0,0,.35c0,.28-.1.59-.16.93-.23,1.52-.51,3.69-.7,6.3-.08,1.31-.16,2.73-.22,4.23,0,.75,0,1.53,0,2.32a17.11,17.11,0,0,0,.25,2.44,11.37,11.37,0,0,0,.33,1.4l-.13-.08a4,4,0,0,0-1-.42,4.22,4.22,0,0,0-.74-.14,7.4,7.4,0,0,0-.83,0,7.69,7.69,0,0,0-1.75.28,8.63,8.63,0,0,0-3,1.47,6.39,6.39,0,0,0-.73.66c0-.36-.08-.72-.11-1.08V82l0-.28-.07-.55A33.14,33.14,0,0,1,32.3,77c0-1.3.12-2.49.17-3.56s.09-2,.1-2.76v-.54c0-.17,0-.33,0-.48v-.76c0-.21,0-.37,0-.47s0-.16,0-.16a2.68,2.68,0,0,0-.09-.46,4.54,4.54,0,0,0,.53-.12c.57-.13,1.16-.27,1.75-.43l.9-.25.46-.15.23-.08.22-.08a11.16,11.16,0,0,0,1.81-.81c.3-.16.58-.35.87-.54L39.6,65l.1-.08.1-.08.19-.17.2-.17.18-.18c.12-.13.25-.24.37-.37s.46-.52.66-.8l.14-.17C41.53,63.06,41.51,63.12,41.5,63.19Zm5.24-3.47c-.07.36-.14.86-.22,1.46s-.16,1.3-.31,2a8.06,8.06,0,0,1-.29,1.07,4.14,4.14,0,0,1-.51,1,3.51,3.51,0,0,1-.77.77,1.41,1.41,0,0,1-.89.27,1.31,1.31,0,0,1-.78-.36,2.24,2.24,0,0,1-.53-.67A4.12,4.12,0,0,1,42,64c.05-.27.09-.51.13-.7l.12-.62a1.56,1.56,0,0,0,0-.73s0-.05,0-.08l.14-.23.12-.23a.61.61,0,0,1,.07-.14.86.86,0,0,0,.24,0h.2l.15,0,.42,0,.57-.11a5.9,5.9,0,0,0,1.48-.56l.4-.25.39-.33a3.83,3.83,0,0,0,.28-.29Zm4.13-40.4a16.47,16.47,0,0,1-.63,3.36A15,15,0,0,1,47,28.44,14.16,14.16,0,0,1,42,32a13.55,13.55,0,0,1-2.74.81,12.22,12.22,0,0,1-2.67.19,12.68,12.68,0,0,1-4.54-1,14.12,14.12,0,0,1-1.74-.91c-.52-.31-1-.64-1.37-.94l-.55-.45L28,29.29c-.29-.27-.53-.49-.72-.69l-.42-.45L26.68,28a3.38,3.38,0,0,0-.59-.53l0,0c-.15-.1-.28-.13-.34-.08s-.05.2,0,.4l.08.14.06.12,0,0,.08.12h0l.09.12,0,0,.11.12.14.16.44.47c.19.2.45.44.74.72l.49.43.58.47a15.33,15.33,0,0,0,1.43,1,14.53,14.53,0,0,0,1.81,1,13.21,13.21,0,0,0,10.46,0,14.66,14.66,0,0,0,4.43-2.93,10.05,10.05,0,0,1-1.23,2.1l-.12.16-.13.15c-.09.1-.18.21-.28.31a.75.75,0,0,1-.15.16l-.15.15-.16.15-.17.15a7,7,0,0,1-.73.56,8.31,8.31,0,0,1-2.71,1.2,12.16,12.16,0,0,1-2.08.32,16.64,16.64,0,0,1-2.12,0,18.9,18.9,0,0,1-2-.29,24.19,24.19,0,0,1-3.54-1c-1-.35-1.84-.7-2.42-1l-.9-.41a.34.34,0,0,0-.45.14.33.33,0,0,0,.17.44l.92.42c.58.26,1.43.62,2.47,1a27.46,27.46,0,0,0,3.63,1,19.51,19.51,0,0,0,2.11.29,14.77,14.77,0,0,0,2.21,0A12.32,12.32,0,0,0,41,35.42a10.91,10.91,0,0,0,2-.76,9.55,9.55,0,0,0,.89-.54l.07,0,0,.08.13.31c.05.1.1.22.16.37s.12.32.19.51a29.17,29.17,0,0,1,1,3.24c.33,1.36.64,3,.88,4.73s.43,3.62.6,5.5.48,3.76.52,5.5a12.44,12.44,0,0,1-.15,2.48,5.07,5.07,0,0,1-.13.56,4.64,4.64,0,0,1-.16.53,4.39,4.39,0,0,1-.46.92A3.63,3.63,0,0,1,45.35,60a5.1,5.1,0,0,1-1.31.49l-.51.1-.39,0h-.26l.08-.21c.12-.32.24-.65.33-1s.18-.67.26-1c0-.17.07-.34.1-.51l.05-.25,0-.25a19.63,19.63,0,0,0,.2-2c0-.33,0-.66,0-1V54c0-.16,0-.32,0-.48a29.91,29.91,0,0,0-.38-3.68,32,32,0,0,0-.71-3.24c-.16-.59-.33-1.15-.5-1.67l.09.06.13.07.06,0,0-.07-.25-.55L41.23,42l-.74-1.63c-.14-.31-.38-.51-.55-.43h0a.26.26,0,0,0-.09-.29.93.93,0,0,0-.42-.22s-.16,0-.46-.11-.75-.16-1.32-.25l-.73-.12-.14-.61c-.1-.42-.17-.74-.23-1L36.47,37v0l.9,0,.45,0,.4,0,.66-.06.57-.07c.11,0,.18-.17.15-.34s-.13-.31-.24-.3l-.55.07-.64.06-.4,0-.43,0c-.61,0-1.33.05-2.09,0s-1.57-.07-2.38-.16S31.24,36,30.5,35.8L30,35.68l-.52-.13c-.34-.09-.66-.17-.95-.27-.59-.17-1.07-.34-1.4-.45l-.53-.2c-.1,0-.23.07-.3.23s0,.33.07.37l.54.2c.34.12.83.3,1.43.47.3.1.63.18,1,.27l.53.13a5.25,5.25,0,0,0,.57.13c.76.16,1.59.29,2.41.39s1.67.15,2.45.17h.59a1.11,1.11,0,0,0,0,.17l.09.33c0,.22.13.54.22.95l.09.38c-.94-.12-2.05-.24-3.31-.32-1-.06-2-.1-3.17-.09a23.3,23.3,0,0,0-3.55.28,8.51,8.51,0,0,0-1.86.53,3.31,3.31,0,0,0-.89.54l-.1.1-.1.1a2,2,0,0,0-.17.23,1.25,1.25,0,0,0-.08.12.84.84,0,0,0-.06.14,1.31,1.31,0,0,0-.09.28,1.62,1.62,0,0,0,0,.58,2.33,2.33,0,0,0,.05.28,2.76,2.76,0,0,0,.08.27c0,.08.06.16.1.25l.13.24a1.48,1.48,0,0,0,.42.44,2.87,2.87,0,0,0,1,.42,5.91,5.91,0,0,0,1,.12,14.61,14.61,0,0,0,2-.06c.65-.06,1.3-.14,1.94-.23l1.88-.26.45-.05h1.36c.61,0,1.2,0,1.78,0,.29,0,.58,0,.86,0l.83.08.23,0c.15,1.17.28,2.47.34,3.84,0,.9,0,1.82,0,2.76s-.1,1.9-.21,2.85-.27,1.89-.46,2.81S36.22,57,36,57.82a34,34,0,0,1-1.76,4.57c-.61,1.29-1.21,2.33-1.63,3-.22.36-.38.64-.51.83l-.18.29a.42.42,0,0,0,0,.57c.15.09.38,0,.52-.22l.19-.29c.12-.19.29-.48.51-.85a34.25,34.25,0,0,0,1.66-3.11A33.3,33.3,0,0,0,36.59,58q.39-1.32.69-2.73c.19-.94.35-1.9.47-2.87s.18-1.94.22-2.9,0-1.9,0-2.81c-.06-1.32-.18-2.57-.33-3.71a11.61,11.61,0,0,1,2.11.54,6.11,6.11,0,0,1,.64.26l.3.14.15.07,0,0h0l0,0,.16.09.41.25q.39,1.06.75,2.37c.26,1,.5,2,.69,3.17a27.23,27.23,0,0,1,.37,3.6c0,.16,0,.31,0,.47s0,.32,0,.48c0,.32,0,.63,0,1a15.76,15.76,0,0,1-.19,1.93l0,.25-.05.24-.09.48c-.08.32-.15.64-.25,1s-.2.62-.31.93l-.19.45c-.06.16-.14.3-.21.45l-.11.22-.12.21c-.09.14-.16.28-.26.41l-.28.41-.07.1-.08.1-.15.2c-.19.26-.41.5-.63.75l-.34.34-.17.17-.18.16-.19.16-.09.08-.09.07-.38.29a7.69,7.69,0,0,1-.81.5,10.16,10.16,0,0,1-1.72.77l-.21.08-.23.08-.43.14-.89.25L32.81,67a11.78,11.78,0,0,1-3.16.41,6.47,6.47,0,0,1-2.56-.61,16.33,16.33,0,0,1-1.83-1l-1.57-1c-.31-.19-.64-.22-.73-.07s.08.43.38.62l1.58,1a18.23,18.23,0,0,0,1.91,1.05c.19.09.4.17.61.25l.33.11c.11,0,.21.07.32.09a3.31,3.31,0,0,0-.26.79s-.23,1.14-.64,3.14a30.17,30.17,0,0,0-.52,3.67,13.62,13.62,0,0,0,0,2.3,10.67,10.67,0,0,0,.52,2.52c.07.19.14.38.22.56-.28-.07-.63-.16-1.05-.24a11.65,11.65,0,0,0-1.8-.18,9.35,9.35,0,0,0-2.08.21,8.54,8.54,0,0,0-1,.29,9.06,9.06,0,0,0-.95.41,7.55,7.55,0,0,0-2.44,1.93l-.13.15a15.1,15.1,0,0,1-.45-1.63c-.06-.28-.1-.56-.16-.84l-.12-.85c-.07-.57-.11-1.14-.14-1.71-.06-1.15-.06-2.29,0-3.43s.1-2.27.17-3.39c0-.56.07-1.12.1-1.67s.06-1.1.08-1.65c.22-4.35.42-8.41.6-11.9.35-7,.58-11.61.58-11.61v-.14s0,0,0,0a1.78,1.78,0,0,0,0-.26v-.13c0-.08,0-.21,0-.37a5.37,5.37,0,0,0-.23-1.42,5.82,5.82,0,0,0-1.05-2,15,15,0,0,0-2-2A21.33,21.33,0,0,1,13,36.28a4.15,4.15,0,0,1-.27-.32l0,0h0l-.06-.09a1.74,1.74,0,0,0-.11-.18l-.22-.38-.21-.38c-.07-.13-.13-.27-.19-.4l-.19-.41-.16-.42-.08-.21c0-.08-.05-.15-.07-.22s-.1-.29-.14-.44-.08-.3-.12-.45-.13-.61-.19-.91a10,10,0,0,1-.13-1.9v-.24a1.94,1.94,0,0,1,0-.24l0-.47c0-.16.05-.32.08-.48l0-.24.06-.23.12-.47.16-.45a1.55,1.55,0,0,1,.08-.23l.1-.22c.06-.15.13-.3.2-.44a10.77,10.77,0,0,1,1.05-1.63,13.72,13.72,0,0,1,1.32-1.43,17,17,0,0,1,1.47-1.22c.51-.38,1-.73,1.56-1.06a53.72,53.72,0,0,1,6.09-3.08c.91-.41,1.76-.78,2.5-1.13s1.39-.64,1.92-.91.94-.48,1.22-.63h0a.16.16,0,0,0,.13.07l.46-.1,1.18-.3a6.08,6.08,0,0,1,.74-.16,1.36,1.36,0,0,1,.35,0,.86.86,0,0,1,.3.12,2.44,2.44,0,0,1,.58.61c.18.26.34.53.52.83a6.78,6.78,0,0,1,.45.84,4.85,4.85,0,0,1,.31.85,3,3,0,0,1,.12.8,1.35,1.35,0,0,1-.15.62l-.06.09c0-.09-.1-.14-.12-.13l-.51.27-.47.27h0a.1.1,0,0,0-.08.05l-.55.33a10.81,10.81,0,0,0-1.07.75c-.14.1-.25.21-.33.27l-.13.11s0,0,0,.08l-.32.24a28.6,28.6,0,0,0-4.53,4.34,14.54,14.54,0,0,0-1.86,2.83,8.88,8.88,0,0,0-.55,1.48,6.26,6.26,0,0,0-.21,1.43,5,5,0,0,0,.15,1.23,4.36,4.36,0,0,0,.34.9,2.88,2.88,0,0,0,.17.31c0,.09.1.16.14.22l.09.13,0,0a.28.28,0,0,0,.42,0,.29.29,0,0,0,.09-.4l0,0-.08-.12-.13-.19a2,2,0,0,1-.14-.26,3.1,3.1,0,0,1-.29-.77,4.21,4.21,0,0,1-.13-1.06,5.47,5.47,0,0,1,.18-1.27,7.22,7.22,0,0,1,.52-1.37l.18-.37,0-.06.17-.32,0,0,.21-.34h0l.24-.36h0l.32-.46h0l.28-.36v0l.29-.36a27.23,27.23,0,0,1,4.42-4.23c.67-.52,1.24-.92,1.65-1.19s.64-.41.64-.41A.23.23,0,0,0,33,20l.19,0a1.94,1.94,0,0,0,.6-.19,1.32,1.32,0,0,0,.33-.23,1.42,1.42,0,0,0,.29-.35,1.81,1.81,0,0,0,.22-.76.31.31,0,0,0,.11-.09l.2-.22.59-.6a18.73,18.73,0,0,1,2.31-1.92c.25-.18.53-.34.81-.51a3.25,3.25,0,0,1,.45-.25l.22-.12.12-.06.06,0,0,0a3,3,0,0,1,.48-.15l.54-.13,1.14-.22c.39-.08.78-.16,1.19-.26a12,12,0,0,0,1.22-.36,3.48,3.48,0,0,0,1.19-.7,1.45,1.45,0,0,0,.41-.69,1.52,1.52,0,0,0,0-.21v-.21a1.42,1.42,0,0,0,0-.2,1.39,1.39,0,0,0-.06-.19,1.45,1.45,0,0,0-.48-.64,2.09,2.09,0,0,0-.67-.33,4.47,4.47,0,0,0-1.34-.14,13.12,13.12,0,0,0-2.48.35,39.06,39.06,0,0,0-4.17,1.26c-1.2.44-2.19.83-2.87,1.12l-1.08.45a.44.44,0,0,0-.26.37,1.28,1.28,0,0,0-.47-.18,1.9,1.9,0,0,0-.53,0,6.69,6.69,0,0,0-.83.17l-.77.2a.29.29,0,0,0,0-.09c-.1-.15-.42-.13-.72.05l-.41.23-1.2.63c-.52.25-1.16.56-1.9.9l-1.39.62,0-.07.08-.14c.1-.18.22-.42.33-.67s.13-.3.19-.45h0l.29-.54a22.59,22.59,0,0,1,1.27-2l.49-.63.56-.67c.2-.23.42-.46.64-.7s.47-.48.73-.72A19.85,19.85,0,0,1,32.5,6.91a17.09,17.09,0,0,1,5.19-2,14.44,14.44,0,0,1,1.49-.21c.5,0,1,0,1.53,0a10.33,10.33,0,0,1,3.07.58,8.4,8.4,0,0,1,1.46.67,8.22,8.22,0,0,1,1.34.93A9.16,9.16,0,0,1,47.75,8a10.9,10.9,0,0,1,1,1.36c.08.12.14.24.21.36l.11.19.09.19.2.38.17.39.09.19.07.2.16.4.14.4c.05.14.09.27.13.41a19.51,19.51,0,0,1,.7,3.38A17.32,17.32,0,0,1,50.87,19.32ZM39.72,40.59,40,41c.15.27.36.68.62,1.21.16.35.34.75.53,1.21L41,43.35l-.32-.15c-.22-.11-.46-.19-.69-.28a12.6,12.6,0,0,0-2.42-.6l-.09-.57c-.12-.81-.26-1.53-.39-2.16l.49.07c.55.09,1,.18,1.28.25l.44.1a1.13,1.13,0,0,0,.3,0A.93.93,0,0,0,39.72,40.59Zm-2.85,1.64h0c-.28,0-.57,0-.86-.08l-.88,0c-.59,0-1.2,0-1.81,0H32.1l-.25,0-.47,0-1.89.26c-.63.09-1.27.17-1.91.23a15.08,15.08,0,0,1-1.9.06,6.66,6.66,0,0,1-.91-.11,2.28,2.28,0,0,1-.78-.31l-.08-.06-.06-.06a.2.2,0,0,1-.06-.07L23.74,42l-.09-.19a1.54,1.54,0,0,1-.08-.19,1.31,1.31,0,0,1-.08-.77,1.15,1.15,0,0,1,.4-.62,2.72,2.72,0,0,1,.72-.44,8.17,8.17,0,0,1,1.71-.48,21.64,21.64,0,0,1,3.45-.27c1.1,0,2.15,0,3.12.09,1.34.08,2.52.21,3.49.34.14.67.3,1.47.44,2.36C36.84,42,36.85,42.1,36.87,42.23ZM32.69,14l.16,0,1.07-.46c.68-.28,1.65-.67,2.83-1.1a37.77,37.77,0,0,1,4.11-1.24,13.05,13.05,0,0,1,2.35-.34,4.24,4.24,0,0,1,1.14.12,1.63,1.63,0,0,1,.46.22,1,1,0,0,1,.27.36l0,.11,0,.12a.33.33,0,0,1,0,.1s0,.07,0,.1a.77.77,0,0,1-.23.38,3,3,0,0,1-1,.55,11.52,11.52,0,0,1-1.14.35l-1.17.25-1.15.22-.56.13a4.17,4.17,0,0,0-.57.18l-.07,0-.07,0-.12.06-.24.13a3,3,0,0,0-.47.26c-.3.18-.59.35-.85.54a18.88,18.88,0,0,0-2.4,2q-.31.3-.51.51l-.06-.29a6.67,6.67,0,0,0-.84-1.87c-.17-.28-.35-.58-.55-.86A3.36,3.36,0,0,0,32.69,14Z"/><path d="M12.61,22.45h0Z"/><path d="M13.23,22.72h0c0-.06,0-.12-.05-.18h0c0,.17-.09.29-.19.31s-.19-.06-.28-.18c0,.17,0,.35.08.53C12.93,23,13.08,22.88,13.23,22.72Z"/><path d="M12.56,23.46l-.26.31Z"/><path d="M12.57,22.33Z"/><path d="M13.68,22.27l-.27.27Z"/><path d="M13.2,22.33h0Z"/><path d="M13.2,22.43v0Z"/><path d="M13.19,22.21h0Z"/><path d="M26,27.28c-.11-.18-.21-.37-.31-.56l-.32.46v0a3.18,3.18,0,0,0,.26.35h0v0a3.53,3.53,0,0,0,.21.32h0l-.08-.14c-.08-.2-.1-.35,0-.4s.19,0,.34.08h0Z"/><path d="M25.64,26.72h0l.28-.36Z"/><path class="cls-2" d="M48.26,26.86c3.42-5.26,3.2-14.13-1-19.37-.36.53,1.94,4.57,1.95,6.78,0,7.34-1.1,10.82-2.44,13.85a2.16,2.16,0,0,0,1-.95Z"/><path class="cls-2" d="M39.22,5.82c-5.14.12-10.78,4.51-12.62,9.07,5-1.94,7.95-8.27,13.62-9.36Z"/></g></g></svg>