<svg xmlns="http://www.w3.org/2000/svg" viewBox="0 0 24.43 28.65"><defs><style>.cls-1{fill:#f4f4f4;}</style></defs><title>trash-white</title><g id="Layer_2" data-name="Layer 2"><g id="Layer_1-2" data-name="Layer 1"><path class="cls-1" d="M22.59,8.5V25.8a2.55,2.55,0,0,1-2.86,2.85h-15a2.54,2.54,0,0,1-2.82-2.82V8.51l-.52-.08C.46,8.37.06,8,0,7.12c-.1-2,.08-2.25,2.06-2.56,1.72-.27,3.43-.5,5.15-.7.47-.06.6-.23.57-.66a6.91,6.91,0,0,1,0-.91A2.3,2.3,0,0,1,10.1,0c1.4,0,2.81,0,4.22,0A2.31,2.31,0,0,1,16.65,2.4c0,.44,0,.88,0,1.35,1.36.17,2.66.32,4,.5.86.13,1.71.28,2.56.45s1.26.57,1.27,1.54v.29C24.43,8.09,24.24,8.32,22.59,8.5Zm-.89,0h-19V25.7c0,1.49.55,2,2,2h14.9c1.49,0,2-.54,2-2V8.48Zm-9.55-1c3.52,0,7,0,10.54,0,.27,0,.63,0,.77-.18a1.25,1.25,0,0,0-.63-1.76,53.52,53.52,0,0,0-21.21,0C.86,5.71.82,5.86.89,7c0,.66.49.52.86.52Zm3.59-3.85c0-.49,0-1,0-1.42A1.34,1.34,0,0,0,14.36.92c-1.42,0-2.85,0-4.27,0A1.36,1.36,0,0,0,8.7,2.31c0,.44,0,.88,0,1.39l1.09-.06c0-.36,0-.66,0-1,0-.46.15-.7.64-.7,1.2,0,2.39,0,3.58,0,.49,0,.67.23.65.69s0,.64,0,1Zm-2.06-.09c.19-.51.05-.73-.48-.71s-1.31,0-2,0-.66.22-.47.71Z"/><path class="cls-1" d="M15.86,18.06c0-2,0-4.07,0-6.11a1.5,1.5,0,1,1,3,0c0,2.08,0,4.16,0,6.25s0,4.07,0,6.11a1.52,1.52,0,0,1-1.13,1.58,1.43,1.43,0,0,1-1.66-.75,2.73,2.73,0,0,1-.2-1C15.85,22.09,15.86,20.07,15.86,18.06Zm2.1,0V14.38c0-.85,0-1.69,0-2.53,0-.25-.39-.47-.59-.7a4,4,0,0,0-.54.7c-.08.15,0,.37,0,.56v8.35c0,1.2,0,2.39,0,3.58,0,.23.36.44.56.66a5.86,5.86,0,0,0,.57-.66c.08-.12,0-.32,0-.49Z"/><path class="cls-1" d="M8.58,18.09c0,2,0,4.07,0,6.11a1.54,1.54,0,0,1-1.26,1.69,1.5,1.5,0,0,1-1.73-1.63c0-1.38,0-2.76,0-4.14q0-4.08,0-8.15a1.5,1.5,0,1,1,3-.06C8.6,14,8.58,16,8.58,18.09Zm-.91,0V12.51c0-.16,0-.33,0-.49,0-.44-.08-.86-.59-.86s-.59.42-.59.86V24.1c0,.46,0,.91.62.88s.56-.46.56-.88Z"/><path class="cls-1" d="M13.71,18.16v6c0,1.11-.55,1.76-1.46,1.77s-1.51-.64-1.51-1.79V12c0-1.11.53-1.74,1.46-1.75s1.51.62,1.51,1.77ZM11.62,18v3.3c0,1,0,2,0,2.95,0,.25.37.49.57.73a5.1,5.1,0,0,0,.59-.73c.08-.14,0-.36,0-.55V14.94c0-1,0-2.06,0-3.09,0-.25-.4-.47-.61-.7a5,5,0,0,0-.55.69c-.08.15,0,.37,0,.56Z"/></g></g></svg>